M48
;Layer_Color=9474304
;FILE_FORMAT=2:5
INCH,LZ
;TYPE=PLATED
T1F00S00C0.01200
T2F00S00C0.03937
T3F00S00C0.04500
T4F00S00C0.09449
T5F00S00C0.12205
;TYPE=NON_PLATED
T6F00S00C0.05118
%
T01
X0019195Y00055
Y00125
Y00165
Y00215
Y00255
X0018Y0031
X0023Y0035
X0028
X0033
X0035Y0045
X004
X0045
X0029
X0023
X0018
X0013Y0049
X0008Y0045
X0003Y0036
X0028Y0025
Y0019
Y0012
Y0005
X005Y0007
X0052Y0013
X0054Y0019
X005Y0027
X0064614Y0033512
X0069614
X0074614
Y0039512
X0069614
X0064614
Y0045512
X0069614
X0074614
X0082449Y0062
X0088Y006
X0092Y0055
X0099Y0039
X0102Y0022
X0091Y0023
X0087655Y0026449
X0094Y0007
X0120696Y0008839
X0143208Y000539
X0138Y0043
X011602Y004302
X0113Y0049
X0114Y0061
X0117Y0076
X0122Y0085
X0121Y0097
X0112Y0091
X0105Y0093
X01Y0089
X0099Y0097
X0093Y0084
X008Y0081
X0083Y0075
X0079449Y006725
X0076Y0087
X0077Y0105
X0061Y0109
X0046Y0107
X0045Y0114
X004715Y0097
X0059722Y0093145
X0056Y0086
X0045Y0076
X0042Y0071
X0039Y0066
X0036Y0074
X0022Y0075
X0014129Y0076012
X0011Y0083
Y0089
X0021
X0028Y0088
X0039Y0128
X0056
X0062
X0087Y0138
X0093Y0113
X01Y0118
X0131Y0113
X0133Y0094
X013286Y0071473
X0145Y0068
X0142Y008
X0155Y0061
X015Y0131
X0137536Y0130158
X0143389Y014152
X0117Y0150516
X0068827Y001885
X0064Y001225
X0065Y0008
X0058
X0164Y0018
Y003
X0173Y0028
X017Y0043
X0174Y0046
X0175Y0061
X0174252Y0068568
X0156279Y0068024
X0164Y005804
X0157006Y0050958
X0192Y0046
X0186Y0034
X0213Y0033
Y0026
X0217Y0029
X0219Y0038
X0221Y0019
X0228Y0009
X0237Y0045
X0249Y0041
X0267Y0051
X0293Y0056
Y006
Y0064
X0301942Y0064223
X0310378Y007042
X0309Y0077
X0308Y0083
X0307Y0113
X0308Y0131
X0304Y0147
X0305Y0153
X0291Y0124
X0281Y0129
Y0113
X0295Y0102
X0279Y0089
X0278969Y0081
X0259Y0099
X0255Y0117
X0231Y0118
X0209Y0114
X0210529Y0124993
X0208807Y0154087
X0223268Y0147546
X0182296Y014789
X0175582Y0134462
X0164Y0124
X0161809Y0151333
X0175Y0099
Y0091
X0183Y008
X0192Y0094
X0187Y0109
X0224Y0098
X0233Y009275
X0241Y0088
X0216Y0085
X0225Y0075
X0199608Y0058392
X0172Y001
X0294Y0046
X0314Y0048
X0316Y0092
Y0101
X0329Y0103
X0334Y0093
X0325Y0089
X0348Y0082
X0366Y0092
X0365Y0106
X0359
X0367Y0118
X0366721Y013128
X0358Y01505
X0347Y0155
X0348Y0141
X0331Y0146
X0322Y0124
X0384Y011
X0364Y0166
X0338Y016
X0327Y0163
Y0183
X0351Y0209
X0312Y0172
X0307Y0157
X0281Y017
X0283Y0175
X0275Y0181
X025498Y017502
X0261Y0235
X026Y0239
X0259Y0251
X0250909Y0251504
X0245889Y0249504
Y0253504
X0240869Y0251504
X0238Y0264
X0242937Y0236
X0236Y0228
X0229
X0217Y0226
X0207
X02Y021985
X0194Y0215
Y0204
X02Y0208
X0171Y0197
X0161Y022
X0166Y0264
X0162Y0273
X0186Y0255
X0191Y024585
X0279Y0254
X0266Y0277
X0290814Y0285924
X0177Y0159
X0154Y022
Y0233
X015Y0249
X0139601Y0250149
X0133Y0241
X0121Y0245
X0117Y0241
X0119Y0224
X013
Y0218
X011Y0216
X0081413Y0234483
X0078Y0265
X0095
X0100695Y0271324
X0115672Y0280104
X0128Y0271
X0121028Y025672
X0154Y026
X0144Y029
T02
X0298Y0258
Y0273748
T03
X0144Y0024
Y0034
X0214Y0056
Y0066
X0252Y0075
Y0085
X0255Y013
X0265
X0267Y0022
X0257
X0252Y0008
X0262
X0344Y0094
X0354
X0373Y0143
X0383
Y0158
X0373
X0372Y0195
X0382
Y0209
X0372
Y0223
X0382
X0314Y021
X0304
X0286Y0203
X0276
X0268Y0216
X0258
X0241Y019
X0231
X0217Y018
Y017
X0195Y0174
X0185
X0171Y0178
Y0168
X018Y0192
X019
X0181Y0228
X0171
X0205Y0233
X0215
X0204Y0271
X0194
X0253Y0159
X0263
X0292Y0166
X0302
X0297Y0179
Y0189
X0154Y0178
Y0168
X0139Y0206
X0129
X0144Y0227
Y0237
X0096Y0226
Y0216
X0083
Y0206
T04
X023Y0058
X0378Y0013
X0379Y0287
X0075Y0285
T05
X0307Y0022
X0367Y0052
T06
X0036441Y0240791
Y0262445
M30
