G04*
G04 #@! TF.GenerationSoftware,Altium Limited,Altium Designer,20.2.6 (244)*
G04*
G04 Layer_Color=32896*
%FSLAX25Y25*%
%MOIN*%
G70*
G04*
G04 #@! TF.SameCoordinates,535AE1F0-9979-4E68-9054-F600688F37C9*
G04*
G04*
G04 #@! TF.FilePolarity,Positive*
G04*
G01*
G75*
%ADD10C,0.01000*%
%ADD19C,0.00200*%
D10*
X216000Y62172D02*
G03*
X209172Y69000I-6828J0D01*
G01*
Y0D02*
G03*
X216000Y6828I0J6828D01*
G01*
X210586Y25000D02*
G03*
X214000Y28414I0J3414D01*
G01*
X204000D02*
G03*
X207414Y25000I3414J0D01*
G01*
Y44000D02*
G03*
X204000Y40586I0J-3414D01*
G01*
X214000D02*
G03*
X210586Y44000I-3414J0D01*
G01*
X103276Y22529D02*
G03*
X106608Y19197I3332J0D01*
G01*
X109392D02*
G03*
X112724Y22529I0J3332D01*
G01*
Y45392D02*
G03*
X109392Y48724I-3332J0D01*
G01*
X106608D02*
G03*
X103276Y45392I0J-3332D01*
G01*
X6449Y69000D02*
G03*
X0Y62550I0J-6449D01*
G01*
Y6449D02*
G03*
X6449Y0I6449J0D01*
G01*
X204000Y69000D02*
X209172D01*
X216000Y6828D02*
Y62172D01*
X204000Y28414D02*
Y40586D01*
X207414Y25000D02*
X210586D01*
X214000Y28414D02*
Y40586D01*
X207414Y44000D02*
X210586D01*
X173500Y64000D02*
X196500D01*
X215000Y45500D01*
Y22500D02*
Y45500D01*
X173500Y4000D02*
X196500D01*
X215000Y22500D01*
X155000D02*
X173500Y4000D01*
X155000Y22500D02*
Y45500D01*
X173500Y64000D01*
X106608Y19197D02*
X109392D01*
X103276Y22529D02*
Y45392D01*
X106608Y48724D02*
X109392D01*
X112724Y22529D02*
Y45392D01*
X0Y6449D02*
Y7450D01*
X6449Y0D02*
X7450D01*
X6449Y69000D02*
X204000D01*
X0Y7450D02*
Y62550D01*
X7450Y0D02*
X209172D01*
X12500Y44000D02*
Y54500D01*
X102000D01*
Y11500D02*
Y54500D01*
X12500Y11500D02*
X102000D01*
X12500D02*
Y22000D01*
Y44000D01*
X215996Y62174D02*
G03*
X209000Y69000I-6828J0D01*
G01*
X209172Y0D02*
G03*
X216000Y6828I0J6828D01*
G01*
X6449Y69000D02*
G03*
X0Y62550I0J-6449D01*
G01*
Y6449D02*
G03*
X6449Y0I6449J0D01*
G01*
X216000Y6828D02*
Y62174D01*
X6449Y0D02*
X209172D01*
X6449Y69000D02*
X209000D01*
X0Y6449D02*
Y62550D01*
D19*
X186000Y32334D02*
X184000D01*
Y33667D01*
X186000Y34333D02*
Y35666D01*
X185667D01*
X184334Y34333D01*
X184000D01*
X207666Y48000D02*
Y46000D01*
X206333D01*
X204334Y48000D02*
X205000Y47666D01*
X205667Y47000D01*
Y46334D01*
X205333Y46000D01*
X204667D01*
X204334Y46334D01*
Y46667D01*
X204667Y47000D01*
X205667D01*
X14900Y59199D02*
Y57200D01*
X13900D01*
X13567Y57533D01*
Y57866D01*
X13900Y58200D01*
X14900D01*
X13900D01*
X13567Y58533D01*
Y58866D01*
X13900Y59199D01*
X14900D01*
X12901Y57200D02*
X12234D01*
X12567D01*
Y59199D01*
X12901Y58866D01*
X116333Y22000D02*
X117000D01*
X116666D01*
Y20334D01*
X117000Y20000D01*
X117333D01*
X117666Y20334D01*
X114334Y20000D02*
X115667D01*
X114334Y21333D01*
Y21666D01*
X114667Y22000D01*
X115333D01*
X115667Y21666D01*
M02*
