G04*
G04 #@! TF.GenerationSoftware,Altium Limited,Altium Designer,20.1.14 (287)*
G04*
G04 Layer_Color=65535*
%FSLAX25Y25*%
%MOIN*%
G70*
G04*
G04 #@! TF.SameCoordinates,32D4A6E9-0C54-4149-BE24-DE0316A2B815*
G04*
G04*
G04 #@! TF.FilePolarity,Positive*
G04*
G01*
G75*
%ADD10C,0.00984*%
%ADD11C,0.02362*%
%ADD12C,0.00394*%
%ADD13C,0.00197*%
%ADD14C,0.01000*%
%ADD15C,0.00600*%
%ADD16C,0.00787*%
%ADD17C,0.00591*%
%ADD18C,0.00079*%
%ADD19C,0.00500*%
%ADD20C,0.00300*%
D10*
X202429Y114602D02*
G03*
X202429Y114602I-492J0D01*
G01*
X152685Y22693D02*
G03*
X152685Y22693I-492J0D01*
G01*
X129492Y51173D02*
G03*
X129492Y51173I-492J0D01*
G01*
X113516Y59000D02*
G03*
X113516Y59000I-492J0D01*
G01*
X132217Y23913D02*
G03*
X132217Y23913I-492J0D01*
G01*
X170724Y46000D02*
G03*
X170724Y46000I-492J0D01*
G01*
X83406Y56587D02*
G03*
X83406Y56587I-492J0D01*
G01*
X6878Y93925D02*
G03*
X6878Y93925I-492J0D01*
G01*
X96492Y7850D02*
G03*
X96492Y7850I-492J0D01*
G01*
X85067Y27701D02*
G03*
X85067Y27701I-492J0D01*
G01*
D11*
X177122Y55154D02*
G03*
X177122Y55154I-1181J0D01*
G01*
D12*
X21877Y111666D02*
G03*
X21877Y111666I-197J0D01*
G01*
D13*
X30213Y88083D02*
G03*
X30213Y88083I-197J0D01*
G01*
D14*
X8500Y24500D02*
G03*
X8500Y24500I-500J0D01*
G01*
X3000Y145567D02*
X13000D01*
X3000Y125882D02*
X13000D01*
Y145567D01*
X3000Y125882D02*
Y145567D01*
X1000Y147000D02*
X230000D01*
X92500Y96500D02*
Y107000D01*
Y96500D02*
X182000D01*
Y139500D01*
X92500D02*
X182000D01*
X92500Y129000D02*
Y139500D01*
Y107000D02*
Y129000D01*
X106000Y84000D02*
X128000D01*
Y72000D02*
Y84000D01*
X106000Y72000D02*
X128000D01*
X106000D02*
Y84000D01*
X150618Y17673D02*
X167154D01*
X150618D02*
Y46020D01*
X167154D01*
Y17673D02*
Y46020D01*
X3000Y100000D02*
X15000D01*
Y122000D01*
X3000D02*
X15000D01*
X3000Y100000D02*
Y122000D01*
X206000Y3000D02*
X228000D01*
X206000D02*
Y15000D01*
X228000D01*
Y3000D02*
Y15000D01*
X206000Y59000D02*
X228000D01*
X206000D02*
Y71000D01*
X228000D01*
Y59000D02*
Y71000D01*
X206000Y73000D02*
X228000D01*
X206000D02*
Y85000D01*
X228000D01*
Y73000D02*
Y85000D01*
X206000Y87000D02*
X228000D01*
X206000D02*
Y99000D01*
X228000D01*
Y87000D02*
Y99000D01*
X206000Y45000D02*
X228000D01*
X206000D02*
Y57000D01*
X228000D01*
Y45000D02*
Y57000D01*
X206000Y31000D02*
X228000D01*
X206000D02*
Y43000D01*
X228000D01*
Y31000D02*
Y43000D01*
Y17000D02*
Y29000D01*
X206000D02*
X228000D01*
X206000Y17000D02*
Y29000D01*
Y17000D02*
X228000D01*
X124000Y15000D02*
X146000D01*
Y3000D02*
Y15000D01*
X124000Y3000D02*
X146000D01*
X124000D02*
Y15000D01*
X206000Y141000D02*
X228000D01*
Y129000D02*
Y141000D01*
X206000Y129000D02*
X228000D01*
X206000D02*
Y141000D01*
Y127000D02*
X228000D01*
Y115000D02*
Y127000D01*
X206000Y115000D02*
X228000D01*
X206000D02*
Y127000D01*
Y113000D02*
X228000D01*
Y101000D02*
Y113000D01*
X206000Y101000D02*
X228000D01*
X206000D02*
Y113000D01*
X4165Y57807D02*
X29756D01*
Y71193D01*
X4165D02*
X29756D01*
X4165Y57807D02*
Y71193D01*
X12000Y5000D02*
Y23500D01*
X4000Y5000D02*
X12000D01*
X4000D02*
Y23500D01*
X12000D01*
X1000Y1000D02*
X230000D01*
X230000Y147000D02*
X230000Y1000D01*
X1000D02*
Y147000D01*
X0Y0D02*
X231000D01*
X231000Y148000D02*
X231000Y0D01*
X0Y148000D02*
X231000D01*
X0Y0D02*
Y148000D01*
D15*
X46281Y10638D02*
G03*
X46281Y10638I-557J0D01*
G01*
X36890Y104000D02*
X37047D01*
X36890Y102000D02*
X37047D01*
X36921Y114000D02*
X37079D01*
X36921Y112000D02*
X37079D01*
X41890Y109000D02*
X42047D01*
X41890Y107000D02*
X42047D01*
X44000Y120890D02*
Y121047D01*
X42000Y120890D02*
Y121047D01*
X49000Y120890D02*
Y121047D01*
X47000Y120890D02*
Y121047D01*
X57972Y96984D02*
X58287D01*
X57972Y95016D02*
X58287D01*
X54193Y94425D02*
Y97575D01*
X57827Y125000D02*
X57984D01*
X57827Y127000D02*
X57984D01*
X57827Y131000D02*
X57984D01*
X57827Y133000D02*
X57984D01*
X49000Y133890D02*
Y134047D01*
X47000Y133890D02*
Y134047D01*
X43000Y133890D02*
Y134047D01*
X41000Y133890D02*
Y134047D01*
X65719Y97000D02*
X66219D01*
X65719Y95000D02*
X66219D01*
X65890Y127000D02*
X66047D01*
X65890Y125000D02*
X66047D01*
X65858Y133000D02*
X66016D01*
X65858Y131000D02*
X66016D01*
X65827Y139000D02*
X65984D01*
X65827Y137000D02*
X65984D01*
X77719Y98000D02*
X78219D01*
X77719Y96000D02*
X78219D01*
X80000Y102750D02*
Y103250D01*
X78000Y102750D02*
Y103250D01*
Y121953D02*
Y122110D01*
X76000Y121953D02*
Y122110D01*
X85000Y98782D02*
Y99282D01*
X83000Y98782D02*
Y99282D01*
X84000Y121890D02*
Y122047D01*
X82000Y121890D02*
Y122047D01*
X90000Y121890D02*
Y122047D01*
X88000Y121890D02*
Y122047D01*
X103890Y68000D02*
X104047D01*
X103890Y70000D02*
X104047D01*
X103890Y64000D02*
X104047D01*
X103890Y66000D02*
X104047D01*
X164718Y4000D02*
X165218D01*
X164718Y6000D02*
X165218D01*
X156781Y4000D02*
X157281D01*
X156781Y6000D02*
X157281D01*
X160953Y54000D02*
X161110D01*
X160953Y52000D02*
X161110D01*
X160953Y58000D02*
X161110D01*
X160953Y56000D02*
X161110D01*
X131750Y68000D02*
X132250D01*
X131750Y66000D02*
X132250D01*
X135000Y59781D02*
Y60281D01*
X133000Y59781D02*
Y60281D01*
X160782Y10000D02*
X161282D01*
X160782Y8000D02*
X161282D01*
X172000Y18890D02*
Y19047D01*
X170000Y18890D02*
Y19047D01*
X176000Y18719D02*
Y19218D01*
X174000Y18719D02*
Y19218D01*
X160953Y12000D02*
X161110D01*
X160953Y14000D02*
X161110D01*
X168953Y12000D02*
X169110D01*
X168953Y14000D02*
X169110D01*
X140000Y50890D02*
Y51047D01*
X138000Y50890D02*
Y51047D01*
Y42718D02*
Y43218D01*
X140000Y42718D02*
Y43218D01*
X144000Y42718D02*
Y43218D01*
X142000Y42718D02*
Y43218D01*
X140000Y28890D02*
Y29047D01*
X138000Y28890D02*
Y29047D01*
X144000Y28782D02*
Y29281D01*
X142000Y28782D02*
Y29281D01*
X144000Y35781D02*
Y36281D01*
X142000Y35781D02*
Y36281D01*
X112000Y28953D02*
Y29110D01*
X114000Y28953D02*
Y29110D01*
X116000Y28953D02*
Y29110D01*
X118000Y28953D02*
Y29110D01*
X178717Y78000D02*
X178874D01*
X178717Y76000D02*
X178874D01*
X178717Y82000D02*
X178874D01*
X178717Y80000D02*
X178874D01*
X28712Y105873D02*
Y106373D01*
X30712Y105873D02*
Y106373D01*
X16712Y105873D02*
Y106373D01*
X18712Y105873D02*
Y106373D01*
X23430Y101091D02*
X23931D01*
X23430Y103091D02*
X23931D01*
X52000Y80890D02*
Y81047D01*
X54000Y80890D02*
Y81047D01*
X87750Y51000D02*
X88250D01*
X87750Y53000D02*
X88250D01*
X87890Y73000D02*
X88047D01*
X87890Y71000D02*
X88047D01*
X87890Y75000D02*
X88047D01*
X87890Y77000D02*
X88047D01*
X62260Y76157D02*
Y76315D01*
X64260Y76157D02*
Y76315D01*
X68260Y76157D02*
Y76315D01*
X66260Y76157D02*
Y76315D01*
X50000Y76953D02*
Y77110D01*
X48000Y76953D02*
Y77110D01*
X44000Y76953D02*
Y77110D01*
X46000Y76953D02*
Y77110D01*
X40000Y76953D02*
Y77110D01*
X42000Y76953D02*
Y77110D01*
X28000Y88890D02*
Y89047D01*
X26000Y88890D02*
Y89047D01*
X22000Y88890D02*
Y89047D01*
X24000Y88890D02*
Y89047D01*
X22000Y80782D02*
Y81282D01*
X24000Y80782D02*
Y81282D01*
X188890Y136000D02*
X189047D01*
X188890Y134000D02*
X189047D01*
X188890Y132000D02*
X189047D01*
X188890Y130000D02*
X189047D01*
X127750Y17000D02*
X128250D01*
X127750Y19000D02*
X128250D01*
X137782Y17000D02*
X138282D01*
X137782Y19000D02*
X138282D01*
X200000Y34782D02*
Y35282D01*
X198000Y34782D02*
Y35282D01*
Y24719D02*
Y25218D01*
X200000Y24719D02*
Y25218D01*
Y62782D02*
Y63282D01*
X198000Y62782D02*
Y63282D01*
X200000Y90781D02*
Y91281D01*
X198000Y90781D02*
Y91281D01*
Y80718D02*
Y81218D01*
X200000Y80718D02*
Y81218D01*
X198000Y52719D02*
Y53219D01*
X200000Y52719D02*
Y53219D01*
X41719Y63000D02*
X42219D01*
X41719Y61000D02*
X42219D01*
X112890Y15000D02*
X113047D01*
X112890Y17000D02*
X113047D01*
X112890Y12000D02*
X113047D01*
X112890Y10000D02*
X113047D01*
X102718Y8000D02*
X103218D01*
X102718Y6000D02*
X103218D01*
X198000Y10750D02*
Y11250D01*
X200000Y10750D02*
Y11250D01*
X57067Y60425D02*
Y63575D01*
X52972Y62984D02*
X53287D01*
X52972Y61016D02*
X53287D01*
X41719Y68000D02*
X42219D01*
X41719Y66000D02*
X42219D01*
X57035Y65425D02*
Y68575D01*
X52941Y67984D02*
X53256D01*
X52941Y66016D02*
X53256D01*
X32000Y26890D02*
Y27047D01*
X34000Y26890D02*
Y27047D01*
X71000Y7953D02*
Y8110D01*
X69000Y7953D02*
Y8110D01*
X75000Y7953D02*
Y8110D01*
X73000Y7953D02*
Y8110D01*
X96890Y26000D02*
X97047D01*
X96890Y28000D02*
X97047D01*
X104000Y37276D02*
Y37433D01*
X106000Y37276D02*
Y37433D01*
Y29339D02*
Y29496D01*
X104000Y29339D02*
Y29496D01*
X36000Y24921D02*
Y25079D01*
X38000Y24921D02*
Y25079D01*
X42890Y20937D02*
X43047D01*
X42890Y22937D02*
X43047D01*
X40213Y14772D02*
Y15165D01*
X44937Y14772D02*
Y15165D01*
X41953Y7937D02*
X42110D01*
X41953Y5937D02*
X42110D01*
X9000Y36921D02*
Y37079D01*
X7000Y36921D02*
Y37079D01*
X14000Y42890D02*
Y43047D01*
X12000Y42890D02*
Y43047D01*
X24890Y41000D02*
X25047D01*
X24890Y39000D02*
X25047D01*
X17000Y36921D02*
Y37079D01*
X19000Y36921D02*
Y37079D01*
D16*
X199772Y126906D02*
Y127693D01*
X197508D02*
X199772D01*
X185205Y126906D02*
Y127693D01*
X187469D01*
X185205Y114307D02*
Y115094D01*
Y114307D02*
X187469D01*
X197508D02*
X199772D01*
Y115094D01*
X53728Y99367D02*
Y100095D01*
Y99367D02*
X54456D01*
X69279D02*
Y100095D01*
X68551Y99367D02*
X69279D01*
X68551Y118855D02*
X69279D01*
Y118126D02*
Y118855D01*
X53728Y118126D02*
Y118855D01*
X56425D01*
X165382Y27319D02*
Y36374D01*
X153177Y27319D02*
Y36374D01*
X165382D01*
X153177Y27319D02*
X165382D01*
X123291Y52354D02*
Y64165D01*
X125260Y52354D02*
Y64165D01*
X123291D02*
X125260D01*
X123291Y52354D02*
X125260D01*
X111843Y53685D02*
Y54866D01*
X99638Y53685D02*
Y54866D01*
X111843D01*
X99638Y53685D02*
X111843D01*
X126016Y24898D02*
Y37102D01*
X127984Y24898D02*
Y37102D01*
X126016D02*
X127984D01*
X126016Y24898D02*
X127984D01*
X172004Y51217D02*
X192083D01*
X172004Y63815D02*
X192083D01*
X172004Y51217D02*
Y63815D01*
X192083Y51217D02*
Y63815D01*
X83898Y60031D02*
Y63968D01*
X96102Y60031D02*
Y63968D01*
X83898Y60031D02*
X96102D01*
X83898Y63968D02*
X96102D01*
X70276Y78035D02*
Y80890D01*
X78917D02*
X82244D01*
X70276D02*
X73602D01*
X82244Y78035D02*
Y80890D01*
X75177Y75378D02*
X77342D01*
X14161Y80638D02*
Y92843D01*
X10224Y80638D02*
Y92843D01*
Y80638D02*
X14161D01*
X10224Y92843D02*
X14161D01*
X93244Y10902D02*
Y18776D01*
X103874Y10902D02*
Y18776D01*
X57213Y27110D02*
X58984D01*
X57213D02*
Y28882D01*
Y50142D02*
Y51913D01*
X58984D01*
X82016Y27110D02*
Y28882D01*
X80244Y27110D02*
X82016D01*
Y50142D02*
Y51913D01*
X80244D02*
X82016D01*
D17*
X20846Y112516D02*
X26846D01*
Y104516D02*
Y112516D01*
X20846Y104516D02*
X26846D01*
X20846D02*
Y112516D01*
D18*
X30016Y88083D02*
X33953Y88083D01*
Y83949D02*
Y88083D01*
X30016Y83949D02*
X33953D01*
X30016D02*
Y88083D01*
D19*
X78500Y6000D02*
Y12000D01*
Y6000D02*
X81500D01*
Y12000D01*
X78500D02*
X81500D01*
D20*
X97667Y95000D02*
Y93000D01*
X98667D01*
X99000Y93334D01*
Y93667D01*
X98667Y94000D01*
X97667D01*
X98667D01*
X99000Y94333D01*
Y94666D01*
X98667Y95000D01*
X97667D01*
X99666Y93000D02*
X100333D01*
X100000D01*
Y95000D01*
X99666Y94666D01*
X132000Y80333D02*
Y81000D01*
Y80666D01*
X130334D01*
X130000Y81000D01*
Y81333D01*
X130334Y81666D01*
X130000Y78667D02*
X132000D01*
X131000Y79667D01*
Y78334D01*
X202000Y62334D02*
Y63667D01*
Y63001D01*
X204000D01*
Y64334D02*
X202000D01*
Y65333D01*
X202333Y65667D01*
X203000D01*
X203333Y65333D01*
Y64334D01*
X203666Y66333D02*
X204000Y66666D01*
Y67333D01*
X203666Y67666D01*
X202333D01*
X202000Y67333D01*
Y66666D01*
X202333Y66333D01*
X202667D01*
X203000Y66666D01*
Y67666D01*
X202000Y76334D02*
Y77667D01*
Y77001D01*
X204000D01*
Y78334D02*
X202000D01*
Y79333D01*
X202333Y79666D01*
X203000D01*
X203333Y79333D01*
Y78334D01*
X202333Y80333D02*
X202000Y80666D01*
Y81333D01*
X202333Y81666D01*
X202667D01*
X203000Y81333D01*
X203333Y81666D01*
X203666D01*
X204000Y81333D01*
Y80666D01*
X203666Y80333D01*
X203333D01*
X203000Y80666D01*
X202667Y80333D01*
X202333D01*
X203000Y80666D02*
Y81333D01*
X202000Y91334D02*
Y92667D01*
Y92001D01*
X204000D01*
Y93334D02*
X202000D01*
Y94333D01*
X202333Y94666D01*
X203000D01*
X203333Y94333D01*
Y93334D01*
X202000Y95333D02*
Y96666D01*
X202333D01*
X203666Y95333D01*
X204000D01*
X202000Y48334D02*
Y49667D01*
Y49001D01*
X204000D01*
Y50334D02*
X202000D01*
Y51333D01*
X202333Y51666D01*
X203000D01*
X203333Y51333D01*
Y50334D01*
X204000Y53333D02*
X202000D01*
X203000Y52333D01*
Y53666D01*
X202000Y35334D02*
Y36667D01*
Y36001D01*
X204000D01*
Y37334D02*
X202000D01*
Y38333D01*
X202333Y38666D01*
X203000D01*
X203333Y38333D01*
Y37334D01*
X204000Y40666D02*
Y39333D01*
X202667Y40666D01*
X202333D01*
X202000Y40333D01*
Y39666D01*
X202333Y39333D01*
X196000Y61667D02*
X194000D01*
Y62667D01*
X194334Y63000D01*
X195000D01*
X195333Y62667D01*
Y61667D01*
Y62334D02*
X196000Y63000D01*
Y65000D02*
Y63667D01*
X194667Y65000D01*
X194334D01*
X194000Y64666D01*
Y64000D01*
X194334Y63667D01*
X196000Y65666D02*
Y66333D01*
Y65999D01*
X194000D01*
X194334Y65666D01*
X196000Y78334D02*
X194000D01*
Y79334D01*
X194334Y79667D01*
X195000D01*
X195333Y79334D01*
Y78334D01*
Y79001D02*
X196000Y79667D01*
Y81666D02*
Y80334D01*
X194667Y81666D01*
X194334D01*
X194000Y81333D01*
Y80667D01*
X194334Y80334D01*
Y82333D02*
X194000Y82666D01*
Y83333D01*
X194334Y83666D01*
X195666D01*
X196000Y83333D01*
Y82666D01*
X195666Y82333D01*
X194334D01*
X196000Y89334D02*
X194000D01*
Y90334D01*
X194334Y90667D01*
X195000D01*
X195333Y90334D01*
Y89334D01*
Y90000D02*
X196000Y90667D01*
X194334Y91333D02*
X194000Y91667D01*
Y92333D01*
X194334Y92666D01*
X194667D01*
X195000Y92333D01*
Y92000D01*
Y92333D01*
X195333Y92666D01*
X195666D01*
X196000Y92333D01*
Y91667D01*
X195666Y91333D01*
X196000Y51334D02*
X194000D01*
Y52334D01*
X194334Y52667D01*
X195000D01*
X195333Y52334D01*
Y51334D01*
Y52000D02*
X196000Y52667D01*
Y54666D02*
Y53333D01*
X194667Y54666D01*
X194334D01*
X194000Y54333D01*
Y53667D01*
X194334Y53333D01*
X196000Y34667D02*
X194000D01*
Y35667D01*
X194334Y36000D01*
X195000D01*
X195333Y35667D01*
Y34667D01*
Y35334D02*
X196000Y36000D01*
Y36666D02*
Y37333D01*
Y37000D01*
X194000D01*
X194334Y36666D01*
X21046Y116091D02*
Y114425D01*
X21379Y114092D01*
X22046D01*
X22379Y114425D01*
Y116091D01*
X23045Y114425D02*
X23379Y114092D01*
X24045D01*
X24378Y114425D01*
Y115758D01*
X24045Y116091D01*
X23379D01*
X23045Y115758D01*
Y115424D01*
X23379Y115091D01*
X24378D01*
X70594Y84267D02*
Y82601D01*
X70927Y82268D01*
X71593D01*
X71927Y82601D01*
Y84267D01*
X72593Y83934D02*
X72926Y84267D01*
X73593D01*
X73926Y83934D01*
Y83601D01*
X73593Y83268D01*
X73926Y82934D01*
Y82601D01*
X73593Y82268D01*
X72926D01*
X72593Y82601D01*
Y82934D01*
X72926Y83268D01*
X72593Y83601D01*
Y83934D01*
X72926Y83268D02*
X73593D01*
X80000Y60334D02*
X81666D01*
X82000Y60667D01*
Y61334D01*
X81666Y61667D01*
X80000D01*
Y63666D02*
X80334Y63000D01*
X81000Y62333D01*
X81666D01*
X82000Y62666D01*
Y63333D01*
X81666Y63666D01*
X81333D01*
X81000Y63333D01*
Y62333D01*
X10334Y78000D02*
Y76334D01*
X10667Y76000D01*
X11334D01*
X11667Y76334D01*
Y78000D01*
X13666D02*
X12333D01*
Y77000D01*
X13000Y77333D01*
X13333D01*
X13666Y77000D01*
Y76334D01*
X13333Y76000D01*
X12666D01*
X12333Y76334D01*
X5334Y98000D02*
X6667D01*
X6001D01*
Y96000D01*
X7334D02*
Y98000D01*
X8334D01*
X8667Y97667D01*
Y97000D01*
X8334Y96667D01*
X7334D01*
X9333Y97667D02*
X9667Y98000D01*
X10333D01*
X10666Y97667D01*
Y97333D01*
X10333Y97000D01*
X10000D01*
X10333D01*
X10666Y96667D01*
Y96334D01*
X10333Y96000D01*
X9667D01*
X9333Y96334D01*
X11333Y98000D02*
X12665D01*
Y97667D01*
X11333Y96334D01*
Y96000D01*
X117667Y7000D02*
X119000D01*
X118334D01*
Y5000D01*
X119667D02*
Y7000D01*
X120667D01*
X121000Y6667D01*
Y6000D01*
X120667Y5667D01*
X119667D01*
X121666Y5000D02*
X122333D01*
X121999D01*
Y7000D01*
X121666Y6667D01*
X25501Y80000D02*
Y82000D01*
X26500D01*
X26834Y81666D01*
Y81000D01*
X26500Y80667D01*
X25501D01*
X26167D02*
X26834Y80000D01*
X27500D02*
X28167D01*
X27833D01*
Y82000D01*
X27500Y81666D01*
X29166D02*
X29500Y82000D01*
X30166D01*
X30499Y81666D01*
Y81333D01*
X30166Y81000D01*
X30499Y80667D01*
Y80334D01*
X30166Y80000D01*
X29500D01*
X29166Y80334D01*
Y80667D01*
X29500Y81000D01*
X29166Y81333D01*
Y81666D01*
X29500Y81000D02*
X30166D01*
X28366Y100000D02*
Y102000D01*
X29366D01*
X29699Y101666D01*
Y101000D01*
X29366Y100667D01*
X28366D01*
X29032D02*
X29699Y100000D01*
X30365D02*
X31032D01*
X30698D01*
Y102000D01*
X30365Y101666D01*
X32031Y100000D02*
X32698D01*
X32364D01*
Y102000D01*
X32031Y101666D01*
X30712Y110425D02*
X28712D01*
Y111425D01*
X29046Y111758D01*
X29712D01*
X30045Y111425D01*
Y110425D01*
Y111091D02*
X30712Y111758D01*
X30378Y112424D02*
X30712Y112758D01*
Y113424D01*
X30378Y113757D01*
X29046D01*
X28712Y113424D01*
Y112758D01*
X29046Y112424D01*
X29379D01*
X29712Y112758D01*
Y113757D01*
X18712Y110425D02*
X16712D01*
Y111425D01*
X17045Y111758D01*
X17712D01*
X18045Y111425D01*
Y110425D01*
Y111091D02*
X18712Y111758D01*
X17045Y112424D02*
X16712Y112758D01*
Y113424D01*
X17045Y113757D01*
X17379D01*
X17712Y113424D01*
X18045Y113757D01*
X18378D01*
X18712Y113424D01*
Y112758D01*
X18378Y112424D01*
X18045D01*
X17712Y112758D01*
X17379Y112424D01*
X17045D01*
X17712Y112758D02*
Y113424D01*
X120334Y19000D02*
Y21000D01*
X121334D01*
X121667Y20666D01*
Y20000D01*
X121334Y19667D01*
X120334D01*
X121000D02*
X121667Y19000D01*
X122333Y21000D02*
X123666D01*
Y20666D01*
X122333Y19334D01*
Y19000D01*
X142334Y17000D02*
Y19000D01*
X143334D01*
X143667Y18666D01*
Y18000D01*
X143334Y17667D01*
X142334D01*
X143000D02*
X143667Y17000D01*
X145666Y19000D02*
X144333D01*
Y18000D01*
X145000Y18333D01*
X145333D01*
X145666Y18000D01*
Y17334D01*
X145333Y17000D01*
X144667D01*
X144333Y17334D01*
X56000Y79334D02*
X58000D01*
Y80667D01*
X56000Y82666D02*
X56334Y82000D01*
X57000Y81333D01*
X57666D01*
X58000Y81666D01*
Y82333D01*
X57666Y82666D01*
X57333D01*
X57000Y82333D01*
Y81333D01*
X93667Y76666D02*
X93334Y77000D01*
X92667D01*
X92334Y76666D01*
Y75334D01*
X92667Y75000D01*
X93334D01*
X93667Y75334D01*
X95333Y75000D02*
Y77000D01*
X94334Y76000D01*
X95666D01*
X96333Y76666D02*
X96666Y77000D01*
X97333D01*
X97666Y76666D01*
Y75334D01*
X97333Y75000D01*
X96666D01*
X96333Y75334D01*
Y76666D01*
X48333Y82667D02*
X48000Y82334D01*
Y81667D01*
X48333Y81334D01*
X49666D01*
X50000Y81667D01*
Y82334D01*
X49666Y82667D01*
X48333Y83334D02*
X48000Y83667D01*
Y84333D01*
X48333Y84667D01*
X48667D01*
X49000Y84333D01*
Y84000D01*
Y84333D01*
X49333Y84667D01*
X49666D01*
X50000Y84333D01*
Y83667D01*
X49666Y83334D01*
X48000Y86666D02*
X48333Y85999D01*
X49000Y85333D01*
X49666D01*
X50000Y85666D01*
Y86333D01*
X49666Y86666D01*
X49333D01*
X49000Y86333D01*
Y85333D01*
X27666Y97333D02*
X28000Y97666D01*
Y98333D01*
X27666Y98666D01*
X26334D01*
X26000Y98333D01*
Y97666D01*
X26334Y97333D01*
X27666Y96666D02*
X28000Y96333D01*
Y95667D01*
X27666Y95333D01*
X27333D01*
X27000Y95667D01*
Y96000D01*
Y95667D01*
X26667Y95333D01*
X26334D01*
X26000Y95667D01*
Y96333D01*
X26334Y96666D01*
X28000Y93334D02*
Y94667D01*
X27000D01*
X27333Y94001D01*
Y93667D01*
X27000Y93334D01*
X26334D01*
X26000Y93667D01*
Y94334D01*
X26334Y94667D01*
X194667Y131667D02*
X194334Y132000D01*
X193667D01*
X193334Y131667D01*
Y130333D01*
X193667Y130000D01*
X194334D01*
X194667Y130333D01*
X195334Y131667D02*
X195667Y132000D01*
X196333D01*
X196667Y131667D01*
Y131333D01*
X196333Y131000D01*
X196000D01*
X196333D01*
X196667Y130667D01*
Y130333D01*
X196333Y130000D01*
X195667D01*
X195334Y130333D01*
X198333Y130000D02*
Y132000D01*
X197333Y131000D01*
X198666D01*
X44333Y82667D02*
X44000Y82334D01*
Y81667D01*
X44333Y81334D01*
X45666D01*
X46000Y81667D01*
Y82334D01*
X45666Y82667D01*
X44333Y83334D02*
X44000Y83667D01*
Y84333D01*
X44333Y84667D01*
X44667D01*
X45000Y84333D01*
Y84000D01*
Y84333D01*
X45333Y84667D01*
X45666D01*
X46000Y84333D01*
Y83667D01*
X45666Y83334D01*
X44333Y85333D02*
X44000Y85666D01*
Y86333D01*
X44333Y86666D01*
X44667D01*
X45000Y86333D01*
Y85999D01*
Y86333D01*
X45333Y86666D01*
X45666D01*
X46000Y86333D01*
Y85666D01*
X45666Y85333D01*
X40334Y82667D02*
X40000Y82334D01*
Y81667D01*
X40334Y81334D01*
X41666D01*
X42000Y81667D01*
Y82334D01*
X41666Y82667D01*
X40334Y83334D02*
X40000Y83667D01*
Y84333D01*
X40334Y84667D01*
X40667D01*
X41000Y84333D01*
Y84000D01*
Y84333D01*
X41333Y84667D01*
X41666D01*
X42000Y84333D01*
Y83667D01*
X41666Y83334D01*
X42000Y86666D02*
Y85333D01*
X40667Y86666D01*
X40334D01*
X40000Y86333D01*
Y85666D01*
X40334Y85333D01*
X195000Y135667D02*
X194667Y136000D01*
X194000D01*
X193667Y135667D01*
Y134334D01*
X194000Y134000D01*
X194667D01*
X195000Y134334D01*
X195667Y134000D02*
X196333D01*
X196000D01*
Y136000D01*
X195667Y135667D01*
X116000Y56666D02*
X114333D01*
X114000Y56333D01*
Y55666D01*
X114333Y55333D01*
X116000D01*
X114000Y53333D02*
Y54666D01*
X115333Y53333D01*
X115666D01*
X116000Y53667D01*
Y54333D01*
X115666Y54666D01*
Y52667D02*
X116000Y52334D01*
Y51667D01*
X115666Y51334D01*
X114333D01*
X114000Y51667D01*
Y52334D01*
X114333Y52667D01*
X115666D01*
X116501Y67000D02*
Y65334D01*
X116834Y65000D01*
X117500D01*
X117834Y65334D01*
Y67000D01*
X118500Y65000D02*
X119167D01*
X118833D01*
Y67000D01*
X118500Y66667D01*
X120166Y65334D02*
X120500Y65000D01*
X121166D01*
X121499Y65334D01*
Y66667D01*
X121166Y67000D01*
X120500D01*
X120166Y66667D01*
Y66333D01*
X120500Y66000D01*
X121499D01*
X148501Y50000D02*
Y48334D01*
X148834Y48000D01*
X149501D01*
X149834Y48334D01*
Y50000D01*
X150500Y48000D02*
X151167D01*
X150833D01*
Y50000D01*
X150500Y49667D01*
X152166D02*
X152499Y50000D01*
X153166D01*
X153499Y49667D01*
Y49333D01*
X153166Y49000D01*
X153499Y48667D01*
Y48334D01*
X153166Y48000D01*
X152499D01*
X152166Y48334D01*
Y48667D01*
X152499Y49000D01*
X152166Y49333D01*
Y49667D01*
X152499Y49000D02*
X153166D01*
X202000Y5334D02*
Y6667D01*
Y6001D01*
X204000D01*
Y7334D02*
X202000D01*
Y8334D01*
X202333Y8667D01*
X203000D01*
X203333Y8334D01*
Y7334D01*
X204000Y10666D02*
Y9333D01*
X202667Y10666D01*
X202333D01*
X202000Y10333D01*
Y9667D01*
X202333Y9333D01*
X202000Y12665D02*
Y11333D01*
X203000D01*
X202667Y11999D01*
Y12332D01*
X203000Y12665D01*
X203666D01*
X204000Y12332D01*
Y11666D01*
X203666Y11333D01*
X176000Y23334D02*
X174000D01*
Y24334D01*
X174334Y24667D01*
X175000D01*
X175333Y24334D01*
Y23334D01*
Y24001D02*
X176000Y24667D01*
X174334Y25334D02*
X174000Y25667D01*
Y26333D01*
X174334Y26667D01*
X174667D01*
X175000Y26333D01*
Y26000D01*
Y26333D01*
X175333Y26667D01*
X175666D01*
X176000Y26333D01*
Y25667D01*
X175666Y25334D01*
X174000Y27333D02*
Y28666D01*
X174334D01*
X175666Y27333D01*
X176000D01*
X151334Y8000D02*
Y10000D01*
X152334D01*
X152667Y9667D01*
Y9000D01*
X152334Y8667D01*
X151334D01*
X152001D02*
X152667Y8000D01*
X153333Y9667D02*
X153667Y10000D01*
X154333D01*
X154666Y9667D01*
Y9333D01*
X154333Y9000D01*
X154000D01*
X154333D01*
X154666Y8667D01*
Y8334D01*
X154333Y8000D01*
X153667D01*
X153333Y8334D01*
X156666Y10000D02*
X155999Y9667D01*
X155333Y9000D01*
Y8334D01*
X155666Y8000D01*
X156333D01*
X156666Y8334D01*
Y8667D01*
X156333Y9000D01*
X155333D01*
X137000Y62666D02*
X139000D01*
Y61666D01*
X138666Y61333D01*
X138000D01*
X137667Y61666D01*
Y62666D01*
Y61999D02*
X137000Y61333D01*
X138666Y60666D02*
X139000Y60333D01*
Y59667D01*
X138666Y59333D01*
X138333D01*
X138000Y59667D01*
Y60000D01*
Y59667D01*
X137667Y59333D01*
X137334D01*
X137000Y59667D01*
Y60333D01*
X137334Y60666D01*
X139000Y57334D02*
Y58667D01*
X138000D01*
X138333Y58001D01*
Y57667D01*
X138000Y57334D01*
X137334D01*
X137000Y57667D01*
Y58334D01*
X137334Y58667D01*
X136834Y65500D02*
Y67500D01*
X137834D01*
X138167Y67167D01*
Y66500D01*
X137834Y66167D01*
X136834D01*
X137501D02*
X138167Y65500D01*
X138833Y67167D02*
X139167Y67500D01*
X139833D01*
X140166Y67167D01*
Y66833D01*
X139833Y66500D01*
X139500D01*
X139833D01*
X140166Y66167D01*
Y65834D01*
X139833Y65500D01*
X139167D01*
X138833Y65834D01*
X140833Y67167D02*
X141166Y67500D01*
X141833D01*
X142166Y67167D01*
Y66833D01*
X141833Y66500D01*
X141499D01*
X141833D01*
X142166Y66167D01*
Y65834D01*
X141833Y65500D01*
X141166D01*
X140833Y65834D01*
X136000Y40334D02*
X134000D01*
Y41334D01*
X134334Y41667D01*
X135000D01*
X135333Y41334D01*
Y40334D01*
Y41001D02*
X136000Y41667D01*
X134334Y42334D02*
X134000Y42667D01*
Y43333D01*
X134334Y43666D01*
X134667D01*
X135000Y43333D01*
Y43000D01*
Y43333D01*
X135333Y43666D01*
X135666D01*
X136000Y43333D01*
Y42667D01*
X135666Y42334D01*
X136000Y45666D02*
Y44333D01*
X134667Y45666D01*
X134334D01*
X134000Y45333D01*
Y44666D01*
X134334Y44333D01*
X144000Y47667D02*
X142000D01*
Y48667D01*
X142333Y49000D01*
X143000D01*
X143333Y48667D01*
Y47667D01*
Y48334D02*
X144000Y49000D01*
X142333Y49667D02*
X142000Y50000D01*
Y50666D01*
X142333Y51000D01*
X142667D01*
X143000Y50666D01*
Y50333D01*
Y50666D01*
X143333Y51000D01*
X143666D01*
X144000Y50666D01*
Y50000D01*
X143666Y49667D01*
X144000Y51666D02*
Y52333D01*
Y51999D01*
X142000D01*
X142333Y51666D01*
X148000Y34334D02*
X146000D01*
Y35334D01*
X146334Y35667D01*
X147000D01*
X147333Y35334D01*
Y34334D01*
Y35001D02*
X148000Y35667D01*
Y37666D02*
Y36334D01*
X146667Y37666D01*
X146334D01*
X146000Y37333D01*
Y36667D01*
X146334Y36334D01*
X146000Y39666D02*
Y38333D01*
X147000D01*
X146667Y38999D01*
Y39333D01*
X147000Y39666D01*
X147666D01*
X148000Y39333D01*
Y38666D01*
X147666Y38333D01*
X148000Y26334D02*
X146000D01*
Y27334D01*
X146334Y27667D01*
X147000D01*
X147333Y27334D01*
Y26334D01*
Y27001D02*
X148000Y27667D01*
Y29667D02*
Y28334D01*
X146667Y29667D01*
X146334D01*
X146000Y29333D01*
Y28667D01*
X146334Y28334D01*
X148000Y31333D02*
X146000D01*
X147000Y30333D01*
Y31666D01*
X147334Y4000D02*
Y6000D01*
X148334D01*
X148667Y5666D01*
Y5000D01*
X148334Y4667D01*
X147334D01*
X148001D02*
X148667Y4000D01*
X150666D02*
X149334D01*
X150666Y5333D01*
Y5666D01*
X150333Y6000D01*
X149667D01*
X149334Y5666D01*
X151333D02*
X151666Y6000D01*
X152333D01*
X152666Y5666D01*
Y5333D01*
X152333Y5000D01*
X151999D01*
X152333D01*
X152666Y4667D01*
Y4334D01*
X152333Y4000D01*
X151666D01*
X151333Y4334D01*
X196000Y22303D02*
X194000D01*
Y23302D01*
X194334Y23636D01*
X195000D01*
X195333Y23302D01*
Y22303D01*
Y22969D02*
X196000Y23636D01*
Y25635D02*
Y24302D01*
X194667Y25635D01*
X194334D01*
X194000Y25302D01*
Y24635D01*
X194334Y24302D01*
X196000Y27634D02*
Y26301D01*
X194667Y27634D01*
X194334D01*
X194000Y27301D01*
Y26635D01*
X194334Y26301D01*
X169501Y4000D02*
Y6000D01*
X170501D01*
X170834Y5666D01*
Y5000D01*
X170501Y4667D01*
X169501D01*
X170167D02*
X170834Y4000D01*
X171500D02*
X172167D01*
X171833D01*
Y6000D01*
X171500Y5666D01*
X173166Y4334D02*
X173500Y4000D01*
X174166D01*
X174499Y4334D01*
Y5666D01*
X174166Y6000D01*
X173500D01*
X173166Y5666D01*
Y5333D01*
X173500Y5000D01*
X174499D01*
X92501Y51000D02*
Y53000D01*
X93501D01*
X93834Y52666D01*
Y52000D01*
X93501Y51667D01*
X92501D01*
X93167D02*
X93834Y51000D01*
X94500D02*
X95167D01*
X94833D01*
Y53000D01*
X94500Y52666D01*
X97499Y53000D02*
X96166D01*
Y52000D01*
X96833Y52333D01*
X97166D01*
X97499Y52000D01*
Y51334D01*
X97166Y51000D01*
X96500D01*
X96166Y51334D01*
X109604Y69666D02*
X109271Y70000D01*
X108604D01*
X108271Y69666D01*
Y68334D01*
X108604Y68000D01*
X109271D01*
X109604Y68334D01*
X111603Y70000D02*
X110937Y69666D01*
X110271Y69000D01*
Y68334D01*
X110604Y68000D01*
X111270D01*
X111603Y68334D01*
Y68667D01*
X111270Y69000D01*
X110271D01*
X113603Y70000D02*
X112270D01*
Y69000D01*
X112936Y69333D01*
X113270D01*
X113603Y69000D01*
Y68334D01*
X113270Y68000D01*
X112603D01*
X112270Y68334D01*
X109667Y65667D02*
X109334Y66000D01*
X108667D01*
X108334Y65667D01*
Y64334D01*
X108667Y64000D01*
X109334D01*
X109667Y64334D01*
X111667Y66000D02*
X111000Y65667D01*
X110334Y65000D01*
Y64334D01*
X110667Y64000D01*
X111333D01*
X111667Y64334D01*
Y64667D01*
X111333Y65000D01*
X110334D01*
X113333Y64000D02*
Y66000D01*
X112333Y65000D01*
X113666D01*
X134334Y49667D02*
X134000Y49334D01*
Y48667D01*
X134334Y48334D01*
X135666D01*
X136000Y48667D01*
Y49334D01*
X135666Y49667D01*
X134000Y51666D02*
X134334Y51000D01*
X135000Y50334D01*
X135666D01*
X136000Y50667D01*
Y51333D01*
X135666Y51666D01*
X135333D01*
X135000Y51333D01*
Y50334D01*
X134334Y52333D02*
X134000Y52666D01*
Y53333D01*
X134334Y53666D01*
X134667D01*
X135000Y53333D01*
Y52999D01*
Y53333D01*
X135333Y53666D01*
X135666D01*
X136000Y53333D01*
Y52666D01*
X135666Y52333D01*
X137667Y23666D02*
X137334Y24000D01*
X136667D01*
X136334Y23666D01*
Y22334D01*
X136667Y22000D01*
X137334D01*
X137667Y22334D01*
X139666Y24000D02*
X139000Y23666D01*
X138333Y23000D01*
Y22334D01*
X138667Y22000D01*
X139333D01*
X139666Y22334D01*
Y22667D01*
X139333Y23000D01*
X138333D01*
X141666Y22000D02*
X140333D01*
X141666Y23333D01*
Y23666D01*
X141333Y24000D01*
X140666D01*
X140333Y23666D01*
X153000Y53667D02*
X152667Y54000D01*
X152001D01*
X151667Y53667D01*
Y52334D01*
X152001Y52000D01*
X152667D01*
X153000Y52334D01*
X155000Y54000D02*
X154333Y53667D01*
X153667Y53000D01*
Y52334D01*
X154000Y52000D01*
X154666D01*
X155000Y52334D01*
Y52667D01*
X154666Y53000D01*
X153667D01*
X155666Y52000D02*
X156333D01*
X155999D01*
Y54000D01*
X155666Y53667D01*
X152667Y57666D02*
X152334Y58000D01*
X151667D01*
X151334Y57666D01*
Y56334D01*
X151667Y56000D01*
X152334D01*
X152667Y56334D01*
X154666Y58000D02*
X154000Y57666D01*
X153333Y57000D01*
Y56334D01*
X153667Y56000D01*
X154333D01*
X154666Y56334D01*
Y56667D01*
X154333Y57000D01*
X153333D01*
X155333Y57666D02*
X155666Y58000D01*
X156333D01*
X156666Y57666D01*
Y56334D01*
X156333Y56000D01*
X155666D01*
X155333Y56334D01*
Y57666D01*
X170334Y24667D02*
X170000Y24334D01*
Y23667D01*
X170334Y23334D01*
X171666D01*
X172000Y23667D01*
Y24334D01*
X171666Y24667D01*
X170000Y26667D02*
Y25334D01*
X171000D01*
X170667Y26000D01*
Y26333D01*
X171000Y26667D01*
X171666D01*
X172000Y26333D01*
Y25667D01*
X171666Y25334D01*
Y27333D02*
X172000Y27666D01*
Y28333D01*
X171666Y28666D01*
X170334D01*
X170000Y28333D01*
Y27666D01*
X170334Y27333D01*
X170667D01*
X171000Y27666D01*
Y28666D01*
X167667Y9667D02*
X167334Y10000D01*
X166667D01*
X166334Y9667D01*
Y8334D01*
X166667Y8000D01*
X167334D01*
X167667Y8334D01*
X169667Y10000D02*
X168333D01*
Y9000D01*
X169000Y9333D01*
X169333D01*
X169667Y9000D01*
Y8334D01*
X169333Y8000D01*
X168667D01*
X168333Y8334D01*
X170333Y9667D02*
X170666Y10000D01*
X171333D01*
X171666Y9667D01*
Y9333D01*
X171333Y9000D01*
X171666Y8667D01*
Y8334D01*
X171333Y8000D01*
X170666D01*
X170333Y8334D01*
Y8667D01*
X170666Y9000D01*
X170333Y9333D01*
Y9667D01*
X170666Y9000D02*
X171333D01*
X152667Y13667D02*
X152334Y14000D01*
X151667D01*
X151334Y13667D01*
Y12334D01*
X151667Y12000D01*
X152334D01*
X152667Y12334D01*
X154666Y14000D02*
X153333D01*
Y13000D01*
X154000Y13333D01*
X154333D01*
X154666Y13000D01*
Y12334D01*
X154333Y12000D01*
X153667D01*
X153333Y12334D01*
X155333Y14000D02*
X156666D01*
Y13667D01*
X155333Y12334D01*
Y12000D01*
X94000Y72667D02*
X93667Y73000D01*
X93001D01*
X92667Y72667D01*
Y71334D01*
X93001Y71000D01*
X93667D01*
X94000Y71334D01*
X95666Y71000D02*
Y73000D01*
X94667Y72000D01*
X96000D01*
X96666Y71000D02*
X97333D01*
X96999D01*
Y73000D01*
X96666Y72667D01*
X60167Y70666D02*
X59834Y71000D01*
X59167D01*
X58834Y70666D01*
Y69334D01*
X59167Y69000D01*
X59834D01*
X60167Y69334D01*
X60834Y70666D02*
X61167Y71000D01*
X61833D01*
X62167Y70666D01*
Y70333D01*
X61833Y70000D01*
X61500D01*
X61833D01*
X62167Y69667D01*
Y69334D01*
X61833Y69000D01*
X61167D01*
X60834Y69334D01*
X62833D02*
X63166Y69000D01*
X63833D01*
X64166Y69334D01*
Y70666D01*
X63833Y71000D01*
X63166D01*
X62833Y70666D01*
Y70333D01*
X63166Y70000D01*
X64166D01*
X67334Y67667D02*
X67000Y67334D01*
Y66667D01*
X67334Y66334D01*
X68666D01*
X69000Y66667D01*
Y67334D01*
X68666Y67667D01*
X67334Y68334D02*
X67000Y68667D01*
Y69333D01*
X67334Y69666D01*
X67667D01*
X68000Y69333D01*
Y69000D01*
Y69333D01*
X68333Y69666D01*
X68666D01*
X69000Y69333D01*
Y68667D01*
X68666Y68334D01*
X67334Y70333D02*
X67000Y70666D01*
Y71333D01*
X67334Y71666D01*
X67667D01*
X68000Y71333D01*
X68333Y71666D01*
X68666D01*
X69000Y71333D01*
Y70666D01*
X68666Y70333D01*
X68333D01*
X68000Y70666D01*
X67667Y70333D01*
X67334D01*
X68000Y70666D02*
Y71333D01*
X17667Y97667D02*
X17334Y98000D01*
X16667D01*
X16334Y97667D01*
Y96334D01*
X16667Y96000D01*
X17334D01*
X17667Y96334D01*
X18334Y97667D02*
X18667Y98000D01*
X19333D01*
X19667Y97667D01*
Y97333D01*
X19333Y97000D01*
X19000D01*
X19333D01*
X19667Y96667D01*
Y96334D01*
X19333Y96000D01*
X18667D01*
X18334Y96334D01*
X20333Y98000D02*
X21666D01*
Y97667D01*
X20333Y96334D01*
Y96000D01*
X106000Y13334D02*
X107666D01*
X108000Y13667D01*
Y14334D01*
X107666Y14667D01*
X106000D01*
X108000Y16666D02*
Y15333D01*
X106667Y16666D01*
X106333D01*
X106000Y16333D01*
Y15666D01*
X106333Y15333D01*
X124334Y41000D02*
Y39334D01*
X124667Y39000D01*
X125334D01*
X125667Y39334D01*
Y41000D01*
X127666Y39000D02*
X126333D01*
X127666Y40333D01*
Y40666D01*
X127333Y41000D01*
X126667D01*
X126333Y40666D01*
X129333Y39000D02*
Y41000D01*
X128333Y40000D01*
X129666D01*
X168000Y57334D02*
X169666D01*
X170000Y57667D01*
Y58334D01*
X169666Y58667D01*
X168000D01*
X170000Y60667D02*
Y59334D01*
X168667Y60667D01*
X168333D01*
X168000Y60333D01*
Y59667D01*
X168333Y59334D01*
Y61333D02*
X168000Y61666D01*
Y62333D01*
X168333Y62666D01*
X168667D01*
X169000Y62333D01*
Y61999D01*
Y62333D01*
X169333Y62666D01*
X169666D01*
X170000Y62333D01*
Y61666D01*
X169666Y61333D01*
X202000Y20335D02*
Y21667D01*
Y21001D01*
X204000D01*
Y22334D02*
X202000D01*
Y23334D01*
X202333Y23667D01*
X203000D01*
X203333Y23334D01*
Y22334D01*
X204000Y25333D02*
X202000D01*
X203000Y24333D01*
Y25666D01*
X202000Y27665D02*
Y26333D01*
X203000D01*
X202667Y26999D01*
Y27332D01*
X203000Y27665D01*
X203666D01*
X204000Y27332D01*
Y26666D01*
X203666Y26333D01*
X169494Y77666D02*
X169161Y78000D01*
X168494D01*
X168161Y77666D01*
Y76334D01*
X168494Y76000D01*
X169161D01*
X169494Y76334D01*
X170160Y78000D02*
X171493D01*
Y77666D01*
X170160Y76334D01*
Y76000D01*
X173493D02*
X172160D01*
X173493Y77333D01*
Y77666D01*
X173159Y78000D01*
X172493D01*
X172160Y77666D01*
X170796Y81666D02*
X170462Y82000D01*
X169796D01*
X169463Y81666D01*
Y80334D01*
X169796Y80000D01*
X170462D01*
X170796Y80334D01*
X171462Y82000D02*
X172795D01*
Y81666D01*
X171462Y80334D01*
Y80000D01*
X173461D02*
X174128D01*
X173795D01*
Y82000D01*
X173461Y81666D01*
X113666Y37333D02*
X114000Y37666D01*
Y38333D01*
X113666Y38666D01*
X112334D01*
X112000Y38333D01*
Y37666D01*
X112334Y37333D01*
X114000Y36666D02*
Y35334D01*
X113666D01*
X112334Y36666D01*
X112000D01*
X113666Y34667D02*
X114000Y34334D01*
Y33667D01*
X113666Y33334D01*
X112334D01*
X112000Y33667D01*
Y34334D01*
X112334Y34667D01*
X113666D01*
X117666Y37333D02*
X118000Y37666D01*
Y38333D01*
X117666Y38666D01*
X116334D01*
X116000Y38333D01*
Y37666D01*
X116334Y37333D01*
X118000Y35334D02*
X117666Y36000D01*
X117000Y36666D01*
X116334D01*
X116000Y36333D01*
Y35667D01*
X116334Y35334D01*
X116667D01*
X117000Y35667D01*
Y36666D01*
X116334Y34667D02*
X116000Y34334D01*
Y33667D01*
X116334Y33334D01*
X117666D01*
X118000Y33667D01*
Y34334D01*
X117666Y34667D01*
X117333D01*
X117000Y34334D01*
Y33334D01*
X15667Y129000D02*
Y127000D01*
X17000D01*
X17666D02*
X18333D01*
X18000D01*
Y129000D01*
X17666Y128666D01*
X64501Y122000D02*
Y120334D01*
X64834Y120000D01*
X65500D01*
X65834Y120334D01*
Y122000D01*
X66500Y120000D02*
X67167D01*
X66833D01*
Y122000D01*
X66500Y121667D01*
X69499Y122000D02*
X68833Y121667D01*
X68166Y121000D01*
Y120334D01*
X68499Y120000D01*
X69166D01*
X69499Y120334D01*
Y120667D01*
X69166Y121000D01*
X68166D01*
X202000Y132334D02*
Y133667D01*
Y133001D01*
X204000D01*
Y134334D02*
X202000D01*
Y135333D01*
X202333Y135667D01*
X203000D01*
X203333Y135333D01*
Y134334D01*
X202000Y137666D02*
X202333Y136999D01*
X203000Y136333D01*
X203666D01*
X204000Y136666D01*
Y137333D01*
X203666Y137666D01*
X203333D01*
X203000Y137333D01*
Y136333D01*
X202000Y118334D02*
Y119667D01*
Y119001D01*
X204000D01*
Y120334D02*
X202000D01*
Y121333D01*
X202333Y121667D01*
X203000D01*
X203333Y121333D01*
Y120334D01*
X202000Y123666D02*
Y122333D01*
X203000D01*
X202667Y122999D01*
Y123333D01*
X203000Y123666D01*
X203666D01*
X204000Y123333D01*
Y122666D01*
X203666Y122333D01*
X202000Y104334D02*
Y105667D01*
Y105001D01*
X204000D01*
Y106334D02*
X202000D01*
Y107333D01*
X202333Y107667D01*
X203000D01*
X203333Y107333D01*
Y106334D01*
X202333Y108333D02*
X202000Y108666D01*
Y109333D01*
X202333Y109666D01*
X202667D01*
X203000Y109333D01*
Y108999D01*
Y109333D01*
X203333Y109666D01*
X203666D01*
X204000Y109333D01*
Y108666D01*
X203666Y108333D01*
X107501Y6000D02*
Y8000D01*
X108501D01*
X108834Y7666D01*
Y7000D01*
X108501Y6667D01*
X107501D01*
X108167D02*
X108834Y6000D01*
X109500D02*
X110167D01*
X109833D01*
Y8000D01*
X109500Y7666D01*
X111166Y8000D02*
X112499D01*
Y7666D01*
X111166Y6334D01*
Y6000D01*
X39469Y70000D02*
Y72000D01*
X40469D01*
X40802Y71667D01*
Y71000D01*
X40469Y70667D01*
X39469D01*
X40136D02*
X40802Y70000D01*
X41469D02*
X42135D01*
X41802D01*
Y72000D01*
X41469Y71667D01*
X44468Y72000D02*
X43801Y71667D01*
X43135Y71000D01*
Y70334D01*
X43468Y70000D01*
X44135D01*
X44468Y70334D01*
Y70667D01*
X44135Y71000D01*
X43135D01*
X58334Y68000D02*
Y66000D01*
X59334D01*
X59667Y66334D01*
Y67667D01*
X59334Y68000D01*
X58334D01*
X61333Y66000D02*
Y68000D01*
X60333Y67000D01*
X61666D01*
X58334Y63000D02*
Y61000D01*
X59334D01*
X59667Y61334D01*
Y62666D01*
X59334Y63000D01*
X58334D01*
X61666Y61000D02*
X60333D01*
X61666Y62333D01*
Y62666D01*
X61333Y63000D01*
X60667D01*
X60333Y62666D01*
X49667Y97000D02*
Y95000D01*
X50667D01*
X51000Y95334D01*
Y96667D01*
X50667Y97000D01*
X49667D01*
X51666Y95000D02*
X52333D01*
X52000D01*
Y97000D01*
X51666Y96667D01*
X96334Y40000D02*
X97667Y38000D01*
Y40000D02*
X96334Y38000D01*
X99666D02*
X98333D01*
X99666Y39333D01*
Y39667D01*
X99333Y40000D01*
X98667D01*
X98333Y39667D01*
X47000Y15667D02*
X49000Y17000D01*
X47000D02*
X49000Y15667D01*
Y17666D02*
Y18333D01*
Y18000D01*
X47000D01*
X47333Y17666D01*
X30318Y91015D02*
Y89349D01*
X30651Y89016D01*
X31318D01*
X31651Y89349D01*
Y91015D01*
X33317Y89016D02*
Y91015D01*
X32318Y90016D01*
X33650D01*
X191334Y114000D02*
Y112334D01*
X191667Y112000D01*
X192334D01*
X192667Y112334D01*
Y114000D01*
X193333Y113666D02*
X193667Y114000D01*
X194333D01*
X194666Y113666D01*
Y113333D01*
X194333Y113000D01*
X194000D01*
X194333D01*
X194666Y112667D01*
Y112334D01*
X194333Y112000D01*
X193667D01*
X193333Y112334D01*
X52667Y53000D02*
Y51334D01*
X53000Y51000D01*
X53667D01*
X54000Y51334D01*
Y53000D01*
X54666Y51000D02*
X55333D01*
X55000D01*
Y53000D01*
X54666Y52666D01*
X75501Y92000D02*
Y94000D01*
X76500D01*
X76834Y93666D01*
Y93000D01*
X76500Y92667D01*
X75501D01*
X76167D02*
X76834Y92000D01*
X77500D02*
X78167D01*
X77833D01*
Y94000D01*
X77500Y93666D01*
X80166Y92000D02*
Y94000D01*
X79166Y93000D01*
X80499D01*
X74000Y105499D02*
X76000D01*
Y104499D01*
X75666Y104166D01*
X75000D01*
X74667Y104499D01*
Y105499D01*
Y104833D02*
X74000Y104166D01*
Y103500D02*
Y102833D01*
Y103167D01*
X76000D01*
X75666Y103500D01*
Y101834D02*
X76000Y101500D01*
Y100834D01*
X75666Y100501D01*
X75333D01*
X75000Y100834D01*
Y101167D01*
Y100834D01*
X74667Y100501D01*
X74334D01*
X74000Y100834D01*
Y101500D01*
X74334Y101834D01*
X83000Y94499D02*
X85000D01*
Y93499D01*
X84667Y93166D01*
X84000D01*
X83667Y93499D01*
Y94499D01*
Y93833D02*
X83000Y93166D01*
Y92500D02*
Y91833D01*
Y92167D01*
X85000D01*
X84667Y92500D01*
X83000Y89501D02*
Y90834D01*
X84333Y89501D01*
X84667D01*
X85000Y89834D01*
Y90500D01*
X84667Y90834D01*
X196000Y8501D02*
X194000D01*
Y9500D01*
X194334Y9834D01*
X195000D01*
X195333Y9500D01*
Y8501D01*
Y9167D02*
X196000Y9834D01*
Y10500D02*
Y11167D01*
Y10833D01*
X194000D01*
X194334Y10500D01*
Y12166D02*
X194000Y12500D01*
Y13166D01*
X194334Y13499D01*
X195666D01*
X196000Y13166D01*
Y12500D01*
X195666Y12166D01*
X194334D01*
X65334Y91000D02*
Y93000D01*
X66334D01*
X66667Y92667D01*
Y92000D01*
X66334Y91667D01*
X65334D01*
X66000D02*
X66667Y91000D01*
X68666Y93000D02*
X68000Y92667D01*
X67333Y92000D01*
Y91334D01*
X67667Y91000D01*
X68333D01*
X68666Y91334D01*
Y91667D01*
X68333Y92000D01*
X67333D01*
X40334Y57000D02*
Y59000D01*
X41334D01*
X41667Y58666D01*
Y58000D01*
X41334Y57667D01*
X40334D01*
X41000D02*
X41667Y57000D01*
X43333D02*
Y59000D01*
X42333Y58000D01*
X43666D01*
X7000Y43334D02*
X9000D01*
Y44667D01*
X7000Y46666D02*
Y45333D01*
X8000D01*
X7667Y46000D01*
Y46333D01*
X8000Y46666D01*
X8666D01*
X9000Y46333D01*
Y45667D01*
X8666Y45333D01*
X6334Y33000D02*
Y31000D01*
X7667D01*
X9333D02*
Y33000D01*
X8333Y32000D01*
X9666D01*
X83000Y7334D02*
X85000D01*
Y8667D01*
X83333Y9333D02*
X83000Y9667D01*
Y10333D01*
X83333Y10666D01*
X83667D01*
X84000Y10333D01*
Y10000D01*
Y10333D01*
X84333Y10666D01*
X84666D01*
X85000Y10333D01*
Y9667D01*
X84666Y9333D01*
X73000Y12397D02*
X75000D01*
Y13730D01*
Y15729D02*
Y14396D01*
X73667Y15729D01*
X73334D01*
X73000Y15396D01*
Y14729D01*
X73334Y14396D01*
X6000Y75000D02*
X5334D01*
X5667D01*
Y73334D01*
X5334Y73000D01*
X5000D01*
X4667Y73334D01*
X6667Y73000D02*
X7333D01*
X7000D01*
Y75000D01*
X6667Y74667D01*
X15000Y9000D02*
X13667D01*
Y7000D01*
X15000D01*
X13667Y8000D02*
X14333D01*
X15666Y7000D02*
X16333D01*
X16000D01*
Y9000D01*
X15666Y8666D01*
X17334Y29000D02*
X17000Y28667D01*
Y28001D01*
X17334Y27667D01*
X18666D01*
X19000Y28001D01*
Y28667D01*
X18666Y29000D01*
X17334Y29667D02*
X17000Y30000D01*
Y30667D01*
X17334Y31000D01*
X17667D01*
X18000Y30667D01*
Y30333D01*
Y30667D01*
X18333Y31000D01*
X18666D01*
X19000Y30667D01*
Y30000D01*
X18666Y29667D01*
X19000Y31666D02*
Y32333D01*
Y31999D01*
X17000D01*
X17334Y31666D01*
X23667Y44666D02*
X23334Y45000D01*
X22667D01*
X22334Y44666D01*
Y43334D01*
X22667Y43000D01*
X23334D01*
X23667Y43334D01*
X24333Y44666D02*
X24667Y45000D01*
X25333D01*
X25666Y44666D01*
Y44333D01*
X25333Y44000D01*
X25000D01*
X25333D01*
X25666Y43667D01*
Y43334D01*
X25333Y43000D01*
X24667D01*
X24333Y43334D01*
X26333Y44666D02*
X26666Y45000D01*
X27333D01*
X27666Y44666D01*
Y43334D01*
X27333Y43000D01*
X26666D01*
X26333Y43334D01*
Y44666D01*
X118667Y16667D02*
X118334Y17000D01*
X117667D01*
X117334Y16667D01*
Y15334D01*
X117667Y15000D01*
X118334D01*
X118667Y15334D01*
X120667Y15000D02*
X119334D01*
X120667Y16333D01*
Y16667D01*
X120333Y17000D01*
X119667D01*
X119334Y16667D01*
X121333Y15334D02*
X121666Y15000D01*
X122333D01*
X122666Y15334D01*
Y16667D01*
X122333Y17000D01*
X121666D01*
X121333Y16667D01*
Y16333D01*
X121666Y16000D01*
X122666D01*
X118667Y11666D02*
X118334Y12000D01*
X117667D01*
X117334Y11666D01*
Y10334D01*
X117667Y10000D01*
X118334D01*
X118667Y10334D01*
X120667Y10000D02*
X119334D01*
X120667Y11333D01*
Y11666D01*
X120333Y12000D01*
X119667D01*
X119334Y11666D01*
X121333D02*
X121666Y12000D01*
X122333D01*
X122666Y11666D01*
Y11333D01*
X122333Y11000D01*
X122666Y10667D01*
Y10334D01*
X122333Y10000D01*
X121666D01*
X121333Y10334D01*
Y10667D01*
X121666Y11000D01*
X121333Y11333D01*
Y11666D01*
X121666Y11000D02*
X122333D01*
X36334Y30636D02*
X36000Y30302D01*
Y29636D01*
X36334Y29303D01*
X37666D01*
X38000Y29636D01*
Y30302D01*
X37666Y30636D01*
X38000Y32635D02*
Y31302D01*
X36667Y32635D01*
X36334D01*
X36000Y32302D01*
Y31635D01*
X36334Y31302D01*
X36000Y33301D02*
Y34634D01*
X36334D01*
X37666Y33301D01*
X38000D01*
X32333Y17667D02*
X32000Y17334D01*
Y16667D01*
X32333Y16334D01*
X33666D01*
X34000Y16667D01*
Y17334D01*
X33666Y17667D01*
X34000Y19667D02*
Y18334D01*
X32667Y19667D01*
X32333D01*
X32000Y19333D01*
Y18667D01*
X32333Y18334D01*
X32000Y21666D02*
X32333Y20999D01*
X33000Y20333D01*
X33666D01*
X34000Y20666D01*
Y21333D01*
X33666Y21666D01*
X33333D01*
X33000Y21333D01*
Y20333D01*
X62667Y4667D02*
X62334Y5000D01*
X61667D01*
X61334Y4667D01*
Y3334D01*
X61667Y3000D01*
X62334D01*
X62667Y3334D01*
X64666Y3000D02*
X63334D01*
X64666Y4333D01*
Y4667D01*
X64333Y5000D01*
X63667D01*
X63334Y4667D01*
X66666Y5000D02*
X65333D01*
Y4000D01*
X65999Y4333D01*
X66333D01*
X66666Y4000D01*
Y3334D01*
X66333Y3000D01*
X65666D01*
X65333Y3334D01*
X95667Y23666D02*
X95334Y24000D01*
X94667D01*
X94334Y23666D01*
Y22334D01*
X94667Y22000D01*
X95334D01*
X95667Y22334D01*
X97666Y22000D02*
X96334D01*
X97666Y23333D01*
Y23666D01*
X97333Y24000D01*
X96667D01*
X96334Y23666D01*
X99333Y22000D02*
Y24000D01*
X98333Y23000D01*
X99666D01*
X33667Y7604D02*
X33334Y7937D01*
X32667D01*
X32334Y7604D01*
Y6271D01*
X32667Y5937D01*
X33334D01*
X33667Y6271D01*
X35666Y5937D02*
X34334D01*
X35666Y7270D01*
Y7604D01*
X35333Y7937D01*
X34667D01*
X34334Y7604D01*
X36333D02*
X36666Y7937D01*
X37333D01*
X37666Y7604D01*
Y7270D01*
X37333Y6937D01*
X36999D01*
X37333D01*
X37666Y6604D01*
Y6271D01*
X37333Y5937D01*
X36666D01*
X36333Y6271D01*
X41667Y26603D02*
X41334Y26937D01*
X40667D01*
X40334Y26603D01*
Y25271D01*
X40667Y24937D01*
X41334D01*
X41667Y25271D01*
X43666Y24937D02*
X42334D01*
X43666Y26270D01*
Y26603D01*
X43333Y26937D01*
X42667D01*
X42334Y26603D01*
X45666Y24937D02*
X44333D01*
X45666Y26270D01*
Y26603D01*
X45333Y26937D01*
X44666D01*
X44333Y26603D01*
X42000Y116666D02*
X41667Y117000D01*
X41001D01*
X40667Y116666D01*
Y115334D01*
X41001Y115000D01*
X41667D01*
X42000Y115334D01*
X44000Y115000D02*
X42667D01*
X44000Y116333D01*
Y116666D01*
X43666Y117000D01*
X43000D01*
X42667Y116666D01*
X44666Y115000D02*
X45333D01*
X44999D01*
Y117000D01*
X44666Y116666D01*
X48667Y115666D02*
X48334Y116000D01*
X47667D01*
X47334Y115666D01*
Y114334D01*
X47667Y114000D01*
X48334D01*
X48667Y114334D01*
X50666Y114000D02*
X49334D01*
X50666Y115333D01*
Y115666D01*
X50333Y116000D01*
X49667D01*
X49334Y115666D01*
X51333D02*
X51666Y116000D01*
X52333D01*
X52666Y115666D01*
Y114334D01*
X52333Y114000D01*
X51666D01*
X51333Y114334D01*
Y115666D01*
X104834Y24667D02*
X104500Y25000D01*
X103834D01*
X103501Y24667D01*
Y23334D01*
X103834Y23000D01*
X104500D01*
X104834Y23334D01*
X105500Y23000D02*
X106167D01*
X105833D01*
Y25000D01*
X105500Y24667D01*
X107166Y23334D02*
X107500Y23000D01*
X108166D01*
X108499Y23334D01*
Y24667D01*
X108166Y25000D01*
X107500D01*
X107166Y24667D01*
Y24333D01*
X107500Y24000D01*
X108499D01*
X86834Y142666D02*
X86501Y143000D01*
X85834D01*
X85501Y142666D01*
Y141334D01*
X85834Y141000D01*
X86501D01*
X86834Y141334D01*
X87500Y141000D02*
X88167D01*
X87833D01*
Y143000D01*
X87500Y142666D01*
X89166D02*
X89499Y143000D01*
X90166D01*
X90499Y142666D01*
Y142333D01*
X90166Y142000D01*
X90499Y141667D01*
Y141334D01*
X90166Y141000D01*
X89499D01*
X89166Y141334D01*
Y141667D01*
X89499Y142000D01*
X89166Y142333D01*
Y142666D01*
X89499Y142000D02*
X90166D01*
X86834Y136667D02*
X86501Y137000D01*
X85834D01*
X85501Y136667D01*
Y135334D01*
X85834Y135000D01*
X86501D01*
X86834Y135334D01*
X87500Y135000D02*
X88167D01*
X87833D01*
Y137000D01*
X87500Y136667D01*
X89166Y137000D02*
X90499D01*
Y136667D01*
X89166Y135334D01*
Y135000D01*
X86834Y130666D02*
X86501Y131000D01*
X85834D01*
X85501Y130666D01*
Y129334D01*
X85834Y129000D01*
X86501D01*
X86834Y129334D01*
X87500Y129000D02*
X88167D01*
X87833D01*
Y131000D01*
X87500Y130666D01*
X90499Y131000D02*
X89833Y130666D01*
X89166Y130000D01*
Y129334D01*
X89499Y129000D01*
X90166D01*
X90499Y129334D01*
Y129667D01*
X90166Y130000D01*
X89166D01*
X41333Y139834D02*
X41000Y139500D01*
Y138834D01*
X41333Y138501D01*
X42666D01*
X43000Y138834D01*
Y139500D01*
X42666Y139834D01*
X43000Y140500D02*
Y141167D01*
Y140833D01*
X41000D01*
X41333Y140500D01*
X41000Y143499D02*
Y142166D01*
X42000D01*
X41667Y142833D01*
Y143166D01*
X42000Y143499D01*
X42666D01*
X43000Y143166D01*
Y142499D01*
X42666Y142166D01*
X47333Y139834D02*
X47000Y139500D01*
Y138834D01*
X47333Y138501D01*
X48666D01*
X49000Y138834D01*
Y139500D01*
X48666Y139834D01*
X49000Y140500D02*
Y141167D01*
Y140833D01*
X47000D01*
X47333Y140500D01*
X49000Y143166D02*
X47000D01*
X48000Y142166D01*
Y143499D01*
X51333Y124834D02*
X51000Y124501D01*
Y123834D01*
X51333Y123501D01*
X52666D01*
X53000Y123834D01*
Y124501D01*
X52666Y124834D01*
X53000Y125500D02*
Y126167D01*
Y125833D01*
X51000D01*
X51333Y125500D01*
Y127166D02*
X51000Y127499D01*
Y128166D01*
X51333Y128499D01*
X51667D01*
X52000Y128166D01*
Y127833D01*
Y128166D01*
X52333Y128499D01*
X52666D01*
X53000Y128166D01*
Y127499D01*
X52666Y127166D01*
X71834Y132667D02*
X71500Y133000D01*
X70834D01*
X70501Y132667D01*
Y131334D01*
X70834Y131000D01*
X71500D01*
X71834Y131334D01*
X72500Y131000D02*
X73167D01*
X72833D01*
Y133000D01*
X72500Y132667D01*
X75499Y131000D02*
X74166D01*
X75499Y132333D01*
Y132667D01*
X75166Y133000D01*
X74499D01*
X74166Y132667D01*
X72167Y126666D02*
X71834Y127000D01*
X71167D01*
X70834Y126666D01*
Y125334D01*
X71167Y125000D01*
X71834D01*
X72167Y125334D01*
X72833Y125000D02*
X73500D01*
X73167D01*
Y127000D01*
X72833Y126666D01*
X74499Y125000D02*
X75166D01*
X74833D01*
Y127000D01*
X74499Y126666D01*
X84667Y116166D02*
X85000Y116499D01*
Y117166D01*
X84667Y117499D01*
X83334D01*
X83000Y117166D01*
Y116499D01*
X83334Y116166D01*
X83000Y115500D02*
Y114833D01*
Y115167D01*
X85000D01*
X84667Y115500D01*
Y113834D02*
X85000Y113500D01*
Y112834D01*
X84667Y112501D01*
X83334D01*
X83000Y112834D01*
Y113500D01*
X83334Y113834D01*
X84667D01*
X33667Y117666D02*
X33334Y118000D01*
X32667D01*
X32334Y117666D01*
Y116334D01*
X32667Y116000D01*
X33334D01*
X33667Y116334D01*
X34333D02*
X34666Y116000D01*
X35333D01*
X35666Y116334D01*
Y117666D01*
X35333Y118000D01*
X34666D01*
X34333Y117666D01*
Y117333D01*
X34666Y117000D01*
X35666D01*
X57667Y135667D02*
X57334Y136000D01*
X56667D01*
X56334Y135667D01*
Y134334D01*
X56667Y134000D01*
X57334D01*
X57667Y134334D01*
X58333Y135667D02*
X58666Y136000D01*
X59333D01*
X59666Y135667D01*
Y135333D01*
X59333Y135000D01*
X59666Y134667D01*
Y134334D01*
X59333Y134000D01*
X58666D01*
X58333Y134334D01*
Y134667D01*
X58666Y135000D01*
X58333Y135333D01*
Y135667D01*
X58666Y135000D02*
X59333D01*
X71667Y138666D02*
X71334Y139000D01*
X70667D01*
X70334Y138666D01*
Y137334D01*
X70667Y137000D01*
X71334D01*
X71667Y137334D01*
X72333Y139000D02*
X73666D01*
Y138666D01*
X72333Y137334D01*
Y137000D01*
X42667Y103666D02*
X42334Y104000D01*
X41667D01*
X41334Y103666D01*
Y102334D01*
X41667Y102000D01*
X42334D01*
X42667Y102334D01*
X44666Y104000D02*
X44000Y103666D01*
X43333Y103000D01*
Y102334D01*
X43666Y102000D01*
X44333D01*
X44666Y102334D01*
Y102667D01*
X44333Y103000D01*
X43333D01*
X89666Y115333D02*
X90000Y115666D01*
Y116333D01*
X89666Y116666D01*
X88334D01*
X88000Y116333D01*
Y115666D01*
X88334Y115333D01*
X90000Y113334D02*
Y114667D01*
X89000D01*
X89333Y114000D01*
Y113667D01*
X89000Y113334D01*
X88334D01*
X88000Y113667D01*
Y114333D01*
X88334Y114667D01*
X78667Y116333D02*
X79000Y116666D01*
Y117333D01*
X78667Y117666D01*
X77334D01*
X77000Y117333D01*
Y116666D01*
X77334Y116333D01*
X77000Y114667D02*
X79000D01*
X78000Y115667D01*
Y114334D01*
X48635Y108667D02*
X48302Y109000D01*
X47636D01*
X47302Y108667D01*
Y107334D01*
X47636Y107000D01*
X48302D01*
X48635Y107334D01*
X49302Y108667D02*
X49635Y109000D01*
X50301D01*
X50635Y108667D01*
Y108333D01*
X50301Y108000D01*
X49968D01*
X50301D01*
X50635Y107667D01*
Y107334D01*
X50301Y107000D01*
X49635D01*
X49302Y107334D01*
X103667Y42667D02*
X103334Y43000D01*
X102667D01*
X102334Y42667D01*
Y41334D01*
X102667Y41000D01*
X103334D01*
X103667Y41334D01*
X105666Y41000D02*
X104333D01*
X105666Y42333D01*
Y42667D01*
X105333Y43000D01*
X104666D01*
X104333Y42667D01*
M02*
