M48
;Layer_Color=9474304
;FILE_FORMAT=2:5
INCH,LZ
;TYPE=PLATED
T1F00S00C0.01200
T2F00S00C0.03937
T3F00S00C0.04500
;TYPE=NON_PLATED
T4F00S00C0.03902
%
T01
X0018Y0005
Y0011
Y0018
Y0024
X0022Y0031
X0025Y0035
X0029
X0034
X0037Y0046
X0029
X0019
X0016Y0049
X0017Y0054
X0012
X0009Y0049
X0004Y0045
X0007Y0077
X0017Y0078
X0029Y0074
X0037Y0062
X0046Y0054
X0047Y0047
X0053Y0058
X007
X0069614Y0045512
X0074614
Y0039512
X0069614
X0064614
Y0033512
X0069614
X0074614
X0088Y0027
X0089Y0019
Y0011
X0087Y0006
X0084Y0022
X0068827Y001885
X0064Y0013625
X0065Y0008
X0053Y0005
X0054Y0018
X0058Y0022
X0049Y0029
X0035Y0013
X0064614Y0045512
X0082Y0053
X0096Y0049
X009Y004
X0121
X0132
X012Y005
Y0067
X0098Y0065
X0102Y0073
X0097Y0087
X009Y0095
X0088Y0108
X0074Y0117
X0061504Y011413
X0059504Y010911
X0063504
X0061504Y0104091
X0062Y0092
X0065Y0083
X0059Y0074
X0048Y0071
X0053Y0089
X0043Y0098
X0031Y0094
X0022
X0035016Y0108
X0038Y0119
X0034Y0122
X0035Y0129
X0036Y0136
X0028Y0137
X0025Y0128
X0021Y0122
X0028Y0119
X0046Y0112063
X0057441Y0121441
X0059Y0139
X0072Y0142
X0094Y0144
X0083Y0084
X0086Y008
X0077Y0068
X0098559Y0014839
X0107Y0019
X0115Y0006
X0149Y0015
X0146Y0022
X018Y0021
X0181Y0029
X0178Y0033
X0173Y0036
X0199Y003
Y0018
X0185Y0008
X0177Y0005
X0195Y0046
X0199Y0058
Y0086
X019
X0191Y0102
Y0108
X0192488Y0121
X02Y0138
X0187Y0142
X0175Y0134
X0169Y0091
X0197Y0098
T02
X0008Y0131
Y0140449
T03
X0009Y0106
Y0116
X0112Y0078
X0122
X013Y0009
X014
X0212
X0222
Y0023
X0212
Y0037
X0222
Y0051
X0212
Y0065
X0222
Y0079
X0212
Y0093
X0222
Y0107
X0212
Y0121
X0222
Y0135
X0212
T04
X0007Y00605
Y00685
X0027Y00645
M30
