G04*
G04 #@! TF.GenerationSoftware,Altium Limited,Altium Designer,21.3.2 (30)*
G04*
G04 Layer_Color=8421504*
%FSLAX24Y24*%
%MOIN*%
G70*
G04*
G04 #@! TF.SameCoordinates,FFBA0EC0-682D-4AE7-A023-BFB846BD403B*
G04*
G04*
G04 #@! TF.FilePolarity,Positive*
G04*
G01*
G75*
%ADD10C,0.0100*%
%ADD15C,0.0020*%
%ADD16R,0.0236X0.0236*%
%ADD17R,0.0197X0.0276*%
%ADD18R,0.0197X0.0236*%
%ADD19R,0.0122X0.0217*%
G04:AMPARAMS|DCode=20|XSize=65.3mil|YSize=24.7mil|CornerRadius=12.3mil|HoleSize=0mil|Usage=FLASHONLY|Rotation=90.000|XOffset=0mil|YOffset=0mil|HoleType=Round|Shape=RoundedRectangle|*
%AMROUNDEDRECTD20*
21,1,0.0653,0.0000,0,0,90.0*
21,1,0.0406,0.0247,0,0,90.0*
1,1,0.0247,0.0000,0.0203*
1,1,0.0247,0.0000,-0.0203*
1,1,0.0247,0.0000,-0.0203*
1,1,0.0247,0.0000,0.0203*
%
%ADD20ROUNDEDRECTD20*%
%ADD21R,0.0247X0.0653*%
%ADD22R,0.0315X0.0236*%
%ADD23R,0.1437X0.0807*%
%ADD24R,0.1181X0.0276*%
%ADD25R,0.2378X0.1339*%
%ADD26R,0.1098X0.0291*%
D10*
X10846Y30000D02*
G03*
X10000Y29154I0J-846D01*
G01*
Y10846D02*
G03*
X10846Y10000I846J0D01*
G01*
X40000Y29154D02*
G03*
X39154Y30000I-846J0D01*
G01*
Y10000D02*
G03*
X40000Y10846I0J846D01*
G01*
X10846Y30000D02*
X39154D01*
X10846Y10000D02*
X39154D01*
X10000Y10846D02*
Y29154D01*
X40000Y10846D02*
Y29154D01*
D15*
X13554Y24638D02*
X13947D01*
X13750Y24441D02*
Y24835D01*
D16*
X29400Y29000D02*
D03*
Y28606D02*
D03*
X28700Y28997D02*
D03*
Y28603D02*
D03*
X27200Y29000D02*
D03*
Y28606D02*
D03*
X28000D02*
D03*
Y29000D02*
D03*
X19800Y17606D02*
D03*
Y18000D02*
D03*
X19200Y17606D02*
D03*
Y18000D02*
D03*
X19000Y23506D02*
D03*
Y23900D02*
D03*
X18500D02*
D03*
Y23506D02*
D03*
D17*
X23193Y16900D02*
D03*
X22819D02*
D03*
D18*
X24100D02*
D03*
X23706D02*
D03*
D19*
X24331Y21900D02*
D03*
X24000D02*
D03*
D20*
X17940Y18769D02*
D03*
X18300Y18000D02*
D03*
D21*
X17580D02*
D03*
D22*
X21616Y24000D02*
D03*
X22600D02*
D03*
X21608Y20900D02*
D03*
X22592D02*
D03*
X18308Y15300D02*
D03*
X19292D02*
D03*
X21616Y21900D02*
D03*
X22600D02*
D03*
X21600Y23000D02*
D03*
X22584D02*
D03*
X18308Y16200D02*
D03*
X19292D02*
D03*
D23*
X23500Y11200D02*
D03*
X17500D02*
D03*
X20500D02*
D03*
X26500D02*
D03*
X29500D02*
D03*
X14500D02*
D03*
D24*
X16900Y24884D02*
D03*
Y24392D02*
D03*
Y25376D02*
D03*
Y23900D02*
D03*
D25*
X14380Y21961D02*
D03*
Y27315D02*
D03*
D26*
X13102Y16300D02*
D03*
Y16800D02*
D03*
Y17300D02*
D03*
Y18300D02*
D03*
X11500Y16300D02*
D03*
Y16800D02*
D03*
Y17300D02*
D03*
Y17800D02*
D03*
Y18300D02*
D03*
M02*
