G04*
G04 #@! TF.GenerationSoftware,Altium Limited,Altium Designer,21.3.2 (30)*
G04*
G04 Layer_Physical_Order=1*
G04 Layer_Color=255*
%FSLAX24Y24*%
%MOIN*%
G70*
G04*
G04 #@! TF.SameCoordinates,FFBA0EC0-682D-4AE7-A023-BFB846BD403B*
G04*
G04*
G04 #@! TF.FilePolarity,Positive*
G04*
G01*
G75*
%ADD10C,0.0100*%
%ADD15C,0.0020*%
%ADD16R,0.0236X0.0236*%
%ADD17R,0.0197X0.0276*%
%ADD18R,0.0197X0.0236*%
%ADD19R,0.0122X0.0217*%
G04:AMPARAMS|DCode=20|XSize=65.3mil|YSize=24.7mil|CornerRadius=12.3mil|HoleSize=0mil|Usage=FLASHONLY|Rotation=90.000|XOffset=0mil|YOffset=0mil|HoleType=Round|Shape=RoundedRectangle|*
%AMROUNDEDRECTD20*
21,1,0.0653,0.0000,0,0,90.0*
21,1,0.0406,0.0247,0,0,90.0*
1,1,0.0247,0.0000,0.0203*
1,1,0.0247,0.0000,-0.0203*
1,1,0.0247,0.0000,-0.0203*
1,1,0.0247,0.0000,0.0203*
%
%ADD20ROUNDEDRECTD20*%
%ADD21R,0.0247X0.0653*%
%ADD22R,0.0315X0.0236*%
%ADD23R,0.1437X0.0807*%
%ADD24R,0.1181X0.0276*%
%ADD25R,0.2378X0.1339*%
%ADD26R,0.1098X0.0291*%
%ADD42R,0.0610X0.0610*%
%ADD43C,0.0610*%
%ADD44C,0.1004*%
%ADD45C,0.1240*%
%ADD46C,0.0394*%
%ADD47C,0.0512*%
%ADD48C,0.0750*%
%ADD49C,0.1575*%
%ADD50C,0.0250*%
G36*
X39301Y29894D02*
X39443Y29851D01*
X39573Y29781D01*
X39687Y29687D01*
X39781Y29573D01*
X39851Y29443D01*
X39894Y29301D01*
X39908Y29155D01*
X39908Y29154D01*
Y10846D01*
X39908Y10845D01*
X39894Y10699D01*
X39851Y10557D01*
X39781Y10427D01*
X39687Y10313D01*
X39573Y10219D01*
X39443Y10149D01*
X39301Y10106D01*
X39155Y10092D01*
X39154Y10092D01*
X10900D01*
X10898Y10091D01*
X10742Y10107D01*
X10590Y10153D01*
X10451Y10227D01*
X10328Y10328D01*
X10227Y10451D01*
X10153Y10590D01*
X10107Y10742D01*
X10091Y10898D01*
X10092Y10900D01*
Y29154D01*
X10092Y29155D01*
X10106Y29301D01*
X10149Y29443D01*
X10219Y29573D01*
X10313Y29687D01*
X10427Y29781D01*
X10557Y29851D01*
X10699Y29894D01*
X10845Y29908D01*
X10846Y29908D01*
X39154D01*
X39155Y29908D01*
X39301Y29894D01*
D02*
G37*
%LPC*%
G36*
X24050Y29623D02*
Y29450D01*
X24223D01*
X24191Y29527D01*
X24127Y29591D01*
X24050Y29623D01*
D02*
G37*
G36*
X23950D02*
X23873Y29591D01*
X23809Y29527D01*
X23777Y29450D01*
X23950D01*
Y29623D01*
D02*
G37*
G36*
X30450Y29523D02*
Y29350D01*
X30623D01*
X30591Y29427D01*
X30527Y29491D01*
X30450Y29523D01*
D02*
G37*
G36*
X30350D02*
X30273Y29491D01*
X30209Y29427D01*
X30177Y29350D01*
X30350D01*
Y29523D01*
D02*
G37*
G36*
X17650Y29423D02*
Y29250D01*
X17823D01*
X17791Y29327D01*
X17727Y29391D01*
X17650Y29423D01*
D02*
G37*
G36*
X17550D02*
X17473Y29391D01*
X17409Y29327D01*
X17377Y29250D01*
X17550D01*
Y29423D01*
D02*
G37*
G36*
X24223Y29350D02*
X24050D01*
Y29177D01*
X24127Y29209D01*
X24191Y29273D01*
X24223Y29350D01*
D02*
G37*
G36*
X23950D02*
X23777D01*
X23809Y29273D01*
X23873Y29209D01*
X23950Y29177D01*
Y29350D01*
D02*
G37*
G36*
X36950Y29323D02*
Y29150D01*
X37123D01*
X37091Y29227D01*
X37027Y29291D01*
X36950Y29323D01*
D02*
G37*
G36*
X36850D02*
X36773Y29291D01*
X36709Y29227D01*
X36677Y29150D01*
X36850D01*
Y29323D01*
D02*
G37*
G36*
X30623Y29250D02*
X30450D01*
Y29077D01*
X30527Y29109D01*
X30591Y29173D01*
X30623Y29250D01*
D02*
G37*
G36*
X30350D02*
X30177D01*
X30209Y29173D01*
X30273Y29109D01*
X30350Y29077D01*
Y29250D01*
D02*
G37*
G36*
X29618Y29218D02*
X29450D01*
Y29050D01*
X29618D01*
Y29218D01*
D02*
G37*
G36*
X27418D02*
X27250D01*
Y29050D01*
X27418D01*
Y29218D01*
D02*
G37*
G36*
X28218D02*
X28050D01*
Y29050D01*
X28218D01*
Y29218D01*
D02*
G37*
G36*
X27950D02*
X27782D01*
Y29050D01*
X27950D01*
Y29218D01*
D02*
G37*
G36*
X29350D02*
X29182D01*
Y29050D01*
X29350D01*
Y29218D01*
D02*
G37*
G36*
X27150D02*
X26982D01*
Y29050D01*
X27150D01*
Y29218D01*
D02*
G37*
G36*
X28918Y29215D02*
X28750D01*
Y29047D01*
X28918D01*
Y29215D01*
D02*
G37*
G36*
X28650D02*
X28482D01*
Y29047D01*
X28650D01*
Y29215D01*
D02*
G37*
G36*
X17823Y29150D02*
X17650D01*
Y28977D01*
X17727Y29009D01*
X17791Y29073D01*
X17823Y29150D01*
D02*
G37*
G36*
X17550D02*
X17377D01*
X17409Y29073D01*
X17473Y29009D01*
X17550Y28977D01*
Y29150D01*
D02*
G37*
G36*
X37123Y29050D02*
X36950D01*
Y28877D01*
X37027Y28909D01*
X37091Y28973D01*
X37123Y29050D01*
D02*
G37*
G36*
X36850D02*
X36677D01*
X36709Y28973D01*
X36773Y28909D01*
X36850Y28877D01*
Y29050D01*
D02*
G37*
G36*
X25653Y28805D02*
X25650D01*
Y28450D01*
X26005D01*
Y28453D01*
X25978Y28556D01*
X25924Y28649D01*
X25849Y28724D01*
X25756Y28778D01*
X25653Y28805D01*
D02*
G37*
G36*
X25550D02*
X25547D01*
X25444Y28778D01*
X25351Y28724D01*
X25276Y28649D01*
X25222Y28556D01*
X25195Y28453D01*
Y28450D01*
X25550D01*
Y28805D01*
D02*
G37*
G36*
X39081Y29827D02*
X38919D01*
X38759Y29796D01*
X38608Y29733D01*
X38473Y29643D01*
X38357Y29527D01*
X38267Y29392D01*
X38204Y29241D01*
X38173Y29081D01*
Y28919D01*
X38204Y28759D01*
X38267Y28608D01*
X38357Y28473D01*
X38473Y28357D01*
X38608Y28267D01*
X38759Y28204D01*
X38919Y28173D01*
X39081D01*
X39241Y28204D01*
X39392Y28267D01*
X39527Y28357D01*
X39643Y28473D01*
X39733Y28608D01*
X39796Y28759D01*
X39827Y28919D01*
Y29081D01*
X39796Y29241D01*
X39733Y29392D01*
X39643Y29527D01*
X39527Y29643D01*
X39392Y29733D01*
X39241Y29796D01*
X39081Y29827D01*
D02*
G37*
G36*
X11081D02*
X10919D01*
X10759Y29796D01*
X10608Y29733D01*
X10473Y29643D01*
X10357Y29527D01*
X10267Y29392D01*
X10204Y29241D01*
X10173Y29081D01*
Y28919D01*
X10204Y28759D01*
X10267Y28608D01*
X10357Y28473D01*
X10473Y28357D01*
X10608Y28267D01*
X10759Y28204D01*
X10919Y28173D01*
X11081D01*
X11241Y28204D01*
X11392Y28267D01*
X11527Y28357D01*
X11643Y28473D01*
X11733Y28608D01*
X11796Y28759D01*
X11827Y28919D01*
Y29081D01*
X11796Y29241D01*
X11733Y29392D01*
X11643Y29527D01*
X11527Y29643D01*
X11392Y29733D01*
X11241Y29796D01*
X11081Y29827D01*
D02*
G37*
G36*
X20945Y28745D02*
X20255D01*
Y28055D01*
X20945D01*
Y28745D01*
D02*
G37*
G36*
X26005Y28350D02*
X25650D01*
Y27995D01*
X25653D01*
X25756Y28022D01*
X25849Y28076D01*
X25924Y28151D01*
X25978Y28244D01*
X26005Y28347D01*
Y28350D01*
D02*
G37*
G36*
X25550D02*
X25195D01*
Y28347D01*
X25222Y28244D01*
X25276Y28151D01*
X25351Y28076D01*
X25444Y28022D01*
X25547Y27995D01*
X25550D01*
Y28350D01*
D02*
G37*
G36*
X15669Y28085D02*
X14430D01*
Y27365D01*
X15669D01*
Y28085D01*
D02*
G37*
G36*
X14330D02*
X13091D01*
Y27365D01*
X14330D01*
Y28085D01*
D02*
G37*
G36*
X35850Y27123D02*
Y26950D01*
X36023D01*
X35991Y27027D01*
X35927Y27091D01*
X35850Y27123D01*
D02*
G37*
G36*
X35750D02*
X35673Y27091D01*
X35609Y27027D01*
X35577Y26950D01*
X35750D01*
Y27123D01*
D02*
G37*
G36*
X31250D02*
Y26950D01*
X31423D01*
X31391Y27027D01*
X31327Y27091D01*
X31250Y27123D01*
D02*
G37*
G36*
X31150D02*
X31073Y27091D01*
X31009Y27027D01*
X30977Y26950D01*
X31150D01*
Y27123D01*
D02*
G37*
G36*
X36023Y26850D02*
X35850D01*
Y26677D01*
X35927Y26709D01*
X35991Y26773D01*
X36023Y26850D01*
D02*
G37*
G36*
X35750D02*
X35577D01*
X35609Y26773D01*
X35673Y26709D01*
X35750Y26677D01*
Y26850D01*
D02*
G37*
G36*
X31423D02*
X31250D01*
Y26677D01*
X31327Y26709D01*
X31391Y26773D01*
X31423Y26850D01*
D02*
G37*
G36*
X31150D02*
X30977D01*
X31009Y26773D01*
X31073Y26709D01*
X31150Y26677D01*
Y26850D01*
D02*
G37*
G36*
X18250Y26823D02*
Y26650D01*
X18423D01*
X18391Y26727D01*
X18327Y26791D01*
X18250Y26823D01*
D02*
G37*
G36*
X18150D02*
X18073Y26791D01*
X18009Y26727D01*
X17977Y26650D01*
X18150D01*
Y26823D01*
D02*
G37*
G36*
X15669Y27265D02*
X14430D01*
Y26546D01*
X15669D01*
Y27265D01*
D02*
G37*
G36*
X14330D02*
X13091D01*
Y26546D01*
X14330D01*
Y27265D01*
D02*
G37*
G36*
X18423Y26550D02*
X18250D01*
Y26377D01*
X18327Y26409D01*
X18391Y26473D01*
X18423Y26550D01*
D02*
G37*
G36*
X18150D02*
X17977D01*
X18009Y26473D01*
X18073Y26409D01*
X18150Y26377D01*
Y26550D01*
D02*
G37*
G36*
X11350Y26423D02*
Y26250D01*
X11523D01*
X11491Y26327D01*
X11427Y26391D01*
X11350Y26423D01*
D02*
G37*
G36*
X11250D02*
X11173Y26391D01*
X11109Y26327D01*
X11077Y26250D01*
X11250D01*
Y26423D01*
D02*
G37*
G36*
X11523Y26150D02*
X11350D01*
Y25977D01*
X11427Y26009D01*
X11491Y26073D01*
X11523Y26150D01*
D02*
G37*
G36*
X11250D02*
X11077D01*
X11109Y26073D01*
X11173Y26009D01*
X11250Y25977D01*
Y26150D01*
D02*
G37*
G36*
X19950Y25723D02*
Y25550D01*
X20123D01*
X20091Y25627D01*
X20027Y25691D01*
X19950Y25723D01*
D02*
G37*
G36*
X19850D02*
X19773Y25691D01*
X19709Y25627D01*
X19677Y25550D01*
X19850D01*
Y25723D01*
D02*
G37*
G36*
X14183Y26017D02*
X14105D01*
X14030Y25997D01*
X13962Y25958D01*
X13907Y25903D01*
X13868Y25835D01*
X13848Y25760D01*
Y25682D01*
X13868Y25607D01*
X13907Y25539D01*
X13962Y25484D01*
X14030Y25445D01*
X14105Y25425D01*
X14183D01*
X14258Y25445D01*
X14326Y25484D01*
X14381Y25539D01*
X14420Y25607D01*
X14440Y25682D01*
Y25760D01*
X14420Y25835D01*
X14381Y25903D01*
X14326Y25958D01*
X14258Y25997D01*
X14183Y26017D01*
D02*
G37*
G36*
X34650Y25523D02*
Y25350D01*
X34823D01*
X34791Y25427D01*
X34727Y25491D01*
X34650Y25523D01*
D02*
G37*
G36*
X34550D02*
X34473Y25491D01*
X34409Y25427D01*
X34377Y25350D01*
X34550D01*
Y25523D01*
D02*
G37*
G36*
X20123Y25450D02*
X19950D01*
Y25277D01*
X20027Y25309D01*
X20091Y25373D01*
X20123Y25450D01*
D02*
G37*
G36*
X19850D02*
X19677D01*
X19709Y25373D01*
X19773Y25309D01*
X19850Y25277D01*
Y25450D01*
D02*
G37*
G36*
X30750Y25423D02*
Y25250D01*
X30923D01*
X30891Y25327D01*
X30827Y25391D01*
X30750Y25423D01*
D02*
G37*
G36*
X30650D02*
X30573Y25391D01*
X30509Y25327D01*
X30477Y25250D01*
X30650D01*
Y25423D01*
D02*
G37*
G36*
X17531Y25554D02*
X16269D01*
Y25199D01*
X17531D01*
Y25554D01*
D02*
G37*
G36*
X34823Y25250D02*
X34650D01*
Y25077D01*
X34727Y25109D01*
X34791Y25173D01*
X34823Y25250D01*
D02*
G37*
G36*
X34550D02*
X34377D01*
X34409Y25173D01*
X34473Y25109D01*
X34550Y25077D01*
Y25250D01*
D02*
G37*
G36*
X30923Y25150D02*
X30750D01*
Y24977D01*
X30827Y25009D01*
X30891Y25073D01*
X30923Y25150D01*
D02*
G37*
G36*
X30650D02*
X30477D01*
X30509Y25073D01*
X30573Y25009D01*
X30650Y24977D01*
Y25150D01*
D02*
G37*
G36*
X17531Y25062D02*
X16269D01*
Y24706D01*
X17531D01*
Y25062D01*
D02*
G37*
G36*
X37880Y25975D02*
X37750D01*
X37622Y25950D01*
X37502Y25900D01*
X37394Y25828D01*
X37302Y25736D01*
X37230Y25628D01*
X37180Y25507D01*
X37155Y25380D01*
Y25250D01*
X37180Y25122D01*
X37230Y25002D01*
X37302Y24894D01*
X37394Y24802D01*
X37502Y24730D01*
X37622Y24680D01*
X37750Y24655D01*
X37880D01*
X38008Y24680D01*
X38128Y24730D01*
X38236Y24802D01*
X38328Y24894D01*
X38400Y25002D01*
X38450Y25122D01*
X38475Y25250D01*
Y25380D01*
X38450Y25507D01*
X38400Y25628D01*
X38328Y25736D01*
X38236Y25828D01*
X38128Y25900D01*
X38008Y25950D01*
X37880Y25975D01*
D02*
G37*
G36*
X17591Y24630D02*
X16950D01*
Y24442D01*
X17591D01*
Y24630D01*
D02*
G37*
G36*
X16850D02*
X16209D01*
Y24442D01*
X16850D01*
Y24630D01*
D02*
G37*
G36*
X17591Y24342D02*
X16950D01*
Y24154D01*
X17591D01*
Y24342D01*
D02*
G37*
G36*
X16850D02*
X16209D01*
Y24154D01*
X16850D01*
Y24342D01*
D02*
G37*
G36*
X39250Y24123D02*
Y23950D01*
X39423D01*
X39391Y24027D01*
X39327Y24091D01*
X39250Y24123D01*
D02*
G37*
G36*
X39150D02*
X39073Y24091D01*
X39009Y24027D01*
X38977Y23950D01*
X39150D01*
Y24123D01*
D02*
G37*
G36*
X26850Y24023D02*
Y23850D01*
X27023D01*
X26991Y23927D01*
X26927Y23991D01*
X26850Y24023D01*
D02*
G37*
G36*
X26750D02*
X26673Y23991D01*
X26609Y23927D01*
X26577Y23850D01*
X26750D01*
Y24023D01*
D02*
G37*
G36*
X21645Y28745D02*
X21555D01*
X21467Y28722D01*
X21388Y28676D01*
X21324Y28612D01*
X21278Y28533D01*
X21255Y28445D01*
Y28355D01*
X21278Y28267D01*
X21324Y28188D01*
X21388Y28124D01*
X21467Y28078D01*
X21508Y28067D01*
Y24158D01*
X21418D01*
Y23842D01*
X21813D01*
Y24158D01*
X21692D01*
Y28067D01*
X21733Y28078D01*
X21812Y28124D01*
X21876Y28188D01*
X21922Y28267D01*
X21945Y28355D01*
Y28445D01*
X21922Y28533D01*
X21876Y28612D01*
X21812Y28676D01*
X21733Y28722D01*
X21645Y28745D01*
D02*
G37*
G36*
X39423Y23850D02*
X39250D01*
Y23677D01*
X39327Y23709D01*
X39391Y23773D01*
X39423Y23850D01*
D02*
G37*
G36*
X39150D02*
X38977D01*
X39009Y23773D01*
X39073Y23709D01*
X39150Y23677D01*
Y23850D01*
D02*
G37*
G36*
X27023Y23750D02*
X26850D01*
Y23577D01*
X26927Y23609D01*
X26991Y23673D01*
X27023Y23750D01*
D02*
G37*
G36*
X26750D02*
X26577D01*
X26609Y23673D01*
X26673Y23609D01*
X26750Y23577D01*
Y23750D01*
D02*
G37*
G36*
X32056Y23680D02*
X31992Y23662D01*
X31924Y23623D01*
X31869Y23568D01*
X31865Y23561D01*
X31802Y23553D01*
X31768Y23587D01*
X31681Y23623D01*
X31587D01*
X31500Y23587D01*
X31433Y23520D01*
X31397Y23433D01*
Y23339D01*
X31433Y23252D01*
X31500Y23185D01*
X31587Y23149D01*
X31681D01*
X31768Y23185D01*
X31802Y23219D01*
X31865Y23211D01*
X31869Y23204D01*
X31924Y23148D01*
X31992Y23109D01*
X32056Y23092D01*
Y23386D01*
Y23680D01*
D02*
G37*
G36*
X19218Y23456D02*
X19050D01*
Y23288D01*
X19218D01*
Y23456D01*
D02*
G37*
G36*
X18950D02*
X18782D01*
Y23288D01*
X18950D01*
Y23456D01*
D02*
G37*
G36*
X18718D02*
X18550D01*
Y23288D01*
X18718D01*
Y23456D01*
D02*
G37*
G36*
X18450D02*
X18282D01*
Y23288D01*
X18450D01*
Y23456D01*
D02*
G37*
G36*
X14183Y23851D02*
X14105D01*
X14030Y23831D01*
X13962Y23792D01*
X13907Y23737D01*
X13868Y23670D01*
X13848Y23594D01*
Y23517D01*
X13868Y23441D01*
X13907Y23374D01*
X13962Y23319D01*
X14030Y23280D01*
X14105Y23260D01*
X14183D01*
X14258Y23280D01*
X14326Y23319D01*
X14381Y23374D01*
X14420Y23441D01*
X14440Y23517D01*
Y23594D01*
X14420Y23670D01*
X14381Y23737D01*
X14326Y23792D01*
X14258Y23831D01*
X14183Y23851D01*
D02*
G37*
G36*
X32156Y23680D02*
Y23386D01*
Y23092D01*
X32221Y23109D01*
X32289Y23148D01*
X32344Y23204D01*
X32348Y23211D01*
X32411Y23219D01*
X32445Y23185D01*
X32532Y23149D01*
X32626D01*
X32713Y23185D01*
X32780Y23252D01*
X32790Y23277D01*
X32840D01*
X32850Y23252D01*
X32917Y23185D01*
X33004Y23149D01*
X33098D01*
X33185Y23185D01*
X33252Y23252D01*
X33288Y23339D01*
Y23433D01*
X33252Y23520D01*
X33185Y23587D01*
X33098Y23623D01*
X33004D01*
X32917Y23587D01*
X32850Y23520D01*
X32840Y23495D01*
X32790D01*
X32780Y23520D01*
X32713Y23587D01*
X32626Y23623D01*
X32532D01*
X32445Y23587D01*
X32411Y23553D01*
X32348Y23561D01*
X32344Y23568D01*
X32289Y23623D01*
X32221Y23662D01*
X32156Y23680D01*
D02*
G37*
G36*
X24550Y23123D02*
Y22950D01*
X24723D01*
X24691Y23027D01*
X24627Y23091D01*
X24550Y23123D01*
D02*
G37*
G36*
X24450D02*
X24373Y23091D01*
X24309Y23027D01*
X24277Y22950D01*
X24450D01*
Y23123D01*
D02*
G37*
G36*
X33256Y23032D02*
X33162D01*
X33075Y22996D01*
X33008Y22929D01*
X32997Y22904D01*
X32947D01*
X32937Y22929D01*
X32870Y22996D01*
X32783Y23032D01*
X32689D01*
X32602Y22996D01*
X32535Y22929D01*
X32525Y22904D01*
X32475D01*
X32465Y22929D01*
X32398Y22996D01*
X32311Y23032D01*
X32217D01*
X32130Y22996D01*
X32063Y22929D01*
X32053Y22904D01*
X32003D01*
X31992Y22929D01*
X31926Y22996D01*
X31839Y23032D01*
X31744D01*
X31657Y22996D01*
X31591Y22929D01*
X31555Y22842D01*
Y22748D01*
X31591Y22661D01*
X31657Y22594D01*
X31744Y22558D01*
X31839D01*
X31926Y22594D01*
X31992Y22661D01*
X32003Y22686D01*
X32053D01*
X32063Y22661D01*
X32130Y22594D01*
X32217Y22558D01*
X32311D01*
X32398Y22594D01*
X32465Y22661D01*
X32475Y22686D01*
X32525D01*
X32535Y22661D01*
X32602Y22594D01*
X32689Y22558D01*
X32783D01*
X32870Y22594D01*
X32937Y22661D01*
X32947Y22686D01*
X32997D01*
X33008Y22661D01*
X33075Y22594D01*
X33162Y22558D01*
X33256D01*
X33343Y22594D01*
X33409Y22661D01*
X33446Y22748D01*
Y22842D01*
X33409Y22929D01*
X33343Y22996D01*
X33256Y23032D01*
D02*
G37*
G36*
X17531Y24078D02*
X16269D01*
Y23722D01*
X17531D01*
Y23808D01*
X18307D01*
X18327Y23788D01*
X18319Y23732D01*
X18299Y23724D01*
X18282D01*
Y23556D01*
X18500D01*
X18718D01*
Y23724D01*
X18701D01*
X18681Y23732D01*
X18673Y23788D01*
X18693Y23808D01*
X18807D01*
X18827Y23788D01*
X18819Y23732D01*
X18799Y23724D01*
X18782D01*
Y23556D01*
X19000D01*
X19218D01*
Y23724D01*
X19201D01*
X19181Y23732D01*
X19173Y23788D01*
X19193Y23808D01*
X20662D01*
X20808Y23662D01*
Y23200D01*
X20815Y23165D01*
X20835Y23135D01*
X21035Y22935D01*
X21065Y22915D01*
X21100Y22908D01*
X21403D01*
Y22842D01*
X21797D01*
Y23158D01*
X21403D01*
Y23092D01*
X21138D01*
X20992Y23238D01*
Y23700D01*
X20985Y23735D01*
X20965Y23765D01*
X20765Y23965D01*
X20735Y23985D01*
X20700Y23992D01*
X19158D01*
Y24058D01*
X18842D01*
Y23992D01*
X18658D01*
Y24058D01*
X18342D01*
Y23992D01*
X17531D01*
Y24078D01*
D02*
G37*
G36*
X24723Y22850D02*
X24550D01*
Y22677D01*
X24627Y22709D01*
X24691Y22773D01*
X24723Y22850D01*
D02*
G37*
G36*
X24450D02*
X24277D01*
X24309Y22773D01*
X24373Y22709D01*
X24450Y22677D01*
Y22850D01*
D02*
G37*
G36*
X19050Y22423D02*
Y22250D01*
X19223D01*
X19191Y22327D01*
X19127Y22391D01*
X19050Y22423D01*
D02*
G37*
G36*
X18950D02*
X18873Y22391D01*
X18809Y22327D01*
X18777Y22250D01*
X18950D01*
Y22423D01*
D02*
G37*
G36*
X15669Y22730D02*
X14430D01*
Y22011D01*
X15669D01*
Y22730D01*
D02*
G37*
G36*
X14330D02*
X13091D01*
Y22011D01*
X14330D01*
Y22730D01*
D02*
G37*
G36*
X19223Y22150D02*
X19050D01*
Y21977D01*
X19127Y22009D01*
X19191Y22073D01*
X19223Y22150D01*
D02*
G37*
G36*
X18950D02*
X18777D01*
X18809Y22073D01*
X18873Y22009D01*
X18950Y21977D01*
Y22150D01*
D02*
G37*
G36*
X28218Y28950D02*
X28000D01*
X27782D01*
Y28782D01*
X27799D01*
X27842Y28764D01*
X27842Y28732D01*
Y28448D01*
X27908D01*
Y25000D01*
X27915Y24965D01*
X27935Y24935D01*
X30730Y22140D01*
X30760Y22120D01*
X30795Y22113D01*
X31730D01*
X31748Y22071D01*
X31815Y22004D01*
X31902Y21968D01*
X31996D01*
X32083Y22004D01*
X32150Y22071D01*
X32160Y22096D01*
X32210D01*
X32221Y22071D01*
X32287Y22004D01*
X32374Y21968D01*
X32468D01*
X32555Y22004D01*
X32622Y22071D01*
X32633Y22096D01*
X32682D01*
X32693Y22071D01*
X32760Y22004D01*
X32847Y21968D01*
X32941D01*
X33028Y22004D01*
X33094Y22071D01*
X33105Y22096D01*
X33155D01*
X33165Y22071D01*
X33232Y22004D01*
X33319Y21968D01*
X33413D01*
X33500Y22004D01*
X33567Y22071D01*
X33603Y22158D01*
Y22252D01*
X33567Y22339D01*
X33500Y22405D01*
X33413Y22442D01*
X33319D01*
X33232Y22405D01*
X33165Y22339D01*
X33155Y22314D01*
X33105D01*
X33094Y22339D01*
X33028Y22405D01*
X32941Y22442D01*
X32847D01*
X32760Y22405D01*
X32693Y22339D01*
X32682Y22314D01*
X32633D01*
X32622Y22339D01*
X32555Y22405D01*
X32468Y22442D01*
X32374D01*
X32287Y22405D01*
X32221Y22339D01*
X32210Y22314D01*
X32160D01*
X32150Y22339D01*
X32083Y22405D01*
X31996Y22442D01*
X31902D01*
X31815Y22405D01*
X31748Y22339D01*
X31730Y22296D01*
X30833D01*
X28092Y25038D01*
Y28448D01*
X28158D01*
X28158Y28764D01*
X28201Y28782D01*
X28218D01*
Y28950D01*
D02*
G37*
G36*
X22797Y24158D02*
X22403D01*
Y23842D01*
X22492D01*
Y23158D01*
X22387D01*
Y22842D01*
X22492D01*
Y22058D01*
X22403D01*
Y21742D01*
X22500D01*
Y21058D01*
X22395D01*
Y20742D01*
X22790D01*
Y21058D01*
X22684D01*
Y21742D01*
X22797D01*
Y21808D01*
X23899D01*
Y21752D01*
X24101D01*
Y22048D01*
X23899D01*
Y21992D01*
X22797D01*
Y22058D01*
X22676D01*
Y22842D01*
X22782D01*
Y23158D01*
X22676D01*
Y23842D01*
X22797D01*
Y24158D01*
D02*
G37*
G36*
X27350Y21923D02*
Y21750D01*
X27523D01*
X27491Y21827D01*
X27427Y21891D01*
X27350Y21923D01*
D02*
G37*
G36*
X27250D02*
X27173Y21891D01*
X27109Y21827D01*
X27077Y21750D01*
X27250D01*
Y21923D01*
D02*
G37*
G36*
X21813Y22058D02*
X21418D01*
Y21992D01*
X20700D01*
X20665Y21985D01*
X20635Y21965D01*
X20235Y21565D01*
X20215Y21535D01*
X20208Y21500D01*
Y20941D01*
X20207Y20940D01*
X20160Y20893D01*
X20135Y20833D01*
Y20767D01*
X20160Y20707D01*
X20207Y20660D01*
X20267Y20635D01*
X20333D01*
X20393Y20660D01*
X20440Y20707D01*
X20465Y20767D01*
Y20833D01*
X20440Y20893D01*
X20393Y20940D01*
X20392Y20941D01*
Y21462D01*
X20738Y21808D01*
X21418D01*
Y21742D01*
X21813D01*
Y22058D01*
D02*
G37*
G36*
X27523Y21650D02*
X27350D01*
Y21477D01*
X27427Y21509D01*
X27491Y21573D01*
X27523Y21650D01*
D02*
G37*
G36*
X27250D02*
X27077D01*
X27109Y21573D01*
X27173Y21509D01*
X27250Y21477D01*
Y21650D01*
D02*
G37*
G36*
X15669Y21911D02*
X14430D01*
Y21192D01*
X15669D01*
Y21911D01*
D02*
G37*
G36*
X14330D02*
X13091D01*
Y21192D01*
X14330D01*
Y21911D01*
D02*
G37*
G36*
X11350Y21223D02*
Y21050D01*
X11523D01*
X11491Y21127D01*
X11427Y21191D01*
X11350Y21223D01*
D02*
G37*
G36*
X11250D02*
X11173Y21191D01*
X11109Y21127D01*
X11077Y21050D01*
X11250D01*
Y21223D01*
D02*
G37*
G36*
X29618Y28950D02*
X29400D01*
X29182D01*
Y28782D01*
X29199D01*
X29242Y28764D01*
X29242Y28732D01*
Y28448D01*
X29308D01*
Y26400D01*
X29315Y26365D01*
X29335Y26335D01*
X30035Y25635D01*
X30065Y25615D01*
X30100Y25608D01*
X32062D01*
X35508Y22162D01*
Y20901D01*
X35491Y20889D01*
X35467Y20882D01*
X35457Y20881D01*
X35429Y20909D01*
X35342Y20945D01*
X35248D01*
X35161Y20909D01*
X35142Y20890D01*
X35092Y20911D01*
Y22100D01*
X35085Y22135D01*
X35065Y22165D01*
X32865Y24365D01*
X32835Y24385D01*
X32800Y24392D01*
X29838D01*
X28792Y25438D01*
Y28445D01*
X28858D01*
X28858Y28761D01*
X28901Y28779D01*
X28918D01*
Y28947D01*
X28700D01*
X28482D01*
Y28779D01*
X28499D01*
X28542Y28761D01*
X28542Y28729D01*
Y28445D01*
X28608D01*
Y25400D01*
X28615Y25365D01*
X28635Y25335D01*
X29735Y24235D01*
X29765Y24215D01*
X29800Y24208D01*
X32762D01*
X34908Y22062D01*
Y20753D01*
X34858Y20733D01*
X34839Y20752D01*
X34752Y20788D01*
X34658D01*
X34571Y20752D01*
X34504Y20685D01*
X34468Y20598D01*
Y20504D01*
X34504Y20417D01*
X34538Y20383D01*
X34530Y20320D01*
X34522Y20316D01*
X34467Y20261D01*
X34428Y20193D01*
X34411Y20129D01*
X34999D01*
X34981Y20193D01*
X34942Y20261D01*
X34901Y20303D01*
X34897Y20356D01*
X34898Y20359D01*
X34955Y20347D01*
X34959Y20337D01*
X35020Y20257D01*
X35058Y20228D01*
Y20189D01*
X35095Y20102D01*
X35161Y20035D01*
X35186Y20025D01*
Y19975D01*
X35161Y19964D01*
X35095Y19898D01*
X35058Y19811D01*
Y19717D01*
X35095Y19630D01*
X35161Y19563D01*
X35186Y19553D01*
Y19503D01*
X35161Y19492D01*
X35095Y19425D01*
X35058Y19338D01*
Y19244D01*
X35095Y19157D01*
X35161Y19091D01*
X35248Y19054D01*
X35342D01*
X35429Y19091D01*
X35496Y19157D01*
X35532Y19244D01*
Y19338D01*
X35496Y19425D01*
X35429Y19492D01*
X35404Y19503D01*
Y19553D01*
X35429Y19563D01*
X35496Y19630D01*
X35532Y19717D01*
Y19811D01*
X35496Y19898D01*
X35429Y19964D01*
X35404Y19975D01*
Y20025D01*
X35429Y20035D01*
X35496Y20102D01*
X35532Y20189D01*
Y20283D01*
X35496Y20370D01*
X35429Y20437D01*
X35404Y20447D01*
Y20497D01*
X35429Y20508D01*
X35477Y20555D01*
X35534Y20546D01*
X35558Y20490D01*
X35618Y20412D01*
X35649Y20388D01*
Y20347D01*
X35685Y20260D01*
X35752Y20193D01*
X35777Y20182D01*
Y20132D01*
X35752Y20122D01*
X35685Y20055D01*
X35649Y19968D01*
Y19874D01*
X35685Y19787D01*
X35752Y19720D01*
X35777Y19710D01*
Y19660D01*
X35752Y19650D01*
X35685Y19583D01*
X35649Y19496D01*
Y19402D01*
X35685Y19315D01*
X35752Y19248D01*
X35839Y19212D01*
X35933D01*
X36020Y19248D01*
X36087Y19315D01*
X36123Y19402D01*
Y19496D01*
X36087Y19583D01*
X36020Y19650D01*
X35995Y19660D01*
Y19710D01*
X36020Y19720D01*
X36087Y19787D01*
X36123Y19874D01*
Y19968D01*
X36087Y20055D01*
X36020Y20122D01*
X35995Y20132D01*
Y20182D01*
X36020Y20193D01*
X36087Y20260D01*
X36123Y20347D01*
Y20441D01*
X36087Y20528D01*
X36020Y20594D01*
X35995Y20605D01*
Y20655D01*
X36020Y20665D01*
X36087Y20732D01*
X36123Y20819D01*
Y20913D01*
X36087Y21000D01*
X36020Y21067D01*
X35933Y21103D01*
X35839D01*
X35752Y21067D01*
X35738Y21053D01*
X35692Y21072D01*
Y22200D01*
X35685Y22235D01*
X35665Y22265D01*
X32165Y25765D01*
X32135Y25785D01*
X32100Y25792D01*
X30138D01*
X29492Y26438D01*
Y28448D01*
X29558D01*
X29558Y28764D01*
X29601Y28782D01*
X29618D01*
Y28950D01*
D02*
G37*
G36*
X11523Y20950D02*
X11350D01*
Y20777D01*
X11427Y20809D01*
X11491Y20873D01*
X11523Y20950D01*
D02*
G37*
G36*
X11250D02*
X11077D01*
X11109Y20873D01*
X11173Y20809D01*
X11250Y20777D01*
Y20950D01*
D02*
G37*
G36*
X21805Y21058D02*
X21410D01*
Y20992D01*
X21100D01*
X21065Y20985D01*
X21035Y20965D01*
X20262Y20192D01*
X17400D01*
X17365Y20185D01*
X17335Y20165D01*
X15562Y18392D01*
X13692D01*
Y18486D01*
X12513D01*
Y18114D01*
X13692D01*
Y18208D01*
X15600D01*
X15635Y18215D01*
X15665Y18235D01*
X17438Y20008D01*
X20300D01*
X20335Y20015D01*
X20365Y20035D01*
X21138Y20808D01*
X21410D01*
Y20742D01*
X21805D01*
Y21058D01*
D02*
G37*
G36*
X18950Y20823D02*
Y20650D01*
X19123D01*
X19091Y20727D01*
X19027Y20791D01*
X18950Y20823D01*
D02*
G37*
G36*
X18850D02*
X18773Y20791D01*
X18709Y20727D01*
X18677Y20650D01*
X18850D01*
Y20823D01*
D02*
G37*
G36*
X19123Y20550D02*
X18950D01*
Y20377D01*
X19027Y20409D01*
X19091Y20473D01*
X19123Y20550D01*
D02*
G37*
G36*
X18850D02*
X18677D01*
X18709Y20473D01*
X18773Y20409D01*
X18850Y20377D01*
Y20550D01*
D02*
G37*
G36*
X32559Y20602D02*
X32550D01*
Y20050D01*
X33102D01*
Y20059D01*
X33079Y20176D01*
X33033Y20285D01*
X32968Y20384D01*
X32884Y20468D01*
X32785Y20533D01*
X32676Y20579D01*
X32559Y20602D01*
D02*
G37*
G36*
X32450D02*
X32441D01*
X32324Y20579D01*
X32215Y20533D01*
X32116Y20468D01*
X32032Y20384D01*
X31967Y20285D01*
X31921Y20176D01*
X31898Y20059D01*
Y20050D01*
X32450D01*
Y20602D01*
D02*
G37*
G36*
X13050Y19823D02*
Y19650D01*
X13223D01*
X13191Y19727D01*
X13127Y19791D01*
X13050Y19823D01*
D02*
G37*
G36*
X12950D02*
X12873Y19791D01*
X12809Y19727D01*
X12777Y19650D01*
X12950D01*
Y19823D01*
D02*
G37*
G36*
X15450Y19723D02*
Y19550D01*
X15623D01*
X15591Y19627D01*
X15527Y19691D01*
X15450Y19723D01*
D02*
G37*
G36*
X15350D02*
X15273Y19691D01*
X15209Y19627D01*
X15177Y19550D01*
X15350D01*
Y19723D01*
D02*
G37*
G36*
X33102Y19950D02*
X32550D01*
Y19398D01*
X32559D01*
X32676Y19421D01*
X32785Y19467D01*
X32884Y19532D01*
X32968Y19616D01*
X33033Y19715D01*
X33079Y19824D01*
X33102Y19941D01*
Y19950D01*
D02*
G37*
G36*
X32450D02*
X31898D01*
Y19941D01*
X31921Y19824D01*
X31967Y19715D01*
X32032Y19616D01*
X32116Y19532D01*
X32215Y19467D01*
X32324Y19421D01*
X32441Y19398D01*
X32450D01*
Y19950D01*
D02*
G37*
G36*
X24432Y22048D02*
X24230D01*
Y21752D01*
X24250D01*
Y20189D01*
X24240Y20187D01*
X24145Y20132D01*
X24068Y20055D01*
X24013Y19960D01*
X23985Y19855D01*
Y19745D01*
X24013Y19640D01*
X24068Y19545D01*
X24145Y19468D01*
X24240Y19413D01*
X24345Y19385D01*
X24455D01*
X24560Y19413D01*
X24655Y19468D01*
X24732Y19545D01*
X24787Y19640D01*
X24815Y19745D01*
Y19855D01*
X24787Y19960D01*
X24732Y20055D01*
X24655Y20132D01*
X24560Y20187D01*
X24455Y20215D01*
X24433D01*
Y21889D01*
X24432Y21898D01*
Y22048D01*
D02*
G37*
G36*
X23455Y20215D02*
X23345D01*
X23240Y20187D01*
X23145Y20132D01*
X23068Y20055D01*
X23013Y19960D01*
X22995Y19892D01*
X18200D01*
X18165Y19885D01*
X18135Y19865D01*
X17875Y19605D01*
X17855Y19575D01*
X17848Y19540D01*
Y19107D01*
X17822Y19090D01*
X17786Y19036D01*
X17773Y18972D01*
Y18566D01*
X17786Y18502D01*
X17803Y18476D01*
X17776Y18427D01*
X17764Y18427D01*
Y18427D01*
X17764Y18427D01*
X17630D01*
Y18050D01*
X17803D01*
X17803Y18388D01*
Y18389D01*
Y18389D01*
X17803Y18401D01*
X17852Y18428D01*
X17876Y18412D01*
X17940Y18399D01*
X18004Y18412D01*
X18058Y18448D01*
X18094Y18502D01*
X18106Y18566D01*
Y18972D01*
X18094Y19036D01*
X18058Y19090D01*
X18032Y19107D01*
Y19502D01*
X18238Y19708D01*
X22995D01*
X23013Y19640D01*
X23068Y19545D01*
X23145Y19468D01*
X23240Y19413D01*
X23345Y19385D01*
X23455D01*
X23560Y19413D01*
X23655Y19468D01*
X23732Y19545D01*
X23787Y19640D01*
X23815Y19745D01*
Y19855D01*
X23787Y19960D01*
X23732Y20055D01*
X23655Y20132D01*
X23560Y20187D01*
X23455Y20215D01*
D02*
G37*
G36*
X13223Y19550D02*
X13050D01*
Y19377D01*
X13127Y19409D01*
X13191Y19473D01*
X13223Y19550D01*
D02*
G37*
G36*
X12950D02*
X12777D01*
X12809Y19473D01*
X12873Y19409D01*
X12950Y19377D01*
Y19550D01*
D02*
G37*
G36*
X15623Y19450D02*
X15450D01*
Y19277D01*
X15527Y19309D01*
X15591Y19373D01*
X15623Y19450D01*
D02*
G37*
G36*
X15350D02*
X15177D01*
X15209Y19373D01*
X15273Y19309D01*
X15350Y19277D01*
Y19450D01*
D02*
G37*
G36*
X27418Y28950D02*
X27200D01*
X26982D01*
Y28782D01*
X26999D01*
X27042Y28764D01*
X27042Y28732D01*
Y28448D01*
X27108D01*
Y25200D01*
X27115Y25165D01*
X27135Y25135D01*
X30208Y22062D01*
Y21086D01*
X30161Y21067D01*
X30095Y21000D01*
X30058Y20913D01*
Y20819D01*
X30095Y20732D01*
X30161Y20665D01*
X30186Y20655D01*
Y20605D01*
X30161Y20594D01*
X30095Y20528D01*
X30058Y20441D01*
Y20347D01*
X30095Y20260D01*
X30161Y20193D01*
X30186Y20182D01*
Y20132D01*
X30161Y20122D01*
X30095Y20055D01*
X30058Y19968D01*
Y19874D01*
X30095Y19787D01*
X30161Y19720D01*
X30186Y19710D01*
Y19660D01*
X30161Y19650D01*
X30095Y19583D01*
X30058Y19496D01*
Y19402D01*
X30095Y19315D01*
X30161Y19248D01*
X30248Y19212D01*
X30342D01*
X30429Y19248D01*
X30496Y19315D01*
X30532Y19402D01*
Y19496D01*
X30496Y19583D01*
X30429Y19650D01*
X30404Y19660D01*
Y19710D01*
X30429Y19720D01*
X30496Y19787D01*
X30532Y19874D01*
Y19968D01*
X30496Y20055D01*
X30429Y20122D01*
X30404Y20132D01*
Y20182D01*
X30429Y20193D01*
X30496Y20260D01*
X30532Y20347D01*
Y20441D01*
X30496Y20528D01*
X30429Y20594D01*
X30404Y20605D01*
Y20655D01*
X30429Y20665D01*
X30496Y20732D01*
X30532Y20819D01*
Y20913D01*
X30496Y21000D01*
X30429Y21067D01*
X30392Y21083D01*
Y22100D01*
X30385Y22135D01*
X30365Y22165D01*
X27292Y25238D01*
Y28448D01*
X27358D01*
X27358Y28764D01*
X27401Y28782D01*
X27418D01*
Y28950D01*
D02*
G37*
G36*
X18950Y19323D02*
Y19150D01*
X19123D01*
X19091Y19227D01*
X19027Y19291D01*
X18950Y19323D01*
D02*
G37*
G36*
X18850D02*
X18773Y19291D01*
X18709Y19227D01*
X18677Y19150D01*
X18850D01*
Y19323D01*
D02*
G37*
G36*
X29752Y20945D02*
X29658D01*
X29571Y20909D01*
X29504Y20843D01*
X29468Y20756D01*
Y20661D01*
X29504Y20574D01*
X29571Y20508D01*
X29596Y20497D01*
Y20447D01*
X29571Y20437D01*
X29504Y20370D01*
X29468Y20283D01*
Y20189D01*
X29504Y20102D01*
X29571Y20035D01*
X29596Y20025D01*
Y19975D01*
X29571Y19964D01*
X29504Y19898D01*
X29468Y19811D01*
Y19717D01*
X29504Y19630D01*
X29571Y19563D01*
X29596Y19553D01*
Y19503D01*
X29571Y19492D01*
X29504Y19425D01*
X29468Y19338D01*
Y19244D01*
X29504Y19157D01*
X29571Y19091D01*
X29658Y19054D01*
X29752D01*
X29839Y19091D01*
X29905Y19157D01*
X29942Y19244D01*
Y19338D01*
X29905Y19425D01*
X29839Y19492D01*
X29814Y19503D01*
Y19553D01*
X29839Y19563D01*
X29905Y19630D01*
X29942Y19717D01*
Y19811D01*
X29905Y19898D01*
X29839Y19964D01*
X29814Y19975D01*
Y20025D01*
X29839Y20035D01*
X29905Y20102D01*
X29942Y20189D01*
Y20283D01*
X29905Y20370D01*
X29839Y20437D01*
X29814Y20447D01*
Y20497D01*
X29839Y20508D01*
X29905Y20574D01*
X29942Y20661D01*
Y20756D01*
X29905Y20843D01*
X29839Y20909D01*
X29752Y20945D01*
D02*
G37*
G36*
X34999Y20029D02*
X34411D01*
X34428Y19964D01*
X34467Y19896D01*
X34522Y19841D01*
X34530Y19837D01*
X34538Y19774D01*
X34504Y19740D01*
X34468Y19653D01*
Y19559D01*
X34504Y19472D01*
X34571Y19406D01*
X34596Y19395D01*
Y19345D01*
X34571Y19335D01*
X34504Y19268D01*
X34468Y19181D01*
Y19087D01*
X34504Y19000D01*
X34571Y18933D01*
X34658Y18897D01*
X34752D01*
X34839Y18933D01*
X34905Y19000D01*
X34942Y19087D01*
Y19181D01*
X34905Y19268D01*
X34839Y19335D01*
X34814Y19345D01*
Y19395D01*
X34839Y19406D01*
X34905Y19472D01*
X34942Y19559D01*
Y19653D01*
X34905Y19740D01*
X34871Y19774D01*
X34880Y19837D01*
X34887Y19841D01*
X34942Y19896D01*
X34981Y19964D01*
X34999Y20029D01*
D02*
G37*
G36*
X29161Y20788D02*
X29067D01*
X28980Y20752D01*
X28913Y20685D01*
X28877Y20598D01*
Y20504D01*
X28913Y20417D01*
X28980Y20350D01*
X29005Y20340D01*
Y20290D01*
X28980Y20279D01*
X28913Y20213D01*
X28877Y20126D01*
Y20032D01*
X28913Y19945D01*
X28980Y19878D01*
X29005Y19868D01*
Y19818D01*
X28980Y19807D01*
X28913Y19740D01*
X28877Y19653D01*
Y19559D01*
X28913Y19472D01*
X28980Y19406D01*
X29005Y19395D01*
Y19345D01*
X28980Y19335D01*
X28913Y19268D01*
X28877Y19181D01*
Y19087D01*
X28913Y19000D01*
X28980Y18933D01*
X29067Y18897D01*
X29161D01*
X29248Y18933D01*
X29315Y19000D01*
X29351Y19087D01*
Y19181D01*
X29315Y19268D01*
X29248Y19335D01*
X29223Y19345D01*
Y19395D01*
X29248Y19406D01*
X29315Y19472D01*
X29351Y19559D01*
Y19653D01*
X29315Y19740D01*
X29248Y19807D01*
X29223Y19818D01*
Y19868D01*
X29248Y19878D01*
X29315Y19945D01*
X29351Y20032D01*
Y20126D01*
X29315Y20213D01*
X29248Y20279D01*
X29223Y20290D01*
Y20340D01*
X29248Y20350D01*
X29315Y20417D01*
X29351Y20504D01*
Y20598D01*
X29315Y20685D01*
X29248Y20752D01*
X29161Y20788D01*
D02*
G37*
G36*
X19123Y19050D02*
X18950D01*
Y18877D01*
X19027Y18909D01*
X19091Y18973D01*
X19123Y19050D01*
D02*
G37*
G36*
X18850D02*
X18677D01*
X18709Y18973D01*
X18773Y18909D01*
X18850Y18877D01*
Y19050D01*
D02*
G37*
G36*
X39150Y19023D02*
Y18850D01*
X39323D01*
X39291Y18927D01*
X39227Y18991D01*
X39150Y19023D01*
D02*
G37*
G36*
X39050D02*
X38973Y18991D01*
X38909Y18927D01*
X38877Y18850D01*
X39050D01*
Y19023D01*
D02*
G37*
G36*
X22050D02*
Y18850D01*
X22223D01*
X22191Y18927D01*
X22127Y18991D01*
X22050Y19023D01*
D02*
G37*
G36*
X21950D02*
X21873Y18991D01*
X21809Y18927D01*
X21777Y18850D01*
X21950D01*
Y19023D01*
D02*
G37*
G36*
X39323Y18750D02*
X39150D01*
Y18577D01*
X39227Y18609D01*
X39291Y18673D01*
X39323Y18750D01*
D02*
G37*
G36*
X39050D02*
X38877D01*
X38909Y18673D01*
X38973Y18609D01*
X39050Y18577D01*
Y18750D01*
D02*
G37*
G36*
X22223D02*
X22050D01*
Y18577D01*
X22127Y18609D01*
X22191Y18673D01*
X22223Y18750D01*
D02*
G37*
G36*
X21950D02*
X21777D01*
X21809Y18673D01*
X21873Y18609D01*
X21950Y18577D01*
Y18750D01*
D02*
G37*
G36*
X12089Y18486D02*
X10911D01*
Y18392D01*
X10641D01*
X10640Y18393D01*
X10593Y18440D01*
X10533Y18465D01*
X10467D01*
X10407Y18440D01*
X10360Y18393D01*
X10335Y18333D01*
Y18267D01*
X10360Y18207D01*
X10407Y18160D01*
X10467Y18135D01*
X10533D01*
X10593Y18160D01*
X10640Y18207D01*
X10641Y18208D01*
X10911D01*
Y18114D01*
X12089D01*
Y18486D01*
D02*
G37*
G36*
X17530Y18427D02*
X17356D01*
Y18050D01*
X17530D01*
Y18427D01*
D02*
G37*
G36*
X33098Y18032D02*
X33004D01*
X32917Y17996D01*
X32850Y17929D01*
X32840Y17904D01*
X32790D01*
X32780Y17929D01*
X32713Y17996D01*
X32626Y18032D01*
X32532D01*
X32445Y17996D01*
X32378Y17929D01*
X32368Y17904D01*
X32318D01*
X32307Y17929D01*
X32240Y17996D01*
X32153Y18032D01*
X32059D01*
X31972Y17996D01*
X31906Y17929D01*
X31895Y17904D01*
X31845D01*
X31835Y17929D01*
X31768Y17996D01*
X31681Y18032D01*
X31587D01*
X31500Y17996D01*
X31433Y17929D01*
X31397Y17842D01*
Y17748D01*
X31433Y17661D01*
X31500Y17594D01*
X31587Y17558D01*
X31681D01*
X31768Y17594D01*
X31835Y17661D01*
X31845Y17686D01*
X31895D01*
X31906Y17661D01*
X31972Y17594D01*
X32059Y17558D01*
X32153D01*
X32240Y17594D01*
X32307Y17661D01*
X32318Y17686D01*
X32368D01*
X32378Y17661D01*
X32445Y17594D01*
X32532Y17558D01*
X32626D01*
X32713Y17594D01*
X32780Y17661D01*
X32790Y17686D01*
X32840D01*
X32850Y17661D01*
X32917Y17594D01*
X33004Y17558D01*
X33098D01*
X33185Y17594D01*
X33252Y17661D01*
X33288Y17748D01*
Y17842D01*
X33252Y17929D01*
X33185Y17996D01*
X33098Y18032D01*
D02*
G37*
G36*
X16550Y18023D02*
Y17850D01*
X16723D01*
X16691Y17927D01*
X16627Y17991D01*
X16550Y18023D01*
D02*
G37*
G36*
X16450D02*
X16373Y17991D01*
X16309Y17927D01*
X16277Y17850D01*
X16450D01*
Y18023D01*
D02*
G37*
G36*
X37350Y17923D02*
Y17750D01*
X37523D01*
X37491Y17827D01*
X37427Y17891D01*
X37350Y17923D01*
D02*
G37*
G36*
X37250D02*
X37173Y17891D01*
X37109Y17827D01*
X37077Y17750D01*
X37250D01*
Y17923D01*
D02*
G37*
G36*
X18300Y18370D02*
X18236Y18357D01*
X18182Y18321D01*
X18146Y18267D01*
X18133Y18203D01*
Y17797D01*
X18146Y17733D01*
X18182Y17679D01*
X18208Y17662D01*
Y16358D01*
X18110D01*
Y16042D01*
X18505D01*
Y16358D01*
X18392D01*
Y17662D01*
X18418Y17679D01*
X18454Y17733D01*
X18467Y17797D01*
Y17908D01*
X19007D01*
X19027Y17888D01*
X19019Y17832D01*
X18999Y17824D01*
X18982D01*
Y17656D01*
X19200D01*
X19418D01*
Y17824D01*
X19401D01*
X19381Y17832D01*
X19373Y17888D01*
X19393Y17908D01*
X19607D01*
X19627Y17888D01*
X19619Y17832D01*
X19599Y17824D01*
X19582D01*
Y17656D01*
X19800D01*
X20018D01*
Y17824D01*
X20001D01*
X19958Y17842D01*
X19958Y17874D01*
Y18158D01*
X19642D01*
Y18092D01*
X19358D01*
Y18158D01*
X19042D01*
Y18092D01*
X18467D01*
Y18203D01*
X18454Y18267D01*
X18418Y18321D01*
X18364Y18357D01*
X18300Y18370D01*
D02*
G37*
G36*
X12089Y17986D02*
X10911D01*
Y17614D01*
X12089D01*
Y17986D01*
D02*
G37*
G36*
X16723Y17750D02*
X16550D01*
Y17577D01*
X16627Y17609D01*
X16691Y17673D01*
X16723Y17750D01*
D02*
G37*
G36*
X16450D02*
X16277D01*
X16309Y17673D01*
X16373Y17609D01*
X16450Y17577D01*
Y17750D01*
D02*
G37*
G36*
X17803Y17950D02*
X17630D01*
Y17573D01*
X17803D01*
Y17950D01*
D02*
G37*
G36*
X17530D02*
X17356D01*
Y17573D01*
X17530D01*
Y17950D01*
D02*
G37*
G36*
X14650Y17723D02*
Y17550D01*
X14823D01*
X14791Y17627D01*
X14727Y17691D01*
X14650Y17723D01*
D02*
G37*
G36*
X14550D02*
X14473Y17691D01*
X14409Y17627D01*
X14377Y17550D01*
X14550D01*
Y17723D01*
D02*
G37*
G36*
X37523Y17650D02*
X37350D01*
Y17477D01*
X37427Y17509D01*
X37491Y17573D01*
X37523Y17650D01*
D02*
G37*
G36*
X37250D02*
X37077D01*
X37109Y17573D01*
X37173Y17509D01*
X37250Y17477D01*
Y17650D01*
D02*
G37*
G36*
X20018Y17556D02*
X19850D01*
Y17388D01*
X20018D01*
Y17556D01*
D02*
G37*
G36*
X19750D02*
X19582D01*
Y17388D01*
X19750D01*
Y17556D01*
D02*
G37*
G36*
X19418D02*
X19250D01*
Y17388D01*
X19418D01*
Y17556D01*
D02*
G37*
G36*
X19150D02*
X18982D01*
Y17388D01*
X19150D01*
Y17556D01*
D02*
G37*
G36*
X13752Y17546D02*
X13152D01*
Y17350D01*
X13752D01*
Y17546D01*
D02*
G37*
G36*
X28650Y17523D02*
Y17350D01*
X28823D01*
X28791Y17427D01*
X28727Y17491D01*
X28650Y17523D01*
D02*
G37*
G36*
X28550D02*
X28473Y17491D01*
X28409Y17427D01*
X28377Y17350D01*
X28550D01*
Y17523D01*
D02*
G37*
G36*
X13052Y17546D02*
X12453D01*
Y17350D01*
X13052D01*
Y17546D01*
D02*
G37*
G36*
X33256Y17442D02*
X33162D01*
X33075Y17405D01*
X33008Y17339D01*
X32997Y17314D01*
X32947D01*
X32937Y17339D01*
X32870Y17405D01*
X32783Y17442D01*
X32689D01*
X32602Y17405D01*
X32535Y17339D01*
X32525Y17314D01*
X32475D01*
X32465Y17339D01*
X32398Y17405D01*
X32311Y17442D01*
X32217D01*
X32130Y17405D01*
X32063Y17339D01*
X32053Y17314D01*
X32003D01*
X31992Y17339D01*
X31926Y17405D01*
X31839Y17442D01*
X31744D01*
X31657Y17405D01*
X31591Y17339D01*
X31555Y17252D01*
Y17158D01*
X31591Y17071D01*
X31657Y17004D01*
X31744Y16968D01*
X31839D01*
X31926Y17004D01*
X31992Y17071D01*
X32003Y17096D01*
X32053D01*
X32063Y17071D01*
X32130Y17004D01*
X32217Y16968D01*
X32311D01*
X32398Y17004D01*
X32465Y17071D01*
X32475Y17096D01*
X32525D01*
X32535Y17071D01*
X32602Y17004D01*
X32689Y16968D01*
X32783D01*
X32870Y17004D01*
X32937Y17071D01*
X32947Y17096D01*
X32997D01*
X33008Y17071D01*
X33075Y17004D01*
X33162Y16968D01*
X33256D01*
X33343Y17004D01*
X33409Y17071D01*
X33446Y17158D01*
Y17252D01*
X33409Y17339D01*
X33343Y17405D01*
X33256Y17442D01*
D02*
G37*
G36*
X14823Y17450D02*
X14650D01*
Y17277D01*
X14727Y17309D01*
X14791Y17373D01*
X14823Y17450D01*
D02*
G37*
G36*
X14550D02*
X14377D01*
X14409Y17373D01*
X14473Y17309D01*
X14550Y17277D01*
Y17450D01*
D02*
G37*
G36*
X12089Y17486D02*
X10911D01*
Y17114D01*
X12089D01*
Y17486D01*
D02*
G37*
G36*
X28823Y17250D02*
X28650D01*
Y17077D01*
X28727Y17109D01*
X28791Y17173D01*
X28823Y17250D01*
D02*
G37*
G36*
X28550D02*
X28377D01*
X28409Y17173D01*
X28473Y17109D01*
X28550Y17077D01*
Y17250D01*
D02*
G37*
G36*
X21250Y17123D02*
Y16950D01*
X21423D01*
X21391Y17027D01*
X21327Y17091D01*
X21250Y17123D01*
D02*
G37*
G36*
X21150D02*
X21073Y17091D01*
X21009Y17027D01*
X20977Y16950D01*
X21150D01*
Y17123D01*
D02*
G37*
G36*
X22769Y17138D02*
X22621D01*
Y16950D01*
X22769D01*
Y17138D01*
D02*
G37*
G36*
X12089Y16986D02*
X10911D01*
Y16892D01*
X10641D01*
X10640Y16893D01*
X10593Y16940D01*
X10533Y16965D01*
X10467D01*
X10407Y16940D01*
X10360Y16893D01*
X10335Y16833D01*
Y16767D01*
X10360Y16707D01*
X10407Y16660D01*
X10467Y16635D01*
X10533D01*
X10593Y16660D01*
X10640Y16707D01*
X10641Y16708D01*
X10911D01*
Y16614D01*
X12089D01*
Y16986D01*
D02*
G37*
G36*
X13752Y17250D02*
X13102D01*
X12453D01*
Y17096D01*
X12453Y17054D01*
X12453Y17004D01*
Y16850D01*
X13102D01*
X13752D01*
Y17004D01*
X13752Y17046D01*
X13752Y17096D01*
Y17250D01*
D02*
G37*
G36*
X23018Y17138D02*
X22869D01*
Y16900D01*
Y16662D01*
X23018D01*
Y16691D01*
X23055Y16722D01*
X23068Y16722D01*
X23332D01*
Y16808D01*
X23568D01*
Y16742D01*
X23845D01*
Y17058D01*
X23568D01*
Y16992D01*
X23332D01*
Y17078D01*
X23068D01*
X23055Y17078D01*
X23018Y17109D01*
Y17138D01*
D02*
G37*
G36*
X21423Y16850D02*
X21250D01*
Y16677D01*
X21327Y16709D01*
X21391Y16773D01*
X21423Y16850D01*
D02*
G37*
G36*
X21150D02*
X20977D01*
X21009Y16773D01*
X21073Y16709D01*
X21150Y16677D01*
Y16850D01*
D02*
G37*
G36*
X22769D02*
X22621D01*
Y16662D01*
X22769D01*
Y16850D01*
D02*
G37*
G36*
X13752Y16750D02*
X13152D01*
Y16554D01*
X13752D01*
Y16750D01*
D02*
G37*
G36*
X13052D02*
X12453D01*
Y16554D01*
X13052D01*
Y16750D01*
D02*
G37*
G36*
X12089Y16486D02*
X10911D01*
Y16392D01*
X10641D01*
X10640Y16393D01*
X10593Y16440D01*
X10533Y16465D01*
X10467D01*
X10407Y16440D01*
X10360Y16393D01*
X10335Y16333D01*
Y16267D01*
X10360Y16207D01*
X10407Y16160D01*
X10467Y16135D01*
X10533D01*
X10593Y16160D01*
X10640Y16207D01*
X10641Y16208D01*
X10911D01*
Y16114D01*
X12089D01*
Y16486D01*
D02*
G37*
G36*
X13692D02*
X12513D01*
Y16114D01*
X13692D01*
Y16208D01*
X14259D01*
X14260Y16207D01*
X14307Y16160D01*
X14367Y16135D01*
X14433D01*
X14493Y16160D01*
X14540Y16207D01*
X14565Y16267D01*
Y16333D01*
X14540Y16393D01*
X14493Y16440D01*
X14433Y16465D01*
X14367D01*
X14307Y16440D01*
X14260Y16393D01*
X14259Y16392D01*
X13692D01*
Y16486D01*
D02*
G37*
G36*
X16650Y15923D02*
Y15750D01*
X16823D01*
X16791Y15827D01*
X16727Y15891D01*
X16650Y15923D01*
D02*
G37*
G36*
X16550D02*
X16473Y15891D01*
X16409Y15827D01*
X16377Y15750D01*
X16550D01*
Y15923D01*
D02*
G37*
G36*
X16823Y15650D02*
X16650D01*
Y15477D01*
X16727Y15509D01*
X16791Y15573D01*
X16823Y15650D01*
D02*
G37*
G36*
X16550D02*
X16377D01*
X16409Y15573D01*
X16473Y15509D01*
X16550Y15477D01*
Y15650D01*
D02*
G37*
G36*
X31150Y15623D02*
Y15450D01*
X31323D01*
X31291Y15527D01*
X31227Y15591D01*
X31150Y15623D01*
D02*
G37*
G36*
X31050D02*
X30973Y15591D01*
X30909Y15527D01*
X30877Y15450D01*
X31050D01*
Y15623D01*
D02*
G37*
G36*
X14750D02*
Y15450D01*
X14923D01*
X14891Y15527D01*
X14827Y15591D01*
X14750Y15623D01*
D02*
G37*
G36*
X14650D02*
X14573Y15591D01*
X14509Y15527D01*
X14477Y15450D01*
X14650D01*
Y15623D01*
D02*
G37*
G36*
X34350Y15523D02*
Y15350D01*
X34523D01*
X34491Y15427D01*
X34427Y15491D01*
X34350Y15523D01*
D02*
G37*
G36*
X34250D02*
X34173Y15491D01*
X34109Y15427D01*
X34077Y15350D01*
X34250D01*
Y15523D01*
D02*
G37*
G36*
X21250D02*
Y15350D01*
X21423D01*
X21391Y15427D01*
X21327Y15491D01*
X21250Y15523D01*
D02*
G37*
G36*
X21150D02*
X21073Y15491D01*
X21009Y15427D01*
X20977Y15350D01*
X21150D01*
Y15523D01*
D02*
G37*
G36*
X24238Y17058D02*
X23962D01*
Y16742D01*
X24008D01*
Y16105D01*
X23940Y16087D01*
X23845Y16032D01*
X23768Y15955D01*
X23713Y15860D01*
X23685Y15755D01*
Y15645D01*
X23713Y15540D01*
X23768Y15445D01*
X23845Y15368D01*
X23940Y15313D01*
X24045Y15285D01*
X24155D01*
X24260Y15313D01*
X24355Y15368D01*
X24432Y15445D01*
X24487Y15540D01*
X24515Y15645D01*
Y15755D01*
X24487Y15860D01*
X24432Y15955D01*
X24355Y16032D01*
X24260Y16087D01*
X24192Y16105D01*
Y16742D01*
X24238D01*
Y17058D01*
D02*
G37*
G36*
X19490Y16358D02*
X19095D01*
Y16042D01*
X19192D01*
Y15700D01*
Y15458D01*
X19095D01*
Y15142D01*
X19490D01*
Y15458D01*
X19376D01*
Y15608D01*
X22695D01*
X22713Y15540D01*
X22768Y15445D01*
X22845Y15368D01*
X22940Y15313D01*
X23045Y15285D01*
X23155D01*
X23260Y15313D01*
X23355Y15368D01*
X23432Y15445D01*
X23487Y15540D01*
X23515Y15645D01*
Y15755D01*
X23487Y15860D01*
X23432Y15955D01*
X23355Y16032D01*
X23260Y16087D01*
X23155Y16115D01*
X23045D01*
X22940Y16087D01*
X22845Y16032D01*
X22768Y15955D01*
X22713Y15860D01*
X22695Y15792D01*
X19376D01*
Y16042D01*
X19490D01*
Y16358D01*
D02*
G37*
G36*
X39250Y15423D02*
Y15250D01*
X39423D01*
X39391Y15327D01*
X39327Y15391D01*
X39250Y15423D01*
D02*
G37*
G36*
X39150D02*
X39073Y15391D01*
X39009Y15327D01*
X38977Y15250D01*
X39150D01*
Y15423D01*
D02*
G37*
G36*
X31323Y15350D02*
X31150D01*
Y15177D01*
X31227Y15209D01*
X31291Y15273D01*
X31323Y15350D01*
D02*
G37*
G36*
X31050D02*
X30877D01*
X30909Y15273D01*
X30973Y15209D01*
X31050Y15177D01*
Y15350D01*
D02*
G37*
G36*
X14923D02*
X14750D01*
Y15177D01*
X14827Y15209D01*
X14891Y15273D01*
X14923Y15350D01*
D02*
G37*
G36*
X14650D02*
X14477D01*
X14509Y15273D01*
X14573Y15209D01*
X14650Y15177D01*
Y15350D01*
D02*
G37*
G36*
X18505Y15458D02*
X18110D01*
Y15392D01*
X15700D01*
X15665Y15385D01*
X15635Y15365D01*
X14435Y14165D01*
X14415Y14135D01*
X14408Y14100D01*
Y11644D01*
X13742D01*
Y10756D01*
X15259D01*
Y11644D01*
X14592D01*
Y14062D01*
X15738Y15208D01*
X18110D01*
Y15142D01*
X18505D01*
Y15458D01*
D02*
G37*
G36*
X21423Y15250D02*
X21250D01*
Y15077D01*
X21327Y15109D01*
X21391Y15173D01*
X21423Y15250D01*
D02*
G37*
G36*
X21150D02*
X20977D01*
X21009Y15173D01*
X21073Y15109D01*
X21150Y15077D01*
Y15250D01*
D02*
G37*
G36*
X34523D02*
X34350D01*
Y15077D01*
X34427Y15109D01*
X34491Y15173D01*
X34523Y15250D01*
D02*
G37*
G36*
X34250D02*
X34077D01*
X34109Y15173D01*
X34173Y15109D01*
X34250Y15077D01*
Y15250D01*
D02*
G37*
G36*
X39423Y15150D02*
X39250D01*
Y14977D01*
X39327Y15009D01*
X39391Y15073D01*
X39423Y15150D01*
D02*
G37*
G36*
X39150D02*
X38977D01*
X39009Y15073D01*
X39073Y15009D01*
X39150Y14977D01*
Y15150D01*
D02*
G37*
G36*
X27250Y15345D02*
X27120D01*
X26993Y15320D01*
X26872Y15270D01*
X26764Y15198D01*
X26672Y15106D01*
X26600Y14998D01*
X26550Y14878D01*
X26525Y14750D01*
Y14620D01*
X26550Y14492D01*
X26600Y14372D01*
X26672Y14264D01*
X26764Y14172D01*
X26872Y14100D01*
X26993Y14050D01*
X27120Y14025D01*
X27250D01*
X27378Y14050D01*
X27498Y14100D01*
X27606Y14172D01*
X27698Y14264D01*
X27770Y14372D01*
X27820Y14492D01*
X27845Y14620D01*
Y14750D01*
X27820Y14878D01*
X27770Y14998D01*
X27698Y15106D01*
X27606Y15198D01*
X27498Y15270D01*
X27378Y15320D01*
X27250Y15345D01*
D02*
G37*
G36*
X16650Y13923D02*
Y13750D01*
X16823D01*
X16791Y13827D01*
X16727Y13891D01*
X16650Y13923D01*
D02*
G37*
G36*
X16550D02*
X16473Y13891D01*
X16409Y13827D01*
X16377Y13750D01*
X16550D01*
Y13923D01*
D02*
G37*
G36*
X13050Y13723D02*
Y13550D01*
X13223D01*
X13191Y13627D01*
X13127Y13691D01*
X13050Y13723D01*
D02*
G37*
G36*
X12950D02*
X12873Y13691D01*
X12809Y13627D01*
X12777Y13550D01*
X12950D01*
Y13723D01*
D02*
G37*
G36*
X16823Y13650D02*
X16650D01*
Y13477D01*
X16727Y13509D01*
X16791Y13573D01*
X16823Y13650D01*
D02*
G37*
G36*
X16550D02*
X16377D01*
X16409Y13573D01*
X16473Y13509D01*
X16550Y13477D01*
Y13650D01*
D02*
G37*
G36*
X37850Y13523D02*
Y13350D01*
X38023D01*
X37991Y13427D01*
X37927Y13491D01*
X37850Y13523D01*
D02*
G37*
G36*
X37750D02*
X37673Y13491D01*
X37609Y13427D01*
X37577Y13350D01*
X37750D01*
Y13523D01*
D02*
G37*
G36*
X23645Y28745D02*
X23555D01*
X23467Y28722D01*
X23388Y28676D01*
X23324Y28612D01*
X23278Y28533D01*
X23255Y28445D01*
Y28355D01*
X23278Y28267D01*
X23324Y28188D01*
X23388Y28124D01*
X23467Y28078D01*
X23508Y28067D01*
Y27800D01*
X23515Y27765D01*
X23535Y27735D01*
X25808Y25462D01*
Y13838D01*
X25262Y13292D01*
X23641D01*
X23640Y13293D01*
X23593Y13340D01*
X23533Y13365D01*
X23467D01*
X23407Y13340D01*
X23360Y13293D01*
X23335Y13233D01*
Y13167D01*
X23360Y13107D01*
X23407Y13060D01*
X23408Y13059D01*
Y11644D01*
X22741D01*
Y10756D01*
X24258D01*
Y11644D01*
X23592D01*
Y13059D01*
X23593Y13060D01*
X23640Y13107D01*
X23641Y13108D01*
X25300D01*
X25335Y13115D01*
X25365Y13135D01*
X25965Y13735D01*
X25985Y13765D01*
X25992Y13800D01*
Y25500D01*
X25985Y25535D01*
X25965Y25565D01*
X23692Y27838D01*
Y28067D01*
X23733Y28078D01*
X23812Y28124D01*
X23876Y28188D01*
X23922Y28267D01*
X23945Y28355D01*
Y28445D01*
X23922Y28533D01*
X23876Y28612D01*
X23812Y28676D01*
X23733Y28722D01*
X23645Y28745D01*
D02*
G37*
G36*
X22645D02*
X22555D01*
X22467Y28722D01*
X22388Y28676D01*
X22324Y28612D01*
X22278Y28533D01*
X22255Y28445D01*
Y28355D01*
X22278Y28267D01*
X22324Y28188D01*
X22388Y28124D01*
X22467Y28078D01*
X22508Y28067D01*
Y27800D01*
X22515Y27765D01*
X22535Y27735D01*
X25308Y24962D01*
Y14038D01*
X24962Y13692D01*
X22100D01*
X22065Y13685D01*
X22035Y13665D01*
X21662Y13292D01*
X20641D01*
X20640Y13293D01*
X20593Y13340D01*
X20533Y13365D01*
X20467D01*
X20407Y13340D01*
X20360Y13293D01*
X20335Y13233D01*
Y13167D01*
X20360Y13107D01*
X20407Y13060D01*
X20408Y13059D01*
Y11644D01*
X19741D01*
Y10756D01*
X21258D01*
Y11644D01*
X20592D01*
Y13059D01*
X20593Y13060D01*
X20640Y13107D01*
X20641Y13108D01*
X21700D01*
X21735Y13115D01*
X21765Y13135D01*
X22138Y13508D01*
X25000D01*
X25035Y13515D01*
X25065Y13535D01*
X25465Y13935D01*
X25485Y13965D01*
X25492Y14000D01*
Y25000D01*
X25485Y25035D01*
X25465Y25065D01*
X22692Y27838D01*
Y28067D01*
X22733Y28078D01*
X22812Y28124D01*
X22876Y28188D01*
X22922Y28267D01*
X22945Y28355D01*
Y28445D01*
X22922Y28533D01*
X22876Y28612D01*
X22812Y28676D01*
X22733Y28722D01*
X22645Y28745D01*
D02*
G37*
G36*
X13223Y13450D02*
X13050D01*
Y13277D01*
X13127Y13309D01*
X13191Y13373D01*
X13223Y13450D01*
D02*
G37*
G36*
X12950D02*
X12777D01*
X12809Y13373D01*
X12873Y13309D01*
X12950Y13277D01*
Y13450D01*
D02*
G37*
G36*
X38023Y13250D02*
X37850D01*
Y13077D01*
X37927Y13109D01*
X37991Y13173D01*
X38023Y13250D01*
D02*
G37*
G36*
X37750D02*
X37577D01*
X37609Y13173D01*
X37673Y13109D01*
X37750Y13077D01*
Y13250D01*
D02*
G37*
G36*
X35250Y13223D02*
Y13050D01*
X35423D01*
X35391Y13127D01*
X35327Y13191D01*
X35250Y13223D01*
D02*
G37*
G36*
X35150D02*
X35073Y13191D01*
X35009Y13127D01*
X34977Y13050D01*
X35150D01*
Y13223D01*
D02*
G37*
G36*
X18850Y13123D02*
Y12950D01*
X19023D01*
X18991Y13027D01*
X18927Y13091D01*
X18850Y13123D01*
D02*
G37*
G36*
X18750D02*
X18673Y13091D01*
X18609Y13027D01*
X18577Y12950D01*
X18750D01*
Y13123D01*
D02*
G37*
G36*
X35423Y12950D02*
X35250D01*
Y12777D01*
X35327Y12809D01*
X35391Y12873D01*
X35423Y12950D01*
D02*
G37*
G36*
X35150D02*
X34977D01*
X35009Y12873D01*
X35073Y12809D01*
X35150Y12777D01*
Y12950D01*
D02*
G37*
G36*
X19023Y12850D02*
X18850D01*
Y12677D01*
X18927Y12709D01*
X18991Y12773D01*
X19023Y12850D01*
D02*
G37*
G36*
X18750D02*
X18577D01*
X18609Y12773D01*
X18673Y12709D01*
X18750Y12677D01*
Y12850D01*
D02*
G37*
G36*
X22050Y12523D02*
Y12350D01*
X22223D01*
X22191Y12427D01*
X22127Y12491D01*
X22050Y12523D01*
D02*
G37*
G36*
X21950D02*
X21873Y12491D01*
X21809Y12427D01*
X21777Y12350D01*
X21950D01*
Y12523D01*
D02*
G37*
G36*
X12350Y12323D02*
Y12150D01*
X12523D01*
X12491Y12227D01*
X12427Y12291D01*
X12350Y12323D01*
D02*
G37*
G36*
X12250D02*
X12173Y12291D01*
X12109Y12227D01*
X12077Y12150D01*
X12250D01*
Y12323D01*
D02*
G37*
G36*
X22223Y12250D02*
X22050D01*
Y12077D01*
X22127Y12109D01*
X22191Y12173D01*
X22223Y12250D01*
D02*
G37*
G36*
X21950D02*
X21777D01*
X21809Y12173D01*
X21873Y12109D01*
X21950Y12077D01*
Y12250D01*
D02*
G37*
G36*
X12523Y12050D02*
X12350D01*
Y11877D01*
X12427Y11909D01*
X12491Y11973D01*
X12523Y12050D01*
D02*
G37*
G36*
X12250D02*
X12077D01*
X12109Y11973D01*
X12173Y11909D01*
X12250Y11877D01*
Y12050D01*
D02*
G37*
G36*
X31050Y11923D02*
Y11750D01*
X31223D01*
X31191Y11827D01*
X31127Y11891D01*
X31050Y11923D01*
D02*
G37*
G36*
X30950D02*
X30873Y11891D01*
X30809Y11827D01*
X30777Y11750D01*
X30950D01*
Y11923D01*
D02*
G37*
G36*
X31223Y11650D02*
X31050D01*
Y11477D01*
X31127Y11509D01*
X31191Y11573D01*
X31223Y11650D01*
D02*
G37*
G36*
X30950D02*
X30777D01*
X30809Y11573D01*
X30873Y11509D01*
X30950Y11477D01*
Y11650D01*
D02*
G37*
G36*
X24950Y11523D02*
Y11350D01*
X25123D01*
X25091Y11427D01*
X25027Y11491D01*
X24950Y11523D01*
D02*
G37*
G36*
X24850D02*
X24773Y11491D01*
X24709Y11427D01*
X24677Y11350D01*
X24850D01*
Y11523D01*
D02*
G37*
G36*
X30319Y11704D02*
X29550D01*
Y11250D01*
X30319D01*
Y11704D01*
D02*
G37*
G36*
X29450D02*
X28681D01*
Y11250D01*
X29450D01*
Y11704D01*
D02*
G37*
G36*
X25123Y11250D02*
X24950D01*
Y11077D01*
X25027Y11109D01*
X25091Y11173D01*
X25123Y11250D01*
D02*
G37*
G36*
X24850D02*
X24677D01*
X24709Y11173D01*
X24773Y11109D01*
X24850Y11077D01*
Y11250D01*
D02*
G37*
G36*
X16150Y11223D02*
Y11050D01*
X16323D01*
X16291Y11127D01*
X16227Y11191D01*
X16150Y11223D01*
D02*
G37*
G36*
X16050D02*
X15973Y11191D01*
X15909Y11127D01*
X15877Y11050D01*
X16050D01*
Y11223D01*
D02*
G37*
G36*
X16323Y10950D02*
X16150D01*
Y10777D01*
X16227Y10809D01*
X16291Y10873D01*
X16323Y10950D01*
D02*
G37*
G36*
X16050D02*
X15877D01*
X15909Y10873D01*
X15973Y10809D01*
X16050Y10777D01*
Y10950D01*
D02*
G37*
G36*
X24645Y28745D02*
X24555D01*
X24467Y28722D01*
X24388Y28676D01*
X24324Y28612D01*
X24278Y28533D01*
X24255Y28445D01*
Y28355D01*
X24278Y28267D01*
X24324Y28188D01*
X24388Y28124D01*
X24467Y28078D01*
X24508Y28067D01*
Y27400D01*
X24515Y27365D01*
X24535Y27335D01*
X26208Y25662D01*
Y14000D01*
X26215Y13965D01*
X26235Y13935D01*
X26408Y13762D01*
Y13341D01*
X26407Y13340D01*
X26360Y13293D01*
X26335Y13233D01*
Y13167D01*
X26360Y13107D01*
X26407Y13060D01*
X26408Y13059D01*
Y11644D01*
X25742D01*
Y10756D01*
X27259D01*
Y11644D01*
X26592D01*
Y13059D01*
X26593Y13060D01*
X26640Y13107D01*
X26641Y13108D01*
X32600D01*
X32635Y13115D01*
X32665Y13135D01*
X33431Y13901D01*
X33451Y13931D01*
X33458Y13966D01*
Y16396D01*
X33500Y16413D01*
X33567Y16480D01*
X33603Y16567D01*
Y16661D01*
X33567Y16748D01*
X33500Y16815D01*
X33413Y16851D01*
X33319D01*
X33232Y16815D01*
X33165Y16748D01*
X33155Y16723D01*
X33105D01*
X33094Y16748D01*
X33028Y16815D01*
X32941Y16851D01*
X32847D01*
X32760Y16815D01*
X32693Y16748D01*
X32682Y16723D01*
X32633D01*
X32622Y16748D01*
X32555Y16815D01*
X32468Y16851D01*
X32374D01*
X32287Y16815D01*
X32221Y16748D01*
X32210Y16723D01*
X32160D01*
X32150Y16748D01*
X32083Y16815D01*
X31996Y16851D01*
X31902D01*
X31815Y16815D01*
X31748Y16748D01*
X31712Y16661D01*
Y16567D01*
X31748Y16480D01*
X31815Y16413D01*
X31902Y16377D01*
X31996D01*
X32083Y16413D01*
X32150Y16480D01*
X32160Y16505D01*
X32210D01*
X32221Y16480D01*
X32287Y16413D01*
X32374Y16377D01*
X32468D01*
X32555Y16413D01*
X32622Y16480D01*
X32633Y16505D01*
X32682D01*
X32693Y16480D01*
X32760Y16413D01*
X32847Y16377D01*
X32941D01*
X33028Y16413D01*
X33094Y16480D01*
X33105Y16505D01*
X33155D01*
X33165Y16480D01*
X33232Y16413D01*
X33274Y16396D01*
Y14004D01*
X32562Y13292D01*
X26641D01*
X26640Y13293D01*
X26593Y13340D01*
X26592Y13341D01*
Y13800D01*
X26585Y13835D01*
X26565Y13865D01*
X26392Y14038D01*
Y25700D01*
X26385Y25735D01*
X26365Y25765D01*
X24692Y27438D01*
Y28067D01*
X24733Y28078D01*
X24812Y28124D01*
X24876Y28188D01*
X24922Y28267D01*
X24945Y28355D01*
Y28445D01*
X24922Y28533D01*
X24876Y28612D01*
X24812Y28676D01*
X24733Y28722D01*
X24645Y28745D01*
D02*
G37*
G36*
X20333Y19465D02*
X20267D01*
X20207Y19440D01*
X20160Y19393D01*
X20135Y19333D01*
Y19267D01*
X20160Y19207D01*
X20207Y19160D01*
X20208Y19159D01*
Y18600D01*
X20215Y18565D01*
X20235Y18535D01*
X20835Y17935D01*
X20865Y17915D01*
X20900Y17908D01*
X24362D01*
X24808Y17462D01*
Y14738D01*
X24162Y14092D01*
X18100D01*
X18065Y14085D01*
X18035Y14065D01*
X17435Y13465D01*
X17415Y13435D01*
X17408Y13400D01*
Y11644D01*
X16741D01*
Y10756D01*
X18259D01*
Y11644D01*
X17592D01*
Y13362D01*
X18138Y13908D01*
X24200D01*
X24235Y13915D01*
X24265Y13935D01*
X24965Y14635D01*
X24985Y14665D01*
X24992Y14700D01*
Y17500D01*
X24985Y17535D01*
X24965Y17565D01*
X24465Y18065D01*
X24435Y18085D01*
X24400Y18092D01*
X20938D01*
X20392Y18638D01*
Y19159D01*
X20393Y19160D01*
X20440Y19207D01*
X20465Y19267D01*
Y19333D01*
X20440Y19393D01*
X20393Y19440D01*
X20333Y19465D01*
D02*
G37*
G36*
X30319Y11150D02*
X29550D01*
Y10696D01*
X30319D01*
Y11150D01*
D02*
G37*
G36*
X29450D02*
X28681D01*
Y10696D01*
X29450D01*
Y11150D01*
D02*
G37*
G36*
X39081Y11827D02*
X38919D01*
X38759Y11796D01*
X38608Y11733D01*
X38473Y11643D01*
X38357Y11527D01*
X38267Y11392D01*
X38204Y11241D01*
X38173Y11081D01*
Y10919D01*
X38204Y10759D01*
X38267Y10608D01*
X38357Y10473D01*
X38473Y10357D01*
X38608Y10267D01*
X38759Y10204D01*
X38919Y10173D01*
X39081D01*
X39241Y10204D01*
X39392Y10267D01*
X39527Y10357D01*
X39643Y10473D01*
X39733Y10608D01*
X39796Y10759D01*
X39827Y10919D01*
Y11081D01*
X39796Y11241D01*
X39733Y11392D01*
X39643Y11527D01*
X39527Y11643D01*
X39392Y11733D01*
X39241Y11796D01*
X39081Y11827D01*
D02*
G37*
G36*
X11081D02*
X10919D01*
X10759Y11796D01*
X10608Y11733D01*
X10473Y11643D01*
X10357Y11527D01*
X10267Y11392D01*
X10204Y11241D01*
X10173Y11081D01*
Y10919D01*
X10204Y10759D01*
X10267Y10608D01*
X10357Y10473D01*
X10473Y10357D01*
X10608Y10267D01*
X10759Y10204D01*
X10919Y10173D01*
X11081D01*
X11241Y10204D01*
X11392Y10267D01*
X11527Y10357D01*
X11643Y10473D01*
X11733Y10608D01*
X11796Y10759D01*
X11827Y10919D01*
Y11081D01*
X11796Y11241D01*
X11733Y11392D01*
X11643Y11527D01*
X11527Y11643D01*
X11392Y11733D01*
X11241Y11796D01*
X11081Y11827D01*
D02*
G37*
%LPD*%
D10*
X35600Y20887D02*
G03*
X35600Y20893I-100J7D01*
G01*
Y20839D02*
G03*
X35600Y20846I-100J-0D01*
G01*
X35600Y20680D02*
G03*
X35886Y20394I286J0D01*
G01*
X35600Y20887D02*
G03*
X35600Y20846I286J-20D01*
G01*
X35000Y20531D02*
G03*
X35295Y20236I295J0D01*
G01*
X15600Y18300D02*
X17400Y20100D01*
X13102Y18300D02*
X15600D01*
X17400Y20100D02*
X20300D01*
X21100Y20900D01*
X21608D01*
X22592D02*
Y21908D01*
X22600Y21900D01*
X22584Y21916D02*
X22592Y21908D01*
X14500Y14100D02*
X15700Y15300D01*
X18319D01*
X18300Y16200D02*
Y18000D01*
X19284Y15300D02*
Y15700D01*
Y16200D01*
X29400Y26400D02*
Y28606D01*
X30100Y25700D02*
X32100D01*
X29400Y26400D02*
X30100Y25700D01*
X32100D02*
X35600Y22200D01*
Y20893D02*
Y22200D01*
X28700Y25400D02*
Y28603D01*
X29800Y24300D02*
X32800D01*
X28700Y25400D02*
X29800Y24300D01*
X35600Y20893D02*
Y20893D01*
Y20680D02*
Y20839D01*
X28000Y25000D02*
Y28606D01*
Y25000D02*
X30795Y22205D01*
X27200Y25200D02*
Y28606D01*
Y25200D02*
X30300Y22100D01*
X35000Y20531D02*
Y22100D01*
X32800Y24300D02*
X35000Y22100D01*
X30795Y22205D02*
X31949D01*
X30300Y20871D02*
Y22100D01*
X30295Y20866D02*
X30300Y20871D01*
X23193Y16900D02*
X23706D01*
X24100Y15700D02*
Y16900D01*
X22600Y21900D02*
X24000D01*
X24331D02*
X24342Y21889D01*
Y19858D02*
Y21889D01*
Y19858D02*
X24400Y19800D01*
X22600Y27800D02*
Y28400D01*
Y27800D02*
X25400Y25000D01*
Y14000D02*
Y25000D01*
X25000Y13600D02*
X25400Y14000D01*
X22100Y13600D02*
X25000D01*
X21700Y13200D02*
X22100Y13600D01*
X20500Y13200D02*
X21700D01*
X17500Y13400D02*
X18100Y14000D01*
X24200D02*
X24900Y14700D01*
X18100Y14000D02*
X24200D01*
X24900Y14700D02*
Y17500D01*
X24400Y18000D02*
X24900Y17500D01*
X25900Y13800D02*
Y25500D01*
X23500Y13200D02*
X25300D01*
X25900Y13800D01*
X24600Y27400D02*
X26300Y25700D01*
Y14000D02*
Y25700D01*
X23600Y27800D02*
X25900Y25500D01*
X23600Y27800D02*
Y28400D01*
X24600Y27400D02*
Y28400D01*
X26300Y14000D02*
X26500Y13800D01*
Y13200D02*
Y13800D01*
X21584Y21900D02*
X21600Y21884D01*
X20700Y21900D02*
X21584D01*
X20300Y21500D02*
X20700Y21900D01*
X20300Y20800D02*
Y21500D01*
X21600Y24016D02*
Y28400D01*
Y24016D02*
X21616Y24000D01*
X20700Y23900D02*
X20900Y23700D01*
X19000Y23900D02*
X20700D01*
X20900Y23200D02*
Y23700D01*
X21100Y23000D02*
X21600D01*
X20900Y23200D02*
X21100Y23000D01*
X22584D02*
Y23984D01*
X22600Y24000D01*
X16900Y23900D02*
X18500D01*
X26500Y11200D02*
Y13200D01*
X10500Y16300D02*
X11500D01*
X23500Y11200D02*
Y13200D01*
X19284Y15700D02*
X23100D01*
X21600Y21884D02*
X21616Y21900D01*
X26500Y13200D02*
X32600D01*
X20300Y18600D02*
X20900Y18000D01*
X22584Y21916D02*
Y23000D01*
X10500Y16800D02*
X11500D01*
X33366Y13966D02*
Y16614D01*
X20500Y11200D02*
Y13200D01*
X20300Y18600D02*
Y19300D01*
X18500Y23900D02*
X19000D01*
X10500Y18300D02*
X11500D01*
X17940Y19540D02*
X18200Y19800D01*
X18300Y18000D02*
X19200D01*
X14500Y11200D02*
Y14100D01*
X17940Y18769D02*
Y19540D01*
X17500Y11200D02*
Y13400D01*
X13102Y16300D02*
X14400D01*
X18200Y19800D02*
X23400D01*
X32600Y13200D02*
X33366Y13966D01*
X20900Y18000D02*
X24400D01*
X19200D02*
X19800D01*
X10846Y30000D02*
G03*
X10000Y29154I0J-846D01*
G01*
Y10846D02*
G03*
X10846Y10000I846J0D01*
G01*
X40000Y29154D02*
G03*
X39154Y30000I-846J0D01*
G01*
Y10000D02*
G03*
X40000Y10846I0J846D01*
G01*
X10846Y30000D02*
X39154D01*
X10846Y10000D02*
X39154D01*
X10000Y10846D02*
Y29154D01*
X40000Y10846D02*
Y29154D01*
D15*
X13554Y24638D02*
X13947D01*
X13750Y24441D02*
Y24835D01*
D16*
X29400Y29000D02*
D03*
Y28606D02*
D03*
X28700Y28997D02*
D03*
Y28603D02*
D03*
X27200Y29000D02*
D03*
Y28606D02*
D03*
X28000D02*
D03*
Y29000D02*
D03*
X19800Y17606D02*
D03*
Y18000D02*
D03*
X19200Y17606D02*
D03*
Y18000D02*
D03*
X19000Y23506D02*
D03*
Y23900D02*
D03*
X18500D02*
D03*
Y23506D02*
D03*
D17*
X23193Y16900D02*
D03*
X22819D02*
D03*
D18*
X24100D02*
D03*
X23706D02*
D03*
D19*
X24331Y21900D02*
D03*
X24000D02*
D03*
D20*
X17940Y18769D02*
D03*
X18300Y18000D02*
D03*
D21*
X17580D02*
D03*
D22*
X21616Y24000D02*
D03*
X22600D02*
D03*
X21608Y20900D02*
D03*
X22592D02*
D03*
X18308Y15300D02*
D03*
X19292D02*
D03*
X21616Y21900D02*
D03*
X22600D02*
D03*
X21600Y23000D02*
D03*
X22584D02*
D03*
X18308Y16200D02*
D03*
X19292D02*
D03*
D23*
X23500Y11200D02*
D03*
X17500D02*
D03*
X20500D02*
D03*
X26500D02*
D03*
X29500D02*
D03*
X14500D02*
D03*
D24*
X16900Y24884D02*
D03*
Y24392D02*
D03*
Y25376D02*
D03*
Y23900D02*
D03*
D25*
X14380Y21961D02*
D03*
Y27315D02*
D03*
D26*
X13102Y16300D02*
D03*
Y16800D02*
D03*
Y17300D02*
D03*
Y18300D02*
D03*
X11500Y16300D02*
D03*
Y16800D02*
D03*
Y17300D02*
D03*
Y17800D02*
D03*
Y18300D02*
D03*
D42*
X20600Y28400D02*
D03*
D43*
X21600D02*
D03*
X22600D02*
D03*
X23600D02*
D03*
X24600D02*
D03*
X25600D02*
D03*
D44*
X32500Y20000D02*
D03*
D45*
X37815Y25315D02*
D03*
X27185Y14685D02*
D03*
D46*
X31634Y23386D02*
D03*
X31791Y22795D02*
D03*
X31949Y22205D02*
D03*
X32106Y23386D02*
D03*
X32264Y22795D02*
D03*
X32421Y22205D02*
D03*
X32579Y23386D02*
D03*
X32736Y22795D02*
D03*
X32894Y22205D02*
D03*
X33051Y23386D02*
D03*
X33209Y22795D02*
D03*
X33366Y22205D02*
D03*
X35886Y20866D02*
D03*
X35295Y20709D02*
D03*
X34705Y20551D02*
D03*
X35886Y20394D02*
D03*
X35295Y20236D02*
D03*
X34705Y20079D02*
D03*
X35886Y19921D02*
D03*
X35295Y19764D02*
D03*
X34705Y19606D02*
D03*
X35886Y19449D02*
D03*
X35295Y19291D02*
D03*
X34705Y19134D02*
D03*
X33366Y16614D02*
D03*
X33209Y17205D02*
D03*
X33051Y17795D02*
D03*
X32894Y16614D02*
D03*
X32736Y17205D02*
D03*
X32579Y17795D02*
D03*
X32421Y16614D02*
D03*
X32264Y17205D02*
D03*
X32106Y17795D02*
D03*
X31949Y16614D02*
D03*
X31791Y17205D02*
D03*
X31634Y17795D02*
D03*
X29114Y19134D02*
D03*
X29705Y19291D02*
D03*
X30295Y19449D02*
D03*
X29114Y19606D02*
D03*
X29705Y19764D02*
D03*
X30295Y19921D02*
D03*
X29114Y20079D02*
D03*
X29705Y20236D02*
D03*
X30295Y20394D02*
D03*
X29114Y20551D02*
D03*
X29705Y20709D02*
D03*
X30295Y20866D02*
D03*
D47*
X14144Y25721D02*
D03*
Y23556D02*
D03*
D48*
X23400Y19800D02*
D03*
X24400D02*
D03*
X24100Y15700D02*
D03*
X23100D02*
D03*
D49*
X11000Y11000D02*
D03*
Y29000D02*
D03*
X39000D02*
D03*
Y11000D02*
D03*
D50*
X30400Y29300D02*
D03*
X36900Y29100D02*
D03*
X35800Y26900D02*
D03*
X31200D02*
D03*
X16100Y11000D02*
D03*
X12300Y12100D02*
D03*
X11300Y26200D02*
D03*
X18200Y26600D02*
D03*
X13000Y19600D02*
D03*
X11300Y21000D02*
D03*
X13000Y13500D02*
D03*
X14700Y15400D02*
D03*
X14600Y17500D02*
D03*
X15400Y19500D02*
D03*
X18900Y20600D02*
D03*
Y19100D02*
D03*
X16500Y17800D02*
D03*
X16600Y15700D02*
D03*
Y13700D02*
D03*
X21200Y15300D02*
D03*
X18800Y12900D02*
D03*
X22000Y12300D02*
D03*
X24900Y11300D02*
D03*
X31000Y11700D02*
D03*
X35200Y13000D02*
D03*
X37800Y13300D02*
D03*
X39200Y15200D02*
D03*
X39100Y18800D02*
D03*
X39200Y23900D02*
D03*
X37300Y17700D02*
D03*
X34300Y15300D02*
D03*
X31100Y15400D02*
D03*
X28600Y17300D02*
D03*
X27300Y21700D02*
D03*
X26800Y23800D02*
D03*
X24000Y29400D02*
D03*
X17600Y29200D02*
D03*
X19900Y25500D02*
D03*
X19000Y22200D02*
D03*
X24500Y22900D02*
D03*
X22000Y18800D02*
D03*
X21200Y16900D02*
D03*
X30700Y25200D02*
D03*
X34600Y25300D02*
D03*
X10500Y16800D02*
D03*
X20500Y13200D02*
D03*
X23500D02*
D03*
X26500D02*
D03*
X20300Y20800D02*
D03*
X10500Y18300D02*
D03*
Y16300D02*
D03*
X20300Y19300D02*
D03*
X14400Y16300D02*
D03*
M02*
