M48
;Layer_Color=9474304
;FILE_FORMAT=2:5
INCH,LZ
;TYPE=PLATED
T1F00S00C0.00787
T2F00S00C0.01200
T3F00S00C0.03937
T4F00S00C0.04500
T5F00S00C0.09449
T6F00S00C0.12205
;TYPE=NON_PLATED
T7F00S00C0.05118
%
T01
X0063118Y0033016
Y0037347
Y0041677
Y0046008
X0067449
X007178
X007611
Y0041677
X007178
X0067449
Y0037347
X007178
X007611
Y0033016
X007178
X0067449
X0161835Y0018
X0166165
X024087Y0251504
X024589Y0248453
Y0254555
X0250909Y0251504
X0123925Y0256721
X0118019
X0120972Y0259674
Y0253768
T02
X0019195Y00055
Y00125
Y00165
Y00215
Y00255
X0018Y0031
X0023Y0035
X0028
X0033
X0035Y0045
X004
X0045
X0029
X0023
X0018
X0013Y0049
X0008Y0045
X0003Y0036
X0028Y0025
Y0019
Y0012
Y0005
X005Y0007
X0052Y0013
X0054Y0019
X005Y0027
X0068827Y001885
X0064Y001225
X0065Y0008
X0058
X0094Y0007
X0091Y0023
X0087655Y0026449
X0088744Y0037887
X0099Y0039
X01Y0049
X0113
X0116Y0043
X0134
X013286Y0071473
X0145Y0068
X0142Y008
X0133Y0094
X0121Y0097
X0122Y0085
X0117Y0076
X0114Y0061
X0088Y006
X0092Y0055
X0082Y0064
X0079Y006925
X0083Y0075
X008Y0081
X0076Y0087
X0077Y0105
X0061Y0109
X0046Y0107
X0045Y0114
X004715Y0097
X0059722Y0093145
X0056Y0086
X0045Y0076
X0042Y0071
X0039Y0066
X0036Y0074
X0022Y0075
X0014129Y0076012
X0011Y0083
Y0089
X0021
X0028Y0088
X0039Y0128
X0056
X0062
X0078Y0127
X0094Y0128
X0095Y0141
X0108Y0128
X012
X0124Y0136
X0125Y0146
X0143389Y014152
X015Y0131
X0137536Y0130158
X0131Y0113
X01Y0118
X0093Y0113
X0099Y0097
X01Y0089
X0105Y0093
X0112Y0091
X0093Y0084
X0102Y0022
X0120696Y0008839
X0143208Y000539
X0146476Y0023908
X0155Y0061
X0069018Y0151161
X0044572Y0153743
X0047155Y0145135
X0161809Y0151333
X0182296Y014789
X0175582Y0134462
X0164Y0121
X0175Y0099
Y0091
X0181Y0094
X0192
X0183Y008
X0174252Y0068568
X0156279Y0068024
X0164Y005804
X0157006Y0050958
X017Y0043
X0174Y0046
X0173Y0028
X0186Y0034
X0192Y0044
X0199608Y0058392
X0204Y0063
X0219Y0072
X0216Y0084
X0233Y0088
X0239Y0091
X0246Y0095
X0243994Y0078497
X0262Y0079
X0265032Y0097031
X0277Y0089
X0295Y0102
X0291Y0124
X0281Y0129
X0268Y0124
X0269Y015
X0282Y0155
X0297Y0146
X0302Y0139
X0305041Y0131535
X0312Y0116
Y009
X0308Y0083
X0310378Y007042
X0301942Y0064223
X0288859Y0063706
X0267Y0051
X0249Y0041
X0237Y0045
X0219Y0038
X0217Y0029
X0213Y0026
Y0033
X0221Y0019
X0228Y0009
X0252Y0013
X0260798Y0017569
X027Y0022
X0276464Y0030481
X0224Y0098
X0226195Y0119829
X021Y0116
X0210529Y0124993
X0199Y0116
X0208807Y0154087
X0223268Y0147546
X0235Y0136
X0247886Y0136011
Y014789
X0172Y001
X034855Y0016213
X0362Y0031
X0372603Y0054141
X0375Y0073
X0372Y0097
X0369Y0119
X0355026Y0128148
X0340841Y0125989
X0344233Y0107488
X0327Y0093
X0313Y0101
X0329Y005
X0343Y0049
X0329Y0158
X0333Y0192
X036Y0199
X0376611Y0204622
X0316481Y0210481
X0286878Y0202155
X0293354Y0178411
X0294Y0158
X0255Y0175
X0217Y0165
X0209324Y0162695
X0200716Y017027
X0175237Y0169925
X0177Y0159
X0158883Y0168548
X0171Y0197
X0161Y0208
Y022
X0194Y0215
Y0204
X02Y0208
Y022
X0208Y023
X021688Y0226516
X0229Y0228
X0236
X0242937Y0236
X0255Y0233
X0261Y0235
Y024
X0259Y0251
X0258Y0266
X0254
X025
X0238Y0264
X0226Y026
X0222Y0257
X0214Y0261
Y0246
X0191Y024585
X0186Y0255
X0171Y0259
X0166Y0264
X0162Y0273
X0192Y0269
X0194Y0233
X0294Y024
X0285Y0249
X0290814Y0285924
X0266Y0277
X0154Y026
X015Y0249
X0139601Y0250149
X015Y0234
X0154Y022
X0144Y0206
X0141Y0196
X0145Y0184
X0127Y0181
X0113Y0184
X011Y0195
X0121Y0193
X0128239Y0207455
X013Y0218
X0119Y0224
X011Y0216
X0113434Y0208144
X0117Y0241
X0115672Y0280104
X0100695Y0271324
X0095Y0265
X0078
X0081413Y0234483
X0076Y0221
X0072Y0191
X0071428Y0174746
X0053524Y016149
X005Y0187
X0039Y0206
X0143044Y016149
X0144Y029
T03
X031Y0261252
Y0277
T04
X0313Y0179
Y0189
X0268Y0216
X0258
X0241Y019
X0231
X0253Y0159
X0263
X0181Y0228
X0171
X0096Y0226
Y0216
T05
X0114Y0139
X023Y0058
X0378Y0013
X0075Y0285
T06
X0311Y0024
X0362Y0155
T07
X0036441Y0240791
Y0262445
M30
