G04*
G04 #@! TF.GenerationSoftware,Altium Limited,Altium Designer,20.1.11 (218)*
G04*
G04 Layer_Physical_Order=2*
G04 Layer_Color=10964583*
%FSLAX25Y25*%
%MOIN*%
G70*
G04*
G04 #@! TF.SameCoordinates,9738943D-FDB6-407F-A489-FF49C37398C0*
G04*
G04*
G04 #@! TF.FilePolarity,Positive*
G04*
G01*
G75*
%ADD11C,0.01000*%
%ADD15C,0.00600*%
%ADD110C,0.05118*%
%ADD111C,0.07874*%
%ADD112C,0.15748*%
%ADD113C,0.07500*%
%ADD114C,0.39370*%
%ADD115C,0.02500*%
G36*
X390879Y1122D02*
X15000D01*
X15000Y33000D01*
X1122Y33000D01*
Y33948D01*
X1622Y34215D01*
X2122Y33880D01*
X2500Y33805D01*
Y36000D01*
Y38195D01*
X2122Y38120D01*
X1622Y37785D01*
X1122Y38052D01*
Y299879D01*
X390879D01*
Y1122D01*
D02*
G37*
%LPC*%
G36*
X291314Y288119D02*
Y286424D01*
X293008D01*
X292933Y286802D01*
X292436Y287546D01*
X291691Y288043D01*
X291314Y288119D01*
D02*
G37*
G36*
X290314D02*
X289936Y288043D01*
X289191Y287546D01*
X288694Y286802D01*
X288619Y286424D01*
X290314D01*
Y288119D01*
D02*
G37*
G36*
X293008Y285424D02*
X291314D01*
Y283729D01*
X291691Y283804D01*
X292436Y284302D01*
X292933Y285046D01*
X293008Y285424D01*
D02*
G37*
G36*
X290314D02*
X288619D01*
X288694Y285046D01*
X289191Y284302D01*
X289936Y283804D01*
X290314Y283729D01*
Y285424D01*
D02*
G37*
G36*
X116172Y282299D02*
Y280604D01*
X117867D01*
X117791Y280982D01*
X117294Y281726D01*
X116550Y282223D01*
X116172Y282299D01*
D02*
G37*
G36*
X115172D02*
X114794Y282223D01*
X114050Y281726D01*
X113552Y280982D01*
X113477Y280604D01*
X115172D01*
Y282299D01*
D02*
G37*
G36*
X310000Y281576D02*
X308816Y281420D01*
X307712Y280963D01*
X306764Y280236D01*
X306037Y279288D01*
X305580Y278184D01*
X305545Y277918D01*
X267612D01*
X267334Y278334D01*
X266722Y278743D01*
X266000Y278886D01*
X265278Y278743D01*
X264666Y278334D01*
X264257Y277722D01*
X264114Y277000D01*
X264257Y276278D01*
X264666Y275666D01*
X265278Y275257D01*
X266000Y275114D01*
X266722Y275257D01*
X267334Y275666D01*
X267612Y276082D01*
X305545D01*
X305580Y275816D01*
X306037Y274712D01*
X306764Y273764D01*
X307712Y273037D01*
X308816Y272580D01*
X310000Y272424D01*
X311184Y272580D01*
X312288Y273037D01*
X313236Y273764D01*
X313963Y274712D01*
X314420Y275816D01*
X314576Y277000D01*
X314420Y278184D01*
X313963Y279288D01*
X313236Y280236D01*
X312288Y280963D01*
X311184Y281420D01*
X310000Y281576D01*
D02*
G37*
G36*
X117867Y279604D02*
X116172D01*
Y277909D01*
X116550Y277984D01*
X117294Y278482D01*
X117791Y279226D01*
X117867Y279604D01*
D02*
G37*
G36*
X115172D02*
X113477D01*
X113552Y279226D01*
X114050Y278482D01*
X114794Y277984D01*
X115172Y277909D01*
Y279604D01*
D02*
G37*
G36*
X75000Y293515D02*
X73339Y293351D01*
X71741Y292867D01*
X70269Y292080D01*
X68979Y291021D01*
X67920Y289731D01*
X67133Y288259D01*
X66649Y286661D01*
X66485Y285000D01*
X66649Y283339D01*
X67133Y281741D01*
X67920Y280269D01*
X68979Y278979D01*
X70269Y277920D01*
X71741Y277133D01*
X73339Y276649D01*
X75000Y276485D01*
X76661Y276649D01*
X78259Y277133D01*
X79731Y277920D01*
X81021Y278979D01*
X82080Y280269D01*
X82867Y281741D01*
X83351Y283339D01*
X83515Y285000D01*
X83351Y286661D01*
X82867Y288259D01*
X82080Y289731D01*
X81021Y291021D01*
X79731Y292080D01*
X78259Y292867D01*
X76661Y293351D01*
X75000Y293515D01*
D02*
G37*
G36*
X162500Y275195D02*
Y273500D01*
X164195D01*
X164120Y273878D01*
X163622Y274622D01*
X162878Y275119D01*
X162500Y275195D01*
D02*
G37*
G36*
X161500D02*
X161122Y275119D01*
X160378Y274622D01*
X159880Y273878D01*
X159805Y273500D01*
X161500D01*
Y275195D01*
D02*
G37*
G36*
X101195Y273519D02*
Y271824D01*
X102889D01*
X102814Y272202D01*
X102317Y272946D01*
X101573Y273444D01*
X101195Y273519D01*
D02*
G37*
G36*
X100195D02*
X99817Y273444D01*
X99072Y272946D01*
X98575Y272202D01*
X98500Y271824D01*
X100195D01*
Y273519D01*
D02*
G37*
G36*
X164195Y272500D02*
X162500D01*
Y270805D01*
X162878Y270881D01*
X163622Y271378D01*
X164120Y272122D01*
X164195Y272500D01*
D02*
G37*
G36*
X161500D02*
X159805D01*
X159880Y272122D01*
X160378Y271378D01*
X161122Y270881D01*
X161500Y270805D01*
Y272500D01*
D02*
G37*
G36*
X102889Y270824D02*
X101195D01*
Y269129D01*
X101573Y269205D01*
X102317Y269702D01*
X102814Y270446D01*
X102889Y270824D01*
D02*
G37*
G36*
X100195D02*
X98500D01*
X98575Y270446D01*
X99072Y269702D01*
X99817Y269205D01*
X100195Y269129D01*
Y270824D01*
D02*
G37*
G36*
X252000Y278918D02*
X220000D01*
X219649Y278848D01*
X219351Y278649D01*
X213351Y272649D01*
X213152Y272351D01*
X213082Y272000D01*
Y262612D01*
X212666Y262334D01*
X212257Y261722D01*
X212114Y261000D01*
X212257Y260278D01*
X212666Y259666D01*
X213278Y259257D01*
X214000Y259114D01*
X214722Y259257D01*
X215334Y259666D01*
X215743Y260278D01*
X215886Y261000D01*
X215743Y261722D01*
X215334Y262334D01*
X214918Y262612D01*
Y271620D01*
X220380Y277082D01*
X222100D01*
X222234Y276851D01*
X222285Y276582D01*
X217351Y271649D01*
X217152Y271351D01*
X217082Y271000D01*
Y255000D01*
X217152Y254649D01*
X217351Y254351D01*
X219351Y252351D01*
X219649Y252152D01*
X220000Y252082D01*
X223000D01*
X223351Y252152D01*
X223649Y252351D01*
X226649Y255351D01*
X226848Y255649D01*
X226918Y256000D01*
Y258388D01*
X227334Y258666D01*
X227743Y259278D01*
X227886Y260000D01*
X227743Y260722D01*
X227334Y261334D01*
X226722Y261743D01*
X226000Y261886D01*
X225278Y261743D01*
X224666Y261334D01*
X224257Y260722D01*
X224114Y260000D01*
X224257Y259278D01*
X224666Y258666D01*
X225082Y258388D01*
Y256380D01*
X222620Y253918D01*
X220380D01*
X218918Y255380D01*
Y270620D01*
X223380Y275082D01*
X249620D01*
X253082Y271620D01*
Y267612D01*
X252666Y267334D01*
X252257Y266722D01*
X252255Y266710D01*
X251745D01*
X251743Y266722D01*
X251334Y267334D01*
X250918Y267612D01*
Y271000D01*
X250848Y271351D01*
X250649Y271649D01*
X248649Y273649D01*
X248351Y273848D01*
X248000Y273918D01*
X225000D01*
X224649Y273848D01*
X224351Y273649D01*
X221351Y270649D01*
X221152Y270351D01*
X221082Y270000D01*
Y258612D01*
X220666Y258334D01*
X220257Y257722D01*
X220114Y257000D01*
X220257Y256278D01*
X220666Y255666D01*
X221278Y255257D01*
X222000Y255114D01*
X222722Y255257D01*
X223334Y255666D01*
X223743Y256278D01*
X223886Y257000D01*
X223743Y257722D01*
X223334Y258334D01*
X222918Y258612D01*
Y269620D01*
X225380Y272082D01*
X247620D01*
X249082Y270620D01*
Y267612D01*
X248666Y267334D01*
X248257Y266722D01*
X248114Y266000D01*
X248257Y265278D01*
X248666Y264666D01*
X249082Y264388D01*
Y264000D01*
X249152Y263649D01*
X249351Y263351D01*
X250351Y262351D01*
X250649Y262152D01*
X251000Y262082D01*
X283620D01*
X293082Y252620D01*
Y241612D01*
X292666Y241334D01*
X292257Y240722D01*
X292114Y240000D01*
X292257Y239278D01*
X292666Y238666D01*
X293278Y238257D01*
X294000Y238114D01*
X294722Y238257D01*
X295334Y238666D01*
X295743Y239278D01*
X295886Y240000D01*
X295743Y240722D01*
X295334Y241334D01*
X294918Y241612D01*
Y253000D01*
X294848Y253351D01*
X294649Y253649D01*
X284649Y263649D01*
X284351Y263848D01*
X284000Y263918D01*
X259113D01*
X258962Y264418D01*
X259334Y264666D01*
X259743Y265278D01*
X259886Y266000D01*
X259743Y266722D01*
X259334Y267334D01*
X258918Y267612D01*
Y272000D01*
X258848Y272351D01*
X258649Y272649D01*
X252649Y278649D01*
X252351Y278848D01*
X252000Y278918D01*
D02*
G37*
G36*
X95500Y267195D02*
Y265500D01*
X97195D01*
X97119Y265878D01*
X96622Y266622D01*
X95878Y267120D01*
X95500Y267195D01*
D02*
G37*
G36*
X94500D02*
X94122Y267120D01*
X93378Y266622D01*
X92881Y265878D01*
X92805Y265500D01*
X94500D01*
Y267195D01*
D02*
G37*
G36*
X78500D02*
Y265500D01*
X80195D01*
X80119Y265878D01*
X79622Y266622D01*
X78878Y267120D01*
X78500Y267195D01*
D02*
G37*
G36*
X77500D02*
X77122Y267120D01*
X76378Y266622D01*
X75881Y265878D01*
X75805Y265500D01*
X77500D01*
Y267195D01*
D02*
G37*
G36*
X166500Y266195D02*
Y264500D01*
X168195D01*
X168120Y264878D01*
X167622Y265622D01*
X166878Y266120D01*
X166500Y266195D01*
D02*
G37*
G36*
X165500D02*
X165122Y266120D01*
X164378Y265622D01*
X163881Y264878D01*
X163805Y264500D01*
X165500D01*
Y266195D01*
D02*
G37*
G36*
X97195Y264500D02*
X95500D01*
Y262805D01*
X95878Y262880D01*
X96622Y263378D01*
X97119Y264122D01*
X97195Y264500D01*
D02*
G37*
G36*
X94500D02*
X92805D01*
X92881Y264122D01*
X93378Y263378D01*
X94122Y262880D01*
X94500Y262805D01*
Y264500D01*
D02*
G37*
G36*
X80195D02*
X78500D01*
Y262805D01*
X78878Y262880D01*
X79622Y263378D01*
X80119Y264122D01*
X80195Y264500D01*
D02*
G37*
G36*
X77500D02*
X75805D01*
X75881Y264122D01*
X76378Y263378D01*
X77122Y262880D01*
X77500Y262805D01*
Y264500D01*
D02*
G37*
G36*
X168195Y263500D02*
X166500D01*
Y261805D01*
X166878Y261880D01*
X167622Y262378D01*
X168120Y263122D01*
X168195Y263500D01*
D02*
G37*
G36*
X165500D02*
X163805D01*
X163881Y263122D01*
X164378Y262378D01*
X165122Y261880D01*
X165500Y261805D01*
Y263500D01*
D02*
G37*
G36*
X36441Y265631D02*
X35616Y265523D01*
X34848Y265204D01*
X34188Y264698D01*
X33681Y264038D01*
X33363Y263270D01*
X33255Y262445D01*
X33363Y261620D01*
X33681Y260852D01*
X34188Y260192D01*
X34848Y259685D01*
X35616Y259367D01*
X36441Y259259D01*
X37266Y259367D01*
X38034Y259685D01*
X38694Y260192D01*
X39200Y260852D01*
X39519Y261620D01*
X39627Y262445D01*
X39519Y263270D01*
X39200Y264038D01*
X38694Y264698D01*
X38034Y265204D01*
X37266Y265523D01*
X36441Y265631D01*
D02*
G37*
G36*
X121528Y258915D02*
Y257221D01*
X123222D01*
X123147Y257598D01*
X122650Y258343D01*
X121906Y258840D01*
X121528Y258915D01*
D02*
G37*
G36*
X120528D02*
X120150Y258840D01*
X119405Y258343D01*
X118908Y257598D01*
X118833Y257221D01*
X120528D01*
Y258915D01*
D02*
G37*
G36*
X310000Y265828D02*
X308816Y265672D01*
X307712Y265215D01*
X306764Y264488D01*
X306037Y263540D01*
X305580Y262436D01*
X305424Y261252D01*
X305580Y260068D01*
X306037Y258964D01*
X306764Y258016D01*
X307712Y257289D01*
X308816Y256832D01*
X310000Y256676D01*
X311184Y256832D01*
X312288Y257289D01*
X313236Y258016D01*
X313963Y258964D01*
X314420Y260068D01*
X314576Y261252D01*
X314420Y262436D01*
X313963Y263540D01*
X313236Y264488D01*
X312288Y265215D01*
X311184Y265672D01*
X310000Y265828D01*
D02*
G37*
G36*
X123222Y256221D02*
X121528D01*
Y254526D01*
X121906Y254601D01*
X122650Y255098D01*
X123147Y255842D01*
X123222Y256221D01*
D02*
G37*
G36*
X120528D02*
X118833D01*
X118908Y255842D01*
X119405Y255098D01*
X120150Y254601D01*
X120528Y254526D01*
Y256221D01*
D02*
G37*
G36*
X246389Y255699D02*
Y254004D01*
X248084D01*
X248009Y254382D01*
X247512Y255126D01*
X246767Y255623D01*
X246389Y255699D01*
D02*
G37*
G36*
X245389D02*
X245011Y255623D01*
X244267Y255126D01*
X243770Y254382D01*
X243695Y254004D01*
X245389D01*
Y255699D01*
D02*
G37*
G36*
X154000Y261886D02*
X153278Y261743D01*
X152666Y261334D01*
X152257Y260722D01*
X152114Y260000D01*
X152257Y259278D01*
X152666Y258666D01*
X153278Y258257D01*
X154000Y258114D01*
X154722Y258257D01*
X155334Y258666D01*
X155612Y259082D01*
X158620D01*
X163351Y254351D01*
X163649Y254152D01*
X164000Y254082D01*
X184388D01*
X184666Y253666D01*
X185278Y253257D01*
X186000Y253114D01*
X186722Y253257D01*
X187334Y253666D01*
X187743Y254278D01*
X187886Y255000D01*
X187743Y255722D01*
X187334Y256334D01*
X186722Y256743D01*
X186000Y256886D01*
X185278Y256743D01*
X184666Y256334D01*
X184388Y255918D01*
X164380D01*
X159649Y260649D01*
X159351Y260848D01*
X159000Y260918D01*
X155612D01*
X155334Y261334D01*
X154722Y261743D01*
X154000Y261886D01*
D02*
G37*
G36*
X251409Y253698D02*
Y252004D01*
X253103D01*
X253028Y252381D01*
X252531Y253126D01*
X251787Y253623D01*
X251409Y253698D01*
D02*
G37*
G36*
X250409D02*
X250031Y253623D01*
X249287Y253126D01*
X248789Y252381D01*
X248714Y252004D01*
X250409D01*
Y253698D01*
D02*
G37*
G36*
X241370D02*
Y252004D01*
X243064D01*
X242989Y252381D01*
X242492Y253126D01*
X241747Y253623D01*
X241370Y253698D01*
D02*
G37*
G36*
X240370D02*
X239991Y253623D01*
X239247Y253126D01*
X238750Y252381D01*
X238675Y252004D01*
X240370D01*
Y253698D01*
D02*
G37*
G36*
X259500Y253195D02*
Y251500D01*
X261195D01*
X261120Y251878D01*
X260622Y252622D01*
X259878Y253119D01*
X259500Y253195D01*
D02*
G37*
G36*
X258500D02*
X258122Y253119D01*
X257378Y252622D01*
X256880Y251878D01*
X256805Y251500D01*
X258500D01*
Y253195D01*
D02*
G37*
G36*
X140101Y252344D02*
Y250649D01*
X141796D01*
X141721Y251027D01*
X141224Y251771D01*
X140479Y252269D01*
X140101Y252344D01*
D02*
G37*
G36*
X139101D02*
X138723Y252269D01*
X137979Y251771D01*
X137482Y251027D01*
X137407Y250649D01*
X139101D01*
Y252344D01*
D02*
G37*
G36*
X248084Y253004D02*
X243695D01*
X243770Y252626D01*
X244267Y251882D01*
X244459Y251754D01*
Y251254D01*
X244267Y251126D01*
X243770Y250382D01*
X243695Y250004D01*
X248084D01*
X248009Y250382D01*
X247512Y251126D01*
X247320Y251254D01*
Y251754D01*
X247512Y251882D01*
X248009Y252626D01*
X248084Y253004D01*
D02*
G37*
G36*
X253103Y251004D02*
X251409D01*
Y249309D01*
X251787Y249384D01*
X252531Y249882D01*
X253028Y250626D01*
X253103Y251004D01*
D02*
G37*
G36*
X250409D02*
X248714D01*
X248789Y250626D01*
X249287Y249882D01*
X250031Y249384D01*
X250409Y249309D01*
Y251004D01*
D02*
G37*
G36*
X243064D02*
X241370D01*
Y249309D01*
X241747Y249384D01*
X242492Y249882D01*
X242989Y250626D01*
X243064Y251004D01*
D02*
G37*
G36*
X240370D02*
X238675D01*
X238750Y250626D01*
X239247Y249882D01*
X239991Y249384D01*
X240370Y249309D01*
Y251004D01*
D02*
G37*
G36*
X261195Y250500D02*
X259500D01*
Y248805D01*
X259878Y248881D01*
X260622Y249378D01*
X261120Y250122D01*
X261195Y250500D01*
D02*
G37*
G36*
X258500D02*
X256805D01*
X256880Y250122D01*
X257378Y249378D01*
X258122Y248881D01*
X258500Y248805D01*
Y250500D01*
D02*
G37*
G36*
X141796Y249649D02*
X140101D01*
Y247955D01*
X140479Y248030D01*
X141224Y248527D01*
X141721Y249271D01*
X141796Y249649D01*
D02*
G37*
G36*
X139101D02*
X137407D01*
X137482Y249271D01*
X137979Y248527D01*
X138723Y248030D01*
X139101Y247955D01*
Y249649D01*
D02*
G37*
G36*
X238000Y265886D02*
X237278Y265743D01*
X236666Y265334D01*
X236257Y264722D01*
X236114Y264000D01*
X236257Y263278D01*
X236666Y262666D01*
X237082Y262388D01*
Y261000D01*
X237152Y260649D01*
X237351Y260351D01*
X239351Y258351D01*
X239649Y258152D01*
X240000Y258082D01*
X278620D01*
X284082Y252620D01*
Y250612D01*
X283666Y250334D01*
X283257Y249722D01*
X283114Y249000D01*
X283257Y248278D01*
X283666Y247666D01*
X284278Y247257D01*
X285000Y247114D01*
X285722Y247257D01*
X286334Y247666D01*
X286743Y248278D01*
X286886Y249000D01*
X286743Y249722D01*
X286334Y250334D01*
X285918Y250612D01*
Y253000D01*
X285848Y253351D01*
X285649Y253649D01*
X279649Y259649D01*
X279351Y259848D01*
X279000Y259918D01*
X240380D01*
X238918Y261380D01*
Y262388D01*
X239334Y262666D01*
X239743Y263278D01*
X239886Y264000D01*
X239743Y264722D01*
X239334Y265334D01*
X238722Y265743D01*
X238000Y265886D01*
D02*
G37*
G36*
X103000Y252918D02*
X24000D01*
X23649Y252848D01*
X23351Y252649D01*
X15351Y244649D01*
X15152Y244351D01*
X15082Y244000D01*
Y188000D01*
X15152Y187649D01*
X15351Y187351D01*
X66082Y136620D01*
Y123380D01*
X59620Y116918D01*
X54380D01*
X47649Y123649D01*
X47351Y123848D01*
X47000Y123918D01*
X37000D01*
X36649Y123848D01*
X36351Y123649D01*
X30351Y117649D01*
X30152Y117351D01*
X30082Y117000D01*
Y104000D01*
X30152Y103649D01*
X30351Y103351D01*
X44082Y89620D01*
Y77612D01*
X43666Y77334D01*
X43257Y76722D01*
X43114Y76000D01*
X43257Y75278D01*
X43666Y74666D01*
X44278Y74257D01*
X45000Y74114D01*
X45722Y74257D01*
X46334Y74666D01*
X46743Y75278D01*
X46886Y76000D01*
X46743Y76722D01*
X46334Y77334D01*
X45918Y77612D01*
Y90000D01*
X45848Y90351D01*
X45649Y90649D01*
X31918Y104380D01*
Y116620D01*
X37380Y122082D01*
X46620D01*
X53351Y115351D01*
X53649Y115152D01*
X54000Y115082D01*
X60000D01*
X60351Y115152D01*
X60649Y115351D01*
X67649Y122351D01*
X67848Y122649D01*
X67918Y123000D01*
Y137000D01*
X67848Y137351D01*
X67649Y137649D01*
X16918Y188380D01*
Y243620D01*
X24380Y251082D01*
X102620D01*
X113351Y240351D01*
X113649Y240152D01*
X114000Y240082D01*
X115388D01*
X115666Y239666D01*
X116278Y239257D01*
X117000Y239114D01*
X117722Y239257D01*
X118334Y239666D01*
X118743Y240278D01*
X118886Y241000D01*
X118743Y241722D01*
X118334Y242334D01*
X117722Y242743D01*
X117000Y242886D01*
X116278Y242743D01*
X115666Y242334D01*
X115388Y241918D01*
X114380D01*
X103649Y252649D01*
X103351Y252848D01*
X103000Y252918D01*
D02*
G37*
G36*
X36441Y243978D02*
X35616Y243869D01*
X34848Y243551D01*
X34188Y243044D01*
X33681Y242385D01*
X33363Y241616D01*
X33255Y240791D01*
X33363Y239967D01*
X33681Y239198D01*
X34188Y238538D01*
X34848Y238032D01*
X35616Y237714D01*
X36441Y237605D01*
X37266Y237714D01*
X38034Y238032D01*
X38694Y238538D01*
X39200Y239198D01*
X39519Y239967D01*
X39627Y240791D01*
X39519Y241616D01*
X39200Y242385D01*
X38694Y243044D01*
X38034Y243551D01*
X37266Y243869D01*
X36441Y243978D01*
D02*
G37*
G36*
X81913Y236678D02*
Y234983D01*
X83608D01*
X83533Y235361D01*
X83035Y236105D01*
X82291Y236603D01*
X81913Y236678D01*
D02*
G37*
G36*
X80913D02*
X80536Y236603D01*
X79791Y236105D01*
X79294Y235361D01*
X79219Y234983D01*
X80913D01*
Y236678D01*
D02*
G37*
G36*
X83608Y233983D02*
X81913D01*
Y232289D01*
X82291Y232364D01*
X83035Y232861D01*
X83533Y233605D01*
X83608Y233983D01*
D02*
G37*
G36*
X80913D02*
X79219D01*
X79294Y233605D01*
X79791Y232861D01*
X80536Y232364D01*
X80913Y232289D01*
Y233983D01*
D02*
G37*
G36*
X144000Y291886D02*
X143278Y291743D01*
X142666Y291334D01*
X142257Y290722D01*
X142114Y290000D01*
X142257Y289278D01*
X142666Y288666D01*
X143082Y288388D01*
Y268000D01*
X143152Y267649D01*
X143351Y267351D01*
X149082Y261620D01*
Y250612D01*
X148666Y250334D01*
X148257Y249722D01*
X148114Y249000D01*
X148257Y248278D01*
X148666Y247666D01*
X149082Y247388D01*
Y235612D01*
X148666Y235334D01*
X148257Y234722D01*
X148114Y234000D01*
X148257Y233278D01*
X148666Y232666D01*
X149278Y232257D01*
X150000Y232114D01*
X150722Y232257D01*
X151334Y232666D01*
X151743Y233278D01*
X151886Y234000D01*
X151743Y234722D01*
X151334Y235334D01*
X150918Y235612D01*
Y247388D01*
X151334Y247666D01*
X151743Y248278D01*
X151886Y249000D01*
X151743Y249722D01*
X151334Y250334D01*
X150918Y250612D01*
Y262000D01*
X150848Y262351D01*
X150649Y262649D01*
X144918Y268380D01*
Y288388D01*
X145334Y288666D01*
X145743Y289278D01*
X145886Y290000D01*
X145743Y290722D01*
X145334Y291334D01*
X144722Y291743D01*
X144000Y291886D01*
D02*
G37*
G36*
X191000Y239918D02*
X175000D01*
X174649Y239848D01*
X174351Y239649D01*
X170351Y235649D01*
X170152Y235351D01*
X170082Y235000D01*
Y232267D01*
X169864Y232238D01*
X168806Y231800D01*
X167897Y231102D01*
X167200Y230194D01*
X166762Y229136D01*
X166613Y228000D01*
X166762Y226864D01*
X167200Y225806D01*
X167897Y224898D01*
X168806Y224200D01*
X169864Y223762D01*
X171000Y223612D01*
X172136Y223762D01*
X173194Y224200D01*
X174102Y224898D01*
X174800Y225806D01*
X175238Y226864D01*
X175388Y228000D01*
X175238Y229136D01*
X174800Y230194D01*
X174102Y231102D01*
X173194Y231800D01*
X172136Y232238D01*
X171918Y232267D01*
Y234620D01*
X175380Y238082D01*
X190620D01*
X193082Y235620D01*
Y234612D01*
X192666Y234334D01*
X192257Y233722D01*
X192114Y233000D01*
X192257Y232278D01*
X192666Y231666D01*
X193278Y231257D01*
X194000Y231114D01*
X194722Y231257D01*
X195334Y231666D01*
X195743Y232278D01*
X195886Y233000D01*
X195743Y233722D01*
X195334Y234334D01*
X194918Y234612D01*
Y236000D01*
X194848Y236351D01*
X194649Y236649D01*
X191649Y239649D01*
X191351Y239848D01*
X191000Y239918D01*
D02*
G37*
G36*
X204000Y249918D02*
X171000D01*
X170649Y249848D01*
X170351Y249649D01*
X139620Y218918D01*
X131612D01*
X131334Y219334D01*
X130722Y219743D01*
X130000Y219886D01*
X129278Y219743D01*
X128666Y219334D01*
X128257Y218722D01*
X128114Y218000D01*
X128257Y217278D01*
X128666Y216666D01*
X129278Y216257D01*
X130000Y216114D01*
X130722Y216257D01*
X131334Y216666D01*
X131612Y217082D01*
X140000D01*
X140351Y217152D01*
X140649Y217351D01*
X171380Y248082D01*
X190180D01*
X190272Y247624D01*
X190263Y247582D01*
X189666Y247184D01*
X189488Y246918D01*
X174000D01*
X173649Y246848D01*
X173351Y246649D01*
X141620Y214918D01*
X124380D01*
X122649Y216649D01*
X122351Y216848D01*
X122000Y216918D01*
X111612D01*
X111334Y217334D01*
X110722Y217743D01*
X110000Y217886D01*
X109278Y217743D01*
X108666Y217334D01*
X108257Y216722D01*
X108114Y216000D01*
X108257Y215278D01*
X108666Y214666D01*
X109278Y214257D01*
X110000Y214114D01*
X110722Y214257D01*
X111334Y214666D01*
X111612Y215082D01*
X121620D01*
X123285Y213418D01*
X123234Y213149D01*
X123100Y212918D01*
X108380D01*
X106918Y214380D01*
Y221620D01*
X108380Y223082D01*
X117388D01*
X117666Y222666D01*
X118278Y222257D01*
X119000Y222114D01*
X119722Y222257D01*
X120334Y222666D01*
X120743Y223278D01*
X120886Y224000D01*
X120743Y224722D01*
X120334Y225334D01*
X119722Y225743D01*
X119000Y225886D01*
X118278Y225743D01*
X117666Y225334D01*
X117388Y224918D01*
X108000D01*
X107649Y224848D01*
X107351Y224649D01*
X105351Y222649D01*
X105152Y222351D01*
X105082Y222000D01*
Y214000D01*
X105152Y213649D01*
X105351Y213351D01*
X107351Y211351D01*
X107649Y211152D01*
X108000Y211082D01*
X202000D01*
X202351Y211152D01*
X202649Y211351D01*
X206380Y215082D01*
X253733D01*
X253762Y214864D01*
X254200Y213806D01*
X254897Y212897D01*
X255806Y212200D01*
X256864Y211762D01*
X258000Y211613D01*
X259136Y211762D01*
X260194Y212200D01*
X261103Y212897D01*
X261800Y213806D01*
X262238Y214864D01*
X262387Y216000D01*
X262238Y217136D01*
X261800Y218194D01*
X261103Y219103D01*
X260194Y219800D01*
X259136Y220238D01*
X258000Y220388D01*
X256864Y220238D01*
X255806Y219800D01*
X254897Y219103D01*
X254200Y218194D01*
X253762Y217136D01*
X253733Y216918D01*
X206000D01*
X205649Y216848D01*
X205351Y216649D01*
X201620Y212918D01*
X195113D01*
X194962Y213418D01*
X195334Y213666D01*
X195743Y214278D01*
X195886Y215000D01*
X195743Y215722D01*
X195334Y216334D01*
X194722Y216743D01*
X194000Y216886D01*
X193278Y216743D01*
X192666Y216334D01*
X192388Y215918D01*
X156380D01*
X154918Y217380D01*
Y218388D01*
X155334Y218666D01*
X155743Y219278D01*
X155886Y220000D01*
X155743Y220722D01*
X155334Y221334D01*
X154722Y221743D01*
X154000Y221886D01*
X153278Y221743D01*
X152666Y221334D01*
X152257Y220722D01*
X152114Y220000D01*
X152257Y219278D01*
X152666Y218666D01*
X153082Y218388D01*
Y217000D01*
X153152Y216649D01*
X153351Y216351D01*
X155351Y214351D01*
X155649Y214152D01*
X156000Y214082D01*
X192388D01*
X192666Y213666D01*
X193038Y213418D01*
X192887Y212918D01*
X142900D01*
X142766Y213149D01*
X142715Y213418D01*
X174380Y245082D01*
X189288D01*
X189666Y244516D01*
X190278Y244107D01*
X191000Y243964D01*
X191722Y244107D01*
X192334Y244516D01*
X192712Y245082D01*
X201620D01*
X207351Y239351D01*
X207649Y239152D01*
X208000Y239082D01*
X259388D01*
X259666Y238666D01*
X260278Y238257D01*
X261000Y238114D01*
X261722Y238257D01*
X262334Y238666D01*
X262743Y239278D01*
X262886Y240000D01*
X262743Y240722D01*
X262334Y241334D01*
X261962Y241582D01*
X262113Y242082D01*
X264620D01*
X266082Y240620D01*
Y236380D01*
X265620Y235918D01*
X262612D01*
X262334Y236334D01*
X261722Y236743D01*
X261000Y236886D01*
X260278Y236743D01*
X259666Y236334D01*
X259257Y235722D01*
X259114Y235000D01*
X259257Y234278D01*
X259666Y233666D01*
X260278Y233257D01*
X261000Y233114D01*
X261722Y233257D01*
X262334Y233666D01*
X262612Y234082D01*
X266000D01*
X266351Y234152D01*
X266649Y234351D01*
X267649Y235351D01*
X267848Y235649D01*
X267918Y236000D01*
Y241000D01*
X267848Y241351D01*
X267649Y241649D01*
X265649Y243649D01*
X265351Y243848D01*
X265000Y243918D01*
X215113D01*
X214962Y244418D01*
X215334Y244666D01*
X215612Y245082D01*
X265620D01*
X269082Y241620D01*
Y234380D01*
X265620Y230918D01*
X256289D01*
X256216Y230997D01*
X256290Y231637D01*
X256334Y231666D01*
X256743Y232278D01*
X256886Y233000D01*
X256743Y233722D01*
X256334Y234334D01*
X255722Y234743D01*
X255000Y234886D01*
X254278Y234743D01*
X253666Y234334D01*
X253257Y233722D01*
X253114Y233000D01*
X253257Y232278D01*
X253666Y231666D01*
X254082Y231388D01*
Y230351D01*
X254152Y230000D01*
X254351Y229703D01*
X254636Y229418D01*
X254586Y229149D01*
X254451Y228918D01*
X243855D01*
Y234388D01*
X244271Y234666D01*
X244680Y235278D01*
X244823Y236000D01*
X244680Y236722D01*
X244271Y237334D01*
X243659Y237743D01*
X242937Y237886D01*
X242215Y237743D01*
X241603Y237334D01*
X241194Y236722D01*
X241051Y236000D01*
X241194Y235278D01*
X241603Y234666D01*
X242019Y234388D01*
Y228918D01*
X237612D01*
X237334Y229334D01*
X236722Y229743D01*
X236000Y229886D01*
X235278Y229743D01*
X234666Y229334D01*
X234257Y228722D01*
X234114Y228000D01*
X234257Y227278D01*
X234666Y226666D01*
X235278Y226257D01*
X236000Y226114D01*
X236722Y226257D01*
X237334Y226666D01*
X237612Y227082D01*
X264620D01*
X267082Y224620D01*
Y220267D01*
X266864Y220238D01*
X265806Y219800D01*
X264897Y219103D01*
X264200Y218194D01*
X263762Y217136D01*
X263613Y216000D01*
X263762Y214864D01*
X264200Y213806D01*
X264897Y212897D01*
X265806Y212200D01*
X266864Y211762D01*
X268000Y211613D01*
X269136Y211762D01*
X270194Y212200D01*
X271102Y212897D01*
X271800Y213806D01*
X272238Y214864D01*
X272388Y216000D01*
X272238Y217136D01*
X271800Y218194D01*
X271102Y219103D01*
X270194Y219800D01*
X269136Y220238D01*
X268918Y220267D01*
Y225000D01*
X268848Y225351D01*
X268649Y225649D01*
X265715Y228582D01*
X265766Y228851D01*
X265900Y229082D01*
X266000D01*
X266351Y229152D01*
X266649Y229351D01*
X270649Y233351D01*
X270848Y233649D01*
X270918Y234000D01*
Y242000D01*
X270848Y242351D01*
X270649Y242649D01*
X266649Y246649D01*
X266351Y246848D01*
X266000Y246918D01*
X247162D01*
X247097Y247004D01*
X247214Y247683D01*
X247512Y247882D01*
X248009Y248626D01*
X248084Y249004D01*
X243695D01*
X243770Y248626D01*
X244267Y247882D01*
X244565Y247683D01*
X244681Y247004D01*
X244617Y246918D01*
X215612D01*
X215334Y247334D01*
X214722Y247743D01*
X214000Y247886D01*
X213278Y247743D01*
X212666Y247334D01*
X212257Y246722D01*
X212114Y246000D01*
X212257Y245278D01*
X212666Y244666D01*
X213038Y244418D01*
X212887Y243918D01*
X210380D01*
X204649Y249649D01*
X204351Y249848D01*
X204000Y249918D01*
D02*
G37*
G36*
X208500Y232195D02*
Y230500D01*
X210195D01*
X210120Y230878D01*
X209622Y231622D01*
X208878Y232119D01*
X208500Y232195D01*
D02*
G37*
G36*
X207500D02*
X207122Y232119D01*
X206378Y231622D01*
X205880Y230878D01*
X205805Y230500D01*
X207500D01*
Y232195D01*
D02*
G37*
G36*
X229500Y230195D02*
Y228500D01*
X231195D01*
X231119Y228878D01*
X230622Y229622D01*
X229878Y230119D01*
X229500Y230195D01*
D02*
G37*
G36*
X228500D02*
X228122Y230119D01*
X227378Y229622D01*
X226881Y228878D01*
X226805Y228500D01*
X228500D01*
Y230195D01*
D02*
G37*
G36*
X210195Y229500D02*
X208500D01*
Y227805D01*
X208878Y227881D01*
X209622Y228378D01*
X210120Y229122D01*
X210195Y229500D01*
D02*
G37*
G36*
X207500D02*
X205805D01*
X205880Y229122D01*
X206378Y228378D01*
X207122Y227881D01*
X207500Y227805D01*
Y229500D01*
D02*
G37*
G36*
X217380Y228710D02*
Y227016D01*
X219074D01*
X218999Y227394D01*
X218502Y228138D01*
X217758Y228635D01*
X217380Y228710D01*
D02*
G37*
G36*
X216380D02*
X216002Y228635D01*
X215258Y228138D01*
X214760Y227394D01*
X214685Y227016D01*
X216380D01*
Y228710D01*
D02*
G37*
G36*
X231195Y227500D02*
X229500D01*
Y225805D01*
X229878Y225881D01*
X230622Y226378D01*
X231119Y227122D01*
X231195Y227500D01*
D02*
G37*
G36*
X228500D02*
X226805D01*
X226881Y227122D01*
X227378Y226378D01*
X228122Y225881D01*
X228500Y225805D01*
Y227500D01*
D02*
G37*
G36*
X219074Y226016D02*
X217380D01*
Y224321D01*
X217758Y224396D01*
X218502Y224893D01*
X218999Y225638D01*
X219074Y226016D01*
D02*
G37*
G36*
X216380D02*
X214685D01*
X214760Y225638D01*
X215258Y224893D01*
X216002Y224396D01*
X216380Y224321D01*
Y226016D01*
D02*
G37*
G36*
X181000Y232387D02*
X179864Y232238D01*
X178806Y231800D01*
X177898Y231102D01*
X177200Y230194D01*
X176762Y229136D01*
X176612Y228000D01*
X176762Y226864D01*
X177200Y225806D01*
X177898Y224898D01*
X178806Y224200D01*
X179864Y223762D01*
X181000Y223612D01*
X182136Y223762D01*
X183194Y224200D01*
X184102Y224898D01*
X184800Y225806D01*
X185238Y226864D01*
X185388Y228000D01*
X185238Y229136D01*
X184800Y230194D01*
X184102Y231102D01*
X183194Y231800D01*
X182136Y232238D01*
X181000Y232387D01*
D02*
G37*
G36*
X96000Y230387D02*
X94864Y230238D01*
X93806Y229800D01*
X92897Y229102D01*
X92200Y228194D01*
X91762Y227136D01*
X91612Y226000D01*
X91762Y224864D01*
X92200Y223806D01*
X92897Y222898D01*
X93806Y222200D01*
X94864Y221762D01*
X96000Y221613D01*
X97136Y221762D01*
X98194Y222200D01*
X99102Y222898D01*
X99800Y223806D01*
X100238Y224864D01*
X100388Y226000D01*
X100238Y227136D01*
X99800Y228194D01*
X99102Y229102D01*
X98194Y229800D01*
X97136Y230238D01*
X96000Y230387D01*
D02*
G37*
G36*
X76500Y223195D02*
Y221500D01*
X78195D01*
X78119Y221878D01*
X77622Y222622D01*
X76878Y223119D01*
X76500Y223195D01*
D02*
G37*
G36*
X75500D02*
X75122Y223119D01*
X74378Y222622D01*
X73881Y221878D01*
X73805Y221500D01*
X75500D01*
Y223195D01*
D02*
G37*
G36*
X200000Y221886D02*
X199278Y221743D01*
X198666Y221334D01*
X198388Y220918D01*
X162612D01*
X162334Y221334D01*
X161722Y221743D01*
X161000Y221886D01*
X160278Y221743D01*
X159666Y221334D01*
X159257Y220722D01*
X159114Y220000D01*
X159257Y219278D01*
X159666Y218666D01*
X160278Y218257D01*
X161000Y218114D01*
X161722Y218257D01*
X162334Y218666D01*
X162612Y219082D01*
X198388D01*
X198666Y218666D01*
X199278Y218257D01*
X200000Y218114D01*
X200722Y218257D01*
X201334Y218666D01*
X201743Y219278D01*
X201886Y220000D01*
X201743Y220722D01*
X201334Y221334D01*
X200722Y221743D01*
X200000Y221886D01*
D02*
G37*
G36*
X78195Y220500D02*
X76500D01*
Y218805D01*
X76878Y218881D01*
X77622Y219378D01*
X78119Y220122D01*
X78195Y220500D01*
D02*
G37*
G36*
X75500D02*
X73805D01*
X73881Y220122D01*
X74378Y219378D01*
X75122Y218881D01*
X75500Y218805D01*
Y220500D01*
D02*
G37*
G36*
X96000Y220388D02*
X94864Y220238D01*
X93806Y219800D01*
X92897Y219103D01*
X92200Y218194D01*
X91762Y217136D01*
X91612Y216000D01*
X91762Y214864D01*
X92200Y213806D01*
X92897Y212897D01*
X93806Y212200D01*
X94864Y211762D01*
X96000Y211613D01*
X97136Y211762D01*
X98194Y212200D01*
X99102Y212897D01*
X99800Y213806D01*
X100238Y214864D01*
X100388Y216000D01*
X100238Y217136D01*
X99800Y218194D01*
X99102Y219103D01*
X98194Y219800D01*
X97136Y220238D01*
X96000Y220388D01*
D02*
G37*
G36*
X316981Y212675D02*
Y210981D01*
X318675D01*
X318600Y211359D01*
X318103Y212103D01*
X317359Y212600D01*
X316981Y212675D01*
D02*
G37*
G36*
X315981D02*
X315603Y212600D01*
X314859Y212103D01*
X314361Y211359D01*
X314286Y210981D01*
X315981D01*
Y212675D01*
D02*
G37*
G36*
X113934Y210338D02*
Y208644D01*
X115629D01*
X115553Y209022D01*
X115056Y209766D01*
X114312Y210263D01*
X113934Y210338D01*
D02*
G37*
G36*
X112934D02*
X112556Y210263D01*
X111812Y209766D01*
X111314Y209022D01*
X111239Y208644D01*
X112934D01*
Y210338D01*
D02*
G37*
G36*
X161500Y210195D02*
Y208500D01*
X163195D01*
X163119Y208878D01*
X162622Y209622D01*
X161878Y210120D01*
X161500Y210195D01*
D02*
G37*
G36*
X160500D02*
X160122Y210120D01*
X159378Y209622D01*
X158880Y208878D01*
X158805Y208500D01*
X160500D01*
Y210195D01*
D02*
G37*
G36*
X318675Y209981D02*
X316981D01*
Y208286D01*
X317359Y208361D01*
X318103Y208859D01*
X318600Y209603D01*
X318675Y209981D01*
D02*
G37*
G36*
X315981D02*
X314286D01*
X314361Y209603D01*
X314859Y208859D01*
X315603Y208361D01*
X315981Y208286D01*
Y209981D01*
D02*
G37*
G36*
X128739Y209650D02*
Y207955D01*
X130434D01*
X130359Y208333D01*
X129861Y209077D01*
X129117Y209575D01*
X128739Y209650D01*
D02*
G37*
G36*
X127739D02*
X127361Y209575D01*
X126617Y209077D01*
X126120Y208333D01*
X126045Y207955D01*
X127739D01*
Y209650D01*
D02*
G37*
G36*
X144500Y208195D02*
Y206500D01*
X146195D01*
X146119Y206878D01*
X145622Y207622D01*
X144878Y208120D01*
X144500Y208195D01*
D02*
G37*
G36*
X143500D02*
X143122Y208120D01*
X142378Y207622D01*
X141881Y206878D01*
X141805Y206500D01*
X143500D01*
Y208195D01*
D02*
G37*
G36*
X39500D02*
Y206500D01*
X41195D01*
X41120Y206878D01*
X40622Y207622D01*
X39878Y208120D01*
X39500Y208195D01*
D02*
G37*
G36*
X38500D02*
X38122Y208120D01*
X37378Y207622D01*
X36880Y206878D01*
X36805Y206500D01*
X38500D01*
Y208195D01*
D02*
G37*
G36*
X115629Y207644D02*
X113934D01*
Y205949D01*
X114312Y206024D01*
X115056Y206522D01*
X115553Y207266D01*
X115629Y207644D01*
D02*
G37*
G36*
X112934D02*
X111239D01*
X111314Y207266D01*
X111812Y206522D01*
X112556Y206024D01*
X112934Y205949D01*
Y207644D01*
D02*
G37*
G36*
X163195Y207500D02*
X161500D01*
Y205805D01*
X161878Y205880D01*
X162622Y206378D01*
X163119Y207122D01*
X163195Y207500D01*
D02*
G37*
G36*
X160500D02*
X158805D01*
X158880Y207122D01*
X159378Y206378D01*
X160122Y205880D01*
X160500Y205805D01*
Y207500D01*
D02*
G37*
G36*
X130434Y206955D02*
X128739D01*
Y205260D01*
X129117Y205336D01*
X129861Y205833D01*
X130359Y206577D01*
X130434Y206955D01*
D02*
G37*
G36*
X127739D02*
X126045D01*
X126120Y206577D01*
X126617Y205833D01*
X127361Y205336D01*
X127739Y205260D01*
Y206955D01*
D02*
G37*
G36*
X377111Y206817D02*
Y205122D01*
X378806D01*
X378731Y205500D01*
X378234Y206244D01*
X377489Y206741D01*
X377111Y206817D01*
D02*
G37*
G36*
X376111D02*
X375733Y206741D01*
X374989Y206244D01*
X374492Y205500D01*
X374417Y205122D01*
X376111D01*
Y206817D01*
D02*
G37*
G36*
X146195Y205500D02*
X144500D01*
Y203805D01*
X144878Y203881D01*
X145622Y204378D01*
X146119Y205122D01*
X146195Y205500D01*
D02*
G37*
G36*
X143500D02*
X141805D01*
X141881Y205122D01*
X142378Y204378D01*
X143122Y203881D01*
X143500Y203805D01*
Y205500D01*
D02*
G37*
G36*
X41195D02*
X39500D01*
Y203805D01*
X39878Y203881D01*
X40622Y204378D01*
X41120Y205122D01*
X41195Y205500D01*
D02*
G37*
G36*
X38500D02*
X36805D01*
X36880Y205122D01*
X37378Y204378D01*
X38122Y203881D01*
X38500Y203805D01*
Y205500D01*
D02*
G37*
G36*
X287378Y204350D02*
Y202655D01*
X289073D01*
X288997Y203033D01*
X288500Y203777D01*
X287756Y204274D01*
X287378Y204350D01*
D02*
G37*
G36*
X286378D02*
X286000Y204274D01*
X285256Y203777D01*
X284758Y203033D01*
X284683Y202655D01*
X286378D01*
Y204350D01*
D02*
G37*
G36*
X378806Y204122D02*
X377111D01*
Y202427D01*
X377489Y202502D01*
X378234Y203000D01*
X378731Y203744D01*
X378806Y204122D01*
D02*
G37*
G36*
X376111D02*
X374417D01*
X374492Y203744D01*
X374989Y203000D01*
X375733Y202502D01*
X376111Y202427D01*
Y204122D01*
D02*
G37*
G36*
X289073Y201655D02*
X287378D01*
Y199960D01*
X287756Y200036D01*
X288500Y200533D01*
X288997Y201277D01*
X289073Y201655D01*
D02*
G37*
G36*
X286378D02*
X284683D01*
X284758Y201277D01*
X285256Y200533D01*
X286000Y200036D01*
X286378Y199960D01*
Y201655D01*
D02*
G37*
G36*
X360500Y201195D02*
Y199500D01*
X362195D01*
X362120Y199878D01*
X361622Y200622D01*
X360878Y201119D01*
X360500Y201195D01*
D02*
G37*
G36*
X359500D02*
X359122Y201119D01*
X358378Y200622D01*
X357880Y199878D01*
X357805Y199500D01*
X359500D01*
Y201195D01*
D02*
G37*
G36*
X362195Y198500D02*
X360500D01*
Y196805D01*
X360878Y196880D01*
X361622Y197378D01*
X362120Y198122D01*
X362195Y198500D01*
D02*
G37*
G36*
X359500D02*
X357805D01*
X357880Y198122D01*
X358378Y197378D01*
X359122Y196880D01*
X359500Y196805D01*
Y198500D01*
D02*
G37*
G36*
X141500Y198195D02*
Y196500D01*
X143195D01*
X143120Y196878D01*
X142622Y197622D01*
X141878Y198119D01*
X141500Y198195D01*
D02*
G37*
G36*
X140500D02*
X140122Y198119D01*
X139378Y197622D01*
X138881Y196878D01*
X138805Y196500D01*
X140500D01*
Y198195D01*
D02*
G37*
G36*
X110500Y197195D02*
Y195500D01*
X112195D01*
X112119Y195878D01*
X111622Y196622D01*
X110878Y197119D01*
X110500Y197195D01*
D02*
G37*
G36*
X109500D02*
X109122Y197119D01*
X108378Y196622D01*
X107880Y195878D01*
X107805Y195500D01*
X109500D01*
Y197195D01*
D02*
G37*
G36*
X143195Y195500D02*
X141500D01*
Y193805D01*
X141878Y193880D01*
X142622Y194378D01*
X143120Y195122D01*
X143195Y195500D01*
D02*
G37*
G36*
X140500D02*
X138805D01*
X138881Y195122D01*
X139378Y194378D01*
X140122Y193880D01*
X140500Y193805D01*
Y195500D01*
D02*
G37*
G36*
X121500Y195195D02*
Y193500D01*
X123195D01*
X123119Y193878D01*
X122622Y194622D01*
X121878Y195120D01*
X121500Y195195D01*
D02*
G37*
G36*
X120500D02*
X120122Y195120D01*
X119378Y194622D01*
X118880Y193878D01*
X118805Y193500D01*
X120500D01*
Y195195D01*
D02*
G37*
G36*
X112195Y194500D02*
X110500D01*
Y192805D01*
X110878Y192880D01*
X111622Y193378D01*
X112119Y194122D01*
X112195Y194500D01*
D02*
G37*
G36*
X109500D02*
X107805D01*
X107880Y194122D01*
X108378Y193378D01*
X109122Y192880D01*
X109500Y192805D01*
Y194500D01*
D02*
G37*
G36*
X333500Y194195D02*
Y192500D01*
X335195D01*
X335120Y192878D01*
X334622Y193622D01*
X333878Y194120D01*
X333500Y194195D01*
D02*
G37*
G36*
X332500D02*
X332122Y194120D01*
X331378Y193622D01*
X330880Y192878D01*
X330805Y192500D01*
X332500D01*
Y194195D01*
D02*
G37*
G36*
X72500Y193195D02*
Y191500D01*
X74195D01*
X74119Y191878D01*
X73622Y192622D01*
X72878Y193120D01*
X72500Y193195D01*
D02*
G37*
G36*
X71500D02*
X71122Y193120D01*
X70378Y192622D01*
X69881Y191878D01*
X69805Y191500D01*
X71500D01*
Y193195D01*
D02*
G37*
G36*
X123195Y192500D02*
X121500D01*
Y190805D01*
X121878Y190881D01*
X122622Y191378D01*
X123119Y192122D01*
X123195Y192500D01*
D02*
G37*
G36*
X120500D02*
X118805D01*
X118880Y192122D01*
X119378Y191378D01*
X120122Y190881D01*
X120500Y190805D01*
Y192500D01*
D02*
G37*
G36*
X335195Y191500D02*
X333500D01*
Y189805D01*
X333878Y189881D01*
X334622Y190378D01*
X335120Y191122D01*
X335195Y191500D01*
D02*
G37*
G36*
X332500D02*
X330805D01*
X330880Y191122D01*
X331378Y190378D01*
X332122Y189881D01*
X332500Y189805D01*
Y191500D01*
D02*
G37*
G36*
X74195Y190500D02*
X72500D01*
Y188805D01*
X72878Y188881D01*
X73622Y189378D01*
X74119Y190122D01*
X74195Y190500D01*
D02*
G37*
G36*
X71500D02*
X69805D01*
X69881Y190122D01*
X70378Y189378D01*
X71122Y188881D01*
X71500Y188805D01*
Y190500D01*
D02*
G37*
G36*
X50500Y189195D02*
Y187500D01*
X52195D01*
X52119Y187878D01*
X51622Y188622D01*
X50878Y189120D01*
X50500Y189195D01*
D02*
G37*
G36*
X49500D02*
X49122Y189120D01*
X48378Y188622D01*
X47881Y187878D01*
X47805Y187500D01*
X49500D01*
Y189195D01*
D02*
G37*
G36*
X231000Y194387D02*
X229864Y194238D01*
X228806Y193800D01*
X227898Y193103D01*
X227200Y192194D01*
X226762Y191136D01*
X226612Y190000D01*
X226762Y188864D01*
X227200Y187806D01*
X227898Y186898D01*
X228806Y186200D01*
X229864Y185762D01*
X231000Y185612D01*
X232136Y185762D01*
X233194Y186200D01*
X234103Y186898D01*
X234800Y187806D01*
X235238Y188864D01*
X235387Y190000D01*
X235238Y191136D01*
X234800Y192194D01*
X234103Y193103D01*
X233194Y193800D01*
X232136Y194238D01*
X231000Y194387D01*
D02*
G37*
G36*
X52195Y186500D02*
X50500D01*
Y184805D01*
X50878Y184880D01*
X51622Y185378D01*
X52119Y186122D01*
X52195Y186500D01*
D02*
G37*
G36*
X49500D02*
X47805D01*
X47881Y186122D01*
X48378Y185378D01*
X49122Y184880D01*
X49500Y184805D01*
Y186500D01*
D02*
G37*
G36*
X313000Y193387D02*
X311864Y193238D01*
X310806Y192800D01*
X309897Y192103D01*
X309200Y191194D01*
X308762Y190136D01*
X308612Y189000D01*
X308762Y187864D01*
X309200Y186806D01*
X309897Y185898D01*
X310806Y185200D01*
X311864Y184762D01*
X313000Y184613D01*
X314136Y184762D01*
X315194Y185200D01*
X316103Y185898D01*
X316800Y186806D01*
X317238Y187864D01*
X317388Y189000D01*
X317238Y190136D01*
X316800Y191194D01*
X316103Y192103D01*
X315194Y192800D01*
X314136Y193238D01*
X313000Y193387D01*
D02*
G37*
G36*
X145500Y186195D02*
Y184500D01*
X147195D01*
X147119Y184878D01*
X146622Y185622D01*
X145878Y186119D01*
X145500Y186195D01*
D02*
G37*
G36*
X144500D02*
X144122Y186119D01*
X143378Y185622D01*
X142880Y184878D01*
X142805Y184500D01*
X144500D01*
Y186195D01*
D02*
G37*
G36*
X113500D02*
Y184500D01*
X115195D01*
X115120Y184878D01*
X114622Y185622D01*
X113878Y186119D01*
X113500Y186195D01*
D02*
G37*
G36*
X112500D02*
X112122Y186119D01*
X111378Y185622D01*
X110880Y184878D01*
X110805Y184500D01*
X112500D01*
Y186195D01*
D02*
G37*
G36*
X147195Y183500D02*
X145500D01*
Y181805D01*
X145878Y181880D01*
X146622Y182378D01*
X147119Y183122D01*
X147195Y183500D01*
D02*
G37*
G36*
X144500D02*
X142805D01*
X142880Y183122D01*
X143378Y182378D01*
X144122Y181880D01*
X144500Y181805D01*
Y183500D01*
D02*
G37*
G36*
X115195D02*
X113500D01*
Y181805D01*
X113878Y181880D01*
X114622Y182378D01*
X115120Y183122D01*
X115195Y183500D01*
D02*
G37*
G36*
X112500D02*
X110805D01*
X110880Y183122D01*
X111378Y182378D01*
X112122Y181880D01*
X112500Y181805D01*
Y183500D01*
D02*
G37*
G36*
X127500Y183195D02*
Y181500D01*
X129195D01*
X129120Y181878D01*
X128622Y182622D01*
X127878Y183119D01*
X127500Y183195D01*
D02*
G37*
G36*
X126500D02*
X126122Y183119D01*
X125378Y182622D01*
X124881Y181878D01*
X124805Y181500D01*
X126500D01*
Y183195D01*
D02*
G37*
G36*
X293854Y180606D02*
Y178911D01*
X295548D01*
X295473Y179289D01*
X294976Y180033D01*
X294232Y180531D01*
X293854Y180606D01*
D02*
G37*
G36*
X292854D02*
X292476Y180531D01*
X291731Y180033D01*
X291234Y179289D01*
X291159Y178911D01*
X292854D01*
Y180606D01*
D02*
G37*
G36*
X129195Y180500D02*
X127500D01*
Y178805D01*
X127878Y178881D01*
X128622Y179378D01*
X129120Y180122D01*
X129195Y180500D01*
D02*
G37*
G36*
X126500D02*
X124805D01*
X124881Y180122D01*
X125378Y179378D01*
X126122Y178881D01*
X126500Y178805D01*
Y180500D01*
D02*
G37*
G36*
X295548Y177911D02*
X293854D01*
Y176216D01*
X294232Y176292D01*
X294976Y176789D01*
X295473Y177533D01*
X295548Y177911D01*
D02*
G37*
G36*
X292854D02*
X291159D01*
X291234Y177533D01*
X291731Y176789D01*
X292476Y176292D01*
X292854Y176216D01*
Y177911D01*
D02*
G37*
G36*
X71928Y176941D02*
Y175246D01*
X73623D01*
X73548Y175624D01*
X73051Y176368D01*
X72306Y176865D01*
X71928Y176941D01*
D02*
G37*
G36*
X70928D02*
X70551Y176865D01*
X69806Y176368D01*
X69309Y175624D01*
X69234Y175246D01*
X70928D01*
Y176941D01*
D02*
G37*
G36*
X73623Y174246D02*
X71928D01*
Y172551D01*
X72306Y172626D01*
X73051Y173124D01*
X73548Y173868D01*
X73623Y174246D01*
D02*
G37*
G36*
X70928D02*
X69234D01*
X69309Y173868D01*
X69806Y173124D01*
X70551Y172626D01*
X70928Y172551D01*
Y174246D01*
D02*
G37*
G36*
X201216Y172464D02*
Y170770D01*
X202911D01*
X202835Y171148D01*
X202338Y171892D01*
X201594Y172389D01*
X201216Y172464D01*
D02*
G37*
G36*
X200216D02*
X199838Y172389D01*
X199094Y171892D01*
X198597Y171148D01*
X198521Y170770D01*
X200216D01*
Y172464D01*
D02*
G37*
G36*
X175737Y172120D02*
Y170425D01*
X177432D01*
X177357Y170803D01*
X176859Y171548D01*
X176115Y172045D01*
X175737Y172120D01*
D02*
G37*
G36*
X174737D02*
X174359Y172045D01*
X173615Y171548D01*
X173118Y170803D01*
X173043Y170425D01*
X174737D01*
Y172120D01*
D02*
G37*
G36*
X159383Y170743D02*
Y169048D01*
X161077D01*
X161002Y169426D01*
X160505Y170170D01*
X159760Y170668D01*
X159383Y170743D01*
D02*
G37*
G36*
X158383D02*
X158005Y170668D01*
X157260Y170170D01*
X156763Y169426D01*
X156688Y169048D01*
X158383D01*
Y170743D01*
D02*
G37*
G36*
X202911Y169770D02*
X201216D01*
Y168075D01*
X201594Y168150D01*
X202338Y168648D01*
X202835Y169392D01*
X202911Y169770D01*
D02*
G37*
G36*
X200216D02*
X198521D01*
X198597Y169392D01*
X199094Y168648D01*
X199838Y168150D01*
X200216Y168075D01*
Y169770D01*
D02*
G37*
G36*
X177432Y169425D02*
X175737D01*
Y167731D01*
X176115Y167806D01*
X176859Y168303D01*
X177357Y169048D01*
X177432Y169425D01*
D02*
G37*
G36*
X174737D02*
X173043D01*
X173118Y169048D01*
X173615Y168303D01*
X174359Y167806D01*
X174737Y167731D01*
Y169425D01*
D02*
G37*
G36*
X161077Y168048D02*
X159383D01*
Y166354D01*
X159760Y166429D01*
X160505Y166926D01*
X161002Y167670D01*
X161077Y168048D01*
D02*
G37*
G36*
X158383D02*
X156688D01*
X156763Y167670D01*
X157260Y166926D01*
X158005Y166429D01*
X158383Y166354D01*
Y168048D01*
D02*
G37*
G36*
X209824Y164890D02*
Y163195D01*
X211518D01*
X211443Y163573D01*
X210946Y164317D01*
X210202Y164814D01*
X209824Y164890D01*
D02*
G37*
G36*
X208824D02*
X208446Y164814D01*
X207702Y164317D01*
X207204Y163573D01*
X207129Y163195D01*
X208824D01*
Y164890D01*
D02*
G37*
G36*
X171000Y198886D02*
X170278Y198743D01*
X169666Y198334D01*
X169257Y197722D01*
X169114Y197000D01*
X169257Y196278D01*
X169666Y195666D01*
X170082Y195388D01*
Y184000D01*
X170152Y183649D01*
X170351Y183351D01*
X176351Y177351D01*
X176649Y177152D01*
X177000Y177082D01*
X211620D01*
X216082Y172620D01*
Y166612D01*
X215666Y166334D01*
X215257Y165722D01*
X215114Y165000D01*
X215257Y164278D01*
X215666Y163666D01*
X216278Y163257D01*
X217000Y163114D01*
X217722Y163257D01*
X218334Y163666D01*
X218743Y164278D01*
X218886Y165000D01*
X218743Y165722D01*
X218334Y166334D01*
X217918Y166612D01*
Y173000D01*
X217848Y173351D01*
X217649Y173649D01*
X212649Y178649D01*
X212351Y178848D01*
X212000Y178918D01*
X177380D01*
X171918Y184380D01*
Y195388D01*
X172334Y195666D01*
X172743Y196278D01*
X172886Y197000D01*
X172743Y197722D01*
X172334Y198334D01*
X171722Y198743D01*
X171000Y198886D01*
D02*
G37*
G36*
X54024Y163685D02*
Y161990D01*
X55719D01*
X55644Y162368D01*
X55147Y163112D01*
X54402Y163609D01*
X54024Y163685D01*
D02*
G37*
G36*
X53024D02*
X52646Y163609D01*
X51902Y163112D01*
X51405Y162368D01*
X51330Y161990D01*
X53024D01*
Y163685D01*
D02*
G37*
G36*
X143544Y163685D02*
Y161990D01*
X145239D01*
X145164Y162368D01*
X144667Y163112D01*
X143922Y163609D01*
X143544Y163685D01*
D02*
G37*
G36*
X142544D02*
X142166Y163609D01*
X141422Y163112D01*
X140925Y162368D01*
X140850Y161990D01*
X142544D01*
Y163685D01*
D02*
G37*
G36*
X211518Y162195D02*
X209824D01*
Y160500D01*
X210202Y160576D01*
X210946Y161073D01*
X211443Y161817D01*
X211518Y162195D01*
D02*
G37*
G36*
X208824D02*
X207129D01*
X207204Y161817D01*
X207702Y161073D01*
X208446Y160576D01*
X208824Y160500D01*
Y162195D01*
D02*
G37*
G36*
X55719Y160990D02*
X54024D01*
Y159295D01*
X54402Y159371D01*
X55147Y159868D01*
X55644Y160612D01*
X55719Y160990D01*
D02*
G37*
G36*
X53024D02*
X51330D01*
X51405Y160612D01*
X51902Y159868D01*
X52646Y159371D01*
X53024Y159295D01*
Y160990D01*
D02*
G37*
G36*
X145239Y160990D02*
X143544D01*
Y159295D01*
X143922Y159371D01*
X144667Y159868D01*
X145164Y160612D01*
X145239Y160990D01*
D02*
G37*
G36*
X142544D02*
X140850D01*
X140925Y160612D01*
X141422Y159868D01*
X142166Y159371D01*
X142544Y159295D01*
Y160990D01*
D02*
G37*
G36*
X329500Y160195D02*
Y158500D01*
X331195D01*
X331119Y158878D01*
X330622Y159622D01*
X329878Y160119D01*
X329500Y160195D01*
D02*
G37*
G36*
X328500D02*
X328122Y160119D01*
X327378Y159622D01*
X326881Y158878D01*
X326805Y158500D01*
X328500D01*
Y160195D01*
D02*
G37*
G36*
X294500D02*
Y158500D01*
X296195D01*
X296119Y158878D01*
X295622Y159622D01*
X294878Y160119D01*
X294500Y160195D01*
D02*
G37*
G36*
X293500D02*
X293122Y160119D01*
X292378Y159622D01*
X291880Y158878D01*
X291805Y158500D01*
X293500D01*
Y160195D01*
D02*
G37*
G36*
X331195Y157500D02*
X329500D01*
Y155805D01*
X329878Y155880D01*
X330622Y156378D01*
X331119Y157122D01*
X331195Y157500D01*
D02*
G37*
G36*
X328500D02*
X326805D01*
X326881Y157122D01*
X327378Y156378D01*
X328122Y155880D01*
X328500Y155805D01*
Y157500D01*
D02*
G37*
G36*
X296195D02*
X294500D01*
Y155805D01*
X294878Y155880D01*
X295622Y156378D01*
X296119Y157122D01*
X296195Y157500D01*
D02*
G37*
G36*
X293500D02*
X291805D01*
X291880Y157122D01*
X292378Y156378D01*
X293122Y155880D01*
X293500Y155805D01*
Y157500D01*
D02*
G37*
G36*
X282500Y157195D02*
Y155500D01*
X284195D01*
X284120Y155878D01*
X283622Y156622D01*
X282878Y157120D01*
X282500Y157195D01*
D02*
G37*
G36*
X281500D02*
X281122Y157120D01*
X280378Y156622D01*
X279880Y155878D01*
X279805Y155500D01*
X281500D01*
Y157195D01*
D02*
G37*
G36*
X263000Y163388D02*
X261864Y163238D01*
X260806Y162800D01*
X259897Y162102D01*
X259200Y161194D01*
X258762Y160136D01*
X258612Y159000D01*
X258762Y157864D01*
X259200Y156806D01*
X259897Y155897D01*
X260806Y155200D01*
X261864Y154762D01*
X263000Y154613D01*
X264136Y154762D01*
X265194Y155200D01*
X266103Y155897D01*
X266800Y156806D01*
X267238Y157864D01*
X267388Y159000D01*
X267238Y160136D01*
X266800Y161194D01*
X266103Y162102D01*
X265194Y162800D01*
X264136Y163238D01*
X263000Y163388D01*
D02*
G37*
G36*
X253000D02*
X251864Y163238D01*
X250806Y162800D01*
X249898Y162102D01*
X249200Y161194D01*
X248762Y160136D01*
X248612Y159000D01*
X248762Y157864D01*
X249200Y156806D01*
X249898Y155897D01*
X250806Y155200D01*
X251864Y154762D01*
X253000Y154613D01*
X254136Y154762D01*
X255194Y155200D01*
X256102Y155897D01*
X256800Y156806D01*
X257238Y157864D01*
X257387Y159000D01*
X257238Y160136D01*
X256800Y161194D01*
X256102Y162102D01*
X255194Y162800D01*
X254136Y163238D01*
X253000Y163388D01*
D02*
G37*
G36*
X209307Y156282D02*
Y154587D01*
X211002D01*
X210927Y154965D01*
X210430Y155710D01*
X209685Y156207D01*
X209307Y156282D01*
D02*
G37*
G36*
X208307D02*
X207929Y156207D01*
X207185Y155710D01*
X206688Y154965D01*
X206613Y154587D01*
X208307D01*
Y156282D01*
D02*
G37*
G36*
X45072Y155938D02*
Y154243D01*
X46767D01*
X46692Y154621D01*
X46195Y155365D01*
X45450Y155862D01*
X45072Y155938D01*
D02*
G37*
G36*
X44072D02*
X43694Y155862D01*
X42950Y155365D01*
X42453Y154621D01*
X42378Y154243D01*
X44072D01*
Y155938D01*
D02*
G37*
G36*
X284195Y154500D02*
X282500D01*
Y152805D01*
X282878Y152881D01*
X283622Y153378D01*
X284120Y154122D01*
X284195Y154500D01*
D02*
G37*
G36*
X281500D02*
X279805D01*
X279880Y154122D01*
X280378Y153378D01*
X281122Y152881D01*
X281500Y152805D01*
Y154500D01*
D02*
G37*
G36*
X211002Y153587D02*
X209307D01*
Y151893D01*
X209685Y151968D01*
X210430Y152465D01*
X210927Y153209D01*
X211002Y153587D01*
D02*
G37*
G36*
X208307D02*
X206613D01*
X206688Y153209D01*
X207185Y152465D01*
X207929Y151968D01*
X208307Y151893D01*
Y153587D01*
D02*
G37*
G36*
X162309Y153527D02*
Y151833D01*
X164004D01*
X163929Y152211D01*
X163431Y152955D01*
X162687Y153452D01*
X162309Y153527D01*
D02*
G37*
G36*
X161309D02*
X160931Y153452D01*
X160187Y152955D01*
X159690Y152211D01*
X159615Y151833D01*
X161309D01*
Y153527D01*
D02*
G37*
G36*
X69518Y153355D02*
Y151661D01*
X71213D01*
X71138Y152039D01*
X70640Y152783D01*
X69896Y153280D01*
X69518Y153355D01*
D02*
G37*
G36*
X68518D02*
X68140Y153280D01*
X67396Y152783D01*
X66899Y152039D01*
X66824Y151661D01*
X68518D01*
Y153355D01*
D02*
G37*
G36*
X46767Y153243D02*
X45072D01*
Y151549D01*
X45450Y151624D01*
X46195Y152121D01*
X46692Y152865D01*
X46767Y153243D01*
D02*
G37*
G36*
X44072D02*
X42378D01*
X42453Y152865D01*
X42950Y152121D01*
X43694Y151624D01*
X44072Y151549D01*
Y153243D01*
D02*
G37*
G36*
X268500Y152195D02*
X268122Y152120D01*
X267378Y151622D01*
X266880Y150878D01*
X266805Y150500D01*
X268500D01*
Y152195D01*
D02*
G37*
G36*
X164004Y150833D02*
X162309D01*
Y149138D01*
X162687Y149213D01*
X163431Y149711D01*
X163929Y150455D01*
X164004Y150833D01*
D02*
G37*
G36*
X161309D02*
X159615D01*
X159690Y150455D01*
X160187Y149711D01*
X160931Y149213D01*
X161309Y149138D01*
Y150833D01*
D02*
G37*
G36*
X71213Y150661D02*
X69518D01*
Y148966D01*
X69896Y149041D01*
X70640Y149539D01*
X71138Y150283D01*
X71213Y150661D01*
D02*
G37*
G36*
X68518D02*
X66824D01*
X66899Y150283D01*
X67396Y149539D01*
X68140Y149041D01*
X68518Y148966D01*
Y150661D01*
D02*
G37*
G36*
X248386Y150084D02*
Y148390D01*
X250081D01*
X250006Y148768D01*
X249508Y149512D01*
X248764Y150009D01*
X248386Y150084D01*
D02*
G37*
G36*
X247386D02*
X247008Y150009D01*
X246264Y149512D01*
X245767Y148768D01*
X245692Y148390D01*
X247386D01*
Y150084D01*
D02*
G37*
G36*
X182796D02*
Y148390D01*
X184490D01*
X184415Y148768D01*
X183918Y149512D01*
X183174Y150009D01*
X182796Y150084D01*
D02*
G37*
G36*
X181796D02*
X181418Y150009D01*
X180673Y149512D01*
X180176Y148768D01*
X180101Y148390D01*
X181796D01*
Y150084D01*
D02*
G37*
G36*
X223768Y149740D02*
Y148046D01*
X225463D01*
X225388Y148423D01*
X224890Y149168D01*
X224146Y149665D01*
X223768Y149740D01*
D02*
G37*
G36*
X222768D02*
X222390Y149665D01*
X221646Y149168D01*
X221149Y148423D01*
X221074Y148046D01*
X222768D01*
Y149740D01*
D02*
G37*
G36*
X268500Y149500D02*
X266805D01*
X266880Y149122D01*
X267378Y148378D01*
X268122Y147880D01*
X268500Y147805D01*
Y149500D01*
D02*
G37*
G36*
X297500Y148195D02*
Y146500D01*
X299195D01*
X299119Y146878D01*
X298622Y147622D01*
X297878Y148119D01*
X297500Y148195D01*
D02*
G37*
G36*
X296500D02*
X296122Y148119D01*
X295378Y147622D01*
X294881Y146878D01*
X294805Y146500D01*
X296500D01*
Y148195D01*
D02*
G37*
G36*
X125500D02*
Y146500D01*
X127195D01*
X127120Y146878D01*
X126622Y147622D01*
X125878Y148119D01*
X125500Y148195D01*
D02*
G37*
G36*
X124500D02*
X124122Y148119D01*
X123378Y147622D01*
X122880Y146878D01*
X122805Y146500D01*
X124500D01*
Y148195D01*
D02*
G37*
G36*
X250081Y147390D02*
X248386D01*
Y145695D01*
X248764Y145770D01*
X249508Y146268D01*
X250006Y147012D01*
X250081Y147390D01*
D02*
G37*
G36*
X247386D02*
X245692D01*
X245767Y147012D01*
X246264Y146268D01*
X247008Y145770D01*
X247386Y145695D01*
Y147390D01*
D02*
G37*
G36*
X184490D02*
X182796D01*
Y145695D01*
X183174Y145770D01*
X183918Y146268D01*
X184415Y147012D01*
X184490Y147390D01*
D02*
G37*
G36*
X181796D02*
X180101D01*
X180176Y147012D01*
X180673Y146268D01*
X181418Y145770D01*
X181796Y145695D01*
Y147390D01*
D02*
G37*
G36*
X47655Y147330D02*
Y145635D01*
X49349D01*
X49274Y146013D01*
X48777Y146757D01*
X48033Y147255D01*
X47655Y147330D01*
D02*
G37*
G36*
X46655D02*
X46277Y147255D01*
X45533Y146757D01*
X45035Y146013D01*
X44960Y145635D01*
X46655D01*
Y147330D01*
D02*
G37*
G36*
X225463Y147046D02*
X223768D01*
Y145351D01*
X224146Y145426D01*
X224890Y145923D01*
X225388Y146668D01*
X225463Y147046D01*
D02*
G37*
G36*
X222768D02*
X221074D01*
X221149Y146668D01*
X221646Y145923D01*
X222390Y145426D01*
X222768Y145351D01*
Y147046D01*
D02*
G37*
G36*
X299195Y145500D02*
X297500D01*
Y143805D01*
X297878Y143880D01*
X298622Y144378D01*
X299119Y145122D01*
X299195Y145500D01*
D02*
G37*
G36*
X296500D02*
X294805D01*
X294881Y145122D01*
X295378Y144378D01*
X296122Y143880D01*
X296500Y143805D01*
Y145500D01*
D02*
G37*
G36*
X127195D02*
X125500D01*
Y143805D01*
X125878Y143880D01*
X126622Y144378D01*
X127120Y145122D01*
X127195Y145500D01*
D02*
G37*
G36*
X124500D02*
X122805D01*
X122880Y145122D01*
X123378Y144378D01*
X124122Y143880D01*
X124500Y143805D01*
Y145500D01*
D02*
G37*
G36*
X49349Y144635D02*
X47655D01*
Y142941D01*
X48033Y143016D01*
X48777Y143513D01*
X49274Y144257D01*
X49349Y144635D01*
D02*
G37*
G36*
X46655D02*
X44960D01*
X45035Y144257D01*
X45533Y143513D01*
X46277Y143016D01*
X46655Y142941D01*
Y144635D01*
D02*
G37*
G36*
X143889Y143715D02*
Y142020D01*
X145583D01*
X145508Y142398D01*
X145011Y143142D01*
X144267Y143640D01*
X143889Y143715D01*
D02*
G37*
G36*
X142889D02*
X142511Y143640D01*
X141767Y143142D01*
X141269Y142398D01*
X141194Y142020D01*
X142889D01*
Y143715D01*
D02*
G37*
G36*
X95500Y143195D02*
Y141500D01*
X97195D01*
X97119Y141878D01*
X96622Y142622D01*
X95878Y143120D01*
X95500Y143195D01*
D02*
G37*
G36*
X94500D02*
X94122Y143120D01*
X93378Y142622D01*
X92881Y141878D01*
X92805Y141500D01*
X94500D01*
Y143195D01*
D02*
G37*
G36*
X302500Y141195D02*
Y139500D01*
X304195D01*
X304119Y139878D01*
X303622Y140622D01*
X302878Y141120D01*
X302500Y141195D01*
D02*
G37*
G36*
X301500D02*
X301122Y141120D01*
X300378Y140622D01*
X299881Y139878D01*
X299805Y139500D01*
X301500D01*
Y141195D01*
D02*
G37*
G36*
X145583Y141020D02*
X143889D01*
Y139325D01*
X144267Y139401D01*
X145011Y139898D01*
X145508Y140642D01*
X145583Y141020D01*
D02*
G37*
G36*
X142889D02*
X141194D01*
X141269Y140642D01*
X141767Y139898D01*
X142511Y139401D01*
X142889Y139325D01*
Y141020D01*
D02*
G37*
G36*
X97195Y140500D02*
X95500D01*
Y138805D01*
X95878Y138881D01*
X96622Y139378D01*
X97119Y140122D01*
X97195Y140500D01*
D02*
G37*
G36*
X94500D02*
X92805D01*
X92881Y140122D01*
X93378Y139378D01*
X94122Y138881D01*
X94500Y138805D01*
Y140500D01*
D02*
G37*
G36*
X304195Y138500D02*
X302500D01*
Y136805D01*
X302878Y136881D01*
X303622Y137378D01*
X304119Y138122D01*
X304195Y138500D01*
D02*
G37*
G36*
X301500D02*
X299805D01*
X299881Y138122D01*
X300378Y137378D01*
X301122Y136881D01*
X301500Y136805D01*
Y138500D01*
D02*
G37*
G36*
X248386Y138206D02*
Y136511D01*
X250081D01*
X250006Y136889D01*
X249508Y137633D01*
X248764Y138131D01*
X248386Y138206D01*
D02*
G37*
G36*
X247386D02*
X247008Y138131D01*
X246264Y137633D01*
X245767Y136889D01*
X245692Y136511D01*
X247386D01*
Y138206D01*
D02*
G37*
G36*
X235500Y138195D02*
Y136500D01*
X237195D01*
X237120Y136878D01*
X236622Y137622D01*
X235878Y138119D01*
X235500Y138195D01*
D02*
G37*
G36*
X234500D02*
X234122Y138119D01*
X233378Y137622D01*
X232880Y136878D01*
X232805Y136500D01*
X234500D01*
Y138195D01*
D02*
G37*
G36*
X124500D02*
Y136500D01*
X126195D01*
X126119Y136878D01*
X125622Y137622D01*
X124878Y138119D01*
X124500Y138195D01*
D02*
G37*
G36*
X176082Y136656D02*
Y134962D01*
X177776D01*
X177701Y135340D01*
X177204Y136084D01*
X176459Y136581D01*
X176082Y136656D01*
D02*
G37*
G36*
X175082D02*
X174704Y136581D01*
X173959Y136084D01*
X173462Y135340D01*
X173387Y134962D01*
X175082D01*
Y136656D01*
D02*
G37*
G36*
X362000Y175329D02*
X359347Y175155D01*
X356739Y174636D01*
X354221Y173781D01*
X351836Y172605D01*
X349625Y171128D01*
X347625Y169375D01*
X345872Y167375D01*
X344395Y165164D01*
X343219Y162779D01*
X342364Y160261D01*
X341845Y157653D01*
X341671Y155000D01*
X341845Y152347D01*
X342364Y149739D01*
X343219Y147221D01*
X344395Y144836D01*
X345872Y142625D01*
X347625Y140626D01*
X349625Y138872D01*
X351836Y137395D01*
X354221Y136219D01*
X356739Y135364D01*
X359347Y134845D01*
X362000Y134671D01*
X364653Y134845D01*
X367261Y135364D01*
X369779Y136219D01*
X372164Y137395D01*
X374375Y138872D01*
X376375Y140626D01*
X378128Y142625D01*
X379605Y144836D01*
X380781Y147221D01*
X381636Y149739D01*
X382155Y152347D01*
X382329Y155000D01*
X382155Y157653D01*
X381636Y160261D01*
X380781Y162779D01*
X379605Y165164D01*
X378128Y167375D01*
X376375Y169375D01*
X374375Y171128D01*
X372164Y172605D01*
X369779Y173781D01*
X367261Y174636D01*
X364653Y175155D01*
X362000Y175329D01*
D02*
G37*
G36*
X250081Y135511D02*
X248386D01*
Y133817D01*
X248764Y133892D01*
X249508Y134389D01*
X250006Y135133D01*
X250081Y135511D01*
D02*
G37*
G36*
X247386D02*
X245692D01*
X245767Y135133D01*
X246264Y134389D01*
X247008Y133892D01*
X247386Y133817D01*
Y135511D01*
D02*
G37*
G36*
X237195Y135500D02*
X235500D01*
Y133805D01*
X235878Y133880D01*
X236622Y134378D01*
X237120Y135122D01*
X237195Y135500D01*
D02*
G37*
G36*
X234500D02*
X232805D01*
X232880Y135122D01*
X233378Y134378D01*
X234122Y133880D01*
X234500Y133805D01*
Y135500D01*
D02*
G37*
G36*
X126195D02*
X124500D01*
Y133805D01*
X124878Y133880D01*
X125622Y134378D01*
X126119Y135122D01*
X126195Y135500D01*
D02*
G37*
G36*
X114000Y147515D02*
X112339Y147351D01*
X110741Y146867D01*
X109269Y146080D01*
X107979Y145021D01*
X106920Y143731D01*
X106133Y142259D01*
X105649Y140661D01*
X105485Y139000D01*
X105649Y137339D01*
X106133Y135741D01*
X106920Y134269D01*
X107979Y132979D01*
X109269Y131920D01*
X110741Y131133D01*
X112339Y130649D01*
X114000Y130485D01*
X115661Y130649D01*
X117259Y131133D01*
X118731Y131920D01*
X120021Y132979D01*
X121080Y134269D01*
X121444Y134950D01*
X122004Y134937D01*
X122378Y134378D01*
X123122Y133880D01*
X123500Y133805D01*
Y136000D01*
Y138195D01*
X123122Y138119D01*
X122866Y137948D01*
X122437Y138205D01*
X122515Y139000D01*
X122351Y140661D01*
X121867Y142259D01*
X121080Y143731D01*
X120021Y145021D01*
X118731Y146080D01*
X117259Y146867D01*
X115661Y147351D01*
X114000Y147515D01*
D02*
G37*
G36*
X177776Y133962D02*
X176082D01*
Y132267D01*
X176459Y132342D01*
X177204Y132840D01*
X177701Y133584D01*
X177776Y133962D01*
D02*
G37*
G36*
X175082D02*
X173387D01*
X173462Y133584D01*
X173959Y132840D01*
X174704Y132342D01*
X175082Y132267D01*
Y133962D01*
D02*
G37*
G36*
X305541Y133730D02*
Y132035D01*
X307236D01*
X307161Y132413D01*
X306663Y133157D01*
X305919Y133655D01*
X305541Y133730D01*
D02*
G37*
G36*
X304541D02*
X304163Y133655D01*
X303419Y133157D01*
X302922Y132413D01*
X302847Y132035D01*
X304541D01*
Y133730D01*
D02*
G37*
G36*
X150500Y133195D02*
Y131500D01*
X152195D01*
X152120Y131878D01*
X151622Y132622D01*
X150878Y133119D01*
X150500Y133195D01*
D02*
G37*
G36*
X149500D02*
X149122Y133119D01*
X148378Y132622D01*
X147880Y131878D01*
X147805Y131500D01*
X149500D01*
Y133195D01*
D02*
G37*
G36*
X138036Y132353D02*
Y130658D01*
X139730D01*
X139655Y131036D01*
X139158Y131780D01*
X138413Y132277D01*
X138036Y132353D01*
D02*
G37*
G36*
X137036D02*
X136658Y132277D01*
X135913Y131780D01*
X135416Y131036D01*
X135341Y130658D01*
X137036D01*
Y132353D01*
D02*
G37*
G36*
X281500Y131195D02*
Y129500D01*
X283195D01*
X283120Y129878D01*
X282622Y130622D01*
X281878Y131120D01*
X281500Y131195D01*
D02*
G37*
G36*
X307236Y131035D02*
X305541D01*
Y129341D01*
X305919Y129416D01*
X306663Y129913D01*
X307161Y130657D01*
X307236Y131035D01*
D02*
G37*
G36*
X304541D02*
X302847D01*
X302922Y130657D01*
X303419Y129913D01*
X304163Y129416D01*
X304541Y129341D01*
Y131035D01*
D02*
G37*
G36*
X152195Y130500D02*
X150500D01*
Y128805D01*
X150878Y128881D01*
X151622Y129378D01*
X152120Y130122D01*
X152195Y130500D01*
D02*
G37*
G36*
X149500D02*
X147805D01*
X147880Y130122D01*
X148378Y129378D01*
X149122Y128881D01*
X149500Y128805D01*
Y130500D01*
D02*
G37*
G36*
X355526Y130343D02*
Y128648D01*
X357221D01*
X357145Y129026D01*
X356648Y129770D01*
X355904Y130268D01*
X355526Y130343D01*
D02*
G37*
G36*
X354526D02*
X354148Y130268D01*
X353404Y129770D01*
X352907Y129026D01*
X352831Y128648D01*
X354526D01*
Y130343D01*
D02*
G37*
G36*
X120500Y130195D02*
Y128500D01*
X122195D01*
X122119Y128878D01*
X121622Y129622D01*
X120878Y130120D01*
X120500Y130195D01*
D02*
G37*
G36*
X119500D02*
X119122Y130120D01*
X118378Y129622D01*
X117880Y128878D01*
X117805Y128500D01*
X119500D01*
Y130195D01*
D02*
G37*
G36*
X108500D02*
Y128500D01*
X110195D01*
X110119Y128878D01*
X109622Y129622D01*
X108878Y130120D01*
X108500Y130195D01*
D02*
G37*
G36*
X107500D02*
X107122Y130120D01*
X106378Y129622D01*
X105880Y128878D01*
X105805Y128500D01*
X107500D01*
Y130195D01*
D02*
G37*
G36*
X94500D02*
Y128500D01*
X96195D01*
X96119Y128878D01*
X95622Y129622D01*
X94878Y130120D01*
X94500Y130195D01*
D02*
G37*
G36*
X93500D02*
X93122Y130120D01*
X92378Y129622D01*
X91881Y128878D01*
X91805Y128500D01*
X93500D01*
Y130195D01*
D02*
G37*
G36*
X39500D02*
Y128500D01*
X41195D01*
X41120Y128878D01*
X40622Y129622D01*
X39878Y130120D01*
X39500Y130195D01*
D02*
G37*
G36*
X38500D02*
X38122Y130120D01*
X37378Y129622D01*
X36880Y128878D01*
X36805Y128500D01*
X38500D01*
Y130195D01*
D02*
G37*
G36*
X139730Y129658D02*
X138036D01*
Y127963D01*
X138413Y128039D01*
X139158Y128536D01*
X139655Y129280D01*
X139730Y129658D01*
D02*
G37*
G36*
X137036D02*
X135341D01*
X135416Y129280D01*
X135913Y128536D01*
X136658Y128039D01*
X137036Y127963D01*
Y129658D01*
D02*
G37*
G36*
X78500Y129195D02*
Y127500D01*
X80195D01*
X80119Y127878D01*
X79622Y128622D01*
X78878Y129120D01*
X78500Y129195D01*
D02*
G37*
G36*
X77500D02*
X77122Y129120D01*
X76378Y128622D01*
X75881Y127878D01*
X75805Y127500D01*
X77500D01*
Y129195D01*
D02*
G37*
G36*
X283195Y128500D02*
X281500D01*
Y126805D01*
X281878Y126881D01*
X282622Y127378D01*
X283120Y128122D01*
X283195Y128500D01*
D02*
G37*
G36*
X341341Y128184D02*
Y126489D01*
X343036D01*
X342961Y126867D01*
X342463Y127612D01*
X341719Y128109D01*
X341341Y128184D01*
D02*
G37*
G36*
X340341D02*
X339963Y128109D01*
X339219Y127612D01*
X338722Y126867D01*
X338647Y126489D01*
X340341D01*
Y128184D01*
D02*
G37*
G36*
X49000Y139918D02*
X27000D01*
X26649Y139848D01*
X26351Y139649D01*
X22351Y135649D01*
X22152Y135351D01*
X22082Y135000D01*
Y104000D01*
X22152Y103649D01*
X22351Y103351D01*
X31082Y94620D01*
Y82380D01*
X26351Y77649D01*
X26152Y77351D01*
X26082Y77000D01*
Y64000D01*
X26152Y63649D01*
X26351Y63351D01*
X32351Y57351D01*
X32649Y57152D01*
X33000Y57082D01*
X47000D01*
X47351Y57152D01*
X47649Y57351D01*
X51380Y61082D01*
X80837D01*
X81115Y60666D01*
X81727Y60257D01*
X82449Y60114D01*
X83171Y60257D01*
X83783Y60666D01*
X84192Y61278D01*
X84335Y62000D01*
X84192Y62722D01*
X83783Y63334D01*
X83171Y63743D01*
X82449Y63886D01*
X81727Y63743D01*
X81115Y63334D01*
X80837Y62918D01*
X51000D01*
X50903Y62898D01*
X50657Y63359D01*
X53630Y66332D01*
X77837D01*
X78115Y65916D01*
X78727Y65507D01*
X79449Y65364D01*
X80171Y65507D01*
X80783Y65916D01*
X81191Y66528D01*
X81335Y67250D01*
X81191Y67972D01*
X80783Y68584D01*
X80171Y68993D01*
X79449Y69136D01*
X78727Y68993D01*
X78115Y68584D01*
X77837Y68168D01*
X53250D01*
X52899Y68098D01*
X52601Y67899D01*
X46620Y61918D01*
X34380D01*
X32918Y63380D01*
Y78620D01*
X34649Y80351D01*
X34848Y80649D01*
X34918Y81000D01*
Y96000D01*
X34848Y96351D01*
X34649Y96649D01*
X26918Y104380D01*
Y129620D01*
X30380Y133082D01*
X40620D01*
X54351Y119351D01*
X54649Y119152D01*
X55000Y119082D01*
X58000D01*
X58351Y119152D01*
X58649Y119351D01*
X62649Y123351D01*
X62848Y123649D01*
X62918Y124000D01*
Y126388D01*
X63334Y126666D01*
X63743Y127278D01*
X63886Y128000D01*
X63743Y128722D01*
X63334Y129334D01*
X62722Y129743D01*
X62000Y129886D01*
X61278Y129743D01*
X60666Y129334D01*
X60257Y128722D01*
X60114Y128000D01*
X60257Y127278D01*
X60666Y126666D01*
X61082Y126388D01*
Y124380D01*
X57620Y120918D01*
X55380D01*
X41649Y134649D01*
X41351Y134848D01*
X41000Y134918D01*
X30000D01*
X29649Y134848D01*
X29351Y134649D01*
X25351Y130649D01*
X25152Y130351D01*
X25082Y130000D01*
Y104000D01*
X25102Y103903D01*
X24641Y103657D01*
X23918Y104380D01*
Y134620D01*
X27380Y138082D01*
X48620D01*
X55082Y131620D01*
Y129612D01*
X54666Y129334D01*
X54257Y128722D01*
X54114Y128000D01*
X54257Y127278D01*
X54666Y126666D01*
X55278Y126257D01*
X56000Y126114D01*
X56722Y126257D01*
X57334Y126666D01*
X57743Y127278D01*
X57886Y128000D01*
X57743Y128722D01*
X57334Y129334D01*
X56918Y129612D01*
Y132000D01*
X56848Y132351D01*
X56649Y132649D01*
X49649Y139649D01*
X49351Y139848D01*
X49000Y139918D01*
D02*
G37*
G36*
X357221Y127648D02*
X355526D01*
Y125953D01*
X355904Y126029D01*
X356648Y126526D01*
X357145Y127270D01*
X357221Y127648D01*
D02*
G37*
G36*
X354526D02*
X352831D01*
X352907Y127270D01*
X353404Y126526D01*
X354148Y126029D01*
X354526Y125953D01*
Y127648D01*
D02*
G37*
G36*
X122195Y127500D02*
X120500D01*
Y125805D01*
X120878Y125881D01*
X121622Y126378D01*
X122119Y127122D01*
X122195Y127500D01*
D02*
G37*
G36*
X119500D02*
X117805D01*
X117880Y127122D01*
X118378Y126378D01*
X119122Y125881D01*
X119500Y125805D01*
Y127500D01*
D02*
G37*
G36*
X110195D02*
X108500D01*
Y125805D01*
X108878Y125881D01*
X109622Y126378D01*
X110119Y127122D01*
X110195Y127500D01*
D02*
G37*
G36*
X107500D02*
X105805D01*
X105880Y127122D01*
X106378Y126378D01*
X107122Y125881D01*
X107500Y125805D01*
Y127500D01*
D02*
G37*
G36*
X96195D02*
X94500D01*
Y125805D01*
X94878Y125881D01*
X95622Y126378D01*
X96119Y127122D01*
X96195Y127500D01*
D02*
G37*
G36*
X93500D02*
X91805D01*
X91881Y127122D01*
X92378Y126378D01*
X93122Y125881D01*
X93500Y125805D01*
Y127500D01*
D02*
G37*
G36*
X41195D02*
X39500D01*
Y125805D01*
X39878Y125881D01*
X40622Y126378D01*
X41120Y127122D01*
X41195Y127500D01*
D02*
G37*
G36*
X38500D02*
X36805D01*
X36880Y127122D01*
X37378Y126378D01*
X38122Y125881D01*
X38500Y125805D01*
Y127500D01*
D02*
G37*
G36*
X211029Y127188D02*
Y125493D01*
X212723D01*
X212648Y125871D01*
X212151Y126616D01*
X211407Y127113D01*
X211029Y127188D01*
D02*
G37*
G36*
X210029D02*
X209651Y127113D01*
X208907Y126616D01*
X208409Y125871D01*
X208334Y125493D01*
X210029D01*
Y127188D01*
D02*
G37*
G36*
X80195Y126500D02*
X78500D01*
Y124805D01*
X78878Y124881D01*
X79622Y125378D01*
X80119Y126122D01*
X80195Y126500D01*
D02*
G37*
G36*
X77500D02*
X75805D01*
X75881Y126122D01*
X76378Y125378D01*
X77122Y124881D01*
X77500Y124805D01*
Y126500D01*
D02*
G37*
G36*
X268500Y126195D02*
Y124500D01*
X270195D01*
X270120Y124878D01*
X269622Y125622D01*
X268878Y126119D01*
X268500Y126195D01*
D02*
G37*
G36*
X267500D02*
X267122Y126119D01*
X266378Y125622D01*
X265880Y124878D01*
X265805Y124500D01*
X267500D01*
Y126195D01*
D02*
G37*
G36*
X343036Y125489D02*
X341341D01*
Y123795D01*
X341719Y123870D01*
X342463Y124367D01*
X342961Y125112D01*
X343036Y125489D01*
D02*
G37*
G36*
X340341D02*
X338647D01*
X338722Y125112D01*
X339219Y124367D01*
X339963Y123870D01*
X340341Y123795D01*
Y125489D01*
D02*
G37*
G36*
X212723Y124493D02*
X211029D01*
Y122799D01*
X211407Y122874D01*
X212151Y123371D01*
X212648Y124116D01*
X212723Y124493D01*
D02*
G37*
G36*
X210029D02*
X208334D01*
X208409Y124116D01*
X208907Y123371D01*
X209651Y122874D01*
X210029Y122799D01*
Y124493D01*
D02*
G37*
G36*
X270195Y123500D02*
X268500D01*
Y121805D01*
X268878Y121880D01*
X269622Y122378D01*
X270120Y123122D01*
X270195Y123500D01*
D02*
G37*
G36*
X267500D02*
X265805D01*
X265880Y123122D01*
X266378Y122378D01*
X267122Y121880D01*
X267500Y121805D01*
Y123500D01*
D02*
G37*
G36*
X164500Y123195D02*
Y121500D01*
X166195D01*
X166120Y121878D01*
X165622Y122622D01*
X164878Y123119D01*
X164500Y123195D01*
D02*
G37*
G36*
X163500D02*
X163122Y123119D01*
X162378Y122622D01*
X161881Y121878D01*
X161805Y121500D01*
X163500D01*
Y123195D01*
D02*
G37*
G36*
X226695Y122023D02*
Y120329D01*
X228390D01*
X228314Y120707D01*
X227817Y121451D01*
X227073Y121948D01*
X226695Y122023D01*
D02*
G37*
G36*
X225695D02*
X225317Y121948D01*
X224573Y121451D01*
X224075Y120707D01*
X224000Y120329D01*
X225695D01*
Y122023D01*
D02*
G37*
G36*
X369500Y121195D02*
Y119500D01*
X371195D01*
X371119Y119878D01*
X370622Y120622D01*
X369878Y121119D01*
X369500Y121195D01*
D02*
G37*
G36*
X368500D02*
X368122Y121119D01*
X367378Y120622D01*
X366880Y119878D01*
X366805Y119500D01*
X368500D01*
Y121195D01*
D02*
G37*
G36*
X166195Y120500D02*
X164500D01*
Y118805D01*
X164878Y118880D01*
X165622Y119378D01*
X166120Y120122D01*
X166195Y120500D01*
D02*
G37*
G36*
X163500D02*
X161805D01*
X161881Y120122D01*
X162378Y119378D01*
X163122Y118880D01*
X163500Y118805D01*
Y120500D01*
D02*
G37*
G36*
X228390Y119329D02*
X226695D01*
Y117634D01*
X227073Y117709D01*
X227817Y118207D01*
X228314Y118951D01*
X228390Y119329D01*
D02*
G37*
G36*
X225695D02*
X224000D01*
X224075Y118951D01*
X224573Y118207D01*
X225317Y117709D01*
X225695Y117634D01*
Y119329D01*
D02*
G37*
G36*
X371195Y118500D02*
X369500D01*
Y116805D01*
X369878Y116881D01*
X370622Y117378D01*
X371119Y118122D01*
X371195Y118500D01*
D02*
G37*
G36*
X368500D02*
X366805D01*
X366880Y118122D01*
X367378Y117378D01*
X368122Y116881D01*
X368500Y116805D01*
Y118500D01*
D02*
G37*
G36*
X312500Y118195D02*
Y116500D01*
X314195D01*
X314120Y116878D01*
X313622Y117622D01*
X312878Y118120D01*
X312500Y118195D01*
D02*
G37*
G36*
X311500D02*
X311122Y118120D01*
X310378Y117622D01*
X309880Y116878D01*
X309805Y116500D01*
X311500D01*
Y118195D01*
D02*
G37*
G36*
X45500Y116195D02*
Y114500D01*
X47195D01*
X47120Y114878D01*
X46622Y115622D01*
X45878Y116120D01*
X45500Y116195D01*
D02*
G37*
G36*
X44500D02*
X44122Y116120D01*
X43378Y115622D01*
X42880Y114878D01*
X42805Y114500D01*
X44500D01*
Y116195D01*
D02*
G37*
G36*
X314195Y115500D02*
X312500D01*
Y113805D01*
X312878Y113881D01*
X313622Y114378D01*
X314120Y115122D01*
X314195Y115500D01*
D02*
G37*
G36*
X311500D02*
X309805D01*
X309880Y115122D01*
X310378Y114378D01*
X311122Y113881D01*
X311500Y113805D01*
Y115500D01*
D02*
G37*
G36*
X47195Y113500D02*
X45500D01*
Y111805D01*
X45878Y111881D01*
X46622Y112378D01*
X47120Y113122D01*
X47195Y113500D01*
D02*
G37*
G36*
X44500D02*
X42805D01*
X42880Y113122D01*
X43378Y112378D01*
X44122Y111881D01*
X44500Y111805D01*
Y113500D01*
D02*
G37*
G36*
X131000Y114886D02*
X130278Y114743D01*
X129666Y114334D01*
X129388Y113918D01*
X127000D01*
X126649Y113848D01*
X126351Y113649D01*
X122620Y109918D01*
X75000D01*
X74903Y109898D01*
X74657Y110359D01*
X76380Y112082D01*
X91388D01*
X91666Y111666D01*
X92278Y111257D01*
X93000Y111114D01*
X93722Y111257D01*
X94334Y111666D01*
X94743Y112278D01*
X94886Y113000D01*
X94743Y113722D01*
X94334Y114334D01*
X93722Y114743D01*
X93000Y114886D01*
X92278Y114743D01*
X91666Y114334D01*
X91388Y113918D01*
X76000D01*
X75649Y113848D01*
X75351Y113649D01*
X70351Y108649D01*
X70152Y108351D01*
X70082Y108000D01*
Y101000D01*
X70152Y100649D01*
X70351Y100351D01*
X82351Y88351D01*
X82649Y88152D01*
X83000Y88082D01*
X98388D01*
X98666Y87666D01*
X99278Y87257D01*
X100000Y87114D01*
X100722Y87257D01*
X101334Y87666D01*
X101743Y88278D01*
X101886Y89000D01*
X101743Y89722D01*
X101334Y90334D01*
X100722Y90743D01*
X100000Y90886D01*
X99278Y90743D01*
X98666Y90334D01*
X98388Y89918D01*
X83380D01*
X81657Y91641D01*
X81903Y92102D01*
X82000Y92082D01*
X103388D01*
X103666Y91666D01*
X104278Y91257D01*
X105000Y91114D01*
X105722Y91257D01*
X106334Y91666D01*
X106743Y92278D01*
X106886Y93000D01*
X106743Y93722D01*
X106334Y94334D01*
X105722Y94743D01*
X105000Y94886D01*
X104278Y94743D01*
X103666Y94334D01*
X103388Y93918D01*
X82380D01*
X73918Y102380D01*
Y106620D01*
X75380Y108082D01*
X123000D01*
X123351Y108152D01*
X123649Y108351D01*
X127380Y112082D01*
X129388D01*
X129666Y111666D01*
X130278Y111257D01*
X131000Y111114D01*
X131722Y111257D01*
X132334Y111666D01*
X132743Y112278D01*
X132886Y113000D01*
X132743Y113722D01*
X132334Y114334D01*
X131722Y114743D01*
X131000Y114886D01*
D02*
G37*
G36*
X61500Y111195D02*
Y109500D01*
X63195D01*
X63119Y109878D01*
X62622Y110622D01*
X61878Y111119D01*
X61500Y111195D01*
D02*
G37*
G36*
X60500D02*
X60122Y111119D01*
X59378Y110622D01*
X58881Y109878D01*
X58805Y109500D01*
X60500D01*
Y111195D01*
D02*
G37*
G36*
X344733Y109682D02*
Y107988D01*
X346428D01*
X346353Y108366D01*
X345855Y109110D01*
X345111Y109607D01*
X344733Y109682D01*
D02*
G37*
G36*
X343733D02*
X343355Y109607D01*
X342611Y109110D01*
X342114Y108366D01*
X342039Y107988D01*
X343733D01*
Y109682D01*
D02*
G37*
G36*
X46500Y109195D02*
Y107500D01*
X48195D01*
X48120Y107878D01*
X47622Y108622D01*
X46878Y109119D01*
X46500Y109195D01*
D02*
G37*
G36*
X45500D02*
X45122Y109119D01*
X44378Y108622D01*
X43881Y107878D01*
X43805Y107500D01*
X45500D01*
Y109195D01*
D02*
G37*
G36*
X63195Y108500D02*
X61500D01*
Y106805D01*
X61878Y106880D01*
X62622Y107378D01*
X63119Y108122D01*
X63195Y108500D01*
D02*
G37*
G36*
X60500D02*
X58805D01*
X58881Y108122D01*
X59378Y107378D01*
X60122Y106880D01*
X60500Y106805D01*
Y108500D01*
D02*
G37*
G36*
X200000Y209886D02*
X199278Y209743D01*
X198666Y209334D01*
X198257Y208722D01*
X198114Y208000D01*
X198257Y207278D01*
X198666Y206666D01*
X199278Y206257D01*
X200000Y206114D01*
X200722Y206257D01*
X201334Y206666D01*
X201612Y207082D01*
X263620D01*
X277082Y193620D01*
Y110380D01*
X273418Y106715D01*
X273149Y106766D01*
X272918Y106900D01*
Y190000D01*
X272848Y190351D01*
X272649Y190649D01*
X258649Y204649D01*
X258351Y204848D01*
X258000Y204918D01*
X195612D01*
X195334Y205334D01*
X194722Y205743D01*
X194000Y205886D01*
X193278Y205743D01*
X192666Y205334D01*
X192257Y204722D01*
X192114Y204000D01*
X192257Y203278D01*
X192666Y202666D01*
X193278Y202257D01*
X194000Y202114D01*
X194722Y202257D01*
X195334Y202666D01*
X195612Y203082D01*
X257620D01*
X271082Y189620D01*
Y151765D01*
X270582Y151649D01*
X269878Y152120D01*
X269500Y152195D01*
Y150000D01*
Y147805D01*
X269878Y147880D01*
X270582Y148351D01*
X271082Y148235D01*
Y98380D01*
X255351Y82649D01*
X255152Y82351D01*
X255082Y82000D01*
Y39380D01*
X249620Y33918D01*
X214612D01*
X214334Y34334D01*
X213918Y34612D01*
Y37000D01*
X213848Y37351D01*
X213649Y37649D01*
X211715Y39582D01*
X211766Y39851D01*
X211900Y40082D01*
X217235D01*
X217351Y39582D01*
X216880Y38878D01*
X216805Y38500D01*
X221195D01*
X221119Y38878D01*
X220649Y39582D01*
X220765Y40082D01*
X247388D01*
X247666Y39666D01*
X248278Y39257D01*
X249000Y39114D01*
X249722Y39257D01*
X250334Y39666D01*
X250743Y40278D01*
X250886Y41000D01*
X250743Y41722D01*
X250334Y42334D01*
X249722Y42743D01*
X249000Y42886D01*
X248278Y42743D01*
X247666Y42334D01*
X247388Y41918D01*
X193113D01*
X192962Y42418D01*
X193334Y42666D01*
X193743Y43278D01*
X193886Y44000D01*
X193743Y44722D01*
X193334Y45334D01*
X192918Y45612D01*
Y75000D01*
X192848Y75351D01*
X192649Y75649D01*
X187649Y80649D01*
X187351Y80848D01*
X187000Y80918D01*
X184612D01*
X184334Y81334D01*
X183962Y81582D01*
X184113Y82082D01*
X199620D01*
X203082Y78620D01*
Y64612D01*
X202666Y64334D01*
X202257Y63722D01*
X202114Y63000D01*
X202257Y62278D01*
X202666Y61666D01*
X203278Y61257D01*
X204000Y61114D01*
X204722Y61257D01*
X205334Y61666D01*
X205743Y62278D01*
X205886Y63000D01*
X205743Y63722D01*
X205334Y64334D01*
X204918Y64612D01*
Y79000D01*
X204848Y79351D01*
X204649Y79649D01*
X200715Y83582D01*
X200766Y83851D01*
X200900Y84082D01*
X214046D01*
X214114Y84000D01*
X214257Y83278D01*
X214666Y82666D01*
X215278Y82257D01*
X216000Y82114D01*
X216722Y82257D01*
X217334Y82666D01*
X217743Y83278D01*
X217886Y84000D01*
X217743Y84722D01*
X217334Y85334D01*
X216722Y85743D01*
X216000Y85886D01*
X215278Y85743D01*
X215243Y85719D01*
X215050Y85848D01*
X214699Y85918D01*
X136000D01*
X135903Y85898D01*
X135657Y86359D01*
X136380Y87082D01*
X231388D01*
X231666Y86666D01*
X232278Y86257D01*
X233000Y86114D01*
X233722Y86257D01*
X234334Y86666D01*
X234743Y87278D01*
X234886Y88000D01*
X234743Y88722D01*
X234334Y89334D01*
X233722Y89743D01*
X233000Y89886D01*
X232278Y89743D01*
X231666Y89334D01*
X231388Y88918D01*
X176113D01*
X175962Y89418D01*
X176334Y89666D01*
X176743Y90278D01*
X176886Y91000D01*
X176743Y91722D01*
X176334Y92334D01*
X175722Y92743D01*
X175000Y92886D01*
X174278Y92743D01*
X173666Y92334D01*
X173388Y91918D01*
X134113D01*
X133962Y92418D01*
X134334Y92666D01*
X134612Y93082D01*
X160000D01*
X160351Y93152D01*
X160649Y93351D01*
X222649Y155351D01*
X222848Y155649D01*
X222918Y156000D01*
Y196620D01*
X225380Y199082D01*
X247620D01*
X254082Y192620D01*
Y176612D01*
X253666Y176334D01*
X253257Y175722D01*
X253114Y175000D01*
X253257Y174278D01*
X253666Y173666D01*
X254278Y173257D01*
X255000Y173114D01*
X255722Y173257D01*
X256334Y173666D01*
X256743Y174278D01*
X256886Y175000D01*
X256743Y175722D01*
X256334Y176334D01*
X255918Y176612D01*
Y193000D01*
X255848Y193351D01*
X255649Y193649D01*
X248649Y200649D01*
X248351Y200848D01*
X248000Y200918D01*
X225000D01*
X224649Y200848D01*
X224351Y200649D01*
X221351Y197649D01*
X221152Y197351D01*
X221082Y197000D01*
Y156380D01*
X159620Y94918D01*
X134612D01*
X134334Y95334D01*
X133722Y95743D01*
X133000Y95886D01*
X132278Y95743D01*
X131666Y95334D01*
X131257Y94722D01*
X131114Y94000D01*
X131257Y93278D01*
X131666Y92666D01*
X132038Y92418D01*
X131887Y91918D01*
X122380D01*
X108649Y105649D01*
X108351Y105848D01*
X108000Y105918D01*
X78612D01*
X78334Y106334D01*
X77722Y106743D01*
X77000Y106886D01*
X76278Y106743D01*
X75666Y106334D01*
X75257Y105722D01*
X75114Y105000D01*
X75257Y104278D01*
X75666Y103666D01*
X76278Y103257D01*
X77000Y103114D01*
X77722Y103257D01*
X78334Y103666D01*
X78612Y104082D01*
X107620D01*
X121351Y90351D01*
X121649Y90152D01*
X122000Y90082D01*
X173388D01*
X173666Y89666D01*
X174038Y89418D01*
X173887Y88918D01*
X136000D01*
X135649Y88848D01*
X135351Y88649D01*
X120351Y73649D01*
X120152Y73351D01*
X120082Y73000D01*
Y24380D01*
X117418Y21715D01*
X116918Y21923D01*
Y41388D01*
X117334Y41666D01*
X117743Y42278D01*
X117886Y43000D01*
X117743Y43722D01*
X117334Y44334D01*
X116722Y44743D01*
X116000Y44886D01*
X115278Y44743D01*
X114666Y44334D01*
X114418Y43962D01*
X113918Y44113D01*
Y47388D01*
X114334Y47666D01*
X114743Y48278D01*
X114886Y49000D01*
X114743Y49722D01*
X114334Y50334D01*
X113722Y50743D01*
X113000Y50886D01*
X112278Y50743D01*
X111666Y50334D01*
X111418Y49962D01*
X110918Y50113D01*
Y52620D01*
X114649Y56351D01*
X114848Y56649D01*
X114918Y57000D01*
Y59388D01*
X115334Y59666D01*
X115743Y60278D01*
X115886Y61000D01*
X115743Y61722D01*
X115334Y62334D01*
X114722Y62743D01*
X114000Y62886D01*
X113278Y62743D01*
X112666Y62334D01*
X112257Y61722D01*
X112114Y61000D01*
X112257Y60278D01*
X112666Y59666D01*
X113082Y59388D01*
Y57380D01*
X109418Y53715D01*
X109149Y53766D01*
X108918Y53900D01*
Y60000D01*
Y70620D01*
X113380Y75082D01*
X115388D01*
X115666Y74666D01*
X116278Y74257D01*
X117000Y74114D01*
X117722Y74257D01*
X118334Y74666D01*
X118743Y75278D01*
X118886Y76000D01*
X118743Y76722D01*
X118334Y77334D01*
X117722Y77743D01*
X117000Y77886D01*
X116278Y77743D01*
X115666Y77334D01*
X115388Y76918D01*
X113000D01*
X112649Y76848D01*
X112351Y76649D01*
X107351Y71649D01*
X107152Y71351D01*
X107082Y71000D01*
Y60918D01*
X89612D01*
X89334Y61334D01*
X88918Y61612D01*
Y80000D01*
X88848Y80351D01*
X88649Y80649D01*
X84649Y84649D01*
X84351Y84848D01*
X84000Y84918D01*
X77113D01*
X76962Y85418D01*
X77334Y85666D01*
X77743Y86278D01*
X77886Y87000D01*
X77743Y87722D01*
X77334Y88334D01*
X76918Y88612D01*
Y92000D01*
X76848Y92351D01*
X76649Y92649D01*
X67918Y101380D01*
Y108620D01*
X81380Y122082D01*
X154000D01*
X154351Y122152D01*
X154649Y122351D01*
X172649Y140351D01*
X172848Y140649D01*
X172918Y141000D01*
Y156620D01*
X174380Y158082D01*
X175388D01*
X175666Y157666D01*
X176278Y157257D01*
X177000Y157114D01*
X177722Y157257D01*
X178334Y157666D01*
X178743Y158278D01*
X178886Y159000D01*
X178743Y159722D01*
X178334Y160334D01*
X177722Y160743D01*
X177000Y160886D01*
X176278Y160743D01*
X175666Y160334D01*
X175388Y159918D01*
X174000D01*
X173649Y159848D01*
X173351Y159649D01*
X171351Y157649D01*
X171152Y157351D01*
X171082Y157000D01*
Y141380D01*
X153620Y123918D01*
X81000D01*
X80649Y123848D01*
X80351Y123649D01*
X66351Y109649D01*
X66152Y109351D01*
X66082Y109000D01*
Y101000D01*
X66152Y100649D01*
X66351Y100351D01*
X75082Y91620D01*
Y88612D01*
X74666Y88334D01*
X74257Y87722D01*
X74114Y87000D01*
X74257Y86278D01*
X74666Y85666D01*
X75038Y85418D01*
X74887Y84918D01*
X74380D01*
X61649Y97649D01*
X61351Y97848D01*
X61000Y97918D01*
X48762D01*
X48484Y98334D01*
X47872Y98743D01*
X47150Y98886D01*
X46428Y98743D01*
X45816Y98334D01*
X45407Y97722D01*
X45264Y97000D01*
X45407Y96278D01*
X45816Y95666D01*
X46428Y95257D01*
X47150Y95114D01*
X47872Y95257D01*
X48484Y95666D01*
X48762Y96082D01*
X60620D01*
X61313Y95389D01*
X60994Y95001D01*
X60600Y95264D01*
X60222Y95340D01*
Y93645D01*
X61917D01*
X61841Y94023D01*
X61578Y94417D01*
X61966Y94736D01*
X73351Y83351D01*
X73649Y83152D01*
X74000Y83082D01*
X78887D01*
X79038Y82582D01*
X78666Y82334D01*
X78388Y81918D01*
X59000D01*
X58649Y81848D01*
X58351Y81649D01*
X48620Y71918D01*
X43612D01*
X43334Y72334D01*
X42722Y72743D01*
X42000Y72886D01*
X41278Y72743D01*
X40666Y72334D01*
X40257Y71722D01*
X40114Y71000D01*
X40257Y70278D01*
X40666Y69666D01*
X41278Y69257D01*
X42000Y69114D01*
X42722Y69257D01*
X43334Y69666D01*
X43612Y70082D01*
X49000D01*
X49097Y70102D01*
X49343Y69641D01*
X46620Y66918D01*
X40612D01*
X40334Y67334D01*
X39722Y67743D01*
X39000Y67886D01*
X38278Y67743D01*
X37666Y67334D01*
X37257Y66722D01*
X37114Y66000D01*
X37257Y65278D01*
X37666Y64666D01*
X38278Y64257D01*
X39000Y64114D01*
X39722Y64257D01*
X40334Y64666D01*
X40612Y65082D01*
X47000D01*
X47351Y65152D01*
X47649Y65351D01*
X56380Y74082D01*
X81388D01*
X81666Y73666D01*
X82278Y73257D01*
X83000Y73114D01*
X83722Y73257D01*
X84334Y73666D01*
X84743Y74278D01*
X84886Y75000D01*
X84743Y75722D01*
X84334Y76334D01*
X83722Y76743D01*
X83000Y76886D01*
X82278Y76743D01*
X81666Y76334D01*
X81388Y75918D01*
X56000D01*
X55903Y75898D01*
X55657Y76359D01*
X59380Y80082D01*
X78388D01*
X78666Y79666D01*
X79278Y79257D01*
X80000Y79114D01*
X80722Y79257D01*
X81334Y79666D01*
X81743Y80278D01*
X81886Y81000D01*
X81743Y81722D01*
X81334Y82334D01*
X80962Y82582D01*
X81113Y83082D01*
X83620D01*
X87082Y79620D01*
Y61612D01*
X86666Y61334D01*
X86257Y60722D01*
X86114Y60000D01*
X86257Y59278D01*
X86666Y58666D01*
X87278Y58257D01*
X88000Y58114D01*
X88722Y58257D01*
X89334Y58666D01*
X89612Y59082D01*
X107082D01*
Y22380D01*
X103620Y18918D01*
X99380D01*
X94649Y23649D01*
X94351Y23848D01*
X94000Y23918D01*
X92612D01*
X92334Y24334D01*
X91722Y24743D01*
X91000Y24886D01*
X90278Y24743D01*
X89666Y24334D01*
X89388Y23918D01*
X88816D01*
X88664Y24418D01*
X89277Y24827D01*
X89774Y25572D01*
X89850Y25949D01*
X85460D01*
X85535Y25572D01*
X86033Y24827D01*
X86646Y24418D01*
X86494Y23918D01*
X79380D01*
X76649Y26649D01*
X76351Y26848D01*
X76000Y26918D01*
X57000D01*
X56649Y26848D01*
X56351Y26649D01*
X53351Y23649D01*
X53152Y23351D01*
X53082Y23000D01*
Y20612D01*
X52666Y20334D01*
X52257Y19722D01*
X52114Y19000D01*
X52257Y18278D01*
X52666Y17666D01*
X53278Y17257D01*
X54000Y17114D01*
X54722Y17257D01*
X55334Y17666D01*
X55743Y18278D01*
X55886Y19000D01*
X55743Y19722D01*
X55334Y20334D01*
X54918Y20612D01*
Y22620D01*
X57380Y25082D01*
X75620D01*
X78285Y22418D01*
X78234Y22149D01*
X78100Y21918D01*
X64000D01*
X63649Y21848D01*
X63351Y21649D01*
X55620Y13918D01*
X53612D01*
X53334Y14334D01*
X52722Y14743D01*
X52000Y14886D01*
X51278Y14743D01*
X50666Y14334D01*
X50257Y13722D01*
X50114Y13000D01*
X50257Y12278D01*
X50666Y11666D01*
X51278Y11257D01*
X52000Y11114D01*
X52722Y11257D01*
X53334Y11666D01*
X53612Y12082D01*
X56000D01*
X56351Y12152D01*
X56649Y12351D01*
X64380Y20082D01*
X66895D01*
X67131Y19641D01*
X67084Y19572D01*
X66940Y18850D01*
X67084Y18128D01*
X67493Y17516D01*
X68105Y17107D01*
X68827Y16964D01*
X69549Y17107D01*
X70161Y17516D01*
X70539Y18082D01*
X71100D01*
X71234Y17851D01*
X71285Y17582D01*
X66870Y13168D01*
X65612D01*
X65334Y13584D01*
X64722Y13993D01*
X64000Y14136D01*
X63278Y13993D01*
X62666Y13584D01*
X62257Y12972D01*
X62114Y12250D01*
X62257Y11528D01*
X62666Y10916D01*
X63278Y10507D01*
X63682Y10427D01*
X63788Y9896D01*
X63378Y9622D01*
X62881Y8878D01*
X62756Y8249D01*
X62219Y8078D01*
X61649Y8649D01*
X61351Y8848D01*
X61000Y8918D01*
X59612D01*
X59334Y9334D01*
X58722Y9743D01*
X58000Y9886D01*
X57278Y9743D01*
X56666Y9334D01*
X56257Y8722D01*
X56114Y8000D01*
X56257Y7278D01*
X56666Y6666D01*
X57278Y6257D01*
X58000Y6114D01*
X58722Y6257D01*
X59334Y6666D01*
X59612Y7082D01*
X60620D01*
X63323Y4380D01*
X63131Y3918D01*
X58380D01*
X54649Y7649D01*
X54351Y7848D01*
X54000Y7918D01*
X51612D01*
X51334Y8334D01*
X50722Y8743D01*
X50000Y8886D01*
X49278Y8743D01*
X48666Y8334D01*
X48257Y7722D01*
X48114Y7000D01*
X48257Y6278D01*
X48666Y5666D01*
X49278Y5257D01*
X50000Y5114D01*
X50722Y5257D01*
X51334Y5666D01*
X51612Y6082D01*
X53620D01*
X57351Y2351D01*
X57649Y2152D01*
X58000Y2082D01*
X103000D01*
X103351Y2152D01*
X103649Y2351D01*
X125649Y24351D01*
X125848Y24649D01*
X125918Y25000D01*
Y73620D01*
X136380Y84082D01*
X153100D01*
X153234Y83851D01*
X153285Y83582D01*
X149351Y79649D01*
X149152Y79351D01*
X149082Y79000D01*
Y59000D01*
X149152Y58649D01*
X149351Y58351D01*
X150311Y57391D01*
X150609Y57192D01*
X150960Y57123D01*
X162388D01*
X162666Y56707D01*
X163278Y56298D01*
X164000Y56154D01*
X164722Y56298D01*
X165334Y56707D01*
X165743Y57318D01*
X165886Y58040D01*
X165743Y58762D01*
X165334Y59374D01*
X165022Y59582D01*
X165174Y60082D01*
X184620D01*
X187082Y57620D01*
Y43000D01*
X187152Y42649D01*
X187351Y42351D01*
X189285Y40418D01*
X189234Y40149D01*
X189100Y39918D01*
X188380D01*
X185918Y42380D01*
Y48000D01*
X185848Y48351D01*
X185649Y48649D01*
X181649Y52649D01*
X181351Y52848D01*
X181000Y52918D01*
X173000D01*
X172649Y52848D01*
X172351Y52649D01*
X169351Y49649D01*
X169152Y49351D01*
X169082Y49000D01*
Y44612D01*
X168666Y44334D01*
X168388Y43918D01*
X135612D01*
X135334Y44334D01*
X134722Y44743D01*
X134000Y44886D01*
X133278Y44743D01*
X132666Y44334D01*
X132257Y43722D01*
X132114Y43000D01*
X132257Y42278D01*
X132666Y41666D01*
X133278Y41257D01*
X134000Y41114D01*
X134722Y41257D01*
X135334Y41666D01*
X135612Y42082D01*
X168388D01*
X168666Y41666D01*
X169278Y41257D01*
X170000Y41114D01*
X170722Y41257D01*
X171334Y41666D01*
X171743Y42278D01*
X171886Y43000D01*
X171743Y43722D01*
X171334Y44334D01*
X170918Y44612D01*
Y48620D01*
X173380Y51082D01*
X180620D01*
X184082Y47620D01*
Y42000D01*
X184152Y41649D01*
X184351Y41351D01*
X187285Y38418D01*
X187234Y38149D01*
X187100Y37918D01*
X177380D01*
X174918Y40380D01*
Y44388D01*
X175334Y44666D01*
X175743Y45278D01*
X175886Y46000D01*
X175743Y46722D01*
X175334Y47334D01*
X174722Y47743D01*
X174000Y47886D01*
X173278Y47743D01*
X172666Y47334D01*
X172257Y46722D01*
X172114Y46000D01*
X172257Y45278D01*
X172666Y44666D01*
X173082Y44388D01*
Y40000D01*
X173152Y39649D01*
X173351Y39351D01*
X176351Y36351D01*
X176649Y36152D01*
X177000Y36082D01*
X184235D01*
X184351Y35582D01*
X183880Y34878D01*
X183805Y34500D01*
X188195D01*
X188119Y34878D01*
X187649Y35582D01*
X187765Y36082D01*
X194620D01*
X205351Y25351D01*
X205649Y25152D01*
X206000Y25082D01*
X211388D01*
X211666Y24666D01*
X212278Y24257D01*
X213000Y24114D01*
X213722Y24257D01*
X214334Y24666D01*
X214612Y25082D01*
X254000D01*
X254351Y25152D01*
X254649Y25351D01*
X262649Y33351D01*
X262848Y33649D01*
X262918Y34000D01*
Y68620D01*
X274649Y80351D01*
X274848Y80649D01*
X274918Y81000D01*
Y87887D01*
X275418Y88038D01*
X275666Y87666D01*
X276278Y87257D01*
X277000Y87114D01*
X277722Y87257D01*
X278334Y87666D01*
X278743Y88278D01*
X278886Y89000D01*
X278743Y89722D01*
X278334Y90334D01*
X277918Y90612D01*
Y98620D01*
X291649Y112351D01*
X291848Y112649D01*
X291918Y113000D01*
Y122388D01*
X292334Y122666D01*
X292743Y123278D01*
X292886Y124000D01*
X292743Y124722D01*
X292334Y125334D01*
X291722Y125743D01*
X291000Y125886D01*
X290278Y125743D01*
X289666Y125334D01*
X289257Y124722D01*
X289114Y124000D01*
X289257Y123278D01*
X289666Y122666D01*
X290082Y122388D01*
Y113380D01*
X276351Y99649D01*
X276152Y99351D01*
X276082Y99000D01*
Y90612D01*
X275666Y90334D01*
X275418Y89962D01*
X274918Y90113D01*
Y105620D01*
X278649Y109351D01*
X278848Y109649D01*
X278918Y110000D01*
Y127235D01*
X279418Y127351D01*
X280122Y126881D01*
X280500Y126805D01*
Y129000D01*
Y131195D01*
X280122Y131120D01*
X279418Y130649D01*
X278918Y130765D01*
Y194000D01*
X278848Y194351D01*
X278649Y194649D01*
X264649Y208649D01*
X264351Y208848D01*
X264000Y208918D01*
X201612D01*
X201334Y209334D01*
X200722Y209743D01*
X200000Y209886D01*
D02*
G37*
G36*
X346428Y106988D02*
X344733D01*
Y105293D01*
X345111Y105368D01*
X345855Y105866D01*
X346353Y106610D01*
X346428Y106988D01*
D02*
G37*
G36*
X343733D02*
X342039D01*
X342114Y106610D01*
X342611Y105866D01*
X343355Y105368D01*
X343733Y105293D01*
Y106988D01*
D02*
G37*
G36*
X48195Y106500D02*
X46500D01*
Y104805D01*
X46878Y104880D01*
X47622Y105378D01*
X48120Y106122D01*
X48195Y106500D01*
D02*
G37*
G36*
X45500D02*
X43805D01*
X43881Y106122D01*
X44378Y105378D01*
X45122Y104880D01*
X45500Y104805D01*
Y106500D01*
D02*
G37*
G36*
X295500Y104195D02*
Y102500D01*
X297195D01*
X297119Y102878D01*
X296622Y103622D01*
X295878Y104120D01*
X295500Y104195D01*
D02*
G37*
G36*
X294500D02*
X294122Y104120D01*
X293378Y103622D01*
X292881Y102878D01*
X292805Y102500D01*
X294500D01*
Y104195D01*
D02*
G37*
G36*
X313500Y103195D02*
Y101500D01*
X315195D01*
X315120Y101878D01*
X314622Y102622D01*
X313878Y103120D01*
X313500Y103195D01*
D02*
G37*
G36*
X312500D02*
X312122Y103120D01*
X311378Y102622D01*
X310880Y101878D01*
X310805Y101500D01*
X312500D01*
Y103195D01*
D02*
G37*
G36*
X297195Y101500D02*
X295500D01*
Y99805D01*
X295878Y99881D01*
X296622Y100378D01*
X297119Y101122D01*
X297195Y101500D01*
D02*
G37*
G36*
X294500D02*
X292805D01*
X292881Y101122D01*
X293378Y100378D01*
X294122Y99881D01*
X294500Y99805D01*
Y101500D01*
D02*
G37*
G36*
X175500Y101195D02*
Y99500D01*
X177195D01*
X177120Y99878D01*
X176622Y100622D01*
X175878Y101119D01*
X175500Y101195D01*
D02*
G37*
G36*
X174500D02*
X174122Y101119D01*
X173378Y100622D01*
X172880Y99878D01*
X172805Y99500D01*
X174500D01*
Y101195D01*
D02*
G37*
G36*
X315195Y100500D02*
X313500D01*
Y98805D01*
X313878Y98881D01*
X314622Y99378D01*
X315120Y100122D01*
X315195Y100500D01*
D02*
G37*
G36*
X312500D02*
X310805D01*
X310880Y100122D01*
X311378Y99378D01*
X312122Y98881D01*
X312500Y98805D01*
Y100500D01*
D02*
G37*
G36*
X224500Y100195D02*
Y98500D01*
X226195D01*
X226119Y98878D01*
X225622Y99622D01*
X224878Y100119D01*
X224500Y100195D01*
D02*
G37*
G36*
X223500D02*
X223122Y100119D01*
X222378Y99622D01*
X221881Y98878D01*
X221805Y98500D01*
X223500D01*
Y100195D01*
D02*
G37*
G36*
X372500Y99195D02*
Y97500D01*
X374195D01*
X374119Y97878D01*
X373622Y98622D01*
X372878Y99119D01*
X372500Y99195D01*
D02*
G37*
G36*
X371500D02*
X371122Y99119D01*
X370378Y98622D01*
X369881Y97878D01*
X369805Y97500D01*
X371500D01*
Y99195D01*
D02*
G37*
G36*
X99500D02*
Y97500D01*
X101195D01*
X101119Y97878D01*
X100622Y98622D01*
X99878Y99119D01*
X99500Y99195D01*
D02*
G37*
G36*
X98500D02*
X98122Y99119D01*
X97378Y98622D01*
X96881Y97878D01*
X96805Y97500D01*
X98500D01*
Y99195D01*
D02*
G37*
G36*
X177195Y98500D02*
X175500D01*
Y96805D01*
X175878Y96881D01*
X176622Y97378D01*
X177120Y98122D01*
X177195Y98500D01*
D02*
G37*
G36*
X174500D02*
X172805D01*
X172880Y98122D01*
X173378Y97378D01*
X174122Y96881D01*
X174500Y96805D01*
Y98500D01*
D02*
G37*
G36*
X241000Y194387D02*
X239864Y194238D01*
X238806Y193800D01*
X237897Y193103D01*
X237200Y192194D01*
X236762Y191136D01*
X236613Y190000D01*
X236762Y188864D01*
X237200Y187806D01*
X237897Y186898D01*
X238806Y186200D01*
X239864Y185762D01*
X240082Y185733D01*
Y127000D01*
X240152Y126649D01*
X240351Y126351D01*
X245082Y121620D01*
Y96612D01*
X244666Y96334D01*
X244388Y95918D01*
X242380D01*
X221649Y116649D01*
X221351Y116848D01*
X221000Y116918D01*
X211612D01*
X211334Y117334D01*
X210722Y117743D01*
X210000Y117886D01*
X209278Y117743D01*
X208666Y117334D01*
X208388Y116918D01*
X200612D01*
X200334Y117334D01*
X199722Y117743D01*
X199000Y117886D01*
X198278Y117743D01*
X197666Y117334D01*
X197257Y116722D01*
X197114Y116000D01*
X197257Y115278D01*
X197666Y114666D01*
X198082Y114388D01*
Y97380D01*
X195620Y94918D01*
X193612D01*
X193334Y95334D01*
X192722Y95743D01*
X192000Y95886D01*
X191278Y95743D01*
X190666Y95334D01*
X190388Y94918D01*
X182612D01*
X182334Y95334D01*
X181722Y95743D01*
X181000Y95886D01*
X180278Y95743D01*
X179666Y95334D01*
X179257Y94722D01*
X179114Y94000D01*
X179257Y93278D01*
X179666Y92666D01*
X180278Y92257D01*
X181000Y92114D01*
X181722Y92257D01*
X182334Y92666D01*
X182612Y93082D01*
X190388D01*
X190666Y92666D01*
X191278Y92257D01*
X192000Y92114D01*
X192722Y92257D01*
X193334Y92666D01*
X193612Y93082D01*
X196000D01*
X196351Y93152D01*
X196649Y93351D01*
X199649Y96351D01*
X199848Y96649D01*
X199918Y97000D01*
Y114388D01*
X200334Y114666D01*
X200612Y115082D01*
X208388D01*
X208666Y114666D01*
X209278Y114257D01*
X210000Y114114D01*
X210722Y114257D01*
X211334Y114666D01*
X211612Y115082D01*
X220620D01*
X241351Y94351D01*
X241649Y94152D01*
X242000Y94082D01*
X244388D01*
X244666Y93666D01*
X245278Y93257D01*
X246000Y93114D01*
X246722Y93257D01*
X247334Y93666D01*
X247612Y94082D01*
X258000D01*
X258351Y94152D01*
X258649Y94351D01*
X260412Y96114D01*
X263420D01*
X263698Y95698D01*
X264310Y95289D01*
X265032Y95145D01*
X265753Y95289D01*
X266365Y95698D01*
X266774Y96310D01*
X266918Y97031D01*
X266774Y97753D01*
X266365Y98365D01*
X265753Y98774D01*
X265032Y98918D01*
X264310Y98774D01*
X263698Y98365D01*
X263420Y97949D01*
X260032D01*
X259680Y97879D01*
X259383Y97680D01*
X257620Y95918D01*
X247612D01*
X247334Y96334D01*
X246918Y96612D01*
Y122000D01*
X246848Y122351D01*
X246649Y122649D01*
X241918Y127380D01*
Y185733D01*
X242136Y185762D01*
X243194Y186200D01*
X244103Y186898D01*
X244800Y187806D01*
X245238Y188864D01*
X245388Y190000D01*
X245238Y191136D01*
X244800Y192194D01*
X244103Y193103D01*
X243194Y193800D01*
X242136Y194238D01*
X241000Y194387D01*
D02*
G37*
G36*
X226195Y97500D02*
X224500D01*
Y95805D01*
X224878Y95881D01*
X225622Y96378D01*
X226119Y97122D01*
X226195Y97500D01*
D02*
G37*
G36*
X223500D02*
X221805D01*
X221881Y97122D01*
X222378Y96378D01*
X223122Y95881D01*
X223500Y95805D01*
Y97500D01*
D02*
G37*
G36*
X100000Y119886D02*
X99278Y119743D01*
X98666Y119334D01*
X98257Y118722D01*
X98114Y118000D01*
X98257Y117278D01*
X98666Y116666D01*
X99278Y116257D01*
X100000Y116114D01*
X100722Y116257D01*
X101334Y116666D01*
X101612Y117082D01*
X138620D01*
X143082Y112620D01*
Y106380D01*
X140620Y103918D01*
X123000D01*
X122649Y103848D01*
X122351Y103649D01*
X120351Y101649D01*
X120152Y101351D01*
X120082Y101000D01*
Y98612D01*
X119666Y98334D01*
X119257Y97722D01*
X119114Y97000D01*
X119257Y96278D01*
X119666Y95666D01*
X120278Y95257D01*
X121000Y95114D01*
X121722Y95257D01*
X122334Y95666D01*
X122743Y96278D01*
X122886Y97000D01*
X122743Y97722D01*
X122334Y98334D01*
X121918Y98612D01*
Y100620D01*
X123380Y102082D01*
X141000D01*
X141351Y102152D01*
X141649Y102351D01*
X144649Y105351D01*
X144848Y105649D01*
X144918Y106000D01*
Y113000D01*
X144848Y113351D01*
X144649Y113649D01*
X139649Y118649D01*
X139351Y118848D01*
X139000Y118918D01*
X101612D01*
X101334Y119334D01*
X100722Y119743D01*
X100000Y119886D01*
D02*
G37*
G36*
X374195Y96500D02*
X372500D01*
Y94805D01*
X372878Y94881D01*
X373622Y95378D01*
X374119Y96122D01*
X374195Y96500D01*
D02*
G37*
G36*
X371500D02*
X369805D01*
X369881Y96122D01*
X370378Y95378D01*
X371122Y94881D01*
X371500Y94805D01*
Y96500D01*
D02*
G37*
G36*
X101195D02*
X99500D01*
Y94805D01*
X99878Y94881D01*
X100622Y95378D01*
X101119Y96122D01*
X101195Y96500D01*
D02*
G37*
G36*
X98500D02*
X96805D01*
X96881Y96122D01*
X97378Y95378D01*
X98122Y94881D01*
X98500Y94805D01*
Y96500D01*
D02*
G37*
G36*
X59222Y95340D02*
X58844Y95264D01*
X58100Y94767D01*
X57603Y94023D01*
X57527Y93645D01*
X59222D01*
Y95340D01*
D02*
G37*
G36*
X327500Y95195D02*
Y93500D01*
X329195D01*
X329119Y93878D01*
X328622Y94622D01*
X327878Y95119D01*
X327500Y95195D01*
D02*
G37*
G36*
X326500D02*
X326122Y95119D01*
X325378Y94622D01*
X324881Y93878D01*
X324805Y93500D01*
X326500D01*
Y95195D01*
D02*
G37*
G36*
X239500Y93195D02*
Y91500D01*
X241195D01*
X241120Y91878D01*
X240622Y92622D01*
X239878Y93119D01*
X239500Y93195D01*
D02*
G37*
G36*
X238500D02*
X238122Y93119D01*
X237378Y92622D01*
X236880Y91878D01*
X236805Y91500D01*
X238500D01*
Y93195D01*
D02*
G37*
G36*
X112500D02*
Y91500D01*
X114195D01*
X114120Y91878D01*
X113622Y92622D01*
X112878Y93119D01*
X112500Y93195D01*
D02*
G37*
G36*
X111500D02*
X111122Y93119D01*
X110378Y92622D01*
X109880Y91878D01*
X109805Y91500D01*
X111500D01*
Y93195D01*
D02*
G37*
G36*
X61917Y92645D02*
X60222D01*
Y90950D01*
X60600Y91026D01*
X61344Y91523D01*
X61841Y92267D01*
X61917Y92645D01*
D02*
G37*
G36*
X59222D02*
X57527D01*
X57603Y92267D01*
X58100Y91523D01*
X58844Y91026D01*
X59222Y90950D01*
Y92645D01*
D02*
G37*
G36*
X329195Y92500D02*
X327500D01*
Y90805D01*
X327878Y90881D01*
X328622Y91378D01*
X329119Y92122D01*
X329195Y92500D01*
D02*
G37*
G36*
X326500D02*
X324805D01*
X324881Y92122D01*
X325378Y91378D01*
X326122Y90881D01*
X326500Y90805D01*
Y92500D01*
D02*
G37*
G36*
X312500Y92195D02*
Y90500D01*
X314195D01*
X314120Y90878D01*
X313622Y91622D01*
X312878Y92119D01*
X312500Y92195D01*
D02*
G37*
G36*
X311500D02*
X311122Y92119D01*
X310378Y91622D01*
X309880Y90878D01*
X309805Y90500D01*
X311500D01*
Y92195D01*
D02*
G37*
G36*
X21000Y90886D02*
X20278Y90743D01*
X19666Y90334D01*
X19388Y89918D01*
X12612D01*
X12334Y90334D01*
X11722Y90743D01*
X11000Y90886D01*
X10278Y90743D01*
X9666Y90334D01*
X9257Y89722D01*
X9114Y89000D01*
X9257Y88278D01*
X9666Y87666D01*
X10278Y87257D01*
X11000Y87114D01*
X11722Y87257D01*
X12334Y87666D01*
X12612Y88082D01*
X19388D01*
X19666Y87666D01*
X20278Y87257D01*
X21000Y87114D01*
X21722Y87257D01*
X22334Y87666D01*
X22743Y88278D01*
X22886Y89000D01*
X22743Y89722D01*
X22334Y90334D01*
X21722Y90743D01*
X21000Y90886D01*
D02*
G37*
G36*
X241195Y90500D02*
X239500D01*
Y88805D01*
X239878Y88881D01*
X240622Y89378D01*
X241120Y90122D01*
X241195Y90500D01*
D02*
G37*
G36*
X238500D02*
X236805D01*
X236880Y90122D01*
X237378Y89378D01*
X238122Y88881D01*
X238500Y88805D01*
Y90500D01*
D02*
G37*
G36*
X114195D02*
X112500D01*
Y88805D01*
X112878Y88881D01*
X113622Y89378D01*
X114120Y90122D01*
X114195Y90500D01*
D02*
G37*
G36*
X111500D02*
X109805D01*
X109880Y90122D01*
X110378Y89378D01*
X111122Y88881D01*
X111500Y88805D01*
Y90500D01*
D02*
G37*
G36*
X314195Y89500D02*
X312500D01*
Y87805D01*
X312878Y87881D01*
X313622Y88378D01*
X314120Y89122D01*
X314195Y89500D01*
D02*
G37*
G36*
X311500D02*
X309805D01*
X309880Y89122D01*
X310378Y88378D01*
X311122Y87881D01*
X311500Y87805D01*
Y89500D01*
D02*
G37*
G36*
X56500Y88195D02*
Y86500D01*
X58195D01*
X58119Y86878D01*
X57622Y87622D01*
X56878Y88119D01*
X56500Y88195D01*
D02*
G37*
G36*
X55500D02*
X55122Y88119D01*
X54378Y87622D01*
X53881Y86878D01*
X53805Y86500D01*
X55500D01*
Y88195D01*
D02*
G37*
G36*
X122500Y87195D02*
Y85500D01*
X124195D01*
X124119Y85878D01*
X123622Y86622D01*
X122878Y87119D01*
X122500Y87195D01*
D02*
G37*
G36*
X121500D02*
X121122Y87119D01*
X120378Y86622D01*
X119880Y85878D01*
X119805Y85500D01*
X121500D01*
Y87195D01*
D02*
G37*
G36*
X93500Y86195D02*
Y84500D01*
X95195D01*
X95119Y84878D01*
X94622Y85622D01*
X93878Y86119D01*
X93500Y86195D01*
D02*
G37*
G36*
X92500D02*
X92122Y86119D01*
X91378Y85622D01*
X90881Y84878D01*
X90805Y84500D01*
X92500D01*
Y86195D01*
D02*
G37*
G36*
X28000Y89886D02*
X27278Y89743D01*
X26666Y89334D01*
X26257Y88722D01*
X26114Y88000D01*
X26257Y87278D01*
X26666Y86666D01*
X27082Y86388D01*
Y85380D01*
X25620Y83918D01*
X12612D01*
X12334Y84334D01*
X11722Y84743D01*
X11000Y84886D01*
X10278Y84743D01*
X9666Y84334D01*
X9257Y83722D01*
X9114Y83000D01*
X9257Y82278D01*
X9666Y81666D01*
X10278Y81257D01*
X11000Y81114D01*
X11722Y81257D01*
X12334Y81666D01*
X12612Y82082D01*
X26000D01*
X26351Y82152D01*
X26649Y82351D01*
X28649Y84351D01*
X28848Y84649D01*
X28918Y85000D01*
Y86388D01*
X29334Y86666D01*
X29743Y87278D01*
X29886Y88000D01*
X29743Y88722D01*
X29334Y89334D01*
X28722Y89743D01*
X28000Y89886D01*
D02*
G37*
G36*
X58195Y85500D02*
X56500D01*
Y83805D01*
X56878Y83881D01*
X57622Y84378D01*
X58119Y85122D01*
X58195Y85500D01*
D02*
G37*
G36*
X55500D02*
X53805D01*
X53881Y85122D01*
X54378Y84378D01*
X55122Y83881D01*
X55500Y83805D01*
Y85500D01*
D02*
G37*
G36*
X308500Y85195D02*
Y83500D01*
X310195D01*
X310120Y83878D01*
X309622Y84622D01*
X308878Y85119D01*
X308500Y85195D01*
D02*
G37*
G36*
X307500D02*
X307122Y85119D01*
X306378Y84622D01*
X305880Y83878D01*
X305805Y83500D01*
X307500D01*
Y85195D01*
D02*
G37*
G36*
X124195Y84500D02*
X122500D01*
Y82805D01*
X122878Y82881D01*
X123622Y83378D01*
X124119Y84122D01*
X124195Y84500D01*
D02*
G37*
G36*
X121500D02*
X119805D01*
X119880Y84122D01*
X120378Y83378D01*
X121122Y82881D01*
X121500Y82805D01*
Y84500D01*
D02*
G37*
G36*
X95195Y83500D02*
X93500D01*
Y81805D01*
X93878Y81881D01*
X94622Y82378D01*
X95119Y83122D01*
X95195Y83500D01*
D02*
G37*
G36*
X92500D02*
X90805D01*
X90881Y83122D01*
X91378Y82378D01*
X92122Y81881D01*
X92500Y81805D01*
Y83500D01*
D02*
G37*
G36*
X310195Y82500D02*
X308500D01*
Y80805D01*
X308878Y80881D01*
X309622Y81378D01*
X310120Y82122D01*
X310195Y82500D01*
D02*
G37*
G36*
X307500D02*
X305805D01*
X305880Y82122D01*
X306378Y81378D01*
X307122Y80881D01*
X307500Y80805D01*
Y82500D01*
D02*
G37*
G36*
X244494Y80692D02*
Y78997D01*
X246189D01*
X246113Y79375D01*
X245616Y80119D01*
X244872Y80616D01*
X244494Y80692D01*
D02*
G37*
G36*
X243494D02*
X243116Y80616D01*
X242372Y80119D01*
X241875Y79375D01*
X241799Y78997D01*
X243494D01*
Y80692D01*
D02*
G37*
G36*
X14628Y78206D02*
Y76512D01*
X16323D01*
X16248Y76889D01*
X15751Y77634D01*
X15007Y78131D01*
X14628Y78206D01*
D02*
G37*
G36*
X13629D02*
X13251Y78131D01*
X12506Y77634D01*
X12009Y76889D01*
X11934Y76512D01*
X13629D01*
Y78206D01*
D02*
G37*
G36*
X246189Y77997D02*
X244494D01*
Y76302D01*
X244872Y76377D01*
X245616Y76875D01*
X246113Y77619D01*
X246189Y77997D01*
D02*
G37*
G36*
X243494D02*
X241799D01*
X241875Y77619D01*
X242372Y76875D01*
X243116Y76377D01*
X243494Y76302D01*
Y77997D01*
D02*
G37*
G36*
X22500Y77195D02*
Y75500D01*
X24195D01*
X24119Y75878D01*
X23622Y76622D01*
X22878Y77119D01*
X22500Y77195D01*
D02*
G37*
G36*
X21500D02*
X21122Y77119D01*
X20378Y76622D01*
X19881Y75878D01*
X19805Y75500D01*
X21500D01*
Y77195D01*
D02*
G37*
G36*
X36500Y76195D02*
Y74500D01*
X38195D01*
X38120Y74878D01*
X37622Y75622D01*
X36878Y76119D01*
X36500Y76195D01*
D02*
G37*
G36*
X35500D02*
X35122Y76119D01*
X34378Y75622D01*
X33880Y74878D01*
X33805Y74500D01*
X35500D01*
Y76195D01*
D02*
G37*
G36*
X16323Y75512D02*
X14628D01*
Y73817D01*
X15007Y73892D01*
X15751Y74389D01*
X16248Y75134D01*
X16323Y75512D01*
D02*
G37*
G36*
X13629D02*
X11934D01*
X12009Y75134D01*
X12506Y74389D01*
X13251Y73892D01*
X13629Y73817D01*
Y75512D01*
D02*
G37*
G36*
X375500Y75195D02*
Y73500D01*
X377195D01*
X377119Y73878D01*
X376622Y74622D01*
X375878Y75119D01*
X375500Y75195D01*
D02*
G37*
G36*
X374500D02*
X374122Y75119D01*
X373378Y74622D01*
X372881Y73878D01*
X372805Y73500D01*
X374500D01*
Y75195D01*
D02*
G37*
G36*
X24195Y74500D02*
X22500D01*
Y72805D01*
X22878Y72881D01*
X23622Y73378D01*
X24119Y74122D01*
X24195Y74500D01*
D02*
G37*
G36*
X21500D02*
X19805D01*
X19881Y74122D01*
X20378Y73378D01*
X21122Y72881D01*
X21500Y72805D01*
Y74500D01*
D02*
G37*
G36*
X219500Y74195D02*
Y72500D01*
X221195D01*
X221119Y72878D01*
X220622Y73622D01*
X219878Y74119D01*
X219500Y74195D01*
D02*
G37*
G36*
X218500D02*
X218122Y74119D01*
X217378Y73622D01*
X216880Y72878D01*
X216805Y72500D01*
X218500D01*
Y74195D01*
D02*
G37*
G36*
X133360Y73668D02*
Y71973D01*
X135055D01*
X134979Y72351D01*
X134482Y73095D01*
X133738Y73592D01*
X133360Y73668D01*
D02*
G37*
G36*
X132360D02*
X131982Y73592D01*
X131238Y73095D01*
X130740Y72351D01*
X130665Y71973D01*
X132360D01*
Y73668D01*
D02*
G37*
G36*
X38195Y73500D02*
X36500D01*
Y71805D01*
X36878Y71881D01*
X37622Y72378D01*
X38120Y73122D01*
X38195Y73500D01*
D02*
G37*
G36*
X35500D02*
X33805D01*
X33880Y73122D01*
X34378Y72378D01*
X35122Y71881D01*
X35500Y71805D01*
Y73500D01*
D02*
G37*
G36*
X310878Y72615D02*
Y70920D01*
X312573D01*
X312497Y71298D01*
X312000Y72043D01*
X311256Y72540D01*
X310878Y72615D01*
D02*
G37*
G36*
X309878D02*
X309500Y72540D01*
X308756Y72043D01*
X308259Y71298D01*
X308183Y70920D01*
X309878D01*
Y72615D01*
D02*
G37*
G36*
X377195Y72500D02*
X375500D01*
Y70805D01*
X375878Y70881D01*
X376622Y71378D01*
X377119Y72122D01*
X377195Y72500D01*
D02*
G37*
G36*
X374500D02*
X372805D01*
X372881Y72122D01*
X373378Y71378D01*
X374122Y70881D01*
X374500Y70805D01*
Y72500D01*
D02*
G37*
G36*
X221195Y71500D02*
X219500D01*
Y69805D01*
X219878Y69881D01*
X220622Y70378D01*
X221119Y71122D01*
X221195Y71500D01*
D02*
G37*
G36*
X218500D02*
X216805D01*
X216880Y71122D01*
X217378Y70378D01*
X218122Y69881D01*
X218500Y69805D01*
Y71500D01*
D02*
G37*
G36*
X135055Y70973D02*
X133360D01*
Y69278D01*
X133738Y69353D01*
X134482Y69851D01*
X134979Y70595D01*
X135055Y70973D01*
D02*
G37*
G36*
X132360D02*
X130665D01*
X130740Y70595D01*
X131238Y69851D01*
X131982Y69353D01*
X132360Y69278D01*
Y70973D01*
D02*
G37*
G36*
X145500Y70195D02*
Y68500D01*
X147195D01*
X147119Y68878D01*
X146622Y69622D01*
X145878Y70119D01*
X145500Y70195D01*
D02*
G37*
G36*
X144500D02*
X144122Y70119D01*
X143378Y69622D01*
X142880Y68878D01*
X142805Y68500D01*
X144500D01*
Y70195D01*
D02*
G37*
G36*
X312573Y69920D02*
X310878D01*
Y68226D01*
X311256Y68301D01*
X312000Y68798D01*
X312497Y69543D01*
X312573Y69920D01*
D02*
G37*
G36*
X309878D02*
X308183D01*
X308259Y69543D01*
X308756Y68798D01*
X309500Y68301D01*
X309878Y68226D01*
Y69920D01*
D02*
G37*
G36*
X147195Y67500D02*
X145500D01*
Y65805D01*
X145878Y65881D01*
X146622Y66378D01*
X147119Y67122D01*
X147195Y67500D01*
D02*
G37*
G36*
X144500D02*
X142805D01*
X142880Y67122D01*
X143378Y66378D01*
X144122Y65881D01*
X144500Y65805D01*
Y67500D01*
D02*
G37*
G36*
X302443Y66417D02*
Y64723D01*
X304137D01*
X304062Y65101D01*
X303565Y65845D01*
X302820Y66342D01*
X302443Y66417D01*
D02*
G37*
G36*
X301443D02*
X301065Y66342D01*
X300320Y65845D01*
X299823Y65101D01*
X299748Y64723D01*
X301443D01*
Y66417D01*
D02*
G37*
G36*
X289359Y65901D02*
Y64206D01*
X291053D01*
X290978Y64584D01*
X290481Y65329D01*
X289737Y65826D01*
X289359Y65901D01*
D02*
G37*
G36*
X288359D02*
X287981Y65826D01*
X287237Y65329D01*
X286739Y64584D01*
X286664Y64206D01*
X288359D01*
Y65901D01*
D02*
G37*
G36*
X304137Y63723D02*
X302443D01*
Y62028D01*
X302820Y62103D01*
X303565Y62601D01*
X304062Y63345D01*
X304137Y63723D01*
D02*
G37*
G36*
X301443D02*
X299748D01*
X299823Y63345D01*
X300320Y62601D01*
X301065Y62103D01*
X301443Y62028D01*
Y63723D01*
D02*
G37*
G36*
X291053Y63206D02*
X289359D01*
Y61512D01*
X289737Y61587D01*
X290481Y62084D01*
X290978Y62828D01*
X291053Y63206D01*
D02*
G37*
G36*
X288359D02*
X286664D01*
X286739Y62828D01*
X287237Y62084D01*
X287981Y61587D01*
X288359Y61512D01*
Y63206D01*
D02*
G37*
G36*
X200108Y60586D02*
Y58892D01*
X201803D01*
X201728Y59270D01*
X201230Y60014D01*
X200486Y60511D01*
X200108Y60586D01*
D02*
G37*
G36*
X199108D02*
X198730Y60511D01*
X197986Y60014D01*
X197489Y59270D01*
X197414Y58892D01*
X199108D01*
Y60586D01*
D02*
G37*
G36*
X201803Y57892D02*
X200108D01*
Y56197D01*
X200486Y56272D01*
X201230Y56770D01*
X201728Y57514D01*
X201803Y57892D01*
D02*
G37*
G36*
X199108D02*
X197414D01*
X197489Y57514D01*
X197986Y56770D01*
X198730Y56272D01*
X199108Y56197D01*
Y57892D01*
D02*
G37*
G36*
X92500Y57195D02*
Y55500D01*
X94195D01*
X94119Y55878D01*
X93622Y56622D01*
X92878Y57119D01*
X92500Y57195D01*
D02*
G37*
G36*
X91500D02*
X91122Y57119D01*
X90378Y56622D01*
X89881Y55878D01*
X89805Y55500D01*
X91500D01*
Y57195D01*
D02*
G37*
G36*
X373103Y56336D02*
Y54641D01*
X374797D01*
X374722Y55019D01*
X374225Y55763D01*
X373481Y56261D01*
X373103Y56336D01*
D02*
G37*
G36*
X372103D02*
X371725Y56261D01*
X370981Y55763D01*
X370483Y55019D01*
X370408Y54641D01*
X372103D01*
Y56336D01*
D02*
G37*
G36*
X94195Y54500D02*
X92500D01*
Y52805D01*
X92878Y52881D01*
X93622Y53378D01*
X94119Y54122D01*
X94195Y54500D01*
D02*
G37*
G36*
X91500D02*
X89805D01*
X89881Y54122D01*
X90378Y53378D01*
X91122Y52881D01*
X91500Y52805D01*
Y54500D01*
D02*
G37*
G36*
X313000Y183387D02*
X311864Y183238D01*
X310806Y182800D01*
X309897Y182103D01*
X309200Y181194D01*
X308762Y180136D01*
X308612Y179000D01*
X308762Y177864D01*
X309200Y176806D01*
X309897Y175898D01*
X310806Y175200D01*
X311864Y174762D01*
X312082Y174733D01*
Y127380D01*
X287351Y102649D01*
X287152Y102351D01*
X287082Y102000D01*
Y86380D01*
X269351Y68649D01*
X269152Y68351D01*
X269082Y68000D01*
Y52765D01*
X268582Y52649D01*
X267878Y53119D01*
X267500Y53195D01*
Y51000D01*
Y48805D01*
X267878Y48880D01*
X268582Y49351D01*
X269082Y49235D01*
Y22612D01*
X268666Y22334D01*
X268257Y21722D01*
X268114Y21000D01*
X268257Y20278D01*
X268666Y19666D01*
X269278Y19257D01*
X270000Y19114D01*
X270722Y19257D01*
X271334Y19666D01*
X271743Y20278D01*
X271886Y21000D01*
X271743Y21722D01*
X271334Y22334D01*
X270918Y22612D01*
Y67620D01*
X288649Y85351D01*
X288848Y85649D01*
X288918Y86000D01*
Y101620D01*
X313649Y126351D01*
X313848Y126649D01*
X313918Y127000D01*
Y174733D01*
X314136Y174762D01*
X315194Y175200D01*
X316103Y175898D01*
X316800Y176806D01*
X317238Y177864D01*
X317388Y179000D01*
X317238Y180136D01*
X316800Y181194D01*
X316103Y182103D01*
X315194Y182800D01*
X314136Y183238D01*
X313000Y183387D01*
D02*
G37*
G36*
X374797Y53641D02*
X373103D01*
Y51947D01*
X373481Y52022D01*
X374225Y52519D01*
X374722Y53263D01*
X374797Y53641D01*
D02*
G37*
G36*
X372103D02*
X370408D01*
X370483Y53263D01*
X370981Y52519D01*
X371725Y52022D01*
X372103Y51947D01*
Y53641D01*
D02*
G37*
G36*
X266500Y53195D02*
X266122Y53119D01*
X265378Y52622D01*
X264880Y51878D01*
X264805Y51500D01*
X266500D01*
Y53195D01*
D02*
G37*
G36*
X157506Y53153D02*
Y51458D01*
X159200D01*
X159125Y51836D01*
X158628Y52580D01*
X157884Y53078D01*
X157506Y53153D01*
D02*
G37*
G36*
X156506D02*
X156128Y53078D01*
X155383Y52580D01*
X154886Y51836D01*
X154811Y51458D01*
X156506D01*
Y53153D01*
D02*
G37*
G36*
X329500Y52195D02*
Y50500D01*
X331195D01*
X331119Y50878D01*
X330622Y51622D01*
X329878Y52119D01*
X329500Y52195D01*
D02*
G37*
G36*
X328500D02*
X328122Y52119D01*
X327378Y51622D01*
X326881Y50878D01*
X326805Y50500D01*
X328500D01*
Y52195D01*
D02*
G37*
G36*
X343500Y51195D02*
Y49500D01*
X345195D01*
X345120Y49878D01*
X344622Y50622D01*
X343878Y51120D01*
X343500Y51195D01*
D02*
G37*
G36*
X342500D02*
X342122Y51120D01*
X341378Y50622D01*
X340880Y49878D01*
X340805Y49500D01*
X342500D01*
Y51195D01*
D02*
G37*
G36*
X100500D02*
Y49500D01*
X102195D01*
X102119Y49878D01*
X101622Y50622D01*
X100878Y51120D01*
X100500Y51195D01*
D02*
G37*
G36*
X99500D02*
X99122Y51120D01*
X98378Y50622D01*
X97881Y49878D01*
X97805Y49500D01*
X99500D01*
Y51195D01*
D02*
G37*
G36*
X13500D02*
Y49500D01*
X15195D01*
X15120Y49878D01*
X14622Y50622D01*
X13878Y51120D01*
X13500Y51195D01*
D02*
G37*
G36*
X12500D02*
X12122Y51120D01*
X11378Y50622D01*
X10881Y49878D01*
X10805Y49500D01*
X12500D01*
Y51195D01*
D02*
G37*
G36*
X230000Y66515D02*
X228339Y66351D01*
X226741Y65867D01*
X225269Y65080D01*
X223979Y64021D01*
X222920Y62731D01*
X222133Y61259D01*
X221649Y59661D01*
X221485Y58000D01*
X221649Y56339D01*
X222133Y54741D01*
X222920Y53269D01*
X223979Y51979D01*
X225269Y50920D01*
X226741Y50133D01*
X228339Y49649D01*
X230000Y49485D01*
X231661Y49649D01*
X233259Y50133D01*
X234731Y50920D01*
X236021Y51979D01*
X237080Y53269D01*
X237867Y54741D01*
X238351Y56339D01*
X238515Y58000D01*
X238351Y59661D01*
X237867Y61259D01*
X237080Y62731D01*
X236021Y64021D01*
X234731Y65080D01*
X233259Y65867D01*
X231661Y66351D01*
X230000Y66515D01*
D02*
G37*
G36*
X266500Y50500D02*
X264805D01*
X264880Y50122D01*
X265378Y49378D01*
X266122Y48880D01*
X266500Y48805D01*
Y50500D01*
D02*
G37*
G36*
X159200Y50458D02*
X157506D01*
Y48763D01*
X157884Y48839D01*
X158628Y49336D01*
X159125Y50080D01*
X159200Y50458D01*
D02*
G37*
G36*
X156506D02*
X154811D01*
X154886Y50080D01*
X155383Y49336D01*
X156128Y48839D01*
X156506Y48763D01*
Y50458D01*
D02*
G37*
G36*
X331195Y49500D02*
X329500D01*
Y47805D01*
X329878Y47881D01*
X330622Y48378D01*
X331119Y49122D01*
X331195Y49500D01*
D02*
G37*
G36*
X328500D02*
X326805D01*
X326881Y49122D01*
X327378Y48378D01*
X328122Y47881D01*
X328500Y47805D01*
Y49500D01*
D02*
G37*
G36*
X345195Y48500D02*
X343500D01*
Y46805D01*
X343878Y46880D01*
X344622Y47378D01*
X345120Y48122D01*
X345195Y48500D01*
D02*
G37*
G36*
X342500D02*
X340805D01*
X340880Y48122D01*
X341378Y47378D01*
X342122Y46880D01*
X342500Y46805D01*
Y48500D01*
D02*
G37*
G36*
X102195D02*
X100500D01*
Y46805D01*
X100878Y46880D01*
X101622Y47378D01*
X102119Y48122D01*
X102195Y48500D01*
D02*
G37*
G36*
X99500D02*
X97805D01*
X97881Y48122D01*
X98378Y47378D01*
X99122Y46880D01*
X99500Y46805D01*
Y48500D01*
D02*
G37*
G36*
X15195D02*
X13500D01*
Y46805D01*
X13878Y46880D01*
X14622Y47378D01*
X15120Y48122D01*
X15195Y48500D01*
D02*
G37*
G36*
X12500D02*
X10805D01*
X10881Y48122D01*
X11378Y47378D01*
X12122Y46880D01*
X12500Y46805D01*
Y48500D01*
D02*
G37*
G36*
X75114Y47706D02*
Y46012D01*
X76809D01*
X76734Y46390D01*
X76236Y47134D01*
X75492Y47631D01*
X75114Y47706D01*
D02*
G37*
G36*
X64114D02*
X63736Y47631D01*
X62992Y47134D01*
X62495Y46390D01*
X62420Y46012D01*
X64114D01*
Y47706D01*
D02*
G37*
G36*
X74114D02*
X73736Y47631D01*
X72992Y47134D01*
X72495Y46390D01*
X72369Y45758D01*
X71859D01*
X71734Y46390D01*
X71236Y47134D01*
X70492Y47631D01*
X70114Y47706D01*
Y45512D01*
Y43317D01*
X70492Y43392D01*
X71236Y43890D01*
X71734Y44634D01*
X71859Y45266D01*
X72369D01*
X72495Y44634D01*
X72992Y43890D01*
X73736Y43392D01*
X74114Y43317D01*
Y45512D01*
Y47706D01*
D02*
G37*
G36*
X69114D02*
X68736Y47631D01*
X67992Y47134D01*
X67495Y46390D01*
X67369Y45758D01*
X66859D01*
X66734Y46390D01*
X66236Y47134D01*
X65492Y47631D01*
X65114Y47706D01*
Y45512D01*
Y43317D01*
X65492Y43392D01*
X66236Y43890D01*
X66734Y44634D01*
X66859Y45266D01*
X67369D01*
X67495Y44634D01*
X67992Y43890D01*
X68736Y43392D01*
X69114Y43317D01*
Y45512D01*
Y47706D01*
D02*
G37*
G36*
X237500Y47195D02*
Y45500D01*
X239195D01*
X239120Y45878D01*
X238622Y46622D01*
X237878Y47120D01*
X237500Y47195D01*
D02*
G37*
G36*
X236500D02*
X236122Y47120D01*
X235378Y46622D01*
X234880Y45878D01*
X234805Y45500D01*
X236500D01*
Y47195D01*
D02*
G37*
G36*
X45500D02*
Y45500D01*
X47195D01*
X47120Y45878D01*
X46622Y46622D01*
X45878Y47120D01*
X45500Y47195D01*
D02*
G37*
G36*
X34500D02*
X34122Y47120D01*
X33378Y46622D01*
X32880Y45878D01*
X32805Y45500D01*
X34500D01*
Y47195D01*
D02*
G37*
G36*
X29500D02*
Y45500D01*
X31195D01*
X31119Y45878D01*
X30622Y46622D01*
X29878Y47120D01*
X29500Y47195D01*
D02*
G37*
G36*
X28500D02*
X28122Y47120D01*
X27378Y46622D01*
X26880Y45878D01*
X26805Y45500D01*
X28500D01*
Y47195D01*
D02*
G37*
G36*
X23500D02*
Y45500D01*
X25195D01*
X25120Y45878D01*
X24622Y46622D01*
X23878Y47120D01*
X23500Y47195D01*
D02*
G37*
G36*
X17500D02*
X17122Y47120D01*
X16378Y46622D01*
X15880Y45878D01*
X15805Y45500D01*
X17500D01*
Y47195D01*
D02*
G37*
G36*
X8500D02*
Y45500D01*
X10195D01*
X10120Y45878D01*
X9622Y46622D01*
X8878Y47120D01*
X8500Y47195D01*
D02*
G37*
G36*
X7500D02*
X7122Y47120D01*
X6378Y46622D01*
X5881Y45878D01*
X5805Y45500D01*
X7500D01*
Y47195D01*
D02*
G37*
G36*
X39500D02*
X39122Y47120D01*
X38378Y46622D01*
X37881Y45878D01*
X37755Y45246D01*
X37245D01*
X37119Y45878D01*
X36622Y46622D01*
X35878Y47120D01*
X35500Y47195D01*
Y45000D01*
Y42805D01*
X35878Y42880D01*
X36622Y43378D01*
X37119Y44122D01*
X37245Y44754D01*
X37755D01*
X37881Y44122D01*
X38378Y43378D01*
X39122Y42880D01*
X39500Y42805D01*
Y45000D01*
Y47195D01*
D02*
G37*
G36*
X44500D02*
X44122Y47120D01*
X43378Y46622D01*
X42880Y45878D01*
X42755Y45246D01*
X42245D01*
X42120Y45878D01*
X41622Y46622D01*
X40878Y47120D01*
X40500Y47195D01*
Y45000D01*
Y42805D01*
X40878Y42880D01*
X41622Y43378D01*
X42120Y44122D01*
X42245Y44754D01*
X42755D01*
X42880Y44122D01*
X43378Y43378D01*
X44122Y42880D01*
X44500Y42805D01*
Y45000D01*
Y47195D01*
D02*
G37*
G36*
X22500D02*
X22122Y47120D01*
X21378Y46622D01*
X20880Y45878D01*
X20755Y45246D01*
X20245D01*
X20120Y45878D01*
X19622Y46622D01*
X18878Y47120D01*
X18500Y47195D01*
Y45000D01*
Y42805D01*
X18878Y42880D01*
X19622Y43378D01*
X20120Y44122D01*
X20245Y44754D01*
X20755D01*
X20880Y44122D01*
X21378Y43378D01*
X22122Y42880D01*
X22500Y42805D01*
Y45000D01*
Y47195D01*
D02*
G37*
G36*
X76809Y45012D02*
X75114D01*
Y43317D01*
X75492Y43392D01*
X76236Y43890D01*
X76734Y44634D01*
X76809Y45012D01*
D02*
G37*
G36*
X64114D02*
X62420D01*
X62495Y44634D01*
X62992Y43890D01*
X63736Y43392D01*
X64114Y43317D01*
Y45012D01*
D02*
G37*
G36*
X239195Y44500D02*
X237500D01*
Y42805D01*
X237878Y42880D01*
X238622Y43378D01*
X239120Y44122D01*
X239195Y44500D01*
D02*
G37*
G36*
X236500D02*
X234805D01*
X234880Y44122D01*
X235378Y43378D01*
X236122Y42880D01*
X236500Y42805D01*
Y44500D01*
D02*
G37*
G36*
X47195D02*
X45500D01*
Y42805D01*
X45878Y42880D01*
X46622Y43378D01*
X47120Y44122D01*
X47195Y44500D01*
D02*
G37*
G36*
X34500D02*
X32805D01*
X32880Y44122D01*
X33378Y43378D01*
X34122Y42880D01*
X34500Y42805D01*
Y44500D01*
D02*
G37*
G36*
X31195D02*
X29500D01*
Y42805D01*
X29878Y42880D01*
X30622Y43378D01*
X31119Y44122D01*
X31195Y44500D01*
D02*
G37*
G36*
X28500D02*
X26805D01*
X26880Y44122D01*
X27378Y43378D01*
X28122Y42880D01*
X28500Y42805D01*
Y44500D01*
D02*
G37*
G36*
X25195D02*
X23500D01*
Y42805D01*
X23878Y42880D01*
X24622Y43378D01*
X25120Y44122D01*
X25195Y44500D01*
D02*
G37*
G36*
X17500D02*
X15805D01*
X15880Y44122D01*
X16378Y43378D01*
X17122Y42880D01*
X17500Y42805D01*
Y44500D01*
D02*
G37*
G36*
X10195D02*
X8500D01*
Y42805D01*
X8878Y42880D01*
X9622Y43378D01*
X10120Y44122D01*
X10195Y44500D01*
D02*
G37*
G36*
X7500D02*
X5805D01*
X5881Y44122D01*
X6378Y43378D01*
X7122Y42880D01*
X7500Y42805D01*
Y44500D01*
D02*
G37*
G36*
X75114Y41706D02*
Y40012D01*
X76809D01*
X76734Y40390D01*
X76236Y41134D01*
X75492Y41631D01*
X75114Y41706D01*
D02*
G37*
G36*
X64114D02*
X63736Y41631D01*
X62992Y41134D01*
X62495Y40390D01*
X62420Y40012D01*
X64114D01*
Y41706D01*
D02*
G37*
G36*
X74114D02*
X73736Y41631D01*
X72992Y41134D01*
X72495Y40390D01*
X72369Y39758D01*
X71859D01*
X71734Y40390D01*
X71236Y41134D01*
X70492Y41631D01*
X70114Y41706D01*
Y39512D01*
Y37317D01*
X70492Y37392D01*
X71236Y37890D01*
X71734Y38634D01*
X71859Y39266D01*
X72369D01*
X72495Y38634D01*
X72992Y37890D01*
X73736Y37392D01*
X74114Y37317D01*
Y39512D01*
Y41706D01*
D02*
G37*
G36*
X69114D02*
X68736Y41631D01*
X67992Y41134D01*
X67495Y40390D01*
X67369Y39758D01*
X66859D01*
X66734Y40390D01*
X66236Y41134D01*
X65492Y41631D01*
X65114Y41706D01*
Y39512D01*
Y37317D01*
X65492Y37392D01*
X66236Y37890D01*
X66734Y38634D01*
X66859Y39266D01*
X67369D01*
X67495Y38634D01*
X67992Y37890D01*
X68736Y37392D01*
X69114Y37317D01*
Y39512D01*
Y41706D01*
D02*
G37*
G36*
X99500Y41195D02*
Y39500D01*
X101195D01*
X101119Y39878D01*
X100622Y40622D01*
X99878Y41120D01*
X99500Y41195D01*
D02*
G37*
G36*
X98500D02*
X98122Y41120D01*
X97378Y40622D01*
X96881Y39878D01*
X96805Y39500D01*
X98500D01*
Y41195D01*
D02*
G37*
G36*
X89244Y40081D02*
Y38387D01*
X90939D01*
X90864Y38765D01*
X90366Y39509D01*
X89622Y40006D01*
X89244Y40081D01*
D02*
G37*
G36*
X88244D02*
X87866Y40006D01*
X87122Y39509D01*
X86625Y38765D01*
X86550Y38387D01*
X88244D01*
Y40081D01*
D02*
G37*
G36*
X76809Y39012D02*
X75114D01*
Y37317D01*
X75492Y37392D01*
X76236Y37890D01*
X76734Y38634D01*
X76809Y39012D01*
D02*
G37*
G36*
X64114D02*
X62420D01*
X62495Y38634D01*
X62992Y37890D01*
X63736Y37392D01*
X64114Y37317D01*
Y39012D01*
D02*
G37*
G36*
X101195Y38500D02*
X99500D01*
Y36805D01*
X99878Y36880D01*
X100622Y37378D01*
X101119Y38122D01*
X101195Y38500D01*
D02*
G37*
G36*
X98500D02*
X96805D01*
X96881Y38122D01*
X97378Y37378D01*
X98122Y36880D01*
X98500Y36805D01*
Y38500D01*
D02*
G37*
G36*
X3500Y38195D02*
Y36500D01*
X5195D01*
X5119Y36878D01*
X4622Y37622D01*
X3878Y38120D01*
X3500Y38195D01*
D02*
G37*
G36*
X221195Y37500D02*
X219500D01*
Y35805D01*
X219878Y35881D01*
X220622Y36378D01*
X221119Y37122D01*
X221195Y37500D01*
D02*
G37*
G36*
X218500D02*
X216805D01*
X216880Y37122D01*
X217378Y36378D01*
X218122Y35881D01*
X218500Y35805D01*
Y37500D01*
D02*
G37*
G36*
X90939Y37387D02*
X89244D01*
Y35692D01*
X89622Y35767D01*
X90366Y36265D01*
X90864Y37009D01*
X90939Y37387D01*
D02*
G37*
G36*
X88244D02*
X86550D01*
X86625Y37009D01*
X87122Y36265D01*
X87866Y35767D01*
X88244Y35692D01*
Y37387D01*
D02*
G37*
G36*
X33500Y37195D02*
Y35500D01*
X35195D01*
X35120Y35878D01*
X34622Y36622D01*
X33878Y37119D01*
X33500Y37195D01*
D02*
G37*
G36*
X22500D02*
X22122Y37119D01*
X21378Y36622D01*
X20880Y35878D01*
X20805Y35500D01*
X22500D01*
Y37195D01*
D02*
G37*
G36*
X32500D02*
X32122Y37119D01*
X31378Y36622D01*
X30880Y35878D01*
X30755Y35246D01*
X30245D01*
X30119Y35878D01*
X29622Y36622D01*
X28878Y37119D01*
X28500Y37195D01*
Y35000D01*
Y32805D01*
X28878Y32880D01*
X29622Y33378D01*
X30119Y34122D01*
X30245Y34754D01*
X30755D01*
X30880Y34122D01*
X31378Y33378D01*
X32122Y32880D01*
X32500Y32805D01*
Y35000D01*
Y37195D01*
D02*
G37*
G36*
X27500D02*
X27122Y37119D01*
X26378Y36622D01*
X25881Y35878D01*
X25755Y35246D01*
X25245D01*
X25120Y35878D01*
X24622Y36622D01*
X23878Y37119D01*
X23500Y37195D01*
Y35000D01*
Y32805D01*
X23878Y32880D01*
X24622Y33378D01*
X25120Y34122D01*
X25245Y34754D01*
X25755D01*
X25881Y34122D01*
X26378Y33378D01*
X27122Y32880D01*
X27500Y32805D01*
Y35000D01*
Y37195D01*
D02*
G37*
G36*
X75114Y35706D02*
Y34012D01*
X76809D01*
X76734Y34390D01*
X76236Y35134D01*
X75492Y35631D01*
X75114Y35706D01*
D02*
G37*
G36*
X64114D02*
X63736Y35631D01*
X62992Y35134D01*
X62495Y34390D01*
X62420Y34012D01*
X64114D01*
Y35706D01*
D02*
G37*
G36*
X5195Y35500D02*
X3500D01*
Y33805D01*
X3878Y33880D01*
X4622Y34378D01*
X5119Y35122D01*
X5195Y35500D01*
D02*
G37*
G36*
X74114Y35706D02*
X73736Y35631D01*
X72992Y35134D01*
X72495Y34390D01*
X72369Y33758D01*
X71859D01*
X71734Y34390D01*
X71236Y35134D01*
X70492Y35631D01*
X70114Y35706D01*
Y33512D01*
Y31317D01*
X70492Y31392D01*
X71236Y31890D01*
X71734Y32634D01*
X71859Y33266D01*
X72369D01*
X72495Y32634D01*
X72992Y31890D01*
X73736Y31392D01*
X74114Y31317D01*
Y33512D01*
Y35706D01*
D02*
G37*
G36*
X69114D02*
X68736Y35631D01*
X67992Y35134D01*
X67495Y34390D01*
X67369Y33758D01*
X66859D01*
X66734Y34390D01*
X66236Y35134D01*
X65492Y35631D01*
X65114Y35706D01*
Y33512D01*
Y31317D01*
X65492Y31392D01*
X66236Y31890D01*
X66734Y32634D01*
X66859Y33266D01*
X67369D01*
X67495Y32634D01*
X67992Y31890D01*
X68736Y31392D01*
X69114Y31317D01*
Y33512D01*
Y35706D01*
D02*
G37*
G36*
X35195Y34500D02*
X33500D01*
Y32805D01*
X33878Y32880D01*
X34622Y33378D01*
X35120Y34122D01*
X35195Y34500D01*
D02*
G37*
G36*
X22500D02*
X20805D01*
X20880Y34122D01*
X21378Y33378D01*
X22122Y32880D01*
X22500Y32805D01*
Y34500D01*
D02*
G37*
G36*
X188195Y33500D02*
X186500D01*
Y31805D01*
X186878Y31881D01*
X187622Y32378D01*
X188119Y33122D01*
X188195Y33500D01*
D02*
G37*
G36*
X185500D02*
X183805D01*
X183880Y33122D01*
X184378Y32378D01*
X185122Y31881D01*
X185500Y31805D01*
Y33500D01*
D02*
G37*
G36*
X362500Y33195D02*
Y31500D01*
X364195D01*
X364120Y31878D01*
X363622Y32622D01*
X362878Y33119D01*
X362500Y33195D01*
D02*
G37*
G36*
X361500D02*
X361122Y33119D01*
X360378Y32622D01*
X359880Y31878D01*
X359805Y31500D01*
X361500D01*
Y33195D01*
D02*
G37*
G36*
X18500D02*
Y31500D01*
X20195D01*
X20120Y31878D01*
X19622Y32622D01*
X18878Y33119D01*
X18500Y33195D01*
D02*
G37*
G36*
X17500D02*
X17122Y33119D01*
X16378Y32622D01*
X15880Y31878D01*
X15805Y31500D01*
X17500D01*
Y33195D01*
D02*
G37*
G36*
X76809Y33012D02*
X75114D01*
Y31317D01*
X75492Y31392D01*
X76236Y31890D01*
X76734Y32634D01*
X76809Y33012D01*
D02*
G37*
G36*
X64114D02*
X62420D01*
X62495Y32634D01*
X62992Y31890D01*
X63736Y31392D01*
X64114Y31317D01*
Y33012D01*
D02*
G37*
G36*
X276964Y32675D02*
Y30981D01*
X278658D01*
X278583Y31359D01*
X278086Y32103D01*
X277342Y32600D01*
X276964Y32675D01*
D02*
G37*
G36*
X275964D02*
X275586Y32600D01*
X274842Y32103D01*
X274344Y31359D01*
X274269Y30981D01*
X275964D01*
Y32675D01*
D02*
G37*
G36*
X364195Y30500D02*
X362500D01*
Y28805D01*
X362878Y28881D01*
X363622Y29378D01*
X364120Y30122D01*
X364195Y30500D01*
D02*
G37*
G36*
X361500D02*
X359805D01*
X359880Y30122D01*
X360378Y29378D01*
X361122Y28881D01*
X361500Y28805D01*
Y30500D01*
D02*
G37*
G36*
X20195D02*
X18500D01*
Y28805D01*
X18878Y28881D01*
X19622Y29378D01*
X20120Y30122D01*
X20195Y30500D01*
D02*
G37*
G36*
X17500D02*
X15805D01*
X15880Y30122D01*
X16378Y29378D01*
X17122Y28881D01*
X17500Y28805D01*
Y30500D01*
D02*
G37*
G36*
X173500Y30195D02*
Y28500D01*
X175195D01*
X175119Y28878D01*
X174622Y29622D01*
X173878Y30119D01*
X173500Y30195D01*
D02*
G37*
G36*
X172500D02*
X172122Y30119D01*
X171378Y29622D01*
X170880Y28878D01*
X170805Y28500D01*
X172500D01*
Y30195D01*
D02*
G37*
G36*
X278658Y29981D02*
X276964D01*
Y28286D01*
X277342Y28361D01*
X278086Y28859D01*
X278583Y29603D01*
X278658Y29981D01*
D02*
G37*
G36*
X275964D02*
X274269D01*
X274344Y29603D01*
X274842Y28859D01*
X275586Y28361D01*
X275964Y28286D01*
Y29981D01*
D02*
G37*
G36*
X50500Y29195D02*
Y27500D01*
X52195D01*
X52119Y27878D01*
X51622Y28622D01*
X50878Y29120D01*
X50500Y29195D01*
D02*
G37*
G36*
X49500D02*
X49122Y29120D01*
X48378Y28622D01*
X47881Y27878D01*
X47805Y27500D01*
X49500D01*
Y29195D01*
D02*
G37*
G36*
X88155Y28644D02*
Y26949D01*
X89850D01*
X89774Y27327D01*
X89277Y28071D01*
X88533Y28569D01*
X88155Y28644D01*
D02*
G37*
G36*
X87155D02*
X86777Y28569D01*
X86033Y28071D01*
X85535Y27327D01*
X85460Y26949D01*
X87155D01*
Y28644D01*
D02*
G37*
G36*
X19695Y27695D02*
Y26000D01*
X21389D01*
X21314Y26378D01*
X20817Y27122D01*
X20073Y27619D01*
X19695Y27695D01*
D02*
G37*
G36*
X18695D02*
X18317Y27619D01*
X17572Y27122D01*
X17075Y26378D01*
X17000Y26000D01*
X18695D01*
Y27695D01*
D02*
G37*
G36*
X175195Y27500D02*
X173500D01*
Y25805D01*
X173878Y25881D01*
X174622Y26378D01*
X175119Y27122D01*
X175195Y27500D01*
D02*
G37*
G36*
X172500D02*
X170805D01*
X170880Y27122D01*
X171378Y26378D01*
X172122Y25881D01*
X172500Y25805D01*
Y27500D01*
D02*
G37*
G36*
X28500Y27195D02*
Y25500D01*
X30195D01*
X30119Y25878D01*
X29622Y26622D01*
X28878Y27119D01*
X28500Y27195D01*
D02*
G37*
G36*
X27500D02*
X27122Y27119D01*
X26378Y26622D01*
X25881Y25878D01*
X25805Y25500D01*
X27500D01*
Y27195D01*
D02*
G37*
G36*
X52195Y26500D02*
X50500D01*
Y24805D01*
X50878Y24881D01*
X51622Y25378D01*
X52119Y26122D01*
X52195Y26500D01*
D02*
G37*
G36*
X49500D02*
X47805D01*
X47881Y26122D01*
X48378Y25378D01*
X49122Y24881D01*
X49500Y24805D01*
Y26500D01*
D02*
G37*
G36*
X146976Y26102D02*
Y24408D01*
X148670D01*
X148595Y24786D01*
X148098Y25530D01*
X147354Y26027D01*
X146976Y26102D01*
D02*
G37*
G36*
X145976D02*
X145598Y26027D01*
X144854Y25530D01*
X144356Y24786D01*
X144281Y24408D01*
X145976D01*
Y26102D01*
D02*
G37*
G36*
X30195Y24500D02*
X28500D01*
Y22805D01*
X28878Y22881D01*
X29622Y23378D01*
X30119Y24122D01*
X30195Y24500D01*
D02*
G37*
G36*
X27500D02*
X25805D01*
X25881Y24122D01*
X26378Y23378D01*
X27122Y22881D01*
X27500Y22805D01*
Y24500D01*
D02*
G37*
G36*
X102500Y24195D02*
Y22500D01*
X104195D01*
X104120Y22878D01*
X103622Y23622D01*
X102878Y24119D01*
X102500Y24195D01*
D02*
G37*
G36*
X101500D02*
X101122Y24119D01*
X100378Y23622D01*
X99881Y22878D01*
X99805Y22500D01*
X101500D01*
Y24195D01*
D02*
G37*
G36*
X21389Y25000D02*
X17000D01*
X17075Y24622D01*
X17572Y23878D01*
X17764Y23750D01*
Y23250D01*
X17572Y23122D01*
X17075Y22378D01*
X17000Y22000D01*
X21389D01*
X21314Y22378D01*
X20817Y23122D01*
X20626Y23250D01*
Y23750D01*
X20817Y23878D01*
X21314Y24622D01*
X21389Y25000D01*
D02*
G37*
G36*
X148670Y23408D02*
X146976D01*
Y21713D01*
X147354Y21788D01*
X148098Y22286D01*
X148595Y23030D01*
X148670Y23408D01*
D02*
G37*
G36*
X145976D02*
X144281D01*
X144356Y23030D01*
X144854Y22286D01*
X145598Y21788D01*
X145976Y21713D01*
Y23408D01*
D02*
G37*
G36*
X104195Y21500D02*
X102500D01*
Y19805D01*
X102878Y19881D01*
X103622Y20378D01*
X104120Y21122D01*
X104195Y21500D01*
D02*
G37*
G36*
X101500D02*
X99805D01*
X99881Y21122D01*
X100378Y20378D01*
X101122Y19881D01*
X101500Y19805D01*
Y21500D01*
D02*
G37*
G36*
X221500Y21195D02*
Y19500D01*
X223195D01*
X223119Y19878D01*
X222622Y20622D01*
X221878Y21120D01*
X221500Y21195D01*
D02*
G37*
G36*
X220500D02*
X220122Y21120D01*
X219378Y20622D01*
X218881Y19878D01*
X218805Y19500D01*
X220500D01*
Y21195D01*
D02*
G37*
G36*
X28500D02*
Y19500D01*
X30195D01*
X30119Y19878D01*
X29622Y20622D01*
X28878Y21120D01*
X28500Y21195D01*
D02*
G37*
G36*
X27500D02*
X27122Y21120D01*
X26378Y20622D01*
X25881Y19878D01*
X25805Y19500D01*
X27500D01*
Y21195D01*
D02*
G37*
G36*
X164500Y20195D02*
Y18500D01*
X166195D01*
X166120Y18878D01*
X165622Y19622D01*
X164878Y20120D01*
X164500Y20195D01*
D02*
G37*
G36*
X163500D02*
X163122Y20120D01*
X162378Y19622D01*
X161881Y18878D01*
X161805Y18500D01*
X163500D01*
Y20195D01*
D02*
G37*
G36*
X261298Y19764D02*
Y18069D01*
X262992D01*
X262917Y18447D01*
X262420Y19191D01*
X261676Y19689D01*
X261298Y19764D01*
D02*
G37*
G36*
X260298D02*
X259920Y19689D01*
X259176Y19191D01*
X258678Y18447D01*
X258603Y18069D01*
X260298D01*
Y19764D01*
D02*
G37*
G36*
X21389Y21000D02*
X17000D01*
X17075Y20622D01*
X17572Y19878D01*
X18317Y19380D01*
X18948Y19255D01*
Y18745D01*
X18317Y18620D01*
X17572Y18122D01*
X17075Y17378D01*
X17000Y17000D01*
X21389D01*
X21314Y17378D01*
X20817Y18122D01*
X20073Y18620D01*
X19441Y18745D01*
Y19255D01*
X20073Y19380D01*
X20817Y19878D01*
X21314Y20622D01*
X21389Y21000D01*
D02*
G37*
G36*
X223195Y18500D02*
X221500D01*
Y16805D01*
X221878Y16881D01*
X222622Y17378D01*
X223119Y18122D01*
X223195Y18500D01*
D02*
G37*
G36*
X220500D02*
X218805D01*
X218881Y18122D01*
X219378Y17378D01*
X220122Y16881D01*
X220500Y16805D01*
Y18500D01*
D02*
G37*
G36*
X30195D02*
X28500D01*
Y16805D01*
X28878Y16881D01*
X29622Y17378D01*
X30119Y18122D01*
X30195Y18500D01*
D02*
G37*
G36*
X27500D02*
X25805D01*
X25881Y18122D01*
X26378Y17378D01*
X27122Y16881D01*
X27500Y16805D01*
Y18500D01*
D02*
G37*
G36*
X349050Y18407D02*
Y16713D01*
X350745D01*
X350670Y17090D01*
X350173Y17835D01*
X349428Y18332D01*
X349050Y18407D01*
D02*
G37*
G36*
X348050D02*
X347673Y18332D01*
X346928Y17835D01*
X346431Y17090D01*
X346356Y16713D01*
X348050D01*
Y18407D01*
D02*
G37*
G36*
X166195Y17500D02*
X164500D01*
Y15805D01*
X164878Y15880D01*
X165622Y16378D01*
X166120Y17122D01*
X166195Y17500D01*
D02*
G37*
G36*
X163500D02*
X161805D01*
X161881Y17122D01*
X162378Y16378D01*
X163122Y15880D01*
X163500Y15805D01*
Y17500D01*
D02*
G37*
G36*
X262992Y17069D02*
X261298D01*
Y15375D01*
X261676Y15450D01*
X262420Y15947D01*
X262917Y16691D01*
X262992Y17069D01*
D02*
G37*
G36*
X260298D02*
X258603D01*
X258678Y16691D01*
X259176Y15947D01*
X259920Y15450D01*
X260298Y15375D01*
Y17069D01*
D02*
G37*
G36*
X350745Y15713D02*
X349050D01*
Y14018D01*
X349428Y14093D01*
X350173Y14590D01*
X350670Y15335D01*
X350745Y15713D01*
D02*
G37*
G36*
X348050D02*
X346356D01*
X346431Y15335D01*
X346928Y14590D01*
X347673Y14093D01*
X348050Y14018D01*
Y15713D01*
D02*
G37*
G36*
X252500Y15195D02*
Y13500D01*
X254195D01*
X254119Y13878D01*
X253622Y14622D01*
X252878Y15120D01*
X252500Y15195D01*
D02*
G37*
G36*
X251500D02*
X251122Y15120D01*
X250378Y14622D01*
X249881Y13878D01*
X249805Y13500D01*
X251500D01*
Y15195D01*
D02*
G37*
G36*
X21389Y16000D02*
X17000D01*
X17075Y15622D01*
X17572Y14878D01*
X17764Y14750D01*
Y14250D01*
X17572Y14122D01*
X17075Y13378D01*
X17000Y13000D01*
X21389D01*
X21314Y13378D01*
X20817Y14122D01*
X20626Y14250D01*
Y14750D01*
X20817Y14878D01*
X21314Y15622D01*
X21389Y16000D01*
D02*
G37*
G36*
X28500Y14195D02*
Y12500D01*
X30195D01*
X30119Y12878D01*
X29622Y13622D01*
X28878Y14119D01*
X28500Y14195D01*
D02*
G37*
G36*
X27500D02*
X27122Y14119D01*
X26378Y13622D01*
X25881Y12878D01*
X25805Y12500D01*
X27500D01*
Y14195D01*
D02*
G37*
G36*
X254195Y12500D02*
X252500D01*
Y10805D01*
X252878Y10881D01*
X253622Y11378D01*
X254119Y12122D01*
X254195Y12500D01*
D02*
G37*
G36*
X251500D02*
X249805D01*
X249881Y12122D01*
X250378Y11378D01*
X251122Y10881D01*
X251500Y10805D01*
Y12500D01*
D02*
G37*
G36*
X21389Y12000D02*
X19695D01*
Y10305D01*
X20073Y10380D01*
X20817Y10878D01*
X21314Y11622D01*
X21389Y12000D01*
D02*
G37*
G36*
X18695D02*
X17000D01*
X17075Y11622D01*
X17572Y10878D01*
X18317Y10380D01*
X18695Y10305D01*
Y12000D01*
D02*
G37*
G36*
X30195Y11500D02*
X28500D01*
Y9805D01*
X28878Y9881D01*
X29622Y10378D01*
X30119Y11122D01*
X30195Y11500D01*
D02*
G37*
G36*
X27500D02*
X25805D01*
X25881Y11122D01*
X26378Y10378D01*
X27122Y9881D01*
X27500Y9805D01*
Y11500D01*
D02*
G37*
G36*
X228500Y11195D02*
Y9500D01*
X230195D01*
X230119Y9878D01*
X229622Y10622D01*
X228878Y11119D01*
X228500Y11195D01*
D02*
G37*
G36*
X227500D02*
X227122Y11119D01*
X226378Y10622D01*
X225881Y9878D01*
X225805Y9500D01*
X227500D01*
Y11195D01*
D02*
G37*
G36*
X121196Y11034D02*
Y9339D01*
X122891D01*
X122816Y9717D01*
X122318Y10462D01*
X121574Y10959D01*
X121196Y11034D01*
D02*
G37*
G36*
X120196D02*
X119818Y10959D01*
X119074Y10462D01*
X118577Y9717D01*
X118502Y9339D01*
X120196D01*
Y11034D01*
D02*
G37*
G36*
X142000Y81886D02*
X141278Y81743D01*
X140666Y81334D01*
X140257Y80722D01*
X140114Y80000D01*
X140257Y79278D01*
X140666Y78666D01*
X141082Y78388D01*
Y71380D01*
X128351Y58649D01*
X128152Y58351D01*
X128082Y58000D01*
Y22000D01*
X128152Y21649D01*
X128351Y21351D01*
X140351Y9351D01*
X140649Y9152D01*
X141000Y9082D01*
X170388D01*
X170666Y8666D01*
X171278Y8257D01*
X172000Y8114D01*
X172722Y8257D01*
X173334Y8666D01*
X173743Y9278D01*
X173886Y10000D01*
X173743Y10722D01*
X173334Y11334D01*
X172722Y11743D01*
X172000Y11886D01*
X171278Y11743D01*
X170666Y11334D01*
X170388Y10918D01*
X141380D01*
X129918Y22380D01*
Y57620D01*
X142649Y70351D01*
X142848Y70649D01*
X142918Y71000D01*
Y78388D01*
X143334Y78666D01*
X143743Y79278D01*
X143886Y80000D01*
X143743Y80722D01*
X143334Y81334D01*
X142722Y81743D01*
X142000Y81886D01*
D02*
G37*
G36*
X230195Y8500D02*
X228500D01*
Y6805D01*
X228878Y6881D01*
X229622Y7378D01*
X230119Y8122D01*
X230195Y8500D01*
D02*
G37*
G36*
X227500D02*
X225805D01*
X225881Y8122D01*
X226378Y7378D01*
X227122Y6881D01*
X227500Y6805D01*
Y8500D01*
D02*
G37*
G36*
X122891Y8339D02*
X121196D01*
Y6645D01*
X121574Y6720D01*
X122318Y7217D01*
X122816Y7961D01*
X122891Y8339D01*
D02*
G37*
G36*
X120196D02*
X118502D01*
X118577Y7961D01*
X119074Y7217D01*
X119818Y6720D01*
X120196Y6645D01*
Y8339D01*
D02*
G37*
G36*
X19695Y7695D02*
Y6000D01*
X21389D01*
X21314Y6378D01*
X20817Y7122D01*
X20073Y7620D01*
X19695Y7695D01*
D02*
G37*
G36*
X18695D02*
X18317Y7620D01*
X17572Y7122D01*
X17075Y6378D01*
X17000Y6000D01*
X18695D01*
Y7695D01*
D02*
G37*
G36*
X143708Y7585D02*
Y5890D01*
X145403D01*
X145327Y6268D01*
X144830Y7012D01*
X144086Y7509D01*
X143708Y7585D01*
D02*
G37*
G36*
X142708D02*
X142330Y7509D01*
X141586Y7012D01*
X141089Y6268D01*
X141013Y5890D01*
X142708D01*
Y7585D01*
D02*
G37*
G36*
X28500Y7195D02*
Y5500D01*
X30195D01*
X30119Y5878D01*
X29622Y6622D01*
X28878Y7119D01*
X28500Y7195D01*
D02*
G37*
G36*
X27500D02*
X27122Y7119D01*
X26378Y6622D01*
X25881Y5878D01*
X25805Y5500D01*
X27500D01*
Y7195D01*
D02*
G37*
G36*
X378000Y21515D02*
X376339Y21351D01*
X374741Y20867D01*
X373269Y20080D01*
X371979Y19021D01*
X370920Y17731D01*
X370133Y16259D01*
X369649Y14661D01*
X369485Y13000D01*
X369649Y11339D01*
X370133Y9742D01*
X370920Y8269D01*
X371979Y6979D01*
X373269Y5920D01*
X374741Y5133D01*
X376339Y4649D01*
X378000Y4485D01*
X379661Y4649D01*
X381259Y5133D01*
X382731Y5920D01*
X384021Y6979D01*
X385080Y8269D01*
X385867Y9742D01*
X386351Y11339D01*
X386515Y13000D01*
X386351Y14661D01*
X385867Y16259D01*
X385080Y17731D01*
X384021Y19021D01*
X382731Y20080D01*
X381259Y20867D01*
X379661Y21351D01*
X378000Y21515D01*
D02*
G37*
G36*
X311000Y44329D02*
X308347Y44155D01*
X305739Y43636D01*
X303221Y42781D01*
X300836Y41605D01*
X298625Y40128D01*
X296625Y38375D01*
X294872Y36375D01*
X293395Y34164D01*
X292219Y31779D01*
X291364Y29261D01*
X290845Y26653D01*
X290671Y24000D01*
X290845Y21347D01*
X291364Y18739D01*
X292219Y16221D01*
X293395Y13836D01*
X294872Y11625D01*
X296625Y9625D01*
X298625Y7872D01*
X300836Y6395D01*
X303221Y5219D01*
X305739Y4364D01*
X308347Y3845D01*
X311000Y3671D01*
X313653Y3845D01*
X316261Y4364D01*
X318779Y5219D01*
X321164Y6395D01*
X323375Y7872D01*
X325375Y9625D01*
X327128Y11625D01*
X328605Y13836D01*
X329781Y16221D01*
X330636Y18739D01*
X331155Y21347D01*
X331329Y24000D01*
X331155Y26653D01*
X330636Y29261D01*
X329781Y31779D01*
X328605Y34164D01*
X327128Y36375D01*
X325375Y38375D01*
X323375Y40128D01*
X321164Y41605D01*
X318779Y42781D01*
X316261Y43636D01*
X313653Y44155D01*
X311000Y44329D01*
D02*
G37*
G36*
X21389Y5000D02*
X19695D01*
Y3305D01*
X20073Y3381D01*
X20817Y3878D01*
X21314Y4622D01*
X21389Y5000D01*
D02*
G37*
G36*
X18695D02*
X17000D01*
X17075Y4622D01*
X17572Y3878D01*
X18317Y3381D01*
X18695Y3305D01*
Y5000D01*
D02*
G37*
G36*
X145403Y4890D02*
X143708D01*
Y3195D01*
X144086Y3271D01*
X144830Y3768D01*
X145327Y4512D01*
X145403Y4890D01*
D02*
G37*
G36*
X142708D02*
X141013D01*
X141089Y4512D01*
X141586Y3768D01*
X142330Y3271D01*
X142708Y3195D01*
Y4890D01*
D02*
G37*
G36*
X30195Y4500D02*
X28500D01*
Y2805D01*
X28878Y2881D01*
X29622Y3378D01*
X30119Y4122D01*
X30195Y4500D01*
D02*
G37*
G36*
X27500D02*
X25805D01*
X25881Y4122D01*
X26378Y3378D01*
X27122Y2881D01*
X27500Y2805D01*
Y4500D01*
D02*
G37*
%LPD*%
G36*
X209351Y242351D02*
X209649Y242152D01*
X210000Y242082D01*
X259887D01*
X260038Y241582D01*
X259666Y241334D01*
X259388Y240918D01*
X208380D01*
X202649Y246649D01*
X202351Y246848D01*
X202000Y246918D01*
X192512D01*
X192334Y247184D01*
X191737Y247582D01*
X191728Y247624D01*
X191820Y248082D01*
X203620D01*
X209351Y242351D01*
D02*
G37*
G36*
X31102Y79097D02*
X31082Y79000D01*
Y63000D01*
X31152Y62649D01*
X31351Y62351D01*
X33351Y60351D01*
X33649Y60152D01*
X34000Y60082D01*
X47000D01*
X47097Y60102D01*
X47343Y59641D01*
X46620Y58918D01*
X33380D01*
X27918Y64380D01*
Y76620D01*
X30641Y79343D01*
X31102Y79097D01*
D02*
G37*
G36*
X182038Y81582D02*
X181666Y81334D01*
X181257Y80722D01*
X181114Y80000D01*
X181257Y79278D01*
X181666Y78666D01*
X182278Y78257D01*
X183000Y78114D01*
X183722Y78257D01*
X184334Y78666D01*
X184612Y79082D01*
X186620D01*
X191082Y74620D01*
Y45612D01*
X190666Y45334D01*
X190257Y44722D01*
X190114Y44000D01*
X190257Y43278D01*
X190666Y42666D01*
X191038Y42418D01*
X190887Y41918D01*
X190380D01*
X188918Y43380D01*
Y58000D01*
X188848Y58351D01*
X188649Y58649D01*
X185649Y61649D01*
X185351Y61848D01*
X185000Y61918D01*
X156612D01*
X156334Y62334D01*
X155722Y62743D01*
X155000Y62886D01*
X154278Y62743D01*
X153666Y62334D01*
X153257Y61722D01*
X153114Y61000D01*
X153257Y60278D01*
X153666Y59666D01*
X153978Y59458D01*
X153826Y58958D01*
X151340D01*
X150918Y59380D01*
Y78620D01*
X154380Y82082D01*
X181887D01*
X182038Y81582D01*
D02*
G37*
G36*
X272851Y97234D02*
X273082Y97100D01*
Y81380D01*
X261351Y69649D01*
X261152Y69351D01*
X261082Y69000D01*
Y34380D01*
X253620Y26918D01*
X218765D01*
X218649Y27418D01*
X219120Y28122D01*
X219195Y28500D01*
X214805D01*
X214880Y28122D01*
X215351Y27418D01*
X215235Y26918D01*
X214612D01*
X214334Y27334D01*
X213722Y27743D01*
X213000Y27886D01*
X212278Y27743D01*
X211666Y27334D01*
X211388Y26918D01*
X206380D01*
X195715Y37582D01*
X195766Y37851D01*
X195900Y38082D01*
X210620D01*
X212082Y36620D01*
Y34612D01*
X211666Y34334D01*
X211257Y33722D01*
X211114Y33000D01*
X211257Y32278D01*
X211666Y31666D01*
X212278Y31257D01*
X213000Y31114D01*
X213722Y31257D01*
X214334Y31666D01*
X214612Y32082D01*
X250000D01*
X250351Y32152D01*
X250649Y32351D01*
X256649Y38351D01*
X256848Y38649D01*
X256918Y39000D01*
Y81620D01*
X272582Y97285D01*
X272851Y97234D01*
D02*
G37*
G36*
X124102Y74097D02*
X124082Y74000D01*
Y25380D01*
X122359Y23657D01*
X121898Y23903D01*
X121918Y24000D01*
Y72620D01*
X123641Y74343D01*
X124102Y74097D01*
D02*
G37*
G36*
X98285Y17418D02*
X98234Y17149D01*
X98100Y16918D01*
X92380D01*
X87715Y21582D01*
X87766Y21851D01*
X87900Y22082D01*
X89388D01*
X89666Y21666D01*
X90278Y21257D01*
X91000Y21114D01*
X91722Y21257D01*
X92334Y21666D01*
X92612Y22082D01*
X93620D01*
X98285Y17418D01*
D02*
G37*
G36*
X111666Y47666D02*
X112082Y47388D01*
Y21380D01*
X111380Y20677D01*
X110918Y20869D01*
Y47887D01*
X111418Y48038D01*
X111666Y47666D01*
D02*
G37*
G36*
X87351Y11351D02*
X87649Y11152D01*
X88000Y11082D01*
X106078D01*
X106285Y10582D01*
X100820Y5118D01*
X96050D01*
X95782Y5618D01*
X96119Y6122D01*
X96195Y6500D01*
X91805D01*
X91881Y6122D01*
X92218Y5618D01*
X91950Y5118D01*
X65571D01*
X65448Y5285D01*
X65664Y5838D01*
X65878Y5881D01*
X66622Y6378D01*
X67119Y7122D01*
X67195Y7500D01*
X65000D01*
Y8500D01*
X67195D01*
X67119Y8878D01*
X66622Y9622D01*
X65878Y10120D01*
X65233Y10248D01*
X65128Y10779D01*
X65334Y10916D01*
X65612Y11332D01*
X67250D01*
X67601Y11402D01*
X67899Y11601D01*
X72380Y16082D01*
X82620D01*
X87351Y11351D01*
D02*
G37*
%LPC*%
G36*
X174752Y70763D02*
Y69068D01*
X176447D01*
X176372Y69446D01*
X175875Y70190D01*
X175130Y70688D01*
X174752Y70763D01*
D02*
G37*
G36*
X173752D02*
X173375Y70688D01*
X172630Y70190D01*
X172133Y69446D01*
X172058Y69068D01*
X173752D01*
Y70763D01*
D02*
G37*
G36*
X156779Y70218D02*
Y68524D01*
X158474D01*
X158399Y68901D01*
X157902Y69646D01*
X157157Y70143D01*
X156779Y70218D01*
D02*
G37*
G36*
X155779D02*
X155402Y70143D01*
X154657Y69646D01*
X154160Y68901D01*
X154085Y68524D01*
X155779D01*
Y70218D01*
D02*
G37*
G36*
X176447Y68068D02*
X174752D01*
Y66373D01*
X175130Y66449D01*
X175875Y66946D01*
X176372Y67690D01*
X176447Y68068D01*
D02*
G37*
G36*
X173752D02*
X172058D01*
X172133Y67690D01*
X172630Y66946D01*
X173375Y66449D01*
X173752Y66373D01*
Y68068D01*
D02*
G37*
G36*
X158474Y67523D02*
X156779D01*
Y65829D01*
X157157Y65904D01*
X157902Y66401D01*
X158399Y67146D01*
X158474Y67523D01*
D02*
G37*
G36*
X155779D02*
X154085D01*
X154160Y67146D01*
X154657Y66401D01*
X155402Y65904D01*
X155779Y65829D01*
Y67523D01*
D02*
G37*
G36*
X262500Y81195D02*
Y79500D01*
X264195D01*
X264120Y79878D01*
X263622Y80622D01*
X262878Y81119D01*
X262500Y81195D01*
D02*
G37*
G36*
X261500D02*
X261122Y81119D01*
X260378Y80622D01*
X259880Y79878D01*
X259805Y79500D01*
X261500D01*
Y81195D01*
D02*
G37*
G36*
X264195Y78500D02*
X262500D01*
Y76805D01*
X262878Y76881D01*
X263622Y77378D01*
X264120Y78122D01*
X264195Y78500D01*
D02*
G37*
G36*
X261500D02*
X259805D01*
X259880Y78122D01*
X260378Y77378D01*
X261122Y76881D01*
X261500Y76805D01*
Y78500D01*
D02*
G37*
G36*
X217500Y31195D02*
Y29500D01*
X219195D01*
X219120Y29878D01*
X218622Y30622D01*
X217878Y31119D01*
X217500Y31195D01*
D02*
G37*
G36*
X216500D02*
X216122Y31119D01*
X215378Y30622D01*
X214880Y29878D01*
X214805Y29500D01*
X216500D01*
Y31195D01*
D02*
G37*
G36*
X94500Y9195D02*
Y7500D01*
X96195D01*
X96119Y7878D01*
X95622Y8622D01*
X94878Y9120D01*
X94500Y9195D01*
D02*
G37*
G36*
X93500D02*
X93122Y9120D01*
X92378Y8622D01*
X91881Y7878D01*
X91805Y7500D01*
X93500D01*
Y9195D01*
D02*
G37*
%LPD*%
D11*
X0Y0D02*
X392000D01*
Y301000D01*
X0D02*
X392000D01*
X0Y0D02*
Y301000D01*
D15*
X270000Y21000D02*
Y68000D01*
X53250Y67250D02*
X79449D01*
X51000Y62000D02*
X82449D01*
X210000Y116000D02*
X221000D01*
X199000D02*
X210000D01*
X91000Y23000D02*
X94000D01*
X79000D02*
X91000D01*
X199000Y97000D02*
Y116000D01*
X181000Y94000D02*
X192000D01*
X196000D01*
X77000Y105000D02*
X108000D01*
X122000Y91000D01*
X175000D01*
X83000Y17000D02*
X88000Y12000D01*
X106586D01*
X116000Y21414D01*
X90000Y14000D02*
X106000D01*
X85000Y19000D02*
X90000Y14000D01*
X106000D02*
X113000Y21000D01*
X87000D02*
X92000Y16000D01*
X106000D01*
X110000Y20000D01*
X99000Y18000D02*
X104000D01*
X94000Y23000D02*
X99000Y18000D01*
X104000D02*
X108000Y22000D01*
Y60000D01*
X266000Y277000D02*
X310000D01*
X294000Y240000D02*
Y253000D01*
X284000Y263000D02*
X294000Y253000D01*
X251000Y263000D02*
X284000D01*
X250000Y266000D02*
Y271000D01*
Y264000D02*
Y266000D01*
X279000Y259000D02*
X285000Y253000D01*
Y249000D02*
Y253000D01*
X238000Y261000D02*
Y264000D01*
Y261000D02*
X240000Y259000D01*
X279000D01*
X250000Y264000D02*
X251000Y263000D01*
X254000Y266000D02*
Y272000D01*
X250000Y276000D02*
X254000Y272000D01*
X223000Y276000D02*
X250000D01*
X218000Y271000D02*
X223000Y276000D01*
X248000Y273000D02*
X250000Y271000D01*
X225000Y273000D02*
X248000D01*
X222000Y270000D02*
X225000Y273000D01*
X218000Y255000D02*
Y271000D01*
Y255000D02*
X220000Y253000D01*
X223000D01*
X226000Y256000D01*
Y260000D01*
X214000Y261000D02*
Y272000D01*
X220000Y278000D02*
X252000D01*
X214000Y272000D02*
X220000Y278000D01*
X252000D02*
X258000Y272000D01*
X222000Y257000D02*
Y270000D01*
X258000Y266000D02*
Y272000D01*
X255000Y230351D02*
X255351Y230000D01*
X266000D01*
X255000Y230351D02*
Y233000D01*
X266000Y230000D02*
X270000Y234000D01*
Y242000D01*
X214000Y246000D02*
X266000D01*
X270000Y242000D01*
X261000Y235000D02*
X266000D01*
X140000Y218000D02*
X171000Y249000D01*
X204000D01*
X210000Y243000D01*
X190850Y246000D02*
X191000Y245850D01*
X174000Y246000D02*
X190850D01*
X210000Y243000D02*
X265000D01*
X267000Y241000D01*
Y236000D02*
Y241000D01*
X266000Y235000D02*
X267000Y236000D01*
X191000Y246000D02*
X202000D01*
X208000Y240000D01*
X261000D01*
X243000Y228000D02*
X265000D01*
X236000D02*
X243000D01*
X242937Y228063D02*
Y236000D01*
Y228063D02*
X243000Y228000D01*
X265000D02*
X268000Y225000D01*
Y216000D02*
Y225000D01*
X206000Y216000D02*
X258000D01*
X108000Y212000D02*
X202000D01*
X206000Y216000D01*
X68827Y18850D02*
X68977Y19000D01*
X56000Y13000D02*
X64000Y21000D01*
X87000D01*
X68977Y19000D02*
X85000D01*
X76000Y26000D02*
X79000Y23000D01*
X72000Y17000D02*
X83000D01*
X67250Y12250D02*
X72000Y17000D01*
X64000Y12250D02*
X67250D01*
X74000Y84000D02*
X84000D01*
X47150Y97000D02*
X61000D01*
X74000Y84000D01*
X84000D02*
X88000Y80000D01*
X258000Y204000D02*
X272000Y190000D01*
X256000Y82000D02*
X272000Y98000D01*
Y190000D01*
X150000Y79000D02*
X154000Y83000D01*
X200000D02*
X204000Y79000D01*
X154000Y83000D02*
X200000D01*
X125000Y74000D02*
X136000Y85000D01*
X215699Y84000D02*
X216000D01*
X214699Y85000D02*
X215699Y84000D01*
X136000Y85000D02*
X214699D01*
X177000Y37000D02*
X195000D01*
X206000Y26000D01*
X174000Y40000D02*
X177000Y37000D01*
X188000Y39000D02*
X211000D01*
X185000Y42000D02*
X188000Y39000D01*
X116000Y21414D02*
Y43000D01*
X58000Y3000D02*
X103000D01*
X125000Y25000D01*
X54000Y7000D02*
X58000Y3000D01*
X61000Y8000D02*
X64800Y4200D01*
X101200D02*
X121000Y24000D01*
X64800Y4200D02*
X101200D01*
X171000Y184000D02*
Y197000D01*
Y184000D02*
X177000Y178000D01*
X212000D01*
X217000Y173000D01*
Y165000D02*
Y173000D01*
X160000Y94000D02*
X222000Y156000D01*
Y197000D01*
X225000Y200000D01*
X248000D01*
X159000Y260000D02*
X164000Y255000D01*
X154000Y260000D02*
X159000D01*
X164000Y255000D02*
X186000D01*
X171000Y228000D02*
Y235000D01*
X175000Y239000D01*
X191000D01*
X194000Y236000D01*
Y233000D02*
Y236000D01*
X204000Y63000D02*
Y79000D01*
X150000Y59000D02*
Y79000D01*
Y59000D02*
X150960Y58040D01*
X164000D01*
X150000Y249000D02*
Y262000D01*
X144000Y268000D02*
X150000Y262000D01*
X144000Y268000D02*
Y290000D01*
X288000Y86000D02*
Y102000D01*
X313000Y127000D02*
Y179000D01*
X288000Y102000D02*
X313000Y127000D01*
X291000Y113000D02*
Y124000D01*
X277000Y99000D02*
X291000Y113000D01*
X270000Y68000D02*
X288000Y86000D01*
X142000Y71000D02*
Y80000D01*
X129000Y58000D02*
X142000Y71000D01*
X129000Y22000D02*
Y58000D01*
Y22000D02*
X141000Y10000D01*
X172000D01*
X133000Y94000D02*
X160000D01*
X121000Y97000D02*
Y101000D01*
X123000Y103000D01*
X141000D01*
X144000Y106000D01*
Y113000D01*
X139000Y118000D02*
X144000Y113000D01*
X100000Y118000D02*
X139000D01*
X81000Y123000D02*
X154000D01*
X172000Y141000D02*
Y157000D01*
X154000Y123000D02*
X172000Y141000D01*
X67000Y109000D02*
X81000Y123000D01*
X114000Y57000D02*
Y61000D01*
X113000Y76000D02*
X117000D01*
X108000Y71000D02*
X113000Y76000D01*
X262000Y69000D02*
X274000Y81000D01*
Y106000D01*
X256000Y39000D02*
Y82000D01*
X274000Y106000D02*
X278000Y110000D01*
X194000Y204000D02*
X258000D01*
X278000Y110000D02*
Y194000D01*
X200000Y208000D02*
X264000D01*
X278000Y194000D01*
X106000Y214000D02*
X108000Y212000D01*
X250000Y33000D02*
X256000Y39000D01*
X213000Y33000D02*
X250000D01*
X213000Y26000D02*
X254000D01*
X262000Y34000D01*
Y69000D01*
X156000Y215000D02*
X194000D01*
X154000Y217000D02*
X156000Y215000D01*
X154000Y217000D02*
Y220000D01*
X161000D02*
X200000D01*
X150000Y234000D02*
Y249000D01*
X142000Y214000D02*
X174000Y246000D01*
X124000Y214000D02*
X142000D01*
X130000Y218000D02*
X140000D01*
X122000Y216000D02*
X124000Y214000D01*
X106000D02*
Y222000D01*
X108000Y224000D01*
X119000D01*
X88000Y60000D02*
X108000D01*
Y71000D01*
X110000Y53000D02*
X114000Y57000D01*
X110000Y20000D02*
Y53000D01*
X113000Y21000D02*
Y49000D01*
X185000Y61000D02*
X188000Y58000D01*
X155000Y61000D02*
X185000D01*
X206000Y26000D02*
X213000D01*
X174000Y40000D02*
Y46000D01*
X213000Y33000D02*
Y37000D01*
X211000Y39000D02*
X213000Y37000D01*
X185000Y42000D02*
Y48000D01*
X181000Y52000D02*
X185000Y48000D01*
X173000Y52000D02*
X181000D01*
X170000Y49000D02*
X173000Y52000D01*
X170000Y43000D02*
Y49000D01*
X188000Y43000D02*
Y58000D01*
X190000Y41000D02*
X249000D01*
X188000Y43000D02*
X190000Y41000D01*
X183000Y80000D02*
X187000D01*
X192000Y44000D02*
Y75000D01*
X187000Y80000D02*
X192000Y75000D01*
X82000Y93000D02*
X105000D01*
X83000Y89000D02*
X100000D01*
X277000D02*
Y99000D01*
X260032Y97031D02*
X265032D01*
X134000Y43000D02*
X170000D01*
X121000Y73000D02*
X136000Y88000D01*
X121000Y24000D02*
Y73000D01*
X125000Y25000D02*
Y74000D01*
X136000Y88000D02*
X233000D01*
X73000Y102000D02*
X82000Y93000D01*
X71000Y101000D02*
X83000Y89000D01*
X49000Y71000D02*
X59000Y81000D01*
X80000D01*
X47000Y66000D02*
X56000Y75000D01*
X83000D01*
X39000Y66000D02*
X47000D01*
X88000Y60000D02*
Y80000D01*
X76000Y87000D02*
Y92000D01*
X67000Y101000D02*
X76000Y92000D01*
X67000Y101000D02*
Y109000D01*
X248000Y200000D02*
X255000Y193000D01*
Y175000D02*
Y193000D01*
X241000Y127000D02*
X246000Y122000D01*
Y95000D02*
Y122000D01*
X241000Y127000D02*
Y190000D01*
X110000Y216000D02*
X122000D01*
X73000Y107000D02*
X75000Y109000D01*
X73000Y102000D02*
Y107000D01*
X75000Y109000D02*
X123000D01*
X71000Y108000D02*
X76000Y113000D01*
X71000Y101000D02*
Y108000D01*
X76000Y113000D02*
X93000D01*
X127000D02*
X131000D01*
X123000Y109000D02*
X127000Y113000D01*
X172000Y157000D02*
X174000Y159000D01*
X177000D01*
X58000Y8000D02*
X61000D01*
X50000Y7000D02*
X54000D01*
X246000Y95000D02*
X258000D01*
X260032Y97031D01*
X242000Y95000D02*
X246000D01*
X221000Y116000D02*
X242000Y95000D01*
X196000Y94000D02*
X199000Y97000D01*
X114000Y241000D02*
X117000D01*
X103000Y252000D02*
X114000Y241000D01*
X24000Y252000D02*
X103000D01*
X16000Y244000D02*
X24000Y252000D01*
X16000Y188000D02*
Y244000D01*
Y188000D02*
X67000Y137000D01*
Y123000D02*
Y137000D01*
X60000Y116000D02*
X67000Y123000D01*
X54000Y116000D02*
X60000D01*
X47000Y123000D02*
X54000Y116000D01*
X37000Y123000D02*
X47000D01*
X31000Y117000D02*
X37000Y123000D01*
X57000Y26000D02*
X76000D01*
X52000Y13000D02*
X56000D01*
X54000Y23000D02*
X57000Y26000D01*
X54000Y19000D02*
Y23000D01*
X27000Y139000D02*
X49000D01*
X56000Y132000D01*
Y128000D02*
Y132000D01*
X23000Y135000D02*
X27000Y139000D01*
X23000Y104000D02*
Y135000D01*
Y104000D02*
X32000Y95000D01*
X26000Y104000D02*
X34000Y96000D01*
X26000Y104000D02*
Y130000D01*
X30000Y134000D01*
X32000Y82000D02*
Y95000D01*
X27000Y77000D02*
X32000Y82000D01*
X27000Y64000D02*
Y77000D01*
Y64000D02*
X33000Y58000D01*
X47000D01*
X51000Y62000D01*
X34000Y61000D02*
X47000D01*
X53250Y67250D01*
X32000Y63000D02*
X34000Y61000D01*
X62000Y124000D02*
Y128000D01*
X58000Y120000D02*
X62000Y124000D01*
X55000Y120000D02*
X58000D01*
X41000Y134000D02*
X55000Y120000D01*
X30000Y134000D02*
X41000D01*
X34000Y81000D02*
Y96000D01*
X32000Y79000D02*
X34000Y81000D01*
X32000Y63000D02*
Y79000D01*
X45000Y76000D02*
Y90000D01*
X31000Y104000D02*
Y117000D01*
Y104000D02*
X45000Y90000D01*
X42000Y71000D02*
X49000D01*
X28000Y85000D02*
Y88000D01*
X26000Y83000D02*
X28000Y85000D01*
X11000Y83000D02*
X26000D01*
X11000Y89000D02*
X21000D01*
D110*
X36441Y262445D02*
D03*
Y240791D02*
D03*
D111*
X310000Y261252D02*
D03*
Y277000D02*
D03*
D112*
X75000Y285000D02*
D03*
X378000Y13000D02*
D03*
X114000Y139000D02*
D03*
X230000Y58000D02*
D03*
D113*
X258000Y216000D02*
D03*
X268000D02*
D03*
X253000Y159000D02*
D03*
X263000D02*
D03*
X96000Y216000D02*
D03*
Y226000D02*
D03*
X313000Y179000D02*
D03*
Y189000D02*
D03*
X241000Y190000D02*
D03*
X231000D02*
D03*
X181000Y228000D02*
D03*
X171000D02*
D03*
D114*
X362000Y155000D02*
D03*
X311000Y24000D02*
D03*
D115*
X117000Y241000D02*
D03*
X270000Y21000D02*
D03*
X245889Y253504D02*
D03*
Y249504D02*
D03*
X250909Y251504D02*
D03*
X240869D02*
D03*
X164000Y18000D02*
D03*
X69614Y39512D02*
D03*
X74614D02*
D03*
Y33512D02*
D03*
X69614D02*
D03*
X64614D02*
D03*
Y39512D02*
D03*
X69614Y45512D02*
D03*
X74614D02*
D03*
X64614D02*
D03*
X121028Y256720D02*
D03*
X82449Y62000D02*
D03*
X79449Y67250D02*
D03*
X91000Y23000D02*
D03*
X68827Y18850D02*
D03*
X58000Y8000D02*
D03*
X42000Y71000D02*
D03*
X50000Y7000D02*
D03*
X54000Y19000D02*
D03*
X45000Y76000D02*
D03*
X52000Y13000D02*
D03*
X64000Y12250D02*
D03*
X39000Y66000D02*
D03*
X259000Y251000D02*
D03*
X45000Y45000D02*
D03*
X40000D02*
D03*
X35000D02*
D03*
X29000D02*
D03*
X23000D02*
D03*
X18000D02*
D03*
X8000D02*
D03*
X3000Y36000D02*
D03*
X19195Y5500D02*
D03*
Y12500D02*
D03*
Y16500D02*
D03*
Y21500D02*
D03*
Y25500D02*
D03*
X28000Y25000D02*
D03*
X199000Y116000D02*
D03*
X181000Y94000D02*
D03*
X266000Y277000D02*
D03*
X294000Y240000D02*
D03*
X285000Y249000D02*
D03*
X222000Y257000D02*
D03*
X214000Y261000D02*
D03*
X226000Y260000D02*
D03*
X261000Y235000D02*
D03*
X191000Y245850D02*
D03*
X258000Y266000D02*
D03*
X254000D02*
D03*
X250000D02*
D03*
X255000Y233000D02*
D03*
X261000Y240000D02*
D03*
X229000Y228000D02*
D03*
X242937Y236000D02*
D03*
X236000Y228000D02*
D03*
X238000Y264000D02*
D03*
X175000Y91000D02*
D03*
X186000Y34000D02*
D03*
X116000Y43000D02*
D03*
X290814Y285924D02*
D03*
X355026Y128148D02*
D03*
X369000Y119000D02*
D03*
X372000Y97000D02*
D03*
X375000Y73000D02*
D03*
X348550Y16213D02*
D03*
X362000Y31000D02*
D03*
X372603Y54141D02*
D03*
X343000Y49000D02*
D03*
X329000Y50000D02*
D03*
Y158000D02*
D03*
X340841Y125989D02*
D03*
X344233Y107488D02*
D03*
X327000Y93000D02*
D03*
X376611Y204622D02*
D03*
X360000Y199000D02*
D03*
X333000Y192000D02*
D03*
X316481Y210481D02*
D03*
X286878Y202155D02*
D03*
X293354Y178411D02*
D03*
X214000Y246000D02*
D03*
X216880Y226516D02*
D03*
X208000Y230000D02*
D03*
X166000Y264000D02*
D03*
X162000Y273000D02*
D03*
X139601Y250149D02*
D03*
X115672Y280104D02*
D03*
X100695Y271324D02*
D03*
X95000Y265000D02*
D03*
X78000D02*
D03*
X81413Y234483D02*
D03*
X76000Y221000D02*
D03*
X39000Y206000D02*
D03*
X95000Y141000D02*
D03*
X71428Y174746D02*
D03*
X72000Y191000D02*
D03*
X50000Y187000D02*
D03*
X69018Y151161D02*
D03*
X53524Y161490D02*
D03*
X44572Y153743D02*
D03*
X47155Y145135D02*
D03*
X39000Y128000D02*
D03*
X45000Y114000D02*
D03*
X59722Y93145D02*
D03*
X61000Y109000D02*
D03*
X78000Y127000D02*
D03*
X108000Y128000D02*
D03*
X94000D02*
D03*
X120000D02*
D03*
X124000Y136000D02*
D03*
X125000Y146000D02*
D03*
X113000Y184000D02*
D03*
X110000Y195000D02*
D03*
X121000Y193000D02*
D03*
X113434Y208144D02*
D03*
X128239Y207455D02*
D03*
X144000Y206000D02*
D03*
X141000Y196000D02*
D03*
X145000Y184000D02*
D03*
X127000Y181000D02*
D03*
X143044Y161490D02*
D03*
X143389Y141520D02*
D03*
X137536Y130158D02*
D03*
X150000Y131000D02*
D03*
X158883Y168548D02*
D03*
X161809Y151333D02*
D03*
X175582Y134462D02*
D03*
X182296Y147890D02*
D03*
X175237Y169925D02*
D03*
X200716Y170270D02*
D03*
X209324Y162695D02*
D03*
X208807Y154087D02*
D03*
X223268Y147546D02*
D03*
X235000Y136000D02*
D03*
X210529Y124993D02*
D03*
X226195Y119829D02*
D03*
X247886Y136011D02*
D03*
Y147890D02*
D03*
X268000Y124000D02*
D03*
X269000Y150000D02*
D03*
X281000Y129000D02*
D03*
X282000Y155000D02*
D03*
X294000Y158000D02*
D03*
X297000Y146000D02*
D03*
X302000Y139000D02*
D03*
X305041Y131535D02*
D03*
X312000Y116000D02*
D03*
X313000Y101000D02*
D03*
X312000Y90000D02*
D03*
X308000Y83000D02*
D03*
X310378Y70420D02*
D03*
X301942Y64223D02*
D03*
X288859Y63706D02*
D03*
X262000Y79000D02*
D03*
X267000Y51000D02*
D03*
X276464Y30481D02*
D03*
X260798Y17569D02*
D03*
X252000Y13000D02*
D03*
X228000Y9000D02*
D03*
X221000Y19000D02*
D03*
X217000Y29000D02*
D03*
X219000Y38000D02*
D03*
X237000Y45000D02*
D03*
X243994Y78497D02*
D03*
X239000Y91000D02*
D03*
X224000Y98000D02*
D03*
X219000Y72000D02*
D03*
X175000Y99000D02*
D03*
X164000Y121000D02*
D03*
X28000Y5000D02*
D03*
Y12000D02*
D03*
Y19000D02*
D03*
X23000Y35000D02*
D03*
X33000D02*
D03*
X18000Y31000D02*
D03*
X28000Y35000D02*
D03*
X13000Y49000D02*
D03*
X14129Y76012D02*
D03*
X22000Y75000D02*
D03*
X36000Y74000D02*
D03*
X56000Y86000D02*
D03*
X99000Y97000D02*
D03*
X87655Y26449D02*
D03*
X88744Y37887D02*
D03*
X99000Y39000D02*
D03*
X100000Y49000D02*
D03*
X92000Y55000D02*
D03*
X112000Y91000D02*
D03*
X122000Y85000D02*
D03*
X132860Y71473D02*
D03*
X174252Y68568D02*
D03*
X156279Y68024D02*
D03*
X145000Y68000D02*
D03*
X157006Y50958D02*
D03*
X146476Y23908D02*
D03*
X143208Y5390D02*
D03*
X120696Y8839D02*
D03*
X94000Y7000D02*
D03*
X171000Y197000D02*
D03*
X217000Y165000D02*
D03*
X194000Y233000D02*
D03*
X204000Y63000D02*
D03*
X144000Y290000D02*
D03*
X291000Y124000D02*
D03*
X93000Y84000D02*
D03*
X142000Y80000D02*
D03*
X133000Y94000D02*
D03*
X121000Y97000D02*
D03*
X100000Y118000D02*
D03*
X114000Y61000D02*
D03*
X117000Y76000D02*
D03*
X194000Y204000D02*
D03*
X200000Y208000D02*
D03*
X194000Y215000D02*
D03*
X200000Y220000D02*
D03*
X161000D02*
D03*
X154000D02*
D03*
X150000Y234000D02*
D03*
X172000Y10000D02*
D03*
X150000Y249000D02*
D03*
X154000Y260000D02*
D03*
X186000Y255000D02*
D03*
X155000Y61000D02*
D03*
X164000Y58040D02*
D03*
X213000Y33000D02*
D03*
Y26000D02*
D03*
X249000Y41000D02*
D03*
X105000Y93000D02*
D03*
X100000Y89000D02*
D03*
X265032Y97031D02*
D03*
X134000Y43000D02*
D03*
X113000Y49000D02*
D03*
X173000Y28000D02*
D03*
X170000Y43000D02*
D03*
X174000Y46000D02*
D03*
X199608Y58392D02*
D03*
X192000Y44000D02*
D03*
X183000Y80000D02*
D03*
X233000Y88000D02*
D03*
X216000Y84000D02*
D03*
X80000Y81000D02*
D03*
X83000Y75000D02*
D03*
X76000Y87000D02*
D03*
X255000Y175000D02*
D03*
X130000Y218000D02*
D03*
X110000Y216000D02*
D03*
X119000Y224000D02*
D03*
X161000Y208000D02*
D03*
X131000Y113000D02*
D03*
X93000D02*
D03*
X177000Y159000D02*
D03*
X102000Y22000D02*
D03*
X65000Y8000D02*
D03*
X246000Y95000D02*
D03*
X77000Y105000D02*
D03*
X192000Y94000D02*
D03*
X210000Y116000D02*
D03*
X277000Y89000D02*
D03*
X295000Y102000D02*
D03*
X88000Y60000D02*
D03*
X62000Y128000D02*
D03*
X56000D02*
D03*
X47150Y97000D02*
D03*
X46000Y107000D02*
D03*
X11000Y83000D02*
D03*
X28000Y88000D02*
D03*
X11000Y89000D02*
D03*
X21000D02*
D03*
X50000Y27000D02*
D03*
M02*
