M48
;Layer_Color=9474304
;FILE_FORMAT=2:5
INCH,LZ
;TYPE=PLATED
T1F00S00C0.01200
T2F00S00C0.02000
%
T01
X0026Y0005
Y0009
Y0014
Y0019
Y0024
X002Y0029
X0016
X0012
X001Y0043
X0006
X0016Y0042
X0019Y0039
X0023Y0041
X0031Y0046
X0042614Y0039213
X0047614
X0052614
Y0033213
X0047614
X0042614
Y0027213
X0047614
X0052614
X0053Y0016
X0056Y0014
X005548Y000552
X0067Y0005
X0074Y0004
X0081Y0009
X0084Y0012
X0082Y0017
X0095
X0093Y0004
X0103Y0005
X0071839Y0014
X0074Y0023
X0077Y0026
X0079Y0033
X0077Y0063
Y007
X0078Y0075
X0083Y0078
X0091Y0083
X0095Y008
X0106Y0083
X0107886Y0074
X0105Y0072
X0113Y0074
X0115Y0087
X0113Y0053
Y0047
Y0042
X0104Y0062
X0068Y0063
Y0059
X0064Y005613
Y0062
X0056Y0052
X0048Y005
X0047Y0017
X0038Y0016
X0036Y0019
X0015Y0052
X0018Y0067
Y0078
X0019Y0082
X0029Y0086
X0041Y0082
X0009Y0086
X0004
Y0079
T02
X0009Y0091
Y0096
X0029Y0095
X0034
X0039
X0048
X0053
X00605
X00655
X0073
X0078
X0086
X0091
X0098
X0103
X011
X0115
X0112Y00345
Y00295
Y00225
Y00175
Y00105
Y00055
M30
