G04*
G04 #@! TF.GenerationSoftware,Altium Limited,Altium Designer,21.3.2 (30)*
G04*
G04 Layer_Color=128*
%FSLAX25Y25*%
%MOIN*%
G70*
G04*
G04 #@! TF.SameCoordinates,A236C9B4-8AE0-4B67-9D85-2998E959901C*
G04*
G04*
G04 #@! TF.FilePolarity,Positive*
G04*
G01*
G75*
%ADD10C,0.01000*%
%ADD20R,0.01968X0.02362*%
%ADD21R,0.02362X0.01968*%
%ADD26R,0.02362X0.02362*%
%ADD28R,0.02362X0.02362*%
%ADD34R,0.02362X0.04331*%
G04:AMPARAMS|DCode=68|XSize=23.62mil|YSize=39.37mil|CornerRadius=2.01mil|HoleSize=0mil|Usage=FLASHONLY|Rotation=270.000|XOffset=0mil|YOffset=0mil|HoleType=Round|Shape=RoundedRectangle|*
%AMROUNDEDRECTD68*
21,1,0.02362,0.03535,0,0,270.0*
21,1,0.01961,0.03937,0,0,270.0*
1,1,0.00402,-0.01768,-0.00980*
1,1,0.00402,-0.01768,0.00980*
1,1,0.00402,0.01768,0.00980*
1,1,0.00402,0.01768,-0.00980*
%
%ADD68ROUNDEDRECTD68*%
G04:AMPARAMS|DCode=69|XSize=25.59mil|YSize=47.24mil|CornerRadius=1.92mil|HoleSize=0mil|Usage=FLASHONLY|Rotation=90.000|XOffset=0mil|YOffset=0mil|HoleType=Round|Shape=RoundedRectangle|*
%AMROUNDEDRECTD69*
21,1,0.02559,0.04341,0,0,90.0*
21,1,0.02175,0.04724,0,0,90.0*
1,1,0.00384,0.02170,0.01088*
1,1,0.00384,0.02170,-0.01088*
1,1,0.00384,-0.02170,-0.01088*
1,1,0.00384,-0.02170,0.01088*
%
%ADD69ROUNDEDRECTD69*%
%ADD70R,0.02756X0.05118*%
G04:AMPARAMS|DCode=71|XSize=17.72mil|YSize=61.02mil|CornerRadius=1.95mil|HoleSize=0mil|Usage=FLASHONLY|Rotation=0.000|XOffset=0mil|YOffset=0mil|HoleType=Round|Shape=RoundedRectangle|*
%AMROUNDEDRECTD71*
21,1,0.01772,0.05713,0,0,0.0*
21,1,0.01382,0.06102,0,0,0.0*
1,1,0.00390,0.00691,-0.02856*
1,1,0.00390,-0.00691,-0.02856*
1,1,0.00390,-0.00691,0.02856*
1,1,0.00390,0.00691,0.02856*
%
%ADD71ROUNDEDRECTD71*%
G04:AMPARAMS|DCode=73|XSize=17.72mil|YSize=11.81mil|CornerRadius=1.95mil|HoleSize=0mil|Usage=FLASHONLY|Rotation=180.000|XOffset=0mil|YOffset=0mil|HoleType=Round|Shape=RoundedRectangle|*
%AMROUNDEDRECTD73*
21,1,0.01772,0.00791,0,0,180.0*
21,1,0.01382,0.01181,0,0,180.0*
1,1,0.00390,-0.00691,0.00396*
1,1,0.00390,0.00691,0.00396*
1,1,0.00390,0.00691,-0.00396*
1,1,0.00390,-0.00691,-0.00396*
%
%ADD73ROUNDEDRECTD73*%
%ADD74R,0.04000X0.02500*%
G36*
X73807Y13409D02*
Y13449D01*
X73777Y13521D01*
X73722Y13576D01*
X73649Y13606D01*
X73610D01*
D01*
X70067D01*
X70028D01*
X69955Y13576D01*
X69900Y13521D01*
X69870Y13449D01*
Y13409D01*
D01*
Y11047D01*
Y11008D01*
X69900Y10936D01*
X69955Y10880D01*
X70028Y10850D01*
X70067D01*
D01*
X73610D01*
X73649D01*
X73722Y10880D01*
X73777Y10936D01*
X73807Y11008D01*
Y11047D01*
D01*
Y13409D01*
D02*
G37*
G36*
X70067Y17150D02*
X70028D01*
X69955Y17120D01*
X69900Y17064D01*
X69870Y16992D01*
Y16953D01*
Y16953D01*
Y14591D01*
Y14551D01*
X69900Y14479D01*
X69955Y14424D01*
X70028Y14394D01*
X70067D01*
D01*
X73610D01*
X73649D01*
X73722Y14424D01*
X73777Y14479D01*
X73807Y14551D01*
Y14591D01*
D01*
Y16953D01*
Y16992D01*
X73777Y17064D01*
X73722Y17120D01*
X73649Y17150D01*
X73610D01*
D01*
X70067D01*
D02*
G37*
D10*
X6449Y102000D02*
G03*
X0Y95551I0J-6449D01*
G01*
X119000D02*
G03*
X112550Y102000I-6449J0D01*
G01*
Y0D02*
G03*
X119000Y6449I0J6449D01*
G01*
X0D02*
G03*
X6449Y0I6449J0D01*
G01*
X112550D01*
X119000Y6449D02*
Y95551D01*
X6449Y102000D02*
X112550D01*
X0Y6449D02*
Y95551D01*
D20*
X14000Y59000D02*
D03*
X10063D02*
D03*
X93000Y25000D02*
D03*
X96937D02*
D03*
Y29000D02*
D03*
X93000D02*
D03*
X67543Y81000D02*
D03*
X71480D02*
D03*
X71000Y85000D02*
D03*
X67063D02*
D03*
D21*
X96000Y61937D02*
D03*
Y58000D02*
D03*
X77000Y41000D02*
D03*
Y44937D02*
D03*
X96000Y54937D02*
D03*
Y51000D02*
D03*
X77000Y48000D02*
D03*
Y51937D02*
D03*
X85000Y26000D02*
D03*
Y22063D02*
D03*
X89000Y29000D02*
D03*
Y25063D02*
D03*
D26*
X10000Y63000D02*
D03*
Y66937D02*
D03*
X96000Y65000D02*
D03*
Y68937D02*
D03*
X72000Y34000D02*
D03*
Y30063D02*
D03*
X44000Y77937D02*
D03*
Y74000D02*
D03*
X40000D02*
D03*
Y77937D02*
D03*
X14000Y66937D02*
D03*
Y63000D02*
D03*
X60000Y14000D02*
D03*
Y10063D02*
D03*
X64000D02*
D03*
Y14000D02*
D03*
X47000Y6063D02*
D03*
Y10000D02*
D03*
X43000D02*
D03*
Y6063D02*
D03*
D28*
X52000Y80000D02*
D03*
X55937D02*
D03*
X82000Y64000D02*
D03*
X85937D02*
D03*
X82000Y68000D02*
D03*
X85937D02*
D03*
X84937Y29000D02*
D03*
X81000D02*
D03*
X88937Y33000D02*
D03*
X85000D02*
D03*
X95937D02*
D03*
X92000D02*
D03*
X64260Y30551D02*
D03*
X68197D02*
D03*
X64260Y34551D02*
D03*
X68197D02*
D03*
X55937Y72000D02*
D03*
X52000D02*
D03*
X56000Y66000D02*
D03*
X59937D02*
D03*
X52000Y76000D02*
D03*
X55937D02*
D03*
D34*
X64000D02*
D03*
X67740D02*
D03*
X71480D02*
D03*
Y66551D02*
D03*
X64000D02*
D03*
D68*
X34827Y74000D02*
D03*
Y81480D02*
D03*
X24000D02*
D03*
Y77740D02*
D03*
Y74000D02*
D03*
D69*
X35614Y67000D02*
D03*
Y63260D02*
D03*
Y59520D02*
D03*
X24000D02*
D03*
Y63260D02*
D03*
Y67000D02*
D03*
D70*
X52000Y56551D02*
D03*
X48260D02*
D03*
X44520D02*
D03*
Y66000D02*
D03*
X52000D02*
D03*
X71740Y50000D02*
D03*
X68000D02*
D03*
X64260D02*
D03*
Y40551D02*
D03*
X68000D02*
D03*
X71740D02*
D03*
D71*
X90118Y39693D02*
D03*
X87559D02*
D03*
X85000D02*
D03*
X82441D02*
D03*
X90118Y58000D02*
D03*
X87559D02*
D03*
X85000D02*
D03*
X82441D02*
D03*
D73*
X68000Y16559D02*
D03*
Y14000D02*
D03*
Y11441D02*
D03*
X75677D02*
D03*
Y14000D02*
D03*
Y16559D02*
D03*
D74*
X38000Y12063D02*
D03*
Y6063D02*
D03*
M02*
