G04*
G04 #@! TF.GenerationSoftware,Altium Limited,Altium Designer,21.3.2 (30)*
G04*
G04 Layer_Physical_Order=2*
G04 Layer_Color=65280*
%FSLAX25Y25*%
%MOIN*%
G70*
G04*
G04 #@! TF.SameCoordinates,A236C9B4-8AE0-4B67-9D85-2998E959901C*
G04*
G04*
G04 #@! TF.FilePolarity,Positive*
G04*
G01*
G75*
%ADD10C,0.01000*%
%ADD15C,0.00600*%
%ADD20R,0.01968X0.02362*%
%ADD21R,0.02362X0.01968*%
%ADD26R,0.02362X0.02362*%
%ADD28R,0.02362X0.02362*%
%ADD34R,0.02362X0.04331*%
G04:AMPARAMS|DCode=63|XSize=39.37mil|YSize=78.74mil|CornerRadius=9.84mil|HoleSize=0mil|Usage=FLASHONLY|Rotation=270.000|XOffset=0mil|YOffset=0mil|HoleType=Round|Shape=RoundedRectangle|*
%AMROUNDEDRECTD63*
21,1,0.03937,0.05906,0,0,270.0*
21,1,0.01968,0.07874,0,0,270.0*
1,1,0.01968,-0.02953,-0.00984*
1,1,0.01968,-0.02953,0.00984*
1,1,0.01968,0.02953,0.00984*
1,1,0.01968,0.02953,-0.00984*
%
%ADD63ROUNDEDRECTD63*%
G04:AMPARAMS|DCode=64|XSize=39.37mil|YSize=78.74mil|CornerRadius=9.84mil|HoleSize=0mil|Usage=FLASHONLY|Rotation=180.000|XOffset=0mil|YOffset=0mil|HoleType=Round|Shape=RoundedRectangle|*
%AMROUNDEDRECTD64*
21,1,0.03937,0.05906,0,0,180.0*
21,1,0.01968,0.07874,0,0,180.0*
1,1,0.01968,-0.00984,0.02953*
1,1,0.01968,0.00984,0.02953*
1,1,0.01968,0.00984,-0.02953*
1,1,0.01968,-0.00984,-0.02953*
%
%ADD64ROUNDEDRECTD64*%
G04:AMPARAMS|DCode=65|XSize=39.37mil|YSize=39.37mil|CornerRadius=9.84mil|HoleSize=0mil|Usage=FLASHONLY|Rotation=90.000|XOffset=0mil|YOffset=0mil|HoleType=Round|Shape=RoundedRectangle|*
%AMROUNDEDRECTD65*
21,1,0.03937,0.01968,0,0,90.0*
21,1,0.01968,0.03937,0,0,90.0*
1,1,0.01968,0.00984,0.00984*
1,1,0.01968,0.00984,-0.00984*
1,1,0.01968,-0.00984,-0.00984*
1,1,0.01968,-0.00984,0.00984*
%
%ADD65ROUNDEDRECTD65*%
%ADD66C,0.02500*%
%ADD67C,0.00800*%
G04:AMPARAMS|DCode=68|XSize=23.62mil|YSize=39.37mil|CornerRadius=2.01mil|HoleSize=0mil|Usage=FLASHONLY|Rotation=270.000|XOffset=0mil|YOffset=0mil|HoleType=Round|Shape=RoundedRectangle|*
%AMROUNDEDRECTD68*
21,1,0.02362,0.03535,0,0,270.0*
21,1,0.01961,0.03937,0,0,270.0*
1,1,0.00402,-0.01768,-0.00980*
1,1,0.00402,-0.01768,0.00980*
1,1,0.00402,0.01768,0.00980*
1,1,0.00402,0.01768,-0.00980*
%
%ADD68ROUNDEDRECTD68*%
G04:AMPARAMS|DCode=69|XSize=25.59mil|YSize=47.24mil|CornerRadius=1.92mil|HoleSize=0mil|Usage=FLASHONLY|Rotation=90.000|XOffset=0mil|YOffset=0mil|HoleType=Round|Shape=RoundedRectangle|*
%AMROUNDEDRECTD69*
21,1,0.02559,0.04341,0,0,90.0*
21,1,0.02175,0.04724,0,0,90.0*
1,1,0.00384,0.02170,0.01088*
1,1,0.00384,0.02170,-0.01088*
1,1,0.00384,-0.02170,-0.01088*
1,1,0.00384,-0.02170,0.01088*
%
%ADD69ROUNDEDRECTD69*%
%ADD70R,0.02756X0.05118*%
G04:AMPARAMS|DCode=71|XSize=17.72mil|YSize=61.02mil|CornerRadius=1.95mil|HoleSize=0mil|Usage=FLASHONLY|Rotation=0.000|XOffset=0mil|YOffset=0mil|HoleType=Round|Shape=RoundedRectangle|*
%AMROUNDEDRECTD71*
21,1,0.01772,0.05713,0,0,0.0*
21,1,0.01382,0.06102,0,0,0.0*
1,1,0.00390,0.00691,-0.02856*
1,1,0.00390,-0.00691,-0.02856*
1,1,0.00390,-0.00691,0.02856*
1,1,0.00390,0.00691,0.02856*
%
%ADD71ROUNDEDRECTD71*%
G04:AMPARAMS|DCode=72|XSize=39.37mil|YSize=62.99mil|CornerRadius=1.97mil|HoleSize=0mil|Usage=FLASHONLY|Rotation=180.000|XOffset=0mil|YOffset=0mil|HoleType=Round|Shape=RoundedRectangle|*
%AMROUNDEDRECTD72*
21,1,0.03937,0.05906,0,0,180.0*
21,1,0.03543,0.06299,0,0,180.0*
1,1,0.00394,-0.01772,0.02953*
1,1,0.00394,0.01772,0.02953*
1,1,0.00394,0.01772,-0.02953*
1,1,0.00394,-0.01772,-0.02953*
%
%ADD72ROUNDEDRECTD72*%
G04:AMPARAMS|DCode=73|XSize=17.72mil|YSize=11.81mil|CornerRadius=1.95mil|HoleSize=0mil|Usage=FLASHONLY|Rotation=180.000|XOffset=0mil|YOffset=0mil|HoleType=Round|Shape=RoundedRectangle|*
%AMROUNDEDRECTD73*
21,1,0.01772,0.00791,0,0,180.0*
21,1,0.01382,0.01181,0,0,180.0*
1,1,0.00390,-0.00691,0.00396*
1,1,0.00390,0.00691,0.00396*
1,1,0.00390,0.00691,-0.00396*
1,1,0.00390,-0.00691,-0.00396*
%
%ADD73ROUNDEDRECTD73*%
%ADD74R,0.04000X0.02500*%
D10*
X115000Y90063D02*
Y95000D01*
X103000D02*
X105968D01*
X103000D02*
Y99937D01*
Y90063D02*
Y95000D01*
X115000Y87000D02*
X117250D01*
X115000Y84750D02*
Y87000D01*
Y89250D01*
X112750Y87000D02*
X115000D01*
X91000Y95000D02*
X93968D01*
X91000Y90063D02*
Y95000D01*
Y99937D01*
X96000Y68937D02*
X98181D01*
X96000D02*
Y71118D01*
X93819Y68937D02*
X96000D01*
X78000Y95000D02*
Y99937D01*
Y95000D02*
X80968D01*
X78000Y90063D02*
Y95000D01*
X65500D02*
Y99937D01*
Y95000D02*
X68468D01*
X65500Y90063D02*
Y95000D01*
X65559Y81000D02*
X67543D01*
X85937Y68000D02*
X88118D01*
X85937D02*
Y70181D01*
Y64000D02*
X88118D01*
X67740Y72835D02*
Y76000D01*
X113000Y53000D02*
X115250D01*
X113000Y47000D02*
X115250D01*
X110750D02*
X113000D01*
Y42000D02*
X115250D01*
X110750D02*
X113000D01*
Y53000D02*
Y55250D01*
Y50750D02*
Y53000D01*
X110750D02*
X113000D01*
Y47000D02*
Y49250D01*
Y39750D02*
Y42000D01*
X90118Y39693D02*
X92004D01*
X90118D02*
Y43744D01*
Y35642D02*
Y39693D01*
X95937Y33000D02*
Y35181D01*
Y33000D02*
X98118D01*
X112000Y29500D02*
X116937D01*
X112000Y17500D02*
X116937D01*
X112000Y26531D02*
Y29500D01*
X107063D02*
X112000D01*
Y14532D02*
Y17500D01*
X107063D02*
X112000D01*
Y5500D02*
X116937D01*
X112000Y2531D02*
Y5500D01*
X107063D02*
X112000D01*
X103000Y5000D02*
Y7250D01*
Y5000D02*
X105250D01*
X103000Y2750D02*
Y5000D01*
X100750D02*
X103000D01*
X93000Y4000D02*
Y6250D01*
Y4000D02*
X95250D01*
X93000Y1750D02*
Y4000D01*
X90750D02*
X93000D01*
X82441Y39693D02*
Y43744D01*
X80555Y39693D02*
X82441D01*
Y35642D02*
Y39693D01*
X79000Y33000D02*
X81250D01*
X81000Y26819D02*
Y29000D01*
X78819D02*
X81000D01*
X79000Y33000D02*
Y35250D01*
Y30750D02*
Y33000D01*
X76750D02*
X79000D01*
X71740Y50000D02*
Y53559D01*
Y50000D02*
X74118D01*
X71740Y46441D02*
Y50000D01*
X72000Y30063D02*
X74181D01*
X68000Y40551D02*
Y44110D01*
X72000Y27882D02*
Y30063D01*
X68197Y28370D02*
Y30551D01*
X71839Y14000D02*
Y18150D01*
X75677Y14000D02*
X77563D01*
X71839Y9850D02*
Y14000D01*
X74000Y4000D02*
X76250D01*
X74000D02*
Y6250D01*
X71750Y4000D02*
X74000D01*
Y1750D02*
Y4000D01*
X68000Y9850D02*
Y11441D01*
X67000Y5000D02*
X69250D01*
X64000Y7882D02*
Y10063D01*
X67000Y2750D02*
Y5000D01*
Y7250D01*
X64750Y5000D02*
X67000D01*
X53000Y95000D02*
Y99937D01*
Y95000D02*
X55968D01*
X53000Y90063D02*
Y95000D01*
X55937Y80000D02*
Y82181D01*
Y80000D02*
X58118D01*
X38750Y82000D02*
X41000D01*
Y84250D01*
Y82000D02*
X43250D01*
X44000Y77937D02*
Y80118D01*
X55937Y76000D02*
X58118D01*
X55937Y72000D02*
X58118D01*
X55937Y69819D02*
Y72000D01*
X44000Y77937D02*
X46181D01*
X37819D02*
X40000D01*
X35614Y63260D02*
X38976D01*
X35614Y59520D02*
X38976D01*
X34000Y90063D02*
Y95000D01*
Y99937D01*
X24000Y81480D02*
X26969D01*
X24000D02*
Y83661D01*
X19000Y82000D02*
Y84250D01*
X16750Y82000D02*
X19000D01*
X6032Y96000D02*
X9000D01*
X11969D01*
X9000D02*
Y98968D01*
X4000Y86000D02*
X6250D01*
X4000Y83750D02*
Y86000D01*
Y88250D01*
X1750Y86000D02*
X4000D01*
Y79000D02*
Y81250D01*
X32252Y63260D02*
X35614D01*
X32252Y59520D02*
X35614D01*
X4000Y79000D02*
X6250D01*
X1750D02*
X4000D01*
Y76750D02*
Y79000D01*
X10000Y66937D02*
Y69118D01*
X14000Y66937D02*
Y69118D01*
X7819Y66937D02*
X10000D01*
X52614Y39213D02*
X54864D01*
X52614Y33213D02*
Y35463D01*
Y33213D02*
X54864D01*
X52614Y30963D02*
Y33213D01*
Y36963D02*
Y39213D01*
Y41463D01*
X48260Y52992D02*
Y56551D01*
X48000Y50000D02*
Y52250D01*
Y47750D02*
Y50000D01*
X50250D01*
X45750D02*
X48000D01*
X47614Y39213D02*
Y41463D01*
Y36963D02*
Y39213D01*
Y30963D02*
Y33213D01*
Y35463D01*
X42614Y36963D02*
Y39213D01*
Y41463D01*
X40364Y39213D02*
X42614D01*
Y30963D02*
Y33213D01*
Y35463D01*
X40364Y33213D02*
X42614D01*
X52614Y27213D02*
X54864D01*
X52614D02*
Y29463D01*
Y24963D02*
Y27213D01*
X57819Y10063D02*
X60000D01*
Y7882D02*
Y10063D01*
X55480Y5520D02*
X57730D01*
X55480D02*
Y7770D01*
Y3270D02*
Y5520D01*
X53230D02*
X55480D01*
X47614Y24963D02*
Y27213D01*
Y29463D01*
X42614Y24963D02*
Y27213D01*
Y29463D01*
X40364Y27213D02*
X42614D01*
X47000Y6063D02*
X49181D01*
X47000Y3882D02*
Y6063D01*
X31000Y46000D02*
Y48250D01*
Y46000D02*
X33250D01*
X28750D02*
X31000D01*
Y43750D02*
Y46000D01*
X23000Y41000D02*
Y43250D01*
Y41000D02*
X25250D01*
X23000Y38750D02*
Y41000D01*
X20750D02*
X23000D01*
X8079Y59000D02*
X10063D01*
Y56819D02*
Y59000D01*
X16000Y39750D02*
Y42000D01*
X18250D01*
X16000D02*
Y44250D01*
X13750Y42000D02*
X16000D01*
X19000Y39000D02*
Y41250D01*
X6000Y43000D02*
Y45250D01*
X10000Y43000D02*
Y45250D01*
X6000Y40750D02*
Y43000D01*
X3750D02*
X6000D01*
X10000D02*
X12250D01*
X10000Y40750D02*
Y43000D01*
X38000Y16000D02*
X40250D01*
X35750D02*
X38000D01*
X26000Y24000D02*
X28250D01*
X26000Y9000D02*
X28250D01*
X26000Y5000D02*
X28250D01*
X26000Y2750D02*
Y5000D01*
X19000Y39000D02*
X21250D01*
X19000Y36750D02*
Y39000D01*
X20000Y29000D02*
Y31250D01*
X16750Y39000D02*
X19000D01*
X20000Y29000D02*
X22250D01*
X20000Y26750D02*
Y29000D01*
X16000D02*
Y31250D01*
X12000Y29000D02*
Y31250D01*
X16000Y26750D02*
Y29000D01*
X12000Y26750D02*
Y29000D01*
X9750D02*
X12000D01*
X26000Y24000D02*
Y26250D01*
X23750Y24000D02*
X26000D01*
X23750Y19000D02*
X26000D01*
X28250D01*
X26000Y14000D02*
X28250D01*
X23750Y9000D02*
X26000D01*
X23750Y5000D02*
X26000D01*
X23750Y14000D02*
X26000D01*
X6449Y102000D02*
G03*
X0Y95551I0J-6449D01*
G01*
X119000D02*
G03*
X112550Y102000I-6449J0D01*
G01*
Y0D02*
G03*
X119000Y6449I0J6449D01*
G01*
X0D02*
G03*
X6449Y0I6449J0D01*
G01*
X112550D01*
X119000Y6449D02*
Y95551D01*
X6449Y102000D02*
X112550D01*
X0Y6449D02*
Y95551D01*
D15*
X104000Y49743D02*
Y62000D01*
X78364Y70363D02*
X80000Y72000D01*
X77000Y70000D02*
X77364Y70363D01*
X80000Y72000D02*
X90000D01*
X77364Y70363D02*
X78364D01*
X90000Y72000D02*
X92000Y70000D01*
Y66000D02*
Y70000D01*
Y66000D02*
X93000Y65000D01*
X96000D01*
X19000Y82000D02*
X23480D01*
X24000Y81480D01*
X79000Y33000D02*
X81000Y31000D01*
Y29000D02*
Y31000D01*
X95937Y31063D02*
Y33000D01*
Y31063D02*
X96253Y30747D01*
Y29684D02*
X96937Y29000D01*
X96253Y29684D02*
Y30747D01*
X47000Y10000D02*
Y17000D01*
X42000Y14000D02*
Y17000D01*
X40549Y12549D02*
X42000Y14000D01*
Y17000D02*
X45800Y20800D01*
X38000Y12063D02*
X38486Y12549D01*
X40549D01*
X45800Y20800D02*
X51200D01*
X42000Y22000D02*
X52000D01*
X39000Y19000D02*
X42000Y22000D01*
X36000Y19000D02*
X39000D01*
X51200Y20800D02*
X53000Y19000D01*
X52000Y22000D02*
X56352Y17649D01*
X53000Y16000D02*
Y19000D01*
X36000Y44000D02*
X53000D01*
X56000Y47000D01*
X36000Y19000D02*
Y44000D01*
Y46000D01*
X56000Y47000D02*
Y52000D01*
X30000D02*
X36000Y46000D01*
X15000Y52000D02*
X30000D01*
X101000Y80000D02*
X105000Y76000D01*
Y72000D02*
Y76000D01*
X107850Y74036D02*
Y76150D01*
Y74036D02*
X107886Y74000D01*
X98000Y86000D02*
X107850Y76150D01*
X103000Y48743D02*
X104000Y49743D01*
X103000Y37000D02*
Y48743D01*
X77000Y83000D02*
X83000D01*
X72000Y88000D02*
X77000Y83000D01*
X62000Y88000D02*
X72000D01*
X83000Y78000D02*
Y83000D01*
X91000D01*
X95000Y80000D02*
Y87000D01*
X94000Y88000D02*
X95000Y87000D01*
Y80000D02*
X101000D01*
X98000Y86000D02*
Y95000D01*
X75000Y88000D02*
X94000D01*
X73000Y90000D02*
Y95000D01*
Y90000D02*
X75000Y88000D01*
X60500Y89500D02*
X62000Y88000D01*
X60500Y89500D02*
Y95000D01*
X106000Y83000D02*
X112000D01*
X113000Y82000D01*
Y74000D02*
Y82000D01*
X78000Y75000D02*
X96000D01*
X100000Y71000D01*
X64260Y14000D02*
Y30551D01*
X100000Y15000D02*
X104500Y10500D01*
X100000Y15000D02*
Y71000D01*
X103000Y37000D02*
X105500Y34500D01*
X104500Y10500D02*
X112000D01*
X105500Y34500D02*
X112000D01*
X85000Y22063D02*
X86937D01*
X91850Y17150D02*
X94850D01*
X86937Y22063D02*
X91850Y17150D01*
X88000Y14000D02*
X96000D01*
X98000Y16000D02*
Y21000D01*
X96000Y14000D02*
X98000Y16000D01*
X94850Y17150D02*
X95000Y17000D01*
X96937Y22063D02*
X98000Y21000D01*
X96937Y22063D02*
Y25000D01*
X86150Y12150D02*
X88000Y14000D01*
X84000Y12000D02*
X84150Y12150D01*
X86150D01*
X80000Y21000D02*
Y26041D01*
X77890Y28150D02*
X80000Y26041D01*
Y21000D02*
X81000Y20000D01*
X83000D01*
X85000Y18000D01*
Y16000D02*
Y18000D01*
X84000Y15000D02*
X85000Y16000D01*
X83000Y15000D02*
X84000D01*
X81000Y13000D02*
X83000Y15000D01*
X81000Y9000D02*
Y13000D01*
X76109Y28150D02*
X77890D01*
X74980Y26980D02*
Y27020D01*
X74000Y26000D02*
X74980Y26980D01*
Y27020D02*
X76109Y28150D01*
X74000Y23000D02*
Y26000D01*
X79000Y17000D02*
X82000D01*
X78559Y16559D02*
X79000Y17000D01*
X75677Y16559D02*
X78559D01*
X96000Y61937D02*
Y65000D01*
Y54937D02*
Y58000D01*
X90118D02*
X96000D01*
X87559Y48000D02*
X95000D01*
X77000D02*
X87559D01*
X96000Y49000D02*
Y51000D01*
X95000Y48000D02*
X96000Y49000D01*
X87559Y35929D02*
X88759Y34730D01*
Y33178D02*
X88937Y33000D01*
X87559Y35929D02*
Y39693D01*
X88759Y33178D02*
Y34730D01*
X92937Y25063D02*
X93000Y25000D01*
X89000Y25063D02*
X92937D01*
X93000Y25000D02*
Y29000D01*
X88937Y33000D02*
X89000Y32937D01*
Y29000D02*
Y32937D01*
X88937Y33000D02*
X92000D01*
X84937Y26000D02*
Y29000D01*
X85000Y33000D02*
Y39693D01*
Y29063D02*
Y33000D01*
X84937Y29000D02*
X85000Y29063D01*
X80000Y64000D02*
X82000D01*
X79150Y63150D02*
X80000Y64000D01*
X77000Y63000D02*
X77150Y63150D01*
X79150D01*
X60488Y66551D02*
X64000D01*
X66449D01*
X68000Y65000D01*
Y63000D02*
Y65000D01*
X59937Y66000D02*
X60488Y66551D01*
X82000Y64000D02*
X82441Y63559D01*
X81882Y64118D02*
X82000Y64000D01*
X82441Y58000D02*
Y63559D01*
X81882Y64118D02*
Y67882D01*
X82000Y68000D01*
X87559Y48000D02*
Y58000D01*
X85000Y53000D02*
Y58000D01*
X83937Y51937D02*
X85000Y53000D01*
X77000Y51937D02*
X83937D01*
X73000Y55000D02*
X76000D01*
X71480Y56520D02*
Y66551D01*
Y56520D02*
X73000Y55000D01*
X76000D02*
X77000Y54000D01*
Y51937D02*
Y54000D01*
Y44937D02*
Y48000D01*
X71740Y40551D02*
X76551D01*
X77000Y41000D01*
X71740Y40551D02*
X72000Y40291D01*
Y34000D02*
Y40291D01*
Y67071D02*
Y70000D01*
X71480Y66551D02*
X72000Y67071D01*
X71000Y71000D02*
X72000Y70000D01*
X65000Y71000D02*
X71000D01*
X64000Y72000D02*
X65000Y71000D01*
X64000Y72000D02*
Y76000D01*
X63000Y85000D02*
X67063D01*
X59937Y81937D02*
X63000Y85000D01*
X59937Y66000D02*
Y81937D01*
X71000Y85000D02*
X71480Y84520D01*
Y81000D02*
Y84520D01*
X67740Y76000D02*
Y80803D01*
X67543Y81000D02*
X67740Y80803D01*
X71480Y76000D02*
Y81000D01*
X64000Y56130D02*
Y62000D01*
Y50260D02*
Y56130D01*
X68000Y50000D02*
Y59000D01*
X56000Y52000D02*
Y59000D01*
X59937Y62937D02*
Y66000D01*
X56000Y59000D02*
X59937Y62937D01*
X64000Y50260D02*
X64260Y50000D01*
Y14000D02*
X68000D01*
X64000D02*
X64260D01*
X68197Y34551D02*
Y40354D01*
X64260Y30551D02*
Y34551D01*
Y40551D01*
X68197Y30551D02*
Y34551D01*
X68000Y40551D02*
X68197Y40354D01*
X77000Y21000D02*
Y26000D01*
X29000Y86000D02*
X46000D01*
X9000D02*
X29000D01*
X24000Y57351D02*
X24351Y57000D01*
X24000Y57351D02*
Y59520D01*
X44071Y57000D02*
X44520Y56551D01*
X24351Y57000D02*
X44071D01*
X46000Y86000D02*
X48000Y84000D01*
X9000Y72000D02*
Y86000D01*
X7740Y63260D02*
X24000D01*
X48000Y62000D02*
Y74000D01*
Y62000D02*
X49000Y61000D01*
X51000D01*
X52000Y60000D01*
Y56551D02*
Y60000D01*
Y66000D02*
X56000D01*
X52000Y76000D02*
Y80000D01*
Y72000D02*
Y76000D01*
Y66000D02*
Y72000D01*
X55937D02*
Y76000D01*
X48000Y74000D02*
Y84000D01*
X18000Y78000D02*
X23740D01*
X24000Y77740D01*
X14000Y59000D02*
X14520Y59520D01*
X24000D01*
X40000Y77937D02*
X44000D01*
X10000Y66937D02*
X14000D01*
X6000Y69000D02*
X9000Y72000D01*
X6000Y65000D02*
Y69000D01*
Y65000D02*
X7740Y63260D01*
X44000Y74000D02*
X48000D01*
X40000D02*
X44000D01*
X30000Y69000D02*
X32000Y67000D01*
X30000Y69000D02*
Y80000D01*
X31480Y81480D01*
X34827D01*
X32000Y67000D02*
X35614D01*
X34827Y74000D02*
X40000D01*
X24000Y67000D02*
Y74000D01*
X18000Y67000D02*
X24000D01*
X75677Y16559D02*
Y19677D01*
X77000Y21000D01*
X69000Y23000D02*
X74000D01*
X68000Y16559D02*
Y22000D01*
X69000Y23000D01*
X60000Y10063D02*
X66063D01*
X67150Y11150D01*
X67709D01*
X68000Y11441D01*
X70170D01*
X71839Y14000D02*
X75677D01*
X70170Y11441D02*
X71839Y13110D01*
Y14000D01*
X60000D02*
X64000D01*
X56000D02*
X60000D01*
X67839Y16721D02*
X68000Y16559D01*
X56352Y14352D02*
Y17649D01*
X56000Y14000D02*
X56352Y14352D01*
X43000Y10000D02*
X47000D01*
X38000Y6063D02*
X43000D01*
D20*
X14000Y59000D02*
D03*
X10063D02*
D03*
X93000Y25000D02*
D03*
X96937D02*
D03*
Y29000D02*
D03*
X93000D02*
D03*
X67543Y81000D02*
D03*
X71480D02*
D03*
X71000Y85000D02*
D03*
X67063D02*
D03*
D21*
X96000Y61937D02*
D03*
Y58000D02*
D03*
X77000Y41000D02*
D03*
Y44937D02*
D03*
X96000Y54937D02*
D03*
Y51000D02*
D03*
X77000Y48000D02*
D03*
Y51937D02*
D03*
X85000Y26000D02*
D03*
Y22063D02*
D03*
X89000Y29000D02*
D03*
Y25063D02*
D03*
D26*
X10000Y63000D02*
D03*
Y66937D02*
D03*
X96000Y65000D02*
D03*
Y68937D02*
D03*
X72000Y34000D02*
D03*
Y30063D02*
D03*
X44000Y77937D02*
D03*
Y74000D02*
D03*
X40000D02*
D03*
Y77937D02*
D03*
X14000Y66937D02*
D03*
Y63000D02*
D03*
X60000Y14000D02*
D03*
Y10063D02*
D03*
X64000D02*
D03*
Y14000D02*
D03*
X47000Y6063D02*
D03*
Y10000D02*
D03*
X43000D02*
D03*
Y6063D02*
D03*
D28*
X52000Y80000D02*
D03*
X55937D02*
D03*
X82000Y64000D02*
D03*
X85937D02*
D03*
X82000Y68000D02*
D03*
X85937D02*
D03*
X84937Y29000D02*
D03*
X81000D02*
D03*
X88937Y33000D02*
D03*
X85000D02*
D03*
X95937D02*
D03*
X92000D02*
D03*
X64260Y30551D02*
D03*
X68197D02*
D03*
X64260Y34551D02*
D03*
X68197D02*
D03*
X55937Y72000D02*
D03*
X52000D02*
D03*
X56000Y66000D02*
D03*
X59937D02*
D03*
X52000Y76000D02*
D03*
X55937D02*
D03*
D34*
X64000D02*
D03*
X67740D02*
D03*
X71480D02*
D03*
Y66551D02*
D03*
X64000D02*
D03*
D63*
X112000Y10500D02*
D03*
Y5500D02*
D03*
Y29500D02*
D03*
Y34500D02*
D03*
Y17500D02*
D03*
Y22500D02*
D03*
D64*
X115000Y95000D02*
D03*
X110000D02*
D03*
X103000D02*
D03*
X98000D02*
D03*
X86000D02*
D03*
X91000D02*
D03*
X78000D02*
D03*
X73000D02*
D03*
X65500D02*
D03*
X60500D02*
D03*
X39000D02*
D03*
X34000D02*
D03*
X29000D02*
D03*
X53000D02*
D03*
X48000D02*
D03*
D65*
X9000Y96000D02*
D03*
Y91000D02*
D03*
D66*
X31000Y46000D02*
D03*
X115000Y87000D02*
D03*
X113000Y53000D02*
D03*
Y47000D02*
D03*
Y42000D02*
D03*
X4000Y86000D02*
D03*
Y79000D02*
D03*
X74000Y4000D02*
D03*
X103000Y5000D02*
D03*
X93000Y4000D02*
D03*
X67000Y5000D02*
D03*
X20000Y29000D02*
D03*
X16000D02*
D03*
X12000D02*
D03*
X6000Y43000D02*
D03*
X10000D02*
D03*
X16000Y42000D02*
D03*
X19000Y39000D02*
D03*
X23000Y41000D02*
D03*
X26000Y24000D02*
D03*
Y19000D02*
D03*
Y14000D02*
D03*
Y9000D02*
D03*
Y5000D02*
D03*
X104000Y62000D02*
D03*
X77000Y70000D02*
D03*
X19000Y82000D02*
D03*
X47000Y17000D02*
D03*
X48000Y50000D02*
D03*
X105000Y72000D02*
D03*
X107886Y74000D02*
D03*
X91000Y83000D02*
D03*
X83000Y78000D02*
D03*
X95000Y80000D02*
D03*
X106000Y83000D02*
D03*
X113000Y74000D02*
D03*
X78000Y75000D02*
D03*
X95000Y17000D02*
D03*
X82000D02*
D03*
X81000Y9000D02*
D03*
X84000Y12000D02*
D03*
X77000Y63000D02*
D03*
X68000D02*
D03*
X79000Y33000D02*
D03*
X64000Y56130D02*
D03*
X68000Y59000D02*
D03*
X64000Y62000D02*
D03*
X77000Y26000D02*
D03*
X56000Y52000D02*
D03*
X29000Y86000D02*
D03*
X41000Y82000D02*
D03*
X9000Y86000D02*
D03*
X18000Y78000D02*
D03*
Y67000D02*
D03*
X15000Y52000D02*
D03*
X74000Y23000D02*
D03*
X71839Y14000D02*
D03*
X55480Y5520D02*
D03*
X36000Y19000D02*
D03*
X38000Y16000D02*
D03*
X56000Y14000D02*
D03*
X53000Y16000D02*
D03*
X42614Y39213D02*
D03*
X52614D02*
D03*
X47614D02*
D03*
X42614Y33213D02*
D03*
Y27213D02*
D03*
X47614D02*
D03*
X52614D02*
D03*
Y33213D02*
D03*
X47614D02*
D03*
D67*
X114142Y100337D02*
G03*
X112172Y100700I-1970J-5165D01*
G01*
X114016Y100337D02*
G03*
X112212Y99512I0J-2384D01*
G01*
D02*
G03*
X110984Y99937I-1228J-1559D01*
G01*
X109016D02*
G03*
X107032Y97953I0J-1984D01*
G01*
X110984Y90063D02*
G03*
X112212Y90488I0J1984D01*
G01*
D02*
G03*
X114016Y89663I1804J1559D01*
G01*
X107032Y92047D02*
G03*
X109016Y90063I1984J0D01*
G01*
X106369Y97953D02*
G03*
X103984Y100337I-2384J0D01*
G01*
X102016D02*
G03*
X100212Y99512I0J-2384D01*
G01*
X103984Y89663D02*
G03*
X106369Y92047I0J2384D01*
G01*
X100212Y90488D02*
G03*
X102016Y89663I1804J1559D01*
G01*
X115984D02*
G03*
X117700Y90392I0J2384D01*
G01*
X117650Y87000D02*
G03*
X117650Y87000I-2650J0D01*
G01*
X114100Y82000D02*
G03*
X113778Y82778I-1100J0D01*
G01*
X112778Y83778D02*
G03*
X112000Y84100I-778J-778D01*
G01*
X114100Y82000D02*
G03*
X113778Y82778I-1100J0D01*
G01*
X112778Y83778D02*
G03*
X112000Y84100I-778J-778D01*
G01*
X107963D02*
G03*
X107963Y81900I-1963J-1100D01*
G01*
X100212Y99512D02*
G03*
X98984Y99937I-1228J-1559D01*
G01*
X97016D02*
G03*
X95031Y97953I0J-1984D01*
G01*
Y92047D02*
G03*
X96900Y90066I1984J0D01*
G01*
X99100D02*
G03*
X100212Y90488I-116J1981D01*
G01*
X94368Y97953D02*
G03*
X91984Y100337I-2384J0D01*
G01*
X90016D02*
G03*
X88212Y99512I0J-2384D01*
G01*
X91984Y89663D02*
G03*
X94368Y92047I0J2384D01*
G01*
X88212Y90488D02*
G03*
X90016Y89663I1804J1559D01*
G01*
X96900Y86000D02*
G03*
X97222Y85222I1100J0D01*
G01*
X96100Y87000D02*
G03*
X95778Y87778I-1100J0D01*
G01*
X96900Y86000D02*
G03*
X97222Y85222I1100J0D01*
G01*
X96963Y81100D02*
G03*
X96100Y81963I-1963J-1100D01*
G01*
X93900D02*
G03*
X96963Y78900I1100J-1963D01*
G01*
X94778Y88778D02*
G03*
X94000Y89100I-778J-778D01*
G01*
X94778Y88778D02*
G03*
X94000Y89100I-778J-778D01*
G01*
X96100Y87000D02*
G03*
X95778Y87778I-1100J0D01*
G01*
X89037Y81900D02*
G03*
X93250Y83000I1963J1100D01*
G01*
D02*
G03*
X89037Y84100I-2250J0D01*
G01*
X108950Y76150D02*
G03*
X108628Y76928I-1100J0D01*
G01*
X115250Y74000D02*
G03*
X114100Y75963I-2250J0D01*
G01*
X111900D02*
G03*
X115250Y74000I1100J-1963D01*
G01*
X110136D02*
G03*
X108950Y75983I-2250J0D01*
G01*
Y76150D02*
G03*
X108628Y76928I-1100J0D01*
G01*
X107245Y71843D02*
G03*
X110136Y74000I642J2157D01*
G01*
X101433Y81011D02*
G03*
X101000Y81100I-433J-1011D01*
G01*
X101433Y81011D02*
G03*
X101000Y81100I-433J-1011D01*
G01*
X101100Y71000D02*
G03*
X100778Y71778I-1100J0D01*
G01*
X101100Y71000D02*
G03*
X100778Y71778I-1100J0D01*
G01*
X103900Y73963D02*
G03*
X107245Y71843I1100J-1963D01*
G01*
X105100Y60037D02*
G03*
X106250Y62000I-1100J1963D01*
G01*
D02*
G03*
X102900Y60037I-2250J0D01*
G01*
X96778Y75778D02*
G03*
X96000Y76100I-778J-778D01*
G01*
X96778Y75778D02*
G03*
X96000Y76100I-778J-778D01*
G01*
X93100Y70000D02*
G03*
X92778Y70778I-1100J0D01*
G01*
X93100Y70000D02*
G03*
X92778Y70778I-1100J0D01*
G01*
X90778Y72778D02*
G03*
X90000Y73100I-778J-778D01*
G01*
X90778Y72778D02*
G03*
X90000Y73100I-778J-778D01*
G01*
X90900Y66000D02*
G03*
X91222Y65222I1100J0D01*
G01*
X90900Y66000D02*
G03*
X91222Y65222I1100J0D01*
G01*
X92222Y64222D02*
G03*
X93000Y63900I778J778D01*
G01*
X92222Y64222D02*
G03*
X93000Y63900I778J778D01*
G01*
X92004Y60856D02*
G03*
X90809Y62051I-1195J0D01*
G01*
X88212Y99512D02*
G03*
X86984Y99937I-1228J-1559D01*
G01*
X85016D02*
G03*
X83031Y97953I0J-1984D01*
G01*
Y92047D02*
G03*
X85016Y90063I1984J0D01*
G01*
X86984D02*
G03*
X88212Y90488I0J1984D01*
G01*
X81368Y97953D02*
G03*
X78984Y100337I-2384J0D01*
G01*
X77016D02*
G03*
X75212Y99512I0J-2384D01*
G01*
X78984Y89663D02*
G03*
X81368Y92047I0J2384D01*
G01*
X75212Y90488D02*
G03*
X77016Y89663I1804J1559D01*
G01*
X84205Y76100D02*
G03*
X85250Y78000I-1205J1900D01*
G01*
D02*
G03*
X84100Y79963I-2250J0D01*
G01*
X74567Y86989D02*
G03*
X75000Y86900I433J1011D01*
G01*
X74567Y86989D02*
G03*
X75000Y86900I433J1011D01*
G01*
X81900Y79963D02*
G03*
X81795Y76100I1100J-1963D01*
G01*
X76222Y82222D02*
G03*
X77000Y81900I778J778D01*
G01*
X76222Y82222D02*
G03*
X77000Y81900I778J778D01*
G01*
X75212Y99512D02*
G03*
X73984Y99937I-1228J-1559D01*
G01*
X72016D02*
G03*
X70031Y97953I0J-1984D01*
G01*
Y92047D02*
G03*
X71900Y90066I1984J0D01*
G01*
X74440Y90116D02*
G03*
X75212Y90488I-455J1931D01*
G01*
X71900Y90000D02*
G03*
X72222Y89222I1100J0D01*
G01*
X71900Y90000D02*
G03*
X72222Y89222I1100J0D01*
G01*
X68868Y97953D02*
G03*
X66484Y100337I-2384J0D01*
G01*
X64516D02*
G03*
X62712Y99512I0J-2384D01*
G01*
X66484Y89663D02*
G03*
X68868Y92047I0J2384D01*
G01*
X62712Y90488D02*
G03*
X64516Y89663I1804J1559D01*
G01*
X72433Y89011D02*
G03*
X72000Y89100I-433J-1011D01*
G01*
X72433Y89011D02*
G03*
X72000Y89100I-433J-1011D01*
G01*
X63000Y86100D02*
G03*
X62222Y85778I0J-1100D01*
G01*
X63000Y86100D02*
G03*
X62222Y85778I0J-1100D01*
G01*
X80000Y73100D02*
G03*
X79222Y72778I0J-1100D01*
G01*
X79963Y76100D02*
G03*
X79963Y73900I-1963J-1100D01*
G01*
X80000Y73100D02*
G03*
X79222Y72778I0J-1100D01*
G01*
X78289Y71844D02*
G03*
X79226Y69670I-1289J-1844D01*
G01*
X79150Y62050D02*
G03*
X79819Y62277I0J1100D01*
G01*
X89427Y62051D02*
G03*
X88839Y61896I0J-1195D01*
G01*
D02*
G03*
X88518Y62021I-589J-1040D01*
G01*
X81042Y61819D02*
G03*
X80555Y60856I708J-963D01*
G01*
X79819Y65085D02*
G03*
X79222Y64778I181J-1085D01*
G01*
X78798Y64353D02*
G03*
X79040Y62050I-1798J-1353D01*
G01*
X79819Y65085D02*
G03*
X79222Y64778I181J-1085D01*
G01*
X79150Y62050D02*
G03*
X79819Y62277I0J1100D01*
G01*
X78100Y54000D02*
G03*
X77778Y54778I-1100J0D01*
G01*
X78100Y54000D02*
G03*
X77778Y54778I-1100J0D01*
G01*
X76778Y55778D02*
G03*
X76000Y56100I-778J-778D01*
G01*
X76778Y55778D02*
G03*
X76000Y56100I-778J-778D01*
G01*
X73100Y70000D02*
G03*
X72778Y70778I-1100J0D01*
G01*
X71778Y71778D02*
G03*
X71000Y72100I-778J-778D01*
G01*
X73100Y70000D02*
G03*
X72778Y70778I-1100J0D01*
G01*
X71778Y71778D02*
G03*
X71000Y72100I-778J-778D01*
G01*
X64222Y70222D02*
G03*
X65000Y69900I778J778D01*
G01*
X64222Y70222D02*
G03*
X65000Y69900I778J778D01*
G01*
X62900Y72000D02*
G03*
X63222Y71222I1100J0D01*
G01*
X62900Y72000D02*
G03*
X63222Y71222I1100J0D01*
G01*
X72222Y54222D02*
G03*
X72644Y53959I778J778D01*
G01*
X70380Y56520D02*
G03*
X70702Y55742I1100J0D01*
G01*
X70380Y56520D02*
G03*
X70702Y55742I1100J0D01*
G01*
X67227Y67329D02*
G03*
X66449Y67651I-778J-778D01*
G01*
X67227Y67329D02*
G03*
X66449Y67651I-778J-778D01*
G01*
X70250Y63000D02*
G03*
X70217Y63386I-2250J0D01*
G01*
X69100Y57037D02*
G03*
X70250Y59000I-1100J1963D01*
G01*
D02*
G03*
X69031Y61000I-2250J0D01*
G01*
X69100Y65000D02*
G03*
X68778Y65778I-1100J0D01*
G01*
X69100Y65000D02*
G03*
X68778Y65778I-1100J0D01*
G01*
X69031Y61000D02*
G03*
X70250Y63000I-1031J2000D01*
G01*
X115650Y53000D02*
G03*
X115650Y53000I-2650J0D01*
G01*
Y47000D02*
G03*
X112121Y44500I-2650J0D01*
G01*
X113879D02*
G03*
X115650Y47000I-879J2500D01*
G01*
Y42000D02*
G03*
X113879Y44500I-2650J0D01*
G01*
X104778Y48965D02*
G03*
X105100Y49743I-778J778D01*
G01*
X104778Y48965D02*
G03*
X105100Y49743I-778J778D01*
G01*
X102222Y49521D02*
G03*
X101900Y48743I778J-778D01*
G01*
X112121Y44500D02*
G03*
X115650Y42000I879J-2500D01*
G01*
X116512Y32288D02*
G03*
X116937Y33516I-1559J1228D01*
G01*
Y35484D02*
G03*
X114953Y37468I-1984J0D01*
G01*
X109047D02*
G03*
X107066Y35600I0J-1984D01*
G01*
Y33400D02*
G03*
X107488Y32288I1981J116D01*
G01*
D02*
G03*
X106663Y30484I1559J-1804D01*
G01*
X101900Y37000D02*
G03*
X102222Y36222I1100J0D01*
G01*
X104722Y33722D02*
G03*
X105500Y33400I778J778D01*
G01*
X104722Y33722D02*
G03*
X105500Y33400I778J778D01*
G01*
X102222Y49521D02*
G03*
X101900Y48743I778J-778D01*
G01*
X96778Y48222D02*
G03*
X97100Y49000I-778J778D01*
G01*
X96778Y48222D02*
G03*
X97100Y49000I-778J778D01*
G01*
X95000Y46900D02*
G03*
X95778Y47222I0J1100D01*
G01*
X95000Y46900D02*
G03*
X95778Y47222I0J1100D01*
G01*
X92404Y42549D02*
G03*
X90809Y44144I-1595J0D01*
G01*
X89427D02*
G03*
X88365Y43739I0J-1595D01*
G01*
X101900Y37000D02*
G03*
X102222Y36222I1100J0D01*
G01*
X90809Y35242D02*
G03*
X92404Y36837I0J1595D01*
G01*
X117337Y30484D02*
G03*
X116512Y32288I-2384J0D01*
G01*
X114953Y26131D02*
G03*
X117337Y28516I0J2384D01*
G01*
Y18484D02*
G03*
X116512Y20288I-2384J0D01*
G01*
X106663Y28516D02*
G03*
X109047Y26131I2384J0D01*
G01*
Y25469D02*
G03*
X107063Y23484I0J-1984D01*
G01*
X116937D02*
G03*
X114953Y25469I-1984J0D01*
G01*
X116512Y20288D02*
G03*
X116937Y21516I-1559J1228D01*
G01*
X107063D02*
G03*
X107488Y20288I1984J0D01*
G01*
D02*
G03*
X106663Y18484I1559J-1804D01*
G01*
X116512Y8288D02*
G03*
X116937Y9516I-1559J1228D01*
G01*
X114953Y14131D02*
G03*
X117337Y16516I0J2384D01*
G01*
X116937Y11484D02*
G03*
X114953Y13468I-1984J0D01*
G01*
X117337Y6484D02*
G03*
X116512Y8288I-2384J0D01*
G01*
X117337Y4550D02*
G03*
X117700Y6449I-4786J1899D01*
G01*
X112550Y1300D02*
G03*
X115429Y2180I0J5150D01*
G01*
X114953Y2131D02*
G03*
X115429Y2180I0J2384D01*
G01*
X106663Y16516D02*
G03*
X109047Y14131I2384J0D01*
G01*
Y13468D02*
G03*
X107066Y11600I0J-1984D01*
G01*
Y9400D02*
G03*
X107488Y8288I1981J116D01*
G01*
D02*
G03*
X106663Y6484I1559J-1804D01*
G01*
Y4516D02*
G03*
X109047Y2131I2384J0D01*
G01*
X98900Y15000D02*
G03*
X99222Y14222I1100J0D01*
G01*
X98900Y15000D02*
G03*
X99222Y14222I1100J0D01*
G01*
X96000Y12900D02*
G03*
X96778Y13222I0J1100D01*
G01*
X103722Y9722D02*
G03*
X104500Y9400I778J778D01*
G01*
X96000Y12900D02*
G03*
X96778Y13222I0J1100D01*
G01*
X103722Y9722D02*
G03*
X104500Y9400I778J778D01*
G01*
X105650Y5000D02*
G03*
X105650Y5000I-2650J0D01*
G01*
X95650Y4000D02*
G03*
X95650Y4000I-2650J0D01*
G01*
X83132Y53949D02*
G03*
X83720Y54104I0J1195D01*
G01*
X84194Y43739D02*
G03*
X83132Y44144I-1063J-1189D01*
G01*
X86868Y43744D02*
G03*
X86279Y43589I0J-1195D01*
G01*
X86279D02*
G03*
X85691Y43744I-589J-1040D01*
G01*
X80555Y55144D02*
G03*
X81750Y53949I1195J0D01*
G01*
Y44144D02*
G03*
X80155Y42549I0J-1595D01*
G01*
X83132Y35242D02*
G03*
X83900Y35439I0J1595D01*
G01*
X80155Y36837D02*
G03*
X81750Y35242I1595J0D01*
G01*
X81650Y33000D02*
G03*
X78419Y30415I-2650J0D01*
G01*
X81483Y32073D02*
G03*
X81650Y33000I-2483J927D01*
G01*
X78419Y29115D02*
G03*
X77890Y29250I-528J-965D01*
G01*
X78419Y29115D02*
G03*
X77890Y29250I-528J-965D01*
G01*
X76109D02*
G03*
X75332Y28928I0J-1100D01*
G01*
X76109Y29250D02*
G03*
X75332Y28928I0J-1100D01*
G01*
X72222Y54222D02*
G03*
X72644Y53959I778J778D01*
G01*
X81100Y26041D02*
G03*
X81033Y26419I-1100J0D01*
G01*
X81100Y26041D02*
G03*
X81033Y26419I-1100J0D01*
G01*
X80037Y15900D02*
G03*
X81305Y14860I1963J1100D01*
G01*
X78559Y15459D02*
G03*
X79337Y15781I0J1100D01*
G01*
X78559Y15459D02*
G03*
X79337Y15781I0J1100D01*
G01*
X77963Y14396D02*
G03*
X77557Y15459I-1595J0D01*
G01*
X73222Y26778D02*
G03*
X72900Y26000I778J-778D01*
G01*
X73222Y26778D02*
G03*
X72900Y26000I778J-778D01*
G01*
Y24963D02*
G03*
X72037Y24100I1100J-1963D01*
G01*
X74899Y20455D02*
G03*
X74577Y19677I778J-778D01*
G01*
X74899Y20455D02*
G03*
X74577Y19677I778J-778D01*
G01*
X72037Y21900D02*
G03*
X75900Y21795I1963J1100D01*
G01*
X74577Y18224D02*
G03*
X73610Y18550I-967J-1271D01*
G01*
X80222Y13778D02*
G03*
X79900Y13000I778J-778D01*
G01*
X80222Y13778D02*
G03*
X79900Y13000I778J-778D01*
G01*
X86150Y11050D02*
G03*
X86928Y11372I0J1100D01*
G01*
X86150Y11050D02*
G03*
X86928Y11372I0J1100D01*
G01*
X83030Y9970D02*
G03*
X86040Y11050I970J2030D01*
G01*
X83250Y9000D02*
G03*
X83030Y9970I-2250J0D01*
G01*
X79900Y10963D02*
G03*
X83250Y9000I1100J-1963D01*
G01*
X77419Y12405D02*
G03*
X77963Y13604I-1051J1199D01*
G01*
X77563Y11837D02*
G03*
X77419Y12405I-1195J0D01*
G01*
X76368Y9850D02*
G03*
X77563Y11045I0J1195D01*
G01*
X73610Y9450D02*
G03*
X74704Y9884I0J1597D01*
G01*
X69000Y24100D02*
G03*
X68222Y23778I0J-1100D01*
G01*
X70067Y18550D02*
G03*
X69100Y18224I0J-1597D01*
G01*
X69000Y24100D02*
G03*
X68222Y23778I0J-1100D01*
G01*
X67222Y22778D02*
G03*
X66900Y22000I778J-778D01*
G01*
X67222Y22778D02*
G03*
X66900Y22000I778J-778D01*
G01*
Y18077D02*
G03*
X66114Y16955I409J-1123D01*
G01*
X69379Y9606D02*
G03*
X70067Y9450I688J1441D01*
G01*
X68691D02*
G03*
X69379Y9606I0J1595D01*
G01*
X76650Y4000D02*
G03*
X76650Y4000I-2650J0D01*
G01*
X69650Y5000D02*
G03*
X66581Y7617I-2650J0D01*
G01*
X66071Y7482D02*
G03*
X69650Y5000I929J-2482D01*
G01*
X66114Y16163D02*
G03*
X66181Y15769I1195J0D01*
G01*
D02*
G03*
X66505Y15280I1128J394D01*
G01*
X66581Y9093D02*
G03*
X66841Y9285I-518J970D01*
G01*
X66581Y9093D02*
G03*
X66841Y9285I-518J970D01*
G01*
X66581Y7617D02*
G03*
X66071Y7482I419J-2617D01*
G01*
X62712Y99512D02*
G03*
X61484Y99937I-1228J-1559D01*
G01*
X59516D02*
G03*
X57531Y97953I0J-1984D01*
G01*
Y92047D02*
G03*
X59400Y90066I1984J0D01*
G01*
X61600D02*
G03*
X62712Y90488I-116J1981D01*
G01*
X61222Y87222D02*
G03*
X62000Y86900I778J778D01*
G01*
X61222Y87222D02*
G03*
X62000Y86900I778J778D01*
G01*
X59400Y89500D02*
G03*
X59722Y88722I1100J0D01*
G01*
X59400Y89500D02*
G03*
X59722Y88722I1100J0D01*
G01*
X56368Y97953D02*
G03*
X53984Y100337I-2384J0D01*
G01*
X52016D02*
G03*
X50212Y99512I0J-2384D01*
G01*
X53984Y89663D02*
G03*
X56368Y92047I0J2384D01*
G01*
X50212Y90488D02*
G03*
X52016Y89663I1804J1559D01*
G01*
X59159Y82715D02*
G03*
X58837Y81937I778J-778D01*
G01*
X59159Y82715D02*
G03*
X58837Y81937I778J-778D01*
G01*
X50212Y99512D02*
G03*
X48984Y99937I-1228J-1559D01*
G01*
X47016D02*
G03*
X45031Y97953I0J-1984D01*
G01*
X48984Y90063D02*
G03*
X50212Y90488I0J1984D01*
G01*
X45031Y92047D02*
G03*
X47016Y90063I1984J0D01*
G01*
X46778Y86778D02*
G03*
X46000Y87100I-778J-778D01*
G01*
X41969Y97953D02*
G03*
X39984Y99937I-1984J0D01*
G01*
X38016D02*
G03*
X36788Y99512I0J-1984D01*
G01*
X39984Y90063D02*
G03*
X41969Y92047I0J1984D01*
G01*
X36788Y90488D02*
G03*
X38016Y90063I1228J1559D01*
G01*
X46778Y86778D02*
G03*
X46000Y87100I-778J-778D01*
G01*
X49100Y84000D02*
G03*
X48778Y84778I-1100J0D01*
G01*
X49100Y84000D02*
G03*
X48778Y84778I-1100J0D01*
G01*
X43650Y82000D02*
G03*
X38803Y80518I-2650J0D01*
G01*
X37795Y82461D02*
G03*
X36595Y83661I-1201J0D01*
G01*
X43197Y80518D02*
G03*
X43650Y82000I-2197J1482D01*
G01*
X37419Y79627D02*
G03*
X37795Y80500I-824J873D01*
G01*
X62227Y63386D02*
G03*
X62900Y60037I1773J-1386D01*
G01*
X60715Y62159D02*
G03*
X61037Y62937I-778J778D01*
G01*
X60715Y62159D02*
G03*
X61037Y62937I-778J778D01*
G01*
X53095Y60110D02*
G03*
X52778Y60778I-1094J-110D01*
G01*
X53095Y60110D02*
G03*
X52778Y60778I-1094J-110D01*
G01*
X51778Y61778D02*
G03*
X51000Y62100I-778J-778D01*
G01*
X51778Y61778D02*
G03*
X51000Y62100I-778J-778D01*
G01*
X36595Y71819D02*
G03*
X37789Y72900I0J1201D01*
G01*
X38976Y68088D02*
G03*
X37784Y69279I-1192J0D01*
G01*
X46900Y62000D02*
G03*
X47222Y61222I1100J0D01*
G01*
X46900Y62000D02*
G03*
X47222Y61222I1100J0D01*
G01*
X38897Y65486D02*
G03*
X38976Y65912I-1113J427D01*
G01*
X39376Y64347D02*
G03*
X38897Y65486I-1592J0D01*
G01*
X39171Y61390D02*
G03*
X39376Y62172I-1386J783D01*
G01*
Y60607D02*
G03*
X39171Y61390I-1592J0D01*
G01*
X36788Y99512D02*
G03*
X34984Y100337I-1804J-1559D01*
G01*
X33016D02*
G03*
X31212Y99512I0J-2384D01*
G01*
D02*
G03*
X29984Y99937I-1228J-1559D01*
G01*
X34984Y89663D02*
G03*
X36788Y90488I0J2384D01*
G01*
X31212D02*
G03*
X33016Y89663I1804J1559D01*
G01*
X29984Y90063D02*
G03*
X31212Y90488I0J1984D01*
G01*
X28016Y99937D02*
G03*
X26032Y97953I0J-1984D01*
G01*
Y92047D02*
G03*
X28016Y90063I1984J0D01*
G01*
X30963Y87100D02*
G03*
X27037Y87100I-1963J-1100D01*
G01*
X33059Y83661D02*
G03*
X31864Y82580I0J-1201D01*
G01*
X27037Y84900D02*
G03*
X30963Y84900I1963J1100D01*
G01*
X31480Y82580D02*
G03*
X30702Y82258I0J-1100D01*
G01*
X31480Y82580D02*
G03*
X30702Y82258I0J-1100D01*
G01*
X29222Y80778D02*
G03*
X28900Y80000I778J-778D01*
G01*
X29222Y80778D02*
G03*
X28900Y80000I778J-778D01*
G01*
X21111Y83603D02*
G03*
X17164Y80089I-2111J-1603D01*
G01*
X27369Y82461D02*
G03*
X25768Y84061I-1601J0D01*
G01*
X26822Y79295D02*
G03*
X27369Y80500I-1054J1205D01*
G01*
X22232Y84061D02*
G03*
X21111Y83603I0J-1601D01*
G01*
X11543Y93212D02*
G03*
X12369Y95016I-1559J1804D01*
G01*
X11969Y91984D02*
G03*
X11543Y93212I-1984J0D01*
G01*
X9984Y88032D02*
G03*
X11969Y90016I0J1984D01*
G01*
X12369Y96984D02*
G03*
X9984Y99369I-2384J0D01*
G01*
X8016D02*
G03*
X5632Y96984I0J-2384D01*
G01*
Y95016D02*
G03*
X6457Y93212I2384J0D01*
G01*
X6828Y100700D02*
G03*
X1300Y95172I0J-5528D01*
G01*
X6457Y93212D02*
G03*
X6032Y91984I1559J-1228D01*
G01*
Y90016D02*
G03*
X8016Y88032I1984J0D01*
G01*
X10963Y87100D02*
G03*
X9967Y88032I-1963J-1100D01*
G01*
X10100Y84037D02*
G03*
X10963Y84900I-1100J1963D01*
G01*
X8033Y88032D02*
G03*
X7900Y84037I967J-2032D01*
G01*
X6650Y86000D02*
G03*
X6650Y86000I-2650J0D01*
G01*
Y79000D02*
G03*
X6650Y79000I-2650J0D01*
G01*
X36595Y79299D02*
G03*
X37419Y79627I0J1201D01*
G01*
X31872Y80317D02*
G03*
X33059Y79299I1187J183D01*
G01*
X37419Y75853D02*
G03*
X36595Y76181I-824J-873D01*
G01*
X37735Y75356D02*
G03*
X37419Y75853I-1141J-376D01*
G01*
X33059Y76181D02*
G03*
X31858Y74980I0J-1201D01*
G01*
Y73020D02*
G03*
X33059Y71819I1201J0D01*
G01*
X26969Y78720D02*
G03*
X26822Y79295I-1201J0D01*
G01*
X26574Y75870D02*
G03*
X26969Y76760I-806J890D01*
G01*
Y74980D02*
G03*
X26574Y75870I-1201J0D01*
G01*
X25768Y71819D02*
G03*
X26969Y73020I0J1201D01*
G01*
X33444Y69279D02*
G03*
X32269Y68287I0J-1192D01*
G01*
X31222Y66222D02*
G03*
X32000Y65900I778J778D01*
G01*
X31222Y66222D02*
G03*
X32000Y65900I778J778D01*
G01*
X32252D02*
G03*
X32331Y65486I1192J12D01*
G01*
X31852Y62172D02*
G03*
X32057Y61390I1592J0D01*
G01*
Y61390D02*
G03*
X31852Y60607I1386J-783D01*
G01*
X32331Y65486D02*
G03*
X31852Y64347I1113J-1138D01*
G01*
X28900Y69000D02*
G03*
X29222Y68222I1100J0D01*
G01*
X28900Y69000D02*
G03*
X29222Y68222I1100J0D01*
G01*
X27362Y68088D02*
G03*
X26170Y69279I-1192J0D01*
G01*
X27362Y64347D02*
G03*
X27069Y65130I-1192J0D01*
G01*
D02*
G03*
X27362Y65912I-899J783D01*
G01*
Y60607D02*
G03*
X27069Y61390I-1192J0D01*
G01*
Y61390D02*
G03*
X27362Y62172I-899J783D01*
G01*
X21032Y76760D02*
G03*
X21426Y75870I1201J0D01*
G01*
D02*
G03*
X21032Y74980I806J-890D01*
G01*
X17164Y80089D02*
G03*
X19963Y76900I836J-2089D01*
G01*
X21032Y73020D02*
G03*
X22232Y71819I1201J0D01*
G01*
X9778Y71222D02*
G03*
X10100Y72000I-778J778D01*
G01*
X9778Y71222D02*
G03*
X10100Y72000I-778J778D01*
G01*
X21830Y69279D02*
G03*
X20638Y68100I0J-1192D01*
G01*
X19963D02*
G03*
X16581Y68746I-1963J-1100D01*
G01*
X6962Y62482D02*
G03*
X7740Y62160I778J778D01*
G01*
X5222Y69778D02*
G03*
X4900Y69000I778J-778D01*
G01*
X5222Y69778D02*
G03*
X4900Y69000I778J-778D01*
G01*
X6962Y62482D02*
G03*
X7740Y62160I778J778D01*
G01*
X4900Y65000D02*
G03*
X5222Y64222I1100J0D01*
G01*
X4900Y65000D02*
G03*
X5222Y64222I1100J0D01*
G01*
X62900Y58093D02*
G03*
X62900Y54167I1100J-1963D01*
G01*
X58250Y52000D02*
G03*
X57100Y53963I-2250J0D01*
G01*
Y50037D02*
G03*
X58250Y52000I-1100J1963D01*
G01*
X55222Y59778D02*
G03*
X54900Y59000I778J-778D01*
G01*
X55222Y59778D02*
G03*
X54900Y59000I778J-778D01*
G01*
Y53963D02*
G03*
X54378Y53559I1100J-1963D01*
G01*
X53981Y52992D02*
G03*
X54900Y50037I2019J-992D01*
G01*
X54378Y53559D02*
G03*
X53981Y52992I1622J-1559D01*
G01*
X56778Y46222D02*
G03*
X57100Y47000I-778J778D01*
G01*
X56778Y46222D02*
G03*
X57100Y47000I-778J778D01*
G01*
X53000Y42900D02*
G03*
X53778Y43222I0J1100D01*
G01*
X53000Y42900D02*
G03*
X53778Y43222I0J1100D01*
G01*
X55264Y39213D02*
G03*
X50114Y40091I-2650J0D01*
G01*
X55264Y33213D02*
G03*
X50114Y34091I-2650J0D01*
G01*
Y38334D02*
G03*
X55264Y39213I2500J879D01*
G01*
X50650Y50000D02*
G03*
X48551Y52592I-2650J0D01*
G01*
X47449D02*
G03*
X50650Y50000I551J-2592D01*
G01*
X50114Y40091D02*
G03*
X45114Y40091I-2500J-879D01*
G01*
Y38334D02*
G03*
X50114Y38334I2500J879D01*
G01*
Y32334D02*
G03*
X55264Y33213I2500J879D01*
G01*
X50114Y34091D02*
G03*
X45114Y34091I-2500J-879D01*
G01*
Y32334D02*
G03*
X50114Y32334I2500J879D01*
G01*
X45114Y40091D02*
G03*
X45114Y38334I-2500J-879D01*
G01*
Y34091D02*
G03*
X45114Y32334I-2500J-879D01*
G01*
X57451Y17649D02*
G03*
X57129Y18426I-1100J0D01*
G01*
X57819Y15324D02*
G03*
X57451Y15719I-1819J-1324D01*
G01*
X50114Y26334D02*
G03*
X55264Y27213I2500J879D01*
G01*
D02*
G03*
X50114Y28091I-2650J0D01*
G01*
X52778Y22778D02*
G03*
X52000Y23100I-778J-778D01*
G01*
X52778Y22778D02*
G03*
X52000Y23100I-778J-778D01*
G01*
X57451Y17649D02*
G03*
X57129Y18426I-1100J0D01*
G01*
X51900Y17963D02*
G03*
X53753Y13880I1100J-1963D01*
G01*
X57419Y12254D02*
G03*
X57796Y12644I-1419J1746D01*
G01*
X58130Y5520D02*
G03*
X58130Y5520I-2650J0D01*
G01*
X53753Y13880D02*
G03*
X57419Y12254I2247J120D01*
G01*
X50114Y28091D02*
G03*
X45114Y28091I-2500J-879D01*
G01*
D02*
G03*
X45114Y26334I-2500J-879D01*
G01*
D02*
G03*
X50114Y26334I2500J879D01*
G01*
X42000Y23100D02*
G03*
X41222Y22778I0J-1100D01*
G01*
X42000Y23100D02*
G03*
X41222Y22778I0J-1100D01*
G01*
Y17778D02*
G03*
X40900Y17000I778J-778D01*
G01*
X48100Y15037D02*
G03*
X49250Y17000I-1100J1963D01*
G01*
D02*
G03*
X45900Y15037I-2250J0D01*
G01*
X42778Y13222D02*
G03*
X43100Y14000I-778J778D01*
G01*
X42778Y13222D02*
G03*
X43100Y14000I-778J778D01*
G01*
X41222Y17778D02*
G03*
X40900Y17000I778J-778D01*
G01*
X31852Y58432D02*
G03*
X31887Y58100I1592J0D01*
G01*
X39341D02*
G03*
X39376Y58432I-1557J332D01*
G01*
X33650Y46000D02*
G03*
X33461Y46984I-2650J0D01*
G01*
X37100Y46000D02*
G03*
X36778Y46778I-1100J0D01*
G01*
X37100Y46000D02*
G03*
X36778Y46778I-1100J0D01*
G01*
X30778Y52778D02*
G03*
X30000Y53100I-778J-778D01*
G01*
X30778Y52778D02*
G03*
X30000Y53100I-778J-778D01*
G01*
X27315Y58100D02*
G03*
X27362Y58432I-1145J332D01*
G01*
X22906Y57240D02*
G03*
X23222Y56574I1094J111D01*
G01*
X22906Y57240D02*
G03*
X23222Y56574I1094J111D01*
G01*
X20638Y58420D02*
G03*
X21830Y57240I1192J12D01*
G01*
X23574Y56222D02*
G03*
X24351Y55900I778J778D01*
G01*
X23574Y56222D02*
G03*
X24351Y55900I778J778D01*
G01*
X31984Y48461D02*
G03*
X33650Y46000I-984J-2461D01*
G01*
X25650Y41000D02*
G03*
X20364Y41272I-2650J0D01*
G01*
X21636Y38728D02*
G03*
X25650Y41000I1364J2272D01*
G01*
X16963Y53100D02*
G03*
X16963Y50900I-1963J-1100D01*
G01*
X18650Y42000D02*
G03*
X16377Y39377I-2650J0D01*
G01*
X20364Y41272D02*
G03*
X18623Y41623I-1364J-2272D01*
G01*
D02*
G03*
X18650Y42000I-2623J377D01*
G01*
X16377Y39377D02*
G03*
X21636Y38728I2623J-377D01*
G01*
X12650Y43000D02*
G03*
X8000Y44739I-2650J0D01*
G01*
D02*
G03*
X8000Y41262I-2000J-1739D01*
G01*
D02*
G03*
X12650Y43000I2000J1739D01*
G01*
X37963Y20100D02*
G03*
X37100Y20963I-1963J-1100D01*
G01*
X40044Y14313D02*
G03*
X40650Y16000I-2044J1687D01*
G01*
D02*
G03*
X39624Y18094I-2650J0D01*
G01*
X26879Y21500D02*
G03*
X28650Y24000I-879J2500D01*
G01*
X34900Y20963D02*
G03*
X35477Y16812I1100J-1963D01*
G01*
X35477D02*
G03*
X35956Y14313I2523J-812D01*
G01*
X28650Y19000D02*
G03*
X26879Y21500I-2650J0D01*
G01*
X28650Y14000D02*
G03*
X26879Y16500I-2650J0D01*
G01*
D02*
G03*
X28650Y19000I-879J2500D01*
G01*
X27738Y7000D02*
G03*
X28650Y9000I-1739J2000D01*
G01*
D02*
G03*
X26879Y11500I-2650J0D01*
G01*
D02*
G03*
X28650Y14000I-879J2500D01*
G01*
Y5000D02*
G03*
X27738Y7000I-2650J0D01*
G01*
X22650Y29000D02*
G03*
X18000Y30738I-2650J0D01*
G01*
D02*
G03*
X14000Y30738I-2000J-1739D01*
G01*
X18000Y27261D02*
G03*
X22650Y29000I2000J1739D01*
G01*
X14000Y27261D02*
G03*
X18000Y27261I2000J1739D01*
G01*
X14000Y30738D02*
G03*
X14000Y27261I-2000J-1739D01*
G01*
X28650Y24000D02*
G03*
X25121Y21500I-2650J0D01*
G01*
D02*
G03*
X25121Y16500I879J-2500D01*
G01*
D02*
G03*
X25121Y11500I879J-2500D01*
G01*
X24261Y7000D02*
G03*
X28650Y5000I1739J-2000D01*
G01*
X25121Y11500D02*
G03*
X24261Y7000I879J-2500D01*
G01*
X111432Y100700D02*
X112414Y99718D01*
X111235Y99921D02*
X112014Y100700D01*
X108604D02*
X109367Y99937D01*
X109016D02*
X110984D01*
X108281Y99796D02*
X109185Y100700D01*
X105775D02*
X107388Y99087D01*
X109016Y90063D02*
X110984D01*
X114016Y89663D02*
X115984D01*
X106369Y97883D02*
X107172Y98687D01*
X106369Y97278D02*
X107032Y96615D01*
Y92047D02*
Y97953D01*
X103165Y100337D02*
X103528Y100700D01*
X102016Y100337D02*
X103984D01*
X102947Y100700D02*
X103310Y100337D01*
X105472Y99816D02*
X106357Y100700D01*
X100118D02*
X100809Y100009D01*
X99773Y99773D02*
X100700Y100700D01*
X99773Y99773D02*
X100700Y100700D01*
X106369Y94450D02*
X107032Y93787D01*
X106369Y92226D02*
X107032Y92889D01*
X106369Y95055D02*
X107032Y95718D01*
X106369Y92047D02*
Y97953D01*
X116702Y89773D02*
X117700Y88775D01*
X117011Y88726D02*
X117700Y89416D01*
X106336Y91654D02*
X117700Y80290D01*
X116188Y84631D02*
X117700Y83118D01*
X113832Y82719D02*
X115513Y84400D01*
X114100Y80159D02*
X117700Y83759D01*
X114100Y75963D02*
Y82000D01*
X112333Y84048D02*
X113274Y84989D01*
X112778Y83778D02*
X113778Y82778D01*
X107394Y84766D02*
X112692Y90064D01*
X110755Y90063D02*
X112631Y88187D01*
X102670Y89663D02*
X108233Y84100D01*
X105178Y89983D02*
X111062Y84100D01*
X102677Y82878D02*
X109862Y90063D01*
X102016Y89663D02*
X103984D01*
X99849Y85707D02*
X103805Y89663D01*
X101263Y84293D02*
X107614Y90643D01*
X99398Y90107D02*
X104682Y84823D01*
X109556Y84100D02*
X112352Y86896D01*
X107963Y81900D02*
X111544D01*
X110433D02*
X111900Y80433D01*
X111544Y81900D02*
X111900Y81544D01*
X107963Y84100D02*
X112000D01*
X99100Y87576D02*
X103751Y82925D01*
X106920Y78636D02*
X110184Y81900D01*
X97290Y100700D02*
X98053Y99937D01*
X97016D02*
X98984D01*
X97109D02*
X97872Y100700D01*
X95031Y92047D02*
Y97953D01*
X94462Y100700D02*
X95713Y99449D01*
X93819Y99476D02*
X95043Y100700D01*
X94368Y97965D02*
X95031Y97302D01*
X94368Y92308D02*
X95085Y91592D01*
X96560Y90116D02*
X96900Y89776D01*
X94587Y88930D02*
X96000Y90343D01*
X94368Y95136D02*
X95031Y94473D01*
X94368Y97197D02*
X95031Y97860D01*
X94297Y91469D02*
X95031Y92203D01*
X94368Y94368D02*
X95031Y95031D01*
X91852Y100337D02*
X92215Y100700D01*
X91633D02*
X91996Y100337D01*
X94368Y92047D02*
Y97953D01*
X90016Y100337D02*
X91984D01*
X94368Y94368D02*
X95031Y95031D01*
X90016Y89663D02*
X91984D01*
X91928Y89100D02*
X92563Y89734D01*
X91356Y89663D02*
X91919Y89100D01*
X75456D02*
X94000D01*
X89100D02*
X89686Y89686D01*
X89100Y89100D02*
X89686Y89686D01*
X99100Y86456D02*
Y90066D01*
Y87786D02*
X101142Y89829D01*
X96900Y86000D02*
Y90066D01*
X99100Y86456D02*
X108628Y76928D01*
X95982Y87496D02*
X96900Y88415D01*
X93576Y90272D02*
X96900Y86948D01*
X96100Y81963D02*
Y87000D01*
X96103Y81961D02*
X98293Y84151D01*
X97222Y85222D02*
X101433Y81011D01*
X98071Y81100D02*
X99708Y82737D01*
X96100Y84919D02*
X99919Y81100D01*
X96100Y84786D02*
X96959Y85645D01*
X96100Y82091D02*
X97091Y81100D01*
X94778Y88778D02*
X95778Y87778D01*
X91291Y86900D02*
X93900Y84291D01*
X75000Y86900D02*
X93544D01*
X90905Y85248D02*
X92557Y86900D01*
X88463D02*
X90244Y85119D01*
X86928Y84100D02*
X89728Y86900D01*
X93900Y81963D02*
Y86544D01*
X92815Y84330D02*
X93900Y85415D01*
X93544Y86900D02*
X93900Y86544D01*
X93119Y82244D02*
X93601Y81762D01*
X84977Y81900D02*
X90777Y76100D01*
X87414D02*
X93900Y82586D01*
X87806Y81900D02*
X93606Y76100D01*
X114100Y81062D02*
X117700Y77461D01*
X114100Y77330D02*
X117700Y80930D01*
X111900Y75963D02*
Y81544D01*
X114100Y78233D02*
X117700Y74633D01*
X114862Y75264D02*
X117700Y78102D01*
X107823Y81682D02*
X111900Y77605D01*
X108334Y77222D02*
X111900Y80787D01*
X109504Y75563D02*
X111900Y77959D01*
X105925Y80751D02*
X111255Y75421D01*
X115234Y74271D02*
X117700Y71805D01*
X110120Y73728D02*
X111207Y72641D01*
X114421Y72255D02*
X117700Y68976D01*
X110001Y73231D02*
X110750Y73980D01*
X100899Y81100D02*
X101122Y81323D01*
X105506Y80050D02*
X106216Y80760D01*
X103900Y73963D02*
Y75544D01*
X99291Y78900D02*
X103900Y74291D01*
X100544Y78900D02*
X103900Y75544D01*
X100420Y72136D02*
X103864Y75580D01*
X99006Y73550D02*
X102450Y76994D01*
X101100Y69987D02*
X102775Y71663D01*
X101100Y67159D02*
X103951Y70010D01*
X98581Y70863D02*
X98900Y70544D01*
X98581Y70297D02*
X98864Y70580D01*
X98581Y67468D02*
X98900Y67787D01*
X98581Y68296D02*
X98900Y67977D01*
X105790Y63363D02*
X117700Y75274D01*
X108984Y72036D02*
X117700Y63319D01*
X111641Y72207D02*
X117700Y66148D01*
X105545Y69817D02*
X117700Y57662D01*
X107071Y71120D02*
X117700Y60491D01*
X103842Y64245D02*
X111736Y72138D01*
X101100Y64330D02*
X108655Y71885D01*
X100896Y71638D02*
X117700Y54834D01*
X105100Y59845D02*
X117700Y72445D01*
X112038Y55469D02*
X117700Y61131D01*
X105968Y60909D02*
X111617Y55260D01*
X105100Y54188D02*
X117700Y66788D01*
X114548Y55151D02*
X117700Y58303D01*
X101100Y65777D02*
X102909Y63968D01*
X105100Y57017D02*
X117700Y69617D01*
X101100Y68606D02*
X114573Y55133D01*
X101100Y62949D02*
X101768Y62281D01*
X101100Y61502D02*
X101755Y62157D01*
X98581Y66356D02*
Y70863D01*
X101100Y58674D02*
X102637Y60210D01*
X98181Y60211D02*
X98900Y59492D01*
X98181Y66356D02*
X98581D01*
X98181Y62819D02*
Y63921D01*
Y61411D02*
X98900Y62130D01*
X98181Y62819D02*
Y63921D01*
X101100Y60120D02*
X102900Y58320D01*
X101100Y55845D02*
X102900Y57645D01*
X98181Y56016D02*
Y56921D01*
X101100Y57292D02*
X102900Y55492D01*
X98181Y55755D02*
X98900Y56474D01*
X98181Y58583D02*
X98900Y59302D01*
X98181Y56921D02*
Y59953D01*
Y57382D02*
X98900Y56664D01*
X98181Y56016D02*
Y56921D01*
X96963Y81100D02*
X101000D01*
X96963Y78900D02*
X100544D01*
X96762Y78601D02*
X102817Y72545D01*
X97592Y74964D02*
X101036Y78408D01*
X95899Y76100D02*
X98699Y78900D01*
X84205Y76100D02*
X96000D01*
X94773Y77762D02*
X96638Y75896D01*
X96778Y75778D02*
X100778Y71778D01*
X97926Y71518D02*
X98581Y70863D01*
X96974Y71518D02*
X97450Y71994D01*
X93419Y71518D02*
X97926D01*
X94146D02*
X96036Y73409D01*
X95544Y73900D02*
X97926Y71518D01*
X90242Y76100D02*
X93039Y78897D01*
X93071Y76100D02*
X94736Y77766D01*
X91679Y80855D02*
X92761Y79773D01*
X92977Y73900D02*
X95359Y71518D01*
X91677Y71878D02*
X93699Y73900D01*
X79963D02*
X95544D01*
X80000Y73100D02*
X90000D01*
X90149Y73900D02*
X93419Y70630D01*
X90068Y73098D02*
X90871Y73900D01*
X93419Y70792D02*
X94146Y71518D01*
X93025Y70398D02*
X93419Y70792D01*
X90778Y72778D02*
X92778Y70778D01*
X89544Y70900D02*
X90900Y69544D01*
X88518Y68719D02*
X90122Y70323D01*
X98181Y65868D02*
X98900Y65149D01*
X98181Y64240D02*
X98900Y64959D01*
X93456Y66100D02*
X93819D01*
X98181Y63921D02*
Y66356D01*
X93819Y62819D02*
Y63900D01*
X93419Y66356D02*
X93819D01*
X93100Y66456D02*
X93456Y66100D01*
X88518Y67045D02*
X93819Y61745D01*
X93000Y63900D02*
X93819D01*
X98181Y63039D02*
X98900Y62320D01*
X93819Y59984D02*
Y62819D01*
Y63900D01*
X98181Y59984D02*
Y62819D01*
X93819Y59100D02*
Y59953D01*
X92003Y60891D02*
X93819Y62706D01*
X92004Y60731D02*
X93635Y59100D01*
X93041D02*
X93819Y59878D01*
X92004Y59100D02*
X93819D01*
X93100Y68120D02*
X93419Y67801D01*
X93100Y67644D02*
X93419Y67963D01*
X93100Y66456D02*
Y70000D01*
X93419Y66356D02*
Y71518D01*
X90900Y66000D02*
Y69544D01*
X88518Y69874D02*
X90900Y67492D01*
X88518Y65891D02*
X90900Y68273D01*
X91222Y65222D02*
X92222Y64222D01*
X92004Y59100D02*
Y60856D01*
X88518Y63062D02*
X90999Y65543D01*
X88518Y64217D02*
X90684Y62051D01*
X90336D02*
X92377Y64093D01*
X89427Y62051D02*
X90809D01*
X85976Y100700D02*
X86739Y99937D01*
X88805Y100700D02*
X89283Y100222D01*
X85795Y99937D02*
X86558Y100700D01*
X88204Y99518D02*
X89386Y100700D01*
X83148D02*
X84123Y99725D01*
X85016Y99937D02*
X86984D01*
X81341Y98312D02*
X83729Y100700D01*
X80319D02*
X83032Y97988D01*
X83031Y92047D02*
Y97953D01*
X81368Y93994D02*
X83031Y92331D01*
X85016Y90063D02*
X86984D01*
X81368Y96823D02*
X83031Y95160D01*
X81368Y95511D02*
X83031Y97174D01*
X81245Y91289D02*
X83434Y89100D01*
X81368Y92682D02*
X83031Y94345D01*
X80203Y100002D02*
X80901Y100700D01*
X77710Y100337D02*
X78073Y100700D01*
X81368Y92047D02*
Y97953D01*
X77016Y100337D02*
X78984D01*
X77491Y100700D02*
X77854Y100337D01*
X74663Y100700D02*
X75538Y99824D01*
X79871Y89834D02*
X80606Y89100D01*
X77786D02*
X78349Y89663D01*
X77016D02*
X78984D01*
X77214D02*
X77777Y89100D01*
X75207Y89349D02*
X75834Y89976D01*
X87903Y90288D02*
X89091Y89100D01*
X86272D02*
X87253Y90081D01*
X85299Y90063D02*
X86263Y89100D01*
X85634Y86900D02*
X88434Y84100D01*
X84100D02*
X86900Y86900D01*
X83443Y89100D02*
X84480Y90137D01*
X81272Y84100D02*
X84072Y86900D01*
X84100Y84100D02*
X86900Y86900D01*
X82806D02*
X85606Y84100D01*
X84885Y79228D02*
X87557Y81900D01*
X84585Y76100D02*
X89670Y81185D01*
X84980Y79069D02*
X87949Y76100D01*
X84100Y81900D02*
X89037D01*
X83000Y84100D02*
X89037D01*
X84100Y81272D02*
X84728Y81900D01*
X84100Y79963D02*
Y81900D01*
X80615Y89100D02*
X83089Y91574D01*
X77149Y86900D02*
X79949Y84100D01*
X76535Y85021D02*
X78415Y86900D01*
X79977D02*
X82777Y84100D01*
X78443D02*
X81243Y86900D01*
X74567Y86989D02*
X77456Y84100D01*
X75121Y86435D02*
X75586Y86900D01*
X77456Y84100D02*
X83000D01*
X81900Y79963D02*
Y81900D01*
X79320D02*
X81523Y79697D01*
X77030Y77030D02*
X81900Y81900D01*
X77030Y77030D02*
X81900Y81900D01*
X77000D02*
X81900D01*
X71834Y100700D02*
X72597Y99937D01*
X72016D02*
X73984D01*
X71611Y99895D02*
X72416Y100700D01*
X74430Y99886D02*
X75244Y100700D01*
X69006D02*
X70487Y99218D01*
X68868Y97153D02*
X70073Y98357D01*
X68868Y98009D02*
X70031Y96846D01*
Y92047D02*
Y97953D01*
X68868Y95180D02*
X70031Y94017D01*
X68868Y94324D02*
X70031Y95487D01*
X62456Y89100D02*
X72000D01*
X68782Y91409D02*
X70031Y92659D01*
X66396Y100337D02*
X66759Y100700D01*
X68339Y99451D02*
X69587Y100700D01*
X66177D02*
X66541Y100336D01*
X64516Y100337D02*
X66484D01*
X63349Y100700D02*
X63817Y100232D01*
X63106Y99876D02*
X63930Y100700D01*
X68868Y92047D02*
Y97953D01*
X66473Y89100D02*
X67123Y89750D01*
X65900Y89663D02*
X66464Y89100D01*
X64516Y89663D02*
X66484D01*
X62431Y90304D02*
X63635Y89100D01*
X74440Y90116D02*
X75456Y89100D01*
X72984Y84298D02*
X73565Y84879D01*
X72984Y83181D02*
Y85460D01*
Y85408D02*
X80784Y77607D01*
X72984Y85460D02*
X76222Y82222D01*
X68868Y92352D02*
X72128Y89093D01*
X69301Y89100D02*
X70734Y90533D01*
X73509Y79165D02*
X76413Y82070D01*
X73661Y76490D02*
X79072Y81900D01*
X73465Y78819D02*
Y79165D01*
X73661Y79074D02*
X76282Y76453D01*
X73661Y72835D02*
Y79165D01*
X73465Y81950D02*
X74980Y83465D01*
X72984Y83181D02*
X73465D01*
Y82099D02*
X78339Y77224D01*
X73465Y79165D02*
Y83181D01*
X68099Y90293D02*
X69292Y89100D01*
X63644D02*
X64225Y89681D01*
X63007Y86900D02*
X63807Y86100D01*
X65079D02*
Y86900D01*
X63473Y86100D02*
X64273Y86900D01*
X63000Y86100D02*
X65079D01*
X62000Y86900D02*
X65079D01*
X65159Y79565D02*
Y82819D01*
X65079D02*
Y83900D01*
X65159Y79165D02*
Y79565D01*
Y79165D02*
Y79565D01*
X63317Y83761D02*
X65159Y81919D01*
X63456Y83900D02*
X65079D01*
X62195Y79165D02*
X65159Y82130D01*
X61903Y82347D02*
X65084Y79165D01*
X87242Y73100D02*
X88042Y73900D01*
X87320D02*
X88120Y73100D01*
X84697Y76523D02*
X85120Y76100D01*
X84723Y70581D02*
X85042Y70900D01*
X84663D02*
X84982Y70581D01*
X84414Y73100D02*
X85214Y73900D01*
X81664D02*
X82464Y73100D01*
X84492Y73900D02*
X85292Y73100D01*
X81835Y70900D02*
X82554Y70181D01*
X87552Y70581D02*
X87871Y70900D01*
X87811Y70581D02*
X88518Y69874D01*
X87492Y70900D02*
X87811Y70581D01*
X80456Y70900D02*
X89544D01*
X83356Y70581D02*
X88518D01*
X83356Y70181D02*
Y70581D01*
X79819Y70181D02*
X83356D01*
X79963Y76100D02*
X81795D01*
X81585Y73100D02*
X82385Y73900D01*
X79503Y76674D02*
X80751Y77923D01*
X79453Y73282D02*
X79682Y73053D01*
X73661Y73661D02*
X75970Y75970D01*
X73661Y73661D02*
X75970Y75970D01*
X73661Y73417D02*
X75449Y71630D01*
X81495Y70181D02*
X82214Y70900D01*
X78289Y71844D02*
X79222Y72778D01*
X79226Y69670D02*
X80456Y70900D01*
X78630Y68449D02*
X79819Y67259D01*
X77771Y72114D02*
X78453Y72796D01*
X76826Y73080D02*
X77806Y72101D01*
X73661Y68005D02*
X74886Y69229D01*
X88518Y65419D02*
Y66581D01*
Y65419D02*
Y66581D01*
Y70581D01*
Y62021D02*
Y65419D01*
X79819Y65819D02*
Y66181D01*
Y70181D01*
Y61819D02*
Y62277D01*
Y61819D02*
X81042D01*
X80555Y55144D02*
Y60856D01*
X79353Y62069D02*
X80555Y60866D01*
X77723Y60869D02*
X80555Y58038D01*
X77592Y54964D02*
X80555Y57928D01*
X75899Y56100D02*
X80555Y60756D01*
X76510Y65196D02*
X79819Y68505D01*
Y65085D02*
Y65819D01*
Y66181D01*
X78661Y64518D02*
X79819Y65677D01*
X73661Y65176D02*
X76336Y67850D01*
X73661Y67760D02*
X76287Y65134D01*
X76425Y67825D02*
X79357Y64893D01*
X78798Y64353D02*
X79222Y64778D01*
X73661Y64931D02*
X74870Y63723D01*
X76778Y55778D02*
X77778Y54778D01*
X73661Y76245D02*
X76080Y73826D01*
X71778Y71778D02*
X72835Y72835D01*
X71778Y71778D02*
X72835Y72835D01*
X73073Y70244D02*
X76326Y73497D01*
X71415Y72835D02*
X74825Y69425D01*
X70321Y72835D02*
X73661D01*
X65159Y72435D02*
X70321D01*
X65456Y72100D02*
X71000D01*
X70321Y72435D02*
Y72835D01*
X71778Y71778D02*
X72778Y70778D01*
X73100Y69717D02*
X73661D01*
X65000Y69900D02*
X70544D01*
X69299Y69717D02*
X70728D01*
X69299Y69299D02*
X69717Y69717D01*
X66443Y72100D02*
X66778Y72435D01*
X66158D02*
X66493Y72100D01*
X69272D02*
X69606Y72435D01*
X68987D02*
X69321Y72100D01*
X65159Y72435D02*
Y72835D01*
X65100Y72456D02*
Y72835D01*
Y72456D02*
X65456Y72100D01*
X62900Y72000D02*
Y72835D01*
X69299Y69299D02*
X69717Y69717D01*
X68693Y69900D02*
X69299Y69294D01*
X66181Y69010D02*
X67072Y69900D01*
X64060Y69717D02*
X64413Y70070D01*
X63222Y71222D02*
X64222Y70222D01*
X73661Y63386D02*
Y69717D01*
X72580Y58438D02*
X75482Y61339D01*
X72580Y63386D02*
X73661D01*
X72580Y63184D02*
X80555Y55209D01*
X73263Y56292D02*
X77915Y60944D01*
X72580Y61267D02*
X74804Y63490D01*
X72580Y56975D02*
Y63386D01*
X70380Y56520D02*
Y63386D01*
X69725Y57555D02*
X70380Y56899D01*
X72580Y57527D02*
X74008Y56100D01*
X73456D02*
X76000D01*
X72580Y56975D02*
X73456Y56100D01*
X70702Y55742D02*
X72222Y54222D01*
X69100Y53959D02*
X72644D01*
X69100Y54958D02*
X70410Y56267D01*
X67278Y67278D02*
X69299Y69299D01*
X68692Y65864D02*
X69299Y66471D01*
X67278Y67278D02*
X69299Y69299D01*
Y64837D02*
Y69717D01*
X67227Y67329D02*
X68778Y65778D01*
X66181Y67651D02*
Y69717D01*
Y69583D02*
X69299Y66465D01*
X69313Y60827D02*
X70380Y61895D01*
X69896Y60212D02*
X70380Y59727D01*
X62900Y58093D02*
Y60037D01*
X115132Y54573D02*
X117700Y52006D01*
X114340Y49286D02*
X117700Y52646D01*
X115620Y53395D02*
X117700Y55475D01*
X115561Y47679D02*
X117700Y49818D01*
X115260Y51617D02*
X117700Y49177D01*
X105100Y51360D02*
X117700Y63960D01*
X113624Y50425D02*
X117700Y46349D01*
X114724Y44013D02*
X117700Y46989D01*
X115382Y45838D02*
X117700Y43520D01*
X115648Y42109D02*
X117700Y44161D01*
X105100Y56120D02*
X111838Y49382D01*
X105100Y53292D02*
X110503Y47888D01*
X105100Y58949D02*
X110425Y53624D01*
X102900Y50199D02*
Y60037D01*
X104100Y47531D02*
X110531Y53962D01*
X105100Y49743D02*
Y60037D01*
Y50463D02*
X111429Y44134D01*
X104274Y48461D02*
X110375Y42360D01*
X102222Y49521D02*
X102900Y50199D01*
X104100Y44703D02*
X110849Y51452D01*
X104100Y48287D02*
X104778Y48965D01*
X113836Y37468D02*
X117700Y41332D01*
X115134Y40429D02*
X117700Y37863D01*
X115493Y42899D02*
X117700Y40692D01*
Y6449D02*
Y90392D01*
X113361Y39375D02*
X115297Y37438D01*
X104100Y41875D02*
X112605Y50380D01*
X111008Y37468D02*
X112891Y39352D01*
X116907Y35828D02*
X117700Y35035D01*
X116937Y34912D02*
X117700Y35675D01*
X116937Y33516D02*
Y35484D01*
X116820Y31967D02*
X117700Y32847D01*
X116877Y33030D02*
X117700Y32207D01*
X116213Y37017D02*
X117700Y38504D01*
X109047Y37468D02*
X114953D01*
X104719Y36837D02*
X110401Y42519D01*
X104100Y40150D02*
X107510Y36739D01*
X104100Y37456D02*
X105956Y35600D01*
X106311D02*
X110987Y40276D01*
X104100Y45807D02*
X112438Y37468D01*
X104100Y39046D02*
X110714Y45660D01*
X104100Y42978D02*
X109610Y37468D01*
X104100Y37456D02*
Y48287D01*
X105500Y33400D02*
X107066D01*
X105956Y35600D02*
X107066D01*
X105128Y33465D02*
X106959Y31634D01*
X102222Y36222D02*
X104722Y33722D01*
X101100Y54463D02*
X102900Y52663D01*
X101100Y50188D02*
X102900Y51988D01*
X101100Y51635D02*
X102718Y50017D01*
X101100Y48807D02*
X101900Y48007D01*
X101100Y53017D02*
X102900Y54817D01*
X98181Y54554D02*
X98900Y53835D01*
X98181Y51726D02*
X98900Y51007D01*
X98181Y52926D02*
X98900Y53645D01*
X101100Y45978D02*
X101900Y45178D01*
X101100Y44531D02*
X101900Y45331D01*
X101100Y47360D02*
X101900Y48160D01*
X101100Y41703D02*
X101900Y42503D01*
X101100Y43150D02*
X101900Y42350D01*
X94521Y46900D02*
X98900Y42521D01*
X96403Y47847D02*
X98900Y45350D01*
X91693Y46900D02*
X98900Y39693D01*
X92404Y41492D02*
X98900Y47988D01*
X98181Y50098D02*
X98900Y50817D01*
X97100Y49016D02*
X98181D01*
Y52984D02*
Y56016D01*
X98062Y49016D02*
X98900Y48178D01*
X98181Y49016D02*
Y52953D01*
X95778Y47222D02*
X96778Y48222D01*
X89399Y44144D02*
X92155Y46900D01*
X89427Y44144D02*
X90809D01*
X91845Y43762D02*
X94983Y46900D01*
X87559D02*
X95000D01*
X86036D02*
X88886Y44050D01*
X86099Y43672D02*
X89326Y46900D01*
X101900Y37000D02*
Y48743D01*
X101100Y38875D02*
X101900Y39674D01*
X101100Y40321D02*
X101900Y39521D01*
X101100Y37493D02*
X101965Y36628D01*
X101100Y15456D02*
Y71000D01*
X94978Y35581D02*
X98900Y39503D01*
X88864Y46900D02*
X98900Y36865D01*
Y31581D02*
Y70544D01*
X91750Y35181D02*
X98900Y42331D01*
X101100Y33218D02*
X103163Y35281D01*
X101100Y30389D02*
X104578Y33867D01*
X101100Y27561D02*
X106939Y33400D01*
X101100Y34664D02*
X106663Y29101D01*
X101100Y36046D02*
X101909Y36856D01*
X97807Y35581D02*
X98900Y36674D01*
X98518Y33464D02*
X98900Y33846D01*
X98518Y34418D02*
X98900Y34036D01*
X92404Y38664D02*
X98900Y45160D01*
X92404Y40532D02*
X97355Y35581D01*
X92404Y36837D02*
Y42549D01*
Y37704D02*
X94527Y35581D01*
X93356Y35181D02*
Y35581D01*
X98518D01*
X91739Y35541D02*
X92098Y35181D01*
X98518Y31581D02*
Y35581D01*
X89819Y35181D02*
X91118D01*
X89732Y35242D02*
X90809D01*
X91118Y35181D02*
X93356D01*
X89819D02*
X91118D01*
X117337Y29656D02*
X117700Y30019D01*
X117337Y29741D02*
X117700Y29378D01*
X116983Y27266D02*
X117700Y26550D01*
X117337Y28516D02*
Y30484D01*
X115269Y26153D02*
X117700Y23721D01*
X115792Y25282D02*
X117700Y27190D01*
X117337Y18342D02*
X117700Y18705D01*
X117337Y18428D02*
X117700Y18065D01*
X116937Y21656D02*
X117700Y20893D01*
X117204Y15732D02*
X117700Y15236D01*
X117337Y16516D02*
Y18484D01*
X116643Y20476D02*
X117700Y21533D01*
X116934Y23596D02*
X117700Y24362D01*
X110321Y25469D02*
X110984Y26131D01*
X109633D02*
X110296Y25469D01*
X113150D02*
X113813Y26131D01*
X112461D02*
X113124Y25469D01*
X109047Y26131D02*
X114953D01*
X116937Y21516D02*
Y23484D01*
X109047Y25469D02*
X114953D01*
X107063Y21516D02*
Y23484D01*
X116817Y12165D02*
X117700Y13048D01*
X116937Y10342D02*
X117700Y9579D01*
X116937Y9516D02*
Y11484D01*
X116936Y9456D02*
X117700Y10220D01*
X115267Y13443D02*
X117700Y15877D01*
X115815Y14293D02*
X117700Y12408D01*
X117286Y6977D02*
X117700Y7391D01*
X117216Y7235D02*
X117700Y6751D01*
X117337Y4550D02*
Y6484D01*
X109047Y2131D02*
X114953D01*
X110319Y14131D02*
X110982Y13468D01*
X109047D02*
X114953D01*
X109635D02*
X110298Y14131D01*
X113148D02*
X113811Y13468D01*
X112464D02*
X113127Y14131D01*
X109047D02*
X114953D01*
X113834Y2131D02*
X114343Y1622D01*
X108780Y1300D02*
X109612Y2131D01*
X111609Y1300D02*
X112440Y2131D01*
X111006D02*
X111837Y1300D01*
X107862Y2447D02*
X109009Y1300D01*
X101100Y19075D02*
X108282Y26258D01*
X101100Y26179D02*
X107240Y20039D01*
X101100Y23351D02*
X106663Y17788D01*
X101100Y20522D02*
X108300Y13322D01*
X101100Y16247D02*
X107063Y22210D01*
X101100Y31836D02*
X107861Y25075D01*
X101100Y24732D02*
X106663Y30295D01*
X101100Y29008D02*
X107063Y23045D01*
X101100Y21904D02*
X106832Y27635D01*
X104947Y11609D02*
X107814Y14475D01*
X104956Y11600D02*
X107066D01*
X106663Y16516D02*
Y18484D01*
X106566Y9400D02*
X107218Y8748D01*
X104500Y9400D02*
X107066D01*
X102119Y14437D02*
X106731Y19050D01*
X103533Y13023D02*
X106687Y16177D01*
X101100Y17694D02*
X107077Y11717D01*
X98346Y14791D02*
X106663Y6474D01*
Y28516D02*
Y30484D01*
X101100Y15456D02*
X104956Y11600D01*
X99222Y14222D02*
X103722Y9722D01*
X98900Y15000D02*
Y15368D01*
X98518Y31581D02*
X98900D01*
X96932Y13377D02*
X102678Y7630D01*
X96778Y13222D02*
X98778Y15222D01*
X103718Y7551D02*
X105567Y9400D01*
X88456Y12900D02*
X96000D01*
X86928Y11372D02*
X88456Y12900D01*
X94580D02*
X100884Y6596D01*
X87275Y11720D02*
X92411Y6584D01*
X105304Y6309D02*
X107402Y8407D01*
X95470Y4960D02*
X101977Y11467D01*
X106663Y4516D02*
Y6484D01*
X94095Y6413D02*
X100563Y12881D01*
X91752Y12900D02*
X100484Y4168D01*
X94638Y1300D02*
X103391Y10053D01*
X88924Y12900D02*
X100523Y1300D01*
X103123D02*
X106663Y4840D01*
X105630Y4678D02*
X106979Y3330D01*
X105952Y1300D02*
X107423Y2771D01*
X104596Y2884D02*
X106180Y1300D01*
X102168Y2484D02*
X103352Y1300D01*
X100295D02*
X101691Y2696D01*
X83541Y9797D02*
X90770Y2568D01*
X85672Y10494D02*
X90756Y5410D01*
X86153Y1300D02*
X99152Y14299D01*
X80496Y1300D02*
X92096Y12900D01*
X77668Y1300D02*
X89268Y12900D01*
X83324Y1300D02*
X94924Y12900D01*
X82825Y7684D02*
X89210Y1300D01*
X94410Y1756D02*
X94867Y1300D01*
X97467D02*
X100449Y4282D01*
X95584Y3411D02*
X97695Y1300D01*
X88981Y1300D02*
X90587Y2905D01*
X91810Y1300D02*
X92040Y1530D01*
X91568Y1770D02*
X92038Y1300D01*
X83900Y53456D02*
Y54021D01*
X83481Y53037D02*
X83900Y53456D01*
X83654Y44056D02*
X86498Y46900D01*
X83208D02*
X86442Y43666D01*
X81750Y53949D02*
X83132D01*
X79181Y53037D02*
X83481D01*
X81816Y53949D02*
X82727Y53037D01*
X79181Y42412D02*
X83670Y46900D01*
X80379D02*
X83135Y44144D01*
X84309Y43744D02*
X85691D01*
X86868D02*
X88250D01*
X79181Y46900D02*
X87559D01*
X81750Y44144D02*
X83132D01*
X79181Y53725D02*
X80556Y55100D01*
X79181Y53037D02*
Y53921D01*
X81321Y53037D02*
X82233Y53949D01*
X79181Y53755D02*
X79899Y53037D01*
X78100Y53921D02*
X79181D01*
X74819Y53900D02*
X75544D01*
X74819Y46921D02*
Y49953D01*
Y49984D02*
Y53900D01*
X79181Y45240D02*
X80841Y46900D01*
X79181Y45270D02*
X80701Y43750D01*
X79181Y42984D02*
Y46016D01*
Y42441D02*
X80155Y41467D01*
X74819Y46016D02*
Y46921D01*
Y46016D02*
Y46921D01*
X79181Y46016D02*
Y46900D01*
Y46016D02*
Y46900D01*
X81750Y35242D02*
X83132D01*
X82819Y34736D02*
X83264Y35181D01*
X82819Y31581D02*
Y35181D01*
X80464Y35209D02*
X80806Y35551D01*
X76950Y39016D02*
X82819Y33147D01*
Y35181D02*
X83900D01*
X81599Y33516D02*
X82819Y34736D01*
X81483Y32073D02*
X81778Y31778D01*
X82493Y31581D02*
X82819Y31907D01*
X81934Y31581D02*
X82819D01*
X79181Y39583D02*
X80155Y40557D01*
X79181Y39613D02*
X80155Y38639D01*
X79181Y39016D02*
Y42953D01*
X80155Y36837D02*
Y42549D01*
X74819Y39016D02*
X79181D01*
X74819D02*
Y39451D01*
X77778Y35351D02*
X80155Y37729D01*
X78614Y39016D02*
X79181Y39583D01*
X77333Y29250D02*
X78419Y30336D01*
Y29115D02*
Y30415D01*
X76109Y29250D02*
X77890D01*
X72580Y60356D02*
X79015Y53921D01*
X74518Y52761D02*
X74819Y52460D01*
X74518Y53900D02*
X74819D01*
X74518Y51891D02*
X74819Y52192D01*
X74518Y46041D02*
Y53900D01*
Y49062D02*
X74819Y49363D01*
X74518Y47104D02*
X74819Y46804D01*
X74518Y49933D02*
X74819Y49632D01*
X72753Y46041D02*
X74819Y43975D01*
X74518Y46234D02*
X74819Y46535D01*
X68962Y46041D02*
X74518D01*
X69925D02*
X71855Y44110D01*
X72395D02*
X74325Y46041D01*
X70778Y44110D02*
X74118D01*
X69100Y55351D02*
X70492Y53959D01*
X70930D02*
X71707Y54737D01*
X69100Y53959D02*
Y57037D01*
Y53559D02*
Y53959D01*
X65622Y46441D02*
X66638D01*
X62900Y53559D02*
Y54167D01*
X62044Y53559D02*
X62747Y54261D01*
X63909Y44110D02*
X66240Y46441D01*
X63868D02*
X65798Y44510D01*
X68962Y46041D02*
Y46441D01*
X67138Y44510D02*
X68962Y46335D01*
X66696Y46441D02*
X68627Y44510D01*
X69966D02*
X71497Y46041D01*
X70778Y44110D02*
Y44510D01*
X66638Y46441D02*
X68962D01*
X65622D02*
X66638D01*
X65222Y44510D02*
X70778D01*
X65222Y44110D02*
Y44510D01*
X74819Y41651D02*
Y42953D01*
X74118Y37348D02*
X75785Y39016D01*
X74819Y42984D02*
Y46016D01*
X74181Y34583D02*
X78614Y39016D01*
X74118Y39019D02*
X77783Y35354D01*
X74118Y41651D02*
X74819D01*
X74118Y43005D02*
X74819Y43706D01*
X74118Y39451D02*
X74819D01*
X73100Y36181D02*
X74181D01*
X74581Y32155D02*
X76649Y34222D01*
X74581Y29326D02*
X76791Y31536D01*
X74181Y32644D02*
X74581D01*
Y30071D02*
X75553Y29099D01*
X74581Y28177D02*
Y32644D01*
X74181Y36128D02*
X76482Y33827D01*
X74181Y32644D02*
Y36181D01*
Y33299D02*
X78316Y29164D01*
X74118Y36992D02*
Y39451D01*
X73762Y36992D02*
X74118Y37348D01*
Y41651D02*
Y44110D01*
X73100Y36330D02*
X73762Y36992D01*
X73100Y36181D02*
Y36992D01*
X61882D02*
Y44110D01*
X62188Y36732D02*
X62448Y36992D01*
X62003D02*
X62263Y36732D01*
X73100Y36992D02*
X74118D01*
X73317D02*
X74128Y36181D01*
X62079Y28370D02*
Y32370D01*
Y36732D02*
X63160D01*
X62079Y32732D02*
Y36732D01*
Y32370D02*
Y32732D01*
Y32370D02*
Y32732D01*
X82819Y24047D02*
Y26419D01*
X81100Y23552D02*
X82819Y21833D01*
X81100Y24531D02*
X82819Y26250D01*
Y21100D02*
Y24016D01*
X81100Y21456D02*
Y26041D01*
X81033Y26419D02*
X82819D01*
X81061D02*
X82819Y24661D01*
X81100Y21703D02*
X82819Y23422D01*
X81456Y21100D02*
X82819D01*
X81100Y21456D02*
X81456Y21100D01*
X79456Y15900D02*
X80037D01*
X77557Y15459D02*
X78559D01*
X74581Y28177D02*
X75332Y28928D01*
X74202Y27798D02*
X74581Y28177D01*
X73222Y26778D02*
X73926Y27482D01*
X72900Y24963D02*
Y26000D01*
X71513Y27482D02*
X72904Y26091D01*
X71438Y21900D02*
X74577Y18761D01*
X75900Y21456D02*
Y21795D01*
X74899Y20455D02*
X75900Y21456D01*
X74577Y18224D02*
Y19677D01*
X72290Y18550D02*
X74561Y20821D01*
X80222Y13778D02*
X81305Y14860D01*
X79900Y10963D02*
Y13000D01*
X77433Y12379D02*
X80436Y15382D01*
X77879Y15459D02*
X79965Y13373D01*
X74487Y6605D02*
X79900Y12018D01*
X77732Y12778D02*
X79684Y10825D01*
X83162Y9623D02*
X83377Y9838D01*
X80930Y6751D02*
X86381Y1300D01*
X76386Y2847D02*
X80377Y6838D01*
X75002Y9850D02*
X83553Y1300D01*
X72574Y9450D02*
X80725Y1300D01*
X77963Y13604D02*
Y14396D01*
X77336Y10345D02*
X78751Y8930D01*
X77563Y11045D02*
Y11837D01*
X74986Y9850D02*
X76368D01*
X76195Y5484D02*
X78901Y8190D01*
X76374Y2822D02*
X77896Y1300D01*
X74839D02*
X75153Y1614D01*
X72011Y1300D02*
X72515Y1805D01*
X69419Y27482D02*
X73926D01*
X69000Y24100D02*
X72037D01*
X69419Y27482D02*
Y27970D01*
X69355Y24100D02*
X72737Y27482D01*
X68196Y27970D02*
X72048Y24119D01*
X65616Y27970D02*
X69419D01*
X65360Y22933D02*
X69908Y27482D01*
X65360Y27978D02*
X69238Y24100D01*
X69456Y21900D02*
X72037D01*
X70067Y18550D02*
X73610D01*
X69100Y18581D02*
X69318Y18363D01*
X69215Y18304D02*
X72365Y21454D01*
X69100Y21017D02*
X69983Y21900D01*
X69100Y21544D02*
X69456Y21900D01*
X69100Y21410D02*
X71960Y18550D01*
X69100Y18224D02*
Y21544D01*
X65360Y25150D02*
X67477Y23033D01*
X65616Y27970D02*
Y28370D01*
X67222Y22778D02*
X68222Y23778D01*
X62140Y28370D02*
X63160Y27350D01*
X62079Y28370D02*
X63160D01*
X65360Y25762D02*
X67568Y27970D01*
X65360Y16181D02*
Y28370D01*
X66900Y18077D02*
Y22000D01*
X66114Y16181D02*
Y16955D01*
X65360Y16665D02*
X65843Y16181D01*
X65360Y20105D02*
X66900Y21645D01*
X65360Y22321D02*
X66900Y20781D01*
X65360Y17277D02*
X66900Y18817D01*
X65360Y19493D02*
X66812Y18041D01*
X68983Y6758D02*
X71676Y9450D01*
X70067D02*
X73610D01*
X69613Y4559D02*
X74907Y9853D01*
X69704Y9492D02*
X72822Y6374D01*
X67309Y9450D02*
X68691D01*
X67047Y7650D02*
X68856Y9459D01*
X66962Y9406D02*
X71497Y4871D01*
X68115Y2596D02*
X69411Y1300D01*
X69478Y4061D02*
X72239Y1300D01*
X69182D02*
X71395Y3513D01*
X66354Y1300D02*
X67441Y2387D01*
X65843Y16181D02*
X66149Y15875D01*
X66181Y15100D02*
Y15769D01*
X63160Y16181D02*
Y28370D01*
X62181Y16181D02*
X63160D01*
X65360D02*
X66114D01*
X66581Y7617D02*
Y9093D01*
X62581Y7482D02*
X66071D01*
X63229D02*
X64596Y6115D01*
X63525Y1300D02*
X65242Y3017D01*
X60520Y100700D02*
X61283Y99937D01*
X59516D02*
X61484D01*
X60339D02*
X61102Y100700D01*
X57692D02*
X58653Y99739D01*
X56255Y98681D02*
X58274Y100700D01*
X54864D02*
X57533Y98031D01*
X56368Y95967D02*
X57531Y97129D01*
X61600Y89956D02*
X62456Y89100D01*
X59722Y88722D02*
X61222Y87222D01*
X59400Y89500D02*
Y90066D01*
X56110Y90968D02*
X61761Y85317D01*
X54900Y100154D02*
X55445Y100700D01*
X52254Y100337D02*
X52617Y100700D01*
X56368Y92047D02*
Y97953D01*
X52016Y100337D02*
X53984D01*
X52035Y100700D02*
X52398Y100337D01*
X49207Y100700D02*
X50299Y99607D01*
X56368Y93138D02*
X57531Y94301D01*
X56368Y93538D02*
X57531Y92375D01*
X56368Y96367D02*
X57531Y95204D01*
Y92047D02*
Y97953D01*
X52016Y89663D02*
X53984D01*
X57125Y82581D02*
X61543Y86999D01*
X59159Y82715D02*
X62222Y85778D01*
X61037Y80836D02*
X64101Y83900D01*
X61037Y81481D02*
X63456Y83900D01*
X54525Y89725D02*
X60347Y83903D01*
X54297Y82581D02*
X60080Y88364D01*
X51068Y82181D02*
X59015Y90127D01*
X51743Y89679D02*
X58966Y82455D01*
X61037Y80384D02*
X62256Y79165D01*
X61819D02*
X65159D01*
X61819Y78790D02*
X62195Y79165D01*
X61819Y72835D02*
Y79165D01*
X61037Y78008D02*
X61819Y78790D01*
X58518Y80075D02*
X58837Y79756D01*
X61037Y68181D02*
Y81481D01*
X58837Y68181D02*
Y81937D01*
X53356Y82181D02*
Y82581D01*
X58518D01*
X49819Y82181D02*
X53356D01*
X58518Y78581D02*
Y82581D01*
X49100Y83041D02*
X57598Y91539D01*
X49100Y83836D02*
X50755Y82181D01*
X49819Y78181D02*
Y82181D01*
X49100Y74000D02*
Y84000D01*
X58518Y81146D02*
X58837Y81464D01*
X58518Y78317D02*
X58837Y78636D01*
X58518Y77419D02*
Y78581D01*
Y77419D02*
Y78581D01*
X49100Y80213D02*
X49819Y80932D01*
X49100Y81008D02*
X49819Y80289D01*
Y77819D02*
Y78181D01*
Y77819D02*
Y78181D01*
X49025Y99937D02*
X49788Y100700D01*
X47016Y99937D02*
X48984D01*
X46378Y100700D02*
X47141Y99937D01*
X45679Y99419D02*
X46960Y100700D01*
X6828D02*
X112172D01*
X43550D02*
X45300Y98950D01*
X41969Y95709D02*
X45549Y99289D01*
X47016Y90063D02*
X48984D01*
X44674Y87100D02*
X47637Y90063D01*
X30963Y87100D02*
X46000D01*
X39017D02*
X45031Y93115D01*
X41765Y91171D02*
X45836Y87100D01*
X41845D02*
X45505Y90760D01*
X41900Y98469D02*
X44131Y100700D01*
X40478Y99875D02*
X41303Y100700D01*
X40721D02*
X45031Y96390D01*
X41969Y92047D02*
Y97953D01*
X38016Y99937D02*
X39984D01*
X37893Y100700D02*
X38656Y99937D01*
X37684Y99909D02*
X38475Y100700D01*
X45031Y92047D02*
Y97953D01*
X41969Y92880D02*
X45031Y95943D01*
X41969Y96624D02*
X45031Y93562D01*
X40044Y90064D02*
X43008Y87100D01*
X38016Y90063D02*
X39984D01*
X36801Y90478D02*
X40179Y87100D01*
X36188D02*
X39151Y90063D01*
X46979Y86577D02*
X50561Y90159D01*
X48393Y85163D02*
X52893Y89663D01*
X48530Y90063D02*
X56012Y82581D01*
X46778Y86778D02*
X48778Y84778D01*
X30963Y84900D02*
X45544D01*
X43439Y83037D02*
X45302Y84900D01*
X41969Y93796D02*
X53356Y82409D01*
X42379Y84900D02*
X46900Y80379D01*
X46577Y80518D02*
X46900Y80841D01*
Y75100D02*
Y83544D01*
X46581Y75356D02*
Y80518D01*
X45208Y84900D02*
X46900Y83208D01*
X45544Y84900D02*
X46900Y83544D01*
X43749Y80518D02*
X46837Y83607D01*
X43197Y80518D02*
X46581D01*
X42020Y84446D02*
X42474Y84900D01*
X39551D02*
X39998Y84453D01*
X37692Y82947D02*
X39645Y84900D01*
X36722D02*
X38568Y83054D01*
X37795Y80518D02*
Y82461D01*
X38092Y80518D02*
X38554Y80980D01*
X43453Y80998D02*
X43933Y80518D01*
X37795D02*
X38803D01*
X37795Y80999D02*
X38276Y80518D01*
X37751Y80178D02*
X38092Y80518D01*
X61037Y75179D02*
X61819Y75961D01*
X61037Y74727D02*
X61819Y73946D01*
X61037Y77556D02*
X61819Y76774D01*
Y72835D02*
X62900D01*
X61037Y72351D02*
X61819Y73133D01*
X58518Y75489D02*
X58837Y75808D01*
X58518Y77246D02*
X58837Y76928D01*
X58518Y72660D02*
X58837Y72979D01*
X58518Y74418D02*
X58837Y74099D01*
X61037Y71899D02*
X63220Y69717D01*
X61819D02*
X66181D01*
X58518Y69832D02*
X58837Y70151D01*
X61037Y69522D02*
X63018Y71504D01*
X61037Y69071D02*
X61819Y68289D01*
X58518Y71590D02*
X58837Y71271D01*
X54378Y69419D02*
X58518D01*
X57860D02*
X58837Y68442D01*
X58105Y69419D02*
X58518Y69832D01*
Y74581D02*
Y77419D01*
Y73419D02*
Y74581D01*
Y69419D02*
Y73419D01*
Y74581D01*
X49819Y73819D02*
Y74181D01*
Y77819D01*
Y69819D02*
Y73819D01*
Y74181D01*
X55032Y69419D02*
X56270Y68181D01*
X57756D02*
X58181D01*
X56867D02*
X58105Y69419D01*
X49819Y69819D02*
X50900D01*
X49760Y69559D02*
X50020Y69819D01*
X54378Y68181D02*
X57756D01*
X54378Y68520D02*
X55277Y69419D01*
X61819Y68181D02*
Y69717D01*
X61037Y68181D02*
X61819D01*
X58181D02*
X58837D01*
Y63393D02*
Y63819D01*
X58181D02*
X58837D01*
X57756D02*
X58181D01*
X57756Y68181D02*
X58181D01*
X57803Y63819D02*
X58533Y63089D01*
X57756Y63819D02*
X58181D01*
X61819Y63386D02*
Y63819D01*
Y63386D02*
X62227D01*
X61037Y63819D02*
X61819D01*
X61037Y63414D02*
X61836Y62615D01*
X61037Y62937D02*
Y63819D01*
X55222Y59778D02*
X58837Y63393D01*
X54378Y62863D02*
X55334Y63819D01*
X54378D02*
X57756D01*
X54378Y62441D02*
Y63819D01*
Y60035D02*
X58162Y63819D01*
X54975D02*
X57119Y61675D01*
X53956Y62441D02*
X54378Y62863D01*
Y68181D02*
Y69419D01*
X50786Y62100D02*
X51127Y62441D01*
X50696D02*
X51038Y62099D01*
X52535Y61020D02*
X53956Y62441D01*
X53525D02*
X55705Y60261D01*
X53095Y60110D02*
X54378D01*
X49622Y62441D02*
X54378D01*
X51778Y61778D02*
X52778Y60778D01*
X49100Y78179D02*
X49819Y77460D01*
X49100Y77384D02*
X49819Y78103D01*
X46581Y77870D02*
X46900Y77551D01*
X49100Y74556D02*
X49819Y75275D01*
X49100Y75351D02*
X49819Y74632D01*
X46581Y77694D02*
X46900Y78013D01*
X46181Y75356D02*
X46581D01*
X46181Y72900D02*
X46900D01*
X46181Y75100D02*
X46900D01*
X49100Y71727D02*
X49819Y72446D01*
X49622Y69559D02*
X50900D01*
X49100Y72522D02*
X49819Y71803D01*
X49100Y68899D02*
X49622Y69421D01*
X49100Y69694D02*
X49622Y69172D01*
X46181Y72613D02*
X46900Y71894D01*
X42142Y69559D02*
X46898D01*
X44103D02*
X46900Y72356D01*
X46407Y69559D02*
X46898Y69068D01*
X46266Y75356D02*
X46522Y75100D01*
X37819Y71819D02*
Y72900D01*
X46181Y71819D02*
Y72900D01*
X38119Y69232D02*
X40706Y71819D01*
X35661D02*
X38336Y69144D01*
X35338Y69279D02*
X37878Y71819D01*
X41819D02*
X42181D01*
X46181D01*
X41819D02*
X42181D01*
X44147D02*
X46407Y69559D01*
X41318Y71819D02*
X43578Y69559D01*
X38490Y71819D02*
X42142Y68167D01*
X37819Y71819D02*
X41819D01*
X38976Y67261D02*
X43535Y71819D01*
X49100Y64037D02*
X49622Y63515D01*
X49100Y63242D02*
X49622Y63764D01*
X49100Y66071D02*
X49622Y66593D01*
Y62441D02*
Y69559D01*
X49100Y62456D02*
X49456Y62100D01*
X49100Y66866D02*
X49622Y66344D01*
X49100Y62456D02*
Y74000D01*
X46900Y62000D02*
Y72900D01*
X46898Y62441D02*
Y69559D01*
X49456Y62100D02*
X51000D01*
X47222Y61222D02*
X47934Y60510D01*
X46368D02*
X47154Y61296D01*
X45039Y62441D02*
X46970Y60510D01*
X42142Y62441D02*
X46898D01*
X45482Y60510D02*
X47934D01*
X45482Y60110D02*
Y60510D01*
X42142Y62441D02*
Y69559D01*
X39318Y64774D02*
X42142Y67598D01*
X38976Y65912D02*
Y68088D01*
X39366Y61994D02*
X42142Y64769D01*
X39376Y62172D02*
Y64347D01*
X38841Y68639D02*
X42142Y65339D01*
X38956Y65695D02*
X42142Y62510D01*
X43140Y60110D02*
X45470Y62441D01*
X42142Y60110D02*
X45482D01*
X42211Y62441D02*
X44542Y60110D01*
X39376Y59175D02*
X42642Y62441D01*
X39376Y62447D02*
X42142Y59682D01*
X35266Y100320D02*
X35646Y100700D01*
X35065D02*
X35480Y100285D01*
X32364Y100246D02*
X32818Y100700D01*
X33016Y100337D02*
X34984D01*
X32236Y100700D02*
X32630Y100306D01*
X33016Y89663D02*
X34984D01*
X34788D02*
X37351Y87100D01*
X33360D02*
X36359Y90099D01*
X30792Y87361D02*
X33094Y89663D01*
X31168Y90455D02*
X34522Y87100D01*
X28731Y90063D02*
X31694Y87100D01*
X29226Y99937D02*
X29989Y100700D01*
X29408D02*
X30180Y99927D01*
X28016Y99937D02*
X29984D01*
X26579Y100700D02*
X27430Y99849D01*
X23751Y100700D02*
X26077Y98374D01*
X20922Y100700D02*
X26032Y95591D01*
X15266Y100700D02*
X27967Y87999D01*
X18094Y100700D02*
X26032Y92763D01*
X28016Y90063D02*
X29984D01*
X26032Y92047D02*
Y97953D01*
X28848Y88245D02*
X30879Y90276D01*
X19218Y87100D02*
X26032Y93914D01*
X16389Y87100D02*
X26032Y96742D01*
X24874Y87100D02*
X27845Y90070D01*
X22046Y87100D02*
X26198Y91252D01*
X33894Y84900D02*
X35133Y83661D01*
X35578D02*
X36817Y84900D01*
X32692Y83604D02*
X33988Y84900D01*
X31066D02*
X32463Y83503D01*
X26960Y83529D02*
X27639Y84208D01*
X27369Y81109D02*
X31160Y84900D01*
X29359Y83779D02*
X30796Y82341D01*
X33059Y83661D02*
X36595D01*
X31669Y82580D02*
X31916Y82827D01*
X31480Y82580D02*
X31864D01*
X29222Y80778D02*
X30702Y82258D01*
X27254Y83055D02*
X29377Y80932D01*
X22580Y84900D02*
X23419Y84061D01*
X24664D02*
X25503Y84900D01*
X19752D02*
X20405Y84247D01*
X25409Y84900D02*
X26362Y83947D01*
X21767Y83992D02*
X22674Y84900D01*
X19540Y84594D02*
X19846Y84900D01*
X16924D02*
X17584Y84240D01*
X14095Y84900D02*
X16414Y82581D01*
X27369Y80500D02*
Y82461D01*
X22232Y84061D02*
X25768D01*
X12358Y97211D02*
X15847Y100700D01*
X12251Y94275D02*
X18676Y100700D01*
X11295Y98976D02*
X13019Y100700D01*
X10875Y87243D02*
X24332Y100700D01*
X11969Y91164D02*
X21504Y100700D01*
X8016Y99369D02*
X9984D01*
X6780Y100700D02*
X8112Y99369D01*
X9609Y100700D02*
X11424Y98885D01*
X8859Y99369D02*
X10190Y100700D01*
X12369Y95016D02*
Y96984D01*
X11969Y90016D02*
Y91984D01*
X4477Y100175D02*
X6165Y98487D01*
X2832Y98992D02*
X5632Y96192D01*
Y95016D02*
Y96984D01*
X1300Y94638D02*
X7362Y100700D01*
X1717Y97278D02*
X6203Y92792D01*
X1300Y91810D02*
X5632Y96141D01*
X3789Y88642D02*
X6032Y90884D01*
Y90016D02*
Y91984D01*
X5862Y87886D02*
X6600Y88625D01*
X1300Y94867D02*
X6032Y90135D01*
X1300Y88981D02*
X6024Y93705D01*
X1300Y92038D02*
X4817Y88521D01*
X1300Y89210D02*
X2399Y88111D01*
X11885Y98424D02*
X23209Y87100D01*
X12369Y95112D02*
X20380Y87100D01*
X11963Y89861D02*
X14724Y87100D01*
X13561D02*
X27161Y100700D01*
X12437D02*
X26037Y87100D01*
X10792Y88203D02*
X11895Y87100D01*
X10963D02*
X27037D01*
X11736Y92915D02*
X17552Y87100D01*
X11267Y84900D02*
X16495Y79672D01*
X10963Y84900D02*
X27037D01*
X10100Y83238D02*
X15797Y77541D01*
X10100Y75154D02*
X16406Y81460D01*
X10100Y72000D02*
Y84037D01*
Y83639D02*
X11361Y84900D01*
X10100Y77982D02*
X17018Y84900D01*
X10100Y80811D02*
X14189Y84900D01*
X6521Y86817D02*
X6812Y86526D01*
X6111Y84399D02*
X7900Y82610D01*
X1300Y83324D02*
X2114Y84138D01*
X4313Y83368D02*
X7900Y79781D01*
X6456Y79995D02*
X7900Y81439D01*
X5061Y81428D02*
X7757Y84124D01*
X7900Y72456D02*
Y84037D01*
X1300Y80496D02*
X4159Y83355D01*
X1300Y83553D02*
X3298Y81555D01*
X1300Y80725D02*
X1703Y80322D01*
X36664Y79301D02*
X37419Y78547D01*
X33755Y76181D02*
X36917Y79343D01*
X37419Y75853D02*
Y79627D01*
X33838Y79299D02*
X37043Y76094D01*
X33059Y79299D02*
X36595D01*
X31100Y79209D02*
X34128Y76181D01*
X31100Y76355D02*
X34044Y79299D01*
X36583Y76181D02*
X37419Y77017D01*
X33059Y76181D02*
X36595D01*
X33059Y71819D02*
X36595D01*
X31100Y76380D02*
X31978Y75503D01*
X31100Y70698D02*
X32411Y72009D01*
X31100Y79544D02*
X31872Y80317D01*
X31100Y79183D02*
X31952Y80035D01*
X27330Y80151D02*
X28900Y78580D01*
X26969Y77683D02*
X28900Y75752D01*
X26969Y76760D02*
Y78720D01*
Y77880D02*
X28900Y79812D01*
X26967Y75050D02*
X28900Y76983D01*
X31858Y73020D02*
Y74980D01*
X31100Y73526D02*
X31858Y74285D01*
X26969Y73020D02*
Y74980D01*
X31100Y73552D02*
X31885Y72767D01*
X26969Y74855D02*
X28900Y72923D01*
X25100Y71819D02*
X25768D01*
X25100Y70355D02*
X28900Y74155D01*
X32806Y71846D02*
X35372Y69279D01*
X33444D02*
X37784D01*
X31893Y68663D02*
X35049Y71819D01*
X31100Y70723D02*
X32760Y69064D01*
X31100Y69456D02*
X32269Y68287D01*
X25100Y71067D02*
X31852Y64315D01*
Y62172D02*
Y64347D01*
X27362Y65976D02*
X32020Y61318D01*
X27224Y61165D02*
X31960Y65901D01*
X28900Y69000D02*
Y80000D01*
X31100Y69456D02*
Y79544D01*
X26719Y69146D02*
X28900Y71326D01*
X26714Y72281D02*
X28900Y70095D01*
X25100Y69279D02*
Y71819D01*
Y69279D02*
X26170D01*
X27362Y66960D02*
X28983Y68581D01*
X29222Y68222D02*
X31222Y66222D01*
X27362Y65912D02*
Y68088D01*
Y64132D02*
X30337Y67107D01*
X27362Y62172D02*
Y64347D01*
X19672Y76494D02*
X21040Y75126D01*
X19963Y76900D02*
X21032D01*
X17541Y75797D02*
X22900Y70438D01*
X10100Y72325D02*
X15750Y77976D01*
X12949Y69518D02*
X20331Y76900D01*
X10121Y69518D02*
X16739Y76136D01*
X22232Y71819D02*
X22900D01*
X21032Y73020D02*
Y74980D01*
X22900Y69279D02*
Y71819D01*
X21830Y69279D02*
X22900D01*
X10100Y74753D02*
X15335Y69518D01*
X11419D02*
X12581D01*
X15778D02*
X21032Y74772D01*
X12581Y69518D02*
X16581D01*
X6555Y78298D02*
X7900Y76953D01*
X5322Y76703D02*
X7900Y74124D01*
X1300Y74839D02*
X3005Y76544D01*
X1300Y77668D02*
X1572Y77939D01*
X1300Y72011D02*
X7900Y78611D01*
X1300Y77896D02*
X7320Y71876D01*
X8876Y70320D02*
X9678Y69518D01*
X11419D02*
X12581D01*
X10098Y71927D02*
X12506Y69518D01*
X5222Y69778D02*
X7900Y72456D01*
X1300Y75068D02*
X5906Y70462D01*
X8074Y69518D02*
X11419D01*
X8074D02*
X9778Y71222D01*
X10100Y77581D02*
X18484Y69197D01*
X18316Y69228D02*
X21323Y72235D01*
X16581Y68746D02*
Y69518D01*
X20017Y68100D02*
X22900Y70983D01*
X10100Y80410D02*
X21337Y69173D01*
X1300Y69182D02*
X7900Y75782D01*
X7419Y68863D02*
X8074Y69518D01*
X1300Y66354D02*
X7900Y72954D01*
X19963Y68100D02*
X20638D01*
X7819Y60819D02*
Y61581D01*
X7419Y65137D02*
X7819Y64737D01*
Y61581D02*
Y62160D01*
X7100Y68544D02*
X7419Y68863D01*
X7100Y65456D02*
Y68544D01*
X7419Y65137D02*
Y68863D01*
X4900Y65000D02*
Y69000D01*
X1300Y72239D02*
X4900Y68639D01*
X1300Y63525D02*
X4900Y67125D01*
X1300Y69411D02*
X4900Y65811D01*
X7100Y66439D02*
X7419Y66120D01*
X7100Y65456D02*
X7419Y65137D01*
X7100Y66497D02*
X7419Y66816D01*
X5222Y64222D02*
X6962Y62482D01*
X1300Y66582D02*
X7679Y60204D01*
X1300Y60697D02*
X5049Y64447D01*
X60089Y61533D02*
X62900Y58722D01*
X58675Y60119D02*
X61888Y56906D01*
X57261Y58705D02*
X62407Y53559D01*
X58187Y52530D02*
X61750Y56093D01*
X57100Y57100D02*
X61763Y61763D01*
X57100Y57100D02*
X61763Y61763D01*
X57100Y58544D02*
X60715Y62159D01*
X57100Y54272D02*
X62878Y60050D01*
X57100Y53963D02*
Y58544D01*
X61882Y53559D02*
X62900D01*
X58249Y52060D02*
X61882Y48427D01*
X57100Y47000D02*
Y50037D01*
X61882Y46441D02*
X65622D01*
X61882D02*
Y53559D01*
X57100Y56037D02*
X61882Y51255D01*
X57100Y48615D02*
X61882Y53397D01*
X54378Y54378D02*
X54900Y54900D01*
Y53963D02*
Y59000D01*
X54378Y54378D02*
X54900Y54900D01*
X54378Y57206D02*
X54900Y57728D01*
X54378Y58759D02*
X54900Y58237D01*
X54378Y55931D02*
X54900Y55409D01*
X54378Y53559D02*
Y60110D01*
X54900Y47456D02*
Y50037D01*
X51660Y52992D02*
X54900Y49752D01*
X51038Y52992D02*
X53981D01*
X51038Y52592D02*
Y52992D01*
X50585Y50585D02*
X52992Y52992D01*
X50585Y50585D02*
X52992Y52992D01*
X57310Y50170D02*
X63370Y44110D01*
X61882D02*
X65222D01*
X56190Y45634D02*
X61882Y39942D01*
X57100Y47552D02*
X61882Y42770D01*
X54821Y40679D02*
X61882Y47740D01*
X53126Y41813D02*
X61882Y50568D01*
X54970Y38000D02*
X63411Y46441D01*
X54775Y44220D02*
X61882Y37113D01*
X55085Y38254D02*
X62079Y31259D01*
X61882Y36992D02*
X63160D01*
X55181Y32553D02*
X61882Y39255D01*
X55170Y32511D02*
X63160Y24521D01*
X55253Y26969D02*
X62079Y33795D01*
X53240Y42926D02*
X62079Y34088D01*
X54676Y34877D02*
X61882Y42083D01*
X53710Y36800D02*
X62079Y28431D01*
X54515Y29059D02*
X62079Y36623D01*
X53778Y43222D02*
X56778Y46222D01*
X52544Y45100D02*
X54900Y47456D01*
X50757Y45100D02*
X54900Y49243D01*
X50304Y48691D02*
X53220Y45775D01*
X50438Y42900D02*
X51655Y41683D01*
X52825Y35854D02*
X53827Y36856D01*
X49413Y52242D02*
X49764Y52592D01*
X48551D02*
X51038D01*
X49231D02*
X54634Y47190D01*
X45482Y52592D02*
X47449D01*
X37438Y55900D02*
X48238Y45100D01*
X47928D02*
X53935Y51107D01*
X48718Y47449D02*
X51067Y45100D01*
X37100D02*
X52544D01*
X45100D02*
X47415Y47415D01*
X37100Y42900D02*
X53000D01*
X45100Y45100D02*
X47415Y47415D01*
X42142Y58100D02*
Y60110D01*
X41129Y58100D02*
X42142Y59112D01*
X39341Y58100D02*
X42142D01*
Y52992D02*
Y55900D01*
X40267D02*
X42142Y54025D01*
X24351Y55900D02*
X42142D01*
X34707Y48849D02*
X41758Y55900D01*
X34610D02*
X45410Y45100D01*
X31781Y55900D02*
X42581Y45100D01*
X46403Y52592D02*
X46691Y52304D01*
X46582Y52238D02*
X46935Y52592D01*
X45482D02*
Y52992D01*
X42272Y45100D02*
X45758Y48587D01*
X43174Y52992D02*
X45449Y50718D01*
X42142Y52992D02*
X45482D01*
X36121Y47435D02*
X42142Y53455D01*
X39443Y45100D02*
X45762Y51418D01*
X37100Y45585D02*
X44507Y52992D01*
X47610Y42900D02*
X49109Y41401D01*
X49529Y41044D02*
X51385Y42900D01*
X47518Y41861D02*
X48557Y42900D01*
X49866Y37815D02*
X51913Y35768D01*
X49802Y40707D02*
X50201Y40308D01*
X49354Y35212D02*
X51148Y37005D01*
X48220Y36633D02*
X50318Y34535D01*
X49989Y32036D02*
X52195Y29829D01*
X47132Y35818D02*
X47891Y36577D01*
X44179Y41351D02*
X45728Y42900D01*
X44781D02*
X46217Y41464D01*
X41953Y42900D02*
X43022Y41831D01*
X41700Y41700D02*
X42900Y42900D01*
X41700Y41700D02*
X42900Y42900D01*
X44584Y37440D02*
X46437Y35587D01*
X43973Y35488D02*
X45783Y37297D01*
X42633Y36563D02*
X43478Y35718D01*
X40816Y35159D02*
X42245Y36588D01*
X37100Y33611D02*
X41235Y29476D01*
X55231Y26794D02*
X63160Y18865D01*
X56163Y19393D02*
X63160Y26390D01*
X54748Y20807D02*
X62311Y28370D01*
X58608Y16181D02*
X63160Y20733D01*
X57435Y17837D02*
X63160Y23562D01*
X53937Y30916D02*
X63160Y21693D01*
X53334Y22221D02*
X62079Y30966D01*
X54146Y25050D02*
X63015Y16181D01*
X51606Y24762D02*
X60186Y16181D01*
X61436D02*
X63160Y17905D01*
X61819Y16181D02*
X62181D01*
X57819D02*
X61819D01*
X62181D01*
X57819Y15324D02*
Y16181D01*
X57451Y16088D02*
X57819Y15720D01*
X57451Y15719D02*
Y17649D01*
X52487Y29860D02*
X53273Y30646D01*
X49162Y29363D02*
X50950Y31151D01*
X48556Y23100D02*
X50768Y25312D01*
X48730Y24809D02*
X50439Y23100D01*
X52778Y22778D02*
X57129Y18426D01*
X51900Y17963D02*
Y18544D01*
X51384Y23100D02*
X52858Y24574D01*
X50744Y19700D02*
X51900Y18544D01*
X49047Y17934D02*
X50779Y19666D01*
X57419Y7482D02*
Y12254D01*
Y7482D02*
X61419D01*
X57768Y6856D02*
X58394Y7482D01*
X49581Y4326D02*
X57419Y12164D01*
X55040Y1300D02*
X61222Y7482D01*
X61419D02*
X62581D01*
X57869Y1300D02*
X64051Y7482D01*
X61419D02*
X62581D01*
X60400D02*
X66582Y1300D01*
X60697D02*
X64350Y4953D01*
X56372Y3025D02*
X58097Y1300D01*
X57572Y7482D02*
X63754Y1300D01*
X57863Y4362D02*
X60926Y1300D01*
X56129Y11754D02*
X57419Y10463D01*
X56164Y8081D02*
X57419Y9336D01*
X49581Y7155D02*
X54637Y12210D01*
X49181Y10216D02*
X52984Y6413D01*
X49181Y9583D02*
X53380Y13782D01*
X48951Y12181D02*
X51298Y14528D01*
X49028Y16026D02*
X57419Y7635D01*
X49181Y8644D02*
Y12181D01*
X52212Y1300D02*
X54144Y3232D01*
X49581Y4159D02*
X52440Y1300D01*
X49581Y3482D02*
Y8644D01*
X49181D02*
X49581D01*
Y6988D02*
X55269Y1300D01*
X49383D02*
X52920Y4836D01*
X48486Y30710D02*
X50452Y28744D01*
X46652Y29682D02*
X47534Y30564D01*
X44739Y31629D02*
X46676Y29691D01*
X43749Y29607D02*
X45615Y31473D01*
X44727Y28812D02*
X45211Y28329D01*
X46256Y19700D02*
X50744D01*
X45727Y23100D02*
X47220Y24592D01*
X47482Y19198D02*
X47984Y19700D01*
X45805Y19249D02*
X46026Y19028D01*
X42000Y23100D02*
X52000D01*
X42899D02*
X45463Y25664D01*
X44877Y25834D02*
X47611Y23100D01*
X44391Y17835D02*
X44792Y17433D01*
X42955Y30585D02*
X44214Y29325D01*
X43244Y24638D02*
X44782Y23100D01*
X37100Y25786D02*
X41959Y30645D01*
X37100Y27954D02*
X41955Y23099D01*
X37576Y20606D02*
X41697Y24726D01*
X42456Y20900D02*
X44344D01*
X41891Y20335D02*
X42835Y19390D01*
X41222Y17778D02*
X44344Y20900D01*
X39778Y18222D02*
X42456Y20900D01*
X38544Y20100D02*
X41222Y22778D01*
X40161Y17534D02*
X43527Y20900D01*
X40476Y18921D02*
X41421Y17976D01*
X48182Y19700D02*
X50951Y16931D01*
X48100Y14159D02*
X51032Y17091D01*
X48100Y14126D02*
X54322Y7904D01*
X48100Y12181D02*
Y15037D01*
X43100Y16544D02*
X46256Y19700D01*
X43294Y12181D02*
X45900Y14787D01*
X43100Y16297D02*
X45900Y13497D01*
X48100Y12181D02*
X49181D01*
X47430Y3482D02*
X49612Y1300D01*
X46555D02*
X48737Y3482D01*
X44419D02*
X49581D01*
X43727Y1300D02*
X45908Y3482D01*
X22000Y1300D02*
X112550Y1300D01*
X44601Y3482D02*
X46783Y1300D01*
X43100Y14816D02*
X44802Y16518D01*
X43100Y14000D02*
Y16544D01*
X45900Y12181D02*
Y15037D01*
X43008Y13560D02*
X44388Y12181D01*
X41737D02*
X44819D01*
X41737D02*
X42778Y13222D01*
X44819Y12181D02*
X45181D01*
X45900D01*
X44819D02*
X45181D01*
X44419Y3482D02*
Y3882D01*
X44201D02*
X44419Y3664D01*
X41000Y3882D02*
X44419D01*
X38614Y3813D02*
X41126Y1300D01*
X41373Y3882D02*
X43955Y1300D01*
X40898D02*
X43480Y3882D01*
X39376Y58432D02*
Y60607D01*
X31852Y58432D02*
Y60607D01*
X39376Y59619D02*
X40895Y58100D01*
X27362Y58475D02*
X31852Y62965D01*
X27315Y58100D02*
X31887D01*
X27362Y63148D02*
X31852Y58658D01*
X30398Y53026D02*
X33273Y55900D01*
X29816Y58100D02*
X31852Y60136D01*
X31878Y51677D02*
X36101Y55900D01*
X33292Y50263D02*
X38929Y55900D01*
X30778Y52778D02*
X36778Y46778D01*
X29544Y50900D02*
X31984Y48461D01*
X27362Y60319D02*
X29581Y58100D01*
X27362Y58432D02*
Y60607D01*
X21830Y57240D02*
X22906D01*
X21956D02*
X26096Y53100D01*
X19159D02*
X22985Y56927D01*
X26125Y55900D02*
X28925Y53100D01*
X27644D02*
X30444Y55900D01*
X24816Y53100D02*
X27616Y55900D01*
X28296Y50900D02*
X30580Y48616D01*
X25468Y50900D02*
X28837Y47531D01*
X23222Y56574D02*
X23574Y56222D01*
X21987Y53100D02*
X24787Y55900D01*
X37100Y45100D02*
Y46000D01*
X34900Y44000D02*
Y45544D01*
X33616Y45580D02*
X34900Y44296D01*
Y20963D02*
Y44000D01*
X32531Y43837D02*
X34900Y41468D01*
X28953Y55900D02*
X39753Y45100D01*
X29989Y43551D02*
X34900Y38639D01*
X22113Y30599D02*
X34900Y43385D01*
X19811Y50900D02*
X34900Y35811D01*
X39125Y42900D02*
X40842Y41183D01*
X37100Y37100D02*
X40127Y40127D01*
X37100Y42096D02*
X39964Y39232D01*
X37100Y39268D02*
X41030Y35337D01*
X37100Y37100D02*
X40127Y40127D01*
X37100Y39928D02*
X40072Y42900D01*
X25325Y39729D02*
X34900Y30154D01*
X37100Y20963D02*
Y42900D01*
X22518Y28175D02*
X34900Y40557D01*
X33461Y46984D02*
X34900Y45544D01*
X23744Y43543D02*
X30323Y50122D01*
X22639Y50900D02*
X28551Y44989D01*
X19023Y41650D02*
X28273Y50900D01*
X33181Y44495D02*
X34565Y45879D01*
X25317Y42287D02*
X28421Y45391D01*
X20317Y31631D02*
X32505Y43819D01*
X15984Y58420D02*
X20638D01*
X16702Y53472D02*
X20908Y57677D01*
X15984Y56819D02*
Y58420D01*
X17948D02*
X23268Y53100D01*
X15984Y57555D02*
X20439Y53100D01*
X14620Y54218D02*
X18822Y58420D01*
X12447Y56819D02*
X15984D01*
X1300Y58097D02*
X14960Y44437D01*
X1300Y43726D02*
X14392Y56819D01*
X16963Y53100D02*
X30000D01*
X16963Y50900D02*
X29544D01*
X13892Y56819D02*
X17611Y53100D01*
X18126Y43582D02*
X25444Y50900D01*
X16343Y44628D02*
X22616Y50900D01*
X11463Y56419D02*
X13913Y53970D01*
X12562Y43675D02*
X19787Y50900D01*
X11343Y45284D02*
X16091Y50032D01*
X7679Y56419D02*
Y61581D01*
X12447Y56419D02*
Y56819D01*
X1300Y49383D02*
X8336Y56419D01*
X1300Y63754D02*
X7679Y57375D01*
X1300Y57869D02*
X6438Y63007D01*
X1300Y52212D02*
X7679Y58591D01*
X1300Y55040D02*
X7679Y61419D01*
X8635Y56419D02*
X12768Y52286D01*
X6052Y45649D02*
X12782Y52380D01*
X7679Y56419D02*
X12447D01*
X7986Y44755D02*
X13528Y50298D01*
X1300Y46783D02*
X3725Y44359D01*
X1300Y46555D02*
X11164Y56419D01*
X1300Y49612D02*
X5344Y45568D01*
X1300Y55269D02*
X11212Y45357D01*
X1300Y52440D02*
X8533Y45207D01*
X16982Y50900D02*
X34900Y32982D01*
X17214Y31356D02*
X29605Y43747D01*
X15286Y49768D02*
X21729Y43325D01*
X1300Y60926D02*
X20462Y41763D01*
X12207Y41533D02*
X27752Y25989D01*
X10512Y40400D02*
X19344Y31568D01*
X7359Y40725D02*
X16477Y31607D01*
X1300Y26756D02*
X14418Y39874D01*
X4197Y41058D02*
X14258Y30997D01*
X12357Y44212D02*
X13553Y43016D01*
X1300Y43955D02*
X4058Y41197D01*
X1300Y26000D02*
Y95172D01*
Y32413D02*
X9325Y40437D01*
X1300Y35241D02*
X6447Y40388D01*
X1300Y38070D02*
X4245Y41015D01*
X1300Y40898D02*
X3351Y42948D01*
X1300Y29584D02*
X13372Y41657D01*
X1300Y41126D02*
X10980Y31446D01*
X37100Y22958D02*
X40220Y26077D01*
X37100Y25126D02*
X40335Y21891D01*
X37100Y30782D02*
X40040Y27842D01*
X37100Y22297D02*
X38921Y20476D01*
X37100Y34272D02*
X40476Y37647D01*
X37100Y36439D02*
X39986Y33553D01*
X37100Y31443D02*
X40668Y35011D01*
X37100Y28615D02*
X40339Y31854D01*
X40900Y14456D02*
Y17000D01*
X40453Y14997D02*
X40900Y15444D01*
X40649Y15920D02*
X40900Y15669D01*
X40044Y14313D02*
X40757D01*
X37963Y20100D02*
X38544D01*
X28238Y22582D02*
X34900Y29243D01*
X28463Y19978D02*
X34900Y26415D01*
X28242Y25413D02*
X34900Y32072D01*
X27499Y16185D02*
X34900Y23586D01*
X27988Y25752D02*
X33909Y19831D01*
X26585Y26585D02*
X34900Y34900D01*
X26585Y26585D02*
X34900Y34900D01*
X28273Y22638D02*
X35394Y15517D01*
X28609Y14467D02*
X33871Y19729D01*
X35000Y14313D02*
X35956D01*
X27078Y21421D02*
X27418Y21762D01*
X35442Y9813D02*
X36942Y8313D01*
X35000Y9813D02*
X40819D01*
X35000Y10255D02*
X35442Y9813D01*
X38270D02*
X39770Y8313D01*
X36597D02*
X38097Y9813D01*
X28646Y8846D02*
X35383Y15584D01*
X28607Y19477D02*
X35000Y13083D01*
X26756Y1300D02*
X35269Y9813D01*
X28502Y5874D02*
X35000Y12373D01*
X40819Y8313D02*
Y9813D01*
X41000Y7819D02*
Y8244D01*
X39426Y8313D02*
X40819Y9706D01*
X38070Y1300D02*
X40583Y3813D01*
X35785D02*
X38298Y1300D01*
X35000Y3813D02*
X41000D01*
X35000Y8313D02*
X40819D01*
X35241Y1300D02*
X37754Y3813D01*
X28537Y8233D02*
X35470Y1300D01*
X27997Y17258D02*
X35000Y10255D01*
Y9813D02*
Y14313D01*
X27859Y10888D02*
X34394Y17424D01*
X28641Y13785D02*
X35000Y7426D01*
X27662Y11936D02*
X35000Y4598D01*
Y3813D02*
Y8313D01*
X28632Y5309D02*
X32641Y1300D01*
X27929Y3183D02*
X29813Y1300D01*
X32413D02*
X35000Y3887D01*
X29584Y1300D02*
X35000Y6716D01*
X25934Y2351D02*
X26984Y1300D01*
X23763Y38462D02*
X34900Y27325D01*
X11846Y31646D02*
X17229Y37028D01*
X13889Y30859D02*
X19412Y36382D01*
X22568Y28344D02*
X24638Y26273D01*
X20343Y26000D02*
X20825Y26482D01*
X18196Y27058D02*
X19255Y26000D01*
X1300Y26000D02*
X22000Y26000D01*
X17515Y26000D02*
X18401Y26887D01*
X3373Y26000D02*
X16350Y38978D01*
X6201Y26000D02*
X9354Y29153D01*
X1300Y35470D02*
X10770Y26000D01*
X1300Y38298D02*
X9561Y30037D01*
X1300Y32641D02*
X7941Y26000D01*
X1300Y29813D02*
X5113Y26000D01*
X13037Y26561D02*
X13598Y26000D01*
X16075Y26351D02*
X16427Y26000D01*
X14686D02*
X15170Y26483D01*
X1300Y26984D02*
X2284Y26000D01*
X11858Y26000D02*
X12217Y26359D01*
X9029Y26000D02*
X10141Y27112D01*
X21437Y37960D02*
X34900Y24497D01*
X22000Y24828D02*
X34900Y37728D01*
X20016Y36553D02*
X34900Y21669D01*
X22000Y19172D02*
X24587Y21758D01*
X23927Y1300D02*
X25126Y2498D01*
X22000Y23255D02*
X24258Y20997D01*
X22000Y16343D02*
X23579Y17922D01*
X22000Y20426D02*
X23351Y19075D01*
X22000Y17598D02*
X23936Y15662D01*
X22000Y13515D02*
X23592Y15107D01*
X21359Y26725D02*
X23431Y24652D01*
X22000Y22000D02*
X23415Y23415D01*
X22000Y22000D02*
X23415Y23415D01*
X22000Y26000D02*
X22000Y1300D01*
Y9113D02*
X24183Y6929D01*
X22000Y5029D02*
X24112Y7141D01*
X22000Y6284D02*
X23351Y4933D01*
X22000Y3456D02*
X24156Y1300D01*
X22000Y2201D02*
X23625Y3825D01*
X22000Y10686D02*
X23815Y12501D01*
X22000Y14770D02*
X23435Y13335D01*
X22000Y11941D02*
X23673Y10268D01*
X22000Y7858D02*
X23359Y9217D01*
D68*
X34827Y74000D02*
D03*
Y81480D02*
D03*
X24000D02*
D03*
Y77740D02*
D03*
Y74000D02*
D03*
D69*
X35614Y67000D02*
D03*
Y63260D02*
D03*
Y59520D02*
D03*
X24000D02*
D03*
Y63260D02*
D03*
Y67000D02*
D03*
D70*
X52000Y56551D02*
D03*
X48260D02*
D03*
X44520D02*
D03*
Y66000D02*
D03*
X52000D02*
D03*
X71740Y50000D02*
D03*
X68000D02*
D03*
X64260D02*
D03*
Y40551D02*
D03*
X68000D02*
D03*
X71740D02*
D03*
D71*
X90118Y39693D02*
D03*
X87559D02*
D03*
X85000D02*
D03*
X82441D02*
D03*
X90118Y58000D02*
D03*
X87559D02*
D03*
X85000D02*
D03*
X82441D02*
D03*
D72*
X71839Y14000D02*
D03*
D73*
X68000Y16559D02*
D03*
Y14000D02*
D03*
Y11441D02*
D03*
X75677D02*
D03*
Y14000D02*
D03*
Y16559D02*
D03*
D74*
X38000Y12063D02*
D03*
Y6063D02*
D03*
M02*
