M48
;Layer_Color=9474304
;FILE_FORMAT=2:5
INCH,LZ
;TYPE=PLATED
T1F00S00C0.01200
;TYPE=NON_PLATED
T2F00S00C0.03902
%
T01
X0017Y0003
X0016Y0006
Y001
X0017Y0014
X0019Y0018
Y0023
X0017Y0026855
X0021Y0027
Y0036
X0026
X0031
Y0044
X0037Y0045
X0043614Y0037512
X0048614
X0053614
Y0031512
X0048614
X0043614
Y0025512
X0048614
X0053614
X0061Y0015
X0065Y0009
X0075339Y0007559
X007485Y0026
X0081Y0023
X0087Y0029
X0086709Y0039755
Y0044056
X0083709Y0046905
X0082709Y0041906
X0073Y0043
X0060681
X0061Y0066
X0057
X0049Y006385
X0039278Y0058743
X0035Y0062
X0023Y0057
X0015
X0014Y0063
X00115Y00395
X0006937Y004
X0004Y0036
X0003Y003
Y0025
X0012Y0027
X0016Y0037
X003Y002
X0037Y0015
X0032Y0004
X0044
X0094Y0003
X0094068Y000972
X0092Y00135
X0097Y0018
X0105Y0006
X0109
X0101709Y0041906
X0111Y0051
X0116Y0053
X0108Y0063
X010985Y006615
X0102Y0062
X0088Y0064
X0089Y0059
X0075136Y0059162
X0155Y0024
X0158Y0019
X0161Y0028
X0165114Y0027666
X0159Y0035
X0157Y0049
X0158Y006
X0176Y0057
X0172Y0048
X0185Y004315
X0193Y0051
X0199Y006
X0209Y0056
X0213Y0053
X0201Y0039
X0188059Y0030319
X0188024Y0018965
X0183004Y0020965
Y0016965
X0177985Y0018965
X0171114Y0017469
X0165114Y0003666
X0190114Y0007469
X0211Y0009
X0209114Y0016666
T02
X0006Y00455
Y00535
X0026Y00495
M30
