G04*
G04 #@! TF.GenerationSoftware,Altium Limited,Altium Designer,20.1.14 (287)*
G04*
G04 Layer_Color=16711935*
%FSLAX25Y25*%
%MOIN*%
G70*
G04*
G04 #@! TF.SameCoordinates,DFD3654D-5228-4AA8-B9DD-6FAD7AD09D05*
G04*
G04*
G04 #@! TF.FilePolarity,Negative*
G04*
G01*
G75*
%ADD13C,0.01000*%
%ADD119C,0.08300*%
%ADD120C,0.40170*%
%ADD121C,0.16548*%
%ADD122C,0.08674*%
%ADD123C,0.05918*%
%ADD124C,0.03300*%
D13*
X392000D01*
Y301000D01*
X0D02*
X392000D01*
X0Y0D02*
Y301000D01*
D119*
X154000Y178000D02*
D03*
Y168000D02*
D03*
X144000Y34000D02*
D03*
Y24000D02*
D03*
X190000Y192000D02*
D03*
X180000D02*
D03*
X382000Y223000D02*
D03*
X372000D02*
D03*
X382000Y209000D02*
D03*
X372000D02*
D03*
X382000Y195000D02*
D03*
X372000D02*
D03*
X373000Y158000D02*
D03*
X383000D02*
D03*
X314000Y210000D02*
D03*
X304000D02*
D03*
X344000Y94000D02*
D03*
X354000D02*
D03*
X302000Y166000D02*
D03*
X292000D02*
D03*
X373000Y143000D02*
D03*
X383000D02*
D03*
X297000Y189000D02*
D03*
Y179000D02*
D03*
X276000Y203000D02*
D03*
X286000D02*
D03*
X144000Y227000D02*
D03*
Y237000D02*
D03*
X204000Y271000D02*
D03*
X194000D02*
D03*
X139000Y206000D02*
D03*
X129000D02*
D03*
X83000Y216000D02*
D03*
Y206000D02*
D03*
X195000Y174000D02*
D03*
X185000D02*
D03*
X217000Y180000D02*
D03*
Y170000D02*
D03*
X252000Y75000D02*
D03*
Y85000D02*
D03*
X265000Y130000D02*
D03*
X255000D02*
D03*
X257000Y22000D02*
D03*
X267000D02*
D03*
X252000Y8000D02*
D03*
X262000D02*
D03*
X215000Y233000D02*
D03*
X205000D02*
D03*
X171000Y168000D02*
D03*
Y178000D02*
D03*
X214000Y56000D02*
D03*
Y66000D02*
D03*
X258000Y216000D02*
D03*
X268000D02*
D03*
X253000Y159000D02*
D03*
X263000D02*
D03*
X96000Y216000D02*
D03*
Y226000D02*
D03*
X241000Y190000D02*
D03*
X231000D02*
D03*
X181000Y228000D02*
D03*
X171000D02*
D03*
D120*
X307000Y22000D02*
D03*
X367000Y52000D02*
D03*
D121*
X379000Y287000D02*
D03*
X75000Y285000D02*
D03*
X378000Y13000D02*
D03*
X230000Y58000D02*
D03*
D122*
X298000Y258000D02*
D03*
Y273748D02*
D03*
D123*
X36441Y240791D02*
D03*
Y262445D02*
D03*
D124*
X231000Y118000D02*
D03*
X294000Y46000D02*
D03*
X314000Y48000D02*
D03*
X348000Y82000D02*
D03*
X329000Y103000D02*
D03*
X327000Y163000D02*
D03*
X305000Y153000D02*
D03*
X304000Y147000D02*
D03*
X307000Y113000D02*
D03*
X316000Y101000D02*
D03*
X327000Y183000D02*
D03*
X358000Y150500D02*
D03*
X348000Y141000D02*
D03*
X117000Y150516D02*
D03*
X87000Y138000D02*
D03*
X351000Y209000D02*
D03*
X338000Y160000D02*
D03*
X384000Y110000D02*
D03*
X364000Y166000D02*
D03*
X366000Y92000D02*
D03*
X365000Y106000D02*
D03*
X347000Y155000D02*
D03*
X312000Y172000D02*
D03*
X275000Y181000D02*
D03*
X116020Y43020D02*
D03*
X293000Y56000D02*
D03*
X331000Y146000D02*
D03*
X322000Y124000D02*
D03*
X307000Y157000D02*
D03*
X367000Y118000D02*
D03*
X366721Y131280D02*
D03*
X359000Y106000D02*
D03*
X254980Y175020D02*
D03*
X308000Y131000D02*
D03*
X281000Y170000D02*
D03*
X209000Y114000D02*
D03*
X187000Y109000D02*
D03*
X283000Y175000D02*
D03*
X241000Y88000D02*
D03*
X233000Y92750D02*
D03*
X216000Y85000D02*
D03*
X293000Y60000D02*
D03*
X334000Y93000D02*
D03*
X316000Y92000D02*
D03*
X309000Y77000D02*
D03*
X278969Y81000D02*
D03*
X279000Y89000D02*
D03*
X281000Y113000D02*
D03*
X255000Y117000D02*
D03*
X131000Y113000D02*
D03*
X93000D02*
D03*
X224000Y98000D02*
D03*
X293000Y64000D02*
D03*
X325000Y89000D02*
D03*
X279000Y254000D02*
D03*
X260000Y239000D02*
D03*
X110000Y216000D02*
D03*
X121000Y245000D02*
D03*
X191000Y245850D02*
D03*
X261000Y235000D02*
D03*
X128000Y271000D02*
D03*
X133000Y241000D02*
D03*
X130000Y224000D02*
D03*
X154000Y233000D02*
D03*
X200000Y219850D02*
D03*
X175000Y61000D02*
D03*
X192000Y46000D02*
D03*
X174000D02*
D03*
X138000Y43000D02*
D03*
X164000Y30000D02*
D03*
X259000Y99000D02*
D03*
X117000Y241000D02*
D03*
X245889Y253504D02*
D03*
Y249504D02*
D03*
X250909Y251504D02*
D03*
X240869D02*
D03*
X164000Y18000D02*
D03*
X69614Y39512D02*
D03*
X74614D02*
D03*
Y33512D02*
D03*
X69614D02*
D03*
X64614D02*
D03*
Y39512D02*
D03*
X69614Y45512D02*
D03*
X74614D02*
D03*
X64614D02*
D03*
X121028Y256720D02*
D03*
X82449Y62000D02*
D03*
X79449Y67250D02*
D03*
X91000Y23000D02*
D03*
X68827Y18850D02*
D03*
X58000Y8000D02*
D03*
X42000Y71000D02*
D03*
X50000Y7000D02*
D03*
X54000Y19000D02*
D03*
X45000Y76000D02*
D03*
X52000Y13000D02*
D03*
X64000Y12250D02*
D03*
X39000Y66000D02*
D03*
X259000Y251000D02*
D03*
X45000Y45000D02*
D03*
X40000D02*
D03*
X35000D02*
D03*
X29000D02*
D03*
X23000D02*
D03*
X18000D02*
D03*
X8000D02*
D03*
X3000Y36000D02*
D03*
X19195Y5500D02*
D03*
Y12500D02*
D03*
Y16500D02*
D03*
Y21500D02*
D03*
Y25500D02*
D03*
X28000Y25000D02*
D03*
X266000Y277000D02*
D03*
X229000Y228000D02*
D03*
X242937Y236000D02*
D03*
X236000Y228000D02*
D03*
X238000Y264000D02*
D03*
X175000Y91000D02*
D03*
X186000Y34000D02*
D03*
X290814Y285924D02*
D03*
X217000Y226000D02*
D03*
X207000D02*
D03*
X166000Y264000D02*
D03*
X162000Y273000D02*
D03*
X139601Y250149D02*
D03*
X115672Y280104D02*
D03*
X100695Y271324D02*
D03*
X95000Y265000D02*
D03*
X78000D02*
D03*
X81413Y234483D02*
D03*
X39000Y128000D02*
D03*
X45000Y114000D02*
D03*
X59722Y93145D02*
D03*
X61000Y109000D02*
D03*
X143389Y141520D02*
D03*
X137536Y130158D02*
D03*
X150000Y131000D02*
D03*
X161809Y151333D02*
D03*
X175582Y134462D02*
D03*
X182296Y147890D02*
D03*
X208807Y154087D02*
D03*
X223268Y147546D02*
D03*
X210529Y124993D02*
D03*
X281000Y129000D02*
D03*
X308000Y83000D02*
D03*
X310378Y70420D02*
D03*
X301942Y64223D02*
D03*
X267000Y51000D02*
D03*
X228000Y9000D02*
D03*
X221000Y19000D02*
D03*
X217000Y29000D02*
D03*
X219000Y38000D02*
D03*
X237000Y45000D02*
D03*
X225000Y75000D02*
D03*
X175000Y99000D02*
D03*
X164000Y124000D02*
D03*
X28000Y5000D02*
D03*
Y12000D02*
D03*
Y19000D02*
D03*
X23000Y35000D02*
D03*
X33000D02*
D03*
X18000Y31000D02*
D03*
X28000Y35000D02*
D03*
X13000Y49000D02*
D03*
X14129Y76012D02*
D03*
X22000Y75000D02*
D03*
X36000Y74000D02*
D03*
X56000Y86000D02*
D03*
X99000Y97000D02*
D03*
X87655Y26449D02*
D03*
X99000Y39000D02*
D03*
X92000Y55000D02*
D03*
X112000Y91000D02*
D03*
X122000Y85000D02*
D03*
X132860Y71473D02*
D03*
X174252Y68568D02*
D03*
X156279Y68024D02*
D03*
X145000Y68000D02*
D03*
X157006Y50958D02*
D03*
X143208Y5390D02*
D03*
X120696Y8839D02*
D03*
X94000Y7000D02*
D03*
X171000Y197000D02*
D03*
X144000Y290000D02*
D03*
X291000Y124000D02*
D03*
X93000Y84000D02*
D03*
X142000Y80000D02*
D03*
X133000Y94000D02*
D03*
X121000Y97000D02*
D03*
X100000Y118000D02*
D03*
X114000Y61000D02*
D03*
X117000Y76000D02*
D03*
X194000Y204000D02*
D03*
X200000Y208000D02*
D03*
X194000Y215000D02*
D03*
X161000Y220000D02*
D03*
X154000D02*
D03*
X172000Y10000D02*
D03*
X150000Y249000D02*
D03*
X154000Y260000D02*
D03*
X186000Y255000D02*
D03*
X155000Y61000D02*
D03*
X164000Y58040D02*
D03*
X213000Y33000D02*
D03*
Y26000D02*
D03*
X249000Y41000D02*
D03*
X105000Y93000D02*
D03*
X100000Y89000D02*
D03*
X113000Y49000D02*
D03*
X173000Y28000D02*
D03*
X170000Y43000D02*
D03*
X199608Y58392D02*
D03*
X183000Y80000D02*
D03*
X80000Y81000D02*
D03*
X83000Y75000D02*
D03*
X76000Y87000D02*
D03*
X130000Y218000D02*
D03*
X119000Y224000D02*
D03*
X177000Y159000D02*
D03*
X102000Y22000D02*
D03*
X65000Y8000D02*
D03*
X77000Y105000D02*
D03*
X192000Y94000D02*
D03*
X295000Y102000D02*
D03*
X88000Y60000D02*
D03*
X62000Y128000D02*
D03*
X56000D02*
D03*
X47150Y97000D02*
D03*
X46000Y107000D02*
D03*
X11000Y83000D02*
D03*
X28000Y88000D02*
D03*
X11000Y89000D02*
D03*
X21000D02*
D03*
X50000Y27000D02*
D03*
M02*
