G04*
G04 #@! TF.GenerationSoftware,Altium Limited,Altium Designer,20.2.6 (244)*
G04*
G04 Layer_Physical_Order=2*
G04 Layer_Color=65280*
%FSLAX25Y25*%
%MOIN*%
G70*
G04*
G04 #@! TF.SameCoordinates,535AE1F0-9979-4E68-9054-F600688F37C9*
G04*
G04*
G04 #@! TF.FilePolarity,Positive*
G04*
G01*
G75*
%ADD10C,0.01000*%
%ADD15C,0.00600*%
%ADD75C,0.02500*%
G04:AMPARAMS|DCode=76|XSize=78.74mil|YSize=78.74mil|CornerRadius=19.68mil|HoleSize=0mil|Usage=FLASHONLY|Rotation=0.000|XOffset=0mil|YOffset=0mil|HoleType=Round|Shape=RoundedRectangle|*
%AMROUNDEDRECTD76*
21,1,0.07874,0.03937,0,0,0.0*
21,1,0.03937,0.07874,0,0,0.0*
1,1,0.03937,0.01968,-0.01968*
1,1,0.03937,-0.01968,-0.01968*
1,1,0.03937,-0.01968,0.01968*
1,1,0.03937,0.01968,0.01968*
%
%ADD76ROUNDEDRECTD76*%
G04:AMPARAMS|DCode=77|XSize=75mil|YSize=75mil|CornerRadius=18.75mil|HoleSize=0mil|Usage=FLASHONLY|Rotation=270.000|XOffset=0mil|YOffset=0mil|HoleType=Round|Shape=RoundedRectangle|*
%AMROUNDEDRECTD77*
21,1,0.07500,0.03750,0,0,270.0*
21,1,0.03750,0.07500,0,0,270.0*
1,1,0.03750,-0.01875,-0.01875*
1,1,0.03750,-0.01875,0.01875*
1,1,0.03750,0.01875,0.01875*
1,1,0.03750,0.01875,-0.01875*
%
%ADD77ROUNDEDRECTD77*%
G36*
X118000Y2000D02*
X118000Y23000D01*
X152000D01*
X152000Y2000D01*
X118000D01*
D02*
G37*
G36*
Y24000D02*
X118000Y45000D01*
X152000D01*
X152000Y24000D01*
X118000D01*
D02*
G37*
G36*
Y46000D02*
X118000Y67000D01*
X152000D01*
X152000Y46000D01*
X118000D01*
D02*
G37*
D10*
X215996Y62174D02*
G03*
X209000Y69000I-6828J0D01*
G01*
X209172Y0D02*
G03*
X216000Y6828I0J6828D01*
G01*
X6449Y69000D02*
G03*
X0Y62550I0J-6449D01*
G01*
Y6449D02*
G03*
X6449Y0I6449J0D01*
G01*
X216000Y6828D02*
Y62174D01*
X6449Y0D02*
X209172D01*
X6449Y69000D02*
X209000D01*
X0Y6449D02*
Y62550D01*
D15*
X214600Y62172D02*
G03*
X209172Y67600I-5428J0D01*
G01*
X211150Y56000D02*
G03*
X207216Y57200I-2150J0D01*
G01*
Y54800D02*
G03*
X211150Y56000I1784J1200D01*
G01*
X201150Y60000D02*
G03*
X197216Y61200I-2150J0D01*
G01*
Y58800D02*
G03*
X201150Y60000I1784J1200D01*
G01*
X213837Y40968D02*
G03*
X210968Y43837I-2868J0D01*
G01*
X207031D02*
G03*
X204163Y40968I0J-2868D01*
G01*
X202784Y40200D02*
G03*
X202784Y37800I-1784J-1200D01*
G01*
X187150Y43150D02*
G03*
X183800Y41366I-2150J0D01*
G01*
X186200D02*
G03*
X187150Y43150I-1200J1784D01*
G01*
X185848Y37152D02*
G03*
X186200Y38000I-848J848D01*
G01*
X185848Y37152D02*
G03*
X186200Y38000I-848J848D01*
G01*
X180000Y57200D02*
G03*
X179151Y56849I0J-1200D01*
G01*
X180000Y57200D02*
G03*
X179151Y56849I0J-1200D01*
G01*
X178000Y52800D02*
G03*
X178849Y53152I0J1200D01*
G01*
X178000Y52800D02*
G03*
X178849Y53152I0J1200D01*
G01*
X173652D02*
G03*
X174500Y52800I848J848D01*
G01*
X213837Y31969D02*
G03*
X212317Y34500I-2868J0D01*
G01*
D02*
G03*
X213837Y37031I-1349J2531D01*
G01*
X210968Y25163D02*
G03*
X213837Y28032I0J2868D01*
G01*
X211264Y16666D02*
G03*
X210200Y18522I-2150J0D01*
G01*
X209172Y1400D02*
G03*
X214600Y6828I0J5428D01*
G01*
X207800Y18368D02*
G03*
X211264Y16666I1314J-1702D01*
G01*
X204163Y37031D02*
G03*
X205682Y34500I2868J0D01*
G01*
X182000Y33800D02*
G03*
X182849Y34152I0J1200D01*
G01*
X182000Y33800D02*
G03*
X182849Y34152I0J1200D01*
G01*
X205682Y34500D02*
G03*
X204163Y31969I1349J-2531D01*
G01*
X190209Y30319D02*
G03*
X186098Y31200I-2150J0D01*
G01*
X176000D02*
G03*
X175152Y30849I0J-1200D01*
G01*
X204163Y28032D02*
G03*
X207031Y25163I2868J0D01*
G01*
X192264Y7469D02*
G03*
X188200Y8449I-2150J0D01*
G01*
X186538Y28800D02*
G03*
X190209Y30319I1522J1519D01*
G01*
X188500Y6049D02*
G03*
X192264Y7469I1614J1420D01*
G01*
X176000Y31200D02*
G03*
X175152Y30849I0J-1200D01*
G01*
X172848Y57349D02*
G03*
X172000Y57700I-848J-848D01*
G01*
X172848Y57349D02*
G03*
X172000Y57700I-848J-848D01*
G01*
X173652Y53152D02*
G03*
X174500Y52800I848J848D01*
G01*
X167264Y27666D02*
G03*
X163914Y25882I-2150J0D01*
G01*
X159784Y61200D02*
G03*
X159784Y58800I-1784J-1200D01*
G01*
X160784Y36200D02*
G03*
X156856Y34841I-1784J-1200D01*
G01*
X159200Y32000D02*
G03*
X158849Y32849I-1200J0D01*
G01*
X158841Y32856D02*
G03*
X160784Y33800I159J2144D01*
G01*
X156349Y35348D02*
G03*
X155500Y35700I-848J-848D01*
G01*
X159200Y32000D02*
G03*
X158849Y32849I-1200J0D01*
G01*
X166314Y25882D02*
G03*
X167264Y27666I-1200J1784D01*
G01*
X156349Y35348D02*
G03*
X155500Y35700I-848J-848D01*
G01*
X173264Y17469D02*
G03*
X172314Y19253I-2150J0D01*
G01*
X170266Y25963D02*
G03*
X169914Y25114I848J-848D01*
G01*
X170266Y25963D02*
G03*
X169914Y25114I848J-848D01*
G01*
Y19253D02*
G03*
X173264Y17469I1200J-1784D01*
G01*
X171903Y6400D02*
G03*
X172751Y6049I848J848D01*
G01*
X171903Y6400D02*
G03*
X172751Y6049I848J848D01*
G01*
X166314Y8886D02*
G03*
X165963Y9734I-1200J0D01*
G01*
X163914Y3666D02*
G03*
X166314Y3666I1200J0D01*
G01*
X160150Y19000D02*
G03*
X159200Y20784I-2150J0D01*
G01*
X163914Y14886D02*
G03*
X164266Y14037I1200J0D01*
G01*
X156800Y20784D02*
G03*
X160150Y19000I1200J-1784D01*
G01*
X163914Y14886D02*
G03*
X164266Y14037I1200J0D01*
G01*
X162348Y13349D02*
G03*
X161500Y13700I-848J-848D01*
G01*
X162348Y13349D02*
G03*
X161500Y13700I-848J-848D01*
G01*
X166314Y8886D02*
G03*
X165963Y9734I-1200J0D01*
G01*
X110652Y55651D02*
G03*
X111500Y55300I848J848D01*
G01*
X106800Y60000D02*
G03*
X107151Y59152I1200J0D01*
G01*
X110652Y55651D02*
G03*
X111500Y55300I848J848D01*
G01*
X107095Y64950D02*
G03*
X106800Y61216I905J-1950D01*
G01*
Y60000D02*
G03*
X107151Y59152I1200J0D01*
G01*
X116000Y55150D02*
G03*
X114327Y54350I0J-2150D01*
G01*
X101806Y43152D02*
G03*
X102655Y42800I848J848D01*
G01*
X101806Y43152D02*
G03*
X102655Y42800I848J848D01*
G01*
X112800Y36000D02*
G03*
X113152Y35152I1200J0D01*
G01*
X112800Y36000D02*
G03*
X113152Y35152I1200J0D01*
G01*
X113848Y33849D02*
G03*
X113000Y34200I-848J-848D01*
G01*
X113848Y33849D02*
G03*
X113000Y34200I-848J-848D01*
G01*
X109875Y39350D02*
G03*
X112650Y42125I0J2775D01*
G01*
X114652Y33652D02*
G03*
X115500Y33300I848J848D01*
G01*
X114652Y33652D02*
G03*
X115500Y33300I848J848D01*
G01*
X103350Y42125D02*
G03*
X106125Y39350I2775J0D01*
G01*
X108849Y34848D02*
G03*
X107151Y33152I-848J-848D01*
G01*
X103200Y34000D02*
G03*
X102848Y34848I-1200J0D01*
G01*
X103200Y34000D02*
G03*
X102848Y34848I-1200J0D01*
G01*
X108151Y32151D02*
G03*
X109000Y31800I848J848D01*
G01*
X108151Y32151D02*
G03*
X109000Y31800I848J848D01*
G01*
X90150Y64000D02*
G03*
X89929Y64950I-2150J0D01*
G01*
X86216Y62800D02*
G03*
X90150Y64000I1784J1200D01*
G01*
X83152Y63849D02*
G03*
X82800Y63000I848J-848D01*
G01*
X83152Y63849D02*
G03*
X82800Y63000I848J-848D01*
G01*
Y57000D02*
G03*
X83152Y56151I1200J0D01*
G01*
X82800Y57000D02*
G03*
X83152Y56151I1200J0D01*
G01*
X76150Y67350D02*
G03*
X75301Y66998I0J-1200D01*
G01*
X76150Y67350D02*
G03*
X75301Y66998I0J-1200D01*
G01*
X68743Y57543D02*
G03*
X69591Y57894I0J1200D01*
G01*
X68743Y57543D02*
G03*
X69591Y57894I0J1200D01*
G01*
X89943Y47754D02*
G03*
X89095Y48105I-848J-848D01*
G01*
X89943Y47754D02*
G03*
X89095Y48105I-848J-848D01*
G01*
X88859Y39755D02*
G03*
X88673Y40630I-2150J0D01*
G01*
X85493Y48105D02*
G03*
X85032Y48600I-1784J-1200D01*
G01*
X82385D02*
G03*
X84806Y45057I1323J-1695D01*
G01*
D02*
G03*
X84780Y43106I1903J-1001D01*
G01*
X84493D02*
G03*
X80780Y40955I-1784J-1200D01*
G01*
X84925Y38555D02*
G03*
X88859Y39755I1784J1200D01*
G01*
X112650Y25875D02*
G03*
X109875Y28650I-2775J0D01*
G01*
Y19350D02*
G03*
X112650Y22125I0J2775D01*
G01*
X106125Y28650D02*
G03*
X103350Y25875I0J-2775D01*
G01*
Y22125D02*
G03*
X106125Y19350I2775J0D01*
G01*
X98800Y19000D02*
G03*
X99151Y18151I1200J0D01*
G01*
X98800Y19000D02*
G03*
X99151Y18151I1200J0D01*
G01*
X113800Y14000D02*
G03*
X114152Y13151I1200J0D01*
G01*
X113800Y14000D02*
G03*
X114152Y13151I1200J0D01*
G01*
X113200Y11000D02*
G03*
X112848Y11849I-1200J0D01*
G01*
X113200Y11000D02*
G03*
X112848Y11849I-1200J0D01*
G01*
Y4152D02*
G03*
X113200Y5000I-848J848D01*
G01*
X112848Y4152D02*
G03*
X113200Y5000I-848J848D01*
G01*
X103800Y7784D02*
G03*
X103824Y4200I1200J-1784D01*
G01*
X100200Y8000D02*
G03*
X99849Y8849I-1200J0D01*
G01*
X100200Y8000D02*
G03*
X99849Y8849I-1200J0D01*
G01*
X110000Y1800D02*
G03*
X110848Y2152I0J1200D01*
G01*
X110000Y1800D02*
G03*
X110848Y2152I0J1200D01*
G01*
X100152D02*
G03*
X101000Y1800I848J848D01*
G01*
X100152Y2152D02*
G03*
X101000Y1800I848J848D01*
G01*
X93648Y27951D02*
G03*
X94000Y28800I-848J848D01*
G01*
X93648Y27951D02*
G03*
X94000Y28800I-848J848D01*
G01*
X91151Y28848D02*
G03*
X90800Y28000I848J-848D01*
G01*
X91151Y28848D02*
G03*
X90800Y28000I848J-848D01*
G01*
Y15284D02*
G03*
X94150Y13500I1200J-1784D01*
G01*
D02*
G03*
X93200Y15284I-2150J0D01*
G01*
X79216Y21800D02*
G03*
X83150Y23000I1784J1200D01*
G01*
D02*
G03*
X79216Y24200I-2150J0D01*
G01*
X98128Y10569D02*
G03*
X97280Y10921I-848J-848D01*
G01*
X98128Y10569D02*
G03*
X97280Y10921I-848J-848D01*
G01*
X95852D02*
G03*
X92285Y10921I-1784J-1200D01*
G01*
Y8521D02*
G03*
X95852Y8521I1784J1200D01*
G01*
X89720Y10921D02*
G03*
X88872Y10569I0J-1200D01*
G01*
X89720Y10921D02*
G03*
X88872Y10569I0J-1200D01*
G01*
X97800Y5000D02*
G03*
X98151Y4152I1200J0D01*
G01*
X97800Y5000D02*
G03*
X98151Y4152I1200J0D01*
G01*
X84000Y2800D02*
G03*
X84848Y3151I0J1200D01*
G01*
X84000Y2800D02*
G03*
X84848Y3151I0J1200D01*
G01*
X59150Y66000D02*
G03*
X58436Y67600I-2150J0D01*
G01*
X55216Y64800D02*
G03*
X59150Y66000I1784J1200D01*
G01*
X41062Y59943D02*
G03*
X41062Y57543I-1784J-1200D01*
G01*
X62200Y41478D02*
G03*
X62831Y43000I-1519J1522D01*
G01*
D02*
G03*
X59800Y41039I-2150J0D01*
G01*
X15784Y64200D02*
G03*
X15176Y64800I-1784J-1200D01*
G01*
X28848Y63849D02*
G03*
X28000Y64200I-848J-848D01*
G01*
X28848Y63849D02*
G03*
X28000Y64200I-848J-848D01*
G01*
X12151Y59152D02*
G03*
X13000Y58800I848J848D01*
G01*
X12151Y59152D02*
G03*
X13000Y58800I848J848D01*
G01*
X12000Y67200D02*
G03*
X11152Y66848I0J-1200D01*
G01*
X12000Y67200D02*
G03*
X11152Y66848I0J-1200D01*
G01*
X10152Y65848D02*
G03*
X9800Y65000I848J-848D01*
G01*
X10152Y65848D02*
G03*
X9800Y65000I848J-848D01*
G01*
X6449Y67600D02*
G03*
X1400Y62559I0J-5049D01*
G01*
X9800Y62000D02*
G03*
X10152Y61151I1200J0D01*
G01*
X9800Y62000D02*
G03*
X10152Y61151I1200J0D01*
G01*
X38352Y48952D02*
G03*
X39200Y48600I848J848D01*
G01*
X38352Y48952D02*
G03*
X39200Y48600I848J848D01*
G01*
X28851Y49500D02*
G03*
X28851Y49500I-2851J0D01*
G01*
X39150Y45000D02*
G03*
X35800Y43216I-2150J0D01*
G01*
X38200D02*
G03*
X39150Y45000I-1200J1784D01*
G01*
X33150Y44000D02*
G03*
X29800Y42216I-2150J0D01*
G01*
X32200D02*
G03*
X33150Y44000I-1200J1784D01*
G01*
X8851Y53500D02*
G03*
X8851Y53500I-2851J0D01*
G01*
Y45500D02*
G03*
X8851Y45500I-2851J0D01*
G01*
X63150Y15000D02*
G03*
X62200Y16784I-2150J0D01*
G01*
Y13216D02*
G03*
X63150Y15000I-1200J1784D01*
G01*
X62151Y3151D02*
G03*
X63000Y2800I848J848D01*
G01*
X62151Y3151D02*
G03*
X63000Y2800I848J848D01*
G01*
X59800Y16784D02*
G03*
X59216Y16200I1200J-1784D01*
G01*
X59800Y6000D02*
G03*
X60151Y5152I1200J0D01*
G01*
X59216Y13800D02*
G03*
X59800Y13216I1784J1200D01*
G01*
Y6000D02*
G03*
X60151Y5152I1200J0D01*
G01*
X33150Y36000D02*
G03*
X32200Y37784I-2150J0D01*
G01*
X29800D02*
G03*
X33150Y36000I1200J-1784D01*
G01*
X38784Y16200D02*
G03*
X38200Y16784I-1784J-1200D01*
G01*
X35800D02*
G03*
X38784Y13800I1200J-1784D01*
G01*
X206757Y67600D02*
X214600Y59758D01*
X210382Y57647D02*
X214600Y61865D01*
X210382Y57647D02*
X214600Y61865D01*
X209603Y67583D02*
X214583Y62603D01*
X203000Y67600D02*
X209172D01*
X201450Y57200D02*
X211380Y67130D01*
X207107Y57200D02*
X214178Y64271D01*
X203929Y67600D02*
X214600Y56929D01*
X211099Y55536D02*
X214600Y59036D01*
X210893Y54980D02*
X214600Y51272D01*
X204278Y57200D02*
X213049Y65971D01*
X200303Y61710D02*
X206193Y67600D01*
X196965Y61200D02*
X203364Y67600D01*
X201130Y59709D02*
X209021Y67600D01*
X198272D02*
X207980Y57893D01*
X194136Y61200D02*
X200536Y67600D01*
X201101D02*
X214600Y54101D01*
X195444Y67600D02*
X205844Y57200D01*
X180000D02*
X207216D01*
X201001Y59214D02*
X203015Y57200D01*
X199482Y57905D02*
X200187Y57200D01*
X191273Y54800D02*
X204283Y41790D01*
X209186Y53858D02*
X214600Y48444D01*
X205415Y54800D02*
X214600Y45615D01*
X210714Y43837D02*
X214600Y47723D01*
X207886Y43837D02*
X214600Y50551D01*
X212844Y43139D02*
X214600Y44894D01*
X207031Y43837D02*
X210968D01*
X213820Y41285D02*
X214600Y42066D01*
X213837Y38475D02*
X214600Y39237D01*
X213837Y40721D02*
X214600Y39959D01*
X213837Y37893D02*
X214600Y37130D01*
X213837Y37031D02*
Y40968D01*
X204163Y37031D02*
Y37800D01*
X202587Y54800D02*
X214600Y42787D01*
X199759Y54800D02*
X210721Y43837D01*
X202080Y40859D02*
X214600Y53380D01*
X196930Y54800D02*
X207893Y43837D01*
X194102Y54800D02*
X205505Y43397D01*
X180497Y54800D02*
X207216D01*
X204163Y40200D02*
Y40968D01*
X202784Y40200D02*
X204163D01*
X202784Y37800D02*
X204163D01*
X188445Y54800D02*
X203045Y40200D01*
X186200Y39122D02*
X201878Y54800D01*
X189787Y67600D02*
X196187Y61200D01*
X188479D02*
X194879Y67600D01*
X192615D02*
X198214Y62001D01*
X191308Y61200D02*
X197708Y67600D01*
X186959D02*
X193359Y61200D01*
X185651D02*
X192051Y67600D01*
X192930Y58800D02*
X194530Y57200D01*
X192964D02*
X194564Y58800D01*
X190136Y57200D02*
X191736Y58800D01*
X195758D02*
X197359Y57200D01*
X187308D02*
X188908Y58800D01*
X187273D02*
X188873Y57200D01*
X190102Y58800D02*
X191702Y57200D01*
X181302Y67600D02*
X187702Y61200D01*
X179994D02*
X186394Y67600D01*
X184130D02*
X190530Y61200D01*
X182822D02*
X189222Y67600D01*
X175645D02*
X182045Y61200D01*
X174337D02*
X180737Y67600D01*
X178473D02*
X184873Y61200D01*
X184445Y58800D02*
X186045Y57200D01*
X177165Y61200D02*
X183565Y67600D01*
X184479Y57200D02*
X186079Y58800D01*
X181616D02*
X183216Y57200D01*
X176822Y55200D02*
X180422Y58800D01*
X181651Y57200D02*
X183251Y58800D01*
X198621Y57200D02*
X199291Y57870D01*
X195793Y57200D02*
X197290Y58697D01*
X187133Y42884D02*
X199050Y54800D01*
X185616D02*
X199702Y40714D01*
X186291Y44869D02*
X196221Y54800D01*
X186200Y38000D02*
Y41366D01*
X182788Y54800D02*
X198868Y38719D01*
X183800Y38497D02*
Y41366D01*
X181503Y36200D02*
X183800Y38497D01*
X178788Y58800D02*
X180388Y57200D01*
X177503Y55200D02*
X179151Y56849D01*
X175960Y58800D02*
X178531Y56228D01*
X174495Y55702D02*
X177594Y58800D01*
X174997Y55200D02*
X177503D01*
X178849Y53152D02*
X180497Y54800D01*
X176303Y52800D02*
X184033Y45070D01*
X174500Y52800D02*
X178000D01*
X213397Y35505D02*
X214600Y34302D01*
X212552Y34361D02*
X214600Y36409D01*
X213837Y29989D02*
X214600Y30752D01*
X213737Y32718D02*
X214600Y33581D01*
X213823Y32250D02*
X214600Y31473D01*
X213837Y29408D02*
X214600Y28645D01*
X213625Y26948D02*
X214600Y27924D01*
X213577Y26839D02*
X214600Y25816D01*
Y6828D02*
Y62172D01*
X213837Y28032D02*
Y31969D01*
X212164Y25424D02*
X214600Y22988D01*
X189870Y31478D02*
X214600Y56208D01*
X188032Y32469D02*
X209464Y53901D01*
X210200Y23524D02*
X212052Y25375D01*
X183935Y31200D02*
X207353Y54618D01*
X183935Y31200D02*
X207353Y54618D01*
X186920Y42183D02*
X207800Y21303D01*
X190207Y30410D02*
X214547Y6070D01*
X186161Y28800D02*
X212455Y2506D01*
X189256Y28533D02*
X213799Y3990D01*
X186200Y40074D02*
X207800Y18474D01*
X180504Y28800D02*
X207904Y1400D01*
X183332Y28800D02*
X210553Y1579D01*
X210200Y24559D02*
X214600Y20159D01*
X210200Y20695D02*
X214600Y25095D01*
X210576Y18243D02*
X214600Y22267D01*
X210200Y21731D02*
X214600Y17331D01*
X210200Y25163D02*
X210968D01*
X210200Y18522D02*
Y25163D01*
X211157Y15995D02*
X214600Y19439D01*
X210200Y18903D02*
X214600Y14503D01*
X210861Y15413D02*
X214600Y11674D01*
X208921Y14525D02*
X214600Y8846D01*
X211033Y1729D02*
X214271Y4967D01*
X206755Y25176D02*
X207800Y24131D01*
X207875Y1400D02*
X214600Y8125D01*
X205047Y1400D02*
X214600Y10953D01*
X207800Y18368D02*
Y25163D01*
X207031D02*
X207800D01*
X192112Y8264D02*
X207800Y23952D01*
X199390Y1400D02*
X214600Y16610D01*
X196562Y1400D02*
X209785Y14623D01*
X202218Y1400D02*
X214600Y13782D01*
X193733Y1400D02*
X207537Y15204D01*
X188076Y1400D02*
X207800Y21124D01*
X203000Y1400D02*
X209172D01*
X202714Y37702D02*
X204320Y36097D01*
X200719Y36868D02*
X204424Y33164D01*
X184657Y35960D02*
X188150Y32467D01*
X182849Y34152D02*
X185848Y37152D01*
X186042Y37404D02*
X206973Y16473D01*
X204163Y28032D02*
Y31969D01*
X183243Y34546D02*
X186273Y31516D01*
X181160Y33800D02*
X183760Y31200D01*
X181107D02*
X204707Y54800D01*
X174793Y36200D02*
X193393Y54800D01*
X180450Y36200D02*
X183800Y39550D01*
X177621Y36200D02*
X183281Y41859D01*
X178278Y31200D02*
X180878Y33800D01*
X175504D02*
X178104Y31200D01*
X178332Y33800D02*
X180932Y31200D01*
X180228Y54531D02*
X204163Y30597D01*
X178813Y53118D02*
X204176Y27755D01*
X178154Y8449D02*
X204861Y35156D01*
X180983Y8449D02*
X204163Y31629D01*
X175326Y8449D02*
X204163Y37286D01*
X183811Y8449D02*
X204163Y28800D01*
X190586Y9567D02*
X206282Y25263D01*
X186639Y8449D02*
X204639Y26448D01*
X191824Y6166D02*
X196590Y1400D01*
X190905D02*
X207261Y17757D01*
X189823Y5339D02*
X193762Y1400D01*
X186285Y6049D02*
X190933Y1400D01*
X183456Y6049D02*
X188105Y1400D01*
X185248D02*
X189319Y5471D01*
X177675Y28800D02*
X205075Y1400D01*
X176000Y31200D02*
X186098D01*
X182419Y1400D02*
X187068Y6049D01*
X176497Y28800D02*
X186538D01*
X177799Y6049D02*
X182448Y1400D01*
X179591D02*
X184239Y6049D01*
X175672Y27975D02*
X202247Y1400D01*
X174258Y26561D02*
X199418Y1400D01*
X180628Y6049D02*
X185276Y1400D01*
X174971Y6049D02*
X179619Y1400D01*
X173934D02*
X178583Y6049D01*
X176762Y1400D02*
X181411Y6049D01*
X169988Y67600D02*
X176388Y61200D01*
X168680D02*
X175080Y67600D01*
X172816D02*
X179216Y61200D01*
X171509D02*
X177909Y67600D01*
X168009Y57700D02*
X169109Y58800D01*
X167474D02*
X168574Y57700D01*
X170303Y58800D02*
X171403Y57700D01*
X173131Y58800D02*
X176731Y55200D01*
X173081Y57116D02*
X174766Y58800D01*
X172848Y57349D02*
X174997Y55200D01*
X170974Y55300D02*
X182866Y43409D01*
X170837Y57700D02*
X171937Y58800D01*
X167159Y67600D02*
X173559Y61200D01*
X154000Y67600D02*
X203000D01*
X165852Y61200D02*
X172252Y67600D01*
X159784Y61200D02*
X197216D01*
X163023D02*
X169423Y67600D01*
X161503D02*
X167903Y61200D01*
X164331Y67600D02*
X170731Y61200D01*
X165317Y55300D02*
X182960Y37657D01*
X159784Y58800D02*
X197216D01*
X162489Y55300D02*
X181546Y36243D01*
X156832Y55300D02*
X175932Y36200D01*
X154000Y57700D02*
X172000D01*
X154000Y40863D02*
X168437Y55300D01*
X168146D02*
X183800Y39646D01*
X166308Y36200D02*
X184908Y54800D01*
X171965Y36200D02*
X190565Y54800D01*
X169136Y36200D02*
X187736Y54800D01*
X171503Y55300D02*
X173652Y53152D01*
X172675Y33800D02*
X175423Y31052D01*
X169847Y33800D02*
X173975Y29672D01*
X167018Y33800D02*
X172561Y28258D01*
X170266Y25963D02*
X175152Y30849D01*
X165538Y29774D02*
X169564Y33800D01*
X164190D02*
X171146Y26844D01*
X167095Y28502D02*
X172393Y33800D01*
X163479Y36200D02*
X182079Y54800D01*
X158759Y37136D02*
X174425Y52802D01*
X160784Y36200D02*
X181503D01*
X160729Y36278D02*
X177251Y52800D01*
X154000Y38034D02*
X171265Y55300D01*
X154000D02*
X171503D01*
X154000Y52475D02*
X170275Y36200D01*
X159660Y55300D02*
X178761Y36200D01*
X154004Y55300D02*
X173104Y36200D01*
X160784Y33800D02*
X182000D01*
X154494Y35700D02*
X172798Y54005D01*
X154000Y49647D02*
X167447Y36200D01*
X160195Y61200D02*
X166595Y67600D01*
X158674D02*
X165074Y61200D01*
X162352Y57700D02*
X163452Y58800D01*
X158296Y62129D02*
X163767Y67600D01*
X155846D02*
X162246Y61200D01*
X154000Y63490D02*
X158110Y67600D01*
X164646Y58800D02*
X165746Y57700D01*
X161817Y58800D02*
X162917Y57700D01*
X165180D02*
X166280Y58800D01*
X159523Y57700D02*
X160623Y58800D01*
X156521Y58440D02*
X157261Y57700D01*
X159411Y58378D02*
X160089Y57700D01*
X154000Y66617D02*
X158535Y62082D01*
X154000Y60662D02*
X160938Y67600D01*
X154000Y60961D02*
X156440Y58521D01*
X154000Y63789D02*
X156378Y61411D01*
X154000Y66319D02*
X155281Y67600D01*
X154000Y57700D02*
Y67600D01*
Y57833D02*
X155870Y59704D01*
X154000Y46520D02*
X162780Y55300D01*
X154000Y49348D02*
X159952Y55300D01*
X154000Y43691D02*
X165609Y55300D01*
X154000Y52177D02*
X157123Y55300D01*
X154000Y58132D02*
X154432Y57700D01*
X154000Y35700D02*
Y55300D01*
X159200Y31921D02*
X161079Y33800D01*
X156349Y35348D02*
X156856Y34841D01*
X161362Y33800D02*
X165359Y29802D01*
X159200Y26264D02*
X166736Y33800D01*
X159438Y32895D02*
X163387Y28946D01*
X159200Y29092D02*
X163908Y33800D01*
X159200Y30305D02*
X163914Y25591D01*
X154000Y43990D02*
X161790Y36200D01*
X154000Y46818D02*
X164618Y36200D01*
X154000Y38333D02*
X156895Y35438D01*
X154000Y41162D02*
X158176Y36986D01*
X154000Y35700D02*
X155500D01*
X154000Y33300D02*
X155003D01*
X156800Y31503D01*
X154000Y32676D02*
X156800Y29876D01*
X154000Y26721D02*
X156800Y29521D01*
X154000Y29549D02*
X156377Y31926D01*
X154000Y32378D02*
X154922Y33300D01*
X154000Y29848D02*
X156800Y27048D01*
X172314Y19579D02*
X181535Y28800D01*
X172314Y22408D02*
X178707Y28800D01*
X173253Y17689D02*
X184363Y28800D01*
X172314Y19579D02*
X181535Y28800D01*
X172314Y19253D02*
Y24617D01*
X176497Y28800D01*
X172873Y8824D02*
X200901Y36852D01*
X171459Y10238D02*
X199141Y37920D01*
X172844Y25146D02*
X188811Y9179D01*
X172314Y22847D02*
X186713Y8449D01*
X170045Y11653D02*
X186900Y28508D01*
X172314Y20019D02*
X183885Y8449D01*
X166314Y22064D02*
X178050Y33800D01*
X166314Y24893D02*
X175221Y33800D01*
X167250Y27911D02*
X169921Y25241D01*
X166394Y25939D02*
X169914Y22419D01*
X166314Y23190D02*
X169914Y19590D01*
X166314Y16408D02*
X169914Y20008D01*
X166314Y19236D02*
X169914Y22836D01*
Y19253D02*
Y25114D01*
X166314Y15383D02*
Y25882D01*
Y20362D02*
X168977Y17700D01*
X173024Y16481D02*
X181056Y8449D01*
X166314Y15383D02*
X173249Y8449D01*
X188200D01*
X171345Y15331D02*
X178228Y8449D01*
X167216Y14481D02*
X169209Y16473D01*
X167216Y14481D02*
X169209Y16473D01*
X168630Y13067D02*
X170894Y15330D01*
X171106Y1400D02*
X175754Y6049D01*
X168277Y1400D02*
X172926Y6049D01*
X172751D02*
X188500D01*
X166314Y7922D02*
X168347Y9956D01*
X166314Y17534D02*
X175399Y8449D01*
X164266Y14037D02*
X171903Y6400D01*
X166314Y5094D02*
X169762Y8541D01*
X165630Y10067D02*
X166933Y11370D01*
X166314Y3666D02*
Y8886D01*
X166301Y9061D02*
X173962Y1400D01*
X159994Y18197D02*
X176791Y1400D01*
X154000D02*
X202995D01*
X166314Y6220D02*
X171134Y1400D01*
X165449D02*
X171176Y7127D01*
X166288Y3418D02*
X168306Y1400D01*
X159303Y20710D02*
X163914Y25321D01*
X159200Y27476D02*
X163914Y22762D01*
X160130Y18709D02*
X163914Y22493D01*
X159200Y24648D02*
X163914Y19934D01*
X159200Y23436D02*
X163006Y27242D01*
X159200Y20784D02*
Y32000D01*
X163914Y14886D02*
Y25882D01*
X159200Y21819D02*
X163914Y17105D01*
X158462Y16900D02*
X161675Y13687D01*
X157950Y13700D02*
X163914Y19664D01*
X160778Y13700D02*
X163914Y16836D01*
X154000Y23892D02*
X156800Y26692D01*
X154000Y27019D02*
X156800Y24219D01*
X154000Y21064D02*
X156800Y23864D01*
X154000Y24191D02*
X156800Y21391D01*
Y20784D02*
Y31503D01*
X154000Y21362D02*
X155900Y19462D01*
X154000Y18236D02*
X156800Y21035D01*
X154000Y18534D02*
X158834Y13700D01*
X155121D02*
X158291Y16870D01*
X154000Y15407D02*
X156290Y17697D01*
X154000Y13700D02*
Y33300D01*
Y15706D02*
X156006Y13700D01*
X162348Y13349D02*
X165963Y9734D01*
X164216Y11481D02*
X165519Y12784D01*
X164216Y11481D02*
X165519Y12784D01*
X162802Y12895D02*
X164120Y14213D01*
X161003Y11300D02*
X163914Y8389D01*
X162620Y1400D02*
X164159Y2939D01*
X163914Y3666D02*
Y8389D01*
X158406Y11300D02*
X163914Y5791D01*
X159792Y1400D02*
X163914Y5522D01*
X154000Y4093D02*
X161105Y11198D01*
X154000Y13700D02*
X161500D01*
X154135Y1400D02*
X162519Y9784D01*
X154135Y1400D02*
X162519Y9784D01*
X154000Y6922D02*
X158378Y11300D01*
X154000Y9750D02*
X155550Y11300D01*
X154000D02*
X161003D01*
X155577D02*
X165477Y1400D01*
X154000Y10049D02*
X162649Y1400D01*
X156964D02*
X163914Y8351D01*
X154000Y7220D02*
X159820Y1400D01*
X154000D02*
Y11300D01*
Y4392D02*
X156992Y1400D01*
X107151Y59152D02*
X110652Y55651D01*
X111500Y55300D02*
X116000D01*
X114406D02*
X114874Y54832D01*
X104756Y64950D02*
X105977Y63728D01*
X101927Y64950D02*
X106800Y60077D01*
Y60000D02*
Y61216D01*
X110919Y54350D02*
X111869Y55300D01*
X111577D02*
X112527Y54350D01*
X108090D02*
X110022Y56281D01*
X113747Y54350D02*
X114697Y55300D01*
X102433Y54350D02*
X107193Y59110D01*
X105262Y54350D02*
X108607Y57696D01*
X103350Y42125D02*
Y42800D01*
X102655D02*
X103350D01*
X89929Y64950D02*
X107095D01*
X99099D02*
X109699Y54350D01*
X76150Y67350D02*
X108066D01*
X96776Y54350D02*
X105904Y63477D01*
X99605Y54350D02*
X106613Y61358D01*
X96270Y64950D02*
X106870Y54350D01*
X90614Y64950D02*
X101214Y54350D01*
X91120D02*
X101720Y64950D01*
X88319Y54378D02*
X98891Y64950D01*
X93948Y54350D02*
X104548Y64950D01*
X93442D02*
X104042Y54350D01*
X95650Y48600D02*
X110050Y34200D01*
X89993Y48600D02*
X109944Y28649D01*
X88347Y54350D02*
X114327D01*
X92821Y48600D02*
X106913Y34508D01*
X89943Y47754D02*
X102848Y34848D01*
X96358Y48600D02*
X101806Y43152D01*
X97133Y40564D02*
X100763Y44194D01*
X95719Y41978D02*
X99349Y45609D01*
X98547Y39150D02*
X102263Y42866D01*
X110488Y39419D02*
X112800Y37107D01*
X109497Y34200D02*
X113000D01*
X112170Y40565D02*
X112800Y39935D01*
Y36000D02*
Y42153D01*
X110568Y34200D02*
X112800Y36432D01*
X108849Y34848D02*
X109497Y34200D01*
X113848Y33849D02*
X115849Y31848D01*
X116000Y31663D02*
Y33300D01*
X114861Y32836D02*
X115336Y33311D01*
X113152Y35152D02*
X114652Y33652D01*
X112503Y31800D02*
X113800Y30503D01*
X112450Y31800D02*
X113800Y30450D01*
X110583Y28558D02*
X113164Y31139D01*
X109000Y31800D02*
X112503D01*
X106125Y39350D02*
X109875D01*
X107728D02*
X112878Y34200D01*
X108586Y35047D02*
X112800Y39261D01*
X102790Y34907D02*
X107232Y39350D01*
X99961Y37736D02*
X103488Y41262D01*
X101375Y36322D02*
X104762Y39708D01*
X93995Y38308D02*
X98800Y33503D01*
X103200Y32489D02*
X110067Y39357D01*
X107846Y28650D02*
X110996Y31800D01*
X106125Y28650D02*
X109875D01*
X107151Y33152D02*
X108151Y32151D01*
X103200Y29661D02*
X106953Y33414D01*
X103200Y32564D02*
X107115Y28650D01*
X104470Y28103D02*
X108355Y31988D01*
X103200Y29736D02*
X104688Y28249D01*
X85491Y57206D02*
X93234Y64950D01*
X85497Y62800D02*
X86216D01*
X85200Y57497D02*
Y62503D01*
Y59744D02*
X87393Y61937D01*
X83152Y63849D02*
X84152Y64849D01*
X82128Y64950D02*
X83191Y63888D01*
X82800Y57000D02*
Y63000D01*
X86905Y55792D02*
X96063Y64950D01*
X89843Y62892D02*
X98385Y54350D01*
X85200Y61878D02*
X92728Y54350D01*
X88056Y61851D02*
X95557Y54350D01*
X85200Y59050D02*
X89900Y54350D01*
X85200Y57497D02*
X88347Y54350D01*
X83152Y56151D02*
X87002Y52302D01*
X80484Y52200D02*
X83794Y55509D01*
X79300Y64950D02*
X82800Y61450D01*
X76647Y64950D02*
X84267D01*
X76559Y64862D02*
X82800Y58621D01*
X69591Y57894D02*
X76647Y64950D01*
X73821Y67600D02*
X74862Y66559D01*
X70993Y67600D02*
X73448Y65145D01*
X68164Y67600D02*
X72034Y63731D01*
X68246Y59943D02*
X75301Y66998D01*
X73731Y62034D02*
X83565Y52200D01*
X75145Y63448D02*
X86393Y52200D01*
X71999D02*
X82800Y63001D01*
X77656Y52200D02*
X82800Y57344D01*
X74827Y52200D02*
X82800Y60173D01*
X70902Y59205D02*
X77908Y52200D01*
X72317Y60619D02*
X80736Y52200D01*
X69171D02*
X81921Y64950D01*
X69482Y57797D02*
X75079Y52200D01*
X91476Y46221D02*
X93855Y48600D01*
X92890Y44807D02*
X96521Y48437D01*
X90062Y47635D02*
X91026Y48600D01*
X94304Y43393D02*
X97935Y47023D01*
X94000Y37431D02*
X94436Y37867D01*
X88673Y40630D02*
X91600Y37703D01*
X87704Y48105D02*
X88198Y48600D01*
X87164D02*
X87659Y48105D01*
X94000Y31775D02*
X97264Y35039D01*
X94000Y36108D02*
X98800Y31308D01*
X94000Y34603D02*
X95850Y36453D01*
X94000Y33279D02*
X98800Y28479D01*
X94000Y28946D02*
X98678Y33625D01*
X91600Y29297D02*
Y37703D01*
X94000Y28800D02*
Y38200D01*
X88581Y38698D02*
X91600Y35679D01*
X91151Y28848D02*
X91600Y29297D01*
X86841Y37610D02*
X91600Y32851D01*
X86141Y52200D02*
X86622Y52681D01*
X85032Y48600D02*
X96358D01*
X83313Y52200D02*
X85208Y54095D01*
X85493Y48105D02*
X89095D01*
X78679Y48600D02*
X83309Y43970D01*
X75851Y48600D02*
X81109Y43342D01*
X83502Y43904D02*
X84507Y44909D01*
X81508Y48600D02*
X81956Y48151D01*
X77725Y40955D02*
X82172Y45402D01*
X83067Y38555D02*
X91600Y30022D01*
X70194Y48600D02*
X77838Y40955D01*
X72068D02*
X79713Y48600D01*
X69240Y40955D02*
X76884Y48600D01*
X74897Y40955D02*
X81764Y47823D01*
X73022Y48600D02*
X80667Y40955D01*
X112217Y27364D02*
X113800Y28947D01*
X112650Y24969D02*
X113800Y26119D01*
X109621Y31800D02*
X113800Y27621D01*
X112650Y22140D02*
X113800Y23290D01*
X112650Y23114D02*
X113800Y21964D01*
X112649Y25944D02*
X113800Y24793D01*
X112650Y22125D02*
Y25875D01*
X109200Y19350D02*
X109875D01*
X106125D02*
X106800D01*
X112249Y20687D02*
X113800Y19136D01*
Y14000D02*
Y30503D01*
X109200Y15862D02*
X113800Y20462D01*
X110648Y19460D02*
X113800Y16308D01*
X109200Y18079D02*
X116000Y11279D01*
X109200Y18690D02*
X109860Y19350D01*
X109200Y15497D02*
Y19350D01*
X106800Y15897D02*
Y19350D01*
X110432Y14265D02*
X113800Y17633D01*
X109200Y15497D02*
X112848Y11849D01*
X103350Y22125D02*
Y25875D01*
X103200Y26832D02*
X103897Y27530D01*
X103775Y18922D02*
X104636Y19783D01*
X103200Y21251D02*
X103734Y20717D01*
X94000Y30451D02*
X98800Y25651D01*
X103200Y19497D02*
Y34000D01*
X93200Y22489D02*
X98800Y28089D01*
X104717Y19734D02*
X106800Y17651D01*
X103200Y19497D02*
X106800Y15897D01*
X93200Y22766D02*
X103800Y12166D01*
X105189Y17508D02*
X106800Y19119D01*
X99151Y18151D02*
X103800Y13503D01*
X93887Y11863D02*
X99664Y17639D01*
X93200Y19937D02*
X103800Y9337D01*
X93200Y17109D02*
X103174Y7135D01*
X98189Y10508D02*
X102492Y14811D01*
X95820Y10967D02*
X101078Y16225D01*
X114152Y13151D02*
X115652Y11652D01*
X113200Y8548D02*
X116000Y11348D01*
X113154Y11330D02*
X114563Y12740D01*
X113200Y5720D02*
X116000Y8520D01*
X113200Y8422D02*
X116000Y5622D01*
X113166Y11285D02*
X116000Y8451D01*
X111846Y12851D02*
X113800Y14805D01*
X113200Y5594D02*
X116000Y2794D01*
Y1400D02*
Y11409D01*
X111709Y1400D02*
X116000Y5691D01*
X114537Y1400D02*
X116000Y2863D01*
X112331Y3634D02*
X114566Y1400D01*
X113200Y5000D02*
Y11000D01*
X110917Y2220D02*
X111737Y1400D01*
X110848Y2152D02*
X112848Y4152D01*
X103800Y7784D02*
Y13503D01*
X100200Y6862D02*
X103800Y10462D01*
X99603Y9094D02*
X103800Y13290D01*
X101497Y4200D02*
X103824D01*
X98128Y10569D02*
X99849Y8849D01*
X100932Y4765D02*
X103032Y6865D01*
X100200Y5497D02*
Y8000D01*
Y5497D02*
X101497Y4200D01*
X100200Y7280D02*
X103280Y4200D01*
X101000Y1800D02*
X110000D01*
X98151Y4152D02*
X100152Y2152D01*
X97567Y1400D02*
X99235Y3068D01*
X94246Y7578D02*
X100424Y1400D01*
X93200Y25318D02*
X98800Y30918D01*
X93660Y27963D02*
X98800Y22822D01*
X93200Y25594D02*
X98800Y19994D01*
X93200Y19661D02*
X98800Y25261D01*
X83049Y23652D02*
X91600Y32203D01*
X81626Y25057D02*
X91600Y35031D01*
X93200Y27503D02*
X93648Y27951D01*
X98800Y19000D02*
Y33503D01*
X93828Y14632D02*
X98800Y19604D01*
X93200Y16832D02*
X98800Y22432D01*
X94144Y13337D02*
X96560Y10921D01*
X90800Y15284D02*
Y28000D01*
X93200Y15284D02*
Y27503D01*
X82811Y21841D02*
X90116Y14536D01*
X81568Y5200D02*
X89850Y13483D01*
X80238Y38555D02*
X90800Y27994D01*
X71753Y38555D02*
X90800Y19509D01*
X68925Y38555D02*
X90800Y16680D01*
X77410Y38555D02*
X90800Y25166D01*
X77940Y24200D02*
X91522Y37781D01*
X74582Y38555D02*
X90800Y22337D01*
X72283Y24200D02*
X85862Y37779D01*
X75112Y24200D02*
X90107Y39196D01*
X69455Y24200D02*
X83810Y38555D01*
X70254Y5200D02*
X90800Y25746D01*
X73082Y5200D02*
X90800Y22918D01*
X67426Y5200D02*
X91600Y29375D01*
X80973Y20850D02*
X90903Y10921D01*
X78739Y5200D02*
X90800Y17261D01*
X74367Y21800D02*
X87235Y8932D01*
X71538Y21800D02*
X85821Y7518D01*
X68710Y21800D02*
X84406Y6103D01*
X77195Y21800D02*
X88649Y10346D01*
X75911Y5200D02*
X90800Y20089D01*
X95852Y10921D02*
X97280D01*
X95852Y8521D02*
X96782D01*
X89720Y10921D02*
X92285D01*
X90117D02*
X90868Y11672D01*
X90218Y8521D02*
X92285D01*
X97800Y5000D02*
Y7503D01*
X96131Y8521D02*
X97800Y6852D01*
X94738Y1400D02*
X97888Y4550D01*
X96782Y8521D02*
X97800Y7503D01*
X90475Y8521D02*
X97595Y1400D01*
X89081D02*
X96202Y8521D01*
X91910Y1400D02*
X97800Y7290D01*
X88932Y7235D02*
X94767Y1400D01*
X84848Y3151D02*
X90218Y8521D01*
X86253Y1400D02*
X92822Y7969D01*
X83425Y1400D02*
X90545Y8521D01*
X87518Y5821D02*
X91938Y1400D01*
X86103Y4406D02*
X89110Y1400D01*
X83503Y5200D02*
X88872Y10569D01*
X84674Y3007D02*
X86281Y1400D01*
X82053Y2800D02*
X83453Y1400D01*
X76396Y2800D02*
X77796Y1400D01*
X77768D02*
X79168Y2800D01*
X74939Y1400D02*
X76339Y2800D01*
X80596Y1400D02*
X81996Y2800D01*
X79224D02*
X80625Y1400D01*
X69282D02*
X70682Y2800D01*
X70739D02*
X72139Y1400D01*
X67911Y2800D02*
X69311Y1400D01*
X73568Y2800D02*
X74968Y1400D01*
X72111D02*
X73511Y2800D01*
X62508Y67600D02*
X69205Y60902D01*
X62771Y59943D02*
X70428Y67600D01*
X59943Y59943D02*
X67600Y67600D01*
X65336D02*
X70619Y62317D01*
X65600Y59943D02*
X73257Y67600D01*
X58436D02*
X108263D01*
X59679D02*
X67337Y59943D01*
X59943D02*
X67600Y67600D01*
X54286Y59943D02*
X61943Y67600D01*
X63514Y52200D02*
X68862Y57549D01*
X66342Y52200D02*
X79092Y64950D01*
X57114Y59943D02*
X64772Y67600D01*
X64080Y57543D02*
X69422Y52200D01*
X61251Y57543D02*
X66594Y52200D01*
X53994Y64800D02*
X58851Y59943D01*
X59061Y65389D02*
X64508Y59943D01*
X51457D02*
X55759Y64244D01*
X57666Y63956D02*
X61680Y59943D01*
X55594Y57543D02*
X60937Y52200D01*
X12000Y67200D02*
X55216D01*
X51166Y64800D02*
X56023Y59943D01*
X6449Y67600D02*
X55564D01*
X41062Y59943D02*
X68246D01*
X48629D02*
X53486Y64800D01*
X15176D02*
X55216D01*
X42680D02*
X47538Y59943D01*
X42972D02*
X47829Y64800D01*
X40622Y60421D02*
X45001Y64800D01*
X45801Y59943D02*
X50658Y64800D01*
X45509D02*
X50366Y59943D01*
X39852Y64800D02*
X44709Y59943D01*
X48337Y64800D02*
X53194Y59943D01*
X35035Y57662D02*
X42173Y64800D01*
X41452Y57543D02*
X46795Y52200D01*
X40886D02*
X46229Y57543D01*
X37023Y64800D02*
X41881Y59943D01*
X33621Y59076D02*
X39344Y64800D01*
X28538D02*
X41138Y52200D01*
X28848Y63849D02*
X40497Y52200D01*
X60685D02*
X66028Y57543D01*
X66908D02*
X72251Y52200D01*
X58423Y57543D02*
X63766Y52200D01*
X61804Y44833D02*
X65571Y48600D01*
X62831Y43032D02*
X68399Y48600D01*
X57857Y52200D02*
X63200Y57543D01*
X55028Y52200D02*
X60371Y57543D01*
X56052Y48600D02*
X59726Y44926D01*
X53224Y48600D02*
X58549Y43275D01*
X66411Y40955D02*
X74056Y48600D01*
X67366D02*
X75010Y40955D01*
X64537Y48600D02*
X72182Y40955D01*
X62200Y38555D02*
X84925D01*
X62200Y40955D02*
X80780D01*
X61709Y48600D02*
X69353Y40955D01*
X63583D02*
X71227Y48600D01*
X58880D02*
X66525Y40955D01*
X62607Y42045D02*
X63696Y40955D01*
X59800Y40000D02*
Y41039D01*
X49938Y57543D02*
X55280Y52200D01*
X52200D02*
X57543Y57543D01*
X49372Y52200D02*
X54714Y57543D01*
X52200Y52200D02*
X57543Y57543D01*
X52766D02*
X58109Y52200D01*
X41062Y57543D02*
X68743D01*
X46543Y52200D02*
X51886Y57543D01*
X47109D02*
X52452Y52200D01*
X44281Y57543D02*
X49624Y52200D01*
X39277Y53420D02*
X43400Y57543D01*
X37863Y54834D02*
X39655Y56626D01*
X40497Y52200D02*
X87117D01*
X43715D02*
X49057Y57543D01*
X39200Y48600D02*
X82385D01*
X50395D02*
X59800Y39195D01*
X38200Y38200D02*
X48600Y48600D01*
X39556Y56611D02*
X43967Y52200D01*
X38200Y41028D02*
X45772Y48600D01*
X38200Y38200D02*
X48600Y48600D01*
X39140Y44797D02*
X42943Y48600D01*
X38258Y46743D02*
X40115Y48600D01*
X25710Y64800D02*
X26310Y64200D01*
X27430D02*
X28030Y64800D01*
X24602Y64200D02*
X25202Y64800D01*
X21774Y64200D02*
X22374Y64800D01*
X22881D02*
X23481Y64200D01*
X15784D02*
X28000D01*
X16117D02*
X16717Y64800D01*
X17224D02*
X17824Y64200D01*
X20053Y64800D02*
X20653Y64200D01*
X18945D02*
X19545Y64800D01*
X32206Y60491D02*
X36516Y64800D01*
X31367D02*
X37146Y59020D01*
X30792Y61905D02*
X33687Y64800D01*
X34195D02*
X38325Y60670D01*
X28503Y58800D02*
X38352Y48952D01*
X29378Y63319D02*
X30859Y64800D01*
X8768Y67600D02*
X10335Y66032D01*
X10152Y65848D02*
X11152Y66848D01*
X1551Y63776D02*
X5223Y67449D01*
X5963Y67576D02*
X9800Y63739D01*
Y62000D02*
Y65000D01*
X3838Y66872D02*
X29800Y40911D01*
X2364Y65518D02*
X29800Y38082D01*
X1400Y57969D02*
X11031Y67600D01*
X10152Y61151D02*
X12151Y59152D01*
X7703Y55786D02*
X11610Y59693D01*
X1400Y55140D02*
X9800Y63540D01*
X1400Y60797D02*
X8203Y67600D01*
X5368Y56280D02*
X10196Y61107D01*
X1400Y60826D02*
X5877Y56348D01*
X36449Y56248D02*
X37600Y57399D01*
X26053Y58800D02*
X37901Y46952D01*
X23224Y58800D02*
X35492Y46532D01*
X28650Y48449D02*
X33752Y53551D01*
X26785Y52241D02*
X30924Y56379D01*
X28404Y51032D02*
X32338Y54965D01*
X20396Y58800D02*
X27043Y52153D01*
X28402Y47965D02*
X30326Y46042D01*
X33108Y44422D02*
X37995Y49308D01*
X31838Y45980D02*
X36580Y50722D01*
X33042Y43326D02*
X35800Y40568D01*
X28653Y50543D02*
X35010Y44186D01*
X26781Y46758D02*
X28936Y44603D01*
X32200Y40685D02*
X35257Y43742D01*
X8797Y54052D02*
X13545Y58800D01*
X14739D02*
X23258Y50281D01*
X5923Y48350D02*
X16374Y58800D01*
X17568D02*
X24465Y51902D01*
X13000Y58800D02*
X28503D01*
X1400Y57997D02*
X3933Y55464D01*
X1400Y55169D02*
X3150Y53418D01*
X1400Y49483D02*
X3714Y51797D01*
X1400Y52312D02*
X3220Y54132D01*
X7966Y47564D02*
X19202Y58800D01*
X8848Y45618D02*
X22030Y58800D01*
X1400Y46655D02*
X5448Y50703D01*
X1400Y38170D02*
X5882Y42652D01*
X1400Y49512D02*
X3712Y47200D01*
X1400Y46683D02*
X3222Y44862D01*
X1400Y52340D02*
X5444Y48296D01*
X1400Y40998D02*
X3936Y43534D01*
X1400Y43826D02*
X3150Y45577D01*
X66096Y38555D02*
X79841Y24811D01*
X66626Y24200D02*
X80982Y38555D01*
X63798Y24200D02*
X78154Y38555D01*
X62200Y25430D02*
X75325Y38555D01*
X63268D02*
X77623Y24200D01*
X62200Y36795D02*
X74795Y24200D01*
X62200Y36744D02*
X64011Y38555D01*
X62200Y28259D02*
X72497Y38555D01*
X62200Y31087D02*
X69668Y38555D01*
X62200Y33967D02*
X71967Y24200D01*
X62200Y33916D02*
X66840Y38555D01*
X63053Y21800D02*
X79653Y5200D01*
X65881Y21800D02*
X82481Y5200D01*
X62200Y24200D02*
X79216D01*
X62633Y6064D02*
X78369Y21800D01*
X62200D02*
X79216D01*
X62200Y28310D02*
X66310Y24200D01*
X62200Y25481D02*
X63481Y24200D01*
X62200D02*
Y38555D01*
Y16945D02*
X67055Y21800D01*
X62200Y8460D02*
X75540Y21800D01*
X44738Y48600D02*
X59800Y33538D01*
X38200Y24058D02*
X62742Y48600D01*
X38200Y26886D02*
X59914Y48600D01*
X62200Y31138D02*
X69138Y24200D01*
X62200Y19774D02*
X64226Y21800D01*
X41910Y48600D02*
X59800Y30710D01*
X47567Y48600D02*
X59800Y36367D01*
X39075Y48607D02*
X59800Y27881D01*
X38952Y45901D02*
X59800Y25053D01*
Y23000D02*
Y40000D01*
X38533Y43492D02*
X59800Y22224D01*
X38200Y18401D02*
X59800Y40001D01*
X41656Y16200D02*
X59800Y34344D01*
X38200Y40996D02*
X59800Y19396D01*
Y16784D02*
Y23000D01*
X47313Y16200D02*
X59800Y28687D01*
X38827Y16200D02*
X59800Y37173D01*
X44484Y16200D02*
X59800Y31516D01*
X38200Y38168D02*
X59675Y16693D01*
X52970Y16200D02*
X59800Y23030D01*
X50141Y16200D02*
X59800Y25859D01*
X63149Y15066D02*
X69883Y21800D01*
X64597Y5200D02*
X80348Y20951D01*
X62200Y11288D02*
X72712Y21800D01*
X62693Y13675D02*
X71168Y5200D01*
X63497D02*
X83503D01*
X62200Y11339D02*
X68339Y5200D01*
X62200Y16784D02*
Y21800D01*
Y6497D02*
X63497Y5200D01*
X62200Y6497D02*
Y13216D01*
Y16996D02*
X73996Y5200D01*
X63000Y2800D02*
X84000D01*
X62200Y19825D02*
X76824Y5200D01*
X66454Y1400D02*
X67854Y2800D01*
X65082D02*
X66482Y1400D01*
X62200Y8511D02*
X65511Y5200D01*
X63626Y1400D02*
X65026Y2800D01*
X60797Y1400D02*
X62374Y2977D01*
X58626Y16200D02*
X59800Y17374D01*
X55798Y16200D02*
X59800Y20202D01*
X38784Y13800D02*
X59216D01*
X56911D02*
X59800Y10911D01*
X38784Y16200D02*
X59216D01*
X59800Y6000D02*
Y13216D01*
X54082Y13800D02*
X59800Y8082D01*
X60151Y5152D02*
X62151Y3151D01*
X51254Y13800D02*
X63654Y1400D01*
X48425Y13800D02*
X60826Y1400D01*
X57969D02*
X60936Y4367D01*
X14000Y1400D02*
X116000Y1400D01*
X49483Y1400D02*
X59800Y11717D01*
X52312Y1400D02*
X59800Y8888D01*
X46655Y1400D02*
X59055Y13800D01*
X55140Y1400D02*
X59800Y6060D01*
X38200Y35372D02*
X51428Y48600D01*
X38200Y32543D02*
X54257Y48600D01*
X32200Y37857D02*
X35800Y41457D01*
X33150Y35978D02*
X35800Y38628D01*
X32896Y34986D02*
X35800Y32082D01*
X32200Y41339D02*
X35800Y37739D01*
X32200Y37784D02*
Y42216D01*
Y38511D02*
X35800Y34911D01*
X29800Y37784D02*
Y42216D01*
X38200Y21229D02*
X58848Y41877D01*
X38200Y16784D02*
Y43216D01*
Y29715D02*
X57085Y48600D01*
X38200Y35339D02*
X57339Y16200D01*
X14000Y14000D02*
X35800Y35800D01*
X14000Y22485D02*
X29800Y38285D01*
X35800Y16784D02*
Y43216D01*
X14000Y14000D02*
X35800Y35800D01*
X31195Y33859D02*
X35800Y29254D01*
X14000Y19657D02*
X29187Y34844D01*
X1501Y63553D02*
X28859Y36195D01*
X8848Y53377D02*
X35800Y26425D01*
X1400Y29684D02*
X29509Y57794D01*
X9858Y24000D02*
X29020Y43162D01*
X12686Y24000D02*
X29800Y41114D01*
X7029Y24000D02*
X35166Y52137D01*
X1400Y32513D02*
X27687Y58800D01*
X1400Y26856D02*
X23259Y48715D01*
X1400Y35341D02*
X24859Y58800D01*
X4201Y24000D02*
X27051Y46850D01*
X1400Y24027D02*
X24468Y47096D01*
X5918Y50650D02*
X35800Y20769D01*
X5362Y42722D02*
X46683Y1400D01*
X1400Y43855D02*
X43855Y1400D01*
X1400Y38198D02*
X38198Y1400D01*
X1400Y41026D02*
X41026Y1400D01*
X7964Y51433D02*
X35800Y23597D01*
X8796Y44944D02*
X35800Y17940D01*
X1400Y24000D02*
Y62550D01*
X7700Y43212D02*
X35036Y15875D01*
X1400Y35370D02*
X12770Y24000D01*
X38200Y29682D02*
X51682Y16200D01*
X38200Y26854D02*
X48854Y16200D01*
X38200Y32511D02*
X54511Y16200D01*
X39940Y13800D02*
X52340Y1400D01*
X40998D02*
X53398Y13800D01*
X38200Y24025D02*
X46025Y16200D01*
X38200Y18369D02*
X40369Y16200D01*
X38200Y21197D02*
X43197Y16200D01*
X21199Y1400D02*
X34851Y15052D01*
X43826Y1400D02*
X56226Y13800D01*
X45597D02*
X57997Y1400D01*
X42769Y13800D02*
X55169Y1400D01*
X38170D02*
X50570Y13800D01*
X37875Y13036D02*
X49512Y1400D01*
X32513D02*
X44913Y13800D01*
X35341Y1400D02*
X47741Y13800D01*
X29684Y1400D02*
X42084Y13800D01*
X26856Y1400D02*
X39256Y13800D01*
X24027Y1400D02*
X35826Y13199D01*
X14000Y11172D02*
X35800Y32972D01*
X14000Y8343D02*
X35800Y30143D01*
X14000Y16828D02*
X31022Y33850D01*
X14000Y2686D02*
X35800Y24486D01*
X14000Y5515D02*
X35800Y27315D01*
X1400Y29713D02*
X7113Y24000D01*
X1400Y26884D02*
X4284Y24000D01*
X1400Y32541D02*
X9941Y24000D01*
X14000Y11456D02*
X24056Y1400D01*
X1400Y24000D02*
X14000D01*
Y22770D02*
X35370Y1400D01*
X15542D02*
X35800Y21658D01*
X14000Y19941D02*
X32541Y1400D01*
X18371D02*
X35800Y18829D01*
X14000Y17113D02*
X29713Y1400D01*
X14000Y14284D02*
X26884Y1400D01*
X14000Y8627D02*
X21227Y1400D01*
X14000D02*
Y24000D01*
Y2971D02*
X15571Y1400D01*
X14000Y5799D02*
X18399Y1400D01*
X108000Y34000D02*
X109000Y33000D01*
X113000D01*
X115000Y14000D02*
Y31000D01*
X113000Y33000D02*
X115000Y31000D01*
Y14000D02*
X116500Y12500D01*
X165114Y3666D02*
Y8886D01*
X161500Y12500D02*
X165114Y8886D01*
X116500Y12500D02*
X161500D01*
X180000Y56000D02*
X209000D01*
X178000Y54000D02*
X180000Y56000D01*
X172000Y56500D02*
X174500Y54000D01*
X178000D01*
X111500Y56500D02*
X172000D01*
X108000Y60000D02*
Y63000D01*
Y60000D02*
X111500Y56500D01*
X108000Y44000D02*
X112650D01*
X115500Y34500D02*
X118000D01*
X102655Y44000D02*
X108000D01*
X114000Y36000D02*
Y42650D01*
Y36000D02*
X115500Y34500D01*
X112650Y44000D02*
X114000Y42650D01*
X155500Y34500D02*
X158000Y32000D01*
X152000Y34500D02*
X155500D01*
X158000Y19000D02*
Y32000D01*
X87850Y53150D02*
X115850D01*
X116000Y53000D01*
X84000Y57000D02*
X87850Y53150D01*
X84000Y57000D02*
Y63000D01*
X85000Y64000D01*
X88000D01*
X165114Y14886D02*
X172751Y7248D01*
X189894D02*
X190114Y7469D01*
X172751Y7248D02*
X189894D01*
X165114Y14886D02*
Y27666D01*
X187741Y30000D02*
X188059Y30319D01*
X176000Y30000D02*
X187741D01*
X171114Y17469D02*
Y25114D01*
X176000Y30000D01*
X89720Y9720D02*
X94068D01*
X84000Y4000D02*
X89720Y9720D01*
X63000Y4000D02*
X84000D01*
X61000Y6000D02*
Y15000D01*
Y6000D02*
X63000Y4000D01*
X39278Y58743D02*
X68743D01*
X76150Y66150D01*
X13000Y60000D02*
X29000D01*
X39200Y49800D01*
X11000Y62000D02*
X13000Y60000D01*
X14000Y63000D02*
X28000D01*
X11000Y62000D02*
Y65000D01*
X61000Y40000D02*
Y42681D01*
Y23000D02*
Y40000D01*
X61244Y39755D02*
X86709D01*
X61000Y40000D02*
X61244Y39755D01*
X37000Y15000D02*
Y45000D01*
X61000Y23000D02*
X81000D01*
X40000Y51000D02*
X111000D01*
X28000Y63000D02*
X40000Y51000D01*
X39200Y49800D02*
X96855D01*
X76150Y66150D02*
X109850D01*
X159000Y35000D02*
X182000D01*
X158000Y60000D02*
X199000D01*
X185000Y38000D02*
Y43150D01*
X182000Y35000D02*
X185000Y38000D01*
X92000Y13500D02*
Y28000D01*
X100000Y19000D02*
Y34000D01*
X90000Y44000D02*
X100000Y34000D01*
Y19000D02*
X105000Y14000D01*
Y6000D02*
Y14000D01*
X89095Y46905D02*
X102000Y34000D01*
Y19000D02*
X109000Y12000D01*
X102000Y19000D02*
Y34000D01*
X109000Y6000D02*
Y12000D01*
X201000Y39000D02*
X209000D01*
Y16000D02*
Y30000D01*
X11000Y65000D02*
X12000Y66000D01*
X57000D01*
X96855Y49800D02*
X102655Y44000D01*
X108000Y15000D02*
Y24000D01*
Y15000D02*
X112000Y11000D01*
Y5000D02*
Y11000D01*
X110000Y3000D02*
X112000Y5000D01*
X101000Y3000D02*
X110000D01*
X99000Y5000D02*
X101000Y3000D01*
X99000Y5000D02*
Y8000D01*
X94068Y9720D02*
X97280D01*
X99000Y8000D01*
X92000Y28000D02*
X92800Y28800D01*
X89095Y41906D02*
X92800Y38200D01*
Y28800D02*
Y38200D01*
X83709Y46905D02*
X89095D01*
X82709Y41906D02*
X89095D01*
X86764Y44000D02*
X90000D01*
X86709Y44056D02*
X86764Y44000D01*
X60681Y43000D02*
X61000Y42681D01*
Y15000D02*
Y23000D01*
X37000Y15000D02*
X61000D01*
X31000Y36000D02*
Y44000D01*
D75*
X11500Y39500D02*
D03*
X17000Y3000D02*
D03*
X16000Y6000D02*
D03*
Y10000D02*
D03*
X17000Y26855D02*
D03*
X116000Y53000D02*
D03*
X213000D02*
D03*
X211000Y9000D02*
D03*
X155000Y24000D02*
D03*
X157000Y49000D02*
D03*
X176000Y57000D02*
D03*
X193000Y51000D02*
D03*
X172000Y48000D02*
D03*
X23000Y57000D02*
D03*
X15000D02*
D03*
X35000Y62000D02*
D03*
X75136Y59162D02*
D03*
X102000Y62000D02*
D03*
X39278Y58743D02*
D03*
X14000Y63000D02*
D03*
X37000Y45000D02*
D03*
X87000Y29000D02*
D03*
X81000Y23000D02*
D03*
X109850Y66150D02*
D03*
X88000Y64000D02*
D03*
X89000Y59000D02*
D03*
X159000Y35000D02*
D03*
X158000Y60000D02*
D03*
X108000Y63000D02*
D03*
X199000Y60000D02*
D03*
X97000Y18000D02*
D03*
X92000Y13500D02*
D03*
X209000Y56000D02*
D03*
X185000Y43150D02*
D03*
X158000Y19000D02*
D03*
X161000Y28000D02*
D03*
X201000Y39000D02*
D03*
X209114Y16666D02*
D03*
X165114Y3666D02*
D03*
Y27666D02*
D03*
X190114Y7469D02*
D03*
X183004Y16965D02*
D03*
Y20965D02*
D03*
X177985Y18965D02*
D03*
X188024D02*
D03*
X171114Y17469D02*
D03*
X188059Y30319D02*
D03*
X86709Y44056D02*
D03*
X105000Y6000D02*
D03*
X111000Y51000D02*
D03*
X101709Y41906D02*
D03*
X109000Y6000D02*
D03*
X49000Y63850D02*
D03*
X94068Y9720D02*
D03*
X86709Y39755D02*
D03*
X43614Y37512D02*
D03*
X53614D02*
D03*
X48614D02*
D03*
X43614Y31512D02*
D03*
Y25512D02*
D03*
X48614D02*
D03*
X53614D02*
D03*
Y31512D02*
D03*
X48614D02*
D03*
X31000Y36000D02*
D03*
X57000Y66000D02*
D03*
X61000D02*
D03*
X94000Y3000D02*
D03*
X16000Y37000D02*
D03*
X32000Y4000D02*
D03*
X44000D02*
D03*
X6937Y40000D02*
D03*
X3000Y30000D02*
D03*
Y25000D02*
D03*
X4000Y36000D02*
D03*
X21000D02*
D03*
X26000D02*
D03*
X21000Y27000D02*
D03*
X12000D02*
D03*
X60681Y43000D02*
D03*
X61000Y15000D02*
D03*
X65000Y9000D02*
D03*
X83709Y46905D02*
D03*
X82709Y41906D02*
D03*
X73000Y43000D02*
D03*
X74850Y26000D02*
D03*
X37000Y15000D02*
D03*
X31000Y44000D02*
D03*
X30000Y20000D02*
D03*
X75339Y7559D02*
D03*
X17000Y14000D02*
D03*
X19000Y18000D02*
D03*
Y23000D02*
D03*
D76*
X209000Y30000D02*
D03*
Y39000D02*
D03*
D77*
X108000Y44000D02*
D03*
Y34000D02*
D03*
Y24000D02*
D03*
M02*
