G04*
G04 #@! TF.GenerationSoftware,Altium Limited,Altium Designer,20.2.6 (244)*
G04*
G04 Layer_Physical_Order=1*
G04 Layer_Color=255*
%FSLAX25Y25*%
%MOIN*%
G70*
G04*
G04 #@! TF.SameCoordinates,535AE1F0-9979-4E68-9054-F600688F37C9*
G04*
G04*
G04 #@! TF.FilePolarity,Positive*
G04*
G01*
G75*
%ADD10C,0.01000*%
%ADD15C,0.00600*%
%ADD22R,0.02362X0.02362*%
%ADD23R,0.02362X0.02362*%
%ADD24R,0.01968X0.02362*%
%ADD25R,0.02362X0.01968*%
G04:AMPARAMS|DCode=26|XSize=9.45mil|YSize=23.62mil|CornerRadius=1.98mil|HoleSize=0mil|Usage=FLASHONLY|Rotation=180.000|XOffset=0mil|YOffset=0mil|HoleType=Round|Shape=RoundedRectangle|*
%AMROUNDEDRECTD26*
21,1,0.00945,0.01965,0,0,180.0*
21,1,0.00548,0.02362,0,0,180.0*
1,1,0.00397,-0.00274,0.00983*
1,1,0.00397,0.00274,0.00983*
1,1,0.00397,0.00274,-0.00983*
1,1,0.00397,-0.00274,-0.00983*
%
%ADD26ROUNDEDRECTD26*%
G04:AMPARAMS|DCode=27|XSize=9.45mil|YSize=23.62mil|CornerRadius=1.98mil|HoleSize=0mil|Usage=FLASHONLY|Rotation=90.000|XOffset=0mil|YOffset=0mil|HoleType=Round|Shape=RoundedRectangle|*
%AMROUNDEDRECTD27*
21,1,0.00945,0.01965,0,0,90.0*
21,1,0.00548,0.02362,0,0,90.0*
1,1,0.00397,0.00983,0.00274*
1,1,0.00397,0.00983,-0.00274*
1,1,0.00397,-0.00983,-0.00274*
1,1,0.00397,-0.00983,0.00274*
%
%ADD27ROUNDEDRECTD27*%
%ADD28R,0.01968X0.02756*%
%ADD29C,0.00906*%
%ADD30R,0.18110X0.18110*%
%ADD31O,0.00787X0.03740*%
%ADD32O,0.03740X0.00787*%
G04:AMPARAMS|DCode=33|XSize=75mil|YSize=75mil|CornerRadius=18.75mil|HoleSize=0mil|Usage=FLASHONLY|Rotation=0.000|XOffset=0mil|YOffset=0mil|HoleType=Round|Shape=RoundedRectangle|*
%AMROUNDEDRECTD33*
21,1,0.07500,0.03750,0,0,0.0*
21,1,0.03750,0.07500,0,0,0.0*
1,1,0.03750,0.01875,-0.01875*
1,1,0.03750,-0.01875,-0.01875*
1,1,0.03750,-0.01875,0.01875*
1,1,0.03750,0.01875,0.01875*
%
%ADD33ROUNDEDRECTD33*%
G04:AMPARAMS|DCode=34|XSize=38.98mil|YSize=10.63mil|CornerRadius=1.33mil|HoleSize=0mil|Usage=FLASHONLY|Rotation=180.000|XOffset=0mil|YOffset=0mil|HoleType=Round|Shape=RoundedRectangle|*
%AMROUNDEDRECTD34*
21,1,0.03898,0.00797,0,0,180.0*
21,1,0.03632,0.01063,0,0,180.0*
1,1,0.00266,-0.01816,0.00399*
1,1,0.00266,0.01816,0.00399*
1,1,0.00266,0.01816,-0.00399*
1,1,0.00266,-0.01816,-0.00399*
%
%ADD34ROUNDEDRECTD34*%
G04:AMPARAMS|DCode=35|XSize=38.98mil|YSize=10.63mil|CornerRadius=1.33mil|HoleSize=0mil|Usage=FLASHONLY|Rotation=270.000|XOffset=0mil|YOffset=0mil|HoleType=Round|Shape=RoundedRectangle|*
%AMROUNDEDRECTD35*
21,1,0.03898,0.00797,0,0,270.0*
21,1,0.03632,0.01063,0,0,270.0*
1,1,0.00266,-0.00399,-0.01816*
1,1,0.00266,-0.00399,0.01816*
1,1,0.00266,0.00399,0.01816*
1,1,0.00266,0.00399,-0.01816*
%
%ADD35ROUNDEDRECTD35*%
%ADD36R,0.03150X0.03543*%
G04:AMPARAMS|DCode=37|XSize=25.59mil|YSize=47.24mil|CornerRadius=1.92mil|HoleSize=0mil|Usage=FLASHONLY|Rotation=180.000|XOffset=0mil|YOffset=0mil|HoleType=Round|Shape=RoundedRectangle|*
%AMROUNDEDRECTD37*
21,1,0.02559,0.04341,0,0,180.0*
21,1,0.02175,0.04724,0,0,180.0*
1,1,0.00384,-0.01088,0.02170*
1,1,0.00384,0.01088,0.02170*
1,1,0.00384,0.01088,-0.02170*
1,1,0.00384,-0.01088,-0.02170*
%
%ADD37ROUNDEDRECTD37*%
%ADD38R,0.01772X0.01181*%
G04:AMPARAMS|DCode=39|XSize=17.72mil|YSize=11.81mil|CornerRadius=1.95mil|HoleSize=0mil|Usage=FLASHONLY|Rotation=0.000|XOffset=0mil|YOffset=0mil|HoleType=Round|Shape=RoundedRectangle|*
%AMROUNDEDRECTD39*
21,1,0.01772,0.00791,0,0,0.0*
21,1,0.01382,0.01181,0,0,0.0*
1,1,0.00390,0.00691,-0.00396*
1,1,0.00390,-0.00691,-0.00396*
1,1,0.00390,-0.00691,0.00396*
1,1,0.00390,0.00691,0.00396*
%
%ADD39ROUNDEDRECTD39*%
%ADD41C,0.03098*%
G04:AMPARAMS|DCode=42|XSize=23.62mil|YSize=39.37mil|CornerRadius=2.01mil|HoleSize=0mil|Usage=FLASHONLY|Rotation=0.000|XOffset=0mil|YOffset=0mil|HoleType=Round|Shape=RoundedRectangle|*
%AMROUNDEDRECTD42*
21,1,0.02362,0.03535,0,0,0.0*
21,1,0.01961,0.03937,0,0,0.0*
1,1,0.00402,0.00980,-0.01768*
1,1,0.00402,-0.00980,-0.01768*
1,1,0.00402,-0.00980,0.01768*
1,1,0.00402,0.00980,0.01768*
%
%ADD42ROUNDEDRECTD42*%
G04:AMPARAMS|DCode=43|XSize=51.18mil|YSize=23.62mil|CornerRadius=2.01mil|HoleSize=0mil|Usage=FLASHONLY|Rotation=180.000|XOffset=0mil|YOffset=0mil|HoleType=Round|Shape=RoundedRectangle|*
%AMROUNDEDRECTD43*
21,1,0.05118,0.01961,0,0,180.0*
21,1,0.04717,0.02362,0,0,180.0*
1,1,0.00402,-0.02358,0.00980*
1,1,0.00402,0.02358,0.00980*
1,1,0.00402,0.02358,-0.00980*
1,1,0.00402,-0.02358,-0.00980*
%
%ADD43ROUNDEDRECTD43*%
%ADD44R,0.05906X0.02913*%
%ADD45R,0.02500X0.04000*%
%ADD46R,0.02362X0.02756*%
G04:AMPARAMS|DCode=53|XSize=11.81mil|YSize=11.81mil|CornerRadius=1.95mil|HoleSize=0mil|Usage=FLASHONLY|Rotation=180.000|XOffset=0mil|YOffset=0mil|HoleType=Round|Shape=RoundedRectangle|*
%AMROUNDEDRECTD53*
21,1,0.01181,0.00791,0,0,180.0*
21,1,0.00791,0.01181,0,0,180.0*
1,1,0.00390,-0.00396,0.00396*
1,1,0.00390,0.00396,0.00396*
1,1,0.00390,0.00396,-0.00396*
1,1,0.00390,-0.00396,-0.00396*
%
%ADD53ROUNDEDRECTD53*%
G04:AMPARAMS|DCode=65|XSize=39.37mil|YSize=62.99mil|CornerRadius=1.97mil|HoleSize=0mil|Usage=FLASHONLY|Rotation=0.000|XOffset=0mil|YOffset=0mil|HoleType=Round|Shape=RoundedRectangle|*
%AMROUNDEDRECTD65*
21,1,0.03937,0.05906,0,0,0.0*
21,1,0.03543,0.06299,0,0,0.0*
1,1,0.00394,0.01772,-0.02953*
1,1,0.00394,-0.01772,-0.02953*
1,1,0.00394,-0.01772,0.02953*
1,1,0.00394,0.01772,0.02953*
%
%ADD65ROUNDEDRECTD65*%
%ADD72R,0.12795X0.12795*%
%ADD73C,0.01339*%
%ADD74R,0.04488X0.02264*%
%ADD75C,0.02500*%
G36*
X118000Y24000D02*
X118000Y45000D01*
X152000D01*
X152000Y24000D01*
X118000D01*
D02*
G37*
G36*
X118000Y46000D02*
X118000Y67000D01*
X152000Y67000D01*
X152000Y46000D01*
X118000Y46000D01*
D02*
G37*
G36*
X118000Y2000D02*
X118000Y23000D01*
X152000D01*
X152000Y2000D01*
X118000D01*
D02*
G37*
G36*
X191862Y18335D02*
X190583Y18335D01*
Y19594D01*
X191862Y19594D01*
Y20500D01*
X189008Y20500D01*
Y23000D01*
X177000D01*
Y20500D01*
X174146Y20500D01*
Y19594D01*
X175425Y19594D01*
Y18335D01*
X174146Y18335D01*
Y17429D01*
X177000Y17429D01*
Y14929D01*
X189008D01*
Y17429D01*
X191862Y17429D01*
Y18335D01*
D02*
G37*
D10*
X215996Y62174D02*
G03*
X209000Y69000I-6828J0D01*
G01*
X209172Y0D02*
G03*
X216000Y6828I0J6828D01*
G01*
X6449Y69000D02*
G03*
X0Y62550I0J-6449D01*
G01*
Y6449D02*
G03*
X6449Y0I6449J0D01*
G01*
X216000Y6828D02*
Y62174D01*
X6449Y0D02*
X209172D01*
X6449Y69000D02*
X209000D01*
X0Y6449D02*
Y62550D01*
D15*
X214600Y62172D02*
G03*
X213620Y65283I-5428J0D01*
G01*
X206601Y67600D02*
G03*
X204350Y64875I524J-2725D01*
G01*
X203940Y62260D02*
G03*
X203589Y63108I-1200J0D01*
G01*
X203940Y62260D02*
G03*
X203589Y63108I-1200J0D01*
G01*
X210875Y58350D02*
G03*
X213650Y61125I0J2775D01*
G01*
X204350D02*
G03*
X207125Y58350I2775J0D01*
G01*
X200097Y66600D02*
G03*
X199249Y66952I-848J-848D01*
G01*
X200097Y66600D02*
G03*
X199249Y66952I-848J-848D01*
G01*
X200200Y58216D02*
G03*
X201150Y60000I-1200J1784D01*
G01*
D02*
G03*
X197216Y61200I-2150J0D01*
G01*
Y58800D02*
G03*
X197800Y58216I1784J1200D01*
G01*
X211150Y56000D02*
G03*
X210200Y57784I-2150J0D01*
G01*
X207800D02*
G03*
X211150Y56000I1200J-1784D01*
G01*
X204821Y56181D02*
G03*
X203940Y57260I-1101J0D01*
G01*
X203720Y51545D02*
G03*
X204821Y52646I0J1101D01*
G01*
X201540Y57260D02*
G03*
X200870Y56829I220J-1079D01*
G01*
Y51998D02*
G03*
X201760Y51545I890J648D01*
G01*
X199980D02*
G03*
X200870Y51998I0J1101D01*
G01*
Y56829D02*
G03*
X200200Y57260I-890J-648D01*
G01*
X196919Y52646D02*
G03*
X198020Y51545I1101J0D01*
G01*
X197800Y57260D02*
G03*
X196919Y56181I220J-1079D01*
G01*
X203952Y47249D02*
G03*
X203600Y48097I-1200J0D01*
G01*
X203952Y47249D02*
G03*
X203600Y48097I-1200J0D01*
G01*
X202849Y48849D02*
G03*
X202000Y49200I-848J-848D01*
G01*
X202849Y48849D02*
G03*
X202000Y49200I-848J-848D01*
G01*
X191200Y60000D02*
G03*
X189152Y60848I-1200J0D01*
G01*
X189088Y60786D02*
G03*
X190786Y59088I848J-848D01*
G01*
X190849Y59152D02*
G03*
X191200Y60000I-848J848D01*
G01*
X187200Y57908D02*
G03*
X186848Y58757I-1200J0D01*
G01*
X184705Y66940D02*
G03*
X184288Y67600I-1079J-220D01*
G01*
X183626Y63659D02*
G03*
X184705Y64540I0J1101D01*
G01*
X182468Y60435D02*
G03*
X182116Y61283I-1200J0D01*
G01*
X180551Y62849D02*
G03*
X179702Y63200I-848J-848D01*
G01*
X180551Y62849D02*
G03*
X179702Y63200I-848J-848D01*
G01*
X186497Y59108D02*
G03*
X185649Y59460I-848J-848D01*
G01*
X186497Y59108D02*
G03*
X185649Y59460I-848J-848D01*
G01*
X182468Y60435D02*
G03*
X182116Y61283I-1200J0D01*
G01*
X184705Y59460D02*
G03*
X183626Y60341I-1079J-220D01*
G01*
X187200Y57908D02*
G03*
X186848Y58757I-1200J0D01*
G01*
X186152Y47151D02*
G03*
X187000Y46800I848J848D01*
G01*
X186152Y47151D02*
G03*
X187000Y46800I848J848D01*
G01*
X184803Y48919D02*
G03*
X185152Y48151I1197J81D01*
G01*
X184803Y48919D02*
G03*
X185152Y48151I1197J81D01*
G01*
X182168Y54646D02*
G03*
X182468Y55439I-901J793D01*
G01*
X182168Y54646D02*
G03*
X182468Y55439I-901J793D01*
G01*
X182191Y52016D02*
G03*
X182538Y53000I-1222J984D01*
G01*
D02*
G03*
X182168Y54011I-1569J0D01*
G01*
X180068Y55932D02*
G03*
X179769Y55140I901J-793D01*
G01*
X180068Y55932D02*
G03*
X179769Y55140I901J-793D01*
G01*
X182538Y51032D02*
G03*
X182191Y52016I-1569J0D01*
G01*
X182168Y50020D02*
G03*
X182538Y51032I-1200J1011D01*
G01*
X178969Y49800D02*
G03*
X179728Y50071I0J1200D01*
G01*
X178969Y49800D02*
G03*
X179728Y50071I0J1200D01*
G01*
X208629Y39849D02*
G03*
X207780Y40200I-848J-848D01*
G01*
X209314Y38666D02*
G03*
X208963Y39515I-1200J0D01*
G01*
X209314Y38666D02*
G03*
X208963Y39515I-1200J0D01*
G01*
X208629Y39849D02*
G03*
X207780Y40200I-848J-848D01*
G01*
X201540Y46433D02*
G03*
X200659Y45354I220J-1079D01*
G01*
X204821D02*
G03*
X203951Y46431I-1101J0D01*
G01*
X203720Y40718D02*
G03*
X204821Y41819I0J1101D01*
G01*
X200659D02*
G03*
X200888Y41147I1101J0D01*
G01*
Y41147D02*
G03*
X202033Y37115I112J-2147D01*
G01*
X202784Y40200D02*
G03*
X202292Y40718I-1784J-1200D01*
G01*
X207330Y15466D02*
G03*
X211264Y16666I1784J1200D01*
G01*
D02*
G03*
X207330Y17866I-2150J0D01*
G01*
X209172Y1400D02*
G03*
X214600Y6828I0J5428D01*
G01*
X205963Y1972D02*
G03*
X206314Y2820I-848J848D01*
G01*
X205963Y1972D02*
G03*
X206314Y2820I-848J848D01*
G01*
X197341Y45354D02*
G03*
X196240Y46455I-1101J0D01*
G01*
X194280D02*
G03*
X193179Y45354I0J-1101D01*
G01*
X191587Y44787D02*
G03*
X190738Y44435I0J-1200D01*
G01*
X191587Y44787D02*
G03*
X190738Y44435I0J-1200D01*
G01*
X196240Y40718D02*
G03*
X197341Y41819I0J1101D01*
G01*
X193179D02*
G03*
X194280Y40718I1101J0D01*
G01*
X187150Y43150D02*
G03*
X183216Y44350I-2150J0D01*
G01*
X186887Y42119D02*
G03*
X187150Y43150I-1887J1031D01*
G01*
X188919Y39719D02*
G03*
X189767Y40070I0J1200D01*
G01*
X188919Y39719D02*
G03*
X189767Y40070I0J1200D01*
G01*
X197314Y35469D02*
G03*
X196963Y36317I-1200J0D01*
G01*
X197314Y35469D02*
G03*
X196963Y36317I-1200J0D01*
G01*
X195963Y37317D02*
G03*
X195114Y37669I-848J-848D01*
G01*
X195963Y37317D02*
G03*
X195114Y37669I-848J-848D01*
G01*
X198251Y12532D02*
G03*
X197900Y13380I-1200J0D01*
G01*
X198251Y12532D02*
G03*
X197900Y13380I-1200J0D01*
G01*
X198251Y12532D02*
G03*
X197900Y13380I-1200J0D01*
G01*
X190168Y23380D02*
G03*
X191244Y24261I0J1098D01*
G01*
X192669Y16012D02*
G03*
X192432Y16727I-1200J0D01*
G01*
X191469Y14812D02*
G03*
X192669Y16012I0J1200D01*
G01*
X189926Y15150D02*
G03*
X190760Y14812I835J862D01*
G01*
X191244Y13669D02*
G03*
X190168Y14550I-1077J-217D01*
G01*
X189926Y15150D02*
G03*
X190760Y14812I835J862D01*
G01*
X177809Y64760D02*
G03*
X178909Y63659I1101J0D01*
G01*
X177809Y57279D02*
G03*
X178909Y56179I1101J0D01*
G01*
Y60341D02*
G03*
X177809Y59240I0J-1101D01*
G01*
X177152Y61151D02*
G03*
X178000Y60800I848J848D01*
G01*
X177152Y61151D02*
G03*
X178000Y60800I848J848D01*
G01*
X179769Y54368D02*
G03*
X177989Y54200I-769J-1368D01*
G01*
X176152Y50849D02*
G03*
X175800Y50000I848J-848D01*
G01*
X176152Y50849D02*
G03*
X175800Y50000I848J-848D01*
G01*
X169920Y54785D02*
G03*
X168828Y55876I-1092J0D01*
G01*
Y49352D02*
G03*
X169920Y50444I0J1092D01*
G01*
X177815Y42119D02*
G03*
X178200Y43000I-815J881D01*
G01*
X171848Y45849D02*
G03*
X171000Y46200I-848J-848D01*
G01*
X175800Y43000D02*
G03*
X176185Y42119I1200J0D01*
G01*
X174233Y40070D02*
G03*
X175081Y39719I848J848D01*
G01*
X174233Y40070D02*
G03*
X175081Y39719I848J848D01*
G01*
X171848Y45849D02*
G03*
X171000Y46200I-848J-848D01*
G01*
X168940Y41000D02*
G03*
X167740Y42200I-1200J0D01*
G01*
Y39800D02*
G03*
X168940Y41000I0J1200D01*
G01*
X166653Y55876D02*
G03*
X165870Y55546I0J-1092D01*
G01*
X165870D02*
G03*
X165200Y55871I-783J-762D01*
G01*
X165870Y49682D02*
G03*
X166653Y49352I783J762D01*
G01*
X165200Y49358D02*
G03*
X165870Y49682I-112J1086D01*
G01*
X162130Y49682D02*
G03*
X162800Y49358I783J762D01*
G01*
X158080Y50444D02*
G03*
X159172Y49352I1092J0D01*
G01*
X161347D02*
G03*
X162130Y49682I0J1092D01*
G01*
X164848Y47151D02*
G03*
X165200Y48000I-848J848D01*
G01*
X164848Y47151D02*
G03*
X165200Y48000I-848J848D01*
G01*
X160000Y48200D02*
G03*
X159151Y47848I0J-1200D01*
G01*
X162439Y43170D02*
G03*
X162240Y43800I-1092J0D01*
G01*
X160000Y48200D02*
G03*
X159151Y47848I0J-1200D01*
G01*
X156216Y58800D02*
G03*
X159060Y58129I1784J1200D01*
G01*
Y55871D02*
G03*
X158080Y54785I112J-1086D01*
G01*
X154849Y56151D02*
G03*
X155200Y57000I-848J848D01*
G01*
X154849Y56151D02*
G03*
X155200Y57000I-848J848D01*
G01*
X157151Y45849D02*
G03*
X156800Y45000I848J-848D01*
G01*
X157151Y45849D02*
G03*
X156800Y45000I848J-848D01*
G01*
X164000Y42200D02*
G03*
X162800Y41000I0J-1200D01*
G01*
X164000Y42200D02*
G03*
X162800Y41000I0J-1200D01*
G01*
X165377Y35666D02*
G03*
X165200Y36294I-1200J0D01*
G01*
X165377Y35666D02*
G03*
X165200Y36294I-1200J0D01*
G01*
X161841Y37856D02*
G03*
X162439Y38830I-494J974D01*
G01*
X166914Y28842D02*
G03*
X166084Y29585I-1800J-1176D01*
G01*
X162977Y31666D02*
G03*
X165377Y31666I1200J0D01*
G01*
X156800Y38458D02*
G03*
X157151Y37609I1200J0D01*
G01*
X156800Y38458D02*
G03*
X157151Y37609I1200J0D01*
G01*
X157908Y36852D02*
G03*
X157216Y36200I1092J-1852D01*
G01*
X155000D02*
G03*
X154151Y35849I0J-1200D01*
G01*
X155000Y36200D02*
G03*
X154151Y35849I0J-1200D01*
G01*
X157216Y33800D02*
G03*
X160800Y33824I1784J1200D01*
G01*
X154500Y33300D02*
G03*
X155349Y33652I0J1200D01*
G01*
X154500Y33300D02*
G03*
X155349Y33652I0J1200D01*
G01*
X157151Y29849D02*
G03*
X156800Y29000I848J-848D01*
G01*
X157151Y29849D02*
G03*
X156800Y29000I848J-848D01*
G01*
X177809Y27542D02*
G03*
X176710Y26444I0J-1098D01*
G01*
Y24478D02*
G03*
X176879Y23893I1098J0D01*
G01*
X175248Y14812D02*
G03*
X176082Y15149I0J1200D01*
G01*
X175248Y14812D02*
G03*
X176082Y15149I0J1200D01*
G01*
X173576Y16727D02*
G03*
X174540Y14812I963J-716D01*
G01*
X166033Y29610D02*
G03*
X163170Y26747I-919J-1944D01*
G01*
X173228Y17860D02*
G03*
X172314Y19253I-2114J-391D01*
G01*
X169330Y16269D02*
G03*
X173257Y17288I1784J1200D01*
G01*
X175840Y14550D02*
G03*
X174763Y13669I0J-1098D01*
G01*
Y11269D02*
G03*
X175038Y10735I1077J217D01*
G01*
X164392Y12866D02*
G03*
X163314Y12941I-624J-1200D01*
G01*
Y13648D02*
G03*
X162963Y14497I-1200J0D01*
G01*
X163314Y13648D02*
G03*
X162963Y14497I-1200J0D01*
G01*
X163441Y8778D02*
G03*
X164392Y8891I326J1313D01*
G01*
X163314Y7892D02*
G03*
X163467Y8516I-1200J624D01*
G01*
X162968Y6169D02*
G03*
X163314Y7012I-853J843D01*
G01*
X162968Y6169D02*
G03*
X163314Y7012I-853J843D01*
G01*
X162377Y24666D02*
G03*
X162200Y25294I-1200J0D01*
G01*
Y28000D02*
G03*
X159800Y28000I-1200J0D01*
G01*
X162377Y24666D02*
G03*
X162200Y25294I-1200J0D01*
G01*
X159800Y24843D02*
G03*
X159977Y24216I1200J0D01*
G01*
X159800Y24843D02*
G03*
X159977Y24216I1200J0D01*
G01*
Y16666D02*
G03*
X162377Y16666I1200J0D01*
G01*
X162611Y14849D02*
G03*
X161763Y15200I-848J-848D01*
G01*
X162611Y14849D02*
G03*
X161763Y15200I-848J-848D01*
G01*
X159977Y19845D02*
G03*
X159200Y20784I-1977J-845D01*
G01*
Y17216D02*
G03*
X159977Y18155I-1200J1784D01*
G01*
X156800Y15000D02*
G03*
X157151Y14152I1200J0D01*
G01*
X156800Y15000D02*
G03*
X157151Y14152I1200J0D01*
G01*
X156800Y20784D02*
G03*
X156800Y17216I1200J-1784D01*
G01*
X160616Y11515D02*
G03*
X159849Y11863I-848J-848D01*
G01*
X160914Y12291D02*
G03*
X160805Y11326I1200J-624D01*
G01*
X160814Y8891D02*
G03*
X160914Y7892I1300J-375D01*
G01*
Y7509D02*
G03*
X160568Y6666I853J-843D01*
G01*
X160914Y7509D02*
G03*
X160568Y6666I853J-843D01*
G01*
X158151Y13151D02*
G03*
X159000Y12800I848J848D01*
G01*
X158151Y13151D02*
G03*
X159000Y12800I848J848D01*
G01*
X160616Y11515D02*
G03*
X159849Y11863I-848J-848D01*
G01*
X158352Y7811D02*
G03*
X157503Y8162I-848J-848D01*
G01*
X159031Y6634D02*
G03*
X158679Y7483I-1200J0D01*
G01*
X159031Y6634D02*
G03*
X158679Y7483I-1200J0D01*
G01*
X158352Y7811D02*
G03*
X157503Y8162I-848J-848D01*
G01*
X155200Y12000D02*
G03*
X154849Y12848I-1200J0D01*
G01*
X155200Y12000D02*
G03*
X154849Y12848I-1200J0D01*
G01*
X156631Y3666D02*
G03*
X159031Y3666I1200J0D01*
G01*
X154151Y6151D02*
G03*
X155000Y5800I848J848D01*
G01*
X154151Y6151D02*
G03*
X155000Y5800I848J848D01*
G01*
X108263Y67600D02*
G03*
X107947Y65149I1588J-1450D01*
G01*
D02*
G03*
X109784Y61800I53J-2149D01*
G01*
X107937Y60137D02*
G03*
X107088Y59785I0J-1200D01*
G01*
X107937Y60137D02*
G03*
X107088Y59785I0J-1200D01*
G01*
X102911Y60151D02*
G03*
X103263Y61000I-848J848D01*
G01*
X110030Y52919D02*
G03*
X109762Y49242I970J-1919D01*
G01*
X108814Y51197D02*
G03*
X107077Y52270I-1200J0D01*
G01*
Y53013D02*
G03*
X106846Y53664I-1033J0D01*
G01*
X104661Y48530D02*
G03*
X105247Y48348I586J851D01*
G01*
X104076D02*
G03*
X104661Y48530I0J1033D01*
G01*
X102107Y48348D02*
G03*
X102693Y48530I0J1033D01*
G01*
D02*
G03*
X103279Y48348I586J851D01*
G01*
X103263Y61000D02*
G03*
X101215Y61848I-1200J0D01*
G01*
X101152Y61786D02*
G03*
X102848Y60088I848J-848D01*
G01*
X98197Y66081D02*
G03*
X97848Y66848I-1197J-81D01*
G01*
X98197Y66081D02*
G03*
X97848Y66848I-1197J-81D01*
G01*
X100509Y53664D02*
G03*
X100277Y53013I801J-652D01*
G01*
Y52270D02*
G03*
X99203Y52270I-537J-1073D01*
G01*
Y53013D02*
G03*
X98972Y53664I-1033J0D01*
G01*
X96202Y48348D02*
G03*
X96787Y48530I0J1033D01*
G01*
D02*
G03*
X97373Y48348I586J851D01*
G01*
X108333Y44858D02*
G03*
X108151Y44273I851J-586D01*
G01*
Y45444D02*
G03*
X108333Y44858I1033J0D01*
G01*
X108151Y43475D02*
G03*
X108333Y42890I1033J0D01*
G01*
Y46827D02*
G03*
X108151Y46241I851J-586D01*
G01*
X108333Y42890D02*
G03*
X108151Y42304I851J-586D01*
G01*
X107077Y31541D02*
G03*
X108814Y32614I537J1073D01*
G01*
X108151Y37570D02*
G03*
X108333Y36984I1033J0D01*
G01*
X104661Y35281D02*
G03*
X104076Y35463I-586J-851D01*
G01*
X105247D02*
G03*
X104661Y35281I0J-1033D01*
G01*
X98540Y43874D02*
G03*
X98892Y43025I1200J0D01*
G01*
X98540Y43874D02*
G03*
X98892Y43025I1200J0D01*
G01*
X103279Y35463D02*
G03*
X102693Y35281I0J-1033D01*
G01*
X101310Y35463D02*
G03*
X100724Y35281I0J-1033D01*
G01*
X102693D02*
G03*
X102107Y35463I-586J-851D01*
G01*
X100724Y35281D02*
G03*
X100139Y35463I-586J-851D01*
G01*
X99341D02*
G03*
X98756Y35281I0J-1033D01*
G01*
X98756D02*
G03*
X98170Y35463I-586J-851D01*
G01*
X96787Y35281D02*
G03*
X96202Y35463I-586J-851D01*
G01*
X97373D02*
G03*
X96787Y35281I0J-1033D01*
G01*
X86216Y62800D02*
G03*
X90150Y64000I1784J1200D01*
G01*
D02*
G03*
X89361Y65664I-2150J0D01*
G01*
X90848Y53848D02*
G03*
X90000Y54200I-848J-848D01*
G01*
X66263Y66000D02*
G03*
X65063Y67200I-1200J0D01*
G01*
Y64800D02*
G03*
X66263Y66000I0J1200D01*
G01*
X61000Y67200D02*
G03*
X61000Y64800I0J-1200D01*
G01*
X77000Y53988D02*
G03*
X76648Y54837I-1200J0D01*
G01*
X77000Y53988D02*
G03*
X76648Y54837I-1200J0D01*
G01*
X69849Y63152D02*
G03*
X70197Y63919I-848J848D01*
G01*
X69849Y63152D02*
G03*
X70197Y63919I-848J848D01*
G01*
X95084Y46827D02*
G03*
X95266Y47412I-851J586D01*
G01*
Y46241D02*
G03*
X95084Y46827I-1033J0D01*
G01*
X95084Y44858D02*
G03*
X95266Y45444I-851J586D01*
G01*
Y42304D02*
G03*
X95084Y42890I-1033J0D01*
G01*
X94919Y53924D02*
G03*
X94372Y53013I486J-912D01*
G01*
X90848Y53848D02*
G03*
X90000Y54200I-848J-848D01*
G01*
X95084Y40921D02*
G03*
X95266Y41507I-851J586D01*
G01*
Y44273D02*
G03*
X95084Y44858I-1033J0D01*
G01*
X95084Y42890D02*
G03*
X95266Y43475I-851J586D01*
G01*
Y40336D02*
G03*
X95084Y40921I-1033J0D01*
G01*
X95084Y38953D02*
G03*
X95266Y39538I-851J586D01*
G01*
Y38367D02*
G03*
X95084Y38953I-1033J0D01*
G01*
X95084Y36984D02*
G03*
X95266Y37570I-851J586D01*
G01*
Y36399D02*
G03*
X95084Y36984I-1033J0D01*
G01*
X91614Y33814D02*
G03*
X90766Y33463I0J-1200D01*
G01*
X91614Y33814D02*
G03*
X90766Y33463I0J-1200D01*
G01*
X68849Y46152D02*
G03*
X69197Y46919I-848J848D01*
G01*
X68849Y46152D02*
G03*
X69197Y46919I-848J848D01*
G01*
X67000Y44800D02*
G03*
X67848Y45151I0J1200D01*
G01*
X67000Y44800D02*
G03*
X67848Y45151I0J1200D01*
G01*
X89152Y31848D02*
G03*
X88800Y31000I848J-848D01*
G01*
X89152Y31848D02*
G03*
X88800Y31000I848J-848D01*
G01*
X83950Y32250D02*
G03*
X83599Y33099I-1200J0D01*
G01*
X83950Y32250D02*
G03*
X83599Y33099I-1200J0D01*
G01*
X106846Y30147D02*
G03*
X107077Y30798I-801J652D01*
G01*
X101848Y20214D02*
G03*
X102200Y21063I-848J848D01*
G01*
D02*
G03*
X100152Y21912I-1200J0D01*
G01*
X108849Y18151D02*
G03*
X109197Y18919I-848J848D01*
G01*
X108849Y18151D02*
G03*
X109197Y18919I-848J848D01*
G01*
X87221Y23979D02*
G03*
X86870Y24827I-1200J0D01*
G01*
X87221Y23979D02*
G03*
X86870Y24827I-1200J0D01*
G01*
X100120Y21880D02*
G03*
X101817Y20183I848J-848D01*
G01*
X88800Y20000D02*
G03*
X89152Y19151I1200J0D01*
G01*
X88800Y20000D02*
G03*
X89152Y19151I1200J0D01*
G01*
X115500Y13700D02*
G03*
X114652Y13349I0J-1200D01*
G01*
X115500Y13700D02*
G03*
X114652Y13349I0J-1200D01*
G01*
X114000Y9800D02*
G03*
X114848Y10152I0J1200D01*
G01*
X114000Y9800D02*
G03*
X114848Y10152I0J1200D01*
G01*
X108937Y12200D02*
G03*
X108937Y9800I0J-1200D01*
G01*
X111150Y6000D02*
G03*
X109613Y8061I-2150J0D01*
G01*
X108408Y9290D02*
G03*
X107559Y9641I-848J-848D01*
G01*
X108408Y9290D02*
G03*
X107559Y9641I-848J-848D01*
G01*
X107000Y5211D02*
G03*
X111150Y6000I2000J789D01*
G01*
X93656Y7610D02*
G03*
X96219Y9720I413J2110D01*
G01*
X92789Y7241D02*
G03*
X93638Y7592I0J1200D01*
G01*
X92789Y7241D02*
G03*
X93638Y7592I0J1200D01*
G01*
X92812Y15491D02*
G03*
X90288Y12200I-812J-1991D01*
G01*
X89200Y16000D02*
G03*
X88849Y16849I-1200J0D01*
G01*
X89200Y16000D02*
G03*
X88849Y16849I-1200J0D01*
G01*
X103301Y4682D02*
G03*
X107000Y5211I1698J1318D01*
G01*
X77977Y11483D02*
G03*
X77391Y10514I509J-969D01*
G01*
X75849Y14152D02*
G03*
X76200Y15000I-848J848D01*
G01*
X75849Y14152D02*
G03*
X76200Y15000I-848J848D01*
G01*
X73286Y10514D02*
G03*
X72975Y11278I-1095J0D01*
G01*
X66200Y22000D02*
G03*
X65848Y22849I-1200J0D01*
G01*
X66200Y22000D02*
G03*
X65848Y22849I-1200J0D01*
G01*
X68151Y11849D02*
G03*
X67800Y11000I848J-848D01*
G01*
X68151Y11849D02*
G03*
X67800Y11000I848J-848D01*
G01*
X62200Y13216D02*
G03*
X63147Y14887I-1200J1784D01*
G01*
X77840Y8839D02*
G03*
X77391Y7955I646J-884D01*
G01*
Y9723D02*
G03*
X77840Y8839I1095J0D01*
G01*
X77391Y7163D02*
G03*
X77966Y6200I1095J0D01*
G01*
X79868Y6069D02*
G03*
X80611Y6359I0J1095D01*
G01*
X76539Y7559D02*
G03*
X75339Y8759I-1200J0D01*
G01*
X76539Y7559D02*
G03*
X75339Y8759I-1200J0D01*
G01*
X74179Y6359D02*
G03*
X74490Y5820I1159J310D01*
G01*
X74179Y6359D02*
G03*
X74490Y5820I1159J310D01*
G01*
X80161Y2149D02*
G03*
X81009Y2500I0J1200D01*
G01*
X80161Y2149D02*
G03*
X81009Y2500I0J1200D01*
G01*
X80368Y5150D02*
G03*
X79723Y6069I-1190J-150D01*
G01*
X72711Y8759D02*
G03*
X73286Y9723I-520J963D01*
G01*
X70954Y8628D02*
G03*
X70954Y6491I546J-1068D01*
G01*
X70200Y8813D02*
G03*
X70809Y8628I609J910D01*
G01*
X73286Y5396D02*
G03*
X72711Y6359I-1095J0D01*
G01*
X67800Y6000D02*
G03*
X68151Y5152I1200J0D01*
G01*
X69152Y4152D02*
G03*
X70000Y3800I848J848D01*
G01*
X69152Y4152D02*
G03*
X70000Y3800I848J848D01*
G01*
X67800Y6000D02*
G03*
X68151Y5152I1200J0D01*
G01*
X70302Y3634D02*
G03*
X70652Y2851I1198J66D01*
G01*
X70302Y3634D02*
G03*
X70652Y2851I1198J66D01*
G01*
X71003Y2500D02*
G03*
X71851Y2149I848J848D01*
G01*
X71003Y2500D02*
G03*
X71851Y2149I848J848D01*
G01*
X59150Y66000D02*
G03*
X58436Y67600I-2150J0D01*
G01*
X50471Y65800D02*
G03*
X50708Y65125I1560J169D01*
G01*
X58176Y64200D02*
G03*
X59150Y66000I-1176J1800D01*
G01*
X45151Y65848D02*
G03*
X44800Y65000I848J-848D01*
G01*
X45151Y65848D02*
G03*
X44800Y65000I848J-848D01*
G01*
X49075Y65125D02*
G03*
X48226Y64773I0J-1200D01*
G01*
X49075Y65125D02*
G03*
X48226Y64773I0J-1200D01*
G01*
X48151Y64698D02*
G03*
X48932Y62652I848J-848D01*
G01*
X42254Y57910D02*
G03*
X41902Y57062I848J-848D01*
G01*
X42254Y57910D02*
G03*
X41902Y57062I848J-848D01*
G01*
X40478Y56959D02*
G03*
X41428Y58743I-1200J1784D01*
G01*
D02*
G03*
X38078Y56959I-2150J0D01*
G01*
X35399Y55298D02*
G03*
X34551Y55649I-848J-848D01*
G01*
X35399Y55298D02*
G03*
X34551Y55649I-848J-848D01*
G01*
X35800Y46784D02*
G03*
X38659Y43633I1200J-1784D01*
G01*
X33150Y44000D02*
G03*
X29216Y45200I-2150J0D01*
G01*
Y42800D02*
G03*
X33150Y44000I1784J1200D01*
G01*
X54913Y40623D02*
G03*
X56488Y40623I787J1027D01*
G01*
X53339D02*
G03*
X54913Y40623I787J1027D01*
G01*
X56488D02*
G03*
X57473Y40371I787J1027D01*
G01*
X50189Y40623D02*
G03*
X51764Y40623I787J1027D01*
G01*
D02*
G03*
X53339Y40623I787J1027D01*
G01*
X57473Y40371D02*
G03*
X57726Y39386I1278J-198D01*
G01*
D02*
G03*
X57726Y37811I1027J-787D01*
G01*
Y37811D02*
G03*
X57726Y36236I1027J-787D01*
G01*
X47039Y40623D02*
G03*
X48614Y40623I787J1027D01*
G01*
X45465D02*
G03*
X47039Y40623I787J1027D01*
G01*
X48614D02*
G03*
X50189Y40623I787J1027D01*
G01*
X40740D02*
G03*
X42315Y40623I787J1027D01*
G01*
X43890D02*
G03*
X45465Y40623I787J1027D01*
G01*
X42315D02*
G03*
X43890Y40623I787J1027D01*
G01*
X39755Y40371D02*
G03*
X40740Y40623I198J1278D01*
G01*
X57726Y34661D02*
G03*
X57726Y33087I1027J-787D01*
G01*
Y33087D02*
G03*
X57726Y31512I1027J-787D01*
G01*
Y36236D02*
G03*
X57726Y34661I1027J-787D01*
G01*
X45526Y36297D02*
G03*
X43829Y34600I-848J-848D01*
G01*
X39503Y39386D02*
G03*
X39770Y40173I-1027J787D01*
G01*
Y37024D02*
G03*
X39503Y37811I-1294J0D01*
G01*
Y36236D02*
G03*
X39770Y37024I-1027J787D01*
G01*
Y38598D02*
G03*
X39503Y39386I-1294J0D01*
G01*
Y37811D02*
G03*
X39770Y38598I-1027J787D01*
G01*
X34285Y37398D02*
G03*
X34497Y36236I1238J-375D01*
G01*
X33150Y36000D02*
G03*
X32633Y37398I-2150J0D01*
G01*
X39503Y34661D02*
G03*
X39770Y35449I-1027J787D01*
G01*
D02*
G03*
X39503Y36236I-1294J0D01*
G01*
X39770Y33874D02*
G03*
X39503Y34661I-1294J0D01*
G01*
Y33087D02*
G03*
X39770Y33874I-1027J787D01*
G01*
Y32299D02*
G03*
X39503Y33087I-1294J0D01*
G01*
X34497Y34661D02*
G03*
X34285Y33499I1027J-787D01*
G01*
X34497Y36236D02*
G03*
X34497Y34661I1027J-787D01*
G01*
X29800Y37784D02*
G03*
X33150Y36000I1200J-1784D01*
G01*
X18449Y55649D02*
G03*
X17601Y55298I0J-1200D01*
G01*
X18449Y55649D02*
G03*
X17601Y55298I0J-1200D01*
G01*
X16150Y63000D02*
G03*
X12216Y64200I-2150J0D01*
G01*
Y61800D02*
G03*
X16150Y63000I1784J1200D01*
G01*
X28851Y49500D02*
G03*
X27684Y51800I-2851J0D01*
G01*
X23463Y50800D02*
G03*
X28851Y49500I2537J-1300D01*
G01*
X23449Y47000D02*
G03*
X20249Y44669I-2449J0D01*
G01*
X18449Y52000D02*
G03*
X18358Y52661I-2449J0D01*
G01*
X18827Y53130D02*
G03*
X23135Y50800I2173J-1130D01*
G01*
X16661Y54358D02*
G03*
X18449Y52000I-661J-2358D01*
G01*
Y47000D02*
G03*
X14800Y44865I-2449J0D01*
G01*
X11650Y64875D02*
G03*
X9399Y67600I-2775J0D01*
G01*
X8875Y58350D02*
G03*
X11650Y61125I0J2775D01*
G01*
X2350D02*
G03*
X5125Y58350I2775J0D01*
G01*
X2459Y65644D02*
G03*
X2350Y64875I2666J-769D01*
G01*
X2459Y65644D02*
G03*
X1400Y62559I3991J-3094D01*
G01*
X8827Y45871D02*
G03*
X13449Y47000I2173J1129D01*
G01*
D02*
G03*
X8564Y46746I-2449J0D01*
G01*
X8851Y53500D02*
G03*
X8851Y53500I-2851J0D01*
G01*
X8564Y46746D02*
G03*
X8851Y45500I-2564J-1246D01*
G01*
X22661Y45200D02*
G03*
X23449Y47000I-1661J1800D01*
G01*
X21151Y43152D02*
G03*
X22000Y42800I848J848D01*
G01*
X20249Y44551D02*
G03*
X20601Y43702I1200J0D01*
G01*
X20249Y44551D02*
G03*
X20601Y43702I1200J0D01*
G01*
X21151Y43152D02*
G03*
X22000Y42800I848J848D01*
G01*
X30152Y38849D02*
G03*
X29800Y38000I848J-848D01*
G01*
X30152Y38849D02*
G03*
X29800Y38000I848J-848D01*
G01*
X17200Y44865D02*
G03*
X18449Y47000I-1200J2135D01*
G01*
X16978Y39325D02*
G03*
X17827Y38973I848J848D01*
G01*
X16978Y39325D02*
G03*
X17827Y38973I848J848D01*
G01*
X14800Y42000D02*
G03*
X15152Y41151I1200J0D01*
G01*
X14800Y42000D02*
G03*
X15152Y41151I1200J0D01*
G01*
X57726Y29937D02*
G03*
X57726Y28362I1027J-787D01*
G01*
Y31512D02*
G03*
X57726Y29937I1027J-787D01*
G01*
Y28362D02*
G03*
X57726Y26787I1027J-787D01*
G01*
Y26787D02*
G03*
X57726Y25213I1027J-787D01*
G01*
D02*
G03*
X57726Y23638I1027J-787D01*
G01*
D02*
G03*
X57473Y22652I1027J-787D01*
G01*
X53751Y27575D02*
G03*
X53400Y28423I-1200J0D01*
G01*
X47827Y29524D02*
G03*
X48612Y29817I0J1200D01*
G01*
X53751Y27575D02*
G03*
X53400Y28423I-1200J0D01*
G01*
X57473Y22652D02*
G03*
X56488Y22400I-198J-1278D01*
G01*
D02*
G03*
X54913Y22400I-787J-1027D01*
G01*
D02*
G03*
X53751Y22612I-787J-1027D01*
G01*
X50189Y17395D02*
G03*
X52270Y18421I787J1027D01*
G01*
X51351Y22612D02*
G03*
X50189Y22400I-375J-1238D01*
G01*
D02*
G03*
X48614Y22400I-787J-1027D01*
G01*
Y17395D02*
G03*
X50189Y17395I787J1027D01*
G01*
X45465Y22400D02*
G03*
X43890Y22400I-787J-1027D01*
G01*
X47039D02*
G03*
X45465Y22400I-787J-1027D01*
G01*
X40740D02*
G03*
X39755Y22652I-787J-1027D01*
G01*
X43890Y22400D02*
G03*
X42315Y22400I-787J-1027D01*
G01*
X47039Y17395D02*
G03*
X48614Y17395I787J1027D01*
G01*
Y22400D02*
G03*
X47039Y22400I-787J-1027D01*
G01*
X45465Y17395D02*
G03*
X47039Y17395I787J1027D01*
G01*
X43890D02*
G03*
X45465Y17395I787J1027D01*
G01*
X42315D02*
G03*
X43890Y17395I787J1027D01*
G01*
X42315Y22400D02*
G03*
X40740Y22400I-787J-1027D01*
G01*
Y17395D02*
G03*
X42315Y17395I787J1027D01*
G01*
X38659Y18421D02*
G03*
X40740Y17395I1294J0D01*
G01*
X59216Y13800D02*
G03*
X59800Y13216I1784J1200D01*
G01*
X58200Y13000D02*
G03*
X57890Y13805I-1200J0D01*
G01*
X54501Y14299D02*
G03*
X54852Y13451I1200J0D01*
G01*
X58200Y13000D02*
G03*
X57890Y13805I-1200J0D01*
G01*
X54501Y14299D02*
G03*
X54852Y13451I1200J0D01*
G01*
X39770Y26000D02*
G03*
X39503Y26787I-1294J0D01*
G01*
Y26787D02*
G03*
X39770Y27575I-1027J787D01*
G01*
X39503Y25213D02*
G03*
X39770Y26000I-1027J787D01*
G01*
X39503Y28362D02*
G03*
X39770Y29150I-1027J787D01*
G01*
Y27575D02*
G03*
X39503Y28362I-1294J0D01*
G01*
X39770Y24425D02*
G03*
X39503Y25213I-1294J0D01*
G01*
Y23638D02*
G03*
X39770Y24425I-1027J787D01*
G01*
X32106Y24800D02*
G03*
X31800Y24000I894J-800D01*
G01*
X32106Y24800D02*
G03*
X31800Y24000I894J-800D01*
G01*
X26453Y30350D02*
G03*
X25604Y29998I0J-1200D01*
G01*
X26453Y30350D02*
G03*
X25604Y29998I0J-1200D01*
G01*
X21151Y25546D02*
G03*
X20800Y24697I848J-848D01*
G01*
X21151Y25546D02*
G03*
X20800Y24697I848J-848D01*
G01*
X39770Y22850D02*
G03*
X39503Y23638I-1294J0D01*
G01*
X38361Y13336D02*
G03*
X39150Y15000I-1361J1664D01*
G01*
D02*
G03*
X38200Y16784I-2150J0D01*
G01*
X35081Y14030D02*
G03*
X35800Y13216I1919J970D01*
G01*
X39200Y12000D02*
G03*
X38849Y12849I-1200J0D01*
G01*
X35800Y13000D02*
G03*
X36151Y12152I1200J0D01*
G01*
X35800Y13000D02*
G03*
X36151Y12152I1200J0D01*
G01*
X39200Y12000D02*
G03*
X38849Y12849I-1200J0D01*
G01*
X24618Y11921D02*
G03*
X24969Y12769I-848J848D01*
G01*
X24618Y11921D02*
G03*
X24969Y12769I-848J848D01*
G01*
X18151Y11849D02*
G03*
X17800Y11000I848J-848D01*
G01*
X18151Y11849D02*
G03*
X17800Y11000I848J-848D01*
G01*
Y6000D02*
G03*
X18151Y5152I1200J0D01*
G01*
X17800Y6000D02*
G03*
X18151Y5152I1200J0D01*
G01*
X19151Y4152D02*
G03*
X19919Y3803I848J848D01*
G01*
X19151Y4152D02*
G03*
X19919Y3803I848J848D01*
G01*
X213650Y61125D02*
Y64875D01*
X203000Y67600D02*
X206601D01*
X213650Y63743D02*
X214178Y64271D01*
X213650Y63536D02*
X214583Y62603D01*
X213641Y60906D02*
X214600Y61865D01*
X203929Y67600D02*
X204942Y66588D01*
X204350Y61125D02*
Y64875D01*
X202645Y64052D02*
X204585Y65992D01*
X203917Y62495D02*
X204350Y62929D01*
X213641Y60906D02*
X214600Y61865D01*
X213622Y60735D02*
X214600Y59758D01*
X211099Y55536D02*
X214600Y59036D01*
X210382Y57647D02*
X211094Y58359D01*
X212588Y58942D02*
X214600Y56929D01*
X210382Y57647D02*
X211094Y58359D01*
X203940Y57260D02*
Y62260D01*
X201540Y57260D02*
Y61763D01*
X204233Y57155D02*
X205777Y58699D01*
X203940Y59104D02*
X206858Y56186D01*
X203940Y59690D02*
X204494Y60244D01*
X201231Y65466D02*
X203364Y67600D01*
X201101D02*
X204350Y64351D01*
X184288Y67600D02*
X203000D01*
X199769Y66833D02*
X200536Y67600D01*
X200097Y66600D02*
X203589Y63108D01*
X197059Y66952D02*
X197708Y67600D01*
X198272D02*
X198921Y66952D01*
X191393D02*
X199249D01*
X195017Y62081D02*
X197487Y64552D01*
X195664D02*
X198214Y62001D01*
X191546Y64552D02*
X198751D01*
X201540Y61763D01*
X200303Y61710D02*
X200948Y62355D01*
X198492Y64552D02*
X201540Y61504D01*
X201001Y59214D02*
X201540Y58675D01*
X196965Y61200D02*
X199534Y63769D01*
X195821Y58800D02*
X197216D01*
X195821Y58737D02*
X197441Y57117D01*
X190146Y58755D02*
X199702Y49200D01*
X188018Y49425D02*
X197290Y58697D01*
X210351Y58350D02*
X214600Y54101D01*
X209473Y51081D02*
X214600Y56208D01*
X210893Y54980D02*
X214600Y51272D01*
X211081Y49861D02*
X214600Y53380D01*
X206919Y51081D02*
X211081D01*
X207125Y58350D02*
X207800D01*
X210200D02*
X210875D01*
X204821Y54915D02*
X207800Y57893D01*
X204821Y52646D02*
Y56181D01*
Y55394D02*
X209134Y51081D01*
X204819Y52568D02*
X206919Y50468D01*
X211081Y47032D02*
X214600Y50551D01*
X211081Y46919D02*
Y51081D01*
X209186Y53858D02*
X214600Y48444D01*
X210200Y46919D02*
X211081D01*
X210200Y46151D02*
X210968Y46919D01*
X210200Y46081D02*
Y46919D01*
X206919D02*
Y51081D01*
X204512Y46120D02*
X206919Y48527D01*
X203952Y46466D02*
Y47249D01*
X206919Y46919D02*
X207800D01*
X207301Y46081D02*
X207800Y46580D01*
X206919Y46081D02*
X207800D01*
X201935Y49200D02*
X207353Y54618D01*
X201760Y51545D02*
X203720D01*
X200200Y57260D02*
Y58216D01*
X197800Y57260D02*
Y58216D01*
X198020Y51545D02*
X199980D01*
X203630Y48066D02*
X209464Y53901D01*
X203014Y51545D02*
X206919Y47640D01*
X201935Y49200D02*
X207353Y54618D01*
X202849Y48849D02*
X203600Y48097D01*
X199107Y49200D02*
X201486Y51579D01*
X196278Y49200D02*
X198623Y51545D01*
X188018Y49200D02*
X202000D01*
X187000Y46800D02*
X201503D01*
X194231Y66952D02*
X194879Y67600D01*
X195444D02*
X196092Y66952D01*
X192615Y67600D02*
X193264Y66952D01*
X192835Y64552D02*
X195306Y62081D01*
X192189D02*
X194659Y64552D01*
X195306Y62081D02*
X195821Y61566D01*
X192053Y62081D02*
X195821D01*
X186959Y67600D02*
X187618Y66940D01*
X188563D02*
X189222Y67600D01*
X185734Y66940D02*
X186394Y67600D01*
X191402Y66952D02*
X192051Y67600D01*
X190018Y64540D02*
X192477Y62081D01*
X189787Y67600D02*
X190447Y66940D01*
X195821Y61200D02*
Y62081D01*
X192053Y57919D02*
Y62081D01*
X190901Y60793D02*
X192053Y61945D01*
X187190Y64540D02*
X192053Y59677D01*
X195821Y61200D02*
X197216D01*
X195821Y57919D02*
Y58800D01*
X188081Y55145D02*
X192053Y59117D01*
X186441Y59161D02*
X191831Y64552D01*
X187200Y57092D02*
X189144Y59036D01*
X184705Y66940D02*
X191229D01*
X184705Y64540D02*
X191382D01*
X182413Y60791D02*
X186162Y64540D01*
X178909Y63659D02*
X183626D01*
X179586D02*
X180120Y63125D01*
X181097Y62303D02*
X182453Y63659D01*
X179165Y63200D02*
X179624Y63659D01*
X180551Y62849D02*
X182116Y61283D01*
X184618Y64283D02*
X188755Y60146D01*
X184436Y59985D02*
X188991Y64540D01*
X182414Y63659D02*
X196873Y49200D01*
X184705Y59460D02*
X185649D01*
X182393Y60852D02*
X182904Y60341D01*
X179205Y60800D02*
X179664Y60341D01*
X182468D02*
X183626D01*
X178909D02*
X179664D01*
X192053Y57919D02*
X195821D01*
X193811D02*
X196919Y54811D01*
X187200Y57081D02*
X188081D01*
X188018Y52254D02*
X193683Y57919D01*
X196919Y52646D02*
Y56181D01*
X193450Y49200D02*
X196919Y52669D01*
X188081Y52919D02*
Y57081D01*
X187200D02*
Y57908D01*
X183919Y53081D02*
Y56218D01*
X182468Y56179D02*
X183626D01*
X188018Y49200D02*
Y52919D01*
X182468Y55439D02*
Y56179D01*
X188081Y55164D02*
X194045Y49200D01*
X190621D02*
X196919Y55498D01*
X188018Y52398D02*
X191216Y49200D01*
X194280Y46455D02*
X196240D01*
X183856Y48919D02*
X184803D01*
X183856D02*
Y53081D01*
X183050Y47285D02*
X184683Y48919D01*
X185152Y48151D02*
X186152Y47151D01*
X182433Y55154D02*
X183458Y56179D01*
X182433Y55154D02*
X183919Y53669D01*
X182334Y52226D02*
X183919Y53811D01*
X178909Y56179D02*
X180068D01*
X179769Y54368D02*
Y55140D01*
X182168Y54011D02*
Y54646D01*
X179020Y54569D02*
X179784Y55334D01*
X182401Y52359D02*
X183856Y50904D01*
X182168Y49762D02*
X182850Y49081D01*
X182168D02*
X183050D01*
X182168Y49233D02*
X183856Y50920D01*
X182168Y49081D02*
Y50020D01*
X179265Y49837D02*
X179769Y49334D01*
Y49081D02*
Y50020D01*
X179189Y49081D02*
X179769Y49661D01*
X211081Y49134D02*
X214600Y45615D01*
X211081Y44204D02*
X214600Y47723D01*
X210200Y46081D02*
X211081D01*
X210468Y46919D02*
X214600Y42787D01*
X211081Y41919D02*
Y46081D01*
Y43477D02*
X214600Y39959D01*
X209082Y39376D02*
X214600Y44894D01*
X207800Y46081D02*
Y46919D01*
X207077Y40200D02*
X208796Y41919D01*
X210132Y37598D02*
X214600Y42066D01*
X210132Y34770D02*
X214600Y39237D01*
X209811Y41919D02*
X214600Y37130D01*
X206983Y41919D02*
X214600Y34302D01*
X210132Y35941D02*
X214600Y31473D01*
X210132Y33112D02*
X214600Y28645D01*
X210132Y31941D02*
X214600Y36409D01*
X210132Y34550D02*
Y38550D01*
X214600Y6828D02*
Y62172D01*
X209314Y38550D02*
X210132D01*
Y29113D02*
X214600Y33581D01*
X210132Y26285D02*
X214600Y30752D01*
X210132Y30550D02*
Y34388D01*
X206007Y44787D02*
X206919Y45699D01*
Y44787D02*
Y46081D01*
X200169Y51561D02*
X206919Y44811D01*
X204821Y44787D02*
X206919D01*
X204821Y42387D02*
X206919D01*
Y41919D02*
X211081D01*
X202784Y40200D02*
X207780D01*
X199273Y46800D02*
X200661Y45413D01*
X202292Y40718D02*
X203720D01*
X204249Y40200D02*
X206435Y42387D01*
X204719Y41355D02*
X205873Y40200D01*
X202527Y40718D02*
X203045Y40200D01*
X200719Y36868D02*
X202033Y35555D01*
Y34550D02*
Y37115D01*
X198195Y34146D02*
X200901Y36852D01*
X194007Y40752D02*
X201091Y33669D01*
X200546D02*
X202033Y35156D01*
Y33669D02*
Y34388D01*
X198195Y33669D02*
X202033D01*
X210132Y30284D02*
X214600Y25816D01*
X210132Y23456D02*
X214600Y27924D01*
X210132Y27456D02*
X214600Y22988D01*
X208024Y18519D02*
X214600Y25095D01*
X210576Y18243D02*
X214600Y22267D01*
X211157Y15995D02*
X214600Y19439D01*
X210132Y24627D02*
X214600Y20159D01*
X210132Y26550D02*
Y30388D01*
Y22388D02*
Y26388D01*
X209543Y22388D02*
X214600Y17331D01*
X210861Y15413D02*
X214600Y11674D01*
X207195Y9205D02*
X214600Y16610D01*
X208921Y14525D02*
X214600Y8846D01*
X207195Y6377D02*
X214600Y13782D01*
X207875Y1400D02*
X214600Y8125D01*
X207195Y3548D02*
X214600Y10953D01*
X207195Y10594D02*
X213799Y3990D01*
X207195Y7765D02*
X212455Y2506D01*
X207195Y7550D02*
Y11487D01*
Y3388D02*
Y7325D01*
X211033Y1729D02*
X214271Y4967D01*
X207195Y4937D02*
X210553Y1579D01*
X206195Y19519D02*
X209064Y22388D01*
X206715D02*
X214600Y14503D01*
X206195Y22388D02*
X210132D01*
X206195Y20079D02*
X207861Y18413D01*
X206195Y17866D02*
X207330D01*
X206195Y15466D02*
X207330D01*
X202195Y14451D02*
X206195D01*
Y18613D02*
Y22388D01*
Y14451D02*
Y15466D01*
X201055Y11550D02*
X203955Y14451D01*
X198251Y11575D02*
X201127Y14451D01*
X199132Y11550D02*
X203195D01*
X198195Y14451D02*
X202033D01*
X206648Y11487D02*
X209785Y14623D01*
X206167Y14451D02*
X214547Y6070D01*
X203820Y11487D02*
X207537Y15204D01*
X205308Y1400D02*
X209172D01*
X206314Y2990D02*
X207904Y1400D01*
X203195Y11487D02*
X207195D01*
X203338Y14451D02*
X206302Y11487D01*
X206303Y2656D02*
X207034Y3388D01*
X200510Y14451D02*
X203474Y11487D01*
X206314Y3388D02*
X207195D01*
X197341Y44606D02*
X199535Y46800D01*
X197341Y44606D02*
X199535Y46800D01*
X196445D02*
X200659Y42586D01*
X197341Y41819D02*
Y45354D01*
X200659Y41819D02*
Y45354D01*
X191587Y44787D02*
X193179D01*
X191865D02*
X193878Y46800D01*
X190788D02*
X192801Y44787D01*
X192084Y42387D02*
X193179D01*
X197340Y41777D02*
X200659Y45096D01*
X197341Y43075D02*
X199702Y40714D01*
X195826Y37435D02*
X200659Y42267D01*
X194280Y40718D02*
X196240D01*
X196747Y40841D02*
X198868Y38719D01*
X193232Y37669D02*
X196282Y40719D01*
X192373Y42387D02*
X193213Y41546D01*
X189767Y40070D02*
X192084Y42387D01*
X190404Y37669D02*
X193651Y40916D01*
X190814Y41117D02*
X194262Y37669D01*
X190404D02*
X193651Y40916D01*
X187960Y46800D02*
X190531Y44228D01*
X187133Y42884D02*
X191050Y46800D01*
X186291Y44869D02*
X188221Y46800D01*
X183050Y48881D02*
X189117Y42814D01*
X186887Y42119D02*
X188422D01*
X190738Y44435D01*
X183050Y45081D02*
Y49081D01*
X183081Y44488D02*
X185948Y47355D01*
X183050Y46053D02*
X184033Y45070D01*
X183081Y44350D02*
Y45081D01*
X178919Y42119D02*
Y44919D01*
X187575Y37669D02*
X192293Y42387D01*
X186555Y39719D02*
X188605Y37669D01*
X189316Y39786D02*
X191434Y37669D01*
X184747D02*
X186797Y39719D01*
X182800Y38550D02*
X183969Y39719D01*
X183727D02*
X185777Y37669D01*
X180898Y39719D02*
X182067Y38550D01*
X179971D02*
X181140Y39719D01*
X179033Y34613D02*
Y38550D01*
X183195D01*
X197200Y35980D02*
X199141Y37920D01*
X195963Y37317D02*
X196963Y36317D01*
X197314Y34550D02*
Y35469D01*
X198195Y33669D02*
Y34550D01*
X197314D02*
X198195D01*
X193528Y24261D02*
X194914Y22875D01*
Y22550D02*
Y23972D01*
X194033Y18613D02*
Y22550D01*
X194914D01*
X197681Y14451D02*
X200582Y11550D01*
X197564Y13716D02*
X198299Y14451D01*
X198251Y11550D02*
Y12532D01*
Y11550D02*
X199033D01*
X194033Y14451D02*
Y18388D01*
X197314Y14451D02*
X198033D01*
X194033D02*
X194914D01*
X197314Y13966D02*
X197900Y13380D01*
X194914Y13669D02*
Y14451D01*
X191244Y24261D02*
X194625D01*
X191123Y21418D02*
X193967Y24261D01*
X183195Y37669D02*
X195114D01*
X191086Y23875D02*
X194033Y20927D01*
X192780Y20246D02*
X194033Y21499D01*
X192780Y19594D02*
Y20500D01*
X192740Y19392D02*
X194033Y18099D01*
X183195Y37669D02*
Y38550D01*
X179033Y30669D02*
Y34388D01*
X189926Y22207D02*
X190715Y21418D01*
X189926D02*
X191862Y21418D01*
X189926Y21418D02*
Y23000D01*
X192780Y17429D02*
Y18335D01*
X192777Y17415D02*
X194033Y18671D01*
X192516Y16788D02*
X194033Y15271D01*
X191650Y14826D02*
X192806Y13669D01*
X191860D02*
X194033Y15842D01*
X191244Y13669D02*
X194914D01*
X190760Y14812D02*
X191469D01*
X178497Y63200D02*
X179702D01*
X178000Y60800D02*
X179205D01*
X176897Y64800D02*
X178497Y63200D01*
X178503Y56257D02*
X179769Y54991D01*
X176897Y64800D02*
X177809D01*
X174703Y63600D02*
X177152Y61151D01*
X173988Y63600D02*
X177903Y59685D01*
X177809Y57279D02*
Y59240D01*
X176152Y50849D02*
X177103Y51800D01*
X173888Y54200D02*
X177989D01*
X175822D02*
X178127Y56505D01*
X178887Y49081D02*
X179769D01*
X178887Y44919D02*
Y49081D01*
X178200Y43000D02*
Y49503D01*
X173888Y51800D02*
X177103D01*
X174474D02*
X175870Y50404D01*
X173888Y50923D02*
Y51800D01*
X175800Y43000D02*
Y50000D01*
X171160Y63600D02*
X177886Y56873D01*
X169000Y55863D02*
X175720Y62583D01*
X166081Y63600D02*
X174703D01*
X165862Y55554D02*
X173909Y63600D01*
X170657Y54691D02*
X177134Y61169D01*
X173485Y54691D02*
X177809Y59015D01*
X169920Y54691D02*
X173888D01*
X166081Y58601D02*
X171080Y63600D01*
X166081Y60193D02*
X171583Y54691D01*
X166081Y61429D02*
X168252Y63600D01*
X166653Y55876D02*
X168828D01*
X166081Y57365D02*
X167569Y55876D01*
X168331Y63600D02*
X177731Y54200D01*
X170651Y46200D02*
X176251Y51800D01*
X166081Y63021D02*
X174903Y54200D01*
X172523Y50923D02*
X175800Y47646D01*
X169920Y50698D02*
X175800Y44817D01*
X168437Y49352D02*
X175670Y42119D01*
X169920Y50923D02*
X173888D01*
X167822Y46200D02*
X172545Y50923D01*
X166653Y49352D02*
X168828D01*
X165519Y49441D02*
X168761Y46200D01*
X164994D02*
X168146Y49352D01*
X178200Y45264D02*
X178887Y45951D01*
X178200Y45246D02*
X178919Y44527D01*
X178200Y48092D02*
X178887Y48780D01*
X178200Y48074D02*
X178887Y47387D01*
X177883Y42119D02*
X178919Y43154D01*
X177815Y42119D02*
X178919D01*
X172488Y45209D02*
X175800Y48521D01*
X171848Y45849D02*
X175578Y42119D01*
X175317Y42380D02*
X175807Y42871D01*
X173902Y43795D02*
X175800Y45692D01*
X178070Y39719D02*
X179239Y38550D01*
X175242Y39719D02*
X179033Y35927D01*
X175081Y39719D02*
X188919D01*
X175997Y31747D02*
X179033Y34783D01*
X177747Y30669D02*
X179033Y31955D01*
X173168Y31747D02*
X179033Y37612D01*
X175578Y42119D02*
X176185D01*
X176739Y30669D02*
X179033D01*
X176739D02*
Y31747D01*
X172998D02*
X176739D01*
X170503Y43800D02*
X174233Y40070D01*
X163897Y46200D02*
X171000D01*
X162240Y43800D02*
X170503D01*
X168814Y41535D02*
X170791Y43512D01*
X165504Y43800D02*
X167104Y42200D01*
X166651D02*
X168251Y43800D01*
X164000Y42200D02*
X167740D01*
X165200Y37921D02*
X167079Y39800D01*
X166675D02*
X168728Y37747D01*
X165200Y39800D02*
X167740D01*
X170195Y37259D02*
X173619Y40683D01*
X168822Y40481D02*
X178635Y30669D01*
X168332Y43800D02*
X179033Y33099D01*
X170195Y34431D02*
X175483Y39719D01*
X170340Y31747D02*
X178312Y39719D01*
X170195Y36280D02*
X174728Y31747D01*
X167855Y37747D02*
X172205Y42098D01*
X170195Y33747D02*
Y37747D01*
X166033D02*
X170195D01*
Y33452D02*
X171900Y31747D01*
X170195D02*
X172970D01*
X170195D02*
Y33585D01*
X166081Y60081D02*
Y63600D01*
Y55919D02*
Y59919D01*
X165200Y55919D02*
X166081D01*
X159060Y55871D02*
Y58129D01*
X162800Y48497D02*
Y49358D01*
X159172Y49352D02*
X161347D01*
X165200Y48000D02*
Y49358D01*
X164912Y47220D02*
X165932Y46200D01*
X163897D02*
X164848Y47151D01*
X163807Y42184D02*
X165422Y43800D01*
X162675D02*
X164275Y42200D01*
X160000Y48200D02*
X162503D01*
X161337D02*
X162551Y49414D01*
X159952Y49352D02*
X161104Y48200D01*
X156521Y58440D02*
X159060Y55901D01*
X155198Y56934D02*
X158080Y54052D01*
X154000Y52177D02*
X159060Y57236D01*
X158080Y50444D02*
Y54785D01*
X154000Y55304D02*
X158080Y51223D01*
X155497Y58800D02*
X156216D01*
X155200Y57000D02*
Y58503D01*
X154000Y55005D02*
X157061Y58066D01*
X154349Y55651D02*
X154849Y56151D01*
X154000Y52475D02*
X158889Y47586D01*
X154000Y46520D02*
X158080Y50600D01*
X154000Y49348D02*
X158080Y53429D01*
X157151Y45849D02*
X159151Y47848D01*
X154000Y43691D02*
X159661Y49352D01*
X154000Y49647D02*
X157475Y46172D01*
X154000Y46818D02*
X156800Y44018D01*
X154000Y35700D02*
Y55409D01*
X156800Y38458D02*
Y45000D01*
X154000Y43990D02*
X156800Y41190D01*
X165200Y38447D02*
X166033Y37614D01*
X165200Y36294D02*
Y39800D01*
X165377Y35270D02*
X166033Y35925D01*
X162439Y38830D02*
Y43170D01*
X162800Y36897D02*
Y41000D01*
X162371Y38448D02*
X162800Y38018D01*
X162074Y37623D02*
X162800Y38349D01*
X161841Y37856D02*
X162800Y36897D01*
X166033Y33747D02*
Y37747D01*
Y29610D02*
Y33585D01*
X165377Y32441D02*
X166033Y33097D01*
X166084Y29585D02*
X166914D01*
X165377Y32613D02*
X166033Y31957D01*
X165377Y35441D02*
X166033Y34785D01*
X165377Y31666D02*
Y35666D01*
X162977Y31666D02*
Y32304D01*
X164613Y30548D02*
X165359Y29802D01*
X165538Y29774D02*
X166033Y30269D01*
X157151Y37609D02*
X157908Y36852D01*
X154994Y36200D02*
X156864Y38070D01*
X155497Y33800D02*
X157216D01*
X155000Y36200D02*
X157216D01*
X154000Y41162D02*
X156804Y38357D01*
X154000Y38034D02*
X156800Y40835D01*
X154000Y40863D02*
X156800Y43663D01*
X154000Y38333D02*
X156133Y36200D01*
X157151Y29849D02*
X160800Y33497D01*
X155705Y33800D02*
X158404Y31101D01*
X161515Y30818D02*
X163387Y28946D01*
X161816Y28880D02*
X163568Y30632D01*
X154000Y29549D02*
X157722Y33271D01*
X154000Y32378D02*
X155062Y33440D01*
X154000Y32676D02*
X157005Y29671D01*
X178206Y28269D02*
X178851Y27624D01*
Y27424D02*
Y28035D01*
X176739Y28269D02*
X178617D01*
X177347Y27440D02*
X178175Y28269D01*
X173627Y27191D02*
X176821Y23997D01*
X176739Y27191D02*
Y28269D01*
X173195Y23585D02*
Y27191D01*
X176739D01*
X176710Y24478D02*
Y26444D01*
X173195Y23289D02*
X176812Y26905D01*
X173195Y26117D02*
X174269Y27191D01*
X174153Y21418D02*
X176285Y23550D01*
X176082Y21418D02*
Y23000D01*
X173195Y24795D02*
X176082Y21908D01*
X174153Y21418D02*
X176285Y23550D01*
X174146Y21418D02*
X176082Y21418D01*
X173195Y21966D02*
X173811Y21351D01*
X173228Y19594D02*
Y20500D01*
X173195Y19648D02*
Y23416D01*
X174540Y14812D02*
X175248D01*
X174693D02*
X175177Y14327D01*
X166914Y28842D02*
Y29585D01*
X169314Y23585D02*
X173195D01*
X162377Y23784D02*
X163033Y24440D01*
X172314Y19648D02*
X173195D01*
X172686D02*
X173438Y18895D01*
X169314Y23416D02*
X173195D01*
X162377Y24299D02*
X163033Y23643D01*
Y22747D02*
Y26747D01*
X162200Y27305D02*
X163033Y26472D01*
X162377Y20956D02*
X163033Y21612D01*
Y18747D02*
Y22585D01*
X162377Y21471D02*
X163033Y20815D01*
X169314Y14353D02*
Y16269D01*
X171345Y15331D02*
X172323Y14353D01*
X172745D02*
X173626Y15234D01*
X169917Y14353D02*
X170894Y15330D01*
X162377Y18127D02*
X163033Y18783D01*
Y14585D02*
Y18585D01*
X162182Y16009D02*
X163033Y15158D01*
Y14585D02*
X166914D01*
X166434D02*
X166914Y14105D01*
X162197Y15119D02*
X163033Y15955D01*
X173195Y13669D02*
X174763D01*
X173195Y11269D02*
X174763D01*
X174152Y9849D02*
X175038Y10735D01*
X173599Y9550D02*
X174926Y10877D01*
X173195Y10652D02*
X174079Y9769D01*
X169314Y14353D02*
X173195D01*
Y13669D02*
Y14353D01*
X166914Y13163D02*
Y14585D01*
X169849Y10585D02*
X173195D01*
Y11269D01*
X165601Y12866D02*
X166914Y14179D01*
X173261Y9550D02*
X173933D01*
X173261Y5550D02*
Y9550D01*
X170435Y10585D02*
X173261Y7758D01*
X171106Y1400D02*
X173230Y3524D01*
Y1400D02*
Y5550D01*
X168277Y1400D02*
X173261Y6384D01*
X169849Y8629D02*
X171805Y10585D01*
X169849Y7782D02*
Y10585D01*
X165687Y7782D02*
Y8891D01*
X169849Y8342D02*
X173230Y4961D01*
X167581Y7782D02*
X173230Y2133D01*
X165687Y7782D02*
X169849D01*
X163606Y14585D02*
X165325Y12866D01*
X165601D02*
X166914Y14179D01*
X163314Y13408D02*
X164492Y14585D01*
X164392Y12866D02*
X166617D01*
X164392Y8891D02*
X165687D01*
X163314Y7751D02*
X164455Y8891D01*
X163314Y12941D02*
Y13648D01*
Y7012D02*
Y7892D01*
X163795Y8739D02*
X171134Y1400D01*
X165449D02*
X173261Y9213D01*
X163652Y5260D02*
X166174Y7782D01*
X163652Y2432D02*
X169002Y7782D01*
X163201Y6504D02*
X168306Y1400D01*
X154000D02*
X173230D01*
X162968Y5747D02*
X163652D01*
Y1585D02*
Y5747D01*
Y3225D02*
X165477Y1400D01*
X159883Y1585D02*
X163652D01*
X162200Y26436D02*
X163006Y27242D01*
X162200Y25294D02*
Y28000D01*
X159303Y20710D02*
X159977Y21384D01*
X159200Y27476D02*
X159800Y26876D01*
Y24843D02*
Y28000D01*
X159200Y26264D02*
X159800Y26864D01*
X159200Y24648D02*
X159977Y23871D01*
X159200Y23436D02*
X159977Y24213D01*
X162377Y20666D02*
Y24666D01*
Y16666D02*
Y20666D01*
Y18642D02*
X163033Y17986D01*
X159497Y15200D02*
X161763D01*
X159977Y19845D02*
Y20666D01*
Y16666D02*
Y18155D01*
Y20666D02*
Y24216D01*
X159473Y15224D02*
X160208Y15958D01*
X159200Y16162D02*
X160162Y15200D01*
X159200Y15497D02*
Y17216D01*
Y28503D02*
X162848Y32151D01*
X159200Y20784D02*
Y28503D01*
X154000Y26721D02*
X160800Y33521D01*
X154000Y27019D02*
X156800Y24219D01*
X159200Y21819D02*
X159977Y21042D01*
X154000Y23892D02*
X156800Y26692D01*
X154000Y29848D02*
X156800Y27048D01*
Y20784D02*
Y29000D01*
X154000Y24191D02*
X156800Y21391D01*
X154000Y21362D02*
X155900Y19462D01*
X154000Y18236D02*
X156800Y21035D01*
X154000Y21064D02*
X156800Y23864D01*
X154000Y15706D02*
X157187Y12519D01*
X157151Y14152D02*
X158151Y13151D01*
X156769Y12519D02*
X157776Y13527D01*
X154000Y13591D02*
Y33300D01*
Y18534D02*
X156800Y15734D01*
Y15000D02*
Y17216D01*
X154559Y13138D02*
X156800Y15379D01*
X154000Y15407D02*
X156290Y17697D01*
X159000Y12800D02*
X160914D01*
X159734D02*
X160765Y11769D01*
X159849Y11863D02*
Y12519D01*
X157973Y8066D02*
X158657Y8750D01*
X159031Y6296D02*
X160829Y8094D01*
X159031Y6296D02*
X160829Y8094D01*
X158127Y8750D02*
X160568Y6310D01*
X159883Y5747D02*
X160568D01*
Y6666D01*
X159011Y3447D02*
X159883Y4320D01*
X159031Y3666D02*
Y6634D01*
Y5018D02*
X159883Y4165D01*
Y1585D02*
Y5747D01*
X158530Y2691D02*
X159820Y1400D01*
X155687Y12519D02*
X159849D01*
X155388Y8309D02*
X155828Y8750D01*
X155200Y11677D02*
X155687Y11191D01*
X155200Y8849D02*
X155849Y8200D01*
X156300Y8162D02*
X157503D01*
X155687Y8750D02*
X159849D01*
X154349Y13349D02*
X154849Y12848D01*
X155687Y8750D02*
Y12519D01*
X155200Y8497D02*
Y12000D01*
Y10950D02*
X155687Y11437D01*
X155420Y5800D02*
X156631Y4590D01*
Y3666D02*
Y5762D01*
X154000Y4392D02*
X156992Y1400D01*
X156964D02*
X158050Y2486D01*
X154135Y1400D02*
X156631Y3896D01*
X154000Y1400D02*
Y6303D01*
X155000Y5800D02*
X155739D01*
X154135Y1400D02*
X156631Y3896D01*
X154000Y4093D02*
X155707Y5800D01*
X108919Y61018D02*
X110857D01*
X109101D02*
X109883Y61800D01*
X110075D02*
X110857Y61018D01*
X108220Y60137D02*
X108919Y60836D01*
Y60137D02*
Y61018D01*
X107937Y60137D02*
X108919D01*
X104934Y67600D02*
X107455Y65080D01*
X103250Y60824D02*
X105904Y63477D01*
X104081Y58826D02*
X106613Y61358D01*
X102106Y67600D02*
X105977Y63728D01*
X101759Y62161D02*
X107198Y67600D01*
X103247Y60802D02*
X105676Y58373D01*
X101508Y59081D02*
X102176Y59750D01*
X108919Y52919D02*
X110030D01*
X108919D02*
Y53800D01*
X107420D02*
X109141Y52080D01*
X106846Y53800D02*
X108919D01*
X107037Y53297D02*
X107540Y53800D01*
X108814Y49174D02*
Y51197D01*
X108535Y51966D02*
X109487Y52919D01*
X107077Y52270D02*
Y53013D01*
X104081Y56778D02*
Y59081D01*
Y56778D02*
X107088Y59785D01*
X104350Y48385D02*
X105421Y47315D01*
X99081Y62312D02*
X104370Y67600D01*
X99081Y64968D02*
X101865Y62184D01*
X99277Y67600D02*
X107090Y59787D01*
X97097Y67600D02*
X108263D01*
X99081Y65140D02*
X101541Y67600D01*
X99081Y62139D02*
X102139Y59081D01*
X99919D02*
X104081D01*
X98197Y66081D02*
X99081D01*
X97903Y66790D02*
X98713Y67600D01*
X97097D02*
X97848Y66848D01*
X99081Y59483D02*
X100839Y61241D01*
X99081Y59311D02*
X99919Y58473D01*
X99081Y62081D02*
Y66081D01*
Y58081D02*
Y61919D01*
X100509Y53664D02*
Y54919D01*
X100277Y52270D02*
Y53013D01*
X98972Y53717D02*
X100174Y54919D01*
X98972Y53764D02*
X100277Y52458D01*
X100940Y47200D02*
X102088Y48348D01*
X100940Y44372D02*
X104958Y48389D01*
X100940Y44371D02*
Y48417D01*
X99919Y54919D02*
Y59081D01*
X99081Y56655D02*
X99919Y57492D01*
X99081Y53919D02*
Y57919D01*
Y56482D02*
X99919Y55645D01*
X99203Y52270D02*
Y53013D01*
X98540Y43874D02*
Y48417D01*
X103406Y41906D02*
X108331Y46830D01*
X112073Y40474D02*
X112800D01*
X104174Y41137D02*
X108220D01*
X106191D02*
X108204Y43150D01*
X107118Y45617D02*
X108188Y44547D01*
X108151Y45444D02*
Y46241D01*
Y43475D02*
Y44273D01*
X105247Y48348D02*
X106044D01*
X103768Y41543D02*
X108151Y45926D01*
X105703Y44203D02*
X108151Y41756D01*
Y41507D02*
Y42304D01*
X103406Y41906D02*
X104174Y41137D01*
X104289Y42789D02*
X105941Y41137D01*
X112800Y39400D02*
Y40474D01*
X112261D02*
X112800Y39935D01*
X112073Y39400D02*
X112800D01*
X109184Y34569D02*
X111871D01*
X109681D02*
X110776Y33473D01*
X108814Y32607D02*
X109362Y32059D01*
X115388Y31691D02*
X116000Y31078D01*
X108800Y32433D02*
X110936Y34569D01*
X106574Y38737D02*
X108220D01*
X108151Y37570D02*
Y38367D01*
X106574Y38737D02*
X108331Y36981D01*
X108814Y32614D02*
Y34637D01*
X107077Y30798D02*
Y31541D01*
X105247Y35463D02*
X106044D01*
X103279Y48348D02*
X104076D01*
X101559D02*
X104006Y45900D01*
X101709Y43603D02*
X106414Y48308D01*
X101310Y48348D02*
X102107D01*
X100940Y46138D02*
X102592Y44486D01*
X102829Y39088D02*
X106414Y35503D01*
X101310Y35463D02*
X102107D01*
X100940Y44371D02*
X101709Y43603D01*
X100860Y41057D02*
X102829Y39088D01*
X95902Y48348D02*
X98540Y45710D01*
X97373Y48348D02*
X98170D01*
X95263Y44351D02*
X98540Y47628D01*
X95266Y41526D02*
X98540Y44800D01*
X98892Y43025D02*
X100860Y41057D01*
X95225Y38656D02*
X99243Y42674D01*
X95266Y35869D02*
X100657Y41260D01*
X103345Y35463D02*
X104900Y37017D01*
X97689Y35463D02*
X102071Y39846D01*
X100464Y35410D02*
X103486Y38432D01*
X95266Y46155D02*
X105958Y35463D01*
X95257Y43336D02*
X103139Y35454D01*
X103279Y35463D02*
X104076D01*
X99341D02*
X100139D01*
X95266Y37670D02*
X97473Y35463D01*
X95251Y40514D02*
X100317Y35447D01*
X97373Y35463D02*
X98170D01*
X92592Y65800D02*
X94919Y63473D01*
X90063Y64607D02*
X91256Y65800D01*
X94919Y62081D02*
Y65800D01*
X89497D02*
X94919D01*
X89763D02*
X94919Y60645D01*
Y58081D02*
Y61919D01*
X89843Y62892D02*
X94919Y57816D01*
X85640Y57356D02*
X94084Y65800D01*
X85640Y61084D02*
Y62800D01*
Y60184D02*
X87393Y61937D01*
X80690Y61084D02*
X81309D01*
X85640D01*
X84168Y55572D02*
X85640D01*
Y60916D01*
X80690Y61084D02*
X81309D01*
X80690Y60916D02*
X85640D01*
X88141Y54200D02*
X94919Y60978D01*
X88056Y61851D02*
X94919Y54988D01*
X85640Y61438D02*
X94372Y52707D01*
X85313Y54200D02*
X94919Y63806D01*
X85640Y58610D02*
X90051Y54199D01*
X94919Y53924D02*
Y57919D01*
X92147Y52549D02*
X94919Y55321D01*
X90725Y53956D02*
X94919Y58149D01*
X84168Y55081D02*
X85050D01*
X80690Y55572D02*
Y60916D01*
X85640Y55781D02*
X87221Y54200D01*
X80690Y55572D02*
X81769D01*
X77577Y52121D02*
X81028Y55572D01*
X85050Y54200D02*
Y55081D01*
Y54200D02*
X90000D01*
X80887Y55081D02*
X81769D01*
X80887Y51200D02*
Y55081D01*
X66239Y66239D02*
X66919Y66919D01*
X66239Y66239D02*
X66919Y66919D01*
Y64200D02*
Y67600D01*
X65336D02*
X66919Y66017D01*
X75081Y64768D02*
X76125D01*
X75081Y63887D02*
Y64768D01*
X70197Y63919D02*
X70919D01*
Y63887D02*
X75081D01*
X61000Y67200D02*
X65063D01*
X65287Y64821D02*
X65908Y64200D01*
X61000Y64800D02*
X65063D01*
X64200Y64200D02*
X64800Y64800D01*
X64200Y64200D02*
X64800Y64800D01*
X61372Y64200D02*
X61972Y64800D01*
X62479D02*
X63079Y64200D01*
X77509Y61084D02*
X80690Y57902D01*
X76360Y61084D02*
X80690D01*
X74228Y57257D02*
X78055Y61084D01*
X71877Y63887D02*
X80887Y54877D01*
X69817Y63120D02*
X80887Y52049D01*
X76952Y54325D02*
X80690Y58063D01*
X75642Y55843D02*
X80690Y60891D01*
X76360Y61084D02*
Y64534D01*
X74706Y63887D02*
X76360Y62233D01*
X71399Y60086D02*
X76082Y64768D01*
X69985Y61500D02*
X72373Y63887D01*
X72814Y58672D02*
X76360Y62218D01*
X69091Y62394D02*
X69849Y63152D01*
X69091Y62394D02*
X76648Y54837D01*
X95404Y48348D02*
X96202D01*
X95266Y47412D02*
Y48210D01*
X95232Y47149D02*
X96466Y48382D01*
X95266Y45444D02*
Y46241D01*
Y41507D02*
Y42304D01*
X94372Y52397D02*
Y53013D01*
X92300Y52397D02*
X94372D01*
X90848Y53848D02*
X92300Y52397D01*
X95266Y43475D02*
Y44273D01*
Y39538D02*
Y40336D01*
Y37570D02*
Y38367D01*
Y35601D02*
Y36399D01*
X95404Y35463D02*
X96202D01*
X93211Y33814D02*
X93966Y34569D01*
X92711D02*
X93465Y33814D01*
X94372D02*
Y34430D01*
X90601Y34569D02*
X94233D01*
X89745Y34705D02*
X90884Y33567D01*
X91614Y33814D02*
X94372D01*
X89152Y31848D02*
X90766Y33463D01*
X78497Y51200D02*
X80887D01*
X77000Y52697D02*
Y53988D01*
X79484Y51200D02*
X80887Y52603D01*
X77000Y52697D02*
X78497Y51200D01*
X77000Y53108D02*
X78908Y51200D01*
X69853Y46919D02*
Y48648D01*
X72486Y41373D02*
X74708Y43595D01*
X69853Y47225D02*
X70465Y47838D01*
X69197Y46919D02*
X69853D01*
X69054Y46427D02*
X69546Y46919D01*
X67848Y45151D02*
X68849Y46152D01*
X66081Y43454D02*
X67573Y44946D01*
X66081Y44800D02*
X67000D01*
X66081Y41373D02*
Y44800D01*
X81992Y34705D02*
X90087D01*
X83779Y32867D02*
X85617Y34705D01*
X86917D02*
X89463Y32160D01*
X70152Y48151D02*
X76935Y41368D01*
X81992Y34705D02*
X83599Y33099D01*
X69181Y46785D02*
X74592Y41373D01*
X67917Y45220D02*
X71764Y41373D01*
X69657D02*
X73294Y45009D01*
X66081Y44228D02*
X68936Y41373D01*
X66829D02*
X71879Y46424D01*
X75314Y41373D02*
X76122Y42181D01*
X74932Y32674D02*
X76800Y30806D01*
X66081Y41373D02*
X76827D01*
X72081Y32674D02*
X74932D01*
X113973Y30276D02*
X116000Y28250D01*
X113200Y29503D02*
X116000Y32303D01*
X114081Y26400D02*
X116000Y28319D01*
X113200Y28347D02*
X116000Y31147D01*
X113200Y28221D02*
X116000Y25421D01*
X114081Y23571D02*
X116000Y25490D01*
X114081Y24512D02*
X116000Y22593D01*
X113200Y27018D02*
X114081D01*
X110081Y22856D02*
X114081D01*
X107077Y31516D02*
X107948Y30645D01*
X107073Y30705D02*
X107796Y31428D01*
X106846Y29543D02*
X111871Y34569D01*
X106846Y29543D02*
Y30147D01*
X113200Y27018D02*
Y29503D01*
X114081Y22856D02*
Y27018D01*
X110081Y22400D02*
X110537Y22856D01*
X101393Y22197D02*
X102115Y22919D01*
X112909Y22856D02*
X116000Y19764D01*
X110081Y19571D02*
X113366Y22856D01*
X116000Y13700D02*
Y32303D01*
X110081Y22855D02*
X116000Y16936D01*
X107081Y13743D02*
X116000Y22662D01*
X109197Y18919D02*
X110081D01*
Y20027D02*
X116000Y14108D01*
X108977Y18303D02*
X114291Y12988D01*
X107081Y10915D02*
X116000Y19833D01*
X102800Y19497D02*
Y22919D01*
X110081Y18919D02*
Y22856D01*
X101532Y22919D02*
X102800Y21651D01*
X101607Y20015D02*
X102463Y19160D01*
X100353Y17050D02*
X102800Y19497D01*
X95081Y22919D02*
X98919D01*
X86956Y24731D02*
X88800Y26575D01*
X98703Y22919D02*
X99952Y21670D01*
X84133Y27564D02*
X91137Y34569D01*
X85547Y26150D02*
X88800Y29403D01*
X99081Y22919D02*
X102800D01*
X91204Y20493D02*
X93598Y22887D01*
X91200D02*
X95081D01*
X91200Y20497D02*
Y22887D01*
X84088Y34705D02*
X88800Y29994D01*
X83950Y30210D02*
X88446Y34705D01*
X83950Y32016D02*
X88800Y27166D01*
X83950Y27747D02*
X86870Y24827D01*
X83950Y29187D02*
X88800Y24337D01*
X87221Y22167D02*
X88800Y23746D01*
X87221Y23088D02*
X88800Y21509D01*
X95875Y22919D02*
X101048Y17745D01*
X94032Y17665D02*
X99287Y22919D01*
X93078Y22887D02*
X98916Y17050D01*
X92618Y19079D02*
X96458Y22919D01*
X91200Y21937D02*
X96087Y17050D01*
X99075D02*
X102800Y20775D01*
X91200Y20497D02*
X94647Y17050D01*
X96246D02*
X99835Y20639D01*
X88800Y20000D02*
Y31000D01*
X87221Y18476D02*
Y23979D01*
Y19339D02*
X88800Y20918D01*
X87221Y20259D02*
X91837Y15644D01*
X89152Y19151D02*
X92812Y15491D01*
X88204Y17493D02*
X89507Y18796D01*
X87221Y18476D02*
X88849Y16849D01*
X115524Y13700D02*
X116000Y14176D01*
X111195Y12200D02*
X116000Y17005D01*
X113503Y12200D02*
X114652Y13349D01*
X114848Y10152D02*
X115997Y11300D01*
X108937Y9800D02*
X114000D01*
X107081Y16384D02*
X108849Y18151D01*
X107081Y13081D02*
Y16384D01*
X107574Y16877D02*
X112251Y12200D01*
X107081Y14541D02*
X109422Y12200D01*
X107081Y9641D02*
Y12919D01*
X108937Y12200D02*
X113503D01*
X108344Y9349D02*
X108803Y9808D01*
X107081Y11713D02*
X107738Y11056D01*
X111822Y9800D02*
X116000Y5622D01*
X114528Y9922D02*
X116000Y8451D01*
Y1400D02*
Y11300D01*
X111102Y6450D02*
X114631Y9980D01*
X108994Y9800D02*
X116000Y2794D01*
X111709Y1400D02*
X116000Y5691D01*
X114537Y1400D02*
X116000Y2863D01*
X108880Y1400D02*
X116000Y8520D01*
X110924Y5041D02*
X114566Y1400D01*
X109814Y7990D02*
X111624Y9800D01*
X108408Y9290D02*
X109485Y8212D01*
X109270Y3867D02*
X111737Y1400D01*
X106052D02*
X108550Y3898D01*
X106135Y4174D02*
X108909Y1400D01*
X97553Y7372D02*
Y9509D01*
X96217Y9800D02*
X97553D01*
X95958Y8694D02*
X97553Y7099D01*
X94647Y17050D02*
X100353D01*
X101124Y4682D02*
X103301D01*
X97553Y4391D02*
Y6950D01*
X89200Y15661D02*
X90921Y17382D01*
X89200Y15050D02*
Y16000D01*
X89786Y12491D02*
Y15050D01*
Y7241D02*
X92789D01*
X86214Y6950D02*
X89786D01*
X81919Y5916D02*
X86081D01*
X102798Y4682D02*
X106080Y1400D01*
X100395D02*
X103477Y4482D01*
X94246Y7578D02*
X100424Y1400D01*
X100261Y4391D02*
X103252Y1400D01*
X97567D02*
X100558Y4391D01*
X103224Y1400D02*
X105848Y4024D01*
X97553Y4391D02*
X101124D01*
X94738Y1400D02*
X97729Y4391D01*
X91754Y7241D02*
X97595Y1400D01*
X89081D02*
X97481Y9800D01*
X91910Y1400D02*
X97553Y7043D01*
X86081Y4057D02*
X88975Y6950D01*
X86253Y1400D02*
X92094Y7241D01*
X86388Y6950D02*
X91938Y1400D01*
X89216Y6950D02*
X94767Y1400D01*
X85534Y2147D02*
X86281Y1400D01*
X86081Y4429D02*
X89110Y1400D01*
X83950Y27747D02*
Y32250D01*
X74806Y32674D02*
X76800Y30680D01*
Y25497D02*
Y30806D01*
X73144Y27889D02*
X76430Y31176D01*
X73144Y25061D02*
X76800Y28717D01*
X73144Y21841D02*
X76800Y25497D01*
X76200Y17800D02*
X77116D01*
X73144Y28679D02*
X76563Y25260D01*
X73144Y22232D02*
X76800Y25888D01*
X73144Y24968D02*
Y25804D01*
Y24968D02*
Y25804D01*
Y21841D02*
Y24968D01*
Y25804D02*
Y29032D01*
Y25851D02*
X75149Y23846D01*
X73144Y23022D02*
X73735Y22432D01*
X72651Y21740D02*
X73144Y22232D01*
X72081Y21740D02*
X73043D01*
X72151Y20849D02*
X73043Y21740D01*
X77116Y13394D02*
X77591Y12919D01*
X77116Y17081D02*
Y17800D01*
Y12919D02*
X77977D01*
X76064Y14446D02*
X77116Y13394D01*
X74689Y12992D02*
X77391Y10290D01*
X77977Y11483D02*
Y12919D01*
X73813Y8759D02*
X77973Y12919D01*
X73275Y11578D02*
X77391Y7462D01*
X76200Y16803D02*
X77116Y17719D01*
X76200Y15000D02*
Y17800D01*
X77116Y12919D02*
Y16919D01*
X76200Y17138D02*
X77116Y16222D01*
X73189Y10964D02*
X77116Y14890D01*
X72975Y11278D02*
X75849Y14152D01*
X72081Y29032D02*
X73144D01*
X72081Y29742D02*
X72792Y29032D01*
X72081Y32571D02*
X76800Y27852D01*
X72081Y29655D02*
X75016Y32590D01*
X72081Y29032D02*
Y32674D01*
Y21169D02*
X72651Y21740D01*
X72081Y20772D02*
Y21740D01*
X66856D02*
X67919D01*
Y17919D02*
X71800D01*
X66856Y21740D02*
Y23225D01*
X66200Y19050D02*
Y22000D01*
X65472Y23225D02*
X66856D01*
X66200Y20945D02*
X66995Y21740D01*
X67081Y18998D02*
X67919Y19836D01*
X66200Y21481D02*
X67919Y19762D01*
X66200Y19050D02*
X67081D01*
X69762Y17919D02*
X71800Y15881D01*
X67081Y16169D02*
X68831Y17919D01*
X71800Y15497D02*
Y17919D01*
X67081Y17772D02*
X70578Y14275D01*
X62200Y8460D02*
X71659Y17919D01*
X68151Y11849D02*
X71800Y15497D01*
X67081Y14943D02*
X69164Y12861D01*
X67919Y17919D02*
Y21740D01*
X67081Y14887D02*
Y19050D01*
X64309Y14887D02*
X67851Y11345D01*
X63147Y14887D02*
X67081D01*
X62200Y11288D02*
X65799Y14887D01*
X62693Y13675D02*
X67800Y8568D01*
X62200Y6081D02*
Y13216D01*
Y11339D02*
X67838Y5701D01*
X86081Y6084D02*
Y7241D01*
X76539Y7166D02*
X77504Y6200D01*
X81919Y6084D02*
X86081D01*
X81322Y6359D02*
X81919Y5762D01*
X80611Y6359D02*
X81919D01*
X76237Y8355D02*
X77409Y9527D01*
X77391Y9723D02*
Y10514D01*
X73286Y9723D02*
Y10514D01*
X77391Y7163D02*
Y7955D01*
X73286Y5404D02*
X74193Y6311D01*
X81919Y2147D02*
Y2863D01*
Y5263D02*
Y5916D01*
X86081Y2147D02*
Y5916D01*
X80875Y5263D02*
X81919D01*
X80596Y1400D02*
X81919Y2723D01*
X82706Y2147D02*
X83453Y1400D01*
X83425D02*
X84172Y2147D01*
X81919D02*
X86081D01*
X79876Y2149D02*
X80625Y1400D01*
X73286Y4604D02*
Y5396D01*
X74490Y5820D02*
X75761Y4549D01*
X77047Y2149D02*
X77796Y1400D01*
X77768D02*
X78516Y2149D01*
X74219D02*
X74968Y1400D01*
X74939D02*
X75688Y2149D01*
X72711Y8759D02*
X75339D01*
X70200Y7975D02*
X70853Y8628D01*
X72837Y6359D02*
X74647Y4549D01*
X73284D02*
X75761D01*
X72711Y6359D02*
X74179D01*
X70200Y6497D02*
Y8813D01*
X67800Y6000D02*
Y11000D01*
X62200Y6081D02*
X63081D01*
X62650D02*
X67829Y11260D01*
X68151Y5152D02*
X69152Y4152D01*
X69701Y3838D02*
X70495Y3044D01*
X69282Y1400D02*
X70693Y2810D01*
X71851Y2149D02*
X80161D01*
X72111Y1400D02*
X72859Y2149D01*
X71196Y2344D02*
X72139Y1400D01*
X63081Y3684D02*
X67800Y8403D01*
X63081Y1919D02*
Y6081D01*
X63626Y1400D02*
X67858Y5632D01*
X62200Y8511D02*
X69311Y1400D01*
X63081Y4801D02*
X66482Y1400D01*
X63081Y1973D02*
X63654Y1400D01*
X66454Y1400D02*
X69179Y4125D01*
X60307Y1919D02*
X60826Y1400D01*
X60797D02*
X61316Y1919D01*
X58436Y67600D02*
X66919D01*
X59679D02*
X60303Y66977D01*
X58543Y64200D02*
X59889Y65546D01*
X59061Y65389D02*
X60251Y64200D01*
X49075Y65125D02*
X50708D01*
X58176Y64200D02*
X66919D01*
X45151Y65848D02*
X46903Y67600D01*
X45537D02*
X46220Y66917D01*
X42709Y67600D02*
X44879Y65429D01*
X48497Y65800D02*
X50471D01*
X47200Y64503D02*
X48497Y65800D01*
X47200Y64171D02*
X48829Y65800D01*
X47200Y60988D02*
Y64503D01*
X44800Y60457D02*
Y65000D01*
X40622Y60421D02*
X44800Y64599D01*
X47200Y63109D02*
X48260Y62049D01*
X47200Y61342D02*
X48583Y62725D01*
X47200Y60988D02*
X48660Y62449D01*
X41395Y58365D02*
X44800Y61771D01*
X42254Y57910D02*
X44800Y60457D01*
X41205Y57790D02*
X41903Y57092D01*
X40692Y52005D02*
X41902Y53216D01*
Y50795D02*
Y57062D01*
X40478Y55689D02*
X41902Y54264D01*
X40478Y52219D02*
X41902Y50795D01*
X39880Y67600D02*
X44800Y62680D01*
X37052Y67600D02*
X44498Y60154D01*
X34223Y67600D02*
X43084Y58740D01*
X9399Y67600D02*
X46903D01*
X33022Y55649D02*
X44973Y67600D01*
X31395D02*
X38325Y60670D01*
X27365Y55649D02*
X39316Y67600D01*
X30193Y55649D02*
X42144Y67600D01*
X28567D02*
X37146Y59020D01*
X24536Y55649D02*
X36487Y67600D01*
X25738D02*
X38078Y55260D01*
X21708Y55649D02*
X33659Y67600D01*
X22910D02*
X34918Y55592D01*
X35449Y55248D02*
X37600Y57399D01*
X18449Y55649D02*
X34551D01*
X40478Y54620D02*
X41902Y56045D01*
X38078Y52619D02*
Y56959D01*
X40478Y52219D02*
Y56959D01*
X36863Y53834D02*
X38078Y55049D01*
X35399Y55298D02*
X38078Y52619D01*
X40478Y52860D02*
X41902Y51436D01*
X38659Y41650D02*
Y43633D01*
X35800Y46784D02*
Y47503D01*
X31503Y51800D02*
X35800Y47503D01*
X30224Y51800D02*
X35492Y46532D01*
X31838Y45980D02*
X34580Y48723D01*
X28229Y45200D02*
X33166Y50137D01*
X28653Y50543D02*
X35010Y44186D01*
X33108Y44422D02*
X35800Y47114D01*
X32888Y41373D02*
X35257Y43742D01*
X55806Y40360D02*
X57463Y38704D01*
X45068Y36583D02*
X48930Y40445D01*
X39767Y36939D02*
X43187Y40359D01*
X50005Y40505D02*
X57607Y32902D01*
X52927Y40412D02*
X57514Y35824D01*
X49397Y32426D02*
X57328Y40357D01*
X46568Y35255D02*
X51866Y40552D01*
X47983Y33840D02*
X54581Y40438D01*
X50811Y31012D02*
X57677Y37878D01*
X45526Y36297D02*
X47297Y34526D01*
X43829Y34600D02*
X45600Y32829D01*
X39751Y34094D02*
X46032Y40375D01*
X40410Y31924D02*
X43543Y35058D01*
X47297Y34526D02*
X49463Y32360D01*
X45600Y32829D02*
X46505Y31924D01*
X39766Y33773D02*
X41615Y31924D01*
X43238D02*
X44871Y33558D01*
X39667Y39667D02*
X40459Y40459D01*
X39667Y39667D02*
X40459Y40459D01*
X39623Y39573D02*
X43502Y35694D01*
X35524Y41467D02*
X38476D01*
X36186Y43010D02*
X37729Y41467D01*
X35810D02*
X37203Y42860D01*
X18324Y41373D02*
X35040D01*
X33042Y43326D02*
X34994Y41373D01*
X33312Y37398D02*
X34487Y36223D01*
X33150Y35978D02*
X34230Y37059D01*
X32633Y37398D02*
X34285D01*
X39716Y36652D02*
X44443Y31924D01*
X39715D02*
X46505D01*
X21018Y31099D02*
X35040D01*
X26453Y30350D02*
X35040D01*
X33499Y33499D02*
X34303Y34303D01*
X32896Y34986D02*
X34253Y33629D01*
X33499Y33499D02*
X34303Y34303D01*
X33955Y31099D02*
X34704Y30350D01*
X21018Y33499D02*
X34285D01*
X33178Y30350D02*
X33928Y31099D01*
X18880Y55649D02*
X30830Y67600D01*
X17253D02*
X29204Y55649D01*
X20081Y67600D02*
X32032Y55649D01*
X15908Y63991D02*
X19517Y67600D01*
X14424D02*
X26375Y55649D01*
X15171Y61197D02*
X20718Y55649D01*
X16150Y63046D02*
X23547Y55649D01*
X14226Y65138D02*
X16688Y67600D01*
X11650Y64200D02*
Y64875D01*
X11609Y65349D02*
X13860Y67600D01*
X11596D02*
X14047Y65149D01*
X11739Y61800D02*
X17984Y55555D01*
X11650Y64718D02*
X12168Y64200D01*
X11650Y61125D02*
Y61800D01*
X28404Y51032D02*
X29173Y51800D01*
X28650Y48449D02*
X31752Y51551D01*
X27684Y51800D02*
X31503D01*
X28402Y47965D02*
X30326Y46042D01*
X23434Y47277D02*
X25511Y45200D01*
X23081Y45708D02*
X24468Y47096D01*
X18358Y52661D02*
X18827Y53130D01*
X16661Y54358D02*
X17601Y55298D01*
X17675Y48787D02*
X19213Y50325D01*
X17672Y50210D02*
X19210Y48672D01*
X12304Y49073D02*
X13927Y50696D01*
X10532Y67101D02*
X11031Y67600D01*
X7703Y55786D02*
X13009Y61092D01*
X5368Y56280D02*
X7438Y58350D01*
X11160Y59551D02*
X16277Y54434D01*
X5125Y58350D02*
X8875D01*
X1400Y60826D02*
X5877Y56348D01*
X1551Y63776D02*
X2350Y64575D01*
Y61125D02*
Y64875D01*
X1501Y63553D02*
X2350Y62704D01*
X1400Y57997D02*
X3933Y55464D01*
X1400Y55140D02*
X4651Y58391D01*
X1400Y60797D02*
X2350Y61747D01*
X1400Y57969D02*
X2899Y59468D01*
X8797Y54052D02*
X22345Y67600D01*
X9468Y58414D02*
X14210Y53672D01*
X7966Y47564D02*
X28002Y67600D01*
X6704Y58350D02*
X13616Y51438D01*
X5923Y48350D02*
X25174Y67600D01*
X8848Y53377D02*
X13925Y48301D01*
X7964Y51433D02*
X10114Y49283D01*
X1400Y52312D02*
X3220Y54132D01*
X1400Y55169D02*
X3150Y53418D01*
X1400Y49483D02*
X3714Y51797D01*
X1400Y52340D02*
X5444Y48296D01*
X5918Y50650D02*
X8707Y47861D01*
X1400Y49512D02*
X3712Y47200D01*
X1400Y46655D02*
X5448Y50703D01*
X26781Y46758D02*
X28339Y45200D01*
X25401D02*
X27051Y46850D01*
X27911Y42800D02*
X29337Y41373D01*
X22661Y45200D02*
X29216D01*
X22000Y42800D02*
X29216D01*
X30059Y41373D02*
X30578Y41892D01*
X31603Y41936D02*
X32166Y41373D01*
X25082Y42800D02*
X26509Y41373D01*
X27231D02*
X28658Y42800D01*
X20601Y43702D02*
X21151Y43152D01*
X22254Y42800D02*
X23681Y41373D01*
X24403D02*
X25829Y42800D01*
X21574Y41373D02*
X23001Y42800D01*
X28909Y38973D02*
X29803Y38080D01*
X17827Y38973D02*
X30276D01*
X25014Y33499D02*
X29847Y38332D01*
X30350Y30350D02*
X31099Y31099D01*
X31126D02*
X31876Y30350D01*
X27842Y33499D02*
X29187Y34844D01*
X30350Y30350D02*
X31099Y31099D01*
X26081Y38973D02*
X28859Y36195D01*
X23252Y38973D02*
X28726Y33499D01*
X22185D02*
X27659Y38973D01*
X18746Y41373D02*
X20838Y43465D01*
X20424Y38973D02*
X25898Y33499D01*
X27521Y30350D02*
X28271Y31099D01*
X28298D02*
X29047Y30350D01*
X19939Y34081D02*
X24831Y38973D01*
X25469Y31099D02*
X26238Y30330D01*
X17200Y42656D02*
X19562Y45018D01*
X17301Y44925D02*
X20852Y41373D01*
X17200Y42497D02*
Y44865D01*
Y42497D02*
X18324Y41373D01*
X15152Y41151D02*
X16978Y39325D01*
X14800Y42000D02*
Y44865D01*
X13283Y46114D02*
X14800Y44597D01*
X11861Y44707D02*
X14829Y41740D01*
X1400Y46683D02*
X3222Y44862D01*
X1400Y43826D02*
X3150Y45577D01*
X1400Y38170D02*
X5882Y42652D01*
X1400Y40998D02*
X3936Y43534D01*
X1400Y35341D02*
X10637Y44578D01*
X8796Y44944D02*
X19659Y34081D01*
X11454D02*
X16838Y39465D01*
X17567Y39002D02*
X23069Y33499D01*
X7700Y43212D02*
X16831Y34081D01*
X8625D02*
X15424Y40879D01*
X17081Y34081D02*
X21018D01*
X17110D02*
X22003Y38973D01*
X13081Y34081D02*
X16856D01*
X14282D02*
X19174Y38973D01*
X5797Y34081D02*
X14800Y43084D01*
X5362Y42722D02*
X14002Y34081D01*
X1400Y32513D02*
X14213Y45325D01*
X1400Y41026D02*
X8345Y34081D01*
X1400Y43855D02*
X11174Y34081D01*
X4919D02*
X8919D01*
X9081D02*
X12919D01*
X1400Y38198D02*
X5517Y34081D01*
X1400Y35370D02*
X4919Y31851D01*
X52225Y29598D02*
X57564Y34937D01*
X53605Y28149D02*
X57486Y32031D01*
X53751Y22638D02*
X57526Y26413D01*
X49463Y32360D02*
X53400Y28423D01*
X53751Y25467D02*
X57459Y29174D01*
X48612Y29817D02*
X51351Y27078D01*
X53751Y22612D02*
Y27575D01*
X48095Y22639D02*
X51351Y25895D01*
Y22612D02*
Y27078D01*
X56402Y22461D02*
X57665Y23724D01*
X53751Y25445D02*
X56676Y22520D01*
X52270Y18441D02*
X52926Y17785D01*
Y16623D02*
Y17938D01*
X51503Y15200D02*
X52926Y16623D01*
X50731Y17151D02*
X52093Y15790D01*
X47923Y17131D02*
X49004Y16050D01*
X49081Y15200D02*
Y16050D01*
X49141Y15200D02*
X51072Y17131D01*
X49081Y15973D02*
X49854Y15200D01*
X49081D02*
X51503D01*
X47106Y40575D02*
X57678Y30004D01*
X44482Y40371D02*
X57473Y27380D01*
X46843Y29524D02*
X51351Y25016D01*
X41662Y40363D02*
X57465Y24559D01*
X44015Y29524D02*
X50875Y22664D01*
X45189Y22562D02*
X50528Y27901D01*
X42248Y22449D02*
X49114Y29315D01*
X39715Y29524D02*
X47827D01*
X41186D02*
X48065Y22646D01*
X39769Y22798D02*
X46495Y29524D01*
X39688Y25545D02*
X43667Y29524D01*
X39633Y25421D02*
X42523Y22531D01*
X39574Y28260D02*
X40838Y29524D01*
X39510Y28372D02*
X45474Y22408D01*
X44334Y16050D02*
X45592Y17308D01*
X45081Y16050D02*
X49081D01*
X47162D02*
X48351Y17239D01*
X40919Y16050D02*
X44919D01*
X45045Y17181D02*
X46176Y16050D01*
X39198Y17370D02*
X40919Y15650D01*
X41506Y16050D02*
X42661Y17205D01*
X42124Y17273D02*
X43347Y16050D01*
X38576Y13121D02*
X40919Y15463D01*
Y11887D02*
Y16050D01*
X59150Y11067D02*
X59800Y11717D01*
X59150Y7100D02*
Y12900D01*
X58000Y13800D02*
X59216D01*
X58200Y12900D02*
X59150D01*
Y11561D02*
X59800Y10911D01*
X59150Y8238D02*
X59800Y8888D01*
X59150Y8732D02*
X59800Y8082D01*
X54850Y7100D02*
X59150D01*
X53790Y14093D02*
X54982Y12900D01*
X58200Y12945D02*
X59055Y13800D01*
X54852Y13451D02*
X55403Y12900D01*
X54850Y12424D02*
X55326Y12900D01*
X53150Y7895D02*
X54850Y9595D01*
X58919Y6081D02*
X59800D01*
Y13216D01*
X58919Y5200D02*
Y6081D01*
X57954Y7100D02*
X58973Y6081D01*
X57081Y5200D02*
X58919D01*
Y1919D02*
X63081D01*
X58919D02*
Y2800D01*
X57081D02*
X58919D01*
X57969Y1400D02*
X58919Y2350D01*
X56993Y6081D02*
X58012Y7100D01*
X55125D02*
X56144Y6081D01*
X57081Y5200D02*
Y6081D01*
X54850Y7100D02*
Y12900D01*
X54164Y6081D02*
X55183Y7100D01*
X57081Y1919D02*
Y2800D01*
Y2316D02*
X57997Y1400D01*
X54650Y1919D02*
X55169Y1400D01*
X55140D02*
X55659Y1919D01*
X53150Y11904D02*
X54850Y10204D01*
X53150Y10724D02*
X54850Y12424D01*
X53150Y7100D02*
Y12900D01*
X52849Y13151D02*
X54501Y14804D01*
X52480Y12900D02*
X53150D01*
Y9076D02*
X54850Y7376D01*
X48850Y7100D02*
Y7950D01*
X44919D02*
X48850D01*
Y7100D02*
X53150D01*
X41853Y11887D02*
X44919Y8821D01*
X40919Y11887D02*
X44919D01*
Y7950D02*
Y11887D01*
X39117Y14623D02*
X40919Y12821D01*
X39365Y11081D02*
X40919Y12635D01*
X40081Y8968D02*
X43000Y11887D01*
X40081Y6919D02*
Y11081D01*
X39200D02*
X40081D01*
X35919Y6919D02*
X40081D01*
X52919Y6081D02*
X57081D01*
X52297Y7100D02*
X53316Y6081D01*
X52919Y1919D02*
Y6081D01*
X49469Y7100D02*
X52919Y3650D01*
X46655Y1400D02*
X52355Y7100D01*
X52919Y1919D02*
X57081D01*
X52312Y1400D02*
X52919Y2007D01*
X49483Y1400D02*
X52919Y4836D01*
X14000Y1400D02*
X116000Y1400D01*
X40081Y8002D02*
X46683Y1400D01*
X38170D02*
X44919Y8149D01*
X40081Y10831D02*
X49512Y1400D01*
X31508Y10919D02*
X41026Y1400D01*
X35341D02*
X44919Y10978D01*
X43826Y1400D02*
X49526Y7100D01*
X45790Y7950D02*
X52340Y1400D01*
X38336Y6919D02*
X43855Y1400D01*
X40998D02*
X47548Y7950D01*
X22641Y31099D02*
X24673Y29067D01*
X21018Y29919D02*
Y31099D01*
X21151Y25546D02*
X25604Y29998D01*
X20993Y29919D02*
X23259Y27653D01*
X28113Y24800D02*
X32106D01*
X28940D02*
X31800Y21940D01*
Y15081D02*
Y24000D01*
X27700Y19215D02*
X31800Y23315D01*
X28113Y22799D02*
X31800Y19112D01*
X38659Y18421D02*
Y21374D01*
X38200Y16784D02*
Y21557D01*
Y21197D02*
X38659Y20738D01*
X38200Y18401D02*
X38659Y18860D01*
X28113Y22456D02*
X30457Y24800D01*
X28113Y20919D02*
Y24800D01*
X27200Y19215D02*
Y20919D01*
X28113D01*
X20800Y14497D02*
Y24697D01*
X27931Y16618D02*
X31800Y20486D01*
X27931Y15278D02*
Y19215D01*
X27200D02*
X27931D01*
X27200Y20883D02*
X31800Y16283D01*
X18164Y29919D02*
X21845Y26239D01*
X17081Y29919D02*
X21018D01*
X15336D02*
X20800Y24455D01*
X13081Y29919D02*
X16856D01*
X12686Y24000D02*
X18605Y29919D01*
X9081Y26052D02*
X12948Y29919D01*
X9858Y24000D02*
X15777Y29919D01*
X9081D02*
X12919D01*
X9081Y24000D02*
X14000D01*
X1400Y29684D02*
X4919Y33203D01*
Y30050D02*
Y34081D01*
X9081Y28880D02*
X10120Y29919D01*
X1400Y32541D02*
X4919Y29022D01*
X1400Y26856D02*
X4919Y30375D01*
Y26113D02*
Y29919D01*
X9081Y26113D02*
Y29919D01*
X1400Y29713D02*
X4919Y26194D01*
X1400Y24027D02*
X4919Y27546D01*
X14000Y19657D02*
X25442Y31099D01*
X14000Y22485D02*
X22614Y31099D01*
X14000Y16828D02*
X20800Y23628D01*
X12508Y29919D02*
X20800Y21626D01*
X9679Y29919D02*
X20800Y18798D01*
X14000Y14000D02*
X20800Y20800D01*
X14000Y19941D02*
X20122Y13819D01*
X14000Y22770D02*
X20800Y15970D01*
X14000Y14000D02*
X20800Y20800D01*
X9081Y24000D02*
Y25887D01*
X4919Y24000D02*
Y25887D01*
X9081Y27689D02*
X12770Y24000D01*
X1400Y26884D02*
X4284Y24000D01*
X1400D02*
Y62550D01*
X9081Y24860D02*
X9941Y24000D01*
X14000Y1400D02*
Y24000D01*
X1400D02*
X4919D01*
X4201D02*
X4919Y24718D01*
X38801Y16174D02*
X39768Y17141D01*
X38200Y18369D02*
X38902Y17667D01*
X38361Y13336D02*
X38849Y12849D01*
X29420Y15278D02*
X31800Y17658D01*
X27931Y17323D02*
X29977Y15278D01*
X31081Y15081D02*
X31800D01*
X27931Y15278D02*
X31081D01*
X24969Y12769D02*
Y14659D01*
Y14629D02*
X26919Y12679D01*
X35081Y12454D02*
X35800Y13173D01*
X24969Y14659D02*
X26919D01*
X24969Y13656D02*
X25973Y14659D01*
X39200Y11712D02*
X39831Y11081D01*
X39200D02*
Y12000D01*
X36151Y12152D02*
X36800Y11503D01*
X35081Y13002D02*
X36800Y11283D01*
X35919Y11081D02*
X36800D01*
X32513Y1400D02*
X38032Y6919D01*
X28876Y10722D02*
X38198Y1400D01*
X29684D02*
X35919Y7635D01*
X35081Y10919D02*
Y14030D01*
X26919Y10722D02*
Y14659D01*
X35919Y6919D02*
Y11081D01*
X24725Y12044D02*
X35370Y1400D01*
X31081Y10919D02*
X35081D01*
X34336D02*
X35919Y9336D01*
X26919Y10722D02*
X31081D01*
X26856Y1400D02*
X35919Y10463D01*
X18151Y11849D02*
X20800Y14497D01*
X24081Y9939D02*
X26919Y12777D01*
X14000Y11172D02*
X20800Y17972D01*
X14000Y8343D02*
X20800Y15143D01*
X24081Y7111D02*
X27693Y10722D01*
X24081Y4282D02*
X30521Y10722D01*
X23778Y11081D02*
X24618Y11921D01*
X24081Y7081D02*
Y11081D01*
X14000Y17113D02*
X18708Y12405D01*
X14000Y14284D02*
X17800Y10484D01*
X14000Y11456D02*
X17800Y7656D01*
Y6000D02*
Y11000D01*
X14000Y5515D02*
X17800Y9315D01*
X24081Y7032D02*
X29713Y1400D01*
X24081Y2919D02*
Y6919D01*
Y9860D02*
X32541Y1400D01*
X14000Y8627D02*
X21227Y1400D01*
X24027D02*
X33546Y10919D01*
X22537Y2919D02*
X24056Y1400D01*
X24081Y4203D02*
X26884Y1400D01*
X19919Y2919D02*
X24081D01*
X21199Y1400D02*
X22718Y2919D01*
X18151Y5152D02*
X19151Y4152D01*
X15542Y1400D02*
X18722Y4580D01*
X14000Y2686D02*
X17800Y6486D01*
X14000Y5799D02*
X18399Y1400D01*
X19919Y2919D02*
Y3803D01*
X14000Y2971D02*
X15571Y1400D01*
X18371D02*
X19919Y2948D01*
X11000Y32000D02*
X15000D01*
X7000D02*
X11000D01*
X7000Y18410D02*
Y24032D01*
Y27968D02*
Y32000D01*
X18937Y32299D02*
X37000D01*
X115049Y58101D02*
X116650Y56500D01*
X118000D01*
X116000Y46000D02*
Y53000D01*
X109850Y66150D02*
X110000Y66000D01*
X114000D01*
X115049Y58101D02*
Y64951D01*
X114000Y66000D02*
X115049Y64951D01*
X155000Y60000D02*
X158000D01*
X154000Y57000D02*
Y59000D01*
X155000Y60000D01*
X152000Y56500D02*
X153500D01*
X154000Y57000D01*
X112000Y24937D02*
Y30000D01*
X116500Y34500D01*
X118000D01*
X155000Y35000D02*
X159000D01*
X152000Y34500D02*
X154500D01*
X155000Y35000D01*
X177000Y43000D02*
Y50000D01*
X157768Y6697D02*
X157831Y6634D01*
X157503Y6962D02*
X157768Y6697D01*
X37000Y30724D02*
X47827D01*
X52551Y19898D02*
Y27575D01*
X108937Y11000D02*
X114000D01*
X115500Y12500D01*
X118000D01*
X155000Y7000D02*
X156000D01*
X156038Y6962D01*
X154000Y8000D02*
X155000Y7000D01*
X154000Y8000D02*
Y12000D01*
X152000Y12500D02*
X153500D01*
X154000Y12000D01*
X156038Y6962D02*
X157503D01*
X174540Y16012D02*
X175248D01*
X177985Y18748D01*
Y18965D01*
X190760Y16012D02*
X191469D01*
X188024Y18748D02*
X190760Y16012D01*
X188024Y18748D02*
Y18965D01*
X175200Y64800D02*
X178000Y62000D01*
X179702D01*
X181268Y60435D01*
Y58260D02*
Y60435D01*
X164800Y64800D02*
X175200D01*
X164000Y64000D02*
X164800Y64800D01*
X164000Y62000D02*
Y64000D01*
X202000Y48000D02*
X202751Y47249D01*
X202740Y43587D02*
Y46455D01*
X202751Y46466D01*
Y47249D01*
X187000Y48000D02*
X202000D01*
X186000Y49000D02*
X187000Y48000D01*
X186000Y49000D02*
Y50937D01*
X185937Y51000D02*
X186000Y50937D01*
X83441Y8441D02*
X88000D01*
X79079Y64000D02*
X88000D01*
X89000Y67000D02*
X96000D01*
X97000Y66000D01*
Y60000D02*
Y66000D01*
X39278Y51722D02*
X41528Y49472D01*
X39278Y51722D02*
Y58743D01*
X7000Y63000D02*
X14000D01*
X25000Y53000D02*
X32000D01*
X37000Y45000D02*
Y48000D01*
X32000Y53000D02*
X37000Y48000D01*
X82750Y27250D02*
X86021Y23979D01*
Y17979D02*
Y23979D01*
Y17979D02*
X88000Y16000D01*
X84821Y10821D02*
Y23179D01*
X81000Y27000D02*
X84821Y23179D01*
X84118Y10118D02*
X84821Y10821D01*
X88000Y13559D02*
Y16000D01*
X82750Y27250D02*
Y32250D01*
X75976Y37024D02*
X81000Y32000D01*
X75551Y35449D02*
X79200Y31800D01*
X60228Y37024D02*
X75976D01*
X81000Y27000D02*
Y32000D01*
X79200Y24200D02*
Y31800D01*
X60228Y33874D02*
X75429D01*
X60228Y38598D02*
X76402D01*
X75429Y33874D02*
X78000Y31303D01*
Y25000D02*
Y31303D01*
X76402Y38598D02*
X82750Y32250D01*
X60228Y35449D02*
X75551D01*
X79177Y10118D02*
Y15000D01*
X81000Y23000D02*
X82937Y21063D01*
Y19000D02*
Y21063D01*
Y15000D02*
Y19000D01*
X88000Y64000D02*
Y66000D01*
X89000Y67000D01*
X78835Y64244D02*
X79079Y64000D01*
X158000Y38458D02*
X158769Y37689D01*
X160312D02*
X162000Y36000D01*
X158000Y38458D02*
Y45000D01*
X158769Y37689D02*
X160312D01*
X162000Y33000D02*
Y36000D01*
X114000Y44000D02*
X116000Y46000D01*
X113648Y45842D02*
X113849Y46043D01*
Y59723D01*
X110572Y63000D02*
X113849Y59723D01*
X108000Y63000D02*
X110572D01*
X158000Y29000D02*
X162000Y33000D01*
X158000Y19000D02*
Y29000D01*
X157831Y3666D02*
Y6634D01*
X114000Y35000D02*
Y44000D01*
X111000Y45842D02*
X113648D01*
X108000Y24937D02*
X112000D01*
X108000Y19000D02*
Y21000D01*
X105000Y15000D02*
X105718Y15718D01*
Y16717D01*
X108000Y19000D01*
X104000Y25000D02*
X114000Y35000D01*
X90000Y20000D02*
X94150Y15850D01*
X100850D01*
X100969Y21032D02*
X101000Y21063D01*
X92000Y12000D02*
Y13500D01*
X102000Y28000D02*
X104648D01*
X105646Y28997D02*
Y32614D01*
X104648Y28000D02*
X105646Y28997D01*
X101000Y25000D02*
Y27000D01*
X102000Y28000D01*
X101709Y29709D02*
Y32614D01*
X100000Y28000D02*
X101709Y29709D01*
X97351Y28000D02*
X100000D01*
X97200Y29200D02*
X97772Y29772D01*
X97000Y25000D02*
Y27648D01*
X95200Y29200D02*
X97200D01*
X97000Y27648D02*
X97351Y28000D01*
X93000Y27000D02*
X95200Y29200D01*
X93000Y24969D02*
Y27000D01*
X97772Y29772D02*
Y32614D01*
X104000Y19000D02*
Y25000D01*
X100850Y15850D02*
X104000Y19000D01*
X90000Y20000D02*
Y31000D01*
X91614Y32614D02*
X95803D01*
X90000Y31000D02*
X91614Y32614D01*
X209000Y56000D02*
Y63000D01*
Y44000D02*
Y49000D01*
X202740Y43587D02*
X208587D01*
X209000Y44000D01*
X189937Y59937D02*
X190000Y60000D01*
X193937D02*
X199000D01*
Y54413D02*
Y60000D01*
X164000Y48000D02*
Y52614D01*
X163000Y47000D02*
X164000Y48000D01*
X160000Y47000D02*
X163000D01*
X158000Y45000D02*
X160000Y47000D01*
X181150Y43150D02*
X185000D01*
X181000Y43000D02*
X181150Y43150D01*
X175081Y40919D02*
X188919D01*
X191587Y43587D02*
X195260D01*
X188919Y40919D02*
X191587Y43587D01*
X171000Y45000D02*
X175081Y40919D01*
X161000Y45000D02*
X171000D01*
X160260Y41000D02*
Y44260D01*
X161000Y45000D01*
X199249Y65751D02*
X202740Y62260D01*
X181268Y65740D02*
X191382D01*
X191393Y65751D01*
X199249D01*
X202740Y54413D02*
Y62260D01*
X186000Y55000D02*
Y57908D01*
Y51063D02*
Y55000D01*
X181268Y58260D02*
X185649D01*
X185937Y51000D02*
X186000Y51063D01*
X185649Y58260D02*
X186000Y57908D01*
X180968Y47000D02*
Y51032D01*
Y43031D02*
Y47000D01*
Y43031D02*
X181000Y43000D01*
X177000Y50000D02*
X178000Y51000D01*
X178969D02*
X179000Y51032D01*
X178000Y51000D02*
X178969D01*
X180968Y53000D02*
Y55140D01*
X181268Y55439D01*
Y58260D01*
X171807Y52807D02*
X172000Y53000D01*
X171614Y52614D02*
X171807Y52807D01*
X172000Y53000D02*
X179000D01*
X164000Y58000D02*
Y62000D01*
Y52614D02*
Y58000D01*
X181008Y66000D02*
X181268Y65740D01*
X163000Y66000D02*
X181008D01*
X160260Y52614D02*
Y63260D01*
X163000Y66000D01*
X167740Y52614D02*
X171614D01*
X158000Y15000D02*
X159000Y14000D01*
X161763D01*
X158000Y15000D02*
Y19000D01*
X164000Y35843D02*
Y41000D01*
Y35843D02*
X164177Y35666D01*
Y31666D02*
Y35666D01*
X164000Y41000D02*
X167740D01*
X161177Y20666D02*
Y24666D01*
Y16666D02*
Y20666D01*
X161000Y24843D02*
X161177Y24666D01*
X161000Y24843D02*
Y28000D01*
X162114Y11666D02*
Y13648D01*
X161763Y14000D02*
X162114Y13648D01*
X175114Y3469D02*
Y7469D01*
X177645Y10000D02*
X178114Y10469D01*
X176000Y10000D02*
X177645D01*
X175000Y9000D02*
X176000Y10000D01*
X175000Y7615D02*
X175146Y7469D01*
X175000Y7615D02*
Y9000D01*
X201000Y39000D02*
X207780D01*
X208114Y38666D01*
X200248Y16666D02*
X209114D01*
X208051Y36469D02*
X208114Y36532D01*
Y38666D01*
X208051Y32469D02*
Y36469D01*
X200114Y16532D02*
X200248Y16666D01*
X165114Y24666D02*
Y27666D01*
Y20666D02*
Y24666D01*
Y16666D02*
Y20666D01*
X168114Y31666D02*
Y35666D01*
Y17469D02*
Y31666D01*
Y12666D02*
Y17469D01*
X171114D01*
X163768Y11666D02*
X167114D01*
X168114Y12666D01*
X208051Y28469D02*
Y32469D01*
Y24469D02*
Y28469D01*
X196114Y32469D02*
Y35469D01*
X181114Y36469D02*
X195114D01*
X196114Y35469D01*
Y32469D02*
X204114D01*
X185114D02*
X192177D01*
X204114D02*
Y36469D01*
Y28469D02*
Y32469D01*
Y24469D02*
Y28469D01*
Y20469D02*
Y24469D01*
X171114Y17469D02*
Y21532D01*
X187925Y9658D02*
Y12469D01*
Y9658D02*
X190114Y7469D01*
X205114Y2820D02*
Y5469D01*
X185914Y3669D02*
X194314D01*
X196177Y5532D01*
X182020Y3563D02*
X183114Y2469D01*
X204763D02*
X205114Y2820D01*
X185957Y6626D02*
X187714Y4869D01*
X183988Y5595D02*
X185914Y3669D01*
X183114Y2469D02*
X204763D01*
X187714Y4869D02*
X192514D01*
X193114Y5469D01*
X182020Y3563D02*
Y12469D01*
X201177Y9406D02*
X205114D01*
X201114Y9469D02*
X201177Y9406D01*
X183988Y5595D02*
Y12469D01*
X196177Y5532D02*
X201114D01*
X197051Y9469D02*
X201114D01*
X189894Y12469D02*
X196988D01*
X197051Y12532D01*
X196114Y13469D02*
X197051Y12532D01*
Y9469D02*
Y12532D01*
X193114Y5469D02*
Y9469D01*
X185957Y6626D02*
Y12469D01*
X183988Y31343D02*
X185114Y32469D01*
X181114Y29469D02*
Y32532D01*
X183988Y25461D02*
Y31343D01*
X182020Y25461D02*
Y28563D01*
X181114Y29469D02*
X182020Y28563D01*
X174854Y29469D02*
X179114D01*
X180051Y25461D02*
Y28532D01*
X179114Y29469D02*
X180051Y28532D01*
X171114Y25469D02*
Y29469D01*
X189155Y28469D02*
X200051D01*
X187925Y27239D02*
X189155Y28469D01*
X185957Y28311D02*
X187763Y30118D01*
X187858D02*
X188059Y30319D01*
X187763Y30118D02*
X187858D01*
X185957Y25461D02*
Y28311D01*
X187925Y25461D02*
Y27239D01*
X200051Y28469D02*
X200114Y28406D01*
Y20469D02*
Y24469D01*
X196114Y20469D02*
X200114D01*
X204114D01*
X196114Y16532D02*
X200114D01*
X196114Y13469D02*
Y16532D01*
Y20469D02*
Y24469D01*
X189894Y25461D02*
X195122D01*
X196114Y24469D01*
X178083Y12469D02*
X178114Y12437D01*
Y10469D02*
Y12437D01*
X175146Y7469D02*
X175830Y8153D01*
X171114Y12469D02*
X176114D01*
X179051Y7469D02*
Y9406D01*
X180051Y10406D01*
Y12469D01*
X163768Y10091D02*
X167342D01*
X167768Y9666D01*
X161768Y3666D02*
Y6666D01*
X162114Y7012D02*
Y8516D01*
X161768Y6666D02*
X162114Y7012D01*
X157768Y10634D02*
X157799Y10666D01*
X159768D01*
X160343Y10091D02*
X162114D01*
X159768Y10666D02*
X160343Y10091D01*
X34551Y54449D02*
X39953Y49047D01*
X18449Y54449D02*
X34551D01*
X24000Y52000D02*
X25000Y53000D01*
X21000Y52000D02*
X24000D01*
X37000Y13000D02*
X38000Y12000D01*
Y9000D02*
Y12000D01*
X37000Y13000D02*
Y22850D01*
X16000Y52000D02*
X18449Y54449D01*
X104882Y5882D02*
X105000Y6000D01*
X99339Y5882D02*
X104882D01*
X43102Y57062D02*
X46000Y59960D01*
X43102Y43126D02*
Y57062D01*
X88000Y11000D02*
X91000D01*
X92000Y12000D01*
X111000Y47811D02*
Y51000D01*
X97000Y56000D02*
Y60000D01*
Y56000D02*
X97772Y55228D01*
Y51197D02*
Y55228D01*
X99339Y8441D02*
X107559D01*
X108636Y6363D02*
X109000Y6000D01*
X108636Y6363D02*
Y7364D01*
X107559Y8441D02*
X108636Y7364D01*
X49075Y63925D02*
X51956D01*
X49000Y63850D02*
X49075Y63925D01*
X86709Y39755D02*
X86799Y39846D01*
X51956Y63925D02*
X52031Y64000D01*
X46000Y59960D02*
Y65000D01*
X48000Y67000D01*
X51000D01*
X52031Y65969D01*
X43000Y14000D02*
X52000D01*
X41528Y43126D02*
Y49472D01*
X46449Y33677D02*
X48614Y31512D01*
X31000Y38000D02*
X31598Y38598D01*
X48614Y31512D02*
X52551Y27575D01*
X31598Y38598D02*
X37000D01*
X31000Y36000D02*
Y38000D01*
X44677Y35449D02*
X46449Y33677D01*
X102000Y60937D02*
X102063Y61000D01*
X54000Y64000D02*
X56000D01*
X57000Y63000D02*
X68000D01*
X56000Y64000D02*
X57000Y63000D01*
X54000Y65969D02*
X54016Y65984D01*
X56984D01*
X57000Y66000D01*
X61000D02*
X65063D01*
X69000Y64000D02*
Y66000D01*
X68000Y63000D02*
X69000Y64000D01*
Y66000D02*
X69032Y65969D01*
X73000D01*
X78835Y63953D02*
Y64244D01*
Y63756D02*
Y63953D01*
X77560Y65228D02*
X78835Y63953D01*
X77363Y65228D02*
X77560D01*
X76622Y65969D02*
X77363Y65228D01*
X73000Y65969D02*
X76622D01*
X101709Y51197D02*
Y56709D01*
X102000Y57000D01*
X107937Y58937D02*
X111000D01*
X103677Y54677D02*
X107937Y58937D01*
X103677Y51197D02*
Y54677D01*
X106000Y55000D02*
X111000D01*
X105646Y51197D02*
Y54646D01*
X106000Y55000D01*
X82968Y53000D02*
Y58047D01*
X83165Y58244D01*
X82968Y53000D02*
X90000D01*
X91803Y51197D02*
X95803D01*
X90000Y53000D02*
X91803Y51197D01*
X22000Y24697D02*
X26453Y29150D01*
X19000Y11000D02*
X22000Y14000D01*
Y24697D01*
X23769Y12769D02*
Y24769D01*
X26575Y27575D01*
X22000Y11000D02*
X23769Y12769D01*
X22000Y9000D02*
Y11000D01*
X6937Y23968D02*
X7000Y24032D01*
X60681Y43000D02*
X64000D01*
X57362D02*
X60681D01*
X55000Y4000D02*
X61000D01*
Y15000D01*
X58000D02*
X61000D01*
X94068Y9720D02*
X95348Y11000D01*
X92789Y8441D02*
X94068Y9720D01*
X88000Y8441D02*
X92789D01*
X82559Y7559D02*
X83441Y8441D01*
X101709Y41906D02*
X103677Y39937D01*
X101709Y41906D02*
X107614Y47811D01*
X82709Y41906D02*
X92417D01*
X86799Y39846D02*
X92327D01*
X99740Y43874D02*
Y51197D01*
X107614Y32614D02*
Y36000D01*
X86799Y43965D02*
X92327D01*
X99740Y43874D02*
X101709Y41906D01*
X107614Y47811D02*
Y51197D01*
X103677Y39937D02*
X107614Y36000D01*
X86964Y46905D02*
X88027Y45842D01*
X86709Y44056D02*
X86799Y43965D01*
X92327Y39846D02*
X92417Y39937D01*
X103677D02*
X111000D01*
X83709Y46905D02*
X86964D01*
X88027Y45842D02*
X92417D01*
X92327Y43965D02*
X92417Y43874D01*
X82894Y37106D02*
X87807D01*
X71000Y49000D02*
Y52000D01*
X79791Y41906D02*
X82709D01*
X72200Y49497D02*
X79791Y41906D01*
X72200Y49497D02*
Y52497D01*
X71000Y49000D02*
X82894Y37106D01*
X79944Y44056D02*
X86709D01*
X73400Y50600D02*
Y52994D01*
Y50600D02*
X79944Y44056D01*
X74600Y51400D02*
Y53491D01*
X79094Y46905D02*
X83709D01*
X74600Y51400D02*
X79094Y46905D01*
X81094Y35906D02*
X92323D01*
X88189Y47811D02*
X92417D01*
X86000Y50000D02*
X88189Y47811D01*
X78000Y50000D02*
X86000D01*
X75800Y52200D02*
X78000Y50000D01*
X88670Y37969D02*
X92417D01*
X87807Y37106D02*
X88670Y37969D01*
X92323Y35906D02*
X92417Y36000D01*
X60228Y40173D02*
X76827D01*
X81094Y35906D01*
X99339Y11000D02*
X105000D01*
Y15000D01*
X39953Y43126D02*
Y49047D01*
X75800Y52200D02*
Y53988D01*
X68188Y61600D02*
X75800Y53988D01*
X49509Y61600D02*
X68188D01*
X67691Y60400D02*
X70546Y57546D01*
X70546D01*
X74600Y53491D01*
X50503Y59200D02*
X67194D01*
X73400Y52994D01*
X66697Y58000D02*
X68348Y56349D01*
X68348D01*
X72200Y52497D01*
X51800Y56800D02*
X66200D01*
X71000Y52000D01*
X67968Y49000D02*
Y53031D01*
X67000Y54000D02*
X67968Y53031D01*
X64937Y54000D02*
X67000D01*
X44677Y43126D02*
Y56768D01*
X49509Y61600D01*
X95348Y11000D02*
X99339D01*
X46252Y56646D02*
X50006Y60400D01*
X67691D01*
X46252Y43126D02*
Y56646D01*
X47827Y43126D02*
Y56524D01*
X50503Y59200D01*
X49402Y56402D02*
X51000Y58000D01*
X50976Y43126D02*
Y55976D01*
X51000Y58000D02*
X66697D01*
X49402Y43126D02*
Y56402D01*
X50976Y55976D02*
X51800Y56800D01*
X57000Y10000D02*
Y13000D01*
X55701Y14299D02*
Y19898D01*
Y14299D02*
X57000Y13000D01*
X47032Y10000D02*
X51000D01*
X47000Y10031D02*
X47032Y10000D01*
X79177Y10118D02*
X84118D01*
X75000Y19000D02*
Y20000D01*
Y15000D02*
Y19000D01*
X79000D01*
X79177Y7559D02*
X82559D01*
X80875Y4063D02*
X83000D01*
X80161Y3348D02*
X80875Y4063D01*
X71851Y3348D02*
X80161D01*
X71500Y3700D02*
X71851Y3348D01*
X71500Y3700D02*
Y5000D01*
X75000Y20000D02*
X79200Y24200D01*
X73000Y20000D02*
X78000Y25000D01*
X69000Y6000D02*
Y11000D01*
X73000Y15000D01*
Y20000D01*
X70000Y5000D02*
X71500D01*
X69000Y6000D02*
X70000Y5000D01*
X71500Y11500D02*
X75000Y15000D01*
X71500Y10118D02*
Y11500D01*
X77007Y5000D02*
X79177D01*
X75339Y6668D02*
X77007Y5000D01*
X75339Y6668D02*
Y7559D01*
X71500D02*
X75339D01*
X16000Y42000D02*
Y47000D01*
X17827Y40173D02*
X37000D01*
X16000Y42000D02*
X17827Y40173D01*
X22000Y44000D02*
X31000D01*
X21000Y47000D02*
X21449Y46551D01*
Y44551D02*
Y46551D01*
Y44551D02*
X22000Y44000D01*
X67968Y49000D02*
X68000Y48968D01*
Y47000D02*
Y48968D01*
X67000Y46000D02*
X68000Y47000D01*
X65000Y46000D02*
X67000D01*
X64000Y45000D02*
X65000Y46000D01*
X64000Y43000D02*
Y45000D01*
X57740Y54000D02*
X61000D01*
X60740Y49000D02*
X64031D01*
X57000Y47000D02*
Y49000D01*
X55701Y45701D02*
X57000Y47000D01*
X55701Y43126D02*
Y45701D01*
X54126Y43126D02*
Y53874D01*
X54000Y54000D02*
X54126Y53874D01*
X57276Y43087D02*
X57362Y43000D01*
X57276Y43087D02*
Y43126D01*
X70000Y27000D02*
Y31000D01*
X66000Y27000D02*
X70000D01*
Y20000D02*
Y23772D01*
X60228Y26000D02*
X65000D01*
X66000Y27000D01*
X69346Y24425D02*
X70000Y23772D01*
X60228Y24425D02*
X69346D01*
X64150Y22850D02*
X65000Y22000D01*
X60228Y22850D02*
X64150D01*
X65000Y16969D02*
Y22000D01*
X57276Y15724D02*
Y19898D01*
Y15724D02*
X58000Y15000D01*
X54126Y16126D02*
Y19898D01*
X52000Y14000D02*
X54126Y16126D01*
X26453Y29150D02*
X37000D01*
X20000Y5000D02*
X22000D01*
X19000Y6000D02*
X20000Y5000D01*
X19000Y6000D02*
Y11000D01*
X26575Y27575D02*
X37000D01*
X26000Y22000D02*
Y25000D01*
X25850Y16937D02*
X26000Y17087D01*
Y22000D01*
X27000Y26000D02*
X37000D01*
X26000Y25000D02*
X27000Y26000D01*
X29000Y13000D02*
X32000D01*
X33000Y14000D02*
Y24000D01*
X32000Y13000D02*
X33000Y14000D01*
X33425Y24425D02*
X37000D01*
X33000Y24000D02*
X33425Y24425D01*
X99339Y11000D02*
Y13559D01*
D22*
X181114Y36469D02*
D03*
Y32532D02*
D03*
X196114Y16532D02*
D03*
Y20469D02*
D03*
X204114Y16532D02*
D03*
Y20469D02*
D03*
X200114Y16532D02*
D03*
Y20469D02*
D03*
Y28406D02*
D03*
Y24469D02*
D03*
X201114Y5532D02*
D03*
Y9469D02*
D03*
X205114Y5469D02*
D03*
Y9406D02*
D03*
X38000Y9000D02*
D03*
Y5063D02*
D03*
X97000Y25000D02*
D03*
Y21063D02*
D03*
X93000Y24969D02*
D03*
Y21032D02*
D03*
X102000Y60937D02*
D03*
Y57000D02*
D03*
X111000Y58937D02*
D03*
Y55000D02*
D03*
X7000Y27968D02*
D03*
Y24032D02*
D03*
Y35937D02*
D03*
Y32000D02*
D03*
X11000D02*
D03*
Y35937D02*
D03*
X108000Y21000D02*
D03*
Y24937D02*
D03*
X112000Y21000D02*
D03*
Y24937D02*
D03*
X73000Y62032D02*
D03*
Y65969D02*
D03*
X101000Y21063D02*
D03*
Y25000D02*
D03*
X43000Y13969D02*
D03*
Y10031D02*
D03*
X47000D02*
D03*
Y13969D02*
D03*
X65000Y13032D02*
D03*
Y16969D02*
D03*
X70000Y20000D02*
D03*
Y16063D02*
D03*
X33000Y9063D02*
D03*
Y13000D02*
D03*
D23*
X15000Y32000D02*
D03*
X18937D02*
D03*
X181000Y43000D02*
D03*
X177063D02*
D03*
X204114Y32469D02*
D03*
X208051D02*
D03*
X204114Y28469D02*
D03*
X208051D02*
D03*
X204114Y24469D02*
D03*
X208051D02*
D03*
X192177Y32469D02*
D03*
X196114D02*
D03*
X193114Y9469D02*
D03*
X197051D02*
D03*
X168114Y31666D02*
D03*
X164177D02*
D03*
X168114Y35666D02*
D03*
X164177D02*
D03*
X165114Y20666D02*
D03*
X161177D02*
D03*
X165114Y16666D02*
D03*
X161177D02*
D03*
X165114Y24666D02*
D03*
X161177D02*
D03*
X204114Y36469D02*
D03*
X208051D02*
D03*
X93063Y60000D02*
D03*
X97000D02*
D03*
X93063Y56000D02*
D03*
X97000D02*
D03*
X93063Y64000D02*
D03*
X97000D02*
D03*
X177032Y47000D02*
D03*
X180968D02*
D03*
X209000Y49000D02*
D03*
X212937D02*
D03*
X69000Y66000D02*
D03*
X65063D02*
D03*
X186000Y55000D02*
D03*
X189937D02*
D03*
X189874Y51000D02*
D03*
X185937D02*
D03*
X209000Y44000D02*
D03*
X212937D02*
D03*
X82968Y53000D02*
D03*
X79031D02*
D03*
X108937Y15000D02*
D03*
X105000D02*
D03*
Y11000D02*
D03*
X108937D02*
D03*
X64000Y43000D02*
D03*
X67937D02*
D03*
X61000Y4000D02*
D03*
X64937D02*
D03*
X51063D02*
D03*
X55000D02*
D03*
X167937Y58000D02*
D03*
X164000D02*
D03*
Y62000D02*
D03*
X167937D02*
D03*
X25937Y5000D02*
D03*
X22000D02*
D03*
X70000Y31000D02*
D03*
X73937D02*
D03*
X25937Y9000D02*
D03*
X22000D02*
D03*
X29969Y23000D02*
D03*
X26032D02*
D03*
D24*
X193937Y60000D02*
D03*
X190000D02*
D03*
X175114Y3469D02*
D03*
X171177D02*
D03*
X179083Y7469D02*
D03*
X175146D02*
D03*
X157831Y3666D02*
D03*
X161768D02*
D03*
X82937Y15000D02*
D03*
X79000D02*
D03*
X64937Y54000D02*
D03*
X61000D02*
D03*
X79000Y19000D02*
D03*
X82937D02*
D03*
X67968Y49000D02*
D03*
X64031D02*
D03*
D25*
X171807Y56744D02*
D03*
Y52807D02*
D03*
X171114Y12469D02*
D03*
Y8532D02*
D03*
Y25469D02*
D03*
Y21532D02*
D03*
X167768Y5729D02*
D03*
Y9666D02*
D03*
X157768Y6697D02*
D03*
Y10634D02*
D03*
X84000Y4031D02*
D03*
Y7969D02*
D03*
D26*
X189894Y25461D02*
D03*
X187925D02*
D03*
X185957D02*
D03*
X183988D02*
D03*
X182020D02*
D03*
X180051D02*
D03*
X178083D02*
D03*
X176114D02*
D03*
Y12469D02*
D03*
X178083D02*
D03*
X180051D02*
D03*
X182020D02*
D03*
X183988D02*
D03*
X185957D02*
D03*
X187925D02*
D03*
X189894D02*
D03*
D27*
X174540Y21917D02*
D03*
Y16012D02*
D03*
X191469D02*
D03*
Y21917D02*
D03*
D28*
X174854Y29469D02*
D03*
X171114D02*
D03*
X57740Y54000D02*
D03*
X54000D02*
D03*
X60740Y49000D02*
D03*
X57000D02*
D03*
D29*
X162114Y8516D02*
D03*
X163768D02*
D03*
Y10091D02*
D03*
X162114D02*
D03*
X163768Y11666D02*
D03*
X162114D02*
D03*
D30*
X48614Y31512D02*
D03*
D31*
X47827Y43126D02*
D03*
X55701D02*
D03*
Y19898D02*
D03*
X47827D02*
D03*
X39953Y43126D02*
D03*
Y19898D02*
D03*
X57276Y43126D02*
D03*
Y19898D02*
D03*
X49402Y43126D02*
D03*
X50976D02*
D03*
X52551D02*
D03*
X54126D02*
D03*
Y19898D02*
D03*
X52551D02*
D03*
X50976D02*
D03*
X49402D02*
D03*
X41528Y43126D02*
D03*
X43102D02*
D03*
X44677D02*
D03*
X46252D02*
D03*
Y19898D02*
D03*
X44677D02*
D03*
X43102D02*
D03*
X41528D02*
D03*
D32*
X60228Y38598D02*
D03*
Y30724D02*
D03*
Y22850D02*
D03*
X37000Y30724D02*
D03*
Y38598D02*
D03*
Y22850D02*
D03*
X60228Y40173D02*
D03*
Y37024D02*
D03*
Y35449D02*
D03*
Y33874D02*
D03*
Y32299D02*
D03*
Y29150D02*
D03*
Y27575D02*
D03*
Y26000D02*
D03*
Y24425D02*
D03*
X37000Y40173D02*
D03*
Y32299D02*
D03*
Y33874D02*
D03*
Y35449D02*
D03*
Y37024D02*
D03*
Y24425D02*
D03*
Y26000D02*
D03*
Y27575D02*
D03*
Y29150D02*
D03*
D33*
X7000Y63000D02*
D03*
X209000D02*
D03*
D34*
X92417Y36000D02*
D03*
Y37969D02*
D03*
Y39937D02*
D03*
Y41906D02*
D03*
Y43874D02*
D03*
Y45842D02*
D03*
Y47811D02*
D03*
X111000D02*
D03*
Y45842D02*
D03*
Y43874D02*
D03*
Y41906D02*
D03*
Y39937D02*
D03*
Y37969D02*
D03*
Y36000D02*
D03*
D35*
X107614Y32614D02*
D03*
X105646D02*
D03*
X103677D02*
D03*
X101709D02*
D03*
X99740D02*
D03*
X97772D02*
D03*
X95803D02*
D03*
Y51197D02*
D03*
X97772D02*
D03*
X99740D02*
D03*
X101709D02*
D03*
X103677D02*
D03*
X105646D02*
D03*
X107614D02*
D03*
D36*
X78835Y63756D02*
D03*
Y58244D02*
D03*
X83165D02*
D03*
Y63756D02*
D03*
D37*
X160260Y41000D02*
D03*
X164000D02*
D03*
X167740D02*
D03*
Y52614D02*
D03*
X164000D02*
D03*
X160260D02*
D03*
D38*
X99339Y5882D02*
D03*
Y13559D02*
D03*
Y11000D02*
D03*
Y8441D02*
D03*
X88000Y5882D02*
D03*
Y11000D02*
D03*
Y13559D02*
D03*
Y8441D02*
D03*
D39*
X71500Y10118D02*
D03*
Y7559D02*
D03*
Y5000D02*
D03*
X79177D02*
D03*
Y7559D02*
D03*
Y10118D02*
D03*
D41*
X21000Y52000D02*
D03*
Y47000D02*
D03*
X16000Y52000D02*
D03*
Y47000D02*
D03*
X11000Y52000D02*
D03*
Y47000D02*
D03*
D42*
X202740Y54413D02*
D03*
X199000D02*
D03*
X195260D02*
D03*
Y43587D02*
D03*
X202740D02*
D03*
D43*
X173000Y62000D02*
D03*
X181268Y65740D02*
D03*
Y58260D02*
D03*
D44*
X7000Y5000D02*
D03*
Y18410D02*
D03*
D45*
X57000Y10000D02*
D03*
X51000D02*
D03*
D46*
X29000Y13000D02*
D03*
Y16937D02*
D03*
X25850D02*
D03*
Y13000D02*
D03*
D53*
X183004Y18965D02*
D03*
D65*
X75339Y7559D02*
D03*
D72*
X101709Y41906D02*
D03*
D73*
X54000Y65969D02*
D03*
Y64000D02*
D03*
X52031Y65969D02*
D03*
Y64000D02*
D03*
X180968Y53000D02*
D03*
Y51032D02*
D03*
X179000Y53000D02*
D03*
Y51032D02*
D03*
D74*
X70000Y23772D02*
D03*
Y27000D02*
D03*
D75*
X11500Y39500D02*
D03*
X17000Y3000D02*
D03*
X16000Y6000D02*
D03*
Y10000D02*
D03*
X17000Y26855D02*
D03*
X116000Y53000D02*
D03*
X213000D02*
D03*
X211000Y9000D02*
D03*
X155000Y24000D02*
D03*
X157000Y49000D02*
D03*
X176000Y57000D02*
D03*
X193000Y51000D02*
D03*
X172000Y48000D02*
D03*
X23000Y57000D02*
D03*
X15000D02*
D03*
X35000Y62000D02*
D03*
X75136Y59162D02*
D03*
X102000Y62000D02*
D03*
X39278Y58743D02*
D03*
X14000Y63000D02*
D03*
X37000Y45000D02*
D03*
X87000Y29000D02*
D03*
X81000Y23000D02*
D03*
X109850Y66150D02*
D03*
X88000Y64000D02*
D03*
X89000Y59000D02*
D03*
X159000Y35000D02*
D03*
X158000Y60000D02*
D03*
X108000Y63000D02*
D03*
X199000Y60000D02*
D03*
X97000Y18000D02*
D03*
X92000Y13500D02*
D03*
X209000Y56000D02*
D03*
X185000Y43150D02*
D03*
X158000Y19000D02*
D03*
X161000Y28000D02*
D03*
X201000Y39000D02*
D03*
X209114Y16666D02*
D03*
X165114Y3666D02*
D03*
Y27666D02*
D03*
X190114Y7469D02*
D03*
X183004Y16965D02*
D03*
Y20965D02*
D03*
X177985Y18965D02*
D03*
X188024D02*
D03*
X171114Y17469D02*
D03*
X188059Y30319D02*
D03*
X86709Y44056D02*
D03*
X105000Y6000D02*
D03*
X111000Y51000D02*
D03*
X101709Y41906D02*
D03*
X109000Y6000D02*
D03*
X49000Y63850D02*
D03*
X94068Y9720D02*
D03*
X86709Y39755D02*
D03*
X43614Y37512D02*
D03*
X53614D02*
D03*
X48614D02*
D03*
X43614Y31512D02*
D03*
Y25512D02*
D03*
X48614D02*
D03*
X53614D02*
D03*
Y31512D02*
D03*
X48614D02*
D03*
X31000Y36000D02*
D03*
X57000Y66000D02*
D03*
X61000D02*
D03*
X94000Y3000D02*
D03*
X16000Y37000D02*
D03*
X32000Y4000D02*
D03*
X44000D02*
D03*
X6937Y40000D02*
D03*
X3000Y30000D02*
D03*
Y25000D02*
D03*
X4000Y36000D02*
D03*
X21000D02*
D03*
X26000D02*
D03*
X21000Y27000D02*
D03*
X12000D02*
D03*
X60681Y43000D02*
D03*
X61000Y15000D02*
D03*
X65000Y9000D02*
D03*
X83709Y46905D02*
D03*
X82709Y41906D02*
D03*
X73000Y43000D02*
D03*
X74850Y26000D02*
D03*
X37000Y15000D02*
D03*
X31000Y44000D02*
D03*
X30000Y20000D02*
D03*
X75339Y7559D02*
D03*
X17000Y14000D02*
D03*
X19000Y18000D02*
D03*
Y23000D02*
D03*
M02*
