G04*
G04 #@! TF.GenerationSoftware,Altium Limited,Altium Designer,20.2.6 (244)*
G04*
G04 Layer_Color=8388736*
%FSLAX25Y25*%
%MOIN*%
G70*
G04*
G04 #@! TF.SameCoordinates,535AE1F0-9979-4E68-9054-F600688F37C9*
G04*
G04*
G04 #@! TF.FilePolarity,Negative*
G04*
G01*
G75*
%ADD10C,0.01000*%
%ADD36R,0.03150X0.03543*%
G04:AMPARAMS|DCode=39|XSize=17.72mil|YSize=11.81mil|CornerRadius=1.95mil|HoleSize=0mil|Usage=FLASHONLY|Rotation=0.000|XOffset=0mil|YOffset=0mil|HoleType=Round|Shape=RoundedRectangle|*
%AMROUNDEDRECTD39*
21,1,0.01772,0.00791,0,0,0.0*
21,1,0.01382,0.01181,0,0,0.0*
1,1,0.00390,0.00691,-0.00396*
1,1,0.00390,-0.00691,-0.00396*
1,1,0.00390,-0.00691,0.00396*
1,1,0.00390,0.00691,0.00396*
%
%ADD39ROUNDEDRECTD39*%
%ADD40C,0.01417*%
%ADD41C,0.03098*%
G04:AMPARAMS|DCode=43|XSize=51.18mil|YSize=23.62mil|CornerRadius=2.01mil|HoleSize=0mil|Usage=FLASHONLY|Rotation=180.000|XOffset=0mil|YOffset=0mil|HoleType=Round|Shape=RoundedRectangle|*
%AMROUNDEDRECTD43*
21,1,0.05118,0.01961,0,0,180.0*
21,1,0.04717,0.02362,0,0,180.0*
1,1,0.00402,-0.02358,0.00980*
1,1,0.00402,0.02358,0.00980*
1,1,0.00402,0.02358,-0.00980*
1,1,0.00402,-0.02358,-0.00980*
%
%ADD43ROUNDEDRECTD43*%
%ADD47R,0.03162X0.03162*%
%ADD48R,0.03162X0.03162*%
%ADD49R,0.02769X0.03162*%
%ADD50R,0.03162X0.02769*%
G04:AMPARAMS|DCode=51|XSize=17.45mil|YSize=31.62mil|CornerRadius=5.98mil|HoleSize=0mil|Usage=FLASHONLY|Rotation=180.000|XOffset=0mil|YOffset=0mil|HoleType=Round|Shape=RoundedRectangle|*
%AMROUNDEDRECTD51*
21,1,0.01745,0.01965,0,0,180.0*
21,1,0.00548,0.03162,0,0,180.0*
1,1,0.01197,-0.00274,0.00983*
1,1,0.01197,0.00274,0.00983*
1,1,0.01197,0.00274,-0.00983*
1,1,0.01197,-0.00274,-0.00983*
%
%ADD51ROUNDEDRECTD51*%
G04:AMPARAMS|DCode=52|XSize=17.45mil|YSize=31.62mil|CornerRadius=5.98mil|HoleSize=0mil|Usage=FLASHONLY|Rotation=90.000|XOffset=0mil|YOffset=0mil|HoleType=Round|Shape=RoundedRectangle|*
%AMROUNDEDRECTD52*
21,1,0.01745,0.01965,0,0,90.0*
21,1,0.00548,0.03162,0,0,90.0*
1,1,0.01197,0.00983,0.00274*
1,1,0.01197,0.00983,-0.00274*
1,1,0.01197,-0.00983,-0.00274*
1,1,0.01197,-0.00983,0.00274*
%
%ADD52ROUNDEDRECTD52*%
G04:AMPARAMS|DCode=53|XSize=11.81mil|YSize=11.81mil|CornerRadius=1.95mil|HoleSize=0mil|Usage=FLASHONLY|Rotation=180.000|XOffset=0mil|YOffset=0mil|HoleType=Round|Shape=RoundedRectangle|*
%AMROUNDEDRECTD53*
21,1,0.01181,0.00791,0,0,180.0*
21,1,0.00791,0.01181,0,0,180.0*
1,1,0.00390,-0.00396,0.00396*
1,1,0.00390,0.00396,0.00396*
1,1,0.00390,0.00396,-0.00396*
1,1,0.00390,-0.00396,-0.00396*
%
%ADD53ROUNDEDRECTD53*%
%ADD54R,0.02769X0.03556*%
%ADD55C,0.01299*%
%ADD56R,0.18910X0.18910*%
%ADD57O,0.01587X0.04540*%
%ADD58O,0.04540X0.01587*%
G04:AMPARAMS|DCode=59|XSize=83mil|YSize=83mil|CornerRadius=22.75mil|HoleSize=0mil|Usage=FLASHONLY|Rotation=0.000|XOffset=0mil|YOffset=0mil|HoleType=Round|Shape=RoundedRectangle|*
%AMROUNDEDRECTD59*
21,1,0.08300,0.03750,0,0,0.0*
21,1,0.03750,0.08300,0,0,0.0*
1,1,0.04550,0.01875,-0.01875*
1,1,0.04550,-0.01875,-0.01875*
1,1,0.04550,-0.01875,0.01875*
1,1,0.04550,0.01875,0.01875*
%
%ADD59ROUNDEDRECTD59*%
%ADD60R,0.13595X0.13595*%
G04:AMPARAMS|DCode=61|XSize=46.98mil|YSize=18.63mil|CornerRadius=5.33mil|HoleSize=0mil|Usage=FLASHONLY|Rotation=180.000|XOffset=0mil|YOffset=0mil|HoleType=Round|Shape=RoundedRectangle|*
%AMROUNDEDRECTD61*
21,1,0.04698,0.00797,0,0,180.0*
21,1,0.03632,0.01863,0,0,180.0*
1,1,0.01066,-0.01816,0.00399*
1,1,0.01066,0.01816,0.00399*
1,1,0.01066,0.01816,-0.00399*
1,1,0.01066,-0.01816,-0.00399*
%
%ADD61ROUNDEDRECTD61*%
G04:AMPARAMS|DCode=62|XSize=46.98mil|YSize=18.63mil|CornerRadius=5.33mil|HoleSize=0mil|Usage=FLASHONLY|Rotation=270.000|XOffset=0mil|YOffset=0mil|HoleType=Round|Shape=RoundedRectangle|*
%AMROUNDEDRECTD62*
21,1,0.04698,0.00797,0,0,270.0*
21,1,0.03632,0.01863,0,0,270.0*
1,1,0.01066,-0.00399,-0.01816*
1,1,0.01066,-0.00399,0.01816*
1,1,0.01066,0.00399,0.01816*
1,1,0.01066,0.00399,-0.01816*
%
%ADD62ROUNDEDRECTD62*%
G04:AMPARAMS|DCode=63|XSize=33.59mil|YSize=55.24mil|CornerRadius=5.92mil|HoleSize=0mil|Usage=FLASHONLY|Rotation=180.000|XOffset=0mil|YOffset=0mil|HoleType=Round|Shape=RoundedRectangle|*
%AMROUNDEDRECTD63*
21,1,0.03359,0.04341,0,0,180.0*
21,1,0.02175,0.05524,0,0,180.0*
1,1,0.01184,-0.01088,0.02170*
1,1,0.01184,0.01088,0.02170*
1,1,0.01184,0.01088,-0.02170*
1,1,0.01184,-0.01088,-0.02170*
%
%ADD63ROUNDEDRECTD63*%
%ADD64R,0.02572X0.01981*%
G04:AMPARAMS|DCode=65|XSize=39.37mil|YSize=62.99mil|CornerRadius=1.97mil|HoleSize=0mil|Usage=FLASHONLY|Rotation=0.000|XOffset=0mil|YOffset=0mil|HoleType=Round|Shape=RoundedRectangle|*
%AMROUNDEDRECTD65*
21,1,0.03937,0.05906,0,0,0.0*
21,1,0.03543,0.06299,0,0,0.0*
1,1,0.00394,0.01772,-0.02953*
1,1,0.00394,-0.01772,-0.02953*
1,1,0.00394,-0.01772,0.02953*
1,1,0.00394,0.01772,0.02953*
%
%ADD65ROUNDEDRECTD65*%
G04:AMPARAMS|DCode=66|XSize=31.62mil|YSize=47.37mil|CornerRadius=6.01mil|HoleSize=0mil|Usage=FLASHONLY|Rotation=0.000|XOffset=0mil|YOffset=0mil|HoleType=Round|Shape=RoundedRectangle|*
%AMROUNDEDRECTD66*
21,1,0.03162,0.03535,0,0,0.0*
21,1,0.01961,0.04737,0,0,0.0*
1,1,0.01202,0.00980,-0.01768*
1,1,0.01202,-0.00980,-0.01768*
1,1,0.01202,-0.00980,0.01768*
1,1,0.01202,0.00980,0.01768*
%
%ADD66ROUNDEDRECTD66*%
%ADD67R,0.06142X0.03150*%
%ADD68R,0.03300X0.04800*%
%ADD69R,0.04961X0.02736*%
%ADD70R,0.02646X0.03039*%
%ADD71C,0.03300*%
G36*
X189060Y23397D02*
X189112Y23387D01*
X189161Y23370D01*
X189208Y23347D01*
X189252Y23318D01*
X189291Y23283D01*
X189326Y23244D01*
X189355Y23200D01*
X189378Y23153D01*
X189395Y23104D01*
X189405Y23052D01*
X189409Y23000D01*
Y20901D01*
X191862Y20901D01*
X191915Y20897D01*
X191966Y20887D01*
X192016Y20870D01*
X192063Y20847D01*
X192106Y20818D01*
X192146Y20784D01*
X192181Y20744D01*
X192210Y20700D01*
X192233Y20653D01*
X192250Y20604D01*
X192260Y20552D01*
X192263Y20500D01*
Y19594D01*
X192260Y19542D01*
X192250Y19491D01*
X192233Y19441D01*
X192210Y19394D01*
X192181Y19351D01*
X192146Y19311D01*
X192106Y19276D01*
X192063Y19247D01*
X192016Y19224D01*
X191966Y19207D01*
X191915Y19197D01*
X191862Y19194D01*
X190984Y19194D01*
Y18735D01*
X191862Y18735D01*
X191915Y18732D01*
X191966Y18722D01*
X192016Y18705D01*
X192063Y18682D01*
X192106Y18653D01*
X192146Y18618D01*
X192181Y18579D01*
X192210Y18535D01*
X192233Y18488D01*
X192250Y18438D01*
X192260Y18387D01*
X192263Y18335D01*
Y17429D01*
X192260Y17377D01*
X192250Y17325D01*
X192233Y17276D01*
X192210Y17229D01*
X192181Y17185D01*
X192146Y17146D01*
X192106Y17111D01*
X192063Y17082D01*
X192016Y17059D01*
X191966Y17042D01*
X191915Y17032D01*
X191862Y17028D01*
X189409Y17028D01*
Y14929D01*
X189405Y14877D01*
X189395Y14825D01*
X189378Y14776D01*
X189355Y14729D01*
X189326Y14685D01*
X189291Y14646D01*
X189252Y14611D01*
X189208Y14582D01*
X189161Y14559D01*
X189112Y14542D01*
X189060Y14532D01*
X189008Y14528D01*
X177000D01*
X176948Y14532D01*
X176896Y14542D01*
X176847Y14559D01*
X176800Y14582D01*
X176756Y14611D01*
X176717Y14646D01*
X176682Y14685D01*
X176653Y14729D01*
X176630Y14776D01*
X176613Y14825D01*
X176603Y14877D01*
X176599Y14929D01*
Y17028D01*
X174146Y17028D01*
X174094Y17032D01*
X174042Y17042D01*
X173993Y17059D01*
X173945Y17082D01*
X173902Y17111D01*
X173863Y17146D01*
X173828Y17185D01*
X173799Y17229D01*
X173776Y17276D01*
X173759Y17325D01*
X173749Y17377D01*
X173745Y17429D01*
Y18335D01*
X173749Y18387D01*
X173759Y18438D01*
X173776Y18488D01*
X173799Y18535D01*
X173828Y18579D01*
X173863Y18618D01*
X173902Y18653D01*
X173945Y18682D01*
X173993Y18705D01*
X174042Y18722D01*
X174094Y18732D01*
X174146Y18735D01*
X175024Y18735D01*
Y19194D01*
X174146Y19194D01*
X174094Y19197D01*
X174042Y19207D01*
X173993Y19224D01*
X173946Y19247D01*
X173902Y19276D01*
X173863Y19311D01*
X173828Y19351D01*
X173799Y19394D01*
X173776Y19441D01*
X173759Y19491D01*
X173749Y19542D01*
X173745Y19594D01*
Y20500D01*
X173749Y20552D01*
X173759Y20604D01*
X173776Y20653D01*
X173799Y20700D01*
X173828Y20744D01*
X173863Y20784D01*
X173902Y20818D01*
X173946Y20847D01*
X173993Y20870D01*
X174042Y20887D01*
X174094Y20897D01*
X174146Y20901D01*
X176599Y20901D01*
Y23000D01*
X176603Y23052D01*
X176613Y23104D01*
X176630Y23153D01*
X176653Y23200D01*
X176682Y23244D01*
X176717Y23283D01*
X176756Y23318D01*
X176800Y23347D01*
X176847Y23370D01*
X176896Y23387D01*
X176948Y23397D01*
X177000Y23401D01*
X189008D01*
X189060Y23397D01*
D02*
G37*
D10*
X215996Y62174D02*
G03*
X209000Y69000I-6828J0D01*
G01*
X209172Y0D02*
G03*
X216000Y6828I0J6828D01*
G01*
X6449Y69000D02*
G03*
X0Y62550I0J-6449D01*
G01*
Y6449D02*
G03*
X6449Y0I6449J0D01*
G01*
X216000Y6828D02*
Y62174D01*
X6449Y0D02*
X209172D01*
X6449Y69000D02*
X209000D01*
X0Y6449D02*
Y62550D01*
D36*
X78835Y63756D02*
D03*
Y58244D02*
D03*
X83165D02*
D03*
Y63756D02*
D03*
D39*
X71500Y10118D02*
D03*
Y7559D02*
D03*
Y5000D02*
D03*
X79177D02*
D03*
Y7559D02*
D03*
Y10118D02*
D03*
D40*
X54000Y65969D02*
D03*
Y64000D02*
D03*
X52031Y65969D02*
D03*
Y64000D02*
D03*
X180968Y53000D02*
D03*
Y51032D02*
D03*
X179000Y53000D02*
D03*
Y51032D02*
D03*
D41*
X21000Y52000D02*
D03*
Y47000D02*
D03*
X16000Y52000D02*
D03*
Y47000D02*
D03*
X11000Y52000D02*
D03*
Y47000D02*
D03*
D43*
X173000Y62000D02*
D03*
X181268Y65740D02*
D03*
Y58260D02*
D03*
D47*
X181114Y36469D02*
D03*
Y32532D02*
D03*
X196114Y16532D02*
D03*
Y20469D02*
D03*
X204114Y16532D02*
D03*
Y20469D02*
D03*
X200114Y16532D02*
D03*
Y20469D02*
D03*
Y28406D02*
D03*
Y24469D02*
D03*
X201114Y5532D02*
D03*
Y9469D02*
D03*
X205114Y5469D02*
D03*
Y9406D02*
D03*
X38000Y9000D02*
D03*
Y5063D02*
D03*
X97000Y25000D02*
D03*
Y21063D02*
D03*
X93000Y24969D02*
D03*
Y21032D02*
D03*
X102000Y60937D02*
D03*
Y57000D02*
D03*
X111000Y58937D02*
D03*
Y55000D02*
D03*
X7000Y27968D02*
D03*
Y24032D02*
D03*
Y35937D02*
D03*
Y32000D02*
D03*
X11000D02*
D03*
Y35937D02*
D03*
X108000Y21000D02*
D03*
Y24937D02*
D03*
X112000Y21000D02*
D03*
Y24937D02*
D03*
X73000Y62032D02*
D03*
Y65969D02*
D03*
X101000Y21063D02*
D03*
Y25000D02*
D03*
X43000Y13969D02*
D03*
Y10031D02*
D03*
X47000D02*
D03*
Y13969D02*
D03*
X65000Y13032D02*
D03*
Y16969D02*
D03*
X70000Y20000D02*
D03*
Y16063D02*
D03*
X33000Y9063D02*
D03*
Y13000D02*
D03*
D48*
X15000Y32000D02*
D03*
X18937D02*
D03*
X181000Y43000D02*
D03*
X177063D02*
D03*
X204114Y32469D02*
D03*
X208051D02*
D03*
X204114Y28469D02*
D03*
X208051D02*
D03*
X204114Y24469D02*
D03*
X208051D02*
D03*
X192177Y32469D02*
D03*
X196114D02*
D03*
X193114Y9469D02*
D03*
X197051D02*
D03*
X168114Y31666D02*
D03*
X164177D02*
D03*
X168114Y35666D02*
D03*
X164177D02*
D03*
X165114Y20666D02*
D03*
X161177D02*
D03*
X165114Y16666D02*
D03*
X161177D02*
D03*
X165114Y24666D02*
D03*
X161177D02*
D03*
X204114Y36469D02*
D03*
X208051D02*
D03*
X93063Y60000D02*
D03*
X97000D02*
D03*
X93063Y56000D02*
D03*
X97000D02*
D03*
X93063Y64000D02*
D03*
X97000D02*
D03*
X177032Y47000D02*
D03*
X180968D02*
D03*
X209000Y49000D02*
D03*
X212937D02*
D03*
X69000Y66000D02*
D03*
X65063D02*
D03*
X186000Y55000D02*
D03*
X189937D02*
D03*
X189874Y51000D02*
D03*
X185937D02*
D03*
X209000Y44000D02*
D03*
X212937D02*
D03*
X82968Y53000D02*
D03*
X79031D02*
D03*
X108937Y15000D02*
D03*
X105000D02*
D03*
Y11000D02*
D03*
X108937D02*
D03*
X64000Y43000D02*
D03*
X67937D02*
D03*
X61000Y4000D02*
D03*
X64937D02*
D03*
X51063D02*
D03*
X55000D02*
D03*
X167937Y58000D02*
D03*
X164000D02*
D03*
Y62000D02*
D03*
X167937D02*
D03*
X25937Y5000D02*
D03*
X22000D02*
D03*
X70000Y31000D02*
D03*
X73937D02*
D03*
X25937Y9000D02*
D03*
X22000D02*
D03*
X29969Y23000D02*
D03*
X26032D02*
D03*
D49*
X193937Y60000D02*
D03*
X190000D02*
D03*
X175114Y3469D02*
D03*
X171177D02*
D03*
X179083Y7469D02*
D03*
X175146D02*
D03*
X157831Y3666D02*
D03*
X161768D02*
D03*
X82937Y15000D02*
D03*
X79000D02*
D03*
X64937Y54000D02*
D03*
X61000D02*
D03*
X79000Y19000D02*
D03*
X82937D02*
D03*
X67968Y49000D02*
D03*
X64031D02*
D03*
D50*
X171807Y56744D02*
D03*
Y52807D02*
D03*
X171114Y12469D02*
D03*
Y8532D02*
D03*
Y25469D02*
D03*
Y21532D02*
D03*
X167768Y5729D02*
D03*
Y9666D02*
D03*
X157768Y6697D02*
D03*
Y10634D02*
D03*
X84000Y4031D02*
D03*
Y7969D02*
D03*
D51*
X189894Y25461D02*
D03*
X187925D02*
D03*
X185957D02*
D03*
X183988D02*
D03*
X182020D02*
D03*
X180051D02*
D03*
X178083D02*
D03*
X176114D02*
D03*
Y12469D02*
D03*
X178083D02*
D03*
X180051D02*
D03*
X182020D02*
D03*
X183988D02*
D03*
X185957D02*
D03*
X187925D02*
D03*
X189894D02*
D03*
D52*
X174540Y21917D02*
D03*
Y16012D02*
D03*
X191469D02*
D03*
Y21917D02*
D03*
D53*
X183004Y18965D02*
D03*
D54*
X174854Y29469D02*
D03*
X171114D02*
D03*
X57740Y54000D02*
D03*
X54000D02*
D03*
X60740Y49000D02*
D03*
X57000D02*
D03*
D55*
X162114Y8516D02*
D03*
X163768D02*
D03*
Y10091D02*
D03*
X162114D02*
D03*
X163768Y11666D02*
D03*
X162114D02*
D03*
D56*
X48614Y31512D02*
D03*
D57*
X47827Y43126D02*
D03*
X55701D02*
D03*
Y19898D02*
D03*
X47827D02*
D03*
X39953Y43126D02*
D03*
Y19898D02*
D03*
X57276Y43126D02*
D03*
Y19898D02*
D03*
X49402Y43126D02*
D03*
X50976D02*
D03*
X52551D02*
D03*
X54126D02*
D03*
Y19898D02*
D03*
X52551D02*
D03*
X50976D02*
D03*
X49402D02*
D03*
X41528Y43126D02*
D03*
X43102D02*
D03*
X44677D02*
D03*
X46252D02*
D03*
Y19898D02*
D03*
X44677D02*
D03*
X43102D02*
D03*
X41528D02*
D03*
D58*
X60228Y38598D02*
D03*
Y30724D02*
D03*
Y22850D02*
D03*
X37000Y30724D02*
D03*
Y38598D02*
D03*
Y22850D02*
D03*
X60228Y40173D02*
D03*
Y37024D02*
D03*
Y35449D02*
D03*
Y33874D02*
D03*
Y32299D02*
D03*
Y29150D02*
D03*
Y27575D02*
D03*
Y26000D02*
D03*
Y24425D02*
D03*
X37000Y40173D02*
D03*
Y32299D02*
D03*
Y33874D02*
D03*
Y35449D02*
D03*
Y37024D02*
D03*
Y24425D02*
D03*
Y26000D02*
D03*
Y27575D02*
D03*
Y29150D02*
D03*
D59*
X7000Y63000D02*
D03*
X209000D02*
D03*
D60*
X101709Y41906D02*
D03*
D61*
X92417Y36000D02*
D03*
Y37969D02*
D03*
Y39937D02*
D03*
Y41906D02*
D03*
Y43874D02*
D03*
Y45842D02*
D03*
Y47811D02*
D03*
X111000D02*
D03*
Y45842D02*
D03*
Y43874D02*
D03*
Y41906D02*
D03*
Y39937D02*
D03*
Y37969D02*
D03*
Y36000D02*
D03*
D62*
X107614Y32614D02*
D03*
X105646D02*
D03*
X103677D02*
D03*
X101709D02*
D03*
X99740D02*
D03*
X97772D02*
D03*
X95803D02*
D03*
Y51197D02*
D03*
X97772D02*
D03*
X99740D02*
D03*
X101709D02*
D03*
X103677D02*
D03*
X105646D02*
D03*
X107614D02*
D03*
D63*
X160260Y41000D02*
D03*
X164000D02*
D03*
X167740D02*
D03*
Y52614D02*
D03*
X164000D02*
D03*
X160260D02*
D03*
D64*
X99339Y5882D02*
D03*
Y13559D02*
D03*
Y11000D02*
D03*
Y8441D02*
D03*
X88000Y5882D02*
D03*
Y11000D02*
D03*
Y13559D02*
D03*
Y8441D02*
D03*
D65*
X75339Y7559D02*
D03*
D66*
X202740Y54413D02*
D03*
X199000D02*
D03*
X195260D02*
D03*
Y43587D02*
D03*
X202740D02*
D03*
D67*
X7000Y5000D02*
D03*
Y18410D02*
D03*
D68*
X57000Y10000D02*
D03*
X51000D02*
D03*
D69*
X70000Y23772D02*
D03*
Y27000D02*
D03*
D70*
X29000Y13000D02*
D03*
Y16937D02*
D03*
X25850D02*
D03*
Y13000D02*
D03*
D71*
X11500Y39500D02*
D03*
X17000Y3000D02*
D03*
X16000Y6000D02*
D03*
Y10000D02*
D03*
X17000Y26855D02*
D03*
X116000Y53000D02*
D03*
X213000D02*
D03*
X211000Y9000D02*
D03*
X155000Y24000D02*
D03*
X157000Y49000D02*
D03*
X176000Y57000D02*
D03*
X193000Y51000D02*
D03*
X172000Y48000D02*
D03*
X23000Y57000D02*
D03*
X15000D02*
D03*
X35000Y62000D02*
D03*
X75136Y59162D02*
D03*
X102000Y62000D02*
D03*
X39278Y58743D02*
D03*
X14000Y63000D02*
D03*
X37000Y45000D02*
D03*
X87000Y29000D02*
D03*
X81000Y23000D02*
D03*
X109850Y66150D02*
D03*
X88000Y64000D02*
D03*
X89000Y59000D02*
D03*
X159000Y35000D02*
D03*
X158000Y60000D02*
D03*
X108000Y63000D02*
D03*
X199000Y60000D02*
D03*
X97000Y18000D02*
D03*
X92000Y13500D02*
D03*
X209000Y56000D02*
D03*
X185000Y43150D02*
D03*
X158000Y19000D02*
D03*
X161000Y28000D02*
D03*
X201000Y39000D02*
D03*
X209114Y16666D02*
D03*
X165114Y3666D02*
D03*
Y27666D02*
D03*
X190114Y7469D02*
D03*
X183004Y16965D02*
D03*
Y20965D02*
D03*
X177985Y18965D02*
D03*
X188024D02*
D03*
X171114Y17469D02*
D03*
X188059Y30319D02*
D03*
X86709Y44056D02*
D03*
X105000Y6000D02*
D03*
X111000Y51000D02*
D03*
X101709Y41906D02*
D03*
X109000Y6000D02*
D03*
X49000Y63850D02*
D03*
X94068Y9720D02*
D03*
X86709Y39755D02*
D03*
X43614Y37512D02*
D03*
X53614D02*
D03*
X48614D02*
D03*
X43614Y31512D02*
D03*
Y25512D02*
D03*
X48614D02*
D03*
X53614D02*
D03*
Y31512D02*
D03*
X48614D02*
D03*
X31000Y36000D02*
D03*
X57000Y66000D02*
D03*
X61000D02*
D03*
X94000Y3000D02*
D03*
X16000Y37000D02*
D03*
X32000Y4000D02*
D03*
X44000D02*
D03*
X6937Y40000D02*
D03*
X3000Y30000D02*
D03*
Y25000D02*
D03*
X4000Y36000D02*
D03*
X21000D02*
D03*
X26000D02*
D03*
X21000Y27000D02*
D03*
X12000D02*
D03*
X60681Y43000D02*
D03*
X61000Y15000D02*
D03*
X65000Y9000D02*
D03*
X83709Y46905D02*
D03*
X82709Y41906D02*
D03*
X73000Y43000D02*
D03*
X74850Y26000D02*
D03*
X37000Y15000D02*
D03*
X31000Y44000D02*
D03*
X30000Y20000D02*
D03*
X75339Y7559D02*
D03*
X17000Y14000D02*
D03*
X19000Y18000D02*
D03*
Y23000D02*
D03*
M02*
