G04*
G04 #@! TF.GenerationSoftware,Altium Limited,Altium Designer,21.3.2 (30)*
G04*
G04 Layer_Color=65535*
%FSLAX44Y44*%
%MOMM*%
G71*
G04*
G04 #@! TF.SameCoordinates,7BEB40AD-1A81-495B-ADFE-364E7EA3D76F*
G04*
G04*
G04 #@! TF.FilePolarity,Positive*
G04*
G01*
G75*
%ADD10C,0.2540*%
%ADD11C,0.2500*%
%ADD12C,0.1524*%
%ADD13C,0.2000*%
%ADD14C,0.1270*%
%ADD15C,0.0500*%
G36*
X803107Y712910D02*
X803293D01*
Y712817D01*
X803479D01*
Y712724D01*
X803665D01*
Y712631D01*
X803851D01*
Y712538D01*
X804037D01*
Y712445D01*
X804130D01*
Y712352D01*
X804316D01*
Y712259D01*
X804409D01*
Y712166D01*
X804502D01*
Y712073D01*
X804688D01*
Y711980D01*
X804781D01*
Y711887D01*
X804874D01*
Y711794D01*
X804967D01*
Y711701D01*
X805060D01*
Y711608D01*
X805153D01*
Y711515D01*
X805246D01*
Y711422D01*
X805339D01*
Y711329D01*
X805432D01*
Y711236D01*
X805525D01*
Y711049D01*
X805618D01*
Y710956D01*
X805711D01*
Y710770D01*
X805804D01*
Y710677D01*
X805897D01*
Y710491D01*
X805990D01*
Y710398D01*
X806083D01*
Y710212D01*
X806176D01*
Y710026D01*
X806269D01*
Y709840D01*
X806362D01*
Y709561D01*
X806455D01*
Y709282D01*
X806548D01*
Y709096D01*
X806641D01*
Y708631D01*
X806734D01*
Y708259D01*
X806827D01*
Y706492D01*
X806734D01*
Y706120D01*
X806641D01*
Y705655D01*
X806548D01*
Y705469D01*
X806455D01*
Y705190D01*
X806362D01*
Y704911D01*
X806269D01*
Y704818D01*
X806176D01*
Y704539D01*
X806083D01*
Y704446D01*
X805990D01*
Y704260D01*
X805897D01*
Y704074D01*
X805804D01*
Y703981D01*
X805711D01*
Y703888D01*
X805618D01*
Y703702D01*
X805525D01*
Y703609D01*
X805432D01*
Y703516D01*
X805339D01*
Y703423D01*
X805246D01*
Y703330D01*
X805153D01*
Y703237D01*
X805060D01*
Y703144D01*
X804967D01*
Y703051D01*
X804874D01*
Y702958D01*
X804781D01*
Y702865D01*
X804688D01*
Y702772D01*
X804595D01*
Y702679D01*
X804502D01*
Y702586D01*
X804316D01*
Y702493D01*
X804223D01*
Y702400D01*
X804130D01*
Y702307D01*
X803944D01*
Y702214D01*
X803758D01*
Y702121D01*
X803572D01*
Y702028D01*
X803386D01*
Y701935D01*
X803293D01*
Y701842D01*
X803014D01*
Y701749D01*
X802828D01*
Y701656D01*
X802456D01*
Y701563D01*
X802177D01*
Y701469D01*
X801712D01*
Y701376D01*
X788132D01*
Y701469D01*
X787853D01*
Y701563D01*
X787760D01*
Y701656D01*
X787574D01*
Y701749D01*
X787388D01*
Y701842D01*
X787295D01*
Y701935D01*
X787202D01*
Y702028D01*
X787109D01*
Y702121D01*
X787016D01*
Y702307D01*
X786923D01*
Y702400D01*
X786830D01*
Y702679D01*
X786737D01*
Y702958D01*
X786644D01*
Y719792D01*
X786737D01*
Y720164D01*
X786830D01*
Y720350D01*
X786923D01*
Y720443D01*
X787016D01*
Y720630D01*
X787109D01*
Y720723D01*
X787202D01*
Y720816D01*
X787295D01*
Y720909D01*
X787388D01*
Y721002D01*
X787574D01*
Y721095D01*
X787667D01*
Y721188D01*
X787853D01*
Y721281D01*
X788225D01*
Y721374D01*
X797619D01*
Y721281D01*
X798177D01*
Y721188D01*
X798549D01*
Y721095D01*
X798735D01*
Y721002D01*
X799014D01*
Y720909D01*
X799200D01*
Y720816D01*
X799479D01*
Y720723D01*
X799572D01*
Y720630D01*
X799758D01*
Y720536D01*
X799944D01*
Y720443D01*
X800037D01*
Y720350D01*
X800223D01*
Y720257D01*
X800316D01*
Y720164D01*
X800409D01*
Y720071D01*
X800595D01*
Y719978D01*
X800688D01*
Y719885D01*
X800781D01*
Y719792D01*
X800874D01*
Y719699D01*
X800967D01*
Y719606D01*
X801060D01*
Y719513D01*
X801153D01*
Y719420D01*
X801247D01*
Y719327D01*
X801339D01*
Y719234D01*
X801433D01*
Y719141D01*
X801526D01*
Y718955D01*
X801619D01*
Y718862D01*
X801712D01*
Y718676D01*
X801805D01*
Y718583D01*
X801898D01*
Y718397D01*
X801991D01*
Y718304D01*
X802084D01*
Y718118D01*
X802177D01*
Y717932D01*
X802270D01*
Y717746D01*
X802363D01*
Y717467D01*
X802456D01*
Y717188D01*
X802549D01*
Y716909D01*
X802642D01*
Y716444D01*
X802735D01*
Y715979D01*
X802828D01*
Y714770D01*
X802735D01*
Y714305D01*
X802642D01*
Y713840D01*
X802549D01*
Y713561D01*
X802456D01*
Y713189D01*
X802642D01*
Y713096D01*
X802828D01*
Y713003D01*
X803107D01*
Y712910D01*
D02*
G37*
G36*
X836683Y733930D02*
X837334D01*
Y733837D01*
X837613D01*
Y733744D01*
X837799D01*
Y733651D01*
X837985D01*
Y733558D01*
X838078D01*
Y733465D01*
X838264D01*
Y733372D01*
X838357D01*
Y733279D01*
X838450D01*
Y733186D01*
X838543D01*
Y733093D01*
X838636D01*
Y733000D01*
X838729D01*
Y732907D01*
X838822D01*
Y732814D01*
X838915D01*
Y732535D01*
X839008D01*
Y732442D01*
X839101D01*
Y732256D01*
X839194D01*
Y731884D01*
X839287D01*
Y731512D01*
X839380D01*
Y731047D01*
X839287D01*
Y730675D01*
X839194D01*
Y730302D01*
X839101D01*
Y730116D01*
X839008D01*
Y729930D01*
X838915D01*
Y729744D01*
X838822D01*
Y729651D01*
X838729D01*
Y729465D01*
X838636D01*
Y729372D01*
X838543D01*
Y729279D01*
X838450D01*
Y729186D01*
X838357D01*
Y729093D01*
X838171D01*
Y729000D01*
X838078D01*
Y728907D01*
X837892D01*
Y728814D01*
X837706D01*
Y728721D01*
X837613D01*
Y728628D01*
X837148D01*
Y728535D01*
X835939D01*
Y728628D01*
X835474D01*
Y728535D01*
X835381D01*
Y728349D01*
X835288D01*
Y728256D01*
X835195D01*
Y728163D01*
X835102D01*
Y727977D01*
X835009D01*
Y727791D01*
X834916D01*
Y727605D01*
X834823D01*
Y727512D01*
X834730D01*
Y727326D01*
X834637D01*
Y727233D01*
X834544D01*
Y727140D01*
X834451D01*
Y726954D01*
X834358D01*
Y726768D01*
X834265D01*
Y726582D01*
X834172D01*
Y726489D01*
X834079D01*
Y726396D01*
X833986D01*
Y726210D01*
X833893D01*
Y726024D01*
X833800D01*
Y725931D01*
X833707D01*
Y725745D01*
X833614D01*
Y725559D01*
X833521D01*
Y725466D01*
X833428D01*
Y725373D01*
X833335D01*
Y725187D01*
X833242D01*
Y725001D01*
X833149D01*
Y724815D01*
X833056D01*
Y724722D01*
X832963D01*
Y724629D01*
X832870D01*
Y724443D01*
X832777D01*
Y724257D01*
X832684D01*
Y724164D01*
X832591D01*
Y723978D01*
X832498D01*
Y723885D01*
X832405D01*
Y723699D01*
X832312D01*
Y723606D01*
X832219D01*
Y723420D01*
X832126D01*
Y723234D01*
X832033D01*
Y723048D01*
X831940D01*
Y722955D01*
X831847D01*
Y722862D01*
X831754D01*
Y722676D01*
X831661D01*
Y722583D01*
X831568D01*
Y722397D01*
X831475D01*
Y722211D01*
X831382D01*
Y722118D01*
X831289D01*
Y721932D01*
X831196D01*
Y721839D01*
X831103D01*
Y721653D01*
X831010D01*
Y721560D01*
X830917D01*
Y721374D01*
X830824D01*
Y721188D01*
X830731D01*
Y721095D01*
X830638D01*
Y720909D01*
X830545D01*
Y720816D01*
X830452D01*
Y720630D01*
X830359D01*
Y720443D01*
X830265D01*
Y720350D01*
X830173D01*
Y720164D01*
X830079D01*
Y720071D01*
X829986D01*
Y719885D01*
X829893D01*
Y719792D01*
X829800D01*
Y719606D01*
X829707D01*
Y719420D01*
X829614D01*
Y719327D01*
X829521D01*
Y719141D01*
X829428D01*
Y719048D01*
X829335D01*
Y718862D01*
X829242D01*
Y718769D01*
X829149D01*
Y718583D01*
X829056D01*
Y718397D01*
X828963D01*
Y718304D01*
X828870D01*
Y718118D01*
X828777D01*
Y718025D01*
X828684D01*
Y717839D01*
X828591D01*
Y717653D01*
X828498D01*
Y717560D01*
X828405D01*
Y717374D01*
X828312D01*
Y717281D01*
X828219D01*
Y717095D01*
X824778D01*
Y717002D01*
X824685D01*
Y716816D01*
X824592D01*
Y716723D01*
X824499D01*
Y716630D01*
X824406D01*
Y716165D01*
X824499D01*
Y715979D01*
X824592D01*
Y715700D01*
X824685D01*
Y715421D01*
X824778D01*
Y715235D01*
X824871D01*
Y714956D01*
X824964D01*
Y714770D01*
X825057D01*
Y714491D01*
X825150D01*
Y714212D01*
X825243D01*
Y714026D01*
X825336D01*
Y713747D01*
X825429D01*
Y713561D01*
X825522D01*
Y713375D01*
X825615D01*
Y713282D01*
X825894D01*
Y713375D01*
X826359D01*
Y713468D01*
X826638D01*
Y713561D01*
X827010D01*
Y713654D01*
X827475D01*
Y713747D01*
X827754D01*
Y713840D01*
X828312D01*
Y713933D01*
X828684D01*
Y714026D01*
X828870D01*
Y714119D01*
X828963D01*
Y714305D01*
X829056D01*
Y714398D01*
X829149D01*
Y714491D01*
X829242D01*
Y714677D01*
X829335D01*
Y714770D01*
X829428D01*
Y715049D01*
X829521D01*
Y715142D01*
X829614D01*
Y715328D01*
X829707D01*
Y715421D01*
X829800D01*
Y715514D01*
X829893D01*
Y715700D01*
X829986D01*
Y715886D01*
X830079D01*
Y716072D01*
X830173D01*
Y716165D01*
X830265D01*
Y716258D01*
X830359D01*
Y716444D01*
X830452D01*
Y716537D01*
X830545D01*
Y716723D01*
X830638D01*
Y716909D01*
X830731D01*
Y717095D01*
X830824D01*
Y717188D01*
X830917D01*
Y717281D01*
X831010D01*
Y717467D01*
X831103D01*
Y717653D01*
X831196D01*
Y717746D01*
X831289D01*
Y717932D01*
X831382D01*
Y718118D01*
X831475D01*
Y718211D01*
X831568D01*
Y718304D01*
X831661D01*
Y718490D01*
X831754D01*
Y718676D01*
X831847D01*
Y718769D01*
X831940D01*
Y718955D01*
X832033D01*
Y719048D01*
X832126D01*
Y719234D01*
X832219D01*
Y719420D01*
X832312D01*
Y719606D01*
X832405D01*
Y719699D01*
X832498D01*
Y719792D01*
X832591D01*
Y719978D01*
X832684D01*
Y720071D01*
X832777D01*
Y720350D01*
X832870D01*
Y720443D01*
X832963D01*
Y720536D01*
X833056D01*
Y720723D01*
X833149D01*
Y720816D01*
X833242D01*
Y721002D01*
X833335D01*
Y721095D01*
X833428D01*
Y721374D01*
X833521D01*
Y721467D01*
X833614D01*
Y721560D01*
X833707D01*
Y721746D01*
X833800D01*
Y721839D01*
X833893D01*
Y722025D01*
X833986D01*
Y722211D01*
X834079D01*
Y722304D01*
X834172D01*
Y722490D01*
X834265D01*
Y722583D01*
X834358D01*
Y722769D01*
X834451D01*
Y722862D01*
X834544D01*
Y723048D01*
X834637D01*
Y723234D01*
X834730D01*
Y723699D01*
X834637D01*
Y723792D01*
X834544D01*
Y724071D01*
X834451D01*
Y724722D01*
X834544D01*
Y725094D01*
X834637D01*
Y725187D01*
X834730D01*
Y725373D01*
X834823D01*
Y725466D01*
X835009D01*
Y725559D01*
X835102D01*
Y725652D01*
X835474D01*
Y725745D01*
X836032D01*
Y725652D01*
X836497D01*
Y725559D01*
X836590D01*
Y725466D01*
X836683D01*
Y725373D01*
X836776D01*
Y725280D01*
X836869D01*
Y725187D01*
X836962D01*
Y724908D01*
X837055D01*
Y724722D01*
X837148D01*
Y724071D01*
X837055D01*
Y723885D01*
X836962D01*
Y723699D01*
X836869D01*
Y723513D01*
X836683D01*
Y723327D01*
X836497D01*
Y723234D01*
X836311D01*
Y723141D01*
X836032D01*
Y723048D01*
X835567D01*
Y723141D01*
X835381D01*
Y723048D01*
X835195D01*
Y722955D01*
X835102D01*
Y722769D01*
X835009D01*
Y722676D01*
X834916D01*
Y722397D01*
X834823D01*
Y722304D01*
X834730D01*
Y722118D01*
X834637D01*
Y722025D01*
X834544D01*
Y721932D01*
X834451D01*
Y721746D01*
X834358D01*
Y721560D01*
X834265D01*
Y721467D01*
X834172D01*
Y721281D01*
X834079D01*
Y721095D01*
X833986D01*
Y721002D01*
X833893D01*
Y720909D01*
X833800D01*
Y720723D01*
X833707D01*
Y720536D01*
X833614D01*
Y720350D01*
X833521D01*
Y720257D01*
X833428D01*
Y720164D01*
X833335D01*
Y719978D01*
X833242D01*
Y719792D01*
X833149D01*
Y719699D01*
X833056D01*
Y719513D01*
X832963D01*
Y719420D01*
X832870D01*
Y719234D01*
X832777D01*
Y719141D01*
X832684D01*
Y718955D01*
X832591D01*
Y718769D01*
X832498D01*
Y718676D01*
X832405D01*
Y718490D01*
X832312D01*
Y718397D01*
X832219D01*
Y718211D01*
X832126D01*
Y718025D01*
X832033D01*
Y717932D01*
X831940D01*
Y717746D01*
X831847D01*
Y717653D01*
X831754D01*
Y717467D01*
X831661D01*
Y717374D01*
X831568D01*
Y717095D01*
X831475D01*
Y717002D01*
X831382D01*
Y716909D01*
X831289D01*
Y716723D01*
X831196D01*
Y716630D01*
X831103D01*
Y716444D01*
X831010D01*
Y716351D01*
X830917D01*
Y716165D01*
X830824D01*
Y715979D01*
X830731D01*
Y715886D01*
X830638D01*
Y715700D01*
X830545D01*
Y715607D01*
X830452D01*
Y715421D01*
X830359D01*
Y715235D01*
X830265D01*
Y715142D01*
X830173D01*
Y714956D01*
X830079D01*
Y714863D01*
X829986D01*
Y714677D01*
X829893D01*
Y714584D01*
X829800D01*
Y714398D01*
X829707D01*
Y714212D01*
X829614D01*
Y714119D01*
X829521D01*
Y713933D01*
X829428D01*
Y713840D01*
X829335D01*
Y713654D01*
X829242D01*
Y713561D01*
X829149D01*
Y713468D01*
X828498D01*
Y713375D01*
X828312D01*
Y713282D01*
X827754D01*
Y713189D01*
X827475D01*
Y713096D01*
X827010D01*
Y713003D01*
X826452D01*
Y712910D01*
X826173D01*
Y712817D01*
X825894D01*
Y712631D01*
X825801D01*
Y712538D01*
X825894D01*
Y712166D01*
X825801D01*
Y711980D01*
X825708D01*
Y711794D01*
X825615D01*
Y711701D01*
X825522D01*
Y711515D01*
X825429D01*
Y711422D01*
X825336D01*
Y711236D01*
X825243D01*
Y711049D01*
X825150D01*
Y710956D01*
X825057D01*
Y710770D01*
X824964D01*
Y710677D01*
X824871D01*
Y710491D01*
X824778D01*
Y710305D01*
X824685D01*
Y710212D01*
X824592D01*
Y710026D01*
X824499D01*
Y709933D01*
X824406D01*
Y709747D01*
X824313D01*
Y709654D01*
X824220D01*
Y709468D01*
X824127D01*
Y709282D01*
X824034D01*
Y709189D01*
X823941D01*
Y709003D01*
X823848D01*
Y708910D01*
X823755D01*
Y708724D01*
X823662D01*
Y708538D01*
X823569D01*
Y708445D01*
X823476D01*
Y708259D01*
X823383D01*
Y708166D01*
X823290D01*
Y707980D01*
X823197D01*
Y707887D01*
X823104D01*
Y707701D01*
X823011D01*
Y707515D01*
X822918D01*
Y707422D01*
X822825D01*
Y707236D01*
X822732D01*
Y707143D01*
X822639D01*
Y706957D01*
X822546D01*
Y706864D01*
X822453D01*
Y706678D01*
X822360D01*
Y706492D01*
X822267D01*
Y706399D01*
X822174D01*
Y706213D01*
X821802D01*
Y706306D01*
X821151D01*
Y706399D01*
X820686D01*
Y706492D01*
X820034D01*
Y706585D01*
X819197D01*
Y706678D01*
X818732D01*
Y706771D01*
X817895D01*
Y706864D01*
X817523D01*
Y706957D01*
X817151D01*
Y706864D01*
X817058D01*
Y706771D01*
X816965D01*
Y706678D01*
X816872D01*
Y706492D01*
X816779D01*
Y706306D01*
X816686D01*
Y706213D01*
X816593D01*
Y706027D01*
X816500D01*
Y705934D01*
X816407D01*
Y705748D01*
X816314D01*
Y705562D01*
X816221D01*
Y705469D01*
X816128D01*
Y705283D01*
X816035D01*
Y705097D01*
X816128D01*
Y705004D01*
X816221D01*
Y704911D01*
X816500D01*
Y704818D01*
X816593D01*
Y704725D01*
X816872D01*
Y704632D01*
X817058D01*
Y704539D01*
X817337D01*
Y704446D01*
X817709D01*
Y704353D01*
X817895D01*
Y704260D01*
X818639D01*
Y704167D01*
X820592D01*
Y704260D01*
X821337D01*
Y704353D01*
X821523D01*
Y704446D01*
X821895D01*
Y704539D01*
X822174D01*
Y704632D01*
X822360D01*
Y704725D01*
X822639D01*
Y704818D01*
X822732D01*
Y704911D01*
X823011D01*
Y705004D01*
X823104D01*
Y705097D01*
X823290D01*
Y705190D01*
X823476D01*
Y705283D01*
X823569D01*
Y705376D01*
X823755D01*
Y705469D01*
X823848D01*
Y705562D01*
X824034D01*
Y705655D01*
X824127D01*
Y705748D01*
X824220D01*
Y705841D01*
X824313D01*
Y705934D01*
X824406D01*
Y706027D01*
X824592D01*
Y706120D01*
X824685D01*
Y706213D01*
X824778D01*
Y706306D01*
X824871D01*
Y706399D01*
X824964D01*
Y706492D01*
X825057D01*
Y706585D01*
X825150D01*
Y706771D01*
X825243D01*
Y706864D01*
X825336D01*
Y706957D01*
X825429D01*
Y707143D01*
X825522D01*
Y707236D01*
X825615D01*
Y707329D01*
X825708D01*
Y707515D01*
X825801D01*
Y707608D01*
X825894D01*
Y707794D01*
X825987D01*
Y707887D01*
X826080D01*
Y708166D01*
X826173D01*
Y708259D01*
X826266D01*
Y708538D01*
X826359D01*
Y708724D01*
X826452D01*
Y708910D01*
X826545D01*
Y709282D01*
X826638D01*
Y709468D01*
X826731D01*
Y709933D01*
X826824D01*
Y710491D01*
X826917D01*
Y711143D01*
X827010D01*
Y711329D01*
X827103D01*
Y711422D01*
X827196D01*
Y711608D01*
X827661D01*
Y711701D01*
X827847D01*
Y711794D01*
X828405D01*
Y711887D01*
X828777D01*
Y711980D01*
X829149D01*
Y712073D01*
X829707D01*
Y712166D01*
X829800D01*
Y712259D01*
X829986D01*
Y709840D01*
X829893D01*
Y709468D01*
X829800D01*
Y708910D01*
X829707D01*
Y708538D01*
X829614D01*
Y708259D01*
X829521D01*
Y707887D01*
X829428D01*
Y707794D01*
X829335D01*
Y707422D01*
X829242D01*
Y707329D01*
X829149D01*
Y707050D01*
X829056D01*
Y706864D01*
X828963D01*
Y706678D01*
X828870D01*
Y706492D01*
X828777D01*
Y706399D01*
X828684D01*
Y706120D01*
X828591D01*
Y706027D01*
X828498D01*
Y705841D01*
X828405D01*
Y705655D01*
X828312D01*
Y705562D01*
X828219D01*
Y705376D01*
X828126D01*
Y705283D01*
X828033D01*
Y705190D01*
X827940D01*
Y705097D01*
X827847D01*
Y704911D01*
X827754D01*
Y704818D01*
X827661D01*
Y704725D01*
X827568D01*
Y704632D01*
X827475D01*
Y704539D01*
X827382D01*
Y704353D01*
X827289D01*
Y704260D01*
X827196D01*
Y704167D01*
X827103D01*
Y704074D01*
X826917D01*
Y703888D01*
X826824D01*
Y703795D01*
X826731D01*
Y703702D01*
X826545D01*
Y703609D01*
X826452D01*
Y703516D01*
X826359D01*
Y703423D01*
X826266D01*
Y703330D01*
X826173D01*
Y703237D01*
X825987D01*
Y703144D01*
X825894D01*
Y703051D01*
X825801D01*
Y702958D01*
X825615D01*
Y702865D01*
X825522D01*
Y702772D01*
X825336D01*
Y702679D01*
X825243D01*
Y702586D01*
X825057D01*
Y702493D01*
X824964D01*
Y702400D01*
X824778D01*
Y702307D01*
X824592D01*
Y702214D01*
X824406D01*
Y702121D01*
X824220D01*
Y702028D01*
X824034D01*
Y701935D01*
X823755D01*
Y701842D01*
X823569D01*
Y701749D01*
X823383D01*
Y701656D01*
X823104D01*
Y701563D01*
X822918D01*
Y701469D01*
X822453D01*
Y701376D01*
X822174D01*
Y701283D01*
X821802D01*
Y701190D01*
X821151D01*
Y701097D01*
X820686D01*
Y701004D01*
X818546D01*
Y701097D01*
X818081D01*
Y701190D01*
X817430D01*
Y701283D01*
X817058D01*
Y701376D01*
X816779D01*
Y701469D01*
X816314D01*
Y701563D01*
X816128D01*
Y701656D01*
X815849D01*
Y701749D01*
X815663D01*
Y701842D01*
X815477D01*
Y701935D01*
X815198D01*
Y702028D01*
X815012D01*
Y702121D01*
X814733D01*
Y702214D01*
X814640D01*
Y702307D01*
X814454D01*
Y702400D01*
X814268D01*
Y702493D01*
X814175D01*
Y702586D01*
X813989D01*
Y702679D01*
X813896D01*
Y702772D01*
X813710D01*
Y702865D01*
X813617D01*
Y702958D01*
X813431D01*
Y703051D01*
X813338D01*
Y703144D01*
X813245D01*
Y703237D01*
X813059D01*
Y703330D01*
X812966D01*
Y703423D01*
X812873D01*
Y703516D01*
X812687D01*
Y703702D01*
X812501D01*
Y703795D01*
X812408D01*
Y703888D01*
X812315D01*
Y703981D01*
X812222D01*
Y704074D01*
X812129D01*
Y704167D01*
X812036D01*
Y704260D01*
X811943D01*
Y704353D01*
X811850D01*
Y704446D01*
X811757D01*
Y704632D01*
X811664D01*
Y704725D01*
X811571D01*
Y704818D01*
X811478D01*
Y704911D01*
X811385D01*
Y705004D01*
X811292D01*
Y705190D01*
X811199D01*
Y705283D01*
X811105D01*
Y705469D01*
X811012D01*
Y705562D01*
X810919D01*
Y705748D01*
X810826D01*
Y705841D01*
X810733D01*
Y705934D01*
X810640D01*
Y706120D01*
X810547D01*
Y706306D01*
X810454D01*
Y706492D01*
X810361D01*
Y706678D01*
X810268D01*
Y706864D01*
X810175D01*
Y707050D01*
X810082D01*
Y707236D01*
X809989D01*
Y707515D01*
X809896D01*
Y707701D01*
X809803D01*
Y707980D01*
X809710D01*
Y708259D01*
X809617D01*
Y708538D01*
X809524D01*
Y708910D01*
X809431D01*
Y709189D01*
X809338D01*
Y709933D01*
X809245D01*
Y710584D01*
X809152D01*
Y712259D01*
X809245D01*
Y712817D01*
X809338D01*
Y713654D01*
X809431D01*
Y713840D01*
X809524D01*
Y714305D01*
X809617D01*
Y714491D01*
X809710D01*
Y714770D01*
X809803D01*
Y715142D01*
X809896D01*
Y715235D01*
X809989D01*
Y715607D01*
X810082D01*
Y715700D01*
X810175D01*
Y715886D01*
X810268D01*
Y716165D01*
X810361D01*
Y716258D01*
X810454D01*
Y716444D01*
X810547D01*
Y716630D01*
X810640D01*
Y716816D01*
X810733D01*
Y716909D01*
X810826D01*
Y717002D01*
X810919D01*
Y717188D01*
X811012D01*
Y717281D01*
X811105D01*
Y717467D01*
X811199D01*
Y717560D01*
X811292D01*
Y717746D01*
X811385D01*
Y717839D01*
X811478D01*
Y717932D01*
X811571D01*
Y718025D01*
X811664D01*
Y718118D01*
X811757D01*
Y718304D01*
X811850D01*
Y718397D01*
X811943D01*
Y718490D01*
X812036D01*
Y718583D01*
X812129D01*
Y718676D01*
X812222D01*
Y718769D01*
X812315D01*
Y718862D01*
X812408D01*
Y718955D01*
X812501D01*
Y719048D01*
X812594D01*
Y719141D01*
X812780D01*
Y719234D01*
X812873D01*
Y719327D01*
X812966D01*
Y719420D01*
X813059D01*
Y719513D01*
X813152D01*
Y719606D01*
X813338D01*
Y719699D01*
X813431D01*
Y719792D01*
X813617D01*
Y719885D01*
X813710D01*
Y719978D01*
X813803D01*
Y720071D01*
X813989D01*
Y720164D01*
X814175D01*
Y720257D01*
X814268D01*
Y720350D01*
X814454D01*
Y720443D01*
X814640D01*
Y720536D01*
X814826D01*
Y720630D01*
X815012D01*
Y720723D01*
X815198D01*
Y720816D01*
X815384D01*
Y720909D01*
X815663D01*
Y721002D01*
X815942D01*
Y721095D01*
X816128D01*
Y721188D01*
X816500D01*
Y721281D01*
X816686D01*
Y721374D01*
X817058D01*
Y721467D01*
X817430D01*
Y721560D01*
X817988D01*
Y721653D01*
X819290D01*
Y721746D01*
X819941D01*
Y721653D01*
X820127D01*
Y721374D01*
X820220D01*
Y720816D01*
X820313D01*
Y720630D01*
X820406D01*
Y720071D01*
X820499D01*
Y719792D01*
X820592D01*
Y719606D01*
X820499D01*
Y719513D01*
X818732D01*
Y719420D01*
X818546D01*
Y719327D01*
X818360D01*
Y719234D01*
X818267D01*
Y719141D01*
X818174D01*
Y719048D01*
X818081D01*
Y718955D01*
X817988D01*
Y718862D01*
X817895D01*
Y718676D01*
X817802D01*
Y718583D01*
X817709D01*
Y718397D01*
X817616D01*
Y718304D01*
X817430D01*
Y718211D01*
X817058D01*
Y718118D01*
X816779D01*
Y718025D01*
X816686D01*
Y717932D01*
X816407D01*
Y717839D01*
X816314D01*
Y717746D01*
X816035D01*
Y717653D01*
X815942D01*
Y717560D01*
X815756D01*
Y717467D01*
X815570D01*
Y717374D01*
X815477D01*
Y717281D01*
X815291D01*
Y717188D01*
X815198D01*
Y717095D01*
X815105D01*
Y717002D01*
X815012D01*
Y716909D01*
X814919D01*
Y716816D01*
X814733D01*
Y716723D01*
X814640D01*
Y716630D01*
X814547D01*
Y716537D01*
X814454D01*
Y716444D01*
X814361D01*
Y716351D01*
X814268D01*
Y716258D01*
X814175D01*
Y716165D01*
X814082D01*
Y716072D01*
X813989D01*
Y715886D01*
X813896D01*
Y715793D01*
X813803D01*
Y715700D01*
X813710D01*
Y715514D01*
X813617D01*
Y715421D01*
X813524D01*
Y715235D01*
X813431D01*
Y715142D01*
X813338D01*
Y715049D01*
X813245D01*
Y714770D01*
X813152D01*
Y714677D01*
X813059D01*
Y714398D01*
X812966D01*
Y714305D01*
X812873D01*
Y714026D01*
X812780D01*
Y713747D01*
X812687D01*
Y713561D01*
X812594D01*
Y713096D01*
X812501D01*
Y712910D01*
X812408D01*
Y712073D01*
X812315D01*
Y710677D01*
X812408D01*
Y709933D01*
X812501D01*
Y709654D01*
X812594D01*
Y709189D01*
X812687D01*
Y709003D01*
X812780D01*
Y708724D01*
X812873D01*
Y708445D01*
X812966D01*
Y708352D01*
X813059D01*
Y708073D01*
X813152D01*
Y707980D01*
X813245D01*
Y707794D01*
X813338D01*
Y707608D01*
X813431D01*
Y707515D01*
X813524D01*
Y707329D01*
X813617D01*
Y707236D01*
X813710D01*
Y707050D01*
X813803D01*
Y706957D01*
X813896D01*
Y706864D01*
X813989D01*
Y706771D01*
X814082D01*
Y706678D01*
X814175D01*
Y706492D01*
X814268D01*
Y706399D01*
X814361D01*
Y706306D01*
X814454D01*
Y706213D01*
X814547D01*
Y706120D01*
X814640D01*
Y706027D01*
X814826D01*
Y705841D01*
X815198D01*
Y705934D01*
X815291D01*
Y706027D01*
X815384D01*
Y706213D01*
X815477D01*
Y706306D01*
X815570D01*
Y706492D01*
X815663D01*
Y706678D01*
X815756D01*
Y706771D01*
X815849D01*
Y706957D01*
X815942D01*
Y707050D01*
X816035D01*
Y707236D01*
X816128D01*
Y707329D01*
X816221D01*
Y707515D01*
X816314D01*
Y707701D01*
X816407D01*
Y707794D01*
X816500D01*
Y707980D01*
X816593D01*
Y708073D01*
X816686D01*
Y708259D01*
X816779D01*
Y708352D01*
X816872D01*
Y708817D01*
X816779D01*
Y709003D01*
X816686D01*
Y709561D01*
X816593D01*
Y709747D01*
X816500D01*
Y710398D01*
X816407D01*
Y710677D01*
X816314D01*
Y711143D01*
X816221D01*
Y711608D01*
X816128D01*
Y711794D01*
X816035D01*
Y712445D01*
X815942D01*
Y712631D01*
X815849D01*
Y712910D01*
X815942D01*
Y713003D01*
X816035D01*
Y713189D01*
X816128D01*
Y713282D01*
X816221D01*
Y713468D01*
X816314D01*
Y713654D01*
X816407D01*
Y713747D01*
X816500D01*
Y713933D01*
X816593D01*
Y714026D01*
X816686D01*
Y714212D01*
X816779D01*
Y714398D01*
X816872D01*
Y714491D01*
X816965D01*
Y714677D01*
X817058D01*
Y714770D01*
X817151D01*
Y714956D01*
X817244D01*
Y715049D01*
X817337D01*
Y715235D01*
X817430D01*
Y715421D01*
X817523D01*
Y715514D01*
X817616D01*
Y715700D01*
X817709D01*
Y715793D01*
X817802D01*
Y715979D01*
X817895D01*
Y716165D01*
X817988D01*
Y716258D01*
X818081D01*
Y716444D01*
X818174D01*
Y716537D01*
X818267D01*
Y716723D01*
X818360D01*
Y716816D01*
X818453D01*
Y717002D01*
X818546D01*
Y717188D01*
X818639D01*
Y717281D01*
X818732D01*
Y717467D01*
X818825D01*
Y717560D01*
X818918D01*
Y717746D01*
X819011D01*
Y717932D01*
X819104D01*
Y718025D01*
X819290D01*
Y718118D01*
X819383D01*
Y718025D01*
X821802D01*
Y718118D01*
X821988D01*
Y718025D01*
X822081D01*
Y718118D01*
X822360D01*
Y718583D01*
X822267D01*
Y719048D01*
X822174D01*
Y719420D01*
X822081D01*
Y719978D01*
X821988D01*
Y720257D01*
X821895D01*
Y720536D01*
X821802D01*
Y721095D01*
X821709D01*
Y721374D01*
X821616D01*
Y721932D01*
X821523D01*
Y722304D01*
X821430D01*
Y722676D01*
X821337D01*
Y723141D01*
X821244D01*
Y723420D01*
X821337D01*
Y723606D01*
X821430D01*
Y723699D01*
X821523D01*
Y723885D01*
X821616D01*
Y724071D01*
X821709D01*
Y724164D01*
X821802D01*
Y724350D01*
X821895D01*
Y724443D01*
X821988D01*
Y724629D01*
X822081D01*
Y724815D01*
X822174D01*
Y724908D01*
X822267D01*
Y725094D01*
X822360D01*
Y725187D01*
X822453D01*
Y725373D01*
X822546D01*
Y725466D01*
X822639D01*
Y725652D01*
X822732D01*
Y725838D01*
X822825D01*
Y725931D01*
X822918D01*
Y726117D01*
X823011D01*
Y726210D01*
X823104D01*
Y726396D01*
X823197D01*
Y726582D01*
X823290D01*
Y726675D01*
X823383D01*
Y726861D01*
X823476D01*
Y726954D01*
X823569D01*
Y727140D01*
X823662D01*
Y727233D01*
X823755D01*
Y727419D01*
X823848D01*
Y727605D01*
X823941D01*
Y727698D01*
X824034D01*
Y727884D01*
X824127D01*
Y727977D01*
X824220D01*
Y728070D01*
X824313D01*
Y728349D01*
X824406D01*
Y728442D01*
X824499D01*
Y728628D01*
X824592D01*
Y728721D01*
X824685D01*
Y728814D01*
X824778D01*
Y729279D01*
X824685D01*
Y729372D01*
X824592D01*
Y729465D01*
X824499D01*
Y729651D01*
X824406D01*
Y729744D01*
X824313D01*
Y730023D01*
X824220D01*
Y730209D01*
X824127D01*
Y730489D01*
X824034D01*
Y731884D01*
X824127D01*
Y732070D01*
X824220D01*
Y732349D01*
X824313D01*
Y732535D01*
X824406D01*
Y732628D01*
X824499D01*
Y732814D01*
X824592D01*
Y732907D01*
X824685D01*
Y733000D01*
X824778D01*
Y733093D01*
X824871D01*
Y733186D01*
X824964D01*
Y733279D01*
X825057D01*
Y733372D01*
X825150D01*
Y733465D01*
X825336D01*
Y733558D01*
X825429D01*
Y733651D01*
X825801D01*
Y733744D01*
X825894D01*
Y733837D01*
X826545D01*
Y733930D01*
X827103D01*
Y733837D01*
X827661D01*
Y733744D01*
X827847D01*
Y733651D01*
X828126D01*
Y733558D01*
X828219D01*
Y733465D01*
X828405D01*
Y733372D01*
X828498D01*
Y733279D01*
X828591D01*
Y733186D01*
X828684D01*
Y733093D01*
X828777D01*
Y733000D01*
X828870D01*
Y732907D01*
X828963D01*
Y732814D01*
X829056D01*
Y732628D01*
X829149D01*
Y732535D01*
X829242D01*
Y732349D01*
X829335D01*
Y732070D01*
X829428D01*
Y731884D01*
X829521D01*
Y730395D01*
X829428D01*
Y730209D01*
X829335D01*
Y729930D01*
X829242D01*
Y729837D01*
X829149D01*
Y729651D01*
X829056D01*
Y729465D01*
X828963D01*
Y729372D01*
X828870D01*
Y729279D01*
X828777D01*
Y729186D01*
X828684D01*
Y729093D01*
X828591D01*
Y729000D01*
X828498D01*
Y728907D01*
X828312D01*
Y728814D01*
X828219D01*
Y728721D01*
X828033D01*
Y728628D01*
X827754D01*
Y728535D01*
X827568D01*
Y728442D01*
X826080D01*
Y728535D01*
X825801D01*
Y728442D01*
X825615D01*
Y728256D01*
X825522D01*
Y728070D01*
X825429D01*
Y727977D01*
X825336D01*
Y727884D01*
X825243D01*
Y727698D01*
X825150D01*
Y727512D01*
X825057D01*
Y727326D01*
X824964D01*
Y727233D01*
X824871D01*
Y727047D01*
X824778D01*
Y726954D01*
X824685D01*
Y726768D01*
X824592D01*
Y726675D01*
X824499D01*
Y726489D01*
X824406D01*
Y726303D01*
X824313D01*
Y726210D01*
X824220D01*
Y726024D01*
X824127D01*
Y725931D01*
X824034D01*
Y725745D01*
X823941D01*
Y725652D01*
X823848D01*
Y725466D01*
X823755D01*
Y725280D01*
X823662D01*
Y725187D01*
X823569D01*
Y725094D01*
X823476D01*
Y724908D01*
X823383D01*
Y724815D01*
X823290D01*
Y724629D01*
X823197D01*
Y724443D01*
X823104D01*
Y724257D01*
X823011D01*
Y724164D01*
X822918D01*
Y723978D01*
X822825D01*
Y723885D01*
X822732D01*
Y723792D01*
X822639D01*
Y723606D01*
X822546D01*
Y723420D01*
X822453D01*
Y723234D01*
X822360D01*
Y722676D01*
X822453D01*
Y722304D01*
X822546D01*
Y721932D01*
X822639D01*
Y721374D01*
X822732D01*
Y721095D01*
X822825D01*
Y720630D01*
X822918D01*
Y720350D01*
X823011D01*
Y719978D01*
X823104D01*
Y719420D01*
X823197D01*
Y719048D01*
X823290D01*
Y718583D01*
X823383D01*
Y718304D01*
X823476D01*
Y718118D01*
X824778D01*
Y718211D01*
X824871D01*
Y718304D01*
X824964D01*
Y718490D01*
X825057D01*
Y718583D01*
X825150D01*
Y718769D01*
X825243D01*
Y718955D01*
X825336D01*
Y719048D01*
X825429D01*
Y719234D01*
X825522D01*
Y719327D01*
X825615D01*
Y719513D01*
X825708D01*
Y719699D01*
X825801D01*
Y719792D01*
X825894D01*
Y719978D01*
X825987D01*
Y720071D01*
X826080D01*
Y720257D01*
X826173D01*
Y720350D01*
X826266D01*
Y720536D01*
X826359D01*
Y720723D01*
X826452D01*
Y720816D01*
X826545D01*
Y721002D01*
X826638D01*
Y721095D01*
X826731D01*
Y721281D01*
X826824D01*
Y721467D01*
X826917D01*
Y721560D01*
X827010D01*
Y721746D01*
X827103D01*
Y721839D01*
X827196D01*
Y722025D01*
X827289D01*
Y722118D01*
X827382D01*
Y722304D01*
X827475D01*
Y722490D01*
X827568D01*
Y722583D01*
X827661D01*
Y722769D01*
X827754D01*
Y722862D01*
X827847D01*
Y723048D01*
X827940D01*
Y723141D01*
X828033D01*
Y723327D01*
X828126D01*
Y723513D01*
X828219D01*
Y723606D01*
X828312D01*
Y723792D01*
X828405D01*
Y723885D01*
X828498D01*
Y724071D01*
X828591D01*
Y724164D01*
X828684D01*
Y724350D01*
X828777D01*
Y724536D01*
X828870D01*
Y724629D01*
X828963D01*
Y724815D01*
X829056D01*
Y725001D01*
X829149D01*
Y725094D01*
X829242D01*
Y725280D01*
X829335D01*
Y725373D01*
X829428D01*
Y725559D01*
X829521D01*
Y725652D01*
X829614D01*
Y725838D01*
X829707D01*
Y726024D01*
X829800D01*
Y726117D01*
X829893D01*
Y726303D01*
X829986D01*
Y726396D01*
X830079D01*
Y726582D01*
X830173D01*
Y726675D01*
X830265D01*
Y726861D01*
X830359D01*
Y727047D01*
X830265D01*
Y727233D01*
X830173D01*
Y727326D01*
X830079D01*
Y727605D01*
X829986D01*
Y728442D01*
X830079D01*
Y728721D01*
X830173D01*
Y728814D01*
X830265D01*
Y729000D01*
X830359D01*
Y729093D01*
X830452D01*
Y729186D01*
X830638D01*
Y729279D01*
X830917D01*
Y729372D01*
X831754D01*
Y729279D01*
X831940D01*
Y729186D01*
X832126D01*
Y729093D01*
X832219D01*
Y729000D01*
X832312D01*
Y728907D01*
X832405D01*
Y728721D01*
X832498D01*
Y728535D01*
X832591D01*
Y728349D01*
X832684D01*
Y727791D01*
X832591D01*
Y727512D01*
X832498D01*
Y727326D01*
X832405D01*
Y727233D01*
X832312D01*
Y727140D01*
X832219D01*
Y727047D01*
X832126D01*
Y726954D01*
X832033D01*
Y726861D01*
X831847D01*
Y726768D01*
X831661D01*
Y726675D01*
X830824D01*
Y726582D01*
X830731D01*
Y726396D01*
X830638D01*
Y726303D01*
X830545D01*
Y726117D01*
X830452D01*
Y725931D01*
X830359D01*
Y725838D01*
X830265D01*
Y725652D01*
X830173D01*
Y725559D01*
X830079D01*
Y725373D01*
X829986D01*
Y725187D01*
X829893D01*
Y725094D01*
X829800D01*
Y724908D01*
X829707D01*
Y724815D01*
X829614D01*
Y724629D01*
X829521D01*
Y724443D01*
X829428D01*
Y724350D01*
X829335D01*
Y724164D01*
X829242D01*
Y724071D01*
X829149D01*
Y723885D01*
X829056D01*
Y723792D01*
X828963D01*
Y723606D01*
X828870D01*
Y723420D01*
X828777D01*
Y723327D01*
X828684D01*
Y723141D01*
X828591D01*
Y723048D01*
X828498D01*
Y722862D01*
X828405D01*
Y722769D01*
X828312D01*
Y722583D01*
X828219D01*
Y722397D01*
X828126D01*
Y722304D01*
X828033D01*
Y722118D01*
X827940D01*
Y722025D01*
X827847D01*
Y721839D01*
X827754D01*
Y721653D01*
X827661D01*
Y721560D01*
X827568D01*
Y721374D01*
X827475D01*
Y721281D01*
X827382D01*
Y721095D01*
X827289D01*
Y721002D01*
X827196D01*
Y720816D01*
X827103D01*
Y720630D01*
X827010D01*
Y720536D01*
X826917D01*
Y720350D01*
X826824D01*
Y720257D01*
X826731D01*
Y720071D01*
X826638D01*
Y719885D01*
X826545D01*
Y719792D01*
X826452D01*
Y719606D01*
X826359D01*
Y719513D01*
X826266D01*
Y719327D01*
X826173D01*
Y719234D01*
X826080D01*
Y719141D01*
X825987D01*
Y718955D01*
X825894D01*
Y718769D01*
X825801D01*
Y718676D01*
X825708D01*
Y718490D01*
X825615D01*
Y718304D01*
X825522D01*
Y718211D01*
X825615D01*
Y718118D01*
X827568D01*
Y718211D01*
X827661D01*
Y718304D01*
X827754D01*
Y718397D01*
X827847D01*
Y718583D01*
X827940D01*
Y718676D01*
X828033D01*
Y718862D01*
X828126D01*
Y719048D01*
X828219D01*
Y719141D01*
X828312D01*
Y719327D01*
X828405D01*
Y719420D01*
X828498D01*
Y719606D01*
X828591D01*
Y719699D01*
X828684D01*
Y719885D01*
X828777D01*
Y720071D01*
X828870D01*
Y720164D01*
X828963D01*
Y720350D01*
X829056D01*
Y720443D01*
X829149D01*
Y720630D01*
X829242D01*
Y720816D01*
X829335D01*
Y720909D01*
X829428D01*
Y721095D01*
X829521D01*
Y721188D01*
X829614D01*
Y721374D01*
X829707D01*
Y721467D01*
X829800D01*
Y721653D01*
X829893D01*
Y721839D01*
X829986D01*
Y721932D01*
X830079D01*
Y722118D01*
X830173D01*
Y722211D01*
X830265D01*
Y722397D01*
X830359D01*
Y722583D01*
X830452D01*
Y722676D01*
X830545D01*
Y722862D01*
X830638D01*
Y722955D01*
X830731D01*
Y723141D01*
X830824D01*
Y723234D01*
X830917D01*
Y723420D01*
X831010D01*
Y723606D01*
X831103D01*
Y723699D01*
X831196D01*
Y723885D01*
X831289D01*
Y723978D01*
X831382D01*
Y724164D01*
X831475D01*
Y724350D01*
X831568D01*
Y724443D01*
X831661D01*
Y724629D01*
X831754D01*
Y724722D01*
X831847D01*
Y724908D01*
X831940D01*
Y725001D01*
X832033D01*
Y725187D01*
X832126D01*
Y725373D01*
X832219D01*
Y725466D01*
X832312D01*
Y725652D01*
X832405D01*
Y725745D01*
X832498D01*
Y725931D01*
X832591D01*
Y726024D01*
X832684D01*
Y726210D01*
X832777D01*
Y726396D01*
X832870D01*
Y726489D01*
X832963D01*
Y726675D01*
X833056D01*
Y726768D01*
X833149D01*
Y726954D01*
X833242D01*
Y727140D01*
X833335D01*
Y727233D01*
X833428D01*
Y727419D01*
X833521D01*
Y727512D01*
X833614D01*
Y727698D01*
X833707D01*
Y727791D01*
X833800D01*
Y727977D01*
X833893D01*
Y728163D01*
X833986D01*
Y728256D01*
X834079D01*
Y728442D01*
X834172D01*
Y728535D01*
X834265D01*
Y728721D01*
X834358D01*
Y728907D01*
X834451D01*
Y729000D01*
X834544D01*
Y729372D01*
X834451D01*
Y729465D01*
X834358D01*
Y729558D01*
X834265D01*
Y729651D01*
X834172D01*
Y729837D01*
X834079D01*
Y730023D01*
X833986D01*
Y730209D01*
X833893D01*
Y730675D01*
X833800D01*
Y731791D01*
X833893D01*
Y732256D01*
X833986D01*
Y732442D01*
X834079D01*
Y732628D01*
X834172D01*
Y732814D01*
X834265D01*
Y732907D01*
X834358D01*
Y733093D01*
X834544D01*
Y733186D01*
X834637D01*
Y733279D01*
X834730D01*
Y733372D01*
X834823D01*
Y733465D01*
X834916D01*
Y733558D01*
X835009D01*
Y733651D01*
X835288D01*
Y733744D01*
X835381D01*
Y733837D01*
X835660D01*
Y733930D01*
X836311D01*
Y734023D01*
X836683D01*
Y733930D01*
D02*
G37*
G36*
X837985Y721746D02*
X838357D01*
Y721653D01*
X838636D01*
Y721560D01*
X838729D01*
Y721467D01*
X838915D01*
Y721374D01*
X839008D01*
Y721281D01*
X839101D01*
Y721188D01*
X839194D01*
Y721095D01*
X839287D01*
Y721002D01*
X839380D01*
Y720816D01*
X839473D01*
Y720723D01*
X839566D01*
Y720443D01*
X839659D01*
Y719606D01*
X839752D01*
Y707236D01*
X839659D01*
Y707143D01*
X839752D01*
Y706678D01*
X839845D01*
Y706399D01*
X839938D01*
Y706213D01*
X840031D01*
Y706120D01*
X840124D01*
Y705934D01*
X840217D01*
Y705841D01*
X840311D01*
Y705748D01*
X840404D01*
Y705655D01*
X840497D01*
Y705562D01*
X840683D01*
Y705469D01*
X840776D01*
Y705376D01*
X840962D01*
Y705283D01*
X841148D01*
Y705190D01*
X841520D01*
Y705097D01*
X850820D01*
Y705004D01*
X851099D01*
Y704911D01*
X851286D01*
Y704818D01*
X851472D01*
Y704725D01*
X851658D01*
Y704539D01*
X851844D01*
Y704353D01*
X851937D01*
Y704260D01*
X852030D01*
Y704074D01*
X852123D01*
Y703888D01*
X852216D01*
Y703609D01*
X852309D01*
Y702400D01*
X852216D01*
Y702214D01*
X852123D01*
Y701935D01*
X852030D01*
Y701842D01*
X851937D01*
Y701656D01*
X851844D01*
Y701563D01*
X851751D01*
Y701469D01*
X851658D01*
Y701376D01*
X851565D01*
Y701283D01*
X851472D01*
Y701190D01*
X851193D01*
Y701097D01*
X851006D01*
Y701004D01*
X850635D01*
Y700911D01*
X841334D01*
Y701004D01*
X840590D01*
Y701097D01*
X840217D01*
Y701190D01*
X839845D01*
Y701283D01*
X839659D01*
Y701376D01*
X839380D01*
Y701469D01*
X839194D01*
Y701563D01*
X839008D01*
Y701656D01*
X838822D01*
Y701749D01*
X838636D01*
Y701842D01*
X838450D01*
Y701935D01*
X838357D01*
Y702028D01*
X838264D01*
Y702121D01*
X838078D01*
Y702214D01*
X837985D01*
Y702307D01*
X837892D01*
Y702400D01*
X837706D01*
Y702493D01*
X837613D01*
Y702586D01*
X837520D01*
Y702679D01*
X837427D01*
Y702772D01*
X837334D01*
Y702865D01*
X837241D01*
Y702958D01*
X837148D01*
Y703051D01*
X837055D01*
Y703144D01*
X836962D01*
Y703330D01*
X836869D01*
Y703423D01*
X836776D01*
Y703516D01*
X836683D01*
Y703702D01*
X836590D01*
Y703795D01*
X836497D01*
Y703981D01*
X836404D01*
Y704074D01*
X836311D01*
Y704260D01*
X836218D01*
Y704446D01*
X836125D01*
Y704632D01*
X836032D01*
Y704818D01*
X835939D01*
Y705004D01*
X835846D01*
Y705376D01*
X835753D01*
Y705655D01*
X835660D01*
Y706120D01*
X835567D01*
Y706771D01*
X835474D01*
Y719978D01*
X835567D01*
Y720443D01*
X835660D01*
Y720723D01*
X835753D01*
Y720816D01*
X835846D01*
Y721002D01*
X835939D01*
Y721095D01*
X836032D01*
Y721188D01*
X836125D01*
Y721281D01*
X836218D01*
Y721374D01*
X836311D01*
Y721467D01*
X836497D01*
Y721560D01*
X836590D01*
Y721653D01*
X836869D01*
Y721746D01*
X837148D01*
Y721839D01*
X837985D01*
Y721746D01*
D02*
G37*
G36*
X896023Y713375D02*
X896395D01*
Y713282D01*
X896581D01*
Y713189D01*
X896674D01*
Y713096D01*
X896767D01*
Y713003D01*
X896953D01*
Y712910D01*
X897046D01*
Y712817D01*
X897139D01*
Y712631D01*
X897232D01*
Y712538D01*
X897325D01*
Y712352D01*
X897418D01*
Y712073D01*
X897511D01*
Y711794D01*
X897604D01*
Y710863D01*
X897511D01*
Y710584D01*
X897418D01*
Y710398D01*
X897325D01*
Y710212D01*
X897232D01*
Y710119D01*
X897139D01*
Y709933D01*
X897046D01*
Y709840D01*
X896953D01*
Y709747D01*
X896767D01*
Y709654D01*
X896674D01*
Y709561D01*
X896488D01*
Y709468D01*
X896302D01*
Y709375D01*
X895837D01*
Y709282D01*
X884583D01*
Y709375D01*
X884211D01*
Y709468D01*
X883932D01*
Y709561D01*
X883839D01*
Y709654D01*
X883653D01*
Y709747D01*
X883560D01*
Y709840D01*
X883467D01*
Y709933D01*
X883374D01*
Y710026D01*
X883281D01*
Y710119D01*
X883188D01*
Y710305D01*
X883095D01*
Y710491D01*
X883002D01*
Y710677D01*
X882909D01*
Y711236D01*
X882816D01*
Y711422D01*
X882909D01*
Y712073D01*
X883002D01*
Y712259D01*
X883095D01*
Y712445D01*
X883188D01*
Y712631D01*
X883281D01*
Y712724D01*
X883374D01*
Y712817D01*
X883467D01*
Y712910D01*
X883560D01*
Y713003D01*
X883653D01*
Y713096D01*
X883746D01*
Y713189D01*
X883932D01*
Y713282D01*
X884118D01*
Y713375D01*
X884490D01*
Y713468D01*
X896023D01*
Y713375D01*
D02*
G37*
G36*
X915090Y721746D02*
X915648D01*
Y721653D01*
X916113D01*
Y721560D01*
X916299D01*
Y721467D01*
X916671D01*
Y721374D01*
X916857D01*
Y721281D01*
X917043D01*
Y721188D01*
X917229D01*
Y721095D01*
X917415D01*
Y721002D01*
X917601D01*
Y720909D01*
X917787D01*
Y720816D01*
X917880D01*
Y720723D01*
X918066D01*
Y720630D01*
X918159D01*
Y720536D01*
X918252D01*
Y720443D01*
X918438D01*
Y720350D01*
X918531D01*
Y720257D01*
X918624D01*
Y720164D01*
X918717D01*
Y720071D01*
X918810D01*
Y719978D01*
X918903D01*
Y719885D01*
X918996D01*
Y719792D01*
X919089D01*
Y719699D01*
X919182D01*
Y719606D01*
X919275D01*
Y719513D01*
X919368D01*
Y719327D01*
X919461D01*
Y719234D01*
X919554D01*
Y719141D01*
X919647D01*
Y718955D01*
X919740D01*
Y718862D01*
X919833D01*
Y718676D01*
X919926D01*
Y718490D01*
X920019D01*
Y718304D01*
X920113D01*
Y718211D01*
X920206D01*
Y717932D01*
X920298D01*
Y717746D01*
X920391D01*
Y717467D01*
X920484D01*
Y717188D01*
X920577D01*
Y716816D01*
X920670D01*
Y715886D01*
X920763D01*
Y715514D01*
X920670D01*
Y714305D01*
X920577D01*
Y713933D01*
X920484D01*
Y713654D01*
X920391D01*
Y713375D01*
X920298D01*
Y713189D01*
X920206D01*
Y712910D01*
X920113D01*
Y712817D01*
X920019D01*
Y712631D01*
X919926D01*
Y712445D01*
X919833D01*
Y712259D01*
X919740D01*
Y712166D01*
X919647D01*
Y711980D01*
X919554D01*
Y711887D01*
X919461D01*
Y711794D01*
X919368D01*
Y711608D01*
X919275D01*
Y711515D01*
X919182D01*
Y711422D01*
X919089D01*
Y711329D01*
X918996D01*
Y711236D01*
X918903D01*
Y711143D01*
X918810D01*
Y711049D01*
X918717D01*
Y710956D01*
X918624D01*
Y710863D01*
X918531D01*
Y710770D01*
X918345D01*
Y710677D01*
X918252D01*
Y710584D01*
X918159D01*
Y710491D01*
X917973D01*
Y710398D01*
X917880D01*
Y710305D01*
X917694D01*
Y710212D01*
X917601D01*
Y710119D01*
X917415D01*
Y710026D01*
X917229D01*
Y709933D01*
X917043D01*
Y709840D01*
X916857D01*
Y709747D01*
X916671D01*
Y709654D01*
X916299D01*
Y709561D01*
X916020D01*
Y709468D01*
X915648D01*
Y709375D01*
X914904D01*
Y709282D01*
X913974D01*
Y709189D01*
X913602D01*
Y709096D01*
X913416D01*
Y709003D01*
X913230D01*
Y708910D01*
X913137D01*
Y708817D01*
X913044D01*
Y708724D01*
X912951D01*
Y708631D01*
X912858D01*
Y708538D01*
X912765D01*
Y708352D01*
X912672D01*
Y708259D01*
X912579D01*
Y708073D01*
X912486D01*
Y707887D01*
X912393D01*
Y707422D01*
X912300D01*
Y707050D01*
X912393D01*
Y706585D01*
X912486D01*
Y706399D01*
X912579D01*
Y706213D01*
X912672D01*
Y706027D01*
X912765D01*
Y705934D01*
X912858D01*
Y705841D01*
X912951D01*
Y705748D01*
X913044D01*
Y705655D01*
X913137D01*
Y705562D01*
X913230D01*
Y705469D01*
X913416D01*
Y705376D01*
X913602D01*
Y705283D01*
X913695D01*
Y705190D01*
X914160D01*
Y705097D01*
X919182D01*
Y705004D01*
X919554D01*
Y704911D01*
X919740D01*
Y704818D01*
X919833D01*
Y704725D01*
X920019D01*
Y704632D01*
X920113D01*
Y704539D01*
X920206D01*
Y704446D01*
X920298D01*
Y704353D01*
X920391D01*
Y704167D01*
X920484D01*
Y703981D01*
X920577D01*
Y703795D01*
X920670D01*
Y703144D01*
X920763D01*
Y702865D01*
X920670D01*
Y702307D01*
X920577D01*
Y702028D01*
X920484D01*
Y701935D01*
X920391D01*
Y701749D01*
X920298D01*
Y701656D01*
X920206D01*
Y701469D01*
X920019D01*
Y701376D01*
X919926D01*
Y701283D01*
X919833D01*
Y701190D01*
X919647D01*
Y701097D01*
X919461D01*
Y701004D01*
X918996D01*
Y700911D01*
X913881D01*
Y701004D01*
X913230D01*
Y701097D01*
X912858D01*
Y701190D01*
X912486D01*
Y701283D01*
X912300D01*
Y701376D01*
X912021D01*
Y701469D01*
X911835D01*
Y701563D01*
X911649D01*
Y701656D01*
X911463D01*
Y701749D01*
X911277D01*
Y701842D01*
X911091D01*
Y701935D01*
X910997D01*
Y702028D01*
X910811D01*
Y702121D01*
X910719D01*
Y702214D01*
X910626D01*
Y702307D01*
X910440D01*
Y702400D01*
X910347D01*
Y702493D01*
X910254D01*
Y702586D01*
X910161D01*
Y702679D01*
X910067D01*
Y702772D01*
X909974D01*
Y702865D01*
X909881D01*
Y702958D01*
X909788D01*
Y703051D01*
X909695D01*
Y703144D01*
X909602D01*
Y703237D01*
X909509D01*
Y703423D01*
X909416D01*
Y703516D01*
X909323D01*
Y703609D01*
X909230D01*
Y703795D01*
X909137D01*
Y703888D01*
X909044D01*
Y704074D01*
X908951D01*
Y704167D01*
X908858D01*
Y704353D01*
X908765D01*
Y704539D01*
X908672D01*
Y704725D01*
X908579D01*
Y705004D01*
X908486D01*
Y705190D01*
X908393D01*
Y705562D01*
X908300D01*
Y705934D01*
X908207D01*
Y706492D01*
X908114D01*
Y707980D01*
X908207D01*
Y708538D01*
X908300D01*
Y708910D01*
X908393D01*
Y709282D01*
X908486D01*
Y709375D01*
X908579D01*
Y709654D01*
X908672D01*
Y709840D01*
X908765D01*
Y710026D01*
X908858D01*
Y710212D01*
X908951D01*
Y710398D01*
X909044D01*
Y710584D01*
X909137D01*
Y710677D01*
X909230D01*
Y710863D01*
X909323D01*
Y710956D01*
X909416D01*
Y711049D01*
X909509D01*
Y711236D01*
X909602D01*
Y711329D01*
X909695D01*
Y711422D01*
X909788D01*
Y711515D01*
X909881D01*
Y711608D01*
X909974D01*
Y711701D01*
X910067D01*
Y711794D01*
X910161D01*
Y711887D01*
X910254D01*
Y711980D01*
X910347D01*
Y712073D01*
X910533D01*
Y712166D01*
X910626D01*
Y712259D01*
X910719D01*
Y712352D01*
X910904D01*
Y712445D01*
X910997D01*
Y712538D01*
X911184D01*
Y712631D01*
X911277D01*
Y712724D01*
X911463D01*
Y712817D01*
X911742D01*
Y712910D01*
X911835D01*
Y713003D01*
X912114D01*
Y713096D01*
X912300D01*
Y713189D01*
X912672D01*
Y713282D01*
X912951D01*
Y713375D01*
X913602D01*
Y713468D01*
X914904D01*
Y713561D01*
X915090D01*
Y713654D01*
X915369D01*
Y713747D01*
X915555D01*
Y713840D01*
X915648D01*
Y713933D01*
X915834D01*
Y714026D01*
X915927D01*
Y714119D01*
X916020D01*
Y714212D01*
X916113D01*
Y714398D01*
X916206D01*
Y714491D01*
X916299D01*
Y714677D01*
X916392D01*
Y714956D01*
X916485D01*
Y715328D01*
X916578D01*
Y715793D01*
X916485D01*
Y716165D01*
X916392D01*
Y716444D01*
X916299D01*
Y716537D01*
X916206D01*
Y716723D01*
X916113D01*
Y716816D01*
X916020D01*
Y717002D01*
X915927D01*
Y717095D01*
X915741D01*
Y717188D01*
X915648D01*
Y717281D01*
X915555D01*
Y717374D01*
X915369D01*
Y717467D01*
X915090D01*
Y717560D01*
X914904D01*
Y717653D01*
X905603D01*
Y717560D01*
X905417D01*
Y717467D01*
X905138D01*
Y717374D01*
X904952D01*
Y717281D01*
X904859D01*
Y717188D01*
X904673D01*
Y717095D01*
X904580D01*
Y717002D01*
X904487D01*
Y716909D01*
X904394D01*
Y716723D01*
X904301D01*
Y716630D01*
X904208D01*
Y716444D01*
X904115D01*
Y716258D01*
X904022D01*
Y716072D01*
X903929D01*
Y702586D01*
X903836D01*
Y702307D01*
X903743D01*
Y702028D01*
X903650D01*
Y701842D01*
X903557D01*
Y701749D01*
X903464D01*
Y701656D01*
X903371D01*
Y701563D01*
X903278D01*
Y701469D01*
X903185D01*
Y701376D01*
X903092D01*
Y701283D01*
X902906D01*
Y701190D01*
X902720D01*
Y701097D01*
X902534D01*
Y701004D01*
X902162D01*
Y700911D01*
X901511D01*
Y701004D01*
X901046D01*
Y701097D01*
X900860D01*
Y701190D01*
X900674D01*
Y701283D01*
X900488D01*
Y701376D01*
X900395D01*
Y701469D01*
X900302D01*
Y701563D01*
X900209D01*
Y701656D01*
X900115D01*
Y701749D01*
X900023D01*
Y701842D01*
X899929D01*
Y702121D01*
X899836D01*
Y702307D01*
X899743D01*
Y716630D01*
X899836D01*
Y717002D01*
X899929D01*
Y717467D01*
X900023D01*
Y717653D01*
X900115D01*
Y717932D01*
X900209D01*
Y718118D01*
X900302D01*
Y718304D01*
X900395D01*
Y718490D01*
X900488D01*
Y718583D01*
X900581D01*
Y718769D01*
X900674D01*
Y718955D01*
X900767D01*
Y719048D01*
X900860D01*
Y719234D01*
X900953D01*
Y719327D01*
X901046D01*
Y719420D01*
X901139D01*
Y719513D01*
X901232D01*
Y719699D01*
X901325D01*
Y719792D01*
X901418D01*
Y719885D01*
X901511D01*
Y719978D01*
X901604D01*
Y720071D01*
X901697D01*
Y720164D01*
X901790D01*
Y720257D01*
X901883D01*
Y720350D01*
X902069D01*
Y720443D01*
X902162D01*
Y720536D01*
X902255D01*
Y720630D01*
X902441D01*
Y720723D01*
X902534D01*
Y720816D01*
X902720D01*
Y720909D01*
X902813D01*
Y721002D01*
X902999D01*
Y721095D01*
X903185D01*
Y721188D01*
X903371D01*
Y721281D01*
X903557D01*
Y721374D01*
X903743D01*
Y721467D01*
X904115D01*
Y721560D01*
X904301D01*
Y721653D01*
X904859D01*
Y721746D01*
X905324D01*
Y721839D01*
X915090D01*
Y721746D01*
D02*
G37*
G36*
X895930D02*
X896209D01*
Y721653D01*
X896488D01*
Y721560D01*
X896674D01*
Y721467D01*
X896767D01*
Y721374D01*
X896953D01*
Y721188D01*
X897046D01*
Y721095D01*
X897139D01*
Y721002D01*
X897232D01*
Y720816D01*
X897325D01*
Y720723D01*
X897418D01*
Y720443D01*
X897511D01*
Y720164D01*
X897604D01*
Y719234D01*
X897511D01*
Y718955D01*
X897418D01*
Y718676D01*
X897325D01*
Y718583D01*
X897232D01*
Y718397D01*
X897139D01*
Y718304D01*
X897046D01*
Y718211D01*
X896953D01*
Y718118D01*
X896767D01*
Y718025D01*
X896674D01*
Y717932D01*
X896488D01*
Y717839D01*
X896302D01*
Y717746D01*
X896116D01*
Y717653D01*
X882444D01*
Y717560D01*
X882258D01*
Y717467D01*
X881979D01*
Y717374D01*
X881793D01*
Y717281D01*
X881700D01*
Y717188D01*
X881607D01*
Y717095D01*
X881421D01*
Y717002D01*
X881328D01*
Y716816D01*
X881235D01*
Y716723D01*
X881142D01*
Y716630D01*
X881049D01*
Y716444D01*
X880956D01*
Y716258D01*
X880863D01*
Y716072D01*
X880770D01*
Y706771D01*
X880863D01*
Y706492D01*
X880956D01*
Y706306D01*
X881049D01*
Y706120D01*
X881142D01*
Y706027D01*
X881235D01*
Y705934D01*
X881328D01*
Y705748D01*
X881421D01*
Y705655D01*
X881607D01*
Y705562D01*
X881700D01*
Y705469D01*
X881793D01*
Y705376D01*
X881979D01*
Y705283D01*
X882165D01*
Y705190D01*
X882537D01*
Y705097D01*
X896023D01*
Y705004D01*
X896395D01*
Y704911D01*
X896581D01*
Y704818D01*
X896767D01*
Y704725D01*
X896860D01*
Y704632D01*
X896953D01*
Y704539D01*
X897046D01*
Y704446D01*
X897139D01*
Y704353D01*
X897232D01*
Y704167D01*
X897325D01*
Y704074D01*
X897418D01*
Y703795D01*
X897511D01*
Y703516D01*
X897604D01*
Y702586D01*
X897511D01*
Y702307D01*
X897418D01*
Y702028D01*
X897325D01*
Y701935D01*
X897232D01*
Y701749D01*
X897139D01*
Y701656D01*
X897046D01*
Y701563D01*
X896953D01*
Y701376D01*
X896767D01*
Y701283D01*
X896674D01*
Y701190D01*
X896488D01*
Y701097D01*
X896302D01*
Y701004D01*
X895837D01*
Y700911D01*
X882351D01*
Y701004D01*
X881607D01*
Y701097D01*
X881328D01*
Y701190D01*
X880956D01*
Y701283D01*
X880676D01*
Y701376D01*
X880397D01*
Y701469D01*
X880211D01*
Y701563D01*
X880025D01*
Y701656D01*
X879839D01*
Y701749D01*
X879746D01*
Y701842D01*
X879560D01*
Y701935D01*
X879374D01*
Y702028D01*
X879281D01*
Y702121D01*
X879095D01*
Y702214D01*
X879002D01*
Y702307D01*
X878909D01*
Y702400D01*
X878816D01*
Y702493D01*
X878630D01*
Y702586D01*
X878537D01*
Y702679D01*
X878444D01*
Y702772D01*
X878351D01*
Y702865D01*
X878258D01*
Y702958D01*
X878165D01*
Y703051D01*
X878072D01*
Y703237D01*
X877979D01*
Y703330D01*
X877886D01*
Y703423D01*
X877793D01*
Y703609D01*
X877700D01*
Y703702D01*
X877607D01*
Y703795D01*
X877514D01*
Y703981D01*
X877421D01*
Y704167D01*
X877328D01*
Y704353D01*
X877235D01*
Y704446D01*
X877142D01*
Y704725D01*
X877049D01*
Y704818D01*
X876956D01*
Y705097D01*
X876863D01*
Y705376D01*
X876770D01*
Y705655D01*
X876677D01*
Y706306D01*
X876584D01*
Y706957D01*
X876491D01*
Y709840D01*
Y709933D01*
Y715886D01*
X876584D01*
Y716444D01*
X876677D01*
Y717095D01*
X876770D01*
Y717374D01*
X876863D01*
Y717653D01*
X876956D01*
Y717932D01*
X877049D01*
Y718118D01*
X877142D01*
Y718304D01*
X877235D01*
Y718397D01*
X877328D01*
Y718583D01*
X877421D01*
Y718769D01*
X877514D01*
Y718955D01*
X877607D01*
Y719048D01*
X877700D01*
Y719141D01*
X877793D01*
Y719327D01*
X877886D01*
Y719420D01*
X877979D01*
Y719513D01*
X878072D01*
Y719699D01*
X878165D01*
Y719792D01*
X878258D01*
Y719885D01*
X878351D01*
Y719978D01*
X878444D01*
Y720071D01*
X878537D01*
Y720164D01*
X878630D01*
Y720257D01*
X878723D01*
Y720350D01*
X878909D01*
Y720443D01*
X879002D01*
Y720536D01*
X879095D01*
Y720630D01*
X879281D01*
Y720723D01*
X879374D01*
Y720816D01*
X879560D01*
Y720909D01*
X879653D01*
Y721002D01*
X879839D01*
Y721095D01*
X880025D01*
Y721188D01*
X880211D01*
Y721281D01*
X880490D01*
Y721374D01*
X880583D01*
Y721467D01*
X880956D01*
Y721560D01*
X881142D01*
Y721653D01*
X881700D01*
Y721746D01*
X882165D01*
Y721839D01*
X895930D01*
Y721746D01*
D02*
G37*
G36*
X868771D02*
X869329D01*
Y721653D01*
X869794D01*
Y721560D01*
X870073D01*
Y721467D01*
X870352D01*
Y721374D01*
X870538D01*
Y721281D01*
X870724D01*
Y721188D01*
X871003D01*
Y721095D01*
X871097D01*
Y721002D01*
X871283D01*
Y720909D01*
X871469D01*
Y720816D01*
X871562D01*
Y720723D01*
X871748D01*
Y720630D01*
X871841D01*
Y720536D01*
X872027D01*
Y720443D01*
X872120D01*
Y720350D01*
X872213D01*
Y720257D01*
X872306D01*
Y720164D01*
X872399D01*
Y720071D01*
X872492D01*
Y719978D01*
X872585D01*
Y719885D01*
X872678D01*
Y719792D01*
X872771D01*
Y719699D01*
X872864D01*
Y719606D01*
X872957D01*
Y719513D01*
X873050D01*
Y719420D01*
X873143D01*
Y719234D01*
X873236D01*
Y719141D01*
X873329D01*
Y718955D01*
X873422D01*
Y718862D01*
X873515D01*
Y718676D01*
X873608D01*
Y718490D01*
X873701D01*
Y718397D01*
X873794D01*
Y718211D01*
X873887D01*
Y718025D01*
X873980D01*
Y717746D01*
X874073D01*
Y717560D01*
X874166D01*
Y717188D01*
X874259D01*
Y716816D01*
X874352D01*
Y716351D01*
X874445D01*
Y706492D01*
X874352D01*
Y705934D01*
X874259D01*
Y705562D01*
X874166D01*
Y705190D01*
X874073D01*
Y705004D01*
X873980D01*
Y704725D01*
X873887D01*
Y704632D01*
X873794D01*
Y704353D01*
X873701D01*
Y704260D01*
X873608D01*
Y704074D01*
X873515D01*
Y703888D01*
X873422D01*
Y703795D01*
X873329D01*
Y703609D01*
X873236D01*
Y703516D01*
X873143D01*
Y703330D01*
X873050D01*
Y703237D01*
X872957D01*
Y703144D01*
X872864D01*
Y703051D01*
X872771D01*
Y702958D01*
X872678D01*
Y702865D01*
X872585D01*
Y702772D01*
X872492D01*
Y702679D01*
X872399D01*
Y702586D01*
X872306D01*
Y702493D01*
X872213D01*
Y702400D01*
X872120D01*
Y702307D01*
X871934D01*
Y702214D01*
X871841D01*
Y702121D01*
X871748D01*
Y702028D01*
X871562D01*
Y701935D01*
X871469D01*
Y701842D01*
X871283D01*
Y701749D01*
X871097D01*
Y701656D01*
X870910D01*
Y701563D01*
X870724D01*
Y701469D01*
X870538D01*
Y701376D01*
X870259D01*
Y701283D01*
X870073D01*
Y701190D01*
X869701D01*
Y701097D01*
X869329D01*
Y701004D01*
X868678D01*
Y700911D01*
X855192D01*
Y701004D01*
X854820D01*
Y701097D01*
X854634D01*
Y701190D01*
X854448D01*
Y701283D01*
X854262D01*
Y701376D01*
X854169D01*
Y701469D01*
X854076D01*
Y701563D01*
X853983D01*
Y701656D01*
X853890D01*
Y701749D01*
X853797D01*
Y701842D01*
X853704D01*
Y702028D01*
X853611D01*
Y702214D01*
X853518D01*
Y702493D01*
X853425D01*
Y720257D01*
X853518D01*
Y720443D01*
Y720536D01*
X853611D01*
Y720723D01*
X853704D01*
Y720909D01*
X853797D01*
Y721002D01*
X853890D01*
Y721095D01*
X853983D01*
Y721188D01*
X854076D01*
Y721281D01*
X854169D01*
Y721374D01*
X854262D01*
Y721467D01*
X854448D01*
Y721560D01*
X854541D01*
Y721653D01*
X854820D01*
Y721746D01*
X855099D01*
Y721839D01*
X868771D01*
Y721746D01*
D02*
G37*
%LPC*%
G36*
X801153Y705376D02*
X801339D01*
Y705469D01*
X801526D01*
Y705562D01*
X801712D01*
Y705655D01*
X801898D01*
Y705748D01*
X801991D01*
Y705841D01*
X802084D01*
Y705934D01*
X802177D01*
Y706027D01*
X802270D01*
Y706120D01*
X802363D01*
Y706213D01*
X802456D01*
Y706306D01*
X802549D01*
Y706492D01*
X802642D01*
Y706771D01*
X802735D01*
Y707050D01*
X802828D01*
Y707701D01*
X802735D01*
Y707980D01*
X802642D01*
Y708259D01*
X802549D01*
Y708445D01*
X802456D01*
Y708538D01*
X802363D01*
Y708724D01*
X802270D01*
Y708817D01*
X802177D01*
Y708910D01*
X802084D01*
Y709003D01*
X801898D01*
Y709096D01*
X801805D01*
Y709189D01*
X801526D01*
Y709282D01*
X801339D01*
Y709375D01*
X794271D01*
Y709468D01*
X793992D01*
Y709561D01*
X793806D01*
Y709654D01*
X793620D01*
Y709747D01*
X793527D01*
Y709840D01*
X793341D01*
Y709933D01*
X793248D01*
Y710026D01*
X793155D01*
Y710119D01*
X793062D01*
Y710305D01*
X792969D01*
Y710491D01*
X792876D01*
Y710584D01*
X792783D01*
Y710956D01*
X792690D01*
Y711794D01*
X792783D01*
Y712166D01*
X792876D01*
Y712352D01*
X792969D01*
Y712445D01*
X793062D01*
Y712631D01*
X793155D01*
Y712724D01*
X793248D01*
Y712817D01*
X793341D01*
Y712910D01*
X793434D01*
Y713003D01*
X793620D01*
Y713096D01*
X793713D01*
Y713189D01*
X793992D01*
Y713282D01*
X794178D01*
Y713375D01*
X797061D01*
Y713468D01*
X797433D01*
Y713561D01*
X797619D01*
Y713654D01*
X797805D01*
Y713747D01*
X797898D01*
Y713840D01*
X797991D01*
Y713933D01*
X798177D01*
Y714026D01*
X798270D01*
Y714119D01*
X798363D01*
Y714305D01*
X798456D01*
Y714398D01*
X798549D01*
Y714584D01*
X798642D01*
Y714956D01*
X798735D01*
Y715793D01*
X798642D01*
Y716165D01*
X798549D01*
Y716351D01*
X798456D01*
Y716444D01*
X798363D01*
Y716630D01*
X798270D01*
Y716723D01*
X798177D01*
Y716816D01*
X798084D01*
Y716909D01*
X797991D01*
Y717002D01*
X797898D01*
Y717095D01*
X797712D01*
Y717188D01*
X797526D01*
Y717281D01*
X797340D01*
Y717374D01*
X790736D01*
Y717281D01*
X790643D01*
Y705469D01*
X790736D01*
Y705376D01*
X801060D01*
X801153D01*
D02*
G37*
G36*
X836776Y732814D02*
X836311D01*
Y732721D01*
X836032D01*
Y732628D01*
X835753D01*
Y732535D01*
X835660D01*
Y732442D01*
X835567D01*
Y732349D01*
X835474D01*
Y732256D01*
X835381D01*
Y732163D01*
X835288D01*
Y732070D01*
X835195D01*
Y731884D01*
X835102D01*
Y731698D01*
X835009D01*
Y731605D01*
Y730861D01*
X835102D01*
Y730582D01*
X835195D01*
Y730489D01*
X835288D01*
Y730302D01*
X835381D01*
Y730209D01*
X835474D01*
Y730116D01*
X835567D01*
Y730023D01*
X835753D01*
Y729930D01*
X835846D01*
Y729837D01*
X836125D01*
Y729744D01*
X836404D01*
Y729651D01*
X836683D01*
Y729744D01*
X836869D01*
Y729837D01*
X837148D01*
Y729930D01*
X837334D01*
Y730023D01*
X837427D01*
Y730116D01*
X837613D01*
Y730209D01*
X837706D01*
Y730395D01*
X837799D01*
Y730489D01*
X837892D01*
Y730675D01*
X837985D01*
Y730954D01*
X838078D01*
Y731605D01*
X837985D01*
Y731791D01*
X837892D01*
Y732070D01*
X837799D01*
Y732163D01*
X837706D01*
Y732256D01*
X837613D01*
Y732349D01*
X837520D01*
Y732442D01*
X837427D01*
Y732535D01*
X837241D01*
Y732628D01*
X837055D01*
Y732721D01*
X836776D01*
Y732814D01*
D02*
G37*
G36*
X827289Y732628D02*
X826266D01*
Y732535D01*
X826080D01*
Y732442D01*
X825894D01*
Y732349D01*
X825801D01*
Y732256D01*
X825708D01*
Y732163D01*
X825615D01*
Y732070D01*
X825522D01*
Y731884D01*
X825429D01*
Y731791D01*
X825336D01*
Y731512D01*
X825243D01*
Y730861D01*
X825336D01*
Y730489D01*
X825429D01*
Y730395D01*
X825522D01*
Y730209D01*
X825615D01*
Y730116D01*
X825708D01*
Y730023D01*
X825801D01*
Y729930D01*
X825987D01*
Y729837D01*
X826080D01*
Y729744D01*
X826266D01*
Y729651D01*
X827289D01*
Y729744D01*
X827382D01*
Y729837D01*
X827661D01*
Y729930D01*
X827754D01*
Y730023D01*
X827847D01*
Y730116D01*
X827940D01*
Y730209D01*
X828033D01*
Y730395D01*
X828126D01*
Y730582D01*
X828219D01*
Y730675D01*
X828312D01*
Y731605D01*
X828219D01*
Y731698D01*
X828126D01*
Y731977D01*
X828033D01*
Y732070D01*
X827940D01*
Y732163D01*
X827847D01*
Y732256D01*
X827754D01*
Y732349D01*
X827661D01*
Y732442D01*
X827475D01*
Y732535D01*
X827289D01*
Y732628D01*
D02*
G37*
G36*
X831382Y728907D02*
X831289D01*
Y728814D01*
X830917D01*
Y728721D01*
X830824D01*
Y728628D01*
X830731D01*
Y728535D01*
X830638D01*
Y728349D01*
X830545D01*
Y728256D01*
X830452D01*
Y727791D01*
X830545D01*
Y727698D01*
X830638D01*
Y727512D01*
X830731D01*
Y727419D01*
X830917D01*
Y727326D01*
X831010D01*
Y727233D01*
X831568D01*
Y727326D01*
X831661D01*
Y727419D01*
X831847D01*
Y727512D01*
X831940D01*
Y727698D01*
X832033D01*
Y727791D01*
X832126D01*
Y728256D01*
X832033D01*
Y728442D01*
X831940D01*
Y728535D01*
X831847D01*
Y728628D01*
X831754D01*
Y728721D01*
X831661D01*
Y728814D01*
X831382D01*
Y728907D01*
D02*
G37*
G36*
X835939Y725280D02*
X835660D01*
Y725187D01*
X835474D01*
Y725094D01*
X835288D01*
Y725001D01*
X835195D01*
Y724908D01*
X835102D01*
Y724722D01*
X835009D01*
Y724629D01*
X834916D01*
Y724257D01*
X835009D01*
Y724071D01*
X835102D01*
Y723978D01*
X835195D01*
Y723885D01*
X835288D01*
Y723792D01*
X835381D01*
Y723699D01*
X835567D01*
Y723606D01*
X836032D01*
Y723699D01*
X836218D01*
Y723792D01*
X836311D01*
Y723885D01*
X836404D01*
Y723978D01*
X836497D01*
Y724164D01*
X836590D01*
Y724722D01*
X836497D01*
Y724908D01*
X836404D01*
Y725001D01*
X836311D01*
Y725094D01*
X836125D01*
Y725187D01*
X835939D01*
Y725280D01*
D02*
G37*
G36*
X821988Y717095D02*
X819941D01*
Y717002D01*
X819662D01*
Y716816D01*
X819569D01*
Y716723D01*
X819476D01*
Y716537D01*
X819383D01*
Y716444D01*
X819290D01*
Y716258D01*
X819197D01*
Y716165D01*
X819104D01*
Y715979D01*
X819011D01*
Y715793D01*
X818918D01*
Y715700D01*
X818825D01*
Y715514D01*
X818732D01*
Y715421D01*
X818639D01*
Y715235D01*
X818546D01*
Y715049D01*
X818453D01*
Y714956D01*
X818360D01*
Y714770D01*
X818267D01*
Y714677D01*
X818174D01*
Y714491D01*
X818081D01*
Y714398D01*
X817988D01*
Y714212D01*
X817895D01*
Y714026D01*
X817802D01*
Y713933D01*
X817709D01*
Y713747D01*
X817616D01*
Y713654D01*
X817523D01*
Y713468D01*
X817430D01*
Y713375D01*
X817337D01*
Y713189D01*
X817244D01*
Y713003D01*
X817151D01*
Y712910D01*
X817058D01*
Y712724D01*
X816965D01*
Y712538D01*
X817058D01*
Y711887D01*
X817151D01*
Y711608D01*
X817244D01*
Y711143D01*
X817337D01*
Y710677D01*
X817430D01*
Y710398D01*
X817523D01*
Y709933D01*
X817802D01*
Y710026D01*
X817895D01*
Y710119D01*
X817988D01*
Y710305D01*
X818081D01*
Y710491D01*
X818174D01*
Y710584D01*
X818267D01*
Y710770D01*
X818360D01*
Y710863D01*
X818453D01*
Y711049D01*
X818546D01*
Y711236D01*
X818639D01*
Y711329D01*
X818732D01*
Y711515D01*
X818825D01*
Y711608D01*
X818918D01*
Y711794D01*
X819011D01*
Y711887D01*
X819104D01*
Y712073D01*
X819197D01*
Y712259D01*
X819290D01*
Y712352D01*
X819383D01*
Y712538D01*
X819476D01*
Y712631D01*
X819569D01*
Y712817D01*
X819662D01*
Y713003D01*
X819755D01*
Y713096D01*
X819848D01*
Y713282D01*
X819941D01*
Y713375D01*
X820034D01*
Y713561D01*
X820127D01*
Y713654D01*
X820220D01*
Y713840D01*
X820313D01*
Y714026D01*
X820406D01*
Y714119D01*
X820499D01*
Y714305D01*
X820592D01*
Y714398D01*
X820686D01*
Y714584D01*
X820779D01*
Y714770D01*
X820872D01*
Y714863D01*
X820965D01*
Y715049D01*
X821058D01*
Y715142D01*
X821151D01*
Y715328D01*
X821244D01*
Y715421D01*
X821337D01*
Y715607D01*
X821430D01*
Y715793D01*
X821523D01*
Y715886D01*
X821616D01*
Y716072D01*
X821709D01*
Y716165D01*
X821802D01*
Y716351D01*
X821895D01*
Y716537D01*
X821988D01*
Y716630D01*
X822081D01*
Y716816D01*
X822174D01*
Y717002D01*
X821988D01*
Y717095D01*
D02*
G37*
G36*
X823848D02*
X823569D01*
Y717002D01*
X823476D01*
Y716909D01*
X823383D01*
Y716816D01*
X823290D01*
Y716630D01*
X823197D01*
Y716444D01*
X823104D01*
Y716351D01*
X823011D01*
Y716165D01*
X822918D01*
Y716072D01*
X822825D01*
Y715886D01*
X822732D01*
Y715793D01*
X822639D01*
Y715607D01*
X822546D01*
Y715421D01*
X822453D01*
Y715328D01*
X822360D01*
Y715142D01*
X822267D01*
Y715049D01*
X822174D01*
Y714863D01*
X822081D01*
Y714770D01*
X821988D01*
Y714584D01*
X821895D01*
Y714398D01*
X821802D01*
Y714305D01*
X821709D01*
Y714119D01*
X821616D01*
Y714026D01*
X821523D01*
Y713840D01*
X821430D01*
Y713747D01*
X821337D01*
Y713561D01*
X821244D01*
Y713375D01*
X821151D01*
Y713282D01*
X821058D01*
Y713096D01*
X820965D01*
Y713003D01*
X820872D01*
Y712817D01*
X820779D01*
Y712631D01*
X820686D01*
Y712538D01*
X820592D01*
Y712352D01*
X820499D01*
Y712259D01*
X820406D01*
Y712073D01*
X820313D01*
Y711887D01*
X820220D01*
Y711794D01*
X820127D01*
Y711608D01*
X820034D01*
Y711515D01*
X819941D01*
Y711329D01*
X819848D01*
Y711236D01*
X819755D01*
Y711049D01*
X819662D01*
Y710863D01*
X819569D01*
Y710770D01*
X819476D01*
Y710584D01*
X819383D01*
Y710491D01*
X819290D01*
Y710305D01*
X819197D01*
Y710212D01*
X819104D01*
Y710026D01*
X819011D01*
Y709840D01*
X818918D01*
Y709747D01*
X818825D01*
Y709561D01*
X818732D01*
Y709468D01*
X818639D01*
Y709282D01*
X818546D01*
Y709096D01*
X818453D01*
Y709003D01*
X818360D01*
Y708817D01*
X818267D01*
Y708724D01*
X818174D01*
Y708538D01*
X818081D01*
Y708445D01*
X817988D01*
Y708259D01*
X817895D01*
Y708073D01*
X817802D01*
Y707980D01*
X817709D01*
Y707794D01*
X817616D01*
Y707422D01*
X817988D01*
Y707329D01*
X818918D01*
Y707515D01*
X819011D01*
Y707608D01*
X819104D01*
Y707794D01*
X819197D01*
Y707980D01*
X819290D01*
Y708073D01*
X819383D01*
Y708259D01*
X819476D01*
Y708352D01*
X819569D01*
Y708538D01*
X819662D01*
Y708631D01*
X819755D01*
Y708817D01*
X819848D01*
Y709003D01*
X819941D01*
Y709096D01*
X820034D01*
Y709282D01*
X820127D01*
Y709375D01*
X820220D01*
Y709561D01*
X820313D01*
Y709747D01*
X820406D01*
Y709840D01*
X820499D01*
Y710026D01*
X820592D01*
Y710119D01*
X820686D01*
Y710305D01*
X820779D01*
Y710398D01*
X820872D01*
Y710584D01*
X820965D01*
Y710770D01*
X821058D01*
Y710863D01*
X821151D01*
Y711049D01*
X821244D01*
Y711143D01*
X821337D01*
Y711329D01*
X821430D01*
Y711422D01*
X821523D01*
Y711608D01*
X821616D01*
Y711794D01*
X821709D01*
Y711887D01*
X821802D01*
Y712073D01*
X821895D01*
Y712166D01*
X821988D01*
Y712352D01*
X822081D01*
Y712445D01*
X822174D01*
Y712538D01*
X822546D01*
Y712631D01*
X822918D01*
Y712724D01*
X823569D01*
Y712817D01*
X823755D01*
Y712910D01*
X824220D01*
Y713003D01*
X824592D01*
Y713096D01*
X824871D01*
Y713189D01*
X824964D01*
Y713468D01*
X824871D01*
Y713654D01*
X824778D01*
Y713933D01*
X824685D01*
Y714212D01*
X824592D01*
Y714398D01*
X824499D01*
Y714677D01*
X824406D01*
Y714863D01*
X824313D01*
Y715142D01*
X824220D01*
Y715328D01*
X824127D01*
Y715700D01*
X824034D01*
Y715886D01*
X823941D01*
Y716072D01*
X823848D01*
Y716444D01*
X823755D01*
Y716537D01*
X823848D01*
Y716723D01*
X823941D01*
Y717002D01*
X823848D01*
Y717095D01*
D02*
G37*
G36*
X825150Y712631D02*
X824871D01*
Y712538D01*
X824592D01*
Y712445D01*
X824127D01*
Y712352D01*
X823569D01*
Y712259D01*
X823290D01*
Y712166D01*
X822732D01*
Y712073D01*
X822546D01*
Y711980D01*
X822453D01*
Y711887D01*
X822360D01*
Y711701D01*
X822267D01*
Y711608D01*
X822174D01*
Y711422D01*
X822081D01*
Y711329D01*
X821988D01*
Y711143D01*
X821895D01*
Y711049D01*
X821802D01*
Y710863D01*
X821709D01*
Y710677D01*
X821616D01*
Y710584D01*
X821523D01*
Y710398D01*
X821430D01*
Y710305D01*
X821337D01*
Y710119D01*
X821244D01*
Y709933D01*
X821151D01*
Y709840D01*
X821058D01*
Y709654D01*
X820965D01*
Y709561D01*
X820872D01*
Y709375D01*
X820779D01*
Y709282D01*
X820686D01*
Y709096D01*
X820592D01*
Y708910D01*
X820499D01*
Y708817D01*
X820406D01*
Y708631D01*
X820313D01*
Y708538D01*
X820220D01*
Y708352D01*
X820127D01*
Y708166D01*
X820034D01*
Y708073D01*
X819941D01*
Y707887D01*
X819848D01*
Y707794D01*
X819755D01*
Y707608D01*
X819662D01*
Y707515D01*
X819569D01*
Y707143D01*
X819941D01*
Y707050D01*
X820220D01*
Y706957D01*
X821058D01*
Y706864D01*
X821523D01*
Y706771D01*
X821709D01*
Y706864D01*
X821895D01*
Y706957D01*
X821988D01*
Y707143D01*
X822081D01*
Y707329D01*
X822174D01*
Y707422D01*
X822267D01*
Y707608D01*
X822360D01*
Y707701D01*
X822453D01*
Y707887D01*
X822546D01*
Y707980D01*
X822639D01*
Y708166D01*
X822732D01*
Y708352D01*
X822825D01*
Y708445D01*
X822918D01*
Y708631D01*
X823011D01*
Y708724D01*
X823104D01*
Y708910D01*
X823197D01*
Y709003D01*
X823290D01*
Y709189D01*
X823383D01*
Y709282D01*
X823476D01*
Y709468D01*
X823569D01*
Y709654D01*
X823662D01*
Y709747D01*
X823755D01*
Y709933D01*
X823848D01*
Y710119D01*
X823941D01*
Y710212D01*
X824034D01*
Y710398D01*
X824127D01*
Y710491D01*
X824220D01*
Y710584D01*
X824313D01*
Y710863D01*
X824406D01*
Y710956D01*
X824499D01*
Y711143D01*
X824592D01*
Y711236D01*
X824685D01*
Y711422D01*
X824778D01*
Y711515D01*
X824871D01*
Y711701D01*
X824964D01*
Y711887D01*
X825057D01*
Y711980D01*
X825150D01*
Y712073D01*
X825243D01*
Y712352D01*
X825336D01*
Y712445D01*
X825243D01*
Y712538D01*
X825150D01*
Y712631D01*
D02*
G37*
G36*
X868585Y717653D02*
X857703D01*
Y717560D01*
X857610D01*
Y711236D01*
Y711143D01*
Y705190D01*
X857703D01*
Y705097D01*
X868492D01*
Y705190D01*
X868864D01*
Y705283D01*
X869050D01*
Y705376D01*
X869236D01*
Y705469D01*
X869329D01*
Y705562D01*
X869422D01*
Y705655D01*
X869608D01*
Y705748D01*
X869701D01*
Y705841D01*
X869794D01*
Y706027D01*
X869887D01*
Y706120D01*
X869980D01*
Y706306D01*
X870073D01*
Y706492D01*
X870166D01*
Y706957D01*
X870259D01*
Y715886D01*
X870166D01*
Y716258D01*
X870073D01*
Y716444D01*
X869980D01*
Y716630D01*
X869887D01*
Y716723D01*
X869794D01*
Y716909D01*
X869701D01*
Y717002D01*
X869608D01*
Y717095D01*
X869515D01*
Y717188D01*
X869329D01*
Y717281D01*
X869236D01*
Y717374D01*
X869050D01*
Y717467D01*
X868771D01*
Y717560D01*
X868585D01*
Y717653D01*
D02*
G37*
%LPD*%
D10*
X278039Y759460D02*
G03*
X256540Y737961I0J-21499D01*
G01*
X694802Y660400D02*
G03*
X694802Y660400I-21702J0D01*
G01*
X256540Y278039D02*
G03*
X278039Y256540I21499J0D01*
G01*
X1013460Y737961D02*
G03*
X991961Y759460I-21499J0D01*
G01*
Y256540D02*
G03*
X1013460Y278039I0J21499D01*
G01*
X673100Y355600D02*
X977900D01*
Y660400D01*
X673100D02*
X977900D01*
X673100Y355600D02*
Y660400D01*
X278039Y759460D02*
X991961D01*
X256540Y278039D02*
X256540Y737961D01*
X575310Y269240D02*
Y300990D01*
Y269240D02*
X618490D01*
Y300990D01*
X575310D02*
X618490D01*
X579120Y487680D02*
Y518160D01*
Y487680D02*
X635000D01*
Y518160D01*
X579120D02*
X635000D01*
X627380Y383540D02*
Y414020D01*
X571500D02*
X627380D01*
X571500Y383540D02*
Y414020D01*
Y383540D02*
X627380D01*
X1013460Y278039D02*
Y737961D01*
X278039Y256540D02*
X991961Y256540D01*
X422910Y269240D02*
Y300990D01*
Y269240D02*
X466090D01*
Y300990D01*
X422910D02*
X466090D01*
X499110Y269240D02*
Y300990D01*
Y269240D02*
X542290D01*
Y300990D01*
X499110D02*
X542290D01*
X651510Y269240D02*
Y300990D01*
Y269240D02*
X694690D01*
Y300990D01*
X651510D02*
X694690D01*
X727710Y269240D02*
Y300990D01*
Y269240D02*
X770890D01*
Y300990D01*
X727710D02*
X770890D01*
X346710Y269240D02*
Y300990D01*
Y269240D02*
X389890D01*
Y300990D01*
X346710D02*
X389890D01*
X817899Y320536D02*
Y335771D01*
X828056Y320536D01*
Y335771D01*
X833134Y320536D02*
Y335771D01*
X840751D01*
X843291Y333232D01*
Y328154D01*
X840751Y325615D01*
X833134D01*
X838212D02*
X843291Y320536D01*
X858526Y335771D02*
X848369D01*
Y328154D01*
X853447D01*
X848369D01*
Y320536D01*
X873761Y335771D02*
X863604D01*
Y328154D01*
X868682Y330693D01*
X871222D01*
X873761Y328154D01*
Y323075D01*
X871222Y320536D01*
X866143D01*
X863604Y323075D01*
X888996Y320536D02*
X878839D01*
X888996Y330693D01*
Y333232D01*
X886457Y335771D01*
X881378D01*
X878839Y333232D01*
X894074D02*
X896613Y335771D01*
X901692D01*
X904231Y333232D01*
Y330693D01*
X901692Y328154D01*
X904231Y325615D01*
Y323075D01*
X901692Y320536D01*
X896613D01*
X894074Y323075D01*
Y325615D01*
X896613Y328154D01*
X894074Y330693D01*
Y333232D01*
X896613Y328154D02*
X901692D01*
X909309Y333232D02*
X911849Y335771D01*
X916927D01*
X919466Y333232D01*
Y330693D01*
X916927Y328154D01*
X914388D01*
X916927D01*
X919466Y325615D01*
Y323075D01*
X916927Y320536D01*
X911849D01*
X909309Y323075D01*
X934701Y320536D02*
X924544D01*
X934701Y330693D01*
Y333232D01*
X932162Y335771D01*
X927084D01*
X924544Y333232D01*
X806473Y308854D02*
X803933Y311393D01*
X798855D01*
X796316Y308854D01*
Y298697D01*
X798855Y296158D01*
X803933D01*
X806473Y298697D01*
X811551Y311393D02*
Y296158D01*
Y303776D01*
X821708D01*
Y311393D01*
Y296158D01*
X826786Y311393D02*
X831864D01*
X829325D01*
Y296158D01*
X826786D01*
X831864D01*
X839482D02*
Y311393D01*
X847099D01*
X849639Y308854D01*
Y303776D01*
X847099Y301236D01*
X839482D01*
X880109Y308854D02*
X877570Y311393D01*
X872491D01*
X869952Y308854D01*
Y306315D01*
X872491Y303776D01*
X877570D01*
X880109Y301236D01*
Y298697D01*
X877570Y296158D01*
X872491D01*
X869952Y298697D01*
X892805Y311393D02*
X887726D01*
X885187Y308854D01*
Y298697D01*
X887726Y296158D01*
X892805D01*
X895344Y298697D01*
Y308854D01*
X892805Y311393D01*
X910579Y308854D02*
X908040Y311393D01*
X902961D01*
X900422Y308854D01*
Y298697D01*
X902961Y296158D01*
X908040D01*
X910579Y298697D01*
X915657Y311393D02*
Y296158D01*
Y301236D01*
X925814Y311393D01*
X918196Y303776D01*
X925814Y296158D01*
X941049Y311393D02*
X930892D01*
Y296158D01*
X941049D01*
X930892Y303776D02*
X935971D01*
X946127Y311393D02*
X956284D01*
X951206D01*
Y296158D01*
X802664Y271780D02*
Y287015D01*
X810281D01*
X812821Y284476D01*
Y279398D01*
X810281Y276858D01*
X802664D01*
X817899Y271780D02*
Y287015D01*
X825516D01*
X828056Y284476D01*
Y279398D01*
X825516Y276858D01*
X817899D01*
X822977D02*
X828056Y271780D01*
X840751Y287015D02*
X835673D01*
X833134Y284476D01*
Y274319D01*
X835673Y271780D01*
X840751D01*
X843291Y274319D01*
Y284476D01*
X840751Y287015D01*
X858526Y284476D02*
X855987Y287015D01*
X850908D01*
X848369Y284476D01*
Y274319D01*
X850908Y271780D01*
X855987D01*
X858526Y274319D01*
Y279398D01*
X853447D01*
X863604Y271780D02*
Y287015D01*
X871222D01*
X873761Y284476D01*
Y279398D01*
X871222Y276858D01*
X863604D01*
X868682D02*
X873761Y271780D01*
X878839D02*
Y281937D01*
X883917Y287015D01*
X888996Y281937D01*
Y271780D01*
Y279398D01*
X878839D01*
X894074Y271780D02*
Y287015D01*
X899153Y281937D01*
X904231Y287015D01*
Y271780D01*
X909309D02*
Y287015D01*
X914388Y281937D01*
X919466Y287015D01*
Y271780D01*
X934701Y287015D02*
X924544D01*
Y271780D01*
X934701D01*
X924544Y279398D02*
X929623D01*
X939780Y271780D02*
Y287015D01*
X947397D01*
X949936Y284476D01*
Y279398D01*
X947397Y276858D01*
X939780D01*
X944858D02*
X949936Y271780D01*
X276857Y392673D02*
X271778D01*
X274317D01*
Y379977D01*
X271778Y377438D01*
X269239D01*
X266700Y379977D01*
X281935Y385056D02*
X292092D01*
X297170Y392673D02*
Y377438D01*
X307327D01*
X312405Y392673D02*
X317484D01*
X314944D01*
Y377438D01*
X312405D01*
X317484D01*
X325101D02*
Y392673D01*
X335258Y377438D01*
Y392673D01*
X340336D02*
Y377438D01*
Y382516D01*
X350493Y392673D01*
X342875Y385056D01*
X350493Y377438D01*
X266700Y353060D02*
Y363217D01*
X271778Y368295D01*
X276857Y363217D01*
Y353060D01*
Y360677D01*
X266700D01*
X281935Y368295D02*
Y353060D01*
X289553D01*
X292092Y355599D01*
Y365756D01*
X289553Y368295D01*
X281935D01*
X297170Y353060D02*
Y363217D01*
X302248Y368295D01*
X307327Y363217D01*
Y353060D01*
Y360677D01*
X297170D01*
X312405Y353060D02*
Y368295D01*
X320023D01*
X322562Y365756D01*
Y360677D01*
X320023Y358138D01*
X312405D01*
X327640Y368295D02*
X337797D01*
X332719D01*
Y353060D01*
X353032Y368295D02*
X342875D01*
Y353060D01*
X353032D01*
X342875Y360677D02*
X347954D01*
X358110Y353060D02*
Y368295D01*
X365728D01*
X368267Y365756D01*
Y360677D01*
X365728Y358138D01*
X358110D01*
X363189D02*
X368267Y353060D01*
X952501Y378457D02*
X947422D01*
X949962D01*
Y365762D01*
X947422Y363223D01*
X944883D01*
X942344Y365762D01*
X967736Y363223D02*
X957579D01*
X967736Y373379D01*
Y375918D01*
X965197Y378457D01*
X960118D01*
X957579Y375918D01*
X337820Y744215D02*
Y734058D01*
X342898Y728980D01*
X347977Y734058D01*
Y744215D01*
X353055Y728980D02*
X358133D01*
X355594D01*
Y744215D01*
X353055Y741676D01*
X365751Y728980D02*
Y731519D01*
X368290D01*
Y728980D01*
X365751D01*
X378447Y741676D02*
X380986Y744215D01*
X386064D01*
X388604Y741676D01*
Y731519D01*
X386064Y728980D01*
X380986D01*
X378447Y731519D01*
Y741676D01*
X302260Y530855D02*
Y518159D01*
X304799Y515620D01*
X309877D01*
X312417Y518159D01*
Y530855D01*
X327652Y528316D02*
X325113Y530855D01*
X320034D01*
X317495Y528316D01*
Y525777D01*
X320034Y523237D01*
X325113D01*
X327652Y520698D01*
Y518159D01*
X325113Y515620D01*
X320034D01*
X317495Y518159D01*
X332730Y530855D02*
Y515620D01*
X340348D01*
X342887Y518159D01*
Y520698D01*
X340348Y523237D01*
X332730D01*
X340348D01*
X342887Y525777D01*
Y528316D01*
X340348Y530855D01*
X332730D01*
X363200Y515620D02*
Y530855D01*
X370818D01*
X373357Y528316D01*
Y523237D01*
X370818Y520698D01*
X363200D01*
X386053Y530855D02*
X380975D01*
X378435Y528316D01*
Y518159D01*
X380975Y515620D01*
X386053D01*
X388592Y518159D01*
Y528316D01*
X386053Y530855D01*
X393670D02*
Y515620D01*
X398749Y520698D01*
X403827Y515620D01*
Y530855D01*
X419062D02*
X408905D01*
Y515620D01*
X419062D01*
X408905Y523237D02*
X413984D01*
X424141Y515620D02*
Y530855D01*
X431758D01*
X434297Y528316D01*
Y523237D01*
X431758Y520698D01*
X424141D01*
X429219D02*
X434297Y515620D01*
X485141Y728978D02*
X480062D01*
X482602D01*
Y716282D01*
X480062Y713743D01*
X477523D01*
X474984Y716282D01*
X490219Y726438D02*
X492758Y728978D01*
X497837D01*
X500376Y726438D01*
Y723899D01*
X497837Y721360D01*
X500376Y718821D01*
Y716282D01*
X497837Y713743D01*
X492758D01*
X490219Y716282D01*
Y718821D01*
X492758Y721360D01*
X490219Y723899D01*
Y726438D01*
X492758Y721360D02*
X497837D01*
X279401Y561338D02*
X274322D01*
X276862D01*
Y548642D01*
X274322Y546102D01*
X271783D01*
X269244Y548642D01*
X284479Y561338D02*
X294636D01*
Y558798D01*
X284479Y548642D01*
Y546102D01*
X980444Y312423D02*
Y327658D01*
X985523Y322579D01*
X990601Y327658D01*
Y312423D01*
X1003297D02*
Y327658D01*
X995679Y320040D01*
X1005836D01*
X977904Y690882D02*
Y706117D01*
X982982Y701039D01*
X988061Y706117D01*
Y690882D01*
X993139Y703578D02*
X995678Y706117D01*
X1000757D01*
X1003296Y703578D01*
Y701039D01*
X1000757Y698500D01*
X998217D01*
X1000757D01*
X1003296Y695961D01*
Y693422D01*
X1000757Y690882D01*
X995678D01*
X993139Y693422D01*
X266704Y695963D02*
Y711198D01*
X271782Y706119D01*
X276861Y711198D01*
Y695963D01*
X292096D02*
X281939D01*
X292096Y706119D01*
Y708658D01*
X289557Y711198D01*
X284478D01*
X281939Y708658D01*
X269243Y309883D02*
Y325117D01*
X274322Y320039D01*
X279400Y325117D01*
Y309883D01*
X284478D02*
X289557D01*
X287018D01*
Y325117D01*
X284478Y322578D01*
X288795Y496565D02*
X283716D01*
X286255D01*
Y483869D01*
X283716Y481330D01*
X281177D01*
X278638Y483869D01*
X293873Y481330D02*
X298951D01*
X296412D01*
Y496565D01*
X293873Y494026D01*
X275499Y762000D02*
G03*
X254000Y740501I0J-21499D01*
G01*
Y275499D02*
G03*
X275499Y254000I21499J0D01*
G01*
X1016000Y740501D02*
G03*
X994501Y762000I-21499J0D01*
G01*
Y254000D02*
G03*
X1016000Y275499I0J21499D01*
G01*
X275499Y762000D02*
X994501D01*
X275499Y254000D02*
X994501D01*
X254000Y275499D02*
Y740501D01*
X1016000Y275499D02*
Y740501D01*
D11*
X584812Y609600D02*
G03*
X584812Y609600I-1250J0D01*
G01*
X500592Y398780D02*
G03*
X500592Y398780I-1250J0D01*
G01*
X500992Y373380D02*
G03*
X500992Y373380I-1250J0D01*
G01*
X584812Y556260D02*
G03*
X584812Y556260I-1250J0D01*
G01*
X584412Y584200D02*
G03*
X584412Y584200I-1250J0D01*
G01*
X500592Y424180D02*
G03*
X500592Y424180I-1250J0D01*
G01*
X357350Y414270D02*
G03*
X357350Y414270I-1250J0D01*
G01*
D12*
X749300Y731400D02*
Y731800D01*
X744220Y731400D02*
Y731800D01*
X731520Y731320D02*
Y731720D01*
X726440Y731320D02*
Y731720D01*
X693420Y731400D02*
Y731800D01*
X688340Y731400D02*
Y731800D01*
X708660Y731400D02*
Y731800D01*
X713740Y731400D02*
Y731800D01*
X574360Y425260D02*
Y433260D01*
X583960Y426760D02*
X584760D01*
X583960Y431760D02*
X584760D01*
X606505Y426720D02*
X607775D01*
X606505Y431800D02*
X607775D01*
X500380Y452000D02*
Y452400D01*
X505460Y452000D02*
Y452400D01*
X485140Y452000D02*
Y452400D01*
X490220Y452000D02*
Y452400D01*
X480060Y601860D02*
Y602260D01*
X485140Y601860D02*
Y602260D01*
X472440Y601860D02*
Y602260D01*
X467360Y601860D02*
Y602260D01*
D13*
X608550Y549410D02*
X619050D01*
X608550Y563110D02*
X619050D01*
X470170Y469244D02*
Y473467D01*
X441170D02*
X448786D01*
X462554D02*
X470170D01*
X441170Y469244D02*
Y473467D01*
X571040Y602350D02*
Y602850D01*
Y616350D02*
Y616850D01*
X552040D02*
X571040D01*
X552040Y602350D02*
Y602850D01*
Y616350D02*
Y616850D01*
Y602350D02*
X571040D01*
X664840Y708660D02*
Y734060D01*
X508640Y708660D02*
X664840D01*
X508640D02*
Y734060D01*
X664840D01*
X486820Y391530D02*
Y392030D01*
Y405530D02*
Y406030D01*
X467820D02*
X486820D01*
X467820Y391530D02*
Y392030D01*
Y405530D02*
Y406030D01*
Y391530D02*
X486820D01*
X429260Y565610D02*
Y600610D01*
Y651010D02*
Y686010D01*
X269260Y565610D02*
X332260D01*
X398260D02*
X429260D01*
X398260Y686010D02*
X429260D01*
X269260D02*
X332260D01*
X269260Y565610D02*
Y686010D01*
X487220Y366130D02*
Y366630D01*
Y380130D02*
Y380630D01*
X468220D02*
X487220D01*
X468220Y366130D02*
Y366630D01*
Y380130D02*
Y380630D01*
Y366130D02*
X487220D01*
X571040Y549010D02*
Y549510D01*
Y563010D02*
Y563510D01*
X552040D02*
X571040D01*
X552040Y549010D02*
Y549510D01*
Y563010D02*
Y563510D01*
Y549010D02*
X571040D01*
X570640Y576950D02*
Y577450D01*
Y590950D02*
Y591450D01*
X551640D02*
X570640D01*
X551640Y576950D02*
Y577450D01*
Y590950D02*
Y591450D01*
Y576950D02*
X570640D01*
X486820Y416930D02*
Y417430D01*
Y430930D02*
Y431430D01*
X467820D02*
X486820D01*
X467820Y416930D02*
Y417430D01*
Y430930D02*
Y431430D01*
Y416930D02*
X486820D01*
X309800Y471820D02*
X315100D01*
X338500Y446870D02*
Y457370D01*
X309800Y407020D02*
X315100D01*
D14*
X591823Y379217D02*
Y374138D01*
X594362Y371599D01*
X596902Y374138D01*
Y379217D01*
X604519Y377947D02*
X603250Y379217D01*
X600710D01*
X599441Y377947D01*
Y372869D01*
X600710Y371599D01*
X603250D01*
X604519Y372869D01*
X612137Y377947D02*
X610867Y379217D01*
X608328D01*
X607058Y377947D01*
Y372869D01*
X608328Y371599D01*
X610867D01*
X612137Y372869D01*
X585475Y367028D02*
X580397D01*
Y359410D01*
X585475D01*
X580397Y363219D02*
X582936D01*
X588014Y359410D02*
Y367028D01*
X593093Y359410D01*
Y367028D01*
X595632Y359410D02*
Y364488D01*
X598171Y367028D01*
X600710Y364488D01*
Y359410D01*
Y363219D01*
X595632D01*
X603250Y367028D02*
Y359410D01*
X607058D01*
X608328Y360680D01*
Y361949D01*
X607058Y363219D01*
X603250D01*
X607058D01*
X608328Y364488D01*
Y365758D01*
X607058Y367028D01*
X603250D01*
X610867D02*
Y359410D01*
X615946D01*
X623563Y367028D02*
X618485D01*
Y359410D01*
X623563D01*
X618485Y363219D02*
X621024D01*
X590548Y327147D02*
X589279Y328417D01*
X586740D01*
X585470Y327147D01*
Y325877D01*
X586740Y324608D01*
X589279D01*
X590548Y323338D01*
Y322069D01*
X589279Y320799D01*
X586740D01*
X585470Y322069D01*
X593088Y328417D02*
Y320799D01*
X595627Y323338D01*
X598166Y320799D01*
Y328417D01*
X600705D02*
Y320799D01*
X604514D01*
X605783Y322069D01*
Y327147D01*
X604514Y328417D01*
X600705D01*
X590548Y314958D02*
X589279Y316227D01*
X586740D01*
X585470Y314958D01*
Y309880D01*
X586740Y308610D01*
X589279D01*
X590548Y309880D01*
X593088Y316227D02*
Y308610D01*
X598166D01*
X600705Y316227D02*
Y308610D01*
Y311149D01*
X605783Y316227D01*
X601975Y312419D01*
X605783Y308610D01*
X516888Y327147D02*
X515619Y328417D01*
X513080D01*
X511810Y327147D01*
Y325877D01*
X513080Y324608D01*
X515619D01*
X516888Y323338D01*
Y322069D01*
X515619Y320799D01*
X513080D01*
X511810Y322069D01*
X519427Y328417D02*
Y320799D01*
X521967Y323338D01*
X524506Y320799D01*
Y328417D01*
X527045D02*
Y320799D01*
X530854D01*
X532123Y322069D01*
Y327147D01*
X530854Y328417D01*
X527045D01*
X511810Y316227D02*
Y308610D01*
X515619D01*
X516888Y309880D01*
Y314958D01*
X515619Y316227D01*
X511810D01*
X519427D02*
X521967D01*
X520697D01*
Y308610D01*
X519427D01*
X521967D01*
X529584Y316227D02*
X527045D01*
X525775Y314958D01*
Y309880D01*
X527045Y308610D01*
X529584D01*
X530854Y309880D01*
Y314958D01*
X529584Y316227D01*
X433070Y320799D02*
Y325877D01*
X435609Y328417D01*
X438148Y325877D01*
Y320799D01*
Y324608D01*
X433070D01*
X440687Y328417D02*
Y320799D01*
X445766D01*
X448305Y328417D02*
X453383D01*
X450844D01*
Y320799D01*
X433070Y316227D02*
Y311149D01*
X435609Y308610D01*
X438148Y311149D01*
Y316227D01*
X440687D02*
X443227D01*
X441957D01*
Y308610D01*
X440687D01*
X443227D01*
X447035D02*
Y316227D01*
X452114Y308610D01*
Y316227D01*
X356870Y320799D02*
Y325877D01*
X359409Y328417D01*
X361948Y325877D01*
Y320799D01*
Y324608D01*
X356870D01*
X364487Y328417D02*
Y320799D01*
X369566D01*
X372105Y328417D02*
X377183D01*
X374644D01*
Y320799D01*
X356870Y316227D02*
Y311149D01*
X359409Y308610D01*
X361948Y311149D01*
Y316227D01*
X369566Y314958D02*
X368296Y316227D01*
X365757D01*
X364487Y314958D01*
Y309880D01*
X365757Y308610D01*
X368296D01*
X369566Y309880D01*
X377183Y314958D02*
X375914Y316227D01*
X373375D01*
X372105Y314958D01*
Y309880D01*
X373375Y308610D01*
X375914D01*
X377183Y309880D01*
X597538Y480817D02*
Y475738D01*
X600077Y473199D01*
X602616Y475738D01*
Y480817D01*
X605156D02*
X607695D01*
X606425D01*
Y473199D01*
X605156D01*
X607695D01*
X611504D02*
Y480817D01*
X616582Y473199D01*
Y480817D01*
X590555Y468628D02*
X585477D01*
Y461010D01*
X590555D01*
X585477Y464819D02*
X588016D01*
X593094Y461010D02*
Y468628D01*
X598173Y461010D01*
Y468628D01*
X600712Y461010D02*
Y466088D01*
X603251Y468628D01*
X605790Y466088D01*
Y461010D01*
Y464819D01*
X600712D01*
X608330Y468628D02*
Y461010D01*
X612138D01*
X613408Y462280D01*
Y463549D01*
X612138Y464819D01*
X608330D01*
X612138D01*
X613408Y466088D01*
Y467358D01*
X612138Y468628D01*
X608330D01*
X615947D02*
Y461010D01*
X621026D01*
X628643Y468628D02*
X623565D01*
Y461010D01*
X628643D01*
X623565Y464819D02*
X626104D01*
X745490Y711199D02*
X744221Y712469D01*
X741682D01*
X740412Y711199D01*
Y706121D01*
X741682Y704851D01*
X744221D01*
X745490Y706121D01*
X748030Y712469D02*
X753108D01*
Y711199D01*
X748030Y706121D01*
Y704851D01*
X727710Y711199D02*
X726441Y712469D01*
X723902D01*
X722632Y711199D01*
Y706121D01*
X723902Y704851D01*
X726441D01*
X727710Y706121D01*
X735328Y712469D02*
X732789Y711199D01*
X730250Y708660D01*
Y706121D01*
X731519Y704851D01*
X734058D01*
X735328Y706121D01*
Y707390D01*
X734058Y708660D01*
X730250D01*
X689610Y711199D02*
X688341Y712469D01*
X685802D01*
X684532Y711199D01*
Y706121D01*
X685802Y704851D01*
X688341D01*
X689610Y706121D01*
X697228Y712469D02*
X692150D01*
Y708660D01*
X694689Y709930D01*
X695958D01*
X697228Y708660D01*
Y706121D01*
X695958Y704851D01*
X693419D01*
X692150Y706121D01*
X709930Y711199D02*
X708661Y712469D01*
X706122D01*
X704852Y711199D01*
Y706121D01*
X706122Y704851D01*
X708661D01*
X709930Y706121D01*
X712470D02*
X713739Y704851D01*
X716278D01*
X717548Y706121D01*
Y711199D01*
X716278Y712469D01*
X713739D01*
X712470Y711199D01*
Y709930D01*
X713739Y708660D01*
X717548D01*
X577852Y445769D02*
Y438151D01*
X581661D01*
X582930Y439421D01*
Y444499D01*
X581661Y445769D01*
X577852D01*
X585470Y444499D02*
X586739Y445769D01*
X589278D01*
X590548Y444499D01*
Y443230D01*
X589278Y441960D01*
X590548Y440690D01*
Y439421D01*
X589278Y438151D01*
X586739D01*
X585470Y439421D01*
Y440690D01*
X586739Y441960D01*
X585470Y443230D01*
Y444499D01*
X586739Y441960D02*
X589278D01*
X600712Y438151D02*
Y445769D01*
X604521D01*
X605790Y444499D01*
Y441960D01*
X604521Y440690D01*
X600712D01*
X603251D02*
X605790Y438151D01*
X613408D02*
X608330D01*
X613408Y443230D01*
Y444499D01*
X612138Y445769D01*
X609599D01*
X608330Y444499D01*
X629920Y560069D02*
X624842D01*
Y556260D01*
X627381D01*
X624842D01*
Y552451D01*
X632459D02*
X634998D01*
X633729D01*
Y560069D01*
X632459Y558799D01*
X652778Y694692D02*
X654047Y695961D01*
Y698500D01*
X652778Y699770D01*
X647700D01*
X646430Y698500D01*
Y695961D01*
X647700Y694692D01*
X650239D01*
Y697231D01*
X646430Y692152D02*
X654047D01*
X646430Y687074D01*
X654047D01*
Y684535D02*
X646430D01*
Y680726D01*
X647700Y679457D01*
X652778D01*
X654047Y680726D01*
Y684535D01*
X621030Y699770D02*
X626108D01*
Y695961D01*
X624839Y694692D01*
X621030D01*
Y692152D02*
X628647D01*
Y688344D01*
X627378Y687074D01*
X624839D01*
X623569Y688344D01*
Y692152D01*
Y689613D02*
X621030Y687074D01*
X628647Y679457D02*
Y684535D01*
X621030D01*
Y679457D01*
X624839Y684535D02*
Y681996D01*
X627378Y671839D02*
X628647Y673109D01*
Y675648D01*
X627378Y676917D01*
X626108D01*
X624839Y675648D01*
Y673109D01*
X623569Y671839D01*
X622300D01*
X621030Y673109D01*
Y675648D01*
X622300Y676917D01*
X628647Y664221D02*
Y669300D01*
X621030D01*
Y664221D01*
X624839Y669300D02*
Y666761D01*
X628647Y661682D02*
Y656604D01*
Y659143D01*
X621030D01*
X601978Y694692D02*
X603247Y695961D01*
Y698500D01*
X601978Y699770D01*
X600708D01*
X599439Y698500D01*
Y695961D01*
X598169Y694692D01*
X596900D01*
X595630Y695961D01*
Y698500D01*
X596900Y699770D01*
X603247Y692152D02*
X595630D01*
X598169Y689613D01*
X595630Y687074D01*
X603247D01*
Y684535D02*
X595630D01*
Y680726D01*
X596900Y679457D01*
X601978D01*
X603247Y680726D01*
Y684535D01*
X601978Y664221D02*
X603247Y665491D01*
Y668030D01*
X601978Y669300D01*
X596900D01*
X595630Y668030D01*
Y665491D01*
X596900Y664221D01*
X603247Y661682D02*
X595630D01*
Y656604D01*
X603247Y654065D02*
X595630D01*
X598169D01*
X603247Y648986D01*
X599439Y652795D01*
X595630Y648986D01*
X576578Y694692D02*
X577848Y695961D01*
Y698500D01*
X576578Y699770D01*
X575308D01*
X574039Y698500D01*
Y695961D01*
X572769Y694692D01*
X571500D01*
X570230Y695961D01*
Y698500D01*
X571500Y699770D01*
X577848Y692152D02*
X570230D01*
X572769Y689613D01*
X570230Y687074D01*
X577848D01*
Y684535D02*
X570230D01*
Y680726D01*
X571500Y679457D01*
X576578D01*
X577848Y680726D01*
Y684535D01*
Y669300D02*
X570230D01*
Y665491D01*
X571500Y664221D01*
X576578D01*
X577848Y665491D01*
Y669300D01*
Y661682D02*
Y659143D01*
Y660413D01*
X570230D01*
Y661682D01*
Y659143D01*
X577848Y651526D02*
Y654065D01*
X576578Y655334D01*
X571500D01*
X570230Y654065D01*
Y651526D01*
X571500Y650256D01*
X576578D01*
X577848Y651526D01*
X552448Y699770D02*
X547369D01*
X544830Y697231D01*
X547369Y694692D01*
X552448D01*
Y692152D02*
Y689613D01*
Y690883D01*
X544830D01*
Y692152D01*
Y689613D01*
Y685805D02*
X552448D01*
X544830Y680726D01*
X552448D01*
X527048Y699770D02*
X521969D01*
X519430Y697231D01*
X521969Y694692D01*
X527048D01*
X525778Y687074D02*
X527048Y688344D01*
Y690883D01*
X525778Y692152D01*
X520700D01*
X519430Y690883D01*
Y688344D01*
X520700Y687074D01*
X525778Y679457D02*
X527048Y680726D01*
Y683265D01*
X525778Y684535D01*
X520700D01*
X519430Y683265D01*
Y680726D01*
X520700Y679457D01*
X651510Y308610D02*
Y313688D01*
X655319D01*
X656588Y312419D01*
Y308610D01*
X659128D02*
Y316227D01*
X662936D01*
X664206Y314958D01*
Y312419D01*
X662936Y311149D01*
X659128D01*
X661667D02*
X664206Y308610D01*
X671823Y316227D02*
X666745D01*
Y308610D01*
X671823D01*
X666745Y312419D02*
X669284D01*
X679441Y314958D02*
X678171Y316227D01*
X675632D01*
X674363Y314958D01*
Y313688D01*
X675632Y312419D01*
X678171D01*
X679441Y311149D01*
Y309880D01*
X678171Y308610D01*
X675632D01*
X674363Y309880D01*
X687058Y316227D02*
X681980D01*
Y308610D01*
X687058D01*
X681980Y312419D02*
X684519D01*
X689598Y316227D02*
X694676D01*
X692137D01*
Y308610D01*
X742948Y314958D02*
X741679Y316227D01*
X739140D01*
X737870Y314958D01*
Y309880D01*
X739140Y308610D01*
X741679D01*
X742948Y309880D01*
Y312419D01*
X740409D01*
X745488Y308610D02*
Y316227D01*
X750566Y308610D01*
Y316227D01*
X753105D02*
Y308610D01*
X756914D01*
X758183Y309880D01*
Y314958D01*
X756914Y316227D01*
X753105D01*
X590552Y615949D02*
Y608331D01*
X594361D01*
X595630Y609601D01*
Y614679D01*
X594361Y615949D01*
X590552D01*
X603248D02*
X600709Y614679D01*
X598170Y612140D01*
Y609601D01*
X599439Y608331D01*
X601978D01*
X603248Y609601D01*
Y610870D01*
X601978Y612140D01*
X598170D01*
X506732Y402589D02*
Y394971D01*
X510541D01*
X511810Y396241D01*
Y401319D01*
X510541Y402589D01*
X506732D01*
X519428D02*
X514350D01*
Y398780D01*
X516889Y400050D01*
X518158D01*
X519428Y398780D01*
Y396241D01*
X518158Y394971D01*
X515619D01*
X514350Y396241D01*
X426722Y471169D02*
Y464821D01*
X427991Y463551D01*
X430530D01*
X431800Y464821D01*
Y471169D01*
X434339Y463551D02*
X436878D01*
X435609D01*
Y471169D01*
X434339Y469899D01*
X506732Y377189D02*
Y369571D01*
X510541D01*
X511810Y370841D01*
Y375919D01*
X510541Y377189D01*
X506732D01*
X518158Y369571D02*
Y377189D01*
X514350Y373380D01*
X519428D01*
X506732Y427989D02*
Y420371D01*
X510541D01*
X511810Y421641D01*
Y426719D01*
X510541Y427989D01*
X506732D01*
X514350Y426719D02*
X515619Y427989D01*
X518158D01*
X519428Y426719D01*
Y425450D01*
X518158Y424180D01*
X516889D01*
X518158D01*
X519428Y422910D01*
Y421641D01*
X518158Y420371D01*
X515619D01*
X514350Y421641D01*
X590552Y560069D02*
Y552451D01*
X594361D01*
X595630Y553721D01*
Y558799D01*
X594361Y560069D01*
X590552D01*
X603248Y552451D02*
X598170D01*
X603248Y557530D01*
Y558799D01*
X601978Y560069D01*
X599439D01*
X598170Y558799D01*
X591822Y588009D02*
Y580391D01*
X595630D01*
X596900Y581661D01*
Y586739D01*
X595630Y588009D01*
X591822D01*
X599439Y580391D02*
X601978D01*
X600709D01*
Y588009D01*
X599439Y586739D01*
X481330Y622299D02*
X480061Y623569D01*
X477522D01*
X476252Y622299D01*
Y617221D01*
X477522Y615951D01*
X480061D01*
X481330Y617221D01*
X487678Y615951D02*
Y623569D01*
X483870Y619760D01*
X488948D01*
X483870Y472439D02*
X482601Y473709D01*
X480062D01*
X478792Y472439D01*
Y467361D01*
X480062Y466091D01*
X482601D01*
X483870Y467361D01*
X486410Y472439D02*
X487679Y473709D01*
X490218D01*
X491488Y472439D01*
Y471170D01*
X490218Y469900D01*
X488949D01*
X490218D01*
X491488Y468630D01*
Y467361D01*
X490218Y466091D01*
X487679D01*
X486410Y467361D01*
X501650Y472439D02*
X500381Y473709D01*
X497842D01*
X496572Y472439D01*
Y467361D01*
X497842Y466091D01*
X500381D01*
X501650Y467361D01*
X509268Y466091D02*
X504190D01*
X509268Y471170D01*
Y472439D01*
X507998Y473709D01*
X505459D01*
X504190Y472439D01*
X469900Y589279D02*
X468630Y590549D01*
X466091D01*
X464822Y589279D01*
Y584201D01*
X466091Y582931D01*
X468630D01*
X469900Y584201D01*
X472439Y582931D02*
X474978D01*
X473709D01*
Y590549D01*
X472439Y589279D01*
D15*
X667090Y706410D02*
Y736310D01*
X506390Y706410D02*
X667090D01*
X506390D02*
Y736310D01*
X667090D01*
X344260Y625810D02*
X354260D01*
X349260Y620810D02*
Y630810D01*
M02*
