M48
;Layer_Color=9474304
;FILE_FORMAT=2:5
INCH,LZ
;TYPE=PLATED
T1F00S00C0.01200
T2F00S00C0.02756
T3F00S00C0.04016
T4F00S00C0.04500
T5F00S00C0.06693
T6F00S00C0.08268
T7F00S00C0.09843
;TYPE=NON_PLATED
T8F00S00C0.05118
%
T01
X0123Y0121
X013Y0135
X0147Y0154
X0167Y0152
X0166Y0137
X0188Y0129
X0205Y0132
X022Y0123
X0235Y0132
X0265
X0249Y0113
X031Y0117
X0311Y0154
X0212Y0153
X0161Y011
X0352Y013
X0378Y0133
X0392Y0152
X0343Y0153
X0373Y0177
X0391Y0188
X0392Y0239
X0346Y0253
X0358Y0269
X0369Y0291
X0304Y0293
X0312Y0269
X0307Y0252
X0268Y0238
X0273Y0217
X0245Y0229
X0219Y0209
X0203Y0208
Y0193
X0189Y0191
Y0206
X019Y0222
X0199Y0255
X0182Y0266
X0176Y0292
X024Y0294
X022Y0188
X0212Y0169
X0165Y0178
X0286Y0173
X0146Y0175
X0144Y0163
X0105
Y0168
Y0183
X0113Y021
X013Y0196
X0154Y0195
X0113Y0262
T02
X0319488Y0166141
X0324213
X0328937
X0333662
X0332087Y0172047
X0327362
X0322638
X0317914
X0316339Y0177952
X0321063
X0325788
X0330512
X0347047Y0191338
Y0196063
Y0200787
Y0205511
X0352953Y0207086
Y0202362
Y0197637
Y0192913
X0358859Y0194488
Y0199212
Y0203937
Y0208661
X0333662Y0222047
X0328937
X0324213
X0319488
X0317914Y0227952
X0322638
X0327362
X0332087
X0330512Y0233858
X0325788
X0321063
X0316339
X0302953Y0208661
Y0203937
Y0199212
Y0194488
X0297047Y0192913
Y0197637
Y0202362
Y0207086
X0291142Y0205511
Y0200787
Y0196063
Y0191338
T03
X0206Y0284
X0216
X0226
X0236
X0246
X0256
T04
X0231Y0157
X0241
X0244Y0198
X0234
T05
X0325Y02
T06
X0271851Y014685
X037815Y0253149
T07
X011Y011
X039
Y029
X011
T08
X0141441Y0235555
Y0257209
M30
