G04*
G04 #@! TF.GenerationSoftware,Altium Limited,Altium Designer,21.3.2 (30)*
G04*
G04 Layer_Color=8421504*
%FSLAX44Y44*%
%MOMM*%
G71*
G04*
G04 #@! TF.SameCoordinates,7BEB40AD-1A81-495B-ADFE-364E7EA3D76F*
G04*
G04*
G04 #@! TF.FilePolarity,Positive*
G04*
G01*
G75*
%ADD10C,0.2540*%
%ADD15C,0.0500*%
%ADD16R,0.6000X0.6000*%
%ADD17R,0.5000X0.7000*%
%ADD18R,0.5000X0.6000*%
%ADD19R,0.3100X0.5500*%
G04:AMPARAMS|DCode=20|XSize=1.6587mm|YSize=0.6268mm|CornerRadius=0.3134mm|HoleSize=0mm|Usage=FLASHONLY|Rotation=90.000|XOffset=0mm|YOffset=0mm|HoleType=Round|Shape=RoundedRectangle|*
%AMROUNDEDRECTD20*
21,1,1.6587,0.0000,0,0,90.0*
21,1,1.0319,0.6268,0,0,90.0*
1,1,0.6268,0.0000,0.5159*
1,1,0.6268,0.0000,-0.5159*
1,1,0.6268,0.0000,-0.5159*
1,1,0.6268,0.0000,0.5159*
%
%ADD20ROUNDEDRECTD20*%
%ADD21R,0.6268X1.6587*%
%ADD22R,0.8000X0.6000*%
%ADD23R,3.6500X2.0500*%
%ADD24R,3.0000X0.7000*%
%ADD25R,6.0400X3.4000*%
%ADD26R,2.7900X0.7400*%
D10*
X275499Y762000D02*
G03*
X254000Y740501I0J-21499D01*
G01*
Y275499D02*
G03*
X275499Y254000I21499J0D01*
G01*
X1016000Y740501D02*
G03*
X994501Y762000I-21499J0D01*
G01*
Y254000D02*
G03*
X1016000Y275499I0J21499D01*
G01*
X275499Y762000D02*
X994501D01*
X275499Y254000D02*
X994501D01*
X254000Y275499D02*
Y740501D01*
X1016000Y275499D02*
Y740501D01*
D15*
X667090Y706410D02*
Y736310D01*
X506390Y706410D02*
X667090D01*
X506390D02*
Y736310D01*
X667090D01*
X344260Y625810D02*
X354260D01*
X349260Y620810D02*
Y630810D01*
D16*
X746760Y736600D02*
D03*
Y726600D02*
D03*
X728980Y736520D02*
D03*
Y726520D02*
D03*
X690880Y736600D02*
D03*
Y726600D02*
D03*
X711200D02*
D03*
Y736600D02*
D03*
X502920Y447200D02*
D03*
Y457200D02*
D03*
X487680Y447200D02*
D03*
Y457200D02*
D03*
X482600Y597060D02*
D03*
Y607060D02*
D03*
X469900D02*
D03*
Y597060D02*
D03*
D17*
X589110Y429260D02*
D03*
X579610D02*
D03*
D18*
X612140D02*
D03*
X602140D02*
D03*
D19*
X618000Y556260D02*
D03*
X609600D02*
D03*
D20*
X455670Y476734D02*
D03*
X464820Y457200D02*
D03*
D21*
X446520D02*
D03*
D22*
X549040Y609600D02*
D03*
X574040D02*
D03*
X464820Y398780D02*
D03*
X489820D02*
D03*
X465220Y373380D02*
D03*
X490220D02*
D03*
X549040Y556260D02*
D03*
X574040D02*
D03*
X548640Y584200D02*
D03*
X573640D02*
D03*
X464820Y424180D02*
D03*
X489820D02*
D03*
D23*
X596900Y284480D02*
D03*
X444500D02*
D03*
X520700D02*
D03*
X673100D02*
D03*
X749300D02*
D03*
X368300D02*
D03*
D24*
X429260Y632060D02*
D03*
Y619560D02*
D03*
Y644560D02*
D03*
Y607060D02*
D03*
D25*
X365260Y557810D02*
D03*
Y693810D02*
D03*
D26*
X332800Y414020D02*
D03*
Y426720D02*
D03*
Y439420D02*
D03*
Y464820D02*
D03*
X292100Y414020D02*
D03*
Y426720D02*
D03*
Y439420D02*
D03*
Y452120D02*
D03*
Y464820D02*
D03*
M02*
