G04*
G04 #@! TF.GenerationSoftware,Altium Limited,Altium Designer,21.3.2 (30)*
G04*
G04 Layer_Color=16711935*
%FSLAX44Y44*%
%MOMM*%
G71*
G04*
G04 #@! TF.SameCoordinates,7BEB40AD-1A81-495B-ADFE-364E7EA3D76F*
G04*
G04*
G04 #@! TF.FilePolarity,Negative*
G04*
G01*
G75*
%ADD10C,0.2540*%
%ADD15C,0.0500*%
%ADD33C,2.7531*%
%ADD34C,3.3533*%
%ADD35C,1.2032*%
%ADD36R,1.7532X1.7532*%
%ADD37C,1.7532*%
%ADD38C,1.5032*%
%ADD39C,2.1082*%
%ADD40C,4.2032*%
%ADD41C,0.8382*%
D10*
X275499Y762000D02*
G03*
X254000Y740501I0J-21499D01*
G01*
Y275499D02*
G03*
X275499Y254000I21499J0D01*
G01*
X1016000Y740501D02*
G03*
X994501Y762000I-21499J0D01*
G01*
Y254000D02*
G03*
X1016000Y275499I0J21499D01*
G01*
X275499Y762000D02*
X994501D01*
X275499Y254000D02*
X994501D01*
X254000Y275499D02*
Y740501D01*
X1016000Y275499D02*
Y740501D01*
D15*
X667090Y706410D02*
Y736310D01*
X506390Y706410D02*
X667090D01*
X506390D02*
Y736310D01*
X667090D01*
X344260Y625810D02*
X354260D01*
X349260Y620810D02*
Y630810D01*
D33*
X825500Y508000D02*
D03*
D34*
X960501Y642999D02*
D03*
X690501Y372999D02*
D03*
D35*
X803501Y593999D02*
D03*
X807502Y578998D02*
D03*
X811499Y563999D02*
D03*
X815500Y593999D02*
D03*
X819501Y578998D02*
D03*
X823501Y563999D02*
D03*
X827502Y593999D02*
D03*
X831499Y578998D02*
D03*
X835500Y563999D02*
D03*
X839501Y593999D02*
D03*
X843501Y578998D02*
D03*
X847502Y563999D02*
D03*
X911502Y529999D02*
D03*
X896501Y525998D02*
D03*
X881499Y521998D02*
D03*
X911502Y518000D02*
D03*
X896501Y513999D02*
D03*
X881499Y509999D02*
D03*
X911502Y505998D02*
D03*
X896501Y501998D02*
D03*
X881499Y498000D02*
D03*
X911502Y493999D02*
D03*
X896501Y489999D02*
D03*
X881499Y485998D02*
D03*
X847502Y421998D02*
D03*
X843501Y436999D02*
D03*
X839501Y451998D02*
D03*
X835500Y421998D02*
D03*
X831499Y436999D02*
D03*
X827502Y451998D02*
D03*
X823501Y421998D02*
D03*
X819501Y436999D02*
D03*
X815500Y451998D02*
D03*
X811499Y421998D02*
D03*
X807502Y436999D02*
D03*
X803501Y451998D02*
D03*
X739501Y485998D02*
D03*
X754499Y489999D02*
D03*
X769501Y493999D02*
D03*
X739501Y498000D02*
D03*
X754499Y501998D02*
D03*
X769501Y505998D02*
D03*
X739501Y509999D02*
D03*
X754499Y513999D02*
D03*
X769501Y518000D02*
D03*
X739501Y521998D02*
D03*
X754499Y525998D02*
D03*
X769501Y529999D02*
D03*
D36*
X523240Y721360D02*
D03*
D37*
X548640D02*
D03*
X574040D02*
D03*
X599440D02*
D03*
X624840D02*
D03*
X650240D02*
D03*
D38*
X359260Y653310D02*
D03*
Y598310D02*
D03*
D39*
X594360Y502920D02*
D03*
X619760D02*
D03*
X612140Y398780D02*
D03*
X586740D02*
D03*
D40*
X279400Y279400D02*
D03*
Y736600D02*
D03*
X990600D02*
D03*
Y279400D02*
D03*
D41*
X772160Y744220D02*
D03*
X937260Y739140D02*
D03*
X909320Y683260D02*
D03*
X792480D02*
D03*
X408940Y279400D02*
D03*
X312420Y307340D02*
D03*
X287020Y665480D02*
D03*
X462280Y675640D02*
D03*
X330200Y497840D02*
D03*
X287020Y533400D02*
D03*
X330200Y342900D02*
D03*
X373380Y391160D02*
D03*
X370840Y444500D02*
D03*
X391160Y495300D02*
D03*
X480060Y523240D02*
D03*
Y485140D02*
D03*
X419100Y452120D02*
D03*
X424180Y386080D02*
D03*
X421640Y347980D02*
D03*
X538480Y388620D02*
D03*
X477520Y327660D02*
D03*
X558800Y312420D02*
D03*
X632460Y287020D02*
D03*
X787400Y297180D02*
D03*
X894080Y330200D02*
D03*
X960120Y337820D02*
D03*
X995680Y386080D02*
D03*
X993140Y477520D02*
D03*
X995680Y607060D02*
D03*
X947420Y449580D02*
D03*
X871220Y388620D02*
D03*
X789940Y391160D02*
D03*
X726440Y439420D02*
D03*
X693420Y551180D02*
D03*
X680720Y604520D02*
D03*
X609600Y746760D02*
D03*
X447040Y741680D02*
D03*
X505460Y647700D02*
D03*
X482600Y563880D02*
D03*
X622300Y581660D02*
D03*
X556260Y530860D02*
D03*
X558800Y477520D02*
D03*
X538480Y429260D02*
D03*
X779780Y640080D02*
D03*
X878840Y642620D02*
D03*
X266700Y426720D02*
D03*
X520700Y335280D02*
D03*
X596900D02*
D03*
X673100D02*
D03*
X515620Y528320D02*
D03*
X266700Y464820D02*
D03*
Y414020D02*
D03*
X515620Y490220D02*
D03*
X365760Y414020D02*
D03*
M02*
