  0
SECTION
  2
HEADER
  9
$EXTMIN
 10
-0.005000
 20
-0.005000
  9
$EXTMAX
 10
2.165000
 20
0.695000
  9
$LIMMIN
 10
-0.005000
 20
-0.005000
  9
$LIMMAX
 10
2.165000
 20
0.695000
  9
$FILLMODE
 70
  1
  0
ENDSEC
  0
SECTION
  2
TABLES
  0
TABLE
  2
LTYPE
 70
  1
  0
LTYPE
  2
CONTINUOUS
 70
 64
  3
Solid line
 72
 65
 73
  0
 40
0.0
  0
ENDTAB
  0
TABLE
  2
LAYER
 70
 1
  0
LAYER
  2
0
 70
  0
 62
7
  6
CONTINUOUS
  0
LAYER
  2
gtp
 70
  0
 62
8
  6
CONTINUOUS
  0
ENDTAB
  0
TABLE
  2
STYLE
 70
  1
  0
STYLE
  2
STANDARD
 70
  0
 40
0.0
 41
1.0
 50
0.0
 71
  0
 42
0.2
  3
txt
  4

  0
ENDTAB
  0
ENDSEC
  0
SECTION
  2
BLOCKS
  0
BLOCK
  8
0
  2
D10
 70
64
 10
0.0
 20
0.0
  3
D10
  0
CIRCLE
  8
0
 10
0.000000
 20
0.000000
 40
0.005000
 0
ENDBLK
  8
0
  0
BLOCK
  8
0
  2
D20
 70
64
 10
0.0
 20
0.0
  3
D20
  0
POLYLINE
  8
0
 66
1
 10
0.0
 20
0.0
 70
1
 40
0.0
 41
0.0
  0
VERTEX
  8
0
 10
-0.005845
 20
-0.015355
  0
VERTEX
  8
0
 10
0.005845
 20
-0.015355
  0
VERTEX
  8
0
 10
0.005845
 20
0.015355
  0
VERTEX
  8
0
 10
-0.005845
 20
0.015355
  0
SEQEND
  8
0
 0
ENDBLK
  8
0
  0
BLOCK
  8
0
  2
D21
 70
64
 10
0.0
 20
0.0
  3
D21
  0
POLYLINE
  8
0
 66
1
 10
0.0
 20
0.0
 70
1
 40
0.0
 41
0.0
  0
VERTEX
  8
0
 10
-0.026140
 20
-0.018050
  0
VERTEX
  8
0
 10
0.026140
 20
-0.018050
  0
VERTEX
  8
0
 10
0.026140
 20
0.018050
  0
VERTEX
  8
0
 10
-0.026140
 20
0.018050
  0
SEQEND
  8
0
 0
ENDBLK
  8
0
  0
BLOCK
  8
0
  2
D22
 70
64
 10
0.0
 20
0.0
  3
D22
  0
POLYLINE
  8
0
 66
1
 10
0.0
 20
0.0
 70
1
 40
0.0
 41
0.0
  0
VERTEX
  8
0
 10
-0.011810
 20
-0.011810
  0
VERTEX
  8
0
 10
0.011810
 20
-0.011810
  0
VERTEX
  8
0
 10
0.011810
 20
0.011810
  0
VERTEX
  8
0
 10
-0.011810
 20
0.011810
  0
SEQEND
  8
0
 0
ENDBLK
  8
0
  0
BLOCK
  8
0
  2
D23
 70
64
 10
0.0
 20
0.0
  3
D23
  0
POLYLINE
  8
0
 66
1
 10
0.0
 20
0.0
 70
1
 40
0.0
 41
0.0
  0
VERTEX
  8
0
 10
-0.011810
 20
-0.011810
  0
VERTEX
  8
0
 10
0.011810
 20
-0.011810
  0
VERTEX
  8
0
 10
0.011810
 20
0.011810
  0
VERTEX
  8
0
 10
-0.011810
 20
0.011810
  0
SEQEND
  8
0
 0
ENDBLK
  8
0
  0
BLOCK
  8
0
  2
D24
 70
64
 10
0.0
 20
0.0
  3
D24
  0
POLYLINE
  8
0
 66
1
 10
0.0
 20
0.0
 70
1
 40
0.0
 41
0.0
  0
VERTEX
  8
0
 10
-0.009840
 20
-0.011810
  0
VERTEX
  8
0
 10
0.009840
 20
-0.011810
  0
VERTEX
  8
0
 10
0.009840
 20
0.011810
  0
VERTEX
  8
0
 10
-0.009840
 20
0.011810
  0
SEQEND
  8
0
 0
ENDBLK
  8
0
  0
BLOCK
  8
0
  2
D25
 70
64
 10
0.0
 20
0.0
  3
D25
  0
POLYLINE
  8
0
 66
1
 10
0.0
 20
0.0
 70
1
 40
0.0
 41
0.0
  0
VERTEX
  8
0
 10
-0.011810
 20
-0.009840
  0
VERTEX
  8
0
 10
0.011810
 20
-0.009840
  0
VERTEX
  8
0
 10
0.011810
 20
0.009840
  0
VERTEX
  8
0
 10
-0.011810
 20
0.009840
  0
SEQEND
  8
0
 0
ENDBLK
  8
0
  0
BLOCK
  8
0
  2
D26
 70
64
 10
0.0
 20
0.0
  3
D26
  0
POLYLINE
  8
0
 66
1
 10
0.0
 20
0.0
 40
0
 41
0
 70
1
  0
VERTEX
  8
0
 10
-0.002700
 20
-0.011800
 42
0
  0
VERTEX
  8
0
 10
0.002700
 20
-0.011800
 42
0
  0
VERTEX
  8
0
 10
0.004700
 20
-0.009800
 42
0
  0
VERTEX
  8
0
 10
0.004700
 20
0.009800
 42
0
  0
VERTEX
  8
0
 10
0.002700
 20
0.011800
 42
0
  0
VERTEX
  8
0
 10
-0.002700
 20
0.011800
 42
0
  0
VERTEX
  8
0
 10
-0.004700
 20
0.009800
 42
0
  0
VERTEX
  8
0
 10
-0.004700
 20
-0.009800
 42
0
  0
SEQEND
  8
0
  0
CIRCLE
  8
0
 10
-0.002700
 20
-0.009800
 40
0.001980
  0
CIRCLE
  8
0
 10
0.002700
 20
-0.009800
 40
0.001980
  0
CIRCLE
  8
0
 10
0.002700
 20
0.009800
 40
0.001980
  0
CIRCLE
  8
0
 10
-0.002700
 20
0.009800
 40
0.001980
 0
ENDBLK
  8
0
  0
BLOCK
  8
0
  2
D27
 70
64
 10
0.0
 20
0.0
  3
D27
  0
POLYLINE
  8
0
 66
1
 10
0.0
 20
0.0
 40
0
 41
0
 70
1
  0
VERTEX
  8
0
 10
-0.011800
 20
0.002700
 42
0
  0
VERTEX
  8
0
 10
-0.011800
 20
-0.002700
 42
0
  0
VERTEX
  8
0
 10
-0.009800
 20
-0.004700
 42
0
  0
VERTEX
  8
0
 10
0.009800
 20
-0.004700
 42
0
  0
VERTEX
  8
0
 10
0.011800
 20
-0.002700
 42
0
  0
VERTEX
  8
0
 10
0.011800
 20
0.002700
 42
0
  0
VERTEX
  8
0
 10
0.009800
 20
0.004700
 42
0
  0
VERTEX
  8
0
 10
-0.009800
 20
0.004700
 42
0
  0
SEQEND
  8
0
  0
CIRCLE
  8
0
 10
-0.009800
 20
0.002700
 40
0.001980
  0
CIRCLE
  8
0
 10
-0.009800
 20
-0.002700
 40
0.001980
  0
CIRCLE
  8
0
 10
0.009800
 20
-0.002700
 40
0.001980
  0
CIRCLE
  8
0
 10
0.009800
 20
0.002700
 40
0.001980
 0
ENDBLK
  8
0
  0
BLOCK
  8
0
  2
D28
 70
64
 10
0.0
 20
0.0
  3
D28
  0
POLYLINE
  8
0
 66
1
 10
0.0
 20
0.0
 70
1
 40
0.0
 41
0.0
  0
VERTEX
  8
0
 10
-0.009840
 20
-0.013780
  0
VERTEX
  8
0
 10
0.009840
 20
-0.013780
  0
VERTEX
  8
0
 10
0.009840
 20
0.013780
  0
VERTEX
  8
0
 10
-0.009840
 20
0.013780
  0
SEQEND
  8
0
 0
ENDBLK
  8
0
  0
BLOCK
  8
0
  2
D29
 70
64
 10
0.0
 20
0.0
  3
D29
  0
CIRCLE
  8
0
 10
0.000000
 20
0.000000
 40
0.004530
 0
ENDBLK
  8
0
  0
BLOCK
  8
0
  2
D30
 70
64
 10
0.0
 20
0.0
  3
D30
  0
POLYLINE
  8
0
 66
1
 10
0.0
 20
0.0
 70
1
 40
0.0
 41
0.0
  0
VERTEX
  8
0
 10
-0.090550
 20
-0.090550
  0
VERTEX
  8
0
 10
0.090550
 20
-0.090550
  0
VERTEX
  8
0
 10
0.090550
 20
0.090550
  0
VERTEX
  8
0
 10
-0.090550
 20
0.090550
  0
SEQEND
  8
0
 0
ENDBLK
  8
0
  0
BLOCK
  8
0
  2
D31
 70
64
 10
0.0
 20
0.0
  3
D31
  0
POLYLINE
  8
0
 66
1
 10
0.0
 20
0.0
 40
0
 41
0
 70
1
  0
VERTEX
  8
0
 10
0.003900
 20
0.014700
 42
0
  0
VERTEX
  8
0
 10
-0.003900
 20
0.014700
 42
0
  0
VERTEX
  8
0
 10
-0.003900
 20
-0.014700
 42
0
  0
VERTEX
  8
0
 10
0.003900
 20
-0.014700
 42
0
  0
SEQEND
  8
0
  0
CIRCLE
  8
0
 10
0.000000
 20
0.014700
 40
0.003935
  0
CIRCLE
  8
0
 10
0.000000
 20
-0.014700
 40
0.003935
 0
ENDBLK
  8
0
  0
BLOCK
  8
0
  2
D32
 70
64
 10
0.0
 20
0.0
  3
D32
  0
POLYLINE
  8
0
 66
1
 10
0.0
 20
0.0
 40
0
 41
0
 70
1
  0
VERTEX
  8
0
 10
0.014700
 20
0.003900
 42
0
  0
VERTEX
  8
0
 10
-0.014700
 20
0.003900
 42
0
  0
VERTEX
  8
0
 10
-0.014700
 20
-0.003900
 42
0
  0
VERTEX
  8
0
 10
0.014700
 20
-0.003900
 42
0
  0
SEQEND
  8
0
  0
CIRCLE
  8
0
 10
-0.014700
 20
0.000000
 40
0.003935
  0
CIRCLE
  8
0
 10
0.014700
 20
0.000000
 40
0.003935
 0
ENDBLK
  8
0
  0
BLOCK
  8
0
  2
D33
 70
64
 10
0.0
 20
0.0
  3
D33
  0
POLYLINE
  8
0
 66
1
 10
0.0
 20
0.0
 40
0
 41
0
 70
1
  0
VERTEX
  8
0
 10
0.018700
 20
0.037500
 42
0
  0
VERTEX
  8
0
 10
-0.018700
 20
0.037500
 42
0
  0
VERTEX
  8
0
 10
-0.037500
 20
0.018700
 42
0
  0
VERTEX
  8
0
 10
-0.037500
 20
-0.018700
 42
0
  0
VERTEX
  8
0
 10
-0.018700
 20
-0.037500
 42
0
  0
VERTEX
  8
0
 10
0.018700
 20
-0.037500
 42
0
  0
VERTEX
  8
0
 10
0.037500
 20
-0.018700
 42
0
  0
VERTEX
  8
0
 10
0.037500
 20
0.018700
 42
0
  0
SEQEND
  8
0
  0
CIRCLE
  8
0
 10
0.018700
 20
0.018700
 40
0.018750
  0
CIRCLE
  8
0
 10
-0.018700
 20
0.018700
 40
0.018750
  0
CIRCLE
  8
0
 10
-0.018700
 20
-0.018700
 40
0.018750
  0
CIRCLE
  8
0
 10
0.018700
 20
-0.018700
 40
0.018750
 0
ENDBLK
  8
0
  0
BLOCK
  8
0
  2
D34
 70
64
 10
0.0
 20
0.0
  3
D34
  0
POLYLINE
  8
0
 66
1
 10
0.0
 20
0.0
 40
0
 41
0
 70
1
  0
VERTEX
  8
0
 10
-0.018200
 20
-0.005300
 42
0
  0
VERTEX
  8
0
 10
0.018200
 20
-0.005300
 42
0
  0
VERTEX
  8
0
 10
0.019500
 20
-0.004000
 42
0
  0
VERTEX
  8
0
 10
0.019500
 20
0.004000
 42
0
  0
VERTEX
  8
0
 10
0.018200
 20
0.005300
 42
0
  0
VERTEX
  8
0
 10
-0.018200
 20
0.005300
 42
0
  0
VERTEX
  8
0
 10
-0.019500
 20
0.004000
 42
0
  0
VERTEX
  8
0
 10
-0.019500
 20
-0.004000
 42
0
  0
SEQEND
  8
0
  0
CIRCLE
  8
0
 10
-0.018200
 20
-0.004000
 40
0.001330
  0
CIRCLE
  8
0
 10
0.018200
 20
-0.004000
 40
0.001330
  0
CIRCLE
  8
0
 10
0.018200
 20
0.004000
 40
0.001330
  0
CIRCLE
  8
0
 10
-0.018200
 20
0.004000
 40
0.001330
 0
ENDBLK
  8
0
  0
BLOCK
  8
0
  2
D35
 70
64
 10
0.0
 20
0.0
  3
D35
  0
POLYLINE
  8
0
 66
1
 10
0.0
 20
0.0
 40
0
 41
0
 70
1
  0
VERTEX
  8
0
 10
0.005300
 20
-0.018200
 42
0
  0
VERTEX
  8
0
 10
0.005300
 20
0.018200
 42
0
  0
VERTEX
  8
0
 10
0.004000
 20
0.019500
 42
0
  0
VERTEX
  8
0
 10
-0.004000
 20
0.019500
 42
0
  0
VERTEX
  8
0
 10
-0.005300
 20
0.018200
 42
0
  0
VERTEX
  8
0
 10
-0.005300
 20
-0.018200
 42
0
  0
VERTEX
  8
0
 10
-0.004000
 20
-0.019500
 42
0
  0
VERTEX
  8
0
 10
0.004000
 20
-0.019500
 42
0
  0
SEQEND
  8
0
  0
CIRCLE
  8
0
 10
0.004000
 20
-0.018200
 40
0.001330
  0
CIRCLE
  8
0
 10
0.004000
 20
0.018200
 40
0.001330
  0
CIRCLE
  8
0
 10
-0.004000
 20
0.018200
 40
0.001330
  0
CIRCLE
  8
0
 10
-0.004000
 20
-0.018200
 40
0.001330
 0
ENDBLK
  8
0
  0
BLOCK
  8
0
  2
D36
 70
64
 10
0.0
 20
0.0
  3
D36
  0
POLYLINE
  8
0
 66
1
 10
0.0
 20
0.0
 70
1
 40
0.0
 41
0.0
  0
VERTEX
  8
0
 10
-0.015750
 20
-0.017715
  0
VERTEX
  8
0
 10
0.015750
 20
-0.017715
  0
VERTEX
  8
0
 10
0.015750
 20
0.017715
  0
VERTEX
  8
0
 10
-0.015750
 20
0.017715
  0
SEQEND
  8
0
 0
ENDBLK
  8
0
  0
BLOCK
  8
0
  2
D37
 70
64
 10
0.0
 20
0.0
  3
D37
  0
POLYLINE
  8
0
 66
1
 10
0.0
 20
0.0
 40
0
 41
0
 70
1
  0
VERTEX
  8
0
 10
-0.010900
 20
-0.023600
 42
0
  0
VERTEX
  8
0
 10
0.010900
 20
-0.023600
 42
0
  0
VERTEX
  8
0
 10
0.012800
 20
-0.021700
 42
0
  0
VERTEX
  8
0
 10
0.012800
 20
0.021700
 42
0
  0
VERTEX
  8
0
 10
0.010900
 20
0.023600
 42
0
  0
VERTEX
  8
0
 10
-0.010900
 20
0.023600
 42
0
  0
VERTEX
  8
0
 10
-0.012800
 20
0.021700
 42
0
  0
VERTEX
  8
0
 10
-0.012800
 20
-0.021700
 42
0
  0
SEQEND
  8
0
  0
CIRCLE
  8
0
 10
-0.010900
 20
-0.021700
 40
0.001920
  0
CIRCLE
  8
0
 10
0.010900
 20
-0.021700
 40
0.001920
  0
CIRCLE
  8
0
 10
0.010900
 20
0.021700
 40
0.001920
  0
CIRCLE
  8
0
 10
-0.010900
 20
0.021700
 40
0.001920
 0
ENDBLK
  8
0
  0
BLOCK
  8
0
  2
D38
 70
64
 10
0.0
 20
0.0
  3
D38
  0
POLYLINE
  8
0
 66
1
 10
0.0
 20
0.0
 70
1
 40
0.0
 41
0.0
  0
VERTEX
  8
0
 10
-0.008860
 20
-0.005905
  0
VERTEX
  8
0
 10
0.008860
 20
-0.005905
  0
VERTEX
  8
0
 10
0.008860
 20
0.005905
  0
VERTEX
  8
0
 10
-0.008860
 20
0.005905
  0
SEQEND
  8
0
 0
ENDBLK
  8
0
  0
BLOCK
  8
0
  2
D39
 70
64
 10
0.0
 20
0.0
  3
D39
  0
POLYLINE
  8
0
 66
1
 10
0.0
 20
0.0
 40
0
 41
0
 70
1
  0
VERTEX
  8
0
 10
0.006900
 20
0.005900
 42
0
  0
VERTEX
  8
0
 10
-0.006900
 20
0.005900
 42
0
  0
VERTEX
  8
0
 10
-0.008900
 20
0.004000
 42
0
  0
VERTEX
  8
0
 10
-0.008900
 20
-0.004000
 42
0
  0
VERTEX
  8
0
 10
-0.006900
 20
-0.005900
 42
0
  0
VERTEX
  8
0
 10
0.006900
 20
-0.005900
 42
0
  0
VERTEX
  8
0
 10
0.008900
 20
-0.004000
 42
0
  0
VERTEX
  8
0
 10
0.008900
 20
0.004000
 42
0
  0
SEQEND
  8
0
  0
CIRCLE
  8
0
 10
0.006900
 20
0.004000
 40
0.001950
  0
CIRCLE
  8
0
 10
-0.006900
 20
0.004000
 40
0.001950
  0
CIRCLE
  8
0
 10
-0.006900
 20
-0.004000
 40
0.001950
  0
CIRCLE
  8
0
 10
0.006900
 20
-0.004000
 40
0.001950
 0
ENDBLK
  8
0
  0
BLOCK
  8
0
  2
D40
 70
64
 10
0.0
 20
0.0
  3
D40
  0
CIRCLE
  8
0
 10
0.000000
 20
0.000000
 40
0.007085
 0
ENDBLK
  8
0
  0
BLOCK
  8
0
  2
D41
 70
64
 10
0.0
 20
0.0
  3
D41
  0
CIRCLE
  8
0
 10
0.000000
 20
0.000000
 40
0.015490
 0
ENDBLK
  8
0
  0
BLOCK
  8
0
  2
D42
 70
64
 10
0.0
 20
0.0
  3
D42
  0
POLYLINE
  8
0
 66
1
 10
0.0
 20
0.0
 40
0
 41
0
 70
1
  0
VERTEX
  8
0
 10
0.009800
 20
0.019700
 42
0
  0
VERTEX
  8
0
 10
-0.009800
 20
0.019700
 42
0
  0
VERTEX
  8
0
 10
-0.011800
 20
0.017700
 42
0
  0
VERTEX
  8
0
 10
-0.011800
 20
-0.017700
 42
0
  0
VERTEX
  8
0
 10
-0.009800
 20
-0.019700
 42
0
  0
VERTEX
  8
0
 10
0.009800
 20
-0.019700
 42
0
  0
VERTEX
  8
0
 10
0.011800
 20
-0.017700
 42
0
  0
VERTEX
  8
0
 10
0.011800
 20
0.017700
 42
0
  0
SEQEND
  8
0
  0
CIRCLE
  8
0
 10
0.009800
 20
0.017700
 40
0.002010
  0
CIRCLE
  8
0
 10
-0.009800
 20
0.017700
 40
0.002010
  0
CIRCLE
  8
0
 10
-0.009800
 20
-0.017700
 40
0.002010
  0
CIRCLE
  8
0
 10
0.009800
 20
-0.017700
 40
0.002010
 0
ENDBLK
  8
0
  0
BLOCK
  8
0
  2
D43
 70
64
 10
0.0
 20
0.0
  3
D43
  0
POLYLINE
  8
0
 66
1
 10
0.0
 20
0.0
 40
0
 41
0
 70
1
  0
VERTEX
  8
0
 10
-0.023600
 20
-0.011800
 42
0
  0
VERTEX
  8
0
 10
0.023600
 20
-0.011800
 42
0
  0
VERTEX
  8
0
 10
0.025600
 20
-0.009800
 42
0
  0
VERTEX
  8
0
 10
0.025600
 20
0.009800
 42
0
  0
VERTEX
  8
0
 10
0.023600
 20
0.011800
 42
0
  0
VERTEX
  8
0
 10
-0.023600
 20
0.011800
 42
0
  0
VERTEX
  8
0
 10
-0.025600
 20
0.009800
 42
0
  0
VERTEX
  8
0
 10
-0.025600
 20
-0.009800
 42
0
  0
SEQEND
  8
0
  0
CIRCLE
  8
0
 10
-0.023600
 20
-0.009800
 40
0.002010
  0
CIRCLE
  8
0
 10
0.023600
 20
-0.009800
 40
0.002010
  0
CIRCLE
  8
0
 10
0.023600
 20
0.009800
 40
0.002010
  0
CIRCLE
  8
0
 10
-0.023600
 20
0.009800
 40
0.002010
 0
ENDBLK
  8
0
  0
BLOCK
  8
0
  2
D44
 70
64
 10
0.0
 20
0.0
  3
D44
  0
POLYLINE
  8
0
 66
1
 10
0.0
 20
0.0
 70
1
 40
0.0
 41
0.0
  0
VERTEX
  8
0
 10
-0.029530
 20
-0.014565
  0
VERTEX
  8
0
 10
0.029530
 20
-0.014565
  0
VERTEX
  8
0
 10
0.029530
 20
0.014565
  0
VERTEX
  8
0
 10
-0.029530
 20
0.014565
  0
SEQEND
  8
0
 0
ENDBLK
  8
0
  0
BLOCK
  8
0
  2
D45
 70
64
 10
0.0
 20
0.0
  3
D45
  0
POLYLINE
  8
0
 66
1
 10
0.0
 20
0.0
 70
1
 40
0.0
 41
0.0
  0
VERTEX
  8
0
 10
-0.012500
 20
-0.020000
  0
VERTEX
  8
0
 10
0.012500
 20
-0.020000
  0
VERTEX
  8
0
 10
0.012500
 20
0.020000
  0
VERTEX
  8
0
 10
-0.012500
 20
0.020000
  0
SEQEND
  8
0
 0
ENDBLK
  8
0
  0
BLOCK
  8
0
  2
D46
 70
64
 10
0.0
 20
0.0
  3
D46
  0
POLYLINE
  8
0
 66
1
 10
0.0
 20
0.0
 70
1
 40
0.0
 41
0.0
  0
VERTEX
  8
0
 10
-0.011810
 20
-0.013780
  0
VERTEX
  8
0
 10
0.011810
 20
-0.013780
  0
VERTEX
  8
0
 10
0.011810
 20
0.013780
  0
VERTEX
  8
0
 10
-0.011810
 20
0.013780
  0
SEQEND
  8
0
 0
ENDBLK
  8
0
  0
BLOCK
  8
0
  2
D1010
 70
64
 10
0.0
 20
0.0
  3
D1010
 0
ENDBLK
  8
0
  0
ENDSEC
  0
SECTION
  2
ENTITIES
  0
POLYLINE
  8
gtp
 62
8
 40
0.000000
 41
0.000000
 66
  1
  0
VERTEX
  8
gtp
 10
0.733700
 20
0.069680
  0
VERTEX
  8
gtp
 10
0.733700
 20
0.070080
  0
VERTEX
  8
gtp
 10
0.734000
 20
0.070800
  0
VERTEX
  8
gtp
 10
0.734550
 20
0.071350
  0
VERTEX
  8
gtp
 10
0.735280
 20
0.071650
  0
VERTEX
  8
gtp
 10
0.735670
 20
0.071650
  0
VERTEX
  8
gtp
 10
0.735670
 20
0.071650
  0
VERTEX
  8
gtp
 10
0.771100
 20
0.071650
  0
VERTEX
  8
gtp
 10
0.771490
 20
0.071650
  0
VERTEX
  8
gtp
 10
0.772220
 20
0.071350
  0
VERTEX
  8
gtp
 10
0.772770
 20
0.070800
  0
VERTEX
  8
gtp
 10
0.773070
 20
0.070080
  0
VERTEX
  8
gtp
 10
0.773070
 20
0.069680
  0
VERTEX
  8
gtp
 10
0.773070
 20
0.069680
  0
VERTEX
  8
gtp
 10
0.773070
 20
0.046060
  0
VERTEX
  8
gtp
 10
0.773070
 20
0.045670
  0
VERTEX
  8
gtp
 10
0.772770
 20
0.044950
  0
VERTEX
  8
gtp
 10
0.772220
 20
0.044390
  0
VERTEX
  8
gtp
 10
0.771490
 20
0.044090
  0
VERTEX
  8
gtp
 10
0.771100
 20
0.044090
  0
VERTEX
  8
gtp
 10
0.771100
 20
0.044090
  0
VERTEX
  8
gtp
 10
0.735670
 20
0.044090
  0
VERTEX
  8
gtp
 10
0.735280
 20
0.044090
  0
VERTEX
  8
gtp
 10
0.734550
 20
0.044390
  0
VERTEX
  8
gtp
 10
0.734000
 20
0.044950
  0
VERTEX
  8
gtp
 10
0.733700
 20
0.045670
  0
VERTEX
  8
gtp
 10
0.733700
 20
0.046060
  0
VERTEX
  8
gtp
 10
0.733700
 20
0.046060
  0
VERTEX
  8
gtp
 10
0.733700
 20
0.069680
  0
SEQEND
  8
gtp
  0
POLYLINE
  8
gtp
 62
8
 40
0.000000
 41
0.000000
 66
  1
  0
VERTEX
  8
gtp
 10
0.771100
 20
0.107090
  0
VERTEX
  8
gtp
 10
0.771490
 20
0.107090
  0
VERTEX
  8
gtp
 10
0.772220
 20
0.106790
  0
VERTEX
  8
gtp
 10
0.772770
 20
0.106230
  0
VERTEX
  8
gtp
 10
0.773070
 20
0.105510
  0
VERTEX
  8
gtp
 10
0.773070
 20
0.105120
  0
VERTEX
  8
gtp
 10
0.773070
 20
0.105120
  0
VERTEX
  8
gtp
 10
0.773070
 20
0.081500
  0
VERTEX
  8
gtp
 10
0.773070
 20
0.081110
  0
VERTEX
  8
gtp
 10
0.772770
 20
0.080380
  0
VERTEX
  8
gtp
 10
0.772220
 20
0.079830
  0
VERTEX
  8
gtp
 10
0.771490
 20
0.079530
  0
VERTEX
  8
gtp
 10
0.771100
 20
0.079530
  0
VERTEX
  8
gtp
 10
0.771100
 20
0.079530
  0
VERTEX
  8
gtp
 10
0.735670
 20
0.079530
  0
VERTEX
  8
gtp
 10
0.735280
 20
0.079530
  0
VERTEX
  8
gtp
 10
0.734550
 20
0.079830
  0
VERTEX
  8
gtp
 10
0.734000
 20
0.080380
  0
VERTEX
  8
gtp
 10
0.733700
 20
0.081110
  0
VERTEX
  8
gtp
 10
0.733700
 20
0.081500
  0
VERTEX
  8
gtp
 10
0.733700
 20
0.081500
  0
VERTEX
  8
gtp
 10
0.733700
 20
0.105120
  0
VERTEX
  8
gtp
 10
0.733700
 20
0.105510
  0
VERTEX
  8
gtp
 10
0.734000
 20
0.106230
  0
VERTEX
  8
gtp
 10
0.734550
 20
0.106790
  0
VERTEX
  8
gtp
 10
0.735280
 20
0.107090
  0
VERTEX
  8
gtp
 10
0.735670
 20
0.107090
  0
VERTEX
  8
gtp
 10
0.735670
 20
0.107090
  0
VERTEX
  8
gtp
 10
0.771100
 20
0.107090
  0
SEQEND
  8
gtp
  0
POLYLINE
  8
gtp
 62
8
 40
0.000000
 41
0.000000
 66
  1
  0
VERTEX
  8
gtp
 10
0.976540
 20
0.459610
  0
VERTEX
  8
gtp
 10
1.057640
 20
0.459610
  0
VERTEX
  8
gtp
 10
1.057640
 20
0.378500
  0
VERTEX
  8
gtp
 10
0.976540
 20
0.378500
  0
VERTEX
  8
gtp
 10
0.976540
 20
0.459610
  0
SEQEND
  8
gtp
  0
POLYLINE
  8
gtp
 62
8
 40
0.000000
 41
0.000000
 66
  1
  0
VERTEX
  8
gtp
 10
2.159960
 20
0.621740
  0
VERTEX
  8
gtp
 10
2.159960
 20
0.621740
  0
VERTEX
  8
gtp
 10
2.159960
 20
0.621740
 42
0.421432
  0
VERTEX
  8
gtp
 10
2.090000
 20
0.690000
  0
VERTEX
  8
gtp
 10
2.090000
 20
0.690000
  0
SEQEND
  8
gtp
  0
POLYLINE
  8
gtp
 62
8
 40
0.000000
 41
0.000000
 66
  1
  0
VERTEX
  8
gtp
 10
2.091720
 20
0.000000
  0
VERTEX
  8
gtp
 10
2.091720
 20
0.000000
  0
VERTEX
  8
gtp
 10
2.091720
 20
0.000000
 42
0.414214
  0
VERTEX
  8
gtp
 10
2.160000
 20
0.068280
  0
VERTEX
  8
gtp
 10
2.160000
 20
0.068280
  0
SEQEND
  8
gtp
  0
POLYLINE
  8
gtp
 62
8
 40
0.000000
 41
0.000000
 66
  1
  0
VERTEX
  8
gtp
 10
0.064490
 20
0.690000
  0
VERTEX
  8
gtp
 10
0.064490
 20
0.690000
  0
VERTEX
  8
gtp
 10
0.064490
 20
0.690000
 42
0.414259
  0
VERTEX
  8
gtp
 10
0.000000
 20
0.625500
  0
VERTEX
  8
gtp
 10
0.000000
 20
0.625500
  0
SEQEND
  8
gtp
  0
POLYLINE
  8
gtp
 62
8
 40
0.000000
 41
0.000000
 66
  1
  0
VERTEX
  8
gtp
 10
0.000000
 20
0.064490
  0
VERTEX
  8
gtp
 10
0.000000
 20
0.064490
  0
VERTEX
  8
gtp
 10
0.000000
 20
0.064490
 42
0.414214
  0
VERTEX
  8
gtp
 10
0.064490
 20
0.000000
  0
VERTEX
  8
gtp
 10
0.064490
 20
0.000000
  0
SEQEND
  8
gtp
  0
POLYLINE
  8
gtp
 62
8
 40
0.000000
 41
0.000000
 66
  1
  0
VERTEX
  8
gtp
 10
2.160000
 20
0.068280
  0
VERTEX
  8
gtp
 10
2.160000
 20
0.621740
  0
SEQEND
  8
gtp
  0
POLYLINE
  8
gtp
 62
8
 40
0.000000
 41
0.000000
 66
  1
  0
VERTEX
  8
gtp
 10
0.064490
 20
0.000000
  0
VERTEX
  8
gtp
 10
2.091720
 20
0.000000
  0
SEQEND
  8
gtp
  0
POLYLINE
  8
gtp
 62
8
 40
0.000000
 41
0.000000
 66
  1
  0
VERTEX
  8
gtp
 10
0.064490
 20
0.690000
  0
VERTEX
  8
gtp
 10
2.090000
 20
0.690000
  0
SEQEND
  8
gtp
  0
POLYLINE
  8
gtp
 62
8
 40
0.000000
 41
0.000000
 66
  1
  0
VERTEX
  8
gtp
 10
0.000000
 20
0.064490
  0
VERTEX
  8
gtp
 10
0.000000
 20
0.625500
  0
SEQEND
  8
gtp
  0
INSERT
  8
gtp
  2
D20
 10
1.760100
 20
0.189650
 41
1.0
 42
1.0
 43
1.0
 50
0.0
  0
INSERT
  8
gtp
  2
D20
 10
1.899980
 20
0.189650
 41
1.0
 42
1.0
 43
1.0
 50
0.0
  0
INSERT
  8
gtp
  2
D21
 10
1.860120
 20
0.167660
 41
1.0
 42
1.0
 43
1.0
 50
0.0
  0
INSERT
  8
gtp
  2
D21
 10
1.860120
 20
0.211640
 41
1.0
 42
1.0
 43
1.0
 50
0.0
  0
INSERT
  8
gtp
  2
D21
 10
1.799960
 20
0.211640
 41
1.0
 42
1.0
 43
1.0
 50
0.0
  0
INSERT
  8
gtp
  2
D21
 10
1.799960
 20
0.167660
 41
1.0
 42
1.0
 43
1.0
 50
0.0
  0
INSERT
  8
gtp
  2
D22
 10
1.811140
 20
0.364690
 41
1.0
 42
1.0
 43
1.0
 50
0.0
  0
INSERT
  8
gtp
  2
D22
 10
1.811140
 20
0.325320
 41
1.0
 42
1.0
 43
1.0
 50
0.0
  0
INSERT
  8
gtp
  2
D22
 10
1.961140
 20
0.165320
 41
1.0
 42
1.0
 43
1.0
 50
0.0
  0
INSERT
  8
gtp
  2
D22
 10
1.961140
 20
0.204690
 41
1.0
 42
1.0
 43
1.0
 50
0.0
  0
INSERT
  8
gtp
  2
D22
 10
2.041140
 20
0.165320
 41
1.0
 42
1.0
 43
1.0
 50
0.0
  0
INSERT
  8
gtp
  2
D22
 10
2.041140
 20
0.204690
 41
1.0
 42
1.0
 43
1.0
 50
0.0
  0
INSERT
  8
gtp
  2
D22
 10
2.001140
 20
0.165320
 41
1.0
 42
1.0
 43
1.0
 50
0.0
  0
INSERT
  8
gtp
  2
D22
 10
2.001140
 20
0.204690
 41
1.0
 42
1.0
 43
1.0
 50
0.0
  0
INSERT
  8
gtp
  2
D22
 10
2.001140
 20
0.284060
 41
1.0
 42
1.0
 43
1.0
 50
0.0
  0
INSERT
  8
gtp
  2
D22
 10
2.001140
 20
0.244690
 41
1.0
 42
1.0
 43
1.0
 50
0.0
  0
INSERT
  8
gtp
  2
D22
 10
2.011140
 20
0.055320
 41
1.0
 42
1.0
 43
1.0
 50
0.0
  0
INSERT
  8
gtp
  2
D22
 10
2.011140
 20
0.094690
 41
1.0
 42
1.0
 43
1.0
 50
0.0
  0
INSERT
  8
gtp
  2
D22
 10
2.051140
 20
0.054690
 41
1.0
 42
1.0
 43
1.0
 50
0.0
  0
INSERT
  8
gtp
  2
D22
 10
2.051140
 20
0.094060
 41
1.0
 42
1.0
 43
1.0
 50
0.0
  0
INSERT
  8
gtp
  2
D22
 10
0.380000
 20
0.090000
 41
1.0
 42
1.0
 43
1.0
 50
0.0
  0
INSERT
  8
gtp
  2
D22
 10
0.380000
 20
0.050630
 41
1.0
 42
1.0
 43
1.0
 50
0.0
  0
INSERT
  8
gtp
  2
D22
 10
0.970000
 20
0.250000
 41
1.0
 42
1.0
 43
1.0
 50
0.0
  0
INSERT
  8
gtp
  2
D22
 10
0.970000
 20
0.210630
 41
1.0
 42
1.0
 43
1.0
 50
0.0
  0
INSERT
  8
gtp
  2
D22
 10
0.930000
 20
0.249690
 41
1.0
 42
1.0
 43
1.0
 50
0.0
  0
INSERT
  8
gtp
  2
D22
 10
0.930000
 20
0.210320
 41
1.0
 42
1.0
 43
1.0
 50
0.0
  0
INSERT
  8
gtp
  2
D22
 10
1.020000
 20
0.609370
 41
1.0
 42
1.0
 43
1.0
 50
0.0
  0
INSERT
  8
gtp
  2
D22
 10
1.020000
 20
0.570000
 41
1.0
 42
1.0
 43
1.0
 50
0.0
  0
INSERT
  8
gtp
  2
D22
 10
1.110000
 20
0.589370
 41
1.0
 42
1.0
 43
1.0
 50
0.0
  0
INSERT
  8
gtp
  2
D22
 10
1.110000
 20
0.550000
 41
1.0
 42
1.0
 43
1.0
 50
0.0
  0
INSERT
  8
gtp
  2
D22
 10
0.070000
 20
0.279680
 41
1.0
 42
1.0
 43
1.0
 50
0.0
  0
INSERT
  8
gtp
  2
D22
 10
0.070000
 20
0.240320
 41
1.0
 42
1.0
 43
1.0
 50
0.0
  0
INSERT
  8
gtp
  2
D22
 10
0.070000
 20
0.359370
 41
1.0
 42
1.0
 43
1.0
 50
0.0
  0
INSERT
  8
gtp
  2
D22
 10
0.070000
 20
0.320000
 41
1.0
 42
1.0
 43
1.0
 50
0.0
  0
INSERT
  8
gtp
  2
D22
 10
0.110000
 20
0.320000
 41
1.0
 42
1.0
 43
1.0
 50
0.0
  0
INSERT
  8
gtp
  2
D22
 10
0.110000
 20
0.359370
 41
1.0
 42
1.0
 43
1.0
 50
0.0
  0
INSERT
  8
gtp
  2
D22
 10
1.080000
 20
0.210000
 41
1.0
 42
1.0
 43
1.0
 50
0.0
  0
INSERT
  8
gtp
  2
D22
 10
1.080000
 20
0.249370
 41
1.0
 42
1.0
 43
1.0
 50
0.0
  0
INSERT
  8
gtp
  2
D22
 10
1.120000
 20
0.210000
 41
1.0
 42
1.0
 43
1.0
 50
0.0
  0
INSERT
  8
gtp
  2
D22
 10
1.120000
 20
0.249370
 41
1.0
 42
1.0
 43
1.0
 50
0.0
  0
INSERT
  8
gtp
  2
D22
 10
0.730000
 20
0.620320
 41
1.0
 42
1.0
 43
1.0
 50
0.0
  0
INSERT
  8
gtp
  2
D22
 10
0.730000
 20
0.659690
 41
1.0
 42
1.0
 43
1.0
 50
0.0
  0
INSERT
  8
gtp
  2
D22
 10
1.010000
 20
0.210630
 41
1.0
 42
1.0
 43
1.0
 50
0.0
  0
INSERT
  8
gtp
  2
D22
 10
1.010000
 20
0.250000
 41
1.0
 42
1.0
 43
1.0
 50
0.0
  0
INSERT
  8
gtp
  2
D22
 10
0.430000
 20
0.139690
 41
1.0
 42
1.0
 43
1.0
 50
0.0
  0
INSERT
  8
gtp
  2
D22
 10
0.430000
 20
0.100310
 41
1.0
 42
1.0
 43
1.0
 50
0.0
  0
INSERT
  8
gtp
  2
D22
 10
0.470000
 20
0.100310
 41
1.0
 42
1.0
 43
1.0
 50
0.0
  0
INSERT
  8
gtp
  2
D22
 10
0.470000
 20
0.139690
 41
1.0
 42
1.0
 43
1.0
 50
0.0
  0
INSERT
  8
gtp
  2
D22
 10
0.650000
 20
0.130320
 41
1.0
 42
1.0
 43
1.0
 50
0.0
  0
INSERT
  8
gtp
  2
D22
 10
0.650000
 20
0.169690
 41
1.0
 42
1.0
 43
1.0
 50
0.0
  0
INSERT
  8
gtp
  2
D22
 10
0.700000
 20
0.200000
 41
1.0
 42
1.0
 43
1.0
 50
0.0
  0
INSERT
  8
gtp
  2
D22
 10
0.700000
 20
0.160630
 41
1.0
 42
1.0
 43
1.0
 50
0.0
  0
INSERT
  8
gtp
  2
D22
 10
0.330000
 20
0.090630
 41
1.0
 42
1.0
 43
1.0
 50
0.0
  0
INSERT
  8
gtp
  2
D22
 10
0.330000
 20
0.130000
 41
1.0
 42
1.0
 43
1.0
 50
0.0
  0
INSERT
  8
gtp
  2
D23
 10
0.150000
 20
0.320000
 41
1.0
 42
1.0
 43
1.0
 50
0.0
  0
INSERT
  8
gtp
  2
D23
 10
0.189370
 20
0.320000
 41
1.0
 42
1.0
 43
1.0
 50
0.0
  0
INSERT
  8
gtp
  2
D23
 10
1.810000
 20
0.430000
 41
1.0
 42
1.0
 43
1.0
 50
0.0
  0
INSERT
  8
gtp
  2
D23
 10
1.770630
 20
0.430000
 41
1.0
 42
1.0
 43
1.0
 50
0.0
  0
INSERT
  8
gtp
  2
D23
 10
2.041140
 20
0.324690
 41
1.0
 42
1.0
 43
1.0
 50
0.0
  0
INSERT
  8
gtp
  2
D23
 10
2.080510
 20
0.324690
 41
1.0
 42
1.0
 43
1.0
 50
0.0
  0
INSERT
  8
gtp
  2
D23
 10
2.041140
 20
0.284690
 41
1.0
 42
1.0
 43
1.0
 50
0.0
  0
INSERT
  8
gtp
  2
D23
 10
2.080510
 20
0.284690
 41
1.0
 42
1.0
 43
1.0
 50
0.0
  0
INSERT
  8
gtp
  2
D23
 10
2.041140
 20
0.244690
 41
1.0
 42
1.0
 43
1.0
 50
0.0
  0
INSERT
  8
gtp
  2
D23
 10
2.080510
 20
0.244690
 41
1.0
 42
1.0
 43
1.0
 50
0.0
  0
INSERT
  8
gtp
  2
D23
 10
1.921770
 20
0.324690
 41
1.0
 42
1.0
 43
1.0
 50
0.0
  0
INSERT
  8
gtp
  2
D23
 10
1.961140
 20
0.324690
 41
1.0
 42
1.0
 43
1.0
 50
0.0
  0
INSERT
  8
gtp
  2
D23
 10
1.931140
 20
0.094690
 41
1.0
 42
1.0
 43
1.0
 50
0.0
  0
INSERT
  8
gtp
  2
D23
 10
1.970510
 20
0.094690
 41
1.0
 42
1.0
 43
1.0
 50
0.0
  0
INSERT
  8
gtp
  2
D23
 10
1.681140
 20
0.316660
 41
1.0
 42
1.0
 43
1.0
 50
0.0
  0
INSERT
  8
gtp
  2
D23
 10
1.641770
 20
0.316660
 41
1.0
 42
1.0
 43
1.0
 50
0.0
  0
INSERT
  8
gtp
  2
D23
 10
1.681140
 20
0.356660
 41
1.0
 42
1.0
 43
1.0
 50
0.0
  0
INSERT
  8
gtp
  2
D23
 10
1.641770
 20
0.356660
 41
1.0
 42
1.0
 43
1.0
 50
0.0
  0
INSERT
  8
gtp
  2
D23
 10
1.651140
 20
0.206660
 41
1.0
 42
1.0
 43
1.0
 50
0.0
  0
INSERT
  8
gtp
  2
D23
 10
1.611770
 20
0.206660
 41
1.0
 42
1.0
 43
1.0
 50
0.0
  0
INSERT
  8
gtp
  2
D23
 10
1.651140
 20
0.166660
 41
1.0
 42
1.0
 43
1.0
 50
0.0
  0
INSERT
  8
gtp
  2
D23
 10
1.611770
 20
0.166660
 41
1.0
 42
1.0
 43
1.0
 50
0.0
  0
INSERT
  8
gtp
  2
D23
 10
1.651140
 20
0.246660
 41
1.0
 42
1.0
 43
1.0
 50
0.0
  0
INSERT
  8
gtp
  2
D23
 10
1.611770
 20
0.246660
 41
1.0
 42
1.0
 43
1.0
 50
0.0
  0
INSERT
  8
gtp
  2
D23
 10
2.041140
 20
0.364690
 41
1.0
 42
1.0
 43
1.0
 50
0.0
  0
INSERT
  8
gtp
  2
D23
 10
2.080510
 20
0.364690
 41
1.0
 42
1.0
 43
1.0
 50
0.0
  0
INSERT
  8
gtp
  2
D23
 10
0.930630
 20
0.600000
 41
1.0
 42
1.0
 43
1.0
 50
0.0
  0
INSERT
  8
gtp
  2
D23
 10
0.970000
 20
0.600000
 41
1.0
 42
1.0
 43
1.0
 50
0.0
  0
INSERT
  8
gtp
  2
D23
 10
0.930630
 20
0.560000
 41
1.0
 42
1.0
 43
1.0
 50
0.0
  0
INSERT
  8
gtp
  2
D23
 10
0.970000
 20
0.560000
 41
1.0
 42
1.0
 43
1.0
 50
0.0
  0
INSERT
  8
gtp
  2
D23
 10
0.930630
 20
0.640000
 41
1.0
 42
1.0
 43
1.0
 50
0.0
  0
INSERT
  8
gtp
  2
D23
 10
0.970000
 20
0.640000
 41
1.0
 42
1.0
 43
1.0
 50
0.0
  0
INSERT
  8
gtp
  2
D23
 10
1.770320
 20
0.470000
 41
1.0
 42
1.0
 43
1.0
 50
0.0
  0
INSERT
  8
gtp
  2
D23
 10
1.809680
 20
0.470000
 41
1.0
 42
1.0
 43
1.0
 50
0.0
  0
INSERT
  8
gtp
  2
D23
 10
2.090000
 20
0.490000
 41
1.0
 42
1.0
 43
1.0
 50
0.0
  0
INSERT
  8
gtp
  2
D23
 10
2.129370
 20
0.490000
 41
1.0
 42
1.0
 43
1.0
 50
0.0
  0
INSERT
  8
gtp
  2
D23
 10
0.690000
 20
0.660000
 41
1.0
 42
1.0
 43
1.0
 50
0.0
  0
INSERT
  8
gtp
  2
D23
 10
0.650630
 20
0.660000
 41
1.0
 42
1.0
 43
1.0
 50
0.0
  0
INSERT
  8
gtp
  2
D23
 10
1.860000
 20
0.550000
 41
1.0
 42
1.0
 43
1.0
 50
0.0
  0
INSERT
  8
gtp
  2
D23
 10
1.899370
 20
0.550000
 41
1.0
 42
1.0
 43
1.0
 50
0.0
  0
INSERT
  8
gtp
  2
D23
 10
1.898740
 20
0.510000
 41
1.0
 42
1.0
 43
1.0
 50
0.0
  0
INSERT
  8
gtp
  2
D23
 10
1.859370
 20
0.510000
 41
1.0
 42
1.0
 43
1.0
 50
0.0
  0
INSERT
  8
gtp
  2
D23
 10
2.090000
 20
0.440000
 41
1.0
 42
1.0
 43
1.0
 50
0.0
  0
INSERT
  8
gtp
  2
D23
 10
2.129370
 20
0.440000
 41
1.0
 42
1.0
 43
1.0
 50
0.0
  0
INSERT
  8
gtp
  2
D23
 10
0.829680
 20
0.530000
 41
1.0
 42
1.0
 43
1.0
 50
0.0
  0
INSERT
  8
gtp
  2
D23
 10
0.790310
 20
0.530000
 41
1.0
 42
1.0
 43
1.0
 50
0.0
  0
INSERT
  8
gtp
  2
D23
 10
1.089370
 20
0.150000
 41
1.0
 42
1.0
 43
1.0
 50
0.0
  0
INSERT
  8
gtp
  2
D23
 10
1.050000
 20
0.150000
 41
1.0
 42
1.0
 43
1.0
 50
0.0
  0
INSERT
  8
gtp
  2
D23
 10
1.050000
 20
0.110000
 41
1.0
 42
1.0
 43
1.0
 50
0.0
  0
INSERT
  8
gtp
  2
D23
 10
1.089370
 20
0.110000
 41
1.0
 42
1.0
 43
1.0
 50
0.0
  0
INSERT
  8
gtp
  2
D23
 10
0.640000
 20
0.430000
 41
1.0
 42
1.0
 43
1.0
 50
0.0
  0
INSERT
  8
gtp
  2
D23
 10
0.679370
 20
0.430000
 41
1.0
 42
1.0
 43
1.0
 50
0.0
  0
INSERT
  8
gtp
  2
D23
 10
0.610000
 20
0.040000
 41
1.0
 42
1.0
 43
1.0
 50
0.0
  0
INSERT
  8
gtp
  2
D23
 10
0.649370
 20
0.040000
 41
1.0
 42
1.0
 43
1.0
 50
0.0
  0
INSERT
  8
gtp
  2
D23
 10
0.510630
 20
0.040000
 41
1.0
 42
1.0
 43
1.0
 50
0.0
  0
INSERT
  8
gtp
  2
D23
 10
0.550000
 20
0.040000
 41
1.0
 42
1.0
 43
1.0
 50
0.0
  0
INSERT
  8
gtp
  2
D23
 10
1.679370
 20
0.580000
 41
1.0
 42
1.0
 43
1.0
 50
0.0
  0
INSERT
  8
gtp
  2
D23
 10
1.640000
 20
0.580000
 41
1.0
 42
1.0
 43
1.0
 50
0.0
  0
INSERT
  8
gtp
  2
D23
 10
1.640000
 20
0.620000
 41
1.0
 42
1.0
 43
1.0
 50
0.0
  0
INSERT
  8
gtp
  2
D23
 10
1.679370
 20
0.620000
 41
1.0
 42
1.0
 43
1.0
 50
0.0
  0
INSERT
  8
gtp
  2
D23
 10
0.259370
 20
0.050000
 41
1.0
 42
1.0
 43
1.0
 50
0.0
  0
INSERT
  8
gtp
  2
D23
 10
0.220000
 20
0.050000
 41
1.0
 42
1.0
 43
1.0
 50
0.0
  0
INSERT
  8
gtp
  2
D23
 10
0.700000
 20
0.310000
 41
1.0
 42
1.0
 43
1.0
 50
0.0
  0
INSERT
  8
gtp
  2
D23
 10
0.739370
 20
0.310000
 41
1.0
 42
1.0
 43
1.0
 50
0.0
  0
INSERT
  8
gtp
  2
D23
 10
0.259370
 20
0.090000
 41
1.0
 42
1.0
 43
1.0
 50
0.0
  0
INSERT
  8
gtp
  2
D23
 10
0.220000
 20
0.090000
 41
1.0
 42
1.0
 43
1.0
 50
0.0
  0
INSERT
  8
gtp
  2
D23
 10
0.299690
 20
0.230000
 41
1.0
 42
1.0
 43
1.0
 50
0.0
  0
INSERT
  8
gtp
  2
D23
 10
0.260320
 20
0.230000
 41
1.0
 42
1.0
 43
1.0
 50
0.0
  0
INSERT
  8
gtp
  2
D24
 10
1.939370
 20
0.600000
 41
1.0
 42
1.0
 43
1.0
 50
0.0
  0
INSERT
  8
gtp
  2
D24
 10
1.900000
 20
0.600000
 41
1.0
 42
1.0
 43
1.0
 50
0.0
  0
INSERT
  8
gtp
  2
D24
 10
1.751140
 20
0.034690
 41
1.0
 42
1.0
 43
1.0
 50
0.0
  0
INSERT
  8
gtp
  2
D24
 10
1.711770
 20
0.034690
 41
1.0
 42
1.0
 43
1.0
 50
0.0
  0
INSERT
  8
gtp
  2
D24
 10
1.790830
 20
0.074690
 41
1.0
 42
1.0
 43
1.0
 50
0.0
  0
INSERT
  8
gtp
  2
D24
 10
1.751460
 20
0.074690
 41
1.0
 42
1.0
 43
1.0
 50
0.0
  0
INSERT
  8
gtp
  2
D24
 10
1.578310
 20
0.036660
 41
1.0
 42
1.0
 43
1.0
 50
0.0
  0
INSERT
  8
gtp
  2
D24
 10
1.617680
 20
0.036660
 41
1.0
 42
1.0
 43
1.0
 50
0.0
  0
INSERT
  8
gtp
  2
D24
 10
0.829370
 20
0.150000
 41
1.0
 42
1.0
 43
1.0
 50
0.0
  0
INSERT
  8
gtp
  2
D24
 10
0.790000
 20
0.150000
 41
1.0
 42
1.0
 43
1.0
 50
0.0
  0
INSERT
  8
gtp
  2
D24
 10
0.649370
 20
0.540000
 41
1.0
 42
1.0
 43
1.0
 50
0.0
  0
INSERT
  8
gtp
  2
D24
 10
0.610000
 20
0.540000
 41
1.0
 42
1.0
 43
1.0
 50
0.0
  0
INSERT
  8
gtp
  2
D24
 10
0.790000
 20
0.190000
 41
1.0
 42
1.0
 43
1.0
 50
0.0
  0
INSERT
  8
gtp
  2
D24
 10
0.829370
 20
0.190000
 41
1.0
 42
1.0
 43
1.0
 50
0.0
  0
INSERT
  8
gtp
  2
D24
 10
0.679680
 20
0.490000
 41
1.0
 42
1.0
 43
1.0
 50
0.0
  0
INSERT
  8
gtp
  2
D24
 10
0.640310
 20
0.490000
 41
1.0
 42
1.0
 43
1.0
 50
0.0
  0
INSERT
  8
gtp
  2
D25
 10
1.718070
 20
0.567440
 41
1.0
 42
1.0
 43
1.0
 50
0.0
  0
INSERT
  8
gtp
  2
D25
 10
1.718070
 20
0.528070
 41
1.0
 42
1.0
 43
1.0
 50
0.0
  0
INSERT
  8
gtp
  2
D25
 10
1.711140
 20
0.124690
 41
1.0
 42
1.0
 43
1.0
 50
0.0
  0
INSERT
  8
gtp
  2
D25
 10
1.711140
 20
0.085320
 41
1.0
 42
1.0
 43
1.0
 50
0.0
  0
INSERT
  8
gtp
  2
D25
 10
1.711140
 20
0.254690
 41
1.0
 42
1.0
 43
1.0
 50
0.0
  0
INSERT
  8
gtp
  2
D25
 10
1.711140
 20
0.215320
 41
1.0
 42
1.0
 43
1.0
 50
0.0
  0
INSERT
  8
gtp
  2
D25
 10
1.677680
 20
0.057290
 41
1.0
 42
1.0
 43
1.0
 50
0.0
  0
INSERT
  8
gtp
  2
D25
 10
1.677680
 20
0.096660
 41
1.0
 42
1.0
 43
1.0
 50
0.0
  0
INSERT
  8
gtp
  2
D25
 10
1.577680
 20
0.066970
 41
1.0
 42
1.0
 43
1.0
 50
0.0
  0
INSERT
  8
gtp
  2
D25
 10
1.577680
 20
0.106340
 41
1.0
 42
1.0
 43
1.0
 50
0.0
  0
INSERT
  8
gtp
  2
D25
 10
0.840000
 20
0.040310
 41
1.0
 42
1.0
 43
1.0
 50
0.0
  0
INSERT
  8
gtp
  2
D25
 10
0.840000
 20
0.079690
 41
1.0
 42
1.0
 43
1.0
 50
0.0
  0
INSERT
  8
gtp
  2
D26
 10
1.898940
 20
0.254610
 41
1.0
 42
1.0
 43
1.0
 50
0.0
  0
INSERT
  8
gtp
  2
D26
 10
1.879250
 20
0.254610
 41
1.0
 42
1.0
 43
1.0
 50
0.0
  0
INSERT
  8
gtp
  2
D26
 10
1.859570
 20
0.254610
 41
1.0
 42
1.0
 43
1.0
 50
0.0
  0
INSERT
  8
gtp
  2
D26
 10
1.839880
 20
0.254610
 41
1.0
 42
1.0
 43
1.0
 50
0.0
  0
INSERT
  8
gtp
  2
D26
 10
1.820200
 20
0.254610
 41
1.0
 42
1.0
 43
1.0
 50
0.0
  0
INSERT
  8
gtp
  2
D26
 10
1.800510
 20
0.254610
 41
1.0
 42
1.0
 43
1.0
 50
0.0
  0
INSERT
  8
gtp
  2
D26
 10
1.780830
 20
0.254610
 41
1.0
 42
1.0
 43
1.0
 50
0.0
  0
INSERT
  8
gtp
  2
D26
 10
1.761140
 20
0.254610
 41
1.0
 42
1.0
 43
1.0
 50
0.0
  0
INSERT
  8
gtp
  2
D26
 10
1.761140
 20
0.124690
 41
1.0
 42
1.0
 43
1.0
 50
0.0
  0
INSERT
  8
gtp
  2
D26
 10
1.780830
 20
0.124690
 41
1.0
 42
1.0
 43
1.0
 50
0.0
  0
INSERT
  8
gtp
  2
D26
 10
1.800510
 20
0.124690
 41
1.0
 42
1.0
 43
1.0
 50
0.0
  0
INSERT
  8
gtp
  2
D26
 10
1.820200
 20
0.124690
 41
1.0
 42
1.0
 43
1.0
 50
0.0
  0
INSERT
  8
gtp
  2
D26
 10
1.839880
 20
0.124690
 41
1.0
 42
1.0
 43
1.0
 50
0.0
  0
INSERT
  8
gtp
  2
D26
 10
1.859570
 20
0.124690
 41
1.0
 42
1.0
 43
1.0
 50
0.0
  0
INSERT
  8
gtp
  2
D26
 10
1.879250
 20
0.124690
 41
1.0
 42
1.0
 43
1.0
 50
0.0
  0
INSERT
  8
gtp
  2
D26
 10
1.898940
 20
0.124690
 41
1.0
 42
1.0
 43
1.0
 50
0.0
  0
INSERT
  8
gtp
  2
D27
 10
1.745400
 20
0.219170
 41
1.0
 42
1.0
 43
1.0
 50
0.0
  0
INSERT
  8
gtp
  2
D27
 10
1.745400
 20
0.160120
 41
1.0
 42
1.0
 43
1.0
 50
0.0
  0
INSERT
  8
gtp
  2
D27
 10
1.914690
 20
0.160120
 41
1.0
 42
1.0
 43
1.0
 50
0.0
  0
INSERT
  8
gtp
  2
D27
 10
1.914690
 20
0.219170
 41
1.0
 42
1.0
 43
1.0
 50
0.0
  0
INSERT
  8
gtp
  2
D28
 10
1.748540
 20
0.294690
 41
1.0
 42
1.0
 43
1.0
 50
0.0
  0
INSERT
  8
gtp
  2
D28
 10
1.711140
 20
0.294690
 41
1.0
 42
1.0
 43
1.0
 50
0.0
  0
INSERT
  8
gtp
  2
D28
 10
0.577400
 20
0.540000
 41
1.0
 42
1.0
 43
1.0
 50
0.0
  0
INSERT
  8
gtp
  2
D28
 10
0.540000
 20
0.540000
 41
1.0
 42
1.0
 43
1.0
 50
0.0
  0
INSERT
  8
gtp
  2
D28
 10
0.607400
 20
0.490000
 41
1.0
 42
1.0
 43
1.0
 50
0.0
  0
INSERT
  8
gtp
  2
D28
 10
0.570000
 20
0.490000
 41
1.0
 42
1.0
 43
1.0
 50
0.0
  0
INSERT
  8
gtp
  2
D29
 10
1.621140
 20
0.085160
 41
1.0
 42
1.0
 43
1.0
 50
0.0
  0
INSERT
  8
gtp
  2
D29
 10
1.637680
 20
0.085160
 41
1.0
 42
1.0
 43
1.0
 50
0.0
  0
INSERT
  8
gtp
  2
D29
 10
1.637680
 20
0.100910
 41
1.0
 42
1.0
 43
1.0
 50
0.0
  0
INSERT
  8
gtp
  2
D29
 10
1.621140
 20
0.100910
 41
1.0
 42
1.0
 43
1.0
 50
0.0
  0
INSERT
  8
gtp
  2
D29
 10
1.637680
 20
0.116660
 41
1.0
 42
1.0
 43
1.0
 50
0.0
  0
INSERT
  8
gtp
  2
D29
 10
1.621140
 20
0.116660
 41
1.0
 42
1.0
 43
1.0
 50
0.0
  0
INSERT
  8
gtp
  2
D30
 10
0.486140
 20
0.315120
 41
1.0
 42
1.0
 43
1.0
 50
0.0
  0
INSERT
  8
gtp
  2
D31
 10
0.478270
 20
0.431260
 41
1.0
 42
1.0
 43
1.0
 50
0.0
  0
INSERT
  8
gtp
  2
D31
 10
0.557010
 20
0.431260
 41
1.0
 42
1.0
 43
1.0
 50
0.0
  0
INSERT
  8
gtp
  2
D31
 10
0.557010
 20
0.198980
 41
1.0
 42
1.0
 43
1.0
 50
0.0
  0
INSERT
  8
gtp
  2
D31
 10
0.478270
 20
0.198980
 41
1.0
 42
1.0
 43
1.0
 50
0.0
  0
INSERT
  8
gtp
  2
D31
 10
0.399530
 20
0.431260
 41
1.0
 42
1.0
 43
1.0
 50
0.0
  0
INSERT
  8
gtp
  2
D31
 10
0.399530
 20
0.198980
 41
1.0
 42
1.0
 43
1.0
 50
0.0
  0
INSERT
  8
gtp
  2
D31
 10
0.572760
 20
0.431260
 41
1.0
 42
1.0
 43
1.0
 50
0.0
  0
INSERT
  8
gtp
  2
D31
 10
0.572760
 20
0.198980
 41
1.0
 42
1.0
 43
1.0
 50
0.0
  0
INSERT
  8
gtp
  2
D31
 10
0.494020
 20
0.431260
 41
1.0
 42
1.0
 43
1.0
 50
0.0
  0
INSERT
  8
gtp
  2
D31
 10
0.509760
 20
0.431260
 41
1.0
 42
1.0
 43
1.0
 50
0.0
  0
INSERT
  8
gtp
  2
D31
 10
0.525510
 20
0.431260
 41
1.0
 42
1.0
 43
1.0
 50
0.0
  0
INSERT
  8
gtp
  2
D31
 10
0.541260
 20
0.431260
 41
1.0
 42
1.0
 43
1.0
 50
0.0
  0
INSERT
  8
gtp
  2
D31
 10
0.541260
 20
0.198980
 41
1.0
 42
1.0
 43
1.0
 50
0.0
  0
INSERT
  8
gtp
  2
D31
 10
0.525510
 20
0.198980
 41
1.0
 42
1.0
 43
1.0
 50
0.0
  0
INSERT
  8
gtp
  2
D31
 10
0.509760
 20
0.198980
 41
1.0
 42
1.0
 43
1.0
 50
0.0
  0
INSERT
  8
gtp
  2
D31
 10
0.494020
 20
0.198980
 41
1.0
 42
1.0
 43
1.0
 50
0.0
  0
INSERT
  8
gtp
  2
D31
 10
0.415280
 20
0.431260
 41
1.0
 42
1.0
 43
1.0
 50
0.0
  0
INSERT
  8
gtp
  2
D31
 10
0.431020
 20
0.431260
 41
1.0
 42
1.0
 43
1.0
 50
0.0
  0
INSERT
  8
gtp
  2
D31
 10
0.446770
 20
0.431260
 41
1.0
 42
1.0
 43
1.0
 50
0.0
  0
INSERT
  8
gtp
  2
D31
 10
0.462520
 20
0.431260
 41
1.0
 42
1.0
 43
1.0
 50
0.0
  0
INSERT
  8
gtp
  2
D31
 10
0.462520
 20
0.198980
 41
1.0
 42
1.0
 43
1.0
 50
0.0
  0
INSERT
  8
gtp
  2
D31
 10
0.446770
 20
0.198980
 41
1.0
 42
1.0
 43
1.0
 50
0.0
  0
INSERT
  8
gtp
  2
D31
 10
0.431020
 20
0.198980
 41
1.0
 42
1.0
 43
1.0
 50
0.0
  0
INSERT
  8
gtp
  2
D31
 10
0.415280
 20
0.198980
 41
1.0
 42
1.0
 43
1.0
 50
0.0
  0
INSERT
  8
gtp
  2
D32
 10
0.602280
 20
0.385980
 41
1.0
 42
1.0
 43
1.0
 50
0.0
  0
INSERT
  8
gtp
  2
D32
 10
0.602280
 20
0.307240
 41
1.0
 42
1.0
 43
1.0
 50
0.0
  0
INSERT
  8
gtp
  2
D32
 10
0.602280
 20
0.228500
 41
1.0
 42
1.0
 43
1.0
 50
0.0
  0
INSERT
  8
gtp
  2
D32
 10
0.370000
 20
0.307240
 41
1.0
 42
1.0
 43
1.0
 50
0.0
  0
INSERT
  8
gtp
  2
D32
 10
0.370000
 20
0.385980
 41
1.0
 42
1.0
 43
1.0
 50
0.0
  0
INSERT
  8
gtp
  2
D32
 10
0.370000
 20
0.228500
 41
1.0
 42
1.0
 43
1.0
 50
0.0
  0
INSERT
  8
gtp
  2
D32
 10
0.602280
 20
0.401730
 41
1.0
 42
1.0
 43
1.0
 50
0.0
  0
INSERT
  8
gtp
  2
D32
 10
0.602280
 20
0.370240
 41
1.0
 42
1.0
 43
1.0
 50
0.0
  0
INSERT
  8
gtp
  2
D32
 10
0.602280
 20
0.354490
 41
1.0
 42
1.0
 43
1.0
 50
0.0
  0
INSERT
  8
gtp
  2
D32
 10
0.602280
 20
0.338740
 41
1.0
 42
1.0
 43
1.0
 50
0.0
  0
INSERT
  8
gtp
  2
D32
 10
0.602280
 20
0.322990
 41
1.0
 42
1.0
 43
1.0
 50
0.0
  0
INSERT
  8
gtp
  2
D32
 10
0.602280
 20
0.291500
 41
1.0
 42
1.0
 43
1.0
 50
0.0
  0
INSERT
  8
gtp
  2
D32
 10
0.602280
 20
0.275750
 41
1.0
 42
1.0
 43
1.0
 50
0.0
  0
INSERT
  8
gtp
  2
D32
 10
0.602280
 20
0.260000
 41
1.0
 42
1.0
 43
1.0
 50
0.0
  0
INSERT
  8
gtp
  2
D32
 10
0.602280
 20
0.244250
 41
1.0
 42
1.0
 43
1.0
 50
0.0
  0
INSERT
  8
gtp
  2
D32
 10
0.370000
 20
0.401730
 41
1.0
 42
1.0
 43
1.0
 50
0.0
  0
INSERT
  8
gtp
  2
D32
 10
0.370000
 20
0.322990
 41
1.0
 42
1.0
 43
1.0
 50
0.0
  0
INSERT
  8
gtp
  2
D32
 10
0.370000
 20
0.338740
 41
1.0
 42
1.0
 43
1.0
 50
0.0
  0
INSERT
  8
gtp
  2
D32
 10
0.370000
 20
0.354490
 41
1.0
 42
1.0
 43
1.0
 50
0.0
  0
INSERT
  8
gtp
  2
D32
 10
0.370000
 20
0.370240
 41
1.0
 42
1.0
 43
1.0
 50
0.0
  0
INSERT
  8
gtp
  2
D32
 10
0.370000
 20
0.244250
 41
1.0
 42
1.0
 43
1.0
 50
0.0
  0
INSERT
  8
gtp
  2
D32
 10
0.370000
 20
0.260000
 41
1.0
 42
1.0
 43
1.0
 50
0.0
  0
INSERT
  8
gtp
  2
D32
 10
0.370000
 20
0.275750
 41
1.0
 42
1.0
 43
1.0
 50
0.0
  0
INSERT
  8
gtp
  2
D32
 10
0.370000
 20
0.291500
 41
1.0
 42
1.0
 43
1.0
 50
0.0
  0
INSERT
  8
gtp
  2
D33
 10
0.070000
 20
0.630000
 41
1.0
 42
1.0
 43
1.0
 50
0.0
  0
INSERT
  8
gtp
  2
D33
 10
2.090000
 20
0.630000
 41
1.0
 42
1.0
 43
1.0
 50
0.0
  0
INSERT
  8
gtp
  2
D34
 10
0.924170
 20
0.360000
 41
1.0
 42
1.0
 43
1.0
 50
0.0
  0
INSERT
  8
gtp
  2
D34
 10
0.924170
 20
0.379690
 41
1.0
 42
1.0
 43
1.0
 50
0.0
  0
INSERT
  8
gtp
  2
D34
 10
0.924170
 20
0.399370
 41
1.0
 42
1.0
 43
1.0
 50
0.0
  0
INSERT
  8
gtp
  2
D34
 10
0.924170
 20
0.419060
 41
1.0
 42
1.0
 43
1.0
 50
0.0
  0
INSERT
  8
gtp
  2
D34
 10
0.924170
 20
0.438740
 41
1.0
 42
1.0
 43
1.0
 50
0.0
  0
INSERT
  8
gtp
  2
D34
 10
0.924170
 20
0.458420
 41
1.0
 42
1.0
 43
1.0
 50
0.0
  0
INSERT
  8
gtp
  2
D34
 10
0.924170
 20
0.478110
 41
1.0
 42
1.0
 43
1.0
 50
0.0
  0
INSERT
  8
gtp
  2
D34
 10
1.110000
 20
0.478110
 41
1.0
 42
1.0
 43
1.0
 50
0.0
  0
INSERT
  8
gtp
  2
D34
 10
1.110000
 20
0.458420
 41
1.0
 42
1.0
 43
1.0
 50
0.0
  0
INSERT
  8
gtp
  2
D34
 10
1.110000
 20
0.438740
 41
1.0
 42
1.0
 43
1.0
 50
0.0
  0
INSERT
  8
gtp
  2
D34
 10
1.110000
 20
0.419060
 41
1.0
 42
1.0
 43
1.0
 50
0.0
  0
INSERT
  8
gtp
  2
D34
 10
1.110000
 20
0.399370
 41
1.0
 42
1.0
 43
1.0
 50
0.0
  0
INSERT
  8
gtp
  2
D34
 10
1.110000
 20
0.379690
 41
1.0
 42
1.0
 43
1.0
 50
0.0
  0
INSERT
  8
gtp
  2
D34
 10
1.110000
 20
0.360000
 41
1.0
 42
1.0
 43
1.0
 50
0.0
  0
INSERT
  8
gtp
  2
D35
 10
1.076140
 20
0.326140
 41
1.0
 42
1.0
 43
1.0
 50
0.0
  0
INSERT
  8
gtp
  2
D35
 10
1.056460
 20
0.326140
 41
1.0
 42
1.0
 43
1.0
 50
0.0
  0
INSERT
  8
gtp
  2
D35
 10
1.036770
 20
0.326140
 41
1.0
 42
1.0
 43
1.0
 50
0.0
  0
INSERT
  8
gtp
  2
D35
 10
1.017090
 20
0.326140
 41
1.0
 42
1.0
 43
1.0
 50
0.0
  0
INSERT
  8
gtp
  2
D35
 10
0.997400
 20
0.326140
 41
1.0
 42
1.0
 43
1.0
 50
0.0
  0
INSERT
  8
gtp
  2
D35
 10
0.977720
 20
0.326140
 41
1.0
 42
1.0
 43
1.0
 50
0.0
  0
INSERT
  8
gtp
  2
D35
 10
0.958030
 20
0.326140
 41
1.0
 42
1.0
 43
1.0
 50
0.0
  0
INSERT
  8
gtp
  2
D35
 10
0.958030
 20
0.511970
 41
1.0
 42
1.0
 43
1.0
 50
0.0
  0
INSERT
  8
gtp
  2
D35
 10
0.977720
 20
0.511970
 41
1.0
 42
1.0
 43
1.0
 50
0.0
  0
INSERT
  8
gtp
  2
D35
 10
0.997400
 20
0.511970
 41
1.0
 42
1.0
 43
1.0
 50
0.0
  0
INSERT
  8
gtp
  2
D35
 10
1.017090
 20
0.511970
 41
1.0
 42
1.0
 43
1.0
 50
0.0
  0
INSERT
  8
gtp
  2
D35
 10
1.036770
 20
0.511970
 41
1.0
 42
1.0
 43
1.0
 50
0.0
  0
INSERT
  8
gtp
  2
D35
 10
1.056460
 20
0.511970
 41
1.0
 42
1.0
 43
1.0
 50
0.0
  0
INSERT
  8
gtp
  2
D35
 10
1.076140
 20
0.511970
 41
1.0
 42
1.0
 43
1.0
 50
0.0
  0
INSERT
  8
gtp
  2
D36
 10
0.788350
 20
0.637560
 41
1.0
 42
1.0
 43
1.0
 50
0.0
  0
INSERT
  8
gtp
  2
D36
 10
0.788350
 20
0.582440
 41
1.0
 42
1.0
 43
1.0
 50
0.0
  0
INSERT
  8
gtp
  2
D36
 10
0.831650
 20
0.582440
 41
1.0
 42
1.0
 43
1.0
 50
0.0
  0
INSERT
  8
gtp
  2
D36
 10
0.831650
 20
0.637560
 41
1.0
 42
1.0
 43
1.0
 50
0.0
  0
INSERT
  8
gtp
  2
D37
 10
1.602600
 20
0.410000
 41
1.0
 42
1.0
 43
1.0
 50
0.0
  0
INSERT
  8
gtp
  2
D37
 10
1.640000
 20
0.410000
 41
1.0
 42
1.0
 43
1.0
 50
0.0
  0
INSERT
  8
gtp
  2
D37
 10
1.677400
 20
0.410000
 41
1.0
 42
1.0
 43
1.0
 50
0.0
  0
INSERT
  8
gtp
  2
D37
 10
1.677400
 20
0.526140
 41
1.0
 42
1.0
 43
1.0
 50
0.0
  0
INSERT
  8
gtp
  2
D37
 10
1.640000
 20
0.526140
 41
1.0
 42
1.0
 43
1.0
 50
0.0
  0
INSERT
  8
gtp
  2
D37
 10
1.602600
 20
0.526140
 41
1.0
 42
1.0
 43
1.0
 50
0.0
  0
INSERT
  8
gtp
  2
D38
 10
0.993390
 20
0.058820
 41
1.0
 42
1.0
 43
1.0
 50
0.0
  0
INSERT
  8
gtp
  2
D38
 10
0.993390
 20
0.135590
 41
1.0
 42
1.0
 43
1.0
 50
0.0
  0
INSERT
  8
gtp
  2
D38
 10
0.993390
 20
0.110000
 41
1.0
 42
1.0
 43
1.0
 50
0.0
  0
INSERT
  8
gtp
  2
D38
 10
0.993390
 20
0.084410
 41
1.0
 42
1.0
 43
1.0
 50
0.0
  0
INSERT
  8
gtp
  2
D38
 10
0.880000
 20
0.058820
 41
1.0
 42
1.0
 43
1.0
 50
0.0
  0
INSERT
  8
gtp
  2
D38
 10
0.880000
 20
0.110000
 41
1.0
 42
1.0
 43
1.0
 50
0.0
  0
INSERT
  8
gtp
  2
D38
 10
0.880000
 20
0.135590
 41
1.0
 42
1.0
 43
1.0
 50
0.0
  0
INSERT
  8
gtp
  2
D38
 10
0.880000
 20
0.084410
 41
1.0
 42
1.0
 43
1.0
 50
0.0
  0
INSERT
  8
gtp
  2
D39
 10
0.715000
 20
0.101180
 41
1.0
 42
1.0
 43
1.0
 50
0.0
  0
INSERT
  8
gtp
  2
D39
 10
0.715000
 20
0.075590
 41
1.0
 42
1.0
 43
1.0
 50
0.0
  0
INSERT
  8
gtp
  2
D39
 10
0.715000
 20
0.050000
 41
1.0
 42
1.0
 43
1.0
 50
0.0
  0
INSERT
  8
gtp
  2
D39
 10
0.791770
 20
0.050000
 41
1.0
 42
1.0
 43
1.0
 50
0.0
  0
INSERT
  8
gtp
  2
D39
 10
0.791770
 20
0.075590
 41
1.0
 42
1.0
 43
1.0
 50
0.0
  0
INSERT
  8
gtp
  2
D39
 10
0.791770
 20
0.101180
 41
1.0
 42
1.0
 43
1.0
 50
0.0
  0
INSERT
  8
gtp
  2
D40
 10
0.540000
 20
0.659690
 41
1.0
 42
1.0
 43
1.0
 50
0.0
  0
INSERT
  8
gtp
  2
D40
 10
0.540000
 20
0.640000
 41
1.0
 42
1.0
 43
1.0
 50
0.0
  0
INSERT
  8
gtp
  2
D40
 10
0.520310
 20
0.659690
 41
1.0
 42
1.0
 43
1.0
 50
0.0
  0
INSERT
  8
gtp
  2
D40
 10
0.520310
 20
0.640000
 41
1.0
 42
1.0
 43
1.0
 50
0.0
  0
INSERT
  8
gtp
  2
D40
 10
1.809680
 20
0.530000
 41
1.0
 42
1.0
 43
1.0
 50
0.0
  0
INSERT
  8
gtp
  2
D40
 10
1.809680
 20
0.510320
 41
1.0
 42
1.0
 43
1.0
 50
0.0
  0
INSERT
  8
gtp
  2
D40
 10
1.790000
 20
0.530000
 41
1.0
 42
1.0
 43
1.0
 50
0.0
  0
INSERT
  8
gtp
  2
D40
 10
1.790000
 20
0.510320
 41
1.0
 42
1.0
 43
1.0
 50
0.0
  0
INSERT
  8
gtp
  2
D41
 10
0.210000
 20
0.520000
 41
1.0
 42
1.0
 43
1.0
 50
0.0
  0
INSERT
  8
gtp
  2
D41
 10
0.210000
 20
0.470000
 41
1.0
 42
1.0
 43
1.0
 50
0.0
  0
INSERT
  8
gtp
  2
D41
 10
0.160000
 20
0.520000
 41
1.0
 42
1.0
 43
1.0
 50
0.0
  0
INSERT
  8
gtp
  2
D41
 10
0.160000
 20
0.470000
 41
1.0
 42
1.0
 43
1.0
 50
0.0
  0
INSERT
  8
gtp
  2
D41
 10
0.110000
 20
0.520000
 41
1.0
 42
1.0
 43
1.0
 50
0.0
  0
INSERT
  8
gtp
  2
D41
 10
0.110000
 20
0.470000
 41
1.0
 42
1.0
 43
1.0
 50
0.0
  0
INSERT
  8
gtp
  2
D42
 10
2.027400
 20
0.544130
 41
1.0
 42
1.0
 43
1.0
 50
0.0
  0
INSERT
  8
gtp
  2
D42
 10
1.990000
 20
0.544130
 41
1.0
 42
1.0
 43
1.0
 50
0.0
  0
INSERT
  8
gtp
  2
D42
 10
1.952600
 20
0.544130
 41
1.0
 42
1.0
 43
1.0
 50
0.0
  0
INSERT
  8
gtp
  2
D42
 10
1.952600
 20
0.435870
 41
1.0
 42
1.0
 43
1.0
 50
0.0
  0
INSERT
  8
gtp
  2
D42
 10
2.027400
 20
0.435870
 41
1.0
 42
1.0
 43
1.0
 50
0.0
  0
INSERT
  8
gtp
  2
D43
 10
1.730000
 20
0.620000
 41
1.0
 42
1.0
 43
1.0
 50
0.0
  0
INSERT
  8
gtp
  2
D43
 10
1.812680
 20
0.657400
 41
1.0
 42
1.0
 43
1.0
 50
0.0
  0
INSERT
  8
gtp
  2
D43
 10
1.812680
 20
0.582600
 41
1.0
 42
1.0
 43
1.0
 50
0.0
  0
INSERT
  8
gtp
  2
D44
 10
0.070000
 20
0.050000
 41
1.0
 42
1.0
 43
1.0
 50
0.0
  0
INSERT
  8
gtp
  2
D44
 10
0.070000
 20
0.184100
 41
1.0
 42
1.0
 43
1.0
 50
0.0
  0
INSERT
  8
gtp
  2
D45
 10
0.570000
 20
0.100000
 41
1.0
 42
1.0
 43
1.0
 50
0.0
  0
INSERT
  8
gtp
  2
D45
 10
0.510000
 20
0.100000
 41
1.0
 42
1.0
 43
1.0
 50
0.0
  0
INSERT
  8
gtp
  2
D46
 10
0.290000
 20
0.130000
 41
1.0
 42
1.0
 43
1.0
 50
0.0
  0
INSERT
  8
gtp
  2
D46
 10
0.290000
 20
0.169370
 41
1.0
 42
1.0
 43
1.0
 50
0.0
  0
INSERT
  8
gtp
  2
D46
 10
0.258500
 20
0.169370
 41
1.0
 42
1.0
 43
1.0
 50
0.0
  0
INSERT
  8
gtp
  2
D46
 10
0.258500
 20
0.130000
 41
1.0
 42
1.0
 43
1.0
 50
0.0
  0
ENDSEC
  0
EOF
