G04*
G04 #@! TF.GenerationSoftware,Altium Limited,Altium Designer,21.3.2 (30)*
G04*
G04 Layer_Color=65535*
%FSLAX25Y25*%
%MOIN*%
G70*
G04*
G04 #@! TF.SameCoordinates,A34A3340-7ABE-472C-AE94-605A2DEBF9E2*
G04*
G04*
G04 #@! TF.FilePolarity,Positive*
G04*
G01*
G75*
%ADD10C,0.00984*%
%ADD11C,0.00600*%
%ADD12C,0.01000*%
%ADD13C,0.00787*%
%ADD14C,0.01000*%
%ADD15C,0.00500*%
%ADD16C,0.00300*%
%ADD17C,0.00200*%
D10*
X67713Y12197D02*
G03*
X67713Y12197I-492J0D01*
G01*
X27713Y60197D02*
G03*
X27713Y60197I-492J0D01*
G01*
X63591Y41244D02*
G03*
X63591Y41244I-492J0D01*
G01*
X57067Y19402D02*
G03*
X57067Y19402I-492J0D01*
G01*
D11*
X1276Y56608D02*
G03*
X4608Y53276I3332J0D01*
G01*
Y62724D02*
G03*
X1276Y59392I0J-3332D01*
G01*
X10724D02*
G03*
X7392Y62724I-3332J0D01*
G01*
Y53276D02*
G03*
X10724Y56608I0J3332D01*
G01*
X91392Y53276D02*
G03*
X94724Y56608I0J3332D01*
G01*
Y59392D02*
G03*
X91392Y62724I-3332J0D01*
G01*
X88608D02*
G03*
X85276Y59392I0J-3332D01*
G01*
Y56608D02*
G03*
X88608Y53276I3332J0D01*
G01*
X30281Y4701D02*
G03*
X30281Y4701I-557J0D01*
G01*
X10724Y56608D02*
Y59392D01*
X4608Y53276D02*
X7392D01*
X1276Y56608D02*
Y59392D01*
X4608Y62724D02*
X7392D01*
X88608D02*
X91392D01*
X85276Y56608D02*
Y59392D01*
X88608Y53276D02*
X91392D01*
X94724Y56608D02*
Y59392D01*
X47890Y59000D02*
X48047D01*
X47890Y61000D02*
X48047D01*
X23333Y33000D02*
X23490D01*
X23333Y31000D02*
X23490D01*
X6972Y52684D02*
X7287D01*
X6972Y50716D02*
X7287D01*
X3193Y50125D02*
Y53275D01*
X47890Y53000D02*
X48047D01*
X47890Y55000D02*
X48047D01*
X47890Y58000D02*
X48047D01*
X47890Y56000D02*
X48047D01*
X52890Y13000D02*
X53047D01*
X52890Y11000D02*
X53047D01*
X67000Y45890D02*
Y46047D01*
X69000Y45890D02*
Y46047D01*
X14890Y33000D02*
X15047D01*
X14890Y31000D02*
X15047D01*
X33953Y3000D02*
X34110D01*
X33953Y5000D02*
X34110D01*
X87000Y4953D02*
Y5110D01*
X85000Y4953D02*
Y5110D01*
X89000Y13953D02*
Y14110D01*
X87000Y13953D02*
Y14110D01*
X81890Y17000D02*
X82047D01*
X81890Y15000D02*
X82047D01*
X82300Y51921D02*
Y52079D01*
X80300Y51921D02*
Y52079D01*
X86721Y51500D02*
X86879D01*
X86721Y49500D02*
X86879D01*
X73953Y47000D02*
X74110D01*
X73953Y49000D02*
X74110D01*
X12719Y47000D02*
X13218D01*
X12719Y49000D02*
X13218D01*
X5000Y25890D02*
Y26047D01*
X7000Y25890D02*
Y26047D01*
X5000Y33890D02*
Y34047D01*
X7000Y33890D02*
Y34047D01*
X9000Y33890D02*
Y34047D01*
X11000Y33890D02*
Y34047D01*
X47890Y52000D02*
X48047D01*
X47890Y50000D02*
X48047D01*
X52890Y10000D02*
X53047D01*
X52890Y8000D02*
X53047D01*
X73953Y53000D02*
X74110D01*
X73953Y51000D02*
X74110D01*
X90000Y13953D02*
Y14110D01*
X92000Y13953D02*
Y14110D01*
X300Y46425D02*
Y49575D01*
X4079Y47016D02*
X4394D01*
X4079Y48984D02*
X4394D01*
X12781Y43000D02*
X13282D01*
X12781Y45000D02*
X13282D01*
X2193Y42425D02*
Y45575D01*
X5972Y43016D02*
X6287D01*
X5972Y44984D02*
X6287D01*
X18000Y6953D02*
Y7110D01*
X20000Y6953D02*
Y7110D01*
X41900Y12090D02*
Y12247D01*
X39900Y12090D02*
Y12247D01*
X45500Y12021D02*
Y12179D01*
X43500Y12021D02*
Y12179D01*
X56921Y14000D02*
X57079D01*
X56921Y16000D02*
X57079D01*
X63890Y26000D02*
X64047D01*
X63890Y24000D02*
X64047D01*
X63890Y15000D02*
X64047D01*
X63890Y13000D02*
X64047D01*
X21000Y19953D02*
Y20110D01*
X23000Y19953D02*
Y20110D01*
X21000Y8953D02*
Y9110D01*
X23000Y8953D02*
Y9110D01*
X24213Y8835D02*
Y9228D01*
X28937Y8835D02*
Y9228D01*
X32000Y8890D02*
Y9047D01*
X30000Y8890D02*
Y9047D01*
D12*
X6500Y14654D02*
G03*
X6500Y14654I-500J0D01*
G01*
X6449Y64000D02*
G03*
X0Y57551I0J-6449D01*
G01*
X96000Y57551D02*
G03*
X89551Y64000I-6449J0D01*
G01*
X89183Y7D02*
G03*
X96000Y6824I0J6817D01*
G01*
X0Y6429D02*
G03*
X6412Y17I6412J0D01*
G01*
X7969Y6386D02*
Y15048D01*
X4031Y6386D02*
Y15048D01*
X6449Y64000D02*
X11000D01*
X0Y55000D02*
Y57551D01*
X96000Y6824D02*
Y57551D01*
X6412Y17D02*
X89183Y7D01*
X0Y6429D02*
Y55000D01*
X11000Y64000D02*
X89551D01*
X89551Y0D02*
G03*
X96000Y6449I0J6449D01*
G01*
X96005Y57559D02*
G03*
X96000Y57554I0J-5D01*
G01*
X96005Y57559D02*
G03*
X89555Y64008I-6449J0D01*
G01*
X6449Y64000D02*
G03*
X0Y57551I0J-6449D01*
G01*
Y6449D02*
G03*
X6449Y0I6449J0D01*
G01*
X96000Y6449D02*
Y57554D01*
X0Y6449D02*
Y57551D01*
X6449Y0D02*
X89551D01*
X6449Y64000D02*
X89555Y64000D01*
D13*
X94661Y28000D02*
G03*
X94661Y28000I-394J0D01*
G01*
X76866Y2354D02*
Y14165D01*
X75685Y2354D02*
Y14165D01*
Y2354D02*
X76866D01*
X75685Y14165D02*
X76866D01*
X35685Y62165D02*
X36866D01*
X35685Y50354D02*
X36866D01*
X35685D02*
Y62165D01*
X36866Y50354D02*
Y62165D01*
X57095Y43606D02*
Y51874D01*
X64969Y43606D02*
Y51874D01*
X52244Y43614D02*
X54016D01*
Y41842D02*
Y43614D01*
X52244Y18811D02*
X54016D01*
Y20583D01*
X29213Y43614D02*
X30984D01*
X29213Y41842D02*
Y43614D01*
Y18811D02*
Y20583D01*
Y18811D02*
X30984D01*
D14*
X96000Y52000D02*
D03*
D15*
X90134Y24063D02*
Y26209D01*
Y41602D02*
Y43748D01*
X70449Y24063D02*
Y26209D01*
Y41602D02*
Y43748D01*
X87988Y24063D02*
X90134D01*
X87988Y43748D02*
X90134D01*
X70449Y24063D02*
X72594D01*
X70449Y43748D02*
X72594D01*
X41000Y7500D02*
X47000D01*
X41000Y4500D02*
Y7500D01*
Y4500D02*
X47000D01*
Y7500D01*
D16*
X53967Y60966D02*
X53634Y61300D01*
X52967D01*
X52634Y60966D01*
Y59634D01*
X52967Y59300D01*
X53634D01*
X53967Y59634D01*
X55966Y59300D02*
X54634D01*
X55966Y60633D01*
Y60966D01*
X55633Y61300D01*
X54967D01*
X54634Y60966D01*
X57966Y61300D02*
X56633D01*
Y60300D01*
X57299Y60633D01*
X57633D01*
X57966Y60300D01*
Y59634D01*
X57633Y59300D01*
X56966D01*
X56633Y59634D01*
X59567Y55200D02*
X60900Y53200D01*
Y55200D02*
X59567Y53200D01*
X61566D02*
X62233D01*
X61900D01*
Y55200D01*
X61566Y54866D01*
X21334Y61000D02*
Y59334D01*
X21667Y59000D01*
X22334D01*
X22667Y59334D01*
Y61000D01*
X24666D02*
X24000Y60667D01*
X23333Y60000D01*
Y59334D01*
X23666Y59000D01*
X24333D01*
X24666Y59334D01*
Y59667D01*
X24333Y60000D01*
X23333D01*
X23000Y28000D02*
X21667D01*
Y27000D01*
X22333D01*
X21667D01*
Y26000D01*
X23666D02*
X24333D01*
X24000D01*
Y28000D01*
X23666Y27667D01*
D17*
X67000Y41666D02*
X66667Y42000D01*
X66000D01*
X65667Y41666D01*
Y40334D01*
X66000Y40000D01*
X66667D01*
X67000Y40334D01*
X67666Y40000D02*
X68333D01*
X68000D01*
Y42000D01*
X67666Y41666D01*
X13334Y56000D02*
Y54000D01*
X14334D01*
X14667Y54334D01*
Y55667D01*
X14334Y56000D01*
X13334D01*
X15333Y55667D02*
X15666Y56000D01*
X16333D01*
X16666Y55667D01*
Y55333D01*
X16333Y55000D01*
X16000D01*
X16333D01*
X16666Y54667D01*
Y54334D01*
X16333Y54000D01*
X15666D01*
X15333Y54334D01*
X81567Y57666D02*
X81234Y58000D01*
X80567D01*
X80234Y57666D01*
Y56334D01*
X80567Y56000D01*
X81234D01*
X81567Y56334D01*
X82233Y58000D02*
X83566D01*
Y57666D01*
X82233Y56334D01*
Y56000D01*
X91167Y47666D02*
X90834Y48000D01*
X90167D01*
X89834Y47666D01*
Y46334D01*
X90167Y46000D01*
X90834D01*
X91167Y46334D01*
X91833Y46000D02*
X92500D01*
X92167D01*
Y48000D01*
X91833Y47666D01*
X93499Y46000D02*
X94166D01*
X93833D01*
Y48000D01*
X93499Y47666D01*
X79567Y47767D02*
X79234Y48100D01*
X78567D01*
X78234Y47767D01*
Y46434D01*
X78567Y46100D01*
X79234D01*
X79567Y46434D01*
X81566Y48100D02*
X80233D01*
Y47100D01*
X80900Y47433D01*
X81233D01*
X81566Y47100D01*
Y46434D01*
X81233Y46100D01*
X80567D01*
X80233Y46434D01*
X35100Y7867D02*
X34767Y8200D01*
X34101D01*
X33767Y7867D01*
Y6534D01*
X34101Y6200D01*
X34767D01*
X35100Y6534D01*
X37100Y6200D02*
X35767D01*
X37100Y7533D01*
Y7867D01*
X36766Y8200D01*
X36100D01*
X35767Y7867D01*
X37766Y6200D02*
X38433D01*
X38099D01*
Y8200D01*
X37766Y7867D01*
X73234Y17400D02*
Y15734D01*
X73567Y15400D01*
X74234D01*
X74567Y15734D01*
Y17400D01*
X76566Y15400D02*
X75233D01*
X76566Y16733D01*
Y17066D01*
X76233Y17400D01*
X75567D01*
X75233Y17066D01*
X81667Y62000D02*
X81000D01*
X81334D01*
Y60334D01*
X81000Y60000D01*
X80667D01*
X80334Y60334D01*
X83666Y60000D02*
X82333D01*
X83666Y61333D01*
Y61667D01*
X83333Y62000D01*
X82666D01*
X82333Y61667D01*
X64334Y37000D02*
Y35334D01*
X64667Y35000D01*
X65334D01*
X65667Y35334D01*
Y37000D01*
X66333Y36667D02*
X66667Y37000D01*
X67333D01*
X67666Y36667D01*
Y36333D01*
X67333Y36000D01*
X67000D01*
X67333D01*
X67666Y35667D01*
Y35334D01*
X67333Y35000D01*
X66667D01*
X66333Y35334D01*
X11534Y39500D02*
Y41500D01*
X12534D01*
X12867Y41166D01*
Y40500D01*
X12534Y40167D01*
X11534D01*
X12200D02*
X12867Y39500D01*
X14533D02*
Y41500D01*
X13533Y40500D01*
X14866D01*
X52334Y51400D02*
Y49400D01*
X53667D01*
X55666Y51400D02*
X54333D01*
Y50400D01*
X55000Y50733D01*
X55333D01*
X55666Y50400D01*
Y49734D01*
X55333Y49400D01*
X54667D01*
X54333Y49734D01*
X13000Y62000D02*
X12333D01*
X12667D01*
Y60334D01*
X12333Y60000D01*
X12000D01*
X11667Y60334D01*
X13667Y60000D02*
X14333D01*
X14000D01*
Y62000D01*
X13667Y61667D01*
X4534Y41500D02*
Y39500D01*
X5534D01*
X5867Y39834D01*
Y41166D01*
X5534Y41500D01*
X4534D01*
X7866Y39500D02*
X6533D01*
X7866Y40833D01*
Y41166D01*
X7533Y41500D01*
X6866D01*
X6533Y41166D01*
X13667Y53000D02*
Y51000D01*
X14667D01*
X15000Y51334D01*
Y52666D01*
X14667Y53000D01*
X13667D01*
X15666Y51000D02*
X16333D01*
X16000D01*
Y53000D01*
X15666Y52666D01*
X86434Y19667D02*
X86101Y20000D01*
X85434D01*
X85101Y19667D01*
Y18334D01*
X85434Y18000D01*
X86101D01*
X86434Y18334D01*
X87100Y18000D02*
X87767D01*
X87433D01*
Y20000D01*
X87100Y19667D01*
X88766D02*
X89100Y20000D01*
X89766D01*
X90099Y19667D01*
Y18334D01*
X89766Y18000D01*
X89100D01*
X88766Y18334D01*
Y19667D01*
X92767Y20267D02*
X92434Y20600D01*
X91767D01*
X91434Y20267D01*
Y18934D01*
X91767Y18600D01*
X92434D01*
X92767Y18934D01*
X93433D02*
X93766Y18600D01*
X94433D01*
X94766Y18934D01*
Y20267D01*
X94433Y20600D01*
X93766D01*
X93433Y20267D01*
Y19933D01*
X93766Y19600D01*
X94766D01*
X81067Y19667D02*
X80734Y20000D01*
X80067D01*
X79734Y19667D01*
Y18334D01*
X80067Y18000D01*
X80734D01*
X81067Y18334D01*
X81733Y19667D02*
X82067Y20000D01*
X82733D01*
X83066Y19667D01*
Y19333D01*
X82733Y19000D01*
X83066Y18667D01*
Y18334D01*
X82733Y18000D01*
X82067D01*
X81733Y18334D01*
Y18667D01*
X82067Y19000D01*
X81733Y19333D01*
Y19667D01*
X82067Y19000D02*
X82733D01*
X72167Y56666D02*
X71834Y57000D01*
X71167D01*
X70834Y56666D01*
Y55334D01*
X71167Y55000D01*
X71834D01*
X72167Y55334D01*
X73833Y55000D02*
Y57000D01*
X72833Y56000D01*
X74166D01*
X52367Y6466D02*
X52034Y6800D01*
X51367D01*
X51034Y6466D01*
Y5134D01*
X51367Y4800D01*
X52034D01*
X52367Y5134D01*
X53033Y6466D02*
X53367Y6800D01*
X54033D01*
X54366Y6466D01*
Y6133D01*
X54033Y5800D01*
X53700D01*
X54033D01*
X54366Y5467D01*
Y5134D01*
X54033Y4800D01*
X53367D01*
X53033Y5134D01*
X47234Y14067D02*
X46900Y13734D01*
Y13067D01*
X47234Y12734D01*
X48566D01*
X48900Y13067D01*
Y13734D01*
X48566Y14067D01*
X48900Y16066D02*
Y14733D01*
X47567Y16066D01*
X47234D01*
X46900Y15733D01*
Y15067D01*
X47234Y14733D01*
X89567Y6966D02*
X89234Y7300D01*
X88567D01*
X88234Y6966D01*
Y5634D01*
X88567Y5300D01*
X89234D01*
X89567Y5634D01*
X91566Y7300D02*
X90900Y6966D01*
X90233Y6300D01*
Y5634D01*
X90566Y5300D01*
X91233D01*
X91566Y5634D01*
Y5967D01*
X91233Y6300D01*
X90233D01*
X53667Y57867D02*
X53334Y58200D01*
X52667D01*
X52334Y57867D01*
Y56534D01*
X52667Y56200D01*
X53334D01*
X53667Y56534D01*
X55666Y56200D02*
X54334D01*
X55666Y57533D01*
Y57867D01*
X55333Y58200D01*
X54667D01*
X54334Y57867D01*
X56333Y58200D02*
X57666D01*
Y57867D01*
X56333Y56534D01*
Y56200D01*
X53667Y54766D02*
X53334Y55100D01*
X52667D01*
X52334Y54766D01*
Y53434D01*
X52667Y53100D01*
X53334D01*
X53667Y53434D01*
X55666Y53100D02*
X54334D01*
X55666Y54433D01*
Y54766D01*
X55333Y55100D01*
X54667D01*
X54334Y54766D01*
X57666Y55100D02*
X56999Y54766D01*
X56333Y54100D01*
Y53434D01*
X56666Y53100D01*
X57333D01*
X57666Y53434D01*
Y53767D01*
X57333Y54100D01*
X56333D01*
X56234Y26000D02*
X57567Y24000D01*
Y26000D02*
X56234Y24000D01*
X59566D02*
X58233D01*
X59566Y25333D01*
Y25666D01*
X59233Y26000D01*
X58566D01*
X58233Y25666D01*
X23334Y16000D02*
X24667Y14000D01*
Y16000D02*
X23334Y14000D01*
X25333Y15666D02*
X25666Y16000D01*
X26333D01*
X26666Y15666D01*
Y15333D01*
X26333Y15000D01*
X26000D01*
X26333D01*
X26666Y14667D01*
Y14334D01*
X26333Y14000D01*
X25666D01*
X25333Y14334D01*
X24834Y46100D02*
Y44434D01*
X25167Y44100D01*
X25834D01*
X26167Y44434D01*
Y46100D01*
X27833Y44100D02*
Y46100D01*
X26833Y45100D01*
X28166D01*
X17334Y44000D02*
Y46000D01*
X18334D01*
X18667Y45667D01*
Y45000D01*
X18334Y44667D01*
X17334D01*
X18000D02*
X18667Y44000D01*
X19333Y45667D02*
X19667Y46000D01*
X20333D01*
X20666Y45667D01*
Y45333D01*
X20333Y45000D01*
X20000D01*
X20333D01*
X20666Y44667D01*
Y44334D01*
X20333Y44000D01*
X19667D01*
X19333Y44334D01*
X1400Y32434D02*
X3400D01*
Y33767D01*
Y35433D02*
X1400D01*
X2400Y34433D01*
Y35766D01*
X1500Y24534D02*
X3500D01*
Y25867D01*
X1833Y26533D02*
X1500Y26866D01*
Y27533D01*
X1833Y27866D01*
X2167D01*
X2500Y27533D01*
Y27200D01*
Y27533D01*
X2833Y27866D01*
X3166D01*
X3500Y27533D01*
Y26866D01*
X3166Y26533D01*
X42334Y3300D02*
Y1300D01*
X43667D01*
X45666D02*
X44333D01*
X45666Y2633D01*
Y2967D01*
X45333Y3300D01*
X44666D01*
X44333Y2967D01*
X46267Y10900D02*
Y8900D01*
X47600D01*
X48266D02*
X48933D01*
X48600D01*
Y10900D01*
X48266Y10566D01*
X11000Y12410D02*
X9667D01*
Y10410D01*
X11000D01*
X9667Y11410D02*
X10334D01*
X11666Y10410D02*
X12333D01*
X12000D01*
Y12410D01*
X11666Y12077D01*
X10667Y29667D02*
X10334Y30000D01*
X9667D01*
X9334Y29667D01*
Y28334D01*
X9667Y28000D01*
X10334D01*
X10667Y28334D01*
X12666Y28000D02*
X11333D01*
X12666Y29333D01*
Y29667D01*
X12333Y30000D01*
X11667D01*
X11333Y29667D01*
X13333D02*
X13666Y30000D01*
X14333D01*
X14666Y29667D01*
Y29333D01*
X14333Y29000D01*
X13999D01*
X14333D01*
X14666Y28667D01*
Y28334D01*
X14333Y28000D01*
X13666D01*
X13333Y28334D01*
X14167Y36467D02*
X13834Y36800D01*
X13167D01*
X12834Y36467D01*
Y35134D01*
X13167Y34800D01*
X13834D01*
X14167Y35134D01*
X16166Y34800D02*
X14833D01*
X16166Y36133D01*
Y36467D01*
X15833Y36800D01*
X15167D01*
X14833Y36467D01*
X18166Y34800D02*
X16833D01*
X18166Y36133D01*
Y36467D01*
X17833Y36800D01*
X17166D01*
X16833Y36467D01*
X15834Y23666D02*
X15500Y24000D01*
X14834D01*
X14501Y23666D01*
Y22334D01*
X14834Y22000D01*
X15500D01*
X15834Y22334D01*
X16500Y22000D02*
X17167D01*
X16833D01*
Y24000D01*
X16500Y23666D01*
X18166D02*
X18499Y24000D01*
X19166D01*
X19499Y23666D01*
Y23333D01*
X19166Y23000D01*
X19499Y22667D01*
Y22334D01*
X19166Y22000D01*
X18499D01*
X18166Y22334D01*
Y22667D01*
X18499Y23000D01*
X18166Y23333D01*
Y23666D01*
X18499Y23000D02*
X19166D01*
X12834Y3667D02*
X12501Y4000D01*
X11834D01*
X11501Y3667D01*
Y2334D01*
X11834Y2000D01*
X12501D01*
X12834Y2334D01*
X13500Y2000D02*
X14167D01*
X13833D01*
Y4000D01*
X13500Y3667D01*
X15166Y4000D02*
X16499D01*
Y3667D01*
X15166Y2334D01*
Y2000D01*
X36933Y11134D02*
X36600Y10801D01*
Y10134D01*
X36933Y9801D01*
X38266D01*
X38600Y10134D01*
Y10801D01*
X38266Y11134D01*
X38600Y11800D02*
Y12467D01*
Y12133D01*
X36600D01*
X36933Y11800D01*
X38266Y13466D02*
X38600Y13800D01*
Y14466D01*
X38266Y14799D01*
X36933D01*
X36600Y14466D01*
Y13800D01*
X36933Y13466D01*
X37267D01*
X37600Y13800D01*
Y14799D01*
X59767Y11966D02*
X60100Y12299D01*
Y12966D01*
X59767Y13299D01*
X58434D01*
X58100Y12966D01*
Y12299D01*
X58434Y11966D01*
X58100Y11300D02*
Y10633D01*
Y10967D01*
X60100D01*
X59767Y11300D01*
X60100Y8301D02*
X59767Y8967D01*
X59100Y9634D01*
X58434D01*
X58100Y9301D01*
Y8634D01*
X58434Y8301D01*
X58767D01*
X59100Y8634D01*
Y9634D01*
X31634Y14667D02*
X31301Y15000D01*
X30634D01*
X30301Y14667D01*
Y13334D01*
X30634Y13000D01*
X31301D01*
X31634Y13334D01*
X32300Y13000D02*
X32967D01*
X32633D01*
Y15000D01*
X32300Y14667D01*
X35299Y15000D02*
X33966D01*
Y14000D01*
X34633Y14333D01*
X34966D01*
X35299Y14000D01*
Y13334D01*
X34966Y13000D01*
X34299D01*
X33966Y13334D01*
X16834Y14667D02*
X16500Y15000D01*
X15834D01*
X15501Y14667D01*
Y13334D01*
X15834Y13000D01*
X16500D01*
X16834Y13334D01*
X17500Y13000D02*
X18167D01*
X17833D01*
Y15000D01*
X17500Y14667D01*
X20166Y13000D02*
Y15000D01*
X19166Y14000D01*
X20499D01*
X62834Y9667D02*
X62501Y10000D01*
X61834D01*
X61501Y9667D01*
Y8334D01*
X61834Y8000D01*
X62501D01*
X62834Y8334D01*
X63500Y8000D02*
X64167D01*
X63833D01*
Y10000D01*
X63500Y9667D01*
X65166D02*
X65500Y10000D01*
X66166D01*
X66499Y9667D01*
Y9333D01*
X66166Y9000D01*
X65833D01*
X66166D01*
X66499Y8667D01*
Y8334D01*
X66166Y8000D01*
X65500D01*
X65166Y8334D01*
X62734Y29067D02*
X62401Y29400D01*
X61734D01*
X61401Y29067D01*
Y27734D01*
X61734Y27400D01*
X62401D01*
X62734Y27734D01*
X63400Y27400D02*
X64067D01*
X63733D01*
Y29400D01*
X63400Y29067D01*
X66399Y27400D02*
X65066D01*
X66399Y28733D01*
Y29067D01*
X66066Y29400D01*
X65399D01*
X65066Y29067D01*
M02*
