G04*
G04 #@! TF.GenerationSoftware,Altium Limited,Altium Designer,21.3.2 (30)*
G04*
G04 Layer_Color=32896*
%FSLAX25Y25*%
%MOIN*%
G70*
G04*
G04 #@! TF.SameCoordinates,A34A3340-7ABE-472C-AE94-605A2DEBF9E2*
G04*
G04*
G04 #@! TF.FilePolarity,Positive*
G04*
G01*
G75*
%ADD10C,0.00984*%
%ADD11C,0.00600*%
%ADD12C,0.01000*%
%ADD13C,0.00787*%
%ADD17C,0.00200*%
%ADD54C,0.00400*%
D10*
X67279Y48900D02*
G03*
X67279Y48900I-492J0D01*
G01*
X46480Y15559D02*
G03*
X46480Y15559I-492J0D01*
G01*
X49492Y63445D02*
G03*
X49492Y63445I-492J0D01*
G01*
D11*
X17000Y52953D02*
Y53110D01*
X15000Y52953D02*
Y53110D01*
X50000Y20719D02*
Y21218D01*
X52000Y20719D02*
Y21218D01*
X83921Y27000D02*
X84079D01*
X83921Y29000D02*
X84079D01*
X83890Y23000D02*
X84047D01*
X83890Y25000D02*
X84047D01*
X62953Y15000D02*
X63110D01*
X62953Y17000D02*
X63110D01*
X69718Y9500D02*
X70218D01*
X69718Y11500D02*
X70218D01*
X76278Y11032D02*
X76778D01*
X76278Y9031D02*
X76778D01*
X20000Y52953D02*
Y53110D01*
X18000Y52953D02*
Y53110D01*
X69890Y53000D02*
X70047D01*
X69890Y55000D02*
X70047D01*
X69890Y56000D02*
X70047D01*
X69890Y58000D02*
X70047D01*
X61718Y44000D02*
X62218D01*
X61718Y46000D02*
X62218D01*
X74382Y7000D02*
X74882D01*
X74382Y5000D02*
X74882D01*
X69100Y14981D02*
Y15482D01*
X67100Y14981D02*
Y15482D01*
X31520Y50301D02*
Y50801D01*
X33520Y50301D02*
Y50801D01*
X26000Y53953D02*
Y54110D01*
X28000Y53953D02*
Y54110D01*
X25000Y53953D02*
Y54110D01*
X23000Y53953D02*
Y54110D01*
X68890Y33000D02*
X69047D01*
X68890Y31000D02*
X69047D01*
X31000Y18781D02*
Y19282D01*
X33000Y18781D02*
Y19282D01*
D12*
X85176Y36529D02*
G03*
X88508Y33197I3332J0D01*
G01*
X91292D02*
G03*
X94624Y36529I0J3332D01*
G01*
Y59392D02*
G03*
X91292Y62724I-3332J0D01*
G01*
X88508D02*
G03*
X85176Y59392I0J-3332D01*
G01*
X87314Y21000D02*
G03*
X83900Y17586I0J-3414D01*
G01*
X93900D02*
G03*
X90486Y21000I-3414J0D01*
G01*
Y2000D02*
G03*
X93900Y5414I0J3414D01*
G01*
X83900D02*
G03*
X87314Y2000I3414J0D01*
G01*
X96000Y57551D02*
G03*
X89551Y64000I-6449J0D01*
G01*
X6449D02*
G03*
X0Y57551I0J-6449D01*
G01*
X89172Y0D02*
G03*
X96000Y6828I0J6828D01*
G01*
X0Y6449D02*
G03*
X6449Y0I6449J0D01*
G01*
X88508Y33197D02*
X91292D01*
X85176Y36529D02*
Y59392D01*
X88508Y62724D02*
X91292D01*
X94624Y36529D02*
Y59392D01*
X93900Y5414D02*
Y17586D01*
X87314Y21000D02*
X90486D01*
X83900Y5414D02*
Y17586D01*
X87314Y2000D02*
X90486D01*
X96000Y6828D02*
Y57551D01*
X0Y6449D02*
Y7450D01*
X6449Y0D02*
X7450D01*
X6449Y64000D02*
X89551D01*
X0Y7450D02*
Y57551D01*
X7450Y0D02*
X89172D01*
X89551D02*
G03*
X96000Y6449I0J6449D01*
G01*
X96005Y57559D02*
G03*
X96000Y57554I0J-5D01*
G01*
X96005Y57559D02*
G03*
X89555Y64008I-6449J0D01*
G01*
X6449Y64000D02*
G03*
X0Y57551I0J-6449D01*
G01*
Y6449D02*
G03*
X6449Y0I6449J0D01*
G01*
X96000Y6449D02*
Y57554D01*
X0Y6449D02*
Y57551D01*
X6449Y0D02*
X89551D01*
X6449Y64000D02*
X89555Y64000D01*
D13*
X53598Y56282D02*
X65802D01*
X53598Y52345D02*
X65802D01*
X53598D02*
Y56282D01*
X65802Y52345D02*
Y56282D01*
X35063Y18315D02*
X42937D01*
X35063Y7685D02*
X42937D01*
X1576Y51910D02*
Y54765D01*
X10217Y51910D02*
X13544D01*
X1576D02*
X4902D01*
X13544D02*
Y54765D01*
X6477Y57422D02*
X8642D01*
X41224Y50157D02*
Y62362D01*
X45161Y50157D02*
Y62362D01*
X41224Y50157D02*
X45161D01*
X41224Y62362D02*
X45161D01*
D17*
X82766Y3600D02*
Y1600D01*
X81433D01*
X79434Y3600D02*
X80100Y3266D01*
X80767Y2600D01*
Y1934D01*
X80433Y1600D01*
X79767D01*
X79434Y1934D01*
Y2267D01*
X79767Y2600D01*
X80767D01*
X77466Y26000D02*
Y24334D01*
X77133Y24000D01*
X76466D01*
X76133Y24334D01*
Y26000D01*
X74134D02*
X75467D01*
Y25000D01*
X74800Y25333D01*
X74467D01*
X74134Y25000D01*
Y24334D01*
X74467Y24000D01*
X75134D01*
X75467Y24334D01*
X67066Y6800D02*
Y8800D01*
X66066D01*
X65733Y8467D01*
Y7800D01*
X66066Y7467D01*
X67066D01*
X66400D02*
X65733Y6800D01*
X65067Y8467D02*
X64733Y8800D01*
X64067D01*
X63734Y8467D01*
Y8133D01*
X64067Y7800D01*
X63734Y7467D01*
Y7134D01*
X64067Y6800D01*
X64733D01*
X65067Y7134D01*
Y7467D01*
X64733Y7800D01*
X65067Y8133D01*
Y8467D01*
X64733Y7800D02*
X64067D01*
X57333Y16466D02*
X57666Y16800D01*
X58333D01*
X58666Y16466D01*
Y15134D01*
X58333Y14800D01*
X57666D01*
X57333Y15134D01*
X55334Y14800D02*
X56666D01*
X55334Y16133D01*
Y16466D01*
X55667Y16800D01*
X56333D01*
X56666Y16466D01*
X54667D02*
X54334Y16800D01*
X53667D01*
X53334Y16466D01*
Y16133D01*
X53667Y15800D01*
X53334Y15467D01*
Y15134D01*
X53667Y14800D01*
X54334D01*
X54667Y15134D01*
Y15467D01*
X54334Y15800D01*
X54667Y16133D01*
Y16466D01*
X54334Y15800D02*
X53667D01*
X91733Y24466D02*
X92066Y24800D01*
X92733D01*
X93066Y24466D01*
Y23134D01*
X92733Y22800D01*
X92066D01*
X91733Y23134D01*
X89734Y22800D02*
X91066D01*
X89734Y24133D01*
Y24466D01*
X90067Y24800D01*
X90733D01*
X91066Y24466D01*
X89067Y23134D02*
X88734Y22800D01*
X88067D01*
X87734Y23134D01*
Y24466D01*
X88067Y24800D01*
X88734D01*
X89067Y24466D01*
Y24133D01*
X88734Y23800D01*
X87734D01*
X91633Y30066D02*
X91966Y30400D01*
X92633D01*
X92966Y30066D01*
Y28734D01*
X92633Y28400D01*
X91966D01*
X91633Y28734D01*
X89634Y28400D02*
X90966D01*
X89634Y29733D01*
Y30066D01*
X89967Y30400D01*
X90633D01*
X90966Y30066D01*
X87967Y28400D02*
Y30400D01*
X88967Y29400D01*
X87634D01*
X75866Y1500D02*
Y3500D01*
X74866D01*
X74533Y3167D01*
Y2500D01*
X74866Y2167D01*
X75866D01*
X75200D02*
X74533Y1500D01*
X73867Y3500D02*
X72534D01*
Y3167D01*
X73867Y1834D01*
Y1500D01*
X65566Y11700D02*
Y13700D01*
X64566D01*
X64233Y13366D01*
Y12700D01*
X64566Y12367D01*
X65566D01*
X64900D02*
X64233Y11700D01*
X62234Y13700D02*
X62900Y13366D01*
X63567Y12700D01*
Y12034D01*
X63234Y11700D01*
X62567D01*
X62234Y12034D01*
Y12367D01*
X62567Y12700D01*
X63567D01*
X81666Y6000D02*
Y8000D01*
X80666D01*
X80333Y7666D01*
Y7000D01*
X80666Y6667D01*
X81666D01*
X81000D02*
X80333Y6000D01*
X78334Y8000D02*
X79667D01*
Y7000D01*
X79000Y7333D01*
X78667D01*
X78334Y7000D01*
Y6334D01*
X78667Y6000D01*
X79334D01*
X79667Y6334D01*
X29566Y19000D02*
Y21000D01*
X28566D01*
X28233Y20666D01*
Y20000D01*
X28566Y19667D01*
X29566D01*
X28900D02*
X28233Y19000D01*
X26234D02*
X27567D01*
X26234Y20333D01*
Y20666D01*
X26567Y21000D01*
X27233D01*
X27567Y20666D01*
X40733Y6100D02*
Y4434D01*
X40400Y4100D01*
X39733D01*
X39400Y4434D01*
Y6100D01*
X38734Y4100D02*
X38067D01*
X38400D01*
Y6100D01*
X38734Y5767D01*
X55933Y19200D02*
Y21200D01*
X54933D01*
X54600Y20866D01*
Y20200D01*
X54933Y19867D01*
X55933D01*
X55266D02*
X54600Y19200D01*
X53934D02*
X53267D01*
X53600D01*
Y21200D01*
X53934Y20866D01*
X69266Y47000D02*
Y45334D01*
X68933Y45000D01*
X68266D01*
X67933Y45334D01*
Y47000D01*
X67267Y45334D02*
X66934Y45000D01*
X66267D01*
X65934Y45334D01*
Y46666D01*
X66267Y47000D01*
X66934D01*
X67267Y46666D01*
Y46333D01*
X66934Y46000D01*
X65934D01*
X70533Y61466D02*
X70866Y61800D01*
X71533D01*
X71866Y61466D01*
Y60134D01*
X71533Y59800D01*
X70866D01*
X70533Y60134D01*
X69866Y61466D02*
X69533Y61800D01*
X68867D01*
X68534Y61466D01*
Y61133D01*
X68867Y60800D01*
X69200D01*
X68867D01*
X68534Y60467D01*
Y60134D01*
X68867Y59800D01*
X69533D01*
X69866Y60134D01*
X66534Y61800D02*
X67867D01*
Y60800D01*
X67201Y61133D01*
X66867D01*
X66534Y60800D01*
Y60134D01*
X66867Y59800D01*
X67534D01*
X67867Y60134D01*
X75933Y51166D02*
X76266Y51500D01*
X76933D01*
X77266Y51166D01*
Y49834D01*
X76933Y49500D01*
X76266D01*
X75933Y49834D01*
X75266Y51166D02*
X74933Y51500D01*
X74267D01*
X73934Y51166D01*
Y50833D01*
X74267Y50500D01*
X74600D01*
X74267D01*
X73934Y50167D01*
Y49834D01*
X74267Y49500D01*
X74933D01*
X75266Y49834D01*
X72267Y49500D02*
Y51500D01*
X73267Y50500D01*
X71934D01*
X20000Y58666D02*
X20333Y59000D01*
X20999D01*
X21333Y58666D01*
Y57334D01*
X20999Y57000D01*
X20333D01*
X20000Y57334D01*
X19333Y58666D02*
X19000Y59000D01*
X18334D01*
X18000Y58666D01*
Y58333D01*
X18334Y58000D01*
X18667D01*
X18334D01*
X18000Y57667D01*
Y57334D01*
X18334Y57000D01*
X19000D01*
X19333Y57334D01*
X17334Y57000D02*
X16667D01*
X17001D01*
Y59000D01*
X17334Y58666D01*
X15333Y47666D02*
X15666Y48000D01*
X16333D01*
X16666Y47666D01*
Y46334D01*
X16333Y46000D01*
X15666D01*
X15333Y46334D01*
X14667Y47666D02*
X14333Y48000D01*
X13667D01*
X13333Y47666D01*
Y47333D01*
X13667Y47000D01*
X14000D01*
X13667D01*
X13333Y46667D01*
Y46334D01*
X13667Y46000D01*
X14333D01*
X14667Y46334D01*
X12667Y47666D02*
X12334Y48000D01*
X11667D01*
X11334Y47666D01*
Y46334D01*
X11667Y46000D01*
X12334D01*
X12667Y46334D01*
Y47666D01*
X26333Y60667D02*
X26666Y61000D01*
X27333D01*
X27666Y60667D01*
Y59334D01*
X27333Y59000D01*
X26666D01*
X26333Y59334D01*
X25666Y60667D02*
X25333Y61000D01*
X24667D01*
X24333Y60667D01*
Y60333D01*
X24667Y60000D01*
X25000D01*
X24667D01*
X24333Y59667D01*
Y59334D01*
X24667Y59000D01*
X25333D01*
X25666Y59334D01*
X23667Y60667D02*
X23334Y61000D01*
X22667D01*
X22334Y60667D01*
Y60333D01*
X22667Y60000D01*
X23001D01*
X22667D01*
X22334Y59667D01*
Y59334D01*
X22667Y59000D01*
X23334D01*
X23667Y59334D01*
X28333Y48667D02*
X28666Y49000D01*
X29333D01*
X29666Y48667D01*
Y47334D01*
X29333Y47000D01*
X28666D01*
X28333Y47334D01*
X27666Y48667D02*
X27333Y49000D01*
X26667D01*
X26334Y48667D01*
Y48333D01*
X26667Y48000D01*
X27000D01*
X26667D01*
X26334Y47667D01*
Y47334D01*
X26667Y47000D01*
X27333D01*
X27666Y47334D01*
X24334Y47000D02*
X25667D01*
X24334Y48333D01*
Y48667D01*
X24667Y49000D01*
X25334D01*
X25667Y48667D01*
X5466Y49400D02*
Y47734D01*
X5133Y47400D01*
X4466D01*
X4133Y47734D01*
Y49400D01*
X3467D02*
X2134D01*
Y49066D01*
X3467Y47734D01*
Y47400D01*
X44166Y47100D02*
Y45434D01*
X43833Y45100D01*
X43166D01*
X42833Y45434D01*
Y47100D01*
X42167Y46766D02*
X41833Y47100D01*
X41167D01*
X40834Y46766D01*
Y46433D01*
X41167Y46100D01*
X40834Y45767D01*
Y45434D01*
X41167Y45100D01*
X41833D01*
X42167Y45434D01*
Y45767D01*
X41833Y46100D01*
X42167Y46433D01*
Y46766D01*
X41833Y46100D02*
X41167D01*
X64799Y40900D02*
Y42900D01*
X63800D01*
X63466Y42566D01*
Y41900D01*
X63800Y41567D01*
X64799D01*
X64133D02*
X63466Y40900D01*
X62800D02*
X62133D01*
X62467D01*
Y42900D01*
X62800Y42566D01*
X61134D02*
X60800Y42900D01*
X60134D01*
X59801Y42566D01*
Y41234D01*
X60134Y40900D01*
X60800D01*
X61134Y41234D01*
Y42566D01*
X34366Y44500D02*
Y46500D01*
X33366D01*
X33033Y46167D01*
Y45500D01*
X33366Y45167D01*
X34366D01*
X33700D02*
X33033Y44500D01*
X32367Y44834D02*
X32034Y44500D01*
X31367D01*
X31034Y44834D01*
Y46167D01*
X31367Y46500D01*
X32034D01*
X32367Y46167D01*
Y45833D01*
X32034Y45500D01*
X31034D01*
X82233Y41100D02*
X82900D01*
X82566D01*
Y39434D01*
X82900Y39100D01*
X83233D01*
X83566Y39434D01*
X81567Y40767D02*
X81234Y41100D01*
X80567D01*
X80234Y40767D01*
Y40433D01*
X80567Y40100D01*
X80900D01*
X80567D01*
X80234Y39767D01*
Y39434D01*
X80567Y39100D01*
X81234D01*
X81567Y39434D01*
X70533Y35967D02*
X70866Y36300D01*
X71533D01*
X71866Y35967D01*
Y34634D01*
X71533Y34300D01*
X70866D01*
X70533Y34634D01*
X68534Y34300D02*
X69866D01*
X68534Y35633D01*
Y35967D01*
X68867Y36300D01*
X69533D01*
X69866Y35967D01*
X67867D02*
X67534Y36300D01*
X66867D01*
X66534Y35967D01*
Y34634D01*
X66867Y34300D01*
X67534D01*
X67867Y34634D01*
Y35967D01*
D54*
X82661Y23047D02*
G03*
X82661Y23047I-1118J0D01*
G01*
X81543Y11047D02*
Y23047D01*
X69543Y11047D02*
Y23047D01*
X81543D01*
X69543Y11047D02*
X81543D01*
M02*
