G04*
G04 #@! TF.GenerationSoftware,Altium Limited,Altium Designer,21.3.2 (30)*
G04*
G04 Layer_Color=8388736*
%FSLAX25Y25*%
%MOIN*%
G70*
G04*
G04 #@! TF.SameCoordinates,A34A3340-7ABE-472C-AE94-605A2DEBF9E2*
G04*
G04*
G04 #@! TF.FilePolarity,Negative*
G04*
G01*
G75*
%ADD12C,0.01000*%
%ADD24R,0.02756X0.02756*%
%ADD34R,0.05918X0.03556*%
G04:AMPARAMS|DCode=35|XSize=83mil|YSize=83mil|CornerRadius=22.75mil|HoleSize=0mil|Usage=FLASHONLY|Rotation=0.000|XOffset=0mil|YOffset=0mil|HoleType=Round|Shape=RoundedRectangle|*
%AMROUNDEDRECTD35*
21,1,0.08300,0.03750,0,0,0.0*
21,1,0.03750,0.08300,0,0,0.0*
1,1,0.04550,0.01875,-0.01875*
1,1,0.04550,-0.01875,-0.01875*
1,1,0.04550,-0.01875,0.01875*
1,1,0.04550,0.01875,0.01875*
%
%ADD35ROUNDEDRECTD35*%
%ADD36R,0.06142X0.03150*%
%ADD37R,0.13595X0.13595*%
G04:AMPARAMS|DCode=38|XSize=46.98mil|YSize=18.63mil|CornerRadius=5.33mil|HoleSize=0mil|Usage=FLASHONLY|Rotation=180.000|XOffset=0mil|YOffset=0mil|HoleType=Round|Shape=RoundedRectangle|*
%AMROUNDEDRECTD38*
21,1,0.04698,0.00797,0,0,180.0*
21,1,0.03632,0.01863,0,0,180.0*
1,1,0.01066,-0.01816,0.00399*
1,1,0.01066,0.01816,0.00399*
1,1,0.01066,0.01816,-0.00399*
1,1,0.01066,-0.01816,-0.00399*
%
%ADD38ROUNDEDRECTD38*%
G04:AMPARAMS|DCode=39|XSize=46.98mil|YSize=18.63mil|CornerRadius=5.33mil|HoleSize=0mil|Usage=FLASHONLY|Rotation=270.000|XOffset=0mil|YOffset=0mil|HoleType=Round|Shape=RoundedRectangle|*
%AMROUNDEDRECTD39*
21,1,0.04698,0.00797,0,0,270.0*
21,1,0.03632,0.01863,0,0,270.0*
1,1,0.01066,-0.00399,-0.01816*
1,1,0.01066,-0.00399,0.01816*
1,1,0.01066,0.00399,0.01816*
1,1,0.01066,0.00399,-0.01816*
%
%ADD39ROUNDEDRECTD39*%
%ADD40R,0.03162X0.03162*%
%ADD41R,0.01981X0.06509*%
%ADD42R,0.02769X0.03556*%
%ADD43R,0.03162X0.03162*%
%ADD44R,0.18910X0.18910*%
%ADD45O,0.01587X0.04540*%
%ADD46O,0.04540X0.01587*%
%ADD47R,0.02769X0.03162*%
%ADD48R,0.03300X0.04800*%
%ADD49R,0.04961X0.02736*%
%ADD50R,0.02646X0.03039*%
%ADD51C,0.03300*%
D12*
X89551D02*
G03*
X96000Y6449I0J6449D01*
G01*
X96005Y57559D02*
G03*
X96000Y57554I0J-5D01*
G01*
X96005Y57559D02*
G03*
X89555Y64008I-6449J0D01*
G01*
X6449Y64000D02*
G03*
X0Y57551I0J-6449D01*
G01*
Y6449D02*
G03*
X6449Y0I6449J0D01*
G01*
X96000Y6449D02*
Y57554D01*
X0Y6449D02*
Y57551D01*
X6449Y0D02*
X89551D01*
X6449Y64000D02*
X89555Y64000D01*
D24*
X63000Y44000D02*
D03*
Y51087D02*
D03*
X59063D02*
D03*
Y44000D02*
D03*
D34*
X81000Y12000D02*
D03*
Y4520D02*
D03*
X71551D02*
D03*
Y8260D02*
D03*
Y12000D02*
D03*
X31551Y60000D02*
D03*
Y56260D02*
D03*
Y52520D02*
D03*
X41000D02*
D03*
Y60000D02*
D03*
D35*
X6000Y58000D02*
D03*
X90000D02*
D03*
D36*
X6000Y4000D02*
D03*
Y17410D02*
D03*
D37*
X80291Y33906D02*
D03*
D38*
X71000Y28000D02*
D03*
Y29969D02*
D03*
Y31937D02*
D03*
Y33906D02*
D03*
Y35874D02*
D03*
Y37843D02*
D03*
Y39811D02*
D03*
X89583D02*
D03*
Y37843D02*
D03*
Y35874D02*
D03*
Y33906D02*
D03*
Y31937D02*
D03*
Y29969D02*
D03*
Y28000D02*
D03*
D39*
X86197Y24614D02*
D03*
X84228D02*
D03*
X82260D02*
D03*
X80291D02*
D03*
X78323D02*
D03*
X76354D02*
D03*
X74386D02*
D03*
Y43197D02*
D03*
X76354D02*
D03*
X78323D02*
D03*
X80291D02*
D03*
X82260D02*
D03*
X84228D02*
D03*
X86197D02*
D03*
D40*
X49937Y60000D02*
D03*
X46000D02*
D03*
X25823Y32000D02*
D03*
X21000D02*
D03*
X49937Y54000D02*
D03*
X46000D02*
D03*
Y57000D02*
D03*
X49937D02*
D03*
X51000Y12000D02*
D03*
X54937D02*
D03*
X13000Y32000D02*
D03*
X16937D02*
D03*
X36000Y4000D02*
D03*
X32063D02*
D03*
X80000Y16000D02*
D03*
X83937D02*
D03*
X84832Y50500D02*
D03*
X88769D02*
D03*
X76000Y48000D02*
D03*
X72063D02*
D03*
X49937Y51000D02*
D03*
X46000D02*
D03*
X51000Y9000D02*
D03*
X54937D02*
D03*
X72063Y52000D02*
D03*
X76000D02*
D03*
X58969Y15000D02*
D03*
X55032D02*
D03*
X62000Y25000D02*
D03*
X65937D02*
D03*
X62000Y14000D02*
D03*
X65937D02*
D03*
D41*
X23411Y32000D02*
D03*
D42*
X5260Y51700D02*
D03*
X9000D02*
D03*
X6107Y48000D02*
D03*
X2367D02*
D03*
X8000Y44000D02*
D03*
X4260D02*
D03*
D43*
X68000D02*
D03*
Y47937D02*
D03*
X86000Y7000D02*
D03*
Y3063D02*
D03*
X88000Y16000D02*
D03*
Y12063D02*
D03*
X81300Y53969D02*
D03*
Y50032D02*
D03*
X6000Y27937D02*
D03*
Y24000D02*
D03*
Y35937D02*
D03*
Y32000D02*
D03*
X10000D02*
D03*
Y35937D02*
D03*
X91000Y12063D02*
D03*
Y16000D02*
D03*
X19000Y5063D02*
D03*
Y9000D02*
D03*
X40900Y14137D02*
D03*
Y10200D02*
D03*
X44500Y10131D02*
D03*
Y14069D02*
D03*
X22000Y18063D02*
D03*
Y22000D02*
D03*
Y7063D02*
D03*
Y11000D02*
D03*
X31000Y10937D02*
D03*
Y7000D02*
D03*
D44*
X41614Y31213D02*
D03*
D45*
X40827Y42827D02*
D03*
X48701D02*
D03*
Y19598D02*
D03*
X40827D02*
D03*
X32953Y42827D02*
D03*
Y19598D02*
D03*
X50276Y42827D02*
D03*
Y19598D02*
D03*
X42402Y42827D02*
D03*
X43976D02*
D03*
X45551D02*
D03*
X47126D02*
D03*
Y19598D02*
D03*
X45551D02*
D03*
X43976D02*
D03*
X42402D02*
D03*
X34528Y42827D02*
D03*
X36102D02*
D03*
X37677D02*
D03*
X39252D02*
D03*
Y19598D02*
D03*
X37677D02*
D03*
X36102D02*
D03*
X34528D02*
D03*
D46*
X53228Y38299D02*
D03*
Y30425D02*
D03*
Y22551D02*
D03*
X30000Y30425D02*
D03*
Y38299D02*
D03*
Y22551D02*
D03*
X53228Y39874D02*
D03*
Y36724D02*
D03*
Y35150D02*
D03*
Y33575D02*
D03*
Y32000D02*
D03*
Y28850D02*
D03*
Y27276D02*
D03*
Y25701D02*
D03*
Y24126D02*
D03*
X30000Y39874D02*
D03*
Y32000D02*
D03*
Y33575D02*
D03*
Y35150D02*
D03*
Y36724D02*
D03*
Y24126D02*
D03*
Y25701D02*
D03*
Y27276D02*
D03*
Y28850D02*
D03*
D47*
X14937Y48000D02*
D03*
X11000D02*
D03*
X15000Y44000D02*
D03*
X11063D02*
D03*
D48*
X47000Y6000D02*
D03*
X41000D02*
D03*
D49*
X60200Y19072D02*
D03*
Y22300D02*
D03*
D50*
X28150Y7063D02*
D03*
Y11000D02*
D03*
X25000D02*
D03*
Y7063D02*
D03*
D51*
X22150Y14980D02*
D03*
X12000Y27000D02*
D03*
X89900Y46000D02*
D03*
X58200Y5100D02*
D03*
X71551Y8260D02*
D03*
X74400Y60100D02*
D03*
X68000Y50700D02*
D03*
X64400Y19700D02*
D03*
X69000Y20100D02*
D03*
X24700Y3900D02*
D03*
X52900Y2500D02*
D03*
X66100Y5100D02*
D03*
X62500Y9300D02*
D03*
X58200Y10300D02*
D03*
X15500Y35800D02*
D03*
X17300Y60000D02*
D03*
X12000Y52700D02*
D03*
X21400Y51100D02*
D03*
X89600Y4300D02*
D03*
X88900Y9000D02*
D03*
X78100Y57900D02*
D03*
X56980Y54850D02*
D03*
X51000Y47000D02*
D03*
X60000Y59000D02*
D03*
X47000Y47000D02*
D03*
X54934Y43850D02*
D03*
X58000Y40000D02*
D03*
X51000Y15514D02*
D03*
X21000Y44000D02*
D03*
X2350Y38609D02*
D03*
X26850Y14606D02*
D03*
X78000Y29000D02*
D03*
X77000Y35000D02*
D03*
X18000Y27000D02*
D03*
X16000Y20000D02*
D03*
Y13000D02*
D03*
X93400Y26100D02*
D03*
X63587Y31980D02*
D03*
X24692Y38692D02*
D03*
X18000Y48000D02*
D03*
X82530Y7869D02*
D03*
X69000Y24000D02*
D03*
X23000Y48000D02*
D03*
X2350Y52000D02*
D03*
X39000Y48000D02*
D03*
X36614Y37213D02*
D03*
X46614D02*
D03*
X41614D02*
D03*
X36614Y31213D02*
D03*
Y25213D02*
D03*
X41614D02*
D03*
X46614D02*
D03*
Y31213D02*
D03*
X41614D02*
D03*
M02*
