M48
;Layer_Color=9474304
;FILE_FORMAT=2:5
INCH,LZ
;TYPE=PLATED
T1F00S00C0.01200
%
T01
X00247Y00039
X002685Y0014606
X002215Y001498
X0016Y0013
Y002
X0018Y0027
X0012
X00155Y00358
X0024692Y0038692
X0021Y0044
X0023Y0048
X00214Y00511
X0018Y0048
X0012Y00527
X000235Y0052
Y0038609
X0036614Y0037213
X0041614
X0046614
Y0031213
X0041614
X0036614
Y0025213
X0041614
X0046614
X0051Y0015514
X00582Y00103
Y00051
X00529Y00025
X00661Y00051
X00625Y00093
X0071551Y000826
X008253Y0007869
X00889Y0009
X00896Y00043
X00934Y00261
X0078Y0029
X0077Y0035
X0063587Y003198
X00644Y00197
X0069Y00201
Y0024
X0058Y004
X0054934Y004385
X0051Y0047
X0047
X0039Y0048
X005698Y005485
X006Y0059
X00744Y00601
X00781Y00579
X0068Y00507
X00899Y0046
X00173Y006
M30
