G04*
G04 #@! TF.GenerationSoftware,Altium Limited,Altium Designer,21.3.2 (30)*
G04*
G04 Layer_Physical_Order=2*
G04 Layer_Color=65280*
%FSLAX44Y44*%
%MOMM*%
G71*
G04*
G04 #@! TF.SameCoordinates,9234EC1E-5B27-41C9-997F-A59CE03DEA51*
G04*
G04*
G04 #@! TF.FilePolarity,Positive*
G04*
G01*
G75*
%ADD10C,0.2540*%
%ADD15C,0.0500*%
%ADD42C,2.5499*%
%ADD43C,3.1501*%
%ADD44C,1.0000*%
%ADD45R,1.5500X1.5500*%
%ADD46C,1.5500*%
%ADD47C,1.3000*%
%ADD48C,1.9050*%
%ADD49C,4.0000*%
%ADD50C,0.6350*%
G36*
X998243Y759311D02*
X1001840Y758220D01*
X1005156Y756447D01*
X1008062Y754062D01*
X1010447Y751156D01*
X1012219Y747840D01*
X1013311Y744243D01*
X1013676Y740535D01*
X1013669Y740501D01*
Y275499D01*
X1013676Y275465D01*
X1013311Y271757D01*
X1012219Y268160D01*
X1010447Y264844D01*
X1008062Y261938D01*
X1005156Y259553D01*
X1001840Y257780D01*
X998243Y256689D01*
X994535Y256324D01*
X994501Y256331D01*
X276860D01*
X276804Y256320D01*
X272852Y256709D01*
X268997Y257878D01*
X265445Y259777D01*
X262332Y262332D01*
X259777Y265445D01*
X257878Y268997D01*
X256709Y272852D01*
X256320Y276804D01*
X256331Y276860D01*
Y740501D01*
X256324Y740535D01*
X256689Y744243D01*
X257780Y747840D01*
X259553Y751156D01*
X261938Y754062D01*
X264844Y756447D01*
X268160Y758220D01*
X271757Y759311D01*
X275465Y759676D01*
X275499Y759669D01*
X994501D01*
X994535Y759676D01*
X998243Y759311D01*
D02*
G37*
%LPC*%
G36*
X610870Y752420D02*
Y748030D01*
X615260D01*
X614445Y749997D01*
X612837Y751605D01*
X610870Y752420D01*
D02*
G37*
G36*
X608330D02*
X606363Y751605D01*
X604755Y749997D01*
X603940Y748030D01*
X608330D01*
Y752420D01*
D02*
G37*
G36*
X773430Y749880D02*
Y745490D01*
X777820D01*
X777005Y747457D01*
X775397Y749065D01*
X773430Y749880D01*
D02*
G37*
G36*
X770890D02*
X768923Y749065D01*
X767315Y747457D01*
X766500Y745490D01*
X770890D01*
Y749880D01*
D02*
G37*
G36*
X448310Y747340D02*
Y742950D01*
X452700D01*
X451885Y744917D01*
X450277Y746525D01*
X448310Y747340D01*
D02*
G37*
G36*
X445770D02*
X443803Y746525D01*
X442195Y744917D01*
X441380Y742950D01*
X445770D01*
Y747340D01*
D02*
G37*
G36*
X615260Y745490D02*
X610870D01*
Y741100D01*
X612837Y741915D01*
X614445Y743523D01*
X615260Y745490D01*
D02*
G37*
G36*
X608330D02*
X603940D01*
X604755Y743523D01*
X606363Y741915D01*
X608330Y741100D01*
Y745490D01*
D02*
G37*
G36*
X938530Y744800D02*
Y740410D01*
X942920D01*
X942105Y742377D01*
X940497Y743985D01*
X938530Y744800D01*
D02*
G37*
G36*
X935990D02*
X934023Y743985D01*
X932415Y742377D01*
X931600Y740410D01*
X935990D01*
Y744800D01*
D02*
G37*
G36*
X777820Y742950D02*
X773430D01*
Y738560D01*
X775397Y739375D01*
X777005Y740983D01*
X777820Y742950D01*
D02*
G37*
G36*
X770890D02*
X766500D01*
X767315Y740983D01*
X768923Y739375D01*
X770890Y738560D01*
Y742950D01*
D02*
G37*
G36*
X452700Y740410D02*
X448310D01*
Y736020D01*
X450277Y736835D01*
X451885Y738443D01*
X452700Y740410D01*
D02*
G37*
G36*
X445770D02*
X441380D01*
X442195Y738443D01*
X443803Y736835D01*
X445770Y736020D01*
Y740410D01*
D02*
G37*
G36*
X942920Y737870D02*
X938530D01*
Y733480D01*
X940497Y734295D01*
X942105Y735903D01*
X942920Y737870D01*
D02*
G37*
G36*
X935990D02*
X931600D01*
X932415Y735903D01*
X934023Y734295D01*
X935990Y733480D01*
Y737870D01*
D02*
G37*
G36*
X651595Y731650D02*
X651510D01*
Y722630D01*
X660530D01*
Y722715D01*
X659829Y725332D01*
X658474Y727678D01*
X656558Y729594D01*
X654212Y730949D01*
X651595Y731650D01*
D02*
G37*
G36*
X648970D02*
X648885D01*
X646268Y730949D01*
X643922Y729594D01*
X642006Y727678D01*
X640651Y725332D01*
X639950Y722715D01*
Y722630D01*
X648970D01*
Y731650D01*
D02*
G37*
G36*
X992670Y757616D02*
X988530D01*
X984470Y756808D01*
X980645Y755224D01*
X977203Y752924D01*
X974276Y749997D01*
X971976Y746555D01*
X970392Y742730D01*
X969584Y738670D01*
Y734530D01*
X970392Y730470D01*
X971976Y726645D01*
X974276Y723203D01*
X977203Y720276D01*
X980645Y717976D01*
X984470Y716392D01*
X988530Y715584D01*
X992670D01*
X996730Y716392D01*
X1000555Y717976D01*
X1003997Y720276D01*
X1006924Y723203D01*
X1009224Y726645D01*
X1010808Y730470D01*
X1011616Y734530D01*
Y738670D01*
X1010808Y742730D01*
X1009224Y746555D01*
X1006924Y749997D01*
X1003997Y752924D01*
X1000555Y755224D01*
X996730Y756808D01*
X992670Y757616D01*
D02*
G37*
G36*
X281470D02*
X277330D01*
X273270Y756808D01*
X269445Y755224D01*
X266003Y752924D01*
X263076Y749997D01*
X260776Y746555D01*
X259192Y742730D01*
X258384Y738670D01*
Y734530D01*
X259192Y730470D01*
X260776Y726645D01*
X263076Y723203D01*
X266003Y720276D01*
X269445Y717976D01*
X273270Y716392D01*
X277330Y715584D01*
X281470D01*
X285530Y716392D01*
X289355Y717976D01*
X292797Y720276D01*
X295724Y723203D01*
X298024Y726645D01*
X299608Y730470D01*
X300416Y734530D01*
Y738670D01*
X299608Y742730D01*
X298024Y746555D01*
X295724Y749997D01*
X292797Y752924D01*
X289355Y755224D01*
X285530Y756808D01*
X281470Y757616D01*
D02*
G37*
G36*
X625994Y730126D02*
X623686D01*
X621456Y729529D01*
X619458Y728374D01*
X617826Y726742D01*
X616671Y724744D01*
X616074Y722514D01*
Y720206D01*
X616671Y717976D01*
X617826Y715978D01*
X619458Y714345D01*
X621456Y713191D01*
X623686Y712594D01*
X625994D01*
X628224Y713191D01*
X630222Y714345D01*
X631855Y715978D01*
X633009Y717976D01*
X633606Y720206D01*
Y722514D01*
X633009Y724744D01*
X631855Y726742D01*
X630222Y728374D01*
X628224Y729529D01*
X625994Y730126D01*
D02*
G37*
G36*
X600594D02*
X598286D01*
X596056Y729529D01*
X594058Y728374D01*
X592425Y726742D01*
X591271Y724744D01*
X590674Y722514D01*
Y720206D01*
X591271Y717976D01*
X592425Y715978D01*
X594058Y714345D01*
X596056Y713191D01*
X598286Y712594D01*
X600594D01*
X602824Y713191D01*
X604822Y714345D01*
X606455Y715978D01*
X607609Y717976D01*
X608206Y720206D01*
Y722514D01*
X607609Y724744D01*
X606455Y726742D01*
X604822Y728374D01*
X602824Y729529D01*
X600594Y730126D01*
D02*
G37*
G36*
X575194D02*
X572886D01*
X570656Y729529D01*
X568658Y728374D01*
X567025Y726742D01*
X565871Y724744D01*
X565274Y722514D01*
Y720206D01*
X565871Y717976D01*
X567025Y715978D01*
X568658Y714345D01*
X570656Y713191D01*
X572886Y712594D01*
X575194D01*
X577424Y713191D01*
X579422Y714345D01*
X581054Y715978D01*
X582209Y717976D01*
X582806Y720206D01*
Y722514D01*
X582209Y724744D01*
X581054Y726742D01*
X579422Y728374D01*
X577424Y729529D01*
X575194Y730126D01*
D02*
G37*
G36*
X549794D02*
X547486D01*
X545256Y729529D01*
X543258Y728374D01*
X541626Y726742D01*
X540471Y724744D01*
X539874Y722514D01*
Y720206D01*
X540471Y717976D01*
X541626Y715978D01*
X543258Y714345D01*
X545256Y713191D01*
X547486Y712594D01*
X549794D01*
X552024Y713191D01*
X554022Y714345D01*
X555654Y715978D01*
X556809Y717976D01*
X557406Y720206D01*
Y722514D01*
X556809Y724744D01*
X555654Y726742D01*
X554022Y728374D01*
X552024Y729529D01*
X549794Y730126D01*
D02*
G37*
G36*
X660530Y720090D02*
X651510D01*
Y711070D01*
X651595D01*
X654212Y711771D01*
X656558Y713126D01*
X658474Y715042D01*
X659829Y717388D01*
X660530Y720005D01*
Y720090D01*
D02*
G37*
G36*
X648970D02*
X639950D01*
Y720005D01*
X640651Y717388D01*
X642006Y715042D01*
X643922Y713126D01*
X646268Y711771D01*
X648885Y711070D01*
X648970D01*
Y720090D01*
D02*
G37*
G36*
X910590Y688920D02*
Y684530D01*
X914980D01*
X914165Y686497D01*
X912557Y688105D01*
X910590Y688920D01*
D02*
G37*
G36*
X908050D02*
X906083Y688105D01*
X904475Y686497D01*
X903660Y684530D01*
X908050D01*
Y688920D01*
D02*
G37*
G36*
X793750D02*
Y684530D01*
X798140D01*
X797325Y686497D01*
X795717Y688105D01*
X793750Y688920D01*
D02*
G37*
G36*
X791210D02*
X789243Y688105D01*
X787635Y686497D01*
X786820Y684530D01*
X791210D01*
Y688920D01*
D02*
G37*
G36*
X914980Y681990D02*
X910590D01*
Y677600D01*
X912557Y678415D01*
X914165Y680023D01*
X914980Y681990D01*
D02*
G37*
G36*
X908050D02*
X903660D01*
X904475Y680023D01*
X906083Y678415D01*
X908050Y677600D01*
Y681990D01*
D02*
G37*
G36*
X798140D02*
X793750D01*
Y677600D01*
X795717Y678415D01*
X797325Y680023D01*
X798140Y681990D01*
D02*
G37*
G36*
X791210D02*
X786820D01*
X787635Y680023D01*
X789243Y678415D01*
X791210Y677600D01*
Y681990D01*
D02*
G37*
G36*
X463550Y681300D02*
Y676910D01*
X467940D01*
X467125Y678877D01*
X465517Y680485D01*
X463550Y681300D01*
D02*
G37*
G36*
X461010D02*
X459043Y680485D01*
X457435Y678877D01*
X456620Y676910D01*
X461010D01*
Y681300D01*
D02*
G37*
G36*
X467940Y674370D02*
X463550D01*
Y669980D01*
X465517Y670795D01*
X467125Y672403D01*
X467940Y674370D01*
D02*
G37*
G36*
X461010D02*
X456620D01*
X457435Y672403D01*
X459043Y670795D01*
X461010Y669980D01*
Y674370D01*
D02*
G37*
G36*
X288290Y671140D02*
Y666750D01*
X292680D01*
X291865Y668717D01*
X290257Y670325D01*
X288290Y671140D01*
D02*
G37*
G36*
X285750D02*
X283783Y670325D01*
X282175Y668717D01*
X281360Y666750D01*
X285750D01*
Y671140D01*
D02*
G37*
G36*
X292680Y664210D02*
X288290D01*
Y659820D01*
X290257Y660635D01*
X291865Y662243D01*
X292680Y664210D01*
D02*
G37*
G36*
X285750D02*
X281360D01*
X282175Y662243D01*
X283783Y660635D01*
X285750Y659820D01*
Y664210D01*
D02*
G37*
G36*
X506730Y653360D02*
Y648970D01*
X511120D01*
X510305Y650937D01*
X508697Y652545D01*
X506730Y653360D01*
D02*
G37*
G36*
X504190D02*
X502223Y652545D01*
X500615Y650937D01*
X499800Y648970D01*
X504190D01*
Y653360D01*
D02*
G37*
G36*
X360249Y660826D02*
X358270D01*
X356359Y660314D01*
X354645Y659324D01*
X353246Y657925D01*
X352256Y656211D01*
X351744Y654299D01*
Y652320D01*
X352256Y650409D01*
X353246Y648695D01*
X354645Y647296D01*
X356359Y646306D01*
X358270Y645794D01*
X360249D01*
X362161Y646306D01*
X363875Y647296D01*
X365274Y648695D01*
X366264Y650409D01*
X366776Y652320D01*
Y654299D01*
X366264Y656211D01*
X365274Y657925D01*
X363875Y659324D01*
X362161Y660314D01*
X360249Y660826D01*
D02*
G37*
G36*
X880110Y648280D02*
Y643890D01*
X884500D01*
X883685Y645857D01*
X882077Y647465D01*
X880110Y648280D01*
D02*
G37*
G36*
X877570D02*
X875603Y647465D01*
X873995Y645857D01*
X873180Y643890D01*
X877570D01*
Y648280D01*
D02*
G37*
G36*
X511120Y646430D02*
X506730D01*
Y642040D01*
X508697Y642855D01*
X510305Y644463D01*
X511120Y646430D01*
D02*
G37*
G36*
X504190D02*
X499800D01*
X500615Y644463D01*
X502223Y642855D01*
X504190Y642040D01*
Y646430D01*
D02*
G37*
G36*
X781050Y645740D02*
Y641350D01*
X785440D01*
X784625Y643317D01*
X783017Y644925D01*
X781050Y645740D01*
D02*
G37*
G36*
X778510D02*
X776543Y644925D01*
X774935Y643317D01*
X774120Y641350D01*
X778510D01*
Y645740D01*
D02*
G37*
G36*
X884500Y641350D02*
X880110D01*
Y636960D01*
X882077Y637775D01*
X883685Y639383D01*
X884500Y641350D01*
D02*
G37*
G36*
X877570D02*
X873180D01*
X873995Y639383D01*
X875603Y637775D01*
X877570Y636960D01*
Y641350D01*
D02*
G37*
G36*
X785440Y638810D02*
X781050D01*
Y634420D01*
X783017Y635235D01*
X784625Y636843D01*
X785440Y638810D01*
D02*
G37*
G36*
X778510D02*
X774120D01*
X774935Y636843D01*
X776543Y635235D01*
X778510Y634420D01*
Y638810D01*
D02*
G37*
G36*
X962152Y659765D02*
X958850D01*
X955610Y659121D01*
X952559Y657857D01*
X949813Y656022D01*
X947478Y653687D01*
X945643Y650940D01*
X944379Y647889D01*
X943735Y644650D01*
Y641347D01*
X944379Y638108D01*
X945643Y635056D01*
X947478Y632310D01*
X949813Y629975D01*
X952559Y628140D01*
X955610Y626876D01*
X958850Y626232D01*
X962152D01*
X965392Y626876D01*
X968443Y628140D01*
X971189Y629975D01*
X973524Y632310D01*
X975359Y635056D01*
X976623Y638108D01*
X977268Y641347D01*
Y644650D01*
X976623Y647889D01*
X975359Y650940D01*
X973524Y653687D01*
X971189Y656022D01*
X968443Y657857D01*
X965392Y659121D01*
X962152Y659765D01*
D02*
G37*
G36*
X996950Y612720D02*
Y608330D01*
X1001340D01*
X1000525Y610297D01*
X998917Y611905D01*
X996950Y612720D01*
D02*
G37*
G36*
X994410D02*
X992443Y611905D01*
X990835Y610297D01*
X990020Y608330D01*
X994410D01*
Y612720D01*
D02*
G37*
G36*
X681990Y610180D02*
Y605790D01*
X686380D01*
X685565Y607757D01*
X683957Y609365D01*
X681990Y610180D01*
D02*
G37*
G36*
X679450D02*
X677483Y609365D01*
X675875Y607757D01*
X675060Y605790D01*
X679450D01*
Y610180D01*
D02*
G37*
G36*
X1001340Y605790D02*
X996950D01*
Y601400D01*
X998917Y602215D01*
X1000525Y603823D01*
X1001340Y605790D01*
D02*
G37*
G36*
X994410D02*
X990020D01*
X990835Y603823D01*
X992443Y602215D01*
X994410Y601400D01*
Y605790D01*
D02*
G37*
G36*
X686380Y603250D02*
X681990D01*
Y598860D01*
X683957Y599675D01*
X685565Y601283D01*
X686380Y603250D01*
D02*
G37*
G36*
X679450D02*
X675060D01*
X675875Y601283D01*
X677483Y599675D01*
X679450Y598860D01*
Y603250D01*
D02*
G37*
G36*
X360249Y605826D02*
X358270D01*
X356359Y605314D01*
X354645Y604324D01*
X353246Y602925D01*
X352256Y601211D01*
X351744Y599300D01*
Y597321D01*
X352256Y595409D01*
X353246Y593695D01*
X354645Y592296D01*
X356359Y591306D01*
X358270Y590794D01*
X360249D01*
X362161Y591306D01*
X363875Y592296D01*
X365274Y593695D01*
X366264Y595409D01*
X366776Y597321D01*
Y599300D01*
X366264Y601211D01*
X365274Y602925D01*
X363875Y604324D01*
X362161Y605314D01*
X360249Y605826D01*
D02*
G37*
G36*
X816770Y601465D02*
Y593999D01*
Y586534D01*
X818410Y586973D01*
X820130Y587966D01*
X821534Y589370D01*
X821641Y589556D01*
X823228Y589765D01*
X824094Y588899D01*
X826305Y587983D01*
X828698D01*
X830909Y588899D01*
X832602Y590592D01*
X832866Y591230D01*
X834136D01*
X834400Y590592D01*
X836093Y588899D01*
X838304Y587983D01*
X840697D01*
X842908Y588899D01*
X844601Y590592D01*
X845517Y592803D01*
Y595196D01*
X844601Y597407D01*
X842908Y599099D01*
X840697Y600015D01*
X838304D01*
X836093Y599099D01*
X834400Y597407D01*
X834136Y596769D01*
X832866D01*
X832602Y597407D01*
X830909Y599099D01*
X828698Y600015D01*
X826305D01*
X824094Y599099D01*
X823228Y598234D01*
X821641Y598443D01*
X821534Y598629D01*
X820130Y600033D01*
X818410Y601026D01*
X816770Y601465D01*
D02*
G37*
G36*
X623570Y587320D02*
Y582930D01*
X627960D01*
X627145Y584897D01*
X625537Y586505D01*
X623570Y587320D01*
D02*
G37*
G36*
X621030D02*
X619063Y586505D01*
X617455Y584897D01*
X616640Y582930D01*
X621030D01*
Y587320D01*
D02*
G37*
G36*
X844698Y585014D02*
X842304D01*
X840093Y584098D01*
X838401Y582406D01*
X838135Y581765D01*
X836865D01*
X836600Y582406D01*
X834907Y584098D01*
X832696Y585014D01*
X830303D01*
X828092Y584098D01*
X826399Y582406D01*
X826135Y581768D01*
X824865D01*
X824601Y582406D01*
X822908Y584098D01*
X820697Y585014D01*
X818304D01*
X816093Y584098D01*
X814400Y582406D01*
X814136Y581768D01*
X812866D01*
X812602Y582406D01*
X810909Y584098D01*
X808698Y585014D01*
X806305D01*
X804094Y584098D01*
X802401Y582406D01*
X801486Y580195D01*
Y577801D01*
X802401Y575590D01*
X804094Y573898D01*
X806305Y572982D01*
X808698D01*
X810909Y573898D01*
X812602Y575590D01*
X812866Y576228D01*
X814136D01*
X814400Y575590D01*
X816093Y573898D01*
X818304Y572982D01*
X820697D01*
X822908Y573898D01*
X824601Y575590D01*
X824865Y576228D01*
X826135D01*
X826399Y575590D01*
X828092Y573898D01*
X830303Y572982D01*
X832696D01*
X834907Y573898D01*
X836600Y575590D01*
X836865Y576232D01*
X838135D01*
X838401Y575590D01*
X840093Y573898D01*
X842304Y572982D01*
X844698D01*
X846909Y573898D01*
X848601Y575590D01*
X849517Y577801D01*
Y580195D01*
X848601Y582406D01*
X846909Y584098D01*
X844698Y585014D01*
D02*
G37*
G36*
X627960Y580390D02*
X623570D01*
Y576000D01*
X625537Y576815D01*
X627145Y578423D01*
X627960Y580390D01*
D02*
G37*
G36*
X621030D02*
X616640D01*
X617455Y578423D01*
X619063Y576815D01*
X621030Y576000D01*
Y580390D01*
D02*
G37*
G36*
X848698Y570015D02*
X846305D01*
X844094Y569100D01*
X842401Y567407D01*
X842136Y566766D01*
X840866D01*
X840600Y567407D01*
X838908Y569100D01*
X836697Y570015D01*
X834303D01*
X832092Y569100D01*
X830400Y567407D01*
X830135Y566769D01*
X828866D01*
X828601Y567407D01*
X826909Y569100D01*
X824698Y570015D01*
X822304D01*
X820093Y569100D01*
X818401Y567407D01*
X818135Y566766D01*
X816865D01*
X816600Y567407D01*
X814907Y569100D01*
X812696Y570015D01*
X810303D01*
X808092Y569100D01*
X806399Y567407D01*
X805483Y565196D01*
Y562803D01*
X806399Y560592D01*
X808092Y558899D01*
X810303Y557983D01*
X812696D01*
X814907Y558899D01*
X816600Y560592D01*
X816865Y561233D01*
X818135D01*
X818401Y560592D01*
X820093Y558899D01*
X822304Y557983D01*
X824698D01*
X826909Y558899D01*
X828601Y560592D01*
X828866Y561230D01*
X830135D01*
X830400Y560592D01*
X832092Y558899D01*
X834303Y557983D01*
X836697D01*
X838908Y558899D01*
X840600Y560592D01*
X840866Y561233D01*
X842136D01*
X842401Y560592D01*
X844094Y558899D01*
X846305Y557983D01*
X848698D01*
X850909Y558899D01*
X852602Y560592D01*
X853518Y562803D01*
Y565196D01*
X852602Y567407D01*
X850909Y569100D01*
X848698Y570015D01*
D02*
G37*
G36*
X483870Y569540D02*
Y565150D01*
X488260D01*
X487445Y567117D01*
X485837Y568725D01*
X483870Y569540D01*
D02*
G37*
G36*
X481330D02*
X479363Y568725D01*
X477755Y567117D01*
X476940Y565150D01*
X481330D01*
Y569540D01*
D02*
G37*
G36*
X488260Y562610D02*
X483870D01*
Y558220D01*
X485837Y559035D01*
X487445Y560643D01*
X488260Y562610D01*
D02*
G37*
G36*
X481330D02*
X476940D01*
X477755Y560643D01*
X479363Y559035D01*
X481330Y558220D01*
Y562610D01*
D02*
G37*
G36*
X694690Y556840D02*
Y552450D01*
X699080D01*
X698265Y554417D01*
X696657Y556025D01*
X694690Y556840D01*
D02*
G37*
G36*
X692150D02*
X690183Y556025D01*
X688575Y554417D01*
X687760Y552450D01*
X692150D01*
Y556840D01*
D02*
G37*
G36*
X699080Y549910D02*
X694690D01*
Y545520D01*
X696657Y546335D01*
X698265Y547943D01*
X699080Y549910D01*
D02*
G37*
G36*
X692150D02*
X687760D01*
X688575Y547943D01*
X690183Y546335D01*
X692150Y545520D01*
Y549910D01*
D02*
G37*
G36*
X288290Y539060D02*
Y534670D01*
X292680D01*
X291865Y536637D01*
X290257Y538245D01*
X288290Y539060D01*
D02*
G37*
G36*
X285750D02*
X283783Y538245D01*
X282175Y536637D01*
X281360Y534670D01*
X285750D01*
Y539060D01*
D02*
G37*
G36*
X292680Y532130D02*
X288290D01*
Y527740D01*
X290257Y528555D01*
X291865Y530163D01*
X292680Y532130D01*
D02*
G37*
G36*
X285750D02*
X281360D01*
X282175Y530163D01*
X283783Y528555D01*
X285750Y527740D01*
Y532130D01*
D02*
G37*
G36*
X481330Y528900D02*
Y524510D01*
X485720D01*
X484905Y526477D01*
X483297Y528085D01*
X481330Y528900D01*
D02*
G37*
G36*
X478790D02*
X476823Y528085D01*
X475215Y526477D01*
X474400Y524510D01*
X478790D01*
Y528900D01*
D02*
G37*
G36*
X485720Y521970D02*
X481330D01*
Y517580D01*
X483297Y518395D01*
X484905Y520003D01*
X485720Y521970D01*
D02*
G37*
G36*
X478790D02*
X474400D01*
X475215Y520003D01*
X476823Y518395D01*
X478790Y517580D01*
Y521970D01*
D02*
G37*
G36*
X882696Y528014D02*
X880303D01*
X878092Y527098D01*
X876399Y525406D01*
X875483Y523195D01*
Y520801D01*
X876399Y518590D01*
X877263Y517726D01*
X877054Y516139D01*
X876870Y516032D01*
X875466Y514629D01*
X874473Y512909D01*
X874034Y511269D01*
X888965D01*
X888526Y512909D01*
X887533Y514629D01*
X886129Y516032D01*
X885945Y516139D01*
X885735Y517726D01*
X886600Y518590D01*
X887515Y520801D01*
Y523195D01*
X886600Y525406D01*
X884907Y527098D01*
X882696Y528014D01*
D02*
G37*
G36*
X827006Y523289D02*
X826770D01*
Y509270D01*
X840789D01*
Y509506D01*
X840202Y512460D01*
X839049Y515242D01*
X837376Y517747D01*
X835247Y519876D01*
X832742Y521549D01*
X829960Y522702D01*
X827006Y523289D01*
D02*
G37*
G36*
X824230D02*
X823994D01*
X821040Y522702D01*
X818258Y521549D01*
X815753Y519876D01*
X813624Y517747D01*
X811951Y515242D01*
X810798Y512460D01*
X810210Y509506D01*
Y509270D01*
X824230D01*
Y523289D01*
D02*
G37*
G36*
X331470Y503500D02*
Y499110D01*
X335860D01*
X335045Y501077D01*
X333437Y502685D01*
X331470Y503500D01*
D02*
G37*
G36*
X328930D02*
X326963Y502685D01*
X325355Y501077D01*
X324540Y499110D01*
X328930D01*
Y503500D01*
D02*
G37*
G36*
X392430Y500960D02*
Y496570D01*
X396820D01*
X396005Y498537D01*
X394397Y500145D01*
X392430Y500960D01*
D02*
G37*
G36*
X389890D02*
X387923Y500145D01*
X386315Y498537D01*
X385500Y496570D01*
X389890D01*
Y500960D01*
D02*
G37*
G36*
X840789Y506730D02*
X826770D01*
Y492710D01*
X827006D01*
X829960Y493298D01*
X832742Y494451D01*
X835247Y496124D01*
X837376Y498254D01*
X839049Y500758D01*
X840202Y503540D01*
X840789Y506494D01*
Y506730D01*
D02*
G37*
G36*
X824230D02*
X810210D01*
Y506494D01*
X810798Y503540D01*
X811951Y500758D01*
X813624Y498254D01*
X815753Y496124D01*
X818258Y494451D01*
X821040Y493298D01*
X823994Y492710D01*
X824230D01*
Y506730D01*
D02*
G37*
G36*
X621148Y513461D02*
X618372D01*
X615691Y512743D01*
X613288Y511355D01*
X611325Y509392D01*
X609937Y506989D01*
X609219Y504308D01*
Y501532D01*
X609937Y498851D01*
X611325Y496448D01*
X613288Y494485D01*
X615691Y493097D01*
X618372Y492379D01*
X621148D01*
X623829Y493097D01*
X626232Y494485D01*
X628195Y496448D01*
X629583Y498851D01*
X630301Y501532D01*
Y504308D01*
X629583Y506989D01*
X628195Y509392D01*
X626232Y511355D01*
X623829Y512743D01*
X621148Y513461D01*
D02*
G37*
G36*
X595748D02*
X592972D01*
X590291Y512743D01*
X587888Y511355D01*
X585925Y509392D01*
X584537Y506989D01*
X583819Y504308D01*
Y501532D01*
X584537Y498851D01*
X585925Y496448D01*
X587888Y494485D01*
X590291Y493097D01*
X592972Y492379D01*
X595748D01*
X598429Y493097D01*
X600832Y494485D01*
X602795Y496448D01*
X604183Y498851D01*
X604901Y501532D01*
Y504308D01*
X604183Y506989D01*
X602795Y509392D01*
X600832Y511355D01*
X598429Y512743D01*
X595748Y513461D01*
D02*
G37*
G36*
X335860Y496570D02*
X331470D01*
Y492180D01*
X333437Y492995D01*
X335045Y494603D01*
X335860Y496570D01*
D02*
G37*
G36*
X328930D02*
X324540D01*
X325355Y494603D01*
X326963Y492995D01*
X328930Y492180D01*
Y496570D01*
D02*
G37*
G36*
X396820Y494030D02*
X392430D01*
Y489640D01*
X394397Y490455D01*
X396005Y492063D01*
X396820Y494030D01*
D02*
G37*
G36*
X389890D02*
X385500D01*
X386315Y492063D01*
X387923Y490455D01*
X389890Y489640D01*
Y494030D01*
D02*
G37*
G36*
X532006Y730126D02*
X514474D01*
Y712594D01*
X520909D01*
Y678180D01*
X521087Y677288D01*
X521592Y676532D01*
X549532Y648592D01*
X550288Y648087D01*
X551180Y647909D01*
X611175D01*
X666372Y592712D01*
X667128Y592207D01*
X668020Y592029D01*
X782529D01*
Y454329D01*
X754258D01*
X753366Y454151D01*
X752610Y453646D01*
X700075Y401111D01*
X622428D01*
X621963Y402849D01*
X620575Y405252D01*
X618612Y407215D01*
X616209Y408603D01*
X613836Y409239D01*
Y412115D01*
X613658Y413007D01*
X613153Y413763D01*
X611248Y415668D01*
X610492Y416173D01*
X609600Y416351D01*
X369331D01*
X369313Y416394D01*
X368134Y417573D01*
X366594Y418211D01*
X364926D01*
X363386Y417573D01*
X362207Y416394D01*
X361569Y414854D01*
Y413186D01*
X362207Y411646D01*
X363386Y410467D01*
X364926Y409829D01*
X366594D01*
X368134Y410467D01*
X369313Y411646D01*
X369331Y411689D01*
X608635D01*
X609174Y411150D01*
Y408898D01*
X608071Y408603D01*
X605668Y407215D01*
X603705Y405252D01*
X602317Y402849D01*
X601599Y400168D01*
Y397392D01*
X602317Y394711D01*
X603705Y392308D01*
X605668Y390345D01*
X608071Y388957D01*
X610752Y388239D01*
X613528D01*
X616209Y388957D01*
X618612Y390345D01*
X620575Y392308D01*
X621963Y394711D01*
X622428Y396449D01*
X701040D01*
X701932Y396627D01*
X702688Y397132D01*
X755223Y449667D01*
X797955D01*
X798401Y448590D01*
X800093Y446898D01*
X802304Y445982D01*
X804698D01*
X806909Y446898D01*
X808601Y448590D01*
X808866Y449229D01*
X810135D01*
X810400Y448590D01*
X812092Y446898D01*
X814303Y445982D01*
X816697D01*
X818908Y446898D01*
X820600Y448590D01*
X820866Y449232D01*
X822136D01*
X822401Y448590D01*
X824094Y446898D01*
X826305Y445982D01*
X828698D01*
X830909Y446898D01*
X832602Y448590D01*
X832866Y449229D01*
X834136D01*
X834400Y448590D01*
X836093Y446898D01*
X838304Y445982D01*
X840697D01*
X842908Y446898D01*
X844601Y448590D01*
X845517Y450801D01*
Y453195D01*
X844601Y455406D01*
X842908Y457098D01*
X840697Y458014D01*
X838304D01*
X836093Y457098D01*
X834400Y455406D01*
X834136Y454768D01*
X832866D01*
X832602Y455406D01*
X830909Y457098D01*
X828698Y458014D01*
X826305D01*
X824094Y457098D01*
X822401Y455406D01*
X822136Y454765D01*
X820866D01*
X820600Y455406D01*
X818908Y457098D01*
X816697Y458014D01*
X814303D01*
X812092Y457098D01*
X810400Y455406D01*
X810135Y454768D01*
X808866D01*
X808601Y455406D01*
X806909Y457098D01*
X804698Y458014D01*
X802304D01*
X800093Y457098D01*
X798401Y455406D01*
X797955Y454329D01*
X787191D01*
Y592029D01*
X797805D01*
X798401Y590592D01*
X800093Y588899D01*
X802304Y587983D01*
X804698D01*
X806909Y588899D01*
X807773Y589763D01*
X809360Y589554D01*
X809466Y589370D01*
X810870Y587966D01*
X812590Y586973D01*
X814230Y586534D01*
Y593999D01*
Y601465D01*
X812590Y601026D01*
X810870Y600033D01*
X809466Y598629D01*
X809360Y598444D01*
X807773Y598236D01*
X806909Y599099D01*
X805832Y599546D01*
Y601876D01*
X808685Y604729D01*
X898195D01*
X909171Y593753D01*
Y535545D01*
X908094Y535099D01*
X906402Y533407D01*
X905486Y531196D01*
Y528802D01*
X906402Y526591D01*
X908094Y524899D01*
X908732Y524635D01*
Y523364D01*
X908094Y523100D01*
X906402Y521408D01*
X905486Y519197D01*
Y516803D01*
X906402Y514592D01*
X908094Y512900D01*
X908735Y512634D01*
Y511364D01*
X908094Y511099D01*
X906402Y509406D01*
X905486Y507195D01*
Y504802D01*
X906402Y502591D01*
X908094Y500898D01*
X908732Y500634D01*
Y499364D01*
X908094Y499100D01*
X906402Y497407D01*
X905486Y495196D01*
Y492803D01*
X906402Y490592D01*
X908094Y488899D01*
X910305Y487984D01*
X912699D01*
X914910Y488899D01*
X916602Y490592D01*
X917518Y492803D01*
Y495196D01*
X916602Y497407D01*
X914910Y499100D01*
X914271Y499364D01*
Y500634D01*
X914910Y500898D01*
X916602Y502591D01*
X917518Y504802D01*
Y507195D01*
X916602Y509406D01*
X914910Y511099D01*
X914268Y511364D01*
Y512634D01*
X914910Y512900D01*
X916602Y514592D01*
X917518Y516803D01*
Y519197D01*
X916602Y521408D01*
X914910Y523100D01*
X914271Y523364D01*
Y524635D01*
X914910Y524899D01*
X916602Y526591D01*
X917518Y528802D01*
Y531196D01*
X916602Y533407D01*
X914910Y535099D01*
X913833Y535545D01*
Y594718D01*
X913655Y595610D01*
X913150Y596366D01*
X900808Y608708D01*
X900052Y609213D01*
X899160Y609391D01*
X807720D01*
X806828Y609213D01*
X806072Y608708D01*
X801853Y604489D01*
X801348Y603733D01*
X801170Y602841D01*
Y599546D01*
X800093Y599099D01*
X798401Y597407D01*
X798104Y596691D01*
X668985D01*
X613788Y651888D01*
X613032Y652393D01*
X612140Y652571D01*
X552145D01*
X525571Y679145D01*
Y712594D01*
X532006D01*
Y730126D01*
D02*
G37*
G36*
X770697Y536015D02*
X768304D01*
X766093Y535099D01*
X764400Y533407D01*
X763485Y531196D01*
Y528802D01*
X764400Y526591D01*
X766093Y524899D01*
X766731Y524635D01*
Y523364D01*
X766093Y523100D01*
X764400Y521408D01*
X763485Y519197D01*
Y516803D01*
X764400Y514592D01*
X766093Y512900D01*
X766734Y512634D01*
Y511364D01*
X766093Y511099D01*
X764400Y509406D01*
X763485Y507195D01*
Y504802D01*
X764400Y502591D01*
X766093Y500898D01*
X766731Y500634D01*
Y499364D01*
X766093Y499100D01*
X764400Y497407D01*
X763485Y495196D01*
Y492803D01*
X764400Y490592D01*
X766093Y488899D01*
X768304Y487984D01*
X770697D01*
X772908Y488899D01*
X774601Y490592D01*
X775517Y492803D01*
Y495196D01*
X774601Y497407D01*
X772908Y499100D01*
X772270Y499364D01*
Y500634D01*
X772908Y500898D01*
X774601Y502591D01*
X775517Y504802D01*
Y507195D01*
X774601Y509406D01*
X772908Y511099D01*
X772267Y511364D01*
Y512634D01*
X772908Y512900D01*
X774601Y514592D01*
X775517Y516803D01*
Y519197D01*
X774601Y521408D01*
X772908Y523100D01*
X772270Y523364D01*
Y524635D01*
X772908Y524899D01*
X774601Y526591D01*
X775517Y528802D01*
Y531196D01*
X774601Y533407D01*
X772908Y535099D01*
X770697Y536015D01*
D02*
G37*
G36*
X481330Y490800D02*
Y486410D01*
X485720D01*
X484905Y488377D01*
X483297Y489985D01*
X481330Y490800D01*
D02*
G37*
G36*
X478790D02*
X476823Y489985D01*
X475215Y488377D01*
X474400Y486410D01*
X478790D01*
Y490800D01*
D02*
G37*
G36*
X516454Y532511D02*
X514786D01*
X513246Y531873D01*
X512067Y530694D01*
X511429Y529154D01*
Y527486D01*
X512067Y525946D01*
X513246Y524767D01*
X513289Y524749D01*
Y493791D01*
X513246Y493773D01*
X512067Y492594D01*
X511429Y491054D01*
Y489386D01*
X512067Y487846D01*
X513246Y486667D01*
X514786Y486029D01*
X516454D01*
X517994Y486667D01*
X519173Y487846D01*
X519811Y489386D01*
Y491054D01*
X519173Y492594D01*
X517994Y493773D01*
X517951Y493791D01*
Y524749D01*
X517994Y524767D01*
X519173Y525946D01*
X519811Y527486D01*
Y529154D01*
X519173Y530694D01*
X517994Y531873D01*
X516454Y532511D01*
D02*
G37*
G36*
X755696Y532014D02*
X753303D01*
X751092Y531099D01*
X749399Y529406D01*
X748483Y527195D01*
Y524802D01*
X749399Y522591D01*
X751092Y520898D01*
X751730Y520634D01*
Y519364D01*
X751092Y519100D01*
X749399Y517407D01*
X748483Y515196D01*
Y512803D01*
X749399Y510592D01*
X751092Y508899D01*
X751733Y508634D01*
Y507364D01*
X751092Y507098D01*
X749399Y505406D01*
X748483Y503195D01*
Y500801D01*
X749399Y498590D01*
X751092Y496898D01*
X751730Y496633D01*
Y495364D01*
X751092Y495099D01*
X749399Y493407D01*
X748483Y491196D01*
Y488802D01*
X749399Y486591D01*
X751092Y484899D01*
X753303Y483983D01*
X755696D01*
X757907Y484899D01*
X759600Y486591D01*
X760515Y488802D01*
Y491196D01*
X759600Y493407D01*
X757907Y495099D01*
X757269Y495364D01*
Y496633D01*
X757907Y496898D01*
X759600Y498590D01*
X760515Y500801D01*
Y503195D01*
X759600Y505406D01*
X757907Y507098D01*
X757266Y507364D01*
Y508634D01*
X757907Y508899D01*
X759600Y510592D01*
X760515Y512803D01*
Y515196D01*
X759600Y517407D01*
X757907Y519100D01*
X757269Y519364D01*
Y520634D01*
X757907Y520898D01*
X759600Y522591D01*
X760515Y524802D01*
Y527195D01*
X759600Y529406D01*
X757907Y531099D01*
X755696Y532014D01*
D02*
G37*
G36*
X740697Y528014D02*
X738304D01*
X736093Y527098D01*
X734401Y525406D01*
X733485Y523195D01*
Y520801D01*
X734401Y518590D01*
X736093Y516898D01*
X736731Y516633D01*
Y515364D01*
X736093Y515099D01*
X734401Y513407D01*
X733485Y511196D01*
Y508802D01*
X734401Y506591D01*
X736093Y504899D01*
X736731Y504635D01*
Y503364D01*
X736093Y503100D01*
X734401Y501408D01*
X733485Y499197D01*
Y496803D01*
X734401Y494592D01*
X736093Y492900D01*
X736734Y492634D01*
Y491364D01*
X736093Y491099D01*
X734401Y489406D01*
X733485Y487195D01*
Y484802D01*
X734401Y482591D01*
X736093Y480898D01*
X738304Y479982D01*
X740697D01*
X742908Y480898D01*
X744601Y482591D01*
X745517Y484802D01*
Y487195D01*
X744601Y489406D01*
X742908Y491099D01*
X742267Y491364D01*
Y492634D01*
X742908Y492900D01*
X744601Y494592D01*
X745517Y496803D01*
Y499197D01*
X744601Y501408D01*
X742908Y503100D01*
X742270Y503364D01*
Y504635D01*
X742908Y504899D01*
X744601Y506591D01*
X745517Y508802D01*
Y511196D01*
X744601Y513407D01*
X742908Y515099D01*
X742270Y515364D01*
Y516633D01*
X742908Y516898D01*
X744601Y518590D01*
X745517Y520801D01*
Y523195D01*
X744601Y525406D01*
X742908Y527098D01*
X740697Y528014D01*
D02*
G37*
G36*
X485720Y483870D02*
X481330D01*
Y479480D01*
X483297Y480295D01*
X484905Y481903D01*
X485720Y483870D01*
D02*
G37*
G36*
X478790D02*
X474400D01*
X475215Y481903D01*
X476823Y480295D01*
X478790Y479480D01*
Y483870D01*
D02*
G37*
G36*
X994410Y483180D02*
Y478790D01*
X998800D01*
X997985Y480757D01*
X996377Y482365D01*
X994410Y483180D01*
D02*
G37*
G36*
X991870D02*
X989903Y482365D01*
X988295Y480757D01*
X987480Y478790D01*
X991870D01*
Y483180D01*
D02*
G37*
G36*
X560070D02*
Y478790D01*
X564460D01*
X563645Y480757D01*
X562037Y482365D01*
X560070Y483180D01*
D02*
G37*
G36*
X557530D02*
X555563Y482365D01*
X553955Y480757D01*
X553140Y478790D01*
X557530D01*
Y483180D01*
D02*
G37*
G36*
X998800Y476250D02*
X994410D01*
Y471860D01*
X996377Y472675D01*
X997985Y474283D01*
X998800Y476250D01*
D02*
G37*
G36*
X991870D02*
X987480D01*
X988295Y474283D01*
X989903Y472675D01*
X991870Y471860D01*
Y476250D01*
D02*
G37*
G36*
X564460D02*
X560070D01*
Y471860D01*
X562037Y472675D01*
X563645Y474283D01*
X564460Y476250D01*
D02*
G37*
G36*
X557530D02*
X553140D01*
X553955Y474283D01*
X555563Y472675D01*
X557530Y471860D01*
Y476250D01*
D02*
G37*
G36*
X420370Y457780D02*
Y453390D01*
X424760D01*
X423945Y455357D01*
X422337Y456965D01*
X420370Y457780D01*
D02*
G37*
G36*
X417830D02*
X415863Y456965D01*
X414255Y455357D01*
X413440Y453390D01*
X417830D01*
Y457780D01*
D02*
G37*
G36*
X948690Y455240D02*
Y450850D01*
X953080D01*
X952265Y452817D01*
X950657Y454425D01*
X948690Y455240D01*
D02*
G37*
G36*
X946150D02*
X944183Y454425D01*
X942575Y452817D01*
X941760Y450850D01*
X946150D01*
Y455240D01*
D02*
G37*
G36*
X424760Y450850D02*
X420370D01*
Y446460D01*
X422337Y447275D01*
X423945Y448883D01*
X424760Y450850D01*
D02*
G37*
G36*
X417830D02*
X413440D01*
X414255Y448883D01*
X415863Y447275D01*
X417830Y446460D01*
Y450850D01*
D02*
G37*
G36*
X372110Y450160D02*
Y445770D01*
X376500D01*
X375685Y447737D01*
X374077Y449345D01*
X372110Y450160D01*
D02*
G37*
G36*
X369570D02*
X367603Y449345D01*
X365995Y447737D01*
X365180Y445770D01*
X369570D01*
Y450160D01*
D02*
G37*
G36*
X953080Y448310D02*
X948690D01*
Y443920D01*
X950657Y444735D01*
X952265Y446343D01*
X953080Y448310D01*
D02*
G37*
G36*
X946150D02*
X941760D01*
X942575Y446343D01*
X944183Y444735D01*
X946150Y443920D01*
Y448310D01*
D02*
G37*
G36*
X727710Y445080D02*
Y440690D01*
X732100D01*
X731285Y442657D01*
X729677Y444265D01*
X727710Y445080D01*
D02*
G37*
G36*
X725170D02*
X723203Y444265D01*
X721595Y442657D01*
X720780Y440690D01*
X725170D01*
Y445080D01*
D02*
G37*
G36*
X844698Y443015D02*
X842304D01*
X840093Y442099D01*
X838401Y440407D01*
X838135Y439766D01*
X836865D01*
X836600Y440407D01*
X834907Y442099D01*
X832696Y443015D01*
X830303D01*
X828092Y442099D01*
X826399Y440407D01*
X826135Y439769D01*
X824865D01*
X824601Y440407D01*
X822908Y442099D01*
X820697Y443015D01*
X818304D01*
X816093Y442099D01*
X814400Y440407D01*
X814136Y439769D01*
X812866D01*
X812602Y440407D01*
X810909Y442099D01*
X808698Y443015D01*
X806305D01*
X804094Y442099D01*
X802401Y440407D01*
X801486Y438196D01*
Y435803D01*
X802401Y433592D01*
X804094Y431899D01*
X806305Y430983D01*
X808698D01*
X810909Y431899D01*
X812602Y433592D01*
X812866Y434230D01*
X814136D01*
X814400Y433592D01*
X816093Y431899D01*
X818304Y430983D01*
X820697D01*
X822908Y431899D01*
X824601Y433592D01*
X824865Y434230D01*
X826135D01*
X826399Y433592D01*
X828092Y431899D01*
X830303Y430983D01*
X832696D01*
X834907Y431899D01*
X836600Y433592D01*
X836865Y434233D01*
X838135D01*
X838401Y433592D01*
X840093Y431899D01*
X842304Y430983D01*
X844698D01*
X846909Y431899D01*
X848601Y433592D01*
X849517Y435803D01*
Y438196D01*
X848601Y440407D01*
X846909Y442099D01*
X844698Y443015D01*
D02*
G37*
G36*
X376500Y443230D02*
X372110D01*
Y438840D01*
X374077Y439655D01*
X375685Y441263D01*
X376500Y443230D01*
D02*
G37*
G36*
X369570D02*
X365180D01*
X365995Y441263D01*
X367603Y439655D01*
X369570Y438840D01*
Y443230D01*
D02*
G37*
G36*
X732100Y438150D02*
X727710D01*
Y433760D01*
X729677Y434575D01*
X731285Y436183D01*
X732100Y438150D01*
D02*
G37*
G36*
X725170D02*
X720780D01*
X721595Y436183D01*
X723203Y434575D01*
X725170Y433760D01*
Y438150D01*
D02*
G37*
G36*
X539750Y434920D02*
Y430530D01*
X544140D01*
X543325Y432497D01*
X541717Y434105D01*
X539750Y434920D01*
D02*
G37*
G36*
X537210D02*
X535243Y434105D01*
X533635Y432497D01*
X532820Y430530D01*
X537210D01*
Y434920D01*
D02*
G37*
G36*
X848698Y428014D02*
X846305D01*
X844094Y427098D01*
X842401Y425406D01*
X842136Y424765D01*
X840866D01*
X840600Y425406D01*
X838908Y427098D01*
X836697Y428014D01*
X834303D01*
X832092Y427098D01*
X830400Y425406D01*
X830135Y424768D01*
X828866D01*
X828601Y425406D01*
X826909Y427098D01*
X824698Y428014D01*
X822304D01*
X820093Y427098D01*
X818401Y425406D01*
X818135Y424765D01*
X816865D01*
X816600Y425406D01*
X814907Y427098D01*
X812696Y428014D01*
X810303D01*
X808092Y427098D01*
X806399Y425406D01*
X805483Y423195D01*
Y420802D01*
X806399Y418590D01*
X808092Y416898D01*
X810303Y415982D01*
X812696D01*
X814907Y416898D01*
X816600Y418590D01*
X816865Y419232D01*
X818135D01*
X818401Y418590D01*
X820093Y416898D01*
X822304Y415982D01*
X824698D01*
X826909Y416898D01*
X828601Y418590D01*
X828866Y419229D01*
X830135D01*
X830400Y418590D01*
X832092Y416898D01*
X834303Y415982D01*
X836697D01*
X838908Y416898D01*
X840600Y418590D01*
X840866Y419232D01*
X842136D01*
X842401Y418590D01*
X844094Y416898D01*
X846305Y415982D01*
X848698D01*
X850909Y416898D01*
X852602Y418590D01*
X853518Y420802D01*
Y423195D01*
X852602Y425406D01*
X850909Y427098D01*
X848698Y428014D01*
D02*
G37*
G36*
X544140Y427990D02*
X539750D01*
Y423600D01*
X541717Y424415D01*
X543325Y426023D01*
X544140Y427990D01*
D02*
G37*
G36*
X537210D02*
X532820D01*
X533635Y426023D01*
X535243Y424415D01*
X537210Y423600D01*
Y427990D01*
D02*
G37*
G36*
X422910Y404440D02*
Y400050D01*
X427300D01*
X426485Y402017D01*
X424877Y403625D01*
X422910Y404440D01*
D02*
G37*
G36*
X420370D02*
X418403Y403625D01*
X416795Y402017D01*
X415980Y400050D01*
X420370D01*
Y404440D01*
D02*
G37*
G36*
X427300Y397510D02*
X422910D01*
Y393120D01*
X424877Y393935D01*
X426485Y395543D01*
X427300Y397510D01*
D02*
G37*
G36*
X420370D02*
X415980D01*
X416795Y395543D01*
X418403Y393935D01*
X420370Y393120D01*
Y397510D01*
D02*
G37*
G36*
X791210Y396820D02*
Y392430D01*
X795600D01*
X794785Y394397D01*
X793177Y396005D01*
X791210Y396820D01*
D02*
G37*
G36*
X788670D02*
X786703Y396005D01*
X785095Y394397D01*
X784280Y392430D01*
X788670D01*
Y396820D01*
D02*
G37*
G36*
X374650D02*
Y392430D01*
X379040D01*
X378225Y394397D01*
X376617Y396005D01*
X374650Y396820D01*
D02*
G37*
G36*
X372110D02*
X370143Y396005D01*
X368535Y394397D01*
X367720Y392430D01*
X372110D01*
Y396820D01*
D02*
G37*
G36*
X872490Y394280D02*
Y389890D01*
X876880D01*
X876065Y391857D01*
X874457Y393465D01*
X872490Y394280D01*
D02*
G37*
G36*
X869950D02*
X867983Y393465D01*
X866375Y391857D01*
X865560Y389890D01*
X869950D01*
Y394280D01*
D02*
G37*
G36*
X539750D02*
Y389890D01*
X544140D01*
X543325Y391857D01*
X541717Y393465D01*
X539750Y394280D01*
D02*
G37*
G36*
X537210D02*
X535243Y393465D01*
X533635Y391857D01*
X532820Y389890D01*
X537210D01*
Y394280D01*
D02*
G37*
G36*
X588128Y409321D02*
X585352D01*
X582671Y408603D01*
X580268Y407215D01*
X578305Y405252D01*
X576917Y402849D01*
X576199Y400168D01*
Y397392D01*
X576917Y394711D01*
X578305Y392308D01*
X580268Y390345D01*
X582671Y388957D01*
X585352Y388239D01*
X588128D01*
X590809Y388957D01*
X593212Y390345D01*
X595175Y392308D01*
X596563Y394711D01*
X597281Y397392D01*
Y400168D01*
X596563Y402849D01*
X595175Y405252D01*
X593212Y407215D01*
X590809Y408603D01*
X588128Y409321D01*
D02*
G37*
G36*
X996950Y391740D02*
Y387350D01*
X1001340D01*
X1000525Y389317D01*
X998917Y390925D01*
X996950Y391740D01*
D02*
G37*
G36*
X994410D02*
X992443Y390925D01*
X990835Y389317D01*
X990020Y387350D01*
X994410D01*
Y391740D01*
D02*
G37*
G36*
X795600Y389890D02*
X791210D01*
Y385500D01*
X793177Y386315D01*
X794785Y387923D01*
X795600Y389890D01*
D02*
G37*
G36*
X788670D02*
X784280D01*
X785095Y387923D01*
X786703Y386315D01*
X788670Y385500D01*
Y389890D01*
D02*
G37*
G36*
X379040D02*
X374650D01*
Y385500D01*
X376617Y386315D01*
X378225Y387923D01*
X379040Y389890D01*
D02*
G37*
G36*
X372110D02*
X367720D01*
X368535Y387923D01*
X370143Y386315D01*
X372110Y385500D01*
Y389890D01*
D02*
G37*
G36*
X544140Y387350D02*
X539750D01*
Y382960D01*
X541717Y383775D01*
X543325Y385383D01*
X544140Y387350D01*
D02*
G37*
G36*
X537210D02*
X532820D01*
X533635Y385383D01*
X535243Y383775D01*
X537210Y382960D01*
Y387350D01*
D02*
G37*
G36*
X876880D02*
X872490D01*
Y382960D01*
X874457Y383775D01*
X876065Y385383D01*
X876880Y387350D01*
D02*
G37*
G36*
X869950D02*
X865560D01*
X866375Y385383D01*
X867983Y383775D01*
X869950Y382960D01*
Y387350D01*
D02*
G37*
G36*
X1001340Y384810D02*
X996950D01*
Y380420D01*
X998917Y381235D01*
X1000525Y382843D01*
X1001340Y384810D01*
D02*
G37*
G36*
X994410D02*
X990020D01*
X990835Y382843D01*
X992443Y381235D01*
X994410Y380420D01*
Y384810D01*
D02*
G37*
G36*
X692153Y389766D02*
X688850D01*
X685611Y389121D01*
X682560Y387857D01*
X679814Y386022D01*
X677478Y383687D01*
X675643Y380941D01*
X674379Y377890D01*
X673735Y374650D01*
Y371348D01*
X674379Y368108D01*
X675643Y365057D01*
X677478Y362311D01*
X679814Y359976D01*
X682560Y358141D01*
X685611Y356877D01*
X688850Y356232D01*
X692153D01*
X695392Y356877D01*
X698444Y358141D01*
X701190Y359976D01*
X703525Y362311D01*
X705360Y365057D01*
X706624Y368108D01*
X707268Y371348D01*
Y374650D01*
X706624Y377890D01*
X705360Y380941D01*
X703525Y383687D01*
X701190Y386022D01*
X698444Y387857D01*
X695392Y389121D01*
X692153Y389766D01*
D02*
G37*
G36*
X422910Y353640D02*
Y349250D01*
X427300D01*
X426485Y351217D01*
X424877Y352825D01*
X422910Y353640D01*
D02*
G37*
G36*
X420370D02*
X418403Y352825D01*
X416795Y351217D01*
X415980Y349250D01*
X420370D01*
Y353640D01*
D02*
G37*
G36*
X331470Y348560D02*
Y344170D01*
X335860D01*
X335045Y346137D01*
X333437Y347745D01*
X331470Y348560D01*
D02*
G37*
G36*
X328930D02*
X326963Y347745D01*
X325355Y346137D01*
X324540Y344170D01*
X328930D01*
Y348560D01*
D02*
G37*
G36*
X427300Y346710D02*
X422910D01*
Y342320D01*
X424877Y343135D01*
X426485Y344743D01*
X427300Y346710D01*
D02*
G37*
G36*
X420370D02*
X415980D01*
X416795Y344743D01*
X418403Y343135D01*
X420370Y342320D01*
Y346710D01*
D02*
G37*
G36*
X961390Y343480D02*
Y339090D01*
X965780D01*
X964965Y341057D01*
X963357Y342665D01*
X961390Y343480D01*
D02*
G37*
G36*
X958850D02*
X956883Y342665D01*
X955275Y341057D01*
X954460Y339090D01*
X958850D01*
Y343480D01*
D02*
G37*
G36*
X335860Y341630D02*
X331470D01*
Y337240D01*
X333437Y338055D01*
X335045Y339663D01*
X335860Y341630D01*
D02*
G37*
G36*
X328930D02*
X324540D01*
X325355Y339663D01*
X326963Y338055D01*
X328930Y337240D01*
Y341630D01*
D02*
G37*
G36*
X965780Y336550D02*
X961390D01*
Y332160D01*
X963357Y332975D01*
X964965Y334583D01*
X965780Y336550D01*
D02*
G37*
G36*
X958850D02*
X954460D01*
X955275Y334583D01*
X956883Y332975D01*
X958850Y332160D01*
Y336550D01*
D02*
G37*
G36*
X895350Y335860D02*
Y331470D01*
X899740D01*
X898925Y333437D01*
X897317Y335045D01*
X895350Y335860D01*
D02*
G37*
G36*
X892810D02*
X890843Y335045D01*
X889235Y333437D01*
X888420Y331470D01*
X892810D01*
Y335860D01*
D02*
G37*
G36*
X267534Y469011D02*
X265866D01*
X264326Y468373D01*
X263147Y467194D01*
X262509Y465654D01*
Y463986D01*
X263147Y462446D01*
X264326Y461267D01*
X265866Y460629D01*
X267534D01*
X269074Y461267D01*
X270253Y462446D01*
X270271Y462489D01*
X283515D01*
X369192Y376812D01*
X369948Y376307D01*
X370840Y376129D01*
X636575D01*
X670769Y341935D01*
Y338851D01*
X670726Y338833D01*
X669547Y337654D01*
X668909Y336114D01*
Y334446D01*
X669547Y332906D01*
X670726Y331727D01*
X672266Y331089D01*
X673934D01*
X675474Y331727D01*
X676653Y332906D01*
X677291Y334446D01*
Y336114D01*
X676653Y337654D01*
X675474Y338833D01*
X675431Y338851D01*
Y342900D01*
X675253Y343792D01*
X674748Y344548D01*
X639188Y380108D01*
X638432Y380613D01*
X637540Y380791D01*
X371805D01*
X286128Y466468D01*
X285372Y466973D01*
X284480Y467151D01*
X270271D01*
X270253Y467194D01*
X269074Y468373D01*
X267534Y469011D01*
D02*
G37*
G36*
X478790Y333320D02*
Y328930D01*
X483180D01*
X482365Y330897D01*
X480757Y332505D01*
X478790Y333320D01*
D02*
G37*
G36*
X476250D02*
X474283Y332505D01*
X472675Y330897D01*
X471860Y328930D01*
X476250D01*
Y333320D01*
D02*
G37*
G36*
X888965Y508729D02*
X874034D01*
X874473Y507089D01*
X875466Y505369D01*
X876870Y503965D01*
X877054Y503859D01*
X877263Y502272D01*
X876399Y501408D01*
X875483Y499197D01*
Y496803D01*
X876399Y494592D01*
X878092Y492900D01*
X878733Y492634D01*
Y491364D01*
X878092Y491099D01*
X876399Y489406D01*
X875483Y487195D01*
Y484802D01*
X876399Y482591D01*
X878092Y480898D01*
X879049Y480502D01*
Y371805D01*
X834695Y327451D01*
X653745D01*
X644268Y336928D01*
X643512Y337433D01*
X642620Y337611D01*
X600471D01*
X600453Y337654D01*
X599274Y338833D01*
X599231Y338851D01*
Y345440D01*
X599053Y346332D01*
X598548Y347088D01*
X573148Y372488D01*
X572392Y372993D01*
X571500Y373171D01*
X364185D01*
X308988Y428368D01*
X308232Y428873D01*
X307340Y429051D01*
X270271D01*
X270253Y429094D01*
X269074Y430273D01*
X267534Y430911D01*
X265866D01*
X264326Y430273D01*
X263147Y429094D01*
X262509Y427554D01*
Y425886D01*
X263147Y424346D01*
X264326Y423167D01*
X265866Y422529D01*
X267534D01*
X269074Y423167D01*
X270253Y424346D01*
X270271Y424389D01*
X306375D01*
X361572Y369192D01*
X362328Y368687D01*
X363220Y368509D01*
X570535D01*
X594569Y344474D01*
Y338851D01*
X594526Y338833D01*
X593347Y337654D01*
X592709Y336114D01*
Y334446D01*
X593347Y332906D01*
X594526Y331727D01*
X596066Y331089D01*
X597734D01*
X599274Y331727D01*
X600453Y332906D01*
X600471Y332949D01*
X641655D01*
X651132Y323472D01*
X651888Y322967D01*
X652780Y322789D01*
X835660D01*
X836552Y322967D01*
X837308Y323472D01*
X883028Y369192D01*
X883533Y369948D01*
X883711Y370840D01*
Y480403D01*
X884907Y480898D01*
X886600Y482591D01*
X887515Y484802D01*
Y487195D01*
X886600Y489406D01*
X884907Y491099D01*
X884266Y491364D01*
Y492634D01*
X884907Y492900D01*
X886600Y494592D01*
X887515Y496803D01*
Y499197D01*
X886600Y501408D01*
X885735Y502272D01*
X885945Y503859D01*
X886129Y503965D01*
X887533Y505369D01*
X888526Y507089D01*
X888965Y508729D01*
D02*
G37*
G36*
X899740Y328930D02*
X895350D01*
Y324540D01*
X897317Y325355D01*
X898925Y326963D01*
X899740Y328930D01*
D02*
G37*
G36*
X892810D02*
X888420D01*
X889235Y326963D01*
X890843Y325355D01*
X892810Y324540D01*
Y328930D01*
D02*
G37*
G36*
X483180Y326390D02*
X478790D01*
Y322000D01*
X480757Y322815D01*
X482365Y324423D01*
X483180Y326390D01*
D02*
G37*
G36*
X476250D02*
X471860D01*
X472675Y324423D01*
X474283Y322815D01*
X476250Y322000D01*
Y326390D01*
D02*
G37*
G36*
X897697Y532014D02*
X895304D01*
X893093Y531099D01*
X891401Y529406D01*
X890485Y527195D01*
Y524802D01*
X891401Y522591D01*
X893093Y520898D01*
X893731Y520634D01*
Y519364D01*
X893093Y519100D01*
X891401Y517407D01*
X890485Y515196D01*
Y512803D01*
X891401Y510592D01*
X893093Y508899D01*
X893734Y508634D01*
Y507364D01*
X893093Y507098D01*
X891401Y505406D01*
X890485Y503195D01*
Y500801D01*
X891401Y498590D01*
X893093Y496898D01*
X893731Y496633D01*
Y495364D01*
X893093Y495099D01*
X891401Y493407D01*
X890485Y491196D01*
Y488802D01*
X891401Y486591D01*
X893093Y484899D01*
X894170Y484453D01*
Y358986D01*
X852475Y317291D01*
X585165D01*
X565528Y336928D01*
X564772Y337433D01*
X563880Y337611D01*
X524271D01*
X524253Y337654D01*
X523074Y338833D01*
X523031Y338851D01*
Y347980D01*
X522853Y348872D01*
X522348Y349628D01*
X507108Y364868D01*
X506352Y365373D01*
X505460Y365551D01*
X354025D01*
X303908Y415668D01*
X303152Y416173D01*
X302260Y416351D01*
X270271D01*
X270253Y416394D01*
X269074Y417573D01*
X267534Y418211D01*
X265866D01*
X264326Y417573D01*
X263147Y416394D01*
X262509Y414854D01*
Y413186D01*
X263147Y411646D01*
X264326Y410467D01*
X265866Y409829D01*
X267534D01*
X269074Y410467D01*
X270253Y411646D01*
X270271Y411689D01*
X301295D01*
X351412Y361572D01*
X352168Y361067D01*
X353060Y360889D01*
X504495D01*
X518369Y347015D01*
Y338851D01*
X518326Y338833D01*
X517147Y337654D01*
X516509Y336114D01*
Y334446D01*
X517147Y332906D01*
X518326Y331727D01*
X519866Y331089D01*
X521534D01*
X523074Y331727D01*
X524253Y332906D01*
X524271Y332949D01*
X562915D01*
X582552Y313312D01*
X583308Y312807D01*
X584200Y312629D01*
X853440D01*
X854332Y312807D01*
X855088Y313312D01*
X898149Y356372D01*
X898654Y357129D01*
X898831Y358021D01*
Y484453D01*
X899908Y484899D01*
X901601Y486591D01*
X902517Y488802D01*
Y491196D01*
X901601Y493407D01*
X899908Y495099D01*
X899270Y495364D01*
Y496633D01*
X899908Y496898D01*
X901601Y498590D01*
X902517Y500801D01*
Y503195D01*
X901601Y505406D01*
X899908Y507098D01*
X899267Y507364D01*
Y508634D01*
X899908Y508899D01*
X901601Y510592D01*
X902517Y512803D01*
Y515196D01*
X901601Y517407D01*
X899908Y519100D01*
X899270Y519364D01*
Y520634D01*
X899908Y520898D01*
X901601Y522591D01*
X902517Y524802D01*
Y527195D01*
X901601Y529406D01*
X899908Y531099D01*
X897697Y532014D01*
D02*
G37*
G36*
X560070Y318080D02*
Y313690D01*
X564460D01*
X563645Y315657D01*
X562037Y317265D01*
X560070Y318080D01*
D02*
G37*
G36*
X557530D02*
X555563Y317265D01*
X553955Y315657D01*
X553140Y313690D01*
X557530D01*
Y318080D01*
D02*
G37*
G36*
X313690Y313000D02*
Y308610D01*
X318080D01*
X317265Y310577D01*
X315657Y312185D01*
X313690Y313000D01*
D02*
G37*
G36*
X311150D02*
X309183Y312185D01*
X307575Y310577D01*
X306760Y308610D01*
X311150D01*
Y313000D01*
D02*
G37*
G36*
X564460Y311150D02*
X560070D01*
Y306760D01*
X562037Y307575D01*
X563645Y309183D01*
X564460Y311150D01*
D02*
G37*
G36*
X557530D02*
X553140D01*
X553955Y309183D01*
X555563Y307575D01*
X557530Y306760D01*
Y311150D01*
D02*
G37*
G36*
X318080Y306070D02*
X313690D01*
Y301680D01*
X315657Y302495D01*
X317265Y304103D01*
X318080Y306070D01*
D02*
G37*
G36*
X311150D02*
X306760D01*
X307575Y304103D01*
X309183Y302495D01*
X311150Y301680D01*
Y306070D01*
D02*
G37*
G36*
X788670Y302840D02*
Y298450D01*
X793060D01*
X792245Y300417D01*
X790637Y302025D01*
X788670Y302840D01*
D02*
G37*
G36*
X786130D02*
X784163Y302025D01*
X782555Y300417D01*
X781740Y298450D01*
X786130D01*
Y302840D01*
D02*
G37*
G36*
X793060Y295910D02*
X788670D01*
Y291520D01*
X790637Y292335D01*
X792245Y293943D01*
X793060Y295910D01*
D02*
G37*
G36*
X786130D02*
X781740D01*
X782555Y293943D01*
X784163Y292335D01*
X786130Y291520D01*
Y295910D01*
D02*
G37*
G36*
X633730Y292680D02*
Y288290D01*
X638120D01*
X637305Y290257D01*
X635697Y291865D01*
X633730Y292680D01*
D02*
G37*
G36*
X631190D02*
X629223Y291865D01*
X627615Y290257D01*
X626800Y288290D01*
X631190D01*
Y292680D01*
D02*
G37*
G36*
X638120Y285750D02*
X633730D01*
Y281360D01*
X635697Y282175D01*
X637305Y283783D01*
X638120Y285750D01*
D02*
G37*
G36*
X631190D02*
X626800D01*
X627615Y283783D01*
X629223Y282175D01*
X631190Y281360D01*
Y285750D01*
D02*
G37*
G36*
X410210Y285060D02*
Y280670D01*
X414600D01*
X413785Y282637D01*
X412177Y284245D01*
X410210Y285060D01*
D02*
G37*
G36*
X407670D02*
X405703Y284245D01*
X404095Y282637D01*
X403280Y280670D01*
X407670D01*
Y285060D01*
D02*
G37*
G36*
X414600Y278130D02*
X410210D01*
Y273740D01*
X412177Y274555D01*
X413785Y276163D01*
X414600Y278130D01*
D02*
G37*
G36*
X407670D02*
X403280D01*
X404095Y276163D01*
X405703Y274555D01*
X407670Y273740D01*
Y278130D01*
D02*
G37*
G36*
X992670Y300416D02*
X988530D01*
X984470Y299608D01*
X980645Y298024D01*
X977203Y295724D01*
X974276Y292797D01*
X971976Y289355D01*
X970392Y285530D01*
X969584Y281470D01*
Y277330D01*
X970392Y273270D01*
X971976Y269445D01*
X974276Y266003D01*
X977203Y263076D01*
X980645Y260776D01*
X984470Y259192D01*
X988530Y258384D01*
X992670D01*
X996730Y259192D01*
X1000555Y260776D01*
X1003997Y263076D01*
X1006924Y266003D01*
X1009224Y269445D01*
X1010808Y273270D01*
X1011616Y277330D01*
Y281470D01*
X1010808Y285530D01*
X1009224Y289355D01*
X1006924Y292797D01*
X1003997Y295724D01*
X1000555Y298024D01*
X996730Y299608D01*
X992670Y300416D01*
D02*
G37*
G36*
X281470D02*
X277330D01*
X273270Y299608D01*
X269445Y298024D01*
X266003Y295724D01*
X263076Y292797D01*
X260776Y289355D01*
X259192Y285530D01*
X258384Y281470D01*
Y277330D01*
X259192Y273270D01*
X260776Y269445D01*
X263076Y266003D01*
X266003Y263076D01*
X269445Y260776D01*
X273270Y259192D01*
X277330Y258384D01*
X281470D01*
X285530Y259192D01*
X289355Y260776D01*
X292797Y263076D01*
X295724Y266003D01*
X298024Y269445D01*
X299608Y273270D01*
X300416Y277330D01*
Y281470D01*
X299608Y285530D01*
X298024Y289355D01*
X295724Y292797D01*
X292797Y295724D01*
X289355Y298024D01*
X285530Y299608D01*
X281470Y300416D01*
D02*
G37*
%LPD*%
D10*
X609600Y414020D02*
X611505Y412115D01*
X365760Y414020D02*
X609600D01*
X803501Y602841D02*
X807720Y607060D01*
X899160D01*
X911502Y529999D02*
Y594718D01*
X803501Y593999D02*
Y602841D01*
X899160Y607060D02*
X911502Y594718D01*
X523240Y678180D02*
Y721360D01*
X551180Y650240D02*
X612140D01*
X523240Y678180D02*
X551180Y650240D01*
X612140D02*
X668020Y594360D01*
X784860D02*
X803140D01*
X668020D02*
X784860D01*
Y451998D02*
Y594360D01*
Y451998D02*
X803501D01*
X520700Y335280D02*
Y347980D01*
X302260Y414020D02*
X353060Y363220D01*
X505460D02*
X520700Y347980D01*
X881380Y370840D02*
Y485879D01*
X642620Y335280D02*
X652780Y325120D01*
X353060Y363220D02*
X505460D01*
X520700Y335280D02*
X563880D01*
X896501Y358021D02*
Y489999D01*
X673100Y335280D02*
Y342900D01*
X611505Y399415D02*
Y412115D01*
X363220Y370840D02*
X571500D01*
X596900Y345440D01*
X584200Y314960D02*
X853440D01*
X835660Y325120D02*
X881380Y370840D01*
X596900Y335280D02*
Y345440D01*
X307340Y426720D02*
X363220Y370840D01*
X754258Y451998D02*
X784860D01*
X881380Y485879D02*
X881499Y485998D01*
X596900Y335280D02*
X642620D01*
X515620Y490220D02*
Y528320D01*
X652780Y325120D02*
X835660D01*
X612140Y398780D02*
X701040D01*
X803140Y594360D02*
X803501Y593999D01*
X370840Y378460D02*
X637540D01*
X284480Y464820D02*
X370840Y378460D01*
X266700Y464820D02*
X284480D01*
X266700Y414020D02*
X302260D01*
X701040Y398780D02*
X754258Y451998D01*
X611505Y399415D02*
X612140Y398780D01*
X853440Y314960D02*
X896501Y358021D01*
X637540Y378460D02*
X673100Y342900D01*
X266700Y426720D02*
X307340D01*
X563880Y335280D02*
X584200Y314960D01*
X275499Y762000D02*
G03*
X254000Y740501I0J-21499D01*
G01*
Y275499D02*
G03*
X275499Y254000I21499J0D01*
G01*
X1016000Y740501D02*
G03*
X994501Y762000I-21499J0D01*
G01*
Y254000D02*
G03*
X1016000Y275499I0J21499D01*
G01*
X275499Y762000D02*
X994501D01*
X275499Y254000D02*
X994501D01*
X254000Y275499D02*
Y740501D01*
X1016000Y275499D02*
Y740501D01*
D15*
X667090Y706410D02*
Y736310D01*
X506390Y706410D02*
X667090D01*
X506390D02*
Y736310D01*
X667090D01*
X344260Y625810D02*
X354260D01*
X349260Y620810D02*
Y630810D01*
D42*
X825500Y508000D02*
D03*
D43*
X960501Y642999D02*
D03*
X690501Y372999D02*
D03*
D44*
X803501Y593999D02*
D03*
X807502Y578998D02*
D03*
X811499Y563999D02*
D03*
X815500Y593999D02*
D03*
X819501Y578998D02*
D03*
X823501Y563999D02*
D03*
X827502Y593999D02*
D03*
X831499Y578998D02*
D03*
X835500Y563999D02*
D03*
X839501Y593999D02*
D03*
X843501Y578998D02*
D03*
X847502Y563999D02*
D03*
X911502Y529999D02*
D03*
X896501Y525998D02*
D03*
X881499Y521998D02*
D03*
X911502Y518000D02*
D03*
X896501Y513999D02*
D03*
X881499Y509999D02*
D03*
X911502Y505998D02*
D03*
X896501Y501998D02*
D03*
X881499Y498000D02*
D03*
X911502Y493999D02*
D03*
X896501Y489999D02*
D03*
X881499Y485998D02*
D03*
X847502Y421998D02*
D03*
X843501Y436999D02*
D03*
X839501Y451998D02*
D03*
X835500Y421998D02*
D03*
X831499Y436999D02*
D03*
X827502Y451998D02*
D03*
X823501Y421998D02*
D03*
X819501Y436999D02*
D03*
X815500Y451998D02*
D03*
X811499Y421998D02*
D03*
X807502Y436999D02*
D03*
X803501Y451998D02*
D03*
X739501Y485998D02*
D03*
X754499Y489999D02*
D03*
X769501Y493999D02*
D03*
X739501Y498000D02*
D03*
X754499Y501998D02*
D03*
X769501Y505998D02*
D03*
X739501Y509999D02*
D03*
X754499Y513999D02*
D03*
X769501Y518000D02*
D03*
X739501Y521998D02*
D03*
X754499Y525998D02*
D03*
X769501Y529999D02*
D03*
D45*
X523240Y721360D02*
D03*
D46*
X548640D02*
D03*
X574040D02*
D03*
X599440D02*
D03*
X624840D02*
D03*
X650240D02*
D03*
D47*
X359260Y653310D02*
D03*
Y598310D02*
D03*
D48*
X594360Y502920D02*
D03*
X619760D02*
D03*
X612140Y398780D02*
D03*
X586740D02*
D03*
D49*
X279400Y279400D02*
D03*
Y736600D02*
D03*
X990600D02*
D03*
Y279400D02*
D03*
D50*
X772160Y744220D02*
D03*
X937260Y739140D02*
D03*
X909320Y683260D02*
D03*
X792480D02*
D03*
X408940Y279400D02*
D03*
X312420Y307340D02*
D03*
X287020Y665480D02*
D03*
X462280Y675640D02*
D03*
X330200Y497840D02*
D03*
X287020Y533400D02*
D03*
X330200Y342900D02*
D03*
X373380Y391160D02*
D03*
X370840Y444500D02*
D03*
X391160Y495300D02*
D03*
X480060Y523240D02*
D03*
Y485140D02*
D03*
X419100Y452120D02*
D03*
X421640Y398780D02*
D03*
Y347980D02*
D03*
X538480Y388620D02*
D03*
X477520Y327660D02*
D03*
X558800Y312420D02*
D03*
X632460Y287020D02*
D03*
X787400Y297180D02*
D03*
X894080Y330200D02*
D03*
X960120Y337820D02*
D03*
X995680Y386080D02*
D03*
X993140Y477520D02*
D03*
X995680Y607060D02*
D03*
X947420Y449580D02*
D03*
X871220Y388620D02*
D03*
X789940Y391160D02*
D03*
X726440Y439420D02*
D03*
X693420Y551180D02*
D03*
X680720Y604520D02*
D03*
X609600Y746760D02*
D03*
X447040Y741680D02*
D03*
X505460Y647700D02*
D03*
X482600Y563880D02*
D03*
X622300Y581660D02*
D03*
X558800Y477520D02*
D03*
X538480Y429260D02*
D03*
X779780Y640080D02*
D03*
X878840Y642620D02*
D03*
X266700Y426720D02*
D03*
X520700Y335280D02*
D03*
X596900D02*
D03*
X673100D02*
D03*
X515620Y528320D02*
D03*
X266700Y464820D02*
D03*
Y414020D02*
D03*
X515620Y490220D02*
D03*
X365760Y414020D02*
D03*
M02*
