G04*
G04 #@! TF.GenerationSoftware,Altium Limited,Altium Designer,21.3.2 (30)*
G04*
G04 Layer_Physical_Order=1*
G04 Layer_Color=255*
%FSLAX25Y25*%
%MOIN*%
G70*
G04*
G04 #@! TF.SameCoordinates,A236C9B4-8AE0-4B67-9D85-2998E959901C*
G04*
G04*
G04 #@! TF.FilePolarity,Positive*
G04*
G01*
G75*
%ADD10C,0.01000*%
%ADD11C,0.00400*%
%ADD15C,0.00600*%
%ADD19R,0.05906X0.02913*%
%ADD20R,0.01968X0.02362*%
%ADD21R,0.02362X0.01968*%
%ADD22R,0.01968X0.02756*%
%ADD23R,0.02756X0.00984*%
%ADD24R,0.02756X0.02756*%
%ADD25R,0.00984X0.02756*%
%ADD26R,0.02362X0.02362*%
%ADD28R,0.02362X0.02362*%
G04:AMPARAMS|DCode=29|XSize=51.18mil|YSize=23.62mil|CornerRadius=2.01mil|HoleSize=0mil|Usage=FLASHONLY|Rotation=0.000|XOffset=0mil|YOffset=0mil|HoleType=Round|Shape=RoundedRectangle|*
%AMROUNDEDRECTD29*
21,1,0.05118,0.01961,0,0,0.0*
21,1,0.04717,0.02362,0,0,0.0*
1,1,0.00402,0.02358,-0.00980*
1,1,0.00402,-0.02358,-0.00980*
1,1,0.00402,-0.02358,0.00980*
1,1,0.00402,0.02358,0.00980*
%
%ADD29ROUNDEDRECTD29*%
%ADD30R,0.18110X0.18110*%
%ADD31O,0.00787X0.03740*%
%ADD32O,0.03740X0.00787*%
%ADD33R,0.01181X0.05709*%
%ADD34R,0.02362X0.04331*%
%ADD35O,0.01378X0.07284*%
%ADD36R,0.02362X0.02756*%
%ADD60R,0.00984X0.02362*%
%ADD61R,0.07874X0.06299*%
%ADD62R,0.02264X0.04488*%
G04:AMPARAMS|DCode=63|XSize=39.37mil|YSize=78.74mil|CornerRadius=9.84mil|HoleSize=0mil|Usage=FLASHONLY|Rotation=270.000|XOffset=0mil|YOffset=0mil|HoleType=Round|Shape=RoundedRectangle|*
%AMROUNDEDRECTD63*
21,1,0.03937,0.05906,0,0,270.0*
21,1,0.01968,0.07874,0,0,270.0*
1,1,0.01968,-0.02953,-0.00984*
1,1,0.01968,-0.02953,0.00984*
1,1,0.01968,0.02953,0.00984*
1,1,0.01968,0.02953,-0.00984*
%
%ADD63ROUNDEDRECTD63*%
G04:AMPARAMS|DCode=64|XSize=39.37mil|YSize=78.74mil|CornerRadius=9.84mil|HoleSize=0mil|Usage=FLASHONLY|Rotation=180.000|XOffset=0mil|YOffset=0mil|HoleType=Round|Shape=RoundedRectangle|*
%AMROUNDEDRECTD64*
21,1,0.03937,0.05906,0,0,180.0*
21,1,0.01968,0.07874,0,0,180.0*
1,1,0.01968,-0.00984,0.02953*
1,1,0.01968,0.00984,0.02953*
1,1,0.01968,0.00984,-0.02953*
1,1,0.01968,-0.00984,-0.02953*
%
%ADD64ROUNDEDRECTD64*%
G04:AMPARAMS|DCode=65|XSize=39.37mil|YSize=39.37mil|CornerRadius=9.84mil|HoleSize=0mil|Usage=FLASHONLY|Rotation=90.000|XOffset=0mil|YOffset=0mil|HoleType=Round|Shape=RoundedRectangle|*
%AMROUNDEDRECTD65*
21,1,0.03937,0.01968,0,0,90.0*
21,1,0.01968,0.03937,0,0,90.0*
1,1,0.01968,0.00984,0.00984*
1,1,0.01968,0.00984,-0.00984*
1,1,0.01968,-0.00984,-0.00984*
1,1,0.01968,-0.00984,0.00984*
%
%ADD65ROUNDEDRECTD65*%
%ADD66C,0.02500*%
D10*
X115000Y90063D02*
Y95000D01*
X103000D02*
Y99937D01*
Y95000D02*
X105968D01*
X115000Y87000D02*
X117250D01*
X115000D02*
Y89250D01*
Y84750D02*
Y87000D01*
X112750D02*
X115000D01*
X103000Y90063D02*
Y95000D01*
X91000D02*
X93968D01*
X113000Y53000D02*
X115250D01*
X113000D02*
Y55250D01*
X110750Y53000D02*
X113000D01*
X91000Y95000D02*
Y99937D01*
Y90063D02*
Y95000D01*
X78000D02*
X80968D01*
X78000D02*
Y99937D01*
Y90063D02*
Y95000D01*
X65500Y90063D02*
Y95000D01*
X68468D01*
X65500D02*
Y99937D01*
X84882Y65000D02*
X87063D01*
X84882Y61000D02*
X87063D01*
Y58819D02*
Y61000D01*
X75000Y55449D02*
Y58614D01*
X113000Y47000D02*
X115250D01*
X110750D02*
X113000D01*
Y50750D02*
Y53000D01*
Y44750D02*
Y47000D01*
Y49250D01*
Y42000D02*
Y44250D01*
Y42000D02*
X115250D01*
X110750D02*
X113000D01*
Y39750D02*
Y42000D01*
X112000Y29500D02*
X116937D01*
X112000Y26531D02*
Y29500D01*
X107063D02*
X112000D01*
Y17500D02*
X116937D01*
X112000Y14532D02*
Y17500D01*
Y2531D02*
Y5500D01*
X107063D02*
X112000D01*
X116937D01*
X103000Y2750D02*
Y5000D01*
Y7250D01*
Y5000D02*
X105250D01*
X100750D02*
X103000D01*
X93000Y1750D02*
Y4000D01*
X95250D01*
X93000D02*
Y6250D01*
X90750Y4000D02*
X93000D01*
X90118Y47032D02*
Y51673D01*
X87559Y42390D02*
Y47032D01*
Y51673D01*
X90118Y42390D02*
Y47032D01*
X85000D02*
Y51673D01*
X83311Y47032D02*
X85000D01*
Y42390D02*
Y47032D01*
X78740Y46000D02*
Y49165D01*
Y46000D02*
X80921D01*
X78740Y42835D02*
Y46000D01*
X78969Y37000D02*
X81150D01*
X78969D02*
Y39181D01*
X79000Y33000D02*
X81250D01*
X75000Y52284D02*
Y55449D01*
X68850Y41000D02*
X71031D01*
X74000Y4000D02*
Y6250D01*
Y4000D02*
X76250D01*
X74000Y1750D02*
Y4000D01*
X71750D02*
X74000D01*
X67000Y5000D02*
Y7250D01*
Y5000D02*
X69250D01*
X67000Y2750D02*
Y5000D01*
X64750D02*
X67000D01*
X53000Y95000D02*
Y99937D01*
Y95000D02*
X55968D01*
X53000Y90063D02*
Y95000D01*
X34000Y90063D02*
Y95000D01*
Y99937D01*
X52063Y79000D02*
X57000D01*
X61937D01*
X51571Y73488D02*
X53063D01*
X49882Y69000D02*
X52063D01*
Y62819D02*
Y65000D01*
X49882D02*
X52063D01*
X41000Y82000D02*
X43250D01*
X41000Y79750D02*
Y82000D01*
X38750D02*
X41000D01*
X39937Y74000D02*
X41921D01*
X39937D02*
Y76181D01*
X41000Y69937D02*
X43181D01*
X38819D02*
X41000D01*
X36087Y64031D02*
X38465D01*
X26622D02*
X29000D01*
X20000Y94937D02*
Y97118D01*
Y94937D02*
X22181D01*
X16000D02*
Y97118D01*
X13819Y94937D02*
X16000D01*
X19000Y82000D02*
Y84250D01*
X16750Y82000D02*
X19000D01*
X21250D01*
X9000Y96000D02*
X11969D01*
X9000D02*
Y98968D01*
X6032Y96000D02*
X9000D01*
X12937Y83000D02*
X15118D01*
X12937D02*
Y85181D01*
X4000Y86000D02*
Y88250D01*
Y86000D02*
X6250D01*
X1750D02*
X4000D01*
Y83750D02*
Y86000D01*
X17268Y70740D02*
Y72921D01*
X13709Y70740D02*
X17268D01*
X12937Y76819D02*
Y79000D01*
X15118D01*
X4000D02*
X6250D01*
X4000Y76750D02*
Y79000D01*
X1750D02*
X4000D01*
Y81250D01*
X48937Y59000D02*
Y61181D01*
Y56819D02*
Y59000D01*
X48000Y50000D02*
X50250D01*
X48000D02*
Y52250D01*
X45750Y50000D02*
X48000D01*
Y47750D02*
Y50000D01*
X28750Y46000D02*
X31000D01*
X33250D01*
X33130Y35575D02*
X36000D01*
X31000Y43750D02*
Y46000D01*
X52000Y11937D02*
X54181D01*
X48150Y12000D02*
Y14378D01*
X45000Y5685D02*
Y8063D01*
X41000Y15937D02*
X43181D01*
X41000D02*
Y18118D01*
X42819Y8063D02*
X45000D01*
X33130Y32425D02*
X36000D01*
X35000Y4063D02*
X37181D01*
X35000Y1882D02*
Y4063D01*
X31000Y1882D02*
Y4063D01*
X28819D02*
X31000D01*
X26000Y55000D02*
X27984D01*
X26000Y52819D02*
Y55000D01*
Y57181D01*
X23000Y41000D02*
X25250D01*
X20750D02*
X23000D01*
Y38750D02*
Y41000D01*
Y43250D01*
X16000Y42000D02*
Y44250D01*
X19000Y39000D02*
Y41250D01*
Y39000D02*
X21250D01*
X19000Y36750D02*
Y39000D01*
X16000Y42000D02*
X18250D01*
X16000Y39750D02*
Y42000D01*
X16750Y39000D02*
X19000D01*
X13750Y42000D02*
X16000D01*
X10000Y43000D02*
X12250D01*
X10000D02*
Y45250D01*
Y40750D02*
Y43000D01*
X11000Y37937D02*
Y40118D01*
X6000Y43000D02*
Y45250D01*
Y40750D02*
Y43000D01*
X3750D02*
X6000D01*
X7000Y37937D02*
Y40118D01*
X26000Y21750D02*
Y24000D01*
Y26250D01*
Y19000D02*
Y21250D01*
X25411Y34000D02*
Y37854D01*
Y30146D02*
Y34000D01*
X23750Y24000D02*
X26000D01*
X23750Y19000D02*
X26000D01*
Y16750D02*
Y19000D01*
Y9000D02*
Y11250D01*
X23750Y9000D02*
X26000D01*
X28250D01*
X26000Y5000D02*
X28250D01*
X23750D02*
X26000D01*
Y2750D02*
Y5000D01*
Y14000D02*
Y16250D01*
Y11750D02*
Y14000D01*
X23750D02*
X26000D01*
X11000Y37937D02*
X13181D01*
X4819D02*
X7000D01*
X16000Y29000D02*
Y31250D01*
X20000Y26750D02*
Y29000D01*
X22250D01*
X20000D02*
Y31250D01*
X16000Y26750D02*
Y29000D01*
X12000D02*
Y31250D01*
X9750Y29000D02*
X12000D01*
Y26750D02*
Y29000D01*
X6449Y102000D02*
G03*
X0Y95551I0J-6449D01*
G01*
X119000D02*
G03*
X112550Y102000I-6449J0D01*
G01*
Y0D02*
G03*
X119000Y6449I0J6449D01*
G01*
X0D02*
G03*
X6449Y0I6449J0D01*
G01*
X112550D01*
X119000Y6449D02*
Y95551D01*
X6449Y102000D02*
X112550D01*
X0Y6449D02*
Y95551D01*
D11*
X27823Y34000D02*
X36000D01*
X18937D02*
X23000D01*
X11000D02*
X15000D01*
X7000D02*
X11000D01*
X7000Y29937D02*
Y34000D01*
Y18000D02*
Y26000D01*
D15*
X114625Y100237D02*
G03*
X112172Y100800I-2454J-5065D01*
G01*
X114016Y100237D02*
G03*
X112225Y99371I0J-2284D01*
G01*
D02*
G03*
X110984Y99837I-1241J-1418D01*
G01*
X109016D02*
G03*
X107132Y97953I0J-1884D01*
G01*
X115984Y89763D02*
G03*
X117800Y90661I0J2284D01*
G01*
X112225Y90629D02*
G03*
X114016Y89763I1791J1418D01*
G01*
X111000Y90163D02*
G03*
X112225Y90629I-16J1884D01*
G01*
X106269Y97953D02*
G03*
X103984Y100237I-2284J0D01*
G01*
X107132Y92047D02*
G03*
X109000Y90163I1884J0D01*
G01*
X103984Y89763D02*
G03*
X106269Y92047I0J2284D01*
G01*
X117550Y87000D02*
G03*
X117550Y87000I-2550J0D01*
G01*
X108150Y83000D02*
G03*
X104097Y84000I-2150J0D01*
G01*
X110707Y80293D02*
G03*
X111000Y81000I-707J707D01*
G01*
X110707Y80293D02*
G03*
X111000Y81000I-707J707D01*
G01*
X104097Y82000D02*
G03*
X108150Y83000I1903J1000D01*
G01*
X102016Y100237D02*
G03*
X100225Y99371I0J-2284D01*
G01*
X97016Y99837D02*
G03*
X95131Y97953I0J-1884D01*
G01*
X100225Y90629D02*
G03*
X102016Y89763I1791J1418D01*
G01*
X99000Y90163D02*
G03*
X100225Y90629I-16J1884D01*
G01*
Y99371D02*
G03*
X98984Y99837I-1241J-1418D01*
G01*
X94269Y97953D02*
G03*
X91984Y100237I-2284J0D01*
G01*
X95131Y92047D02*
G03*
X97000Y90163I1884J0D01*
G01*
X91984Y89763D02*
G03*
X94269Y92047I0J2284D01*
G01*
X98707Y87293D02*
G03*
X99000Y88000I-707J707D01*
G01*
X98707Y87293D02*
G03*
X99000Y88000I-707J707D01*
G01*
X96000Y85000D02*
G03*
X96707Y85293I0J1000D01*
G01*
X96000Y85000D02*
G03*
X96707Y85293I0J1000D01*
G01*
X96000Y78097D02*
G03*
X97150Y80000I-1000J1903D01*
G01*
D02*
G03*
X95789Y82000I-2150J0D01*
G01*
X92903Y84000D02*
G03*
X91789Y85000I-1903J-1000D01*
G01*
X114000Y72097D02*
G03*
X115150Y74000I-1000J1903D01*
G01*
D02*
G03*
X112000Y72097I-2150J0D01*
G01*
X110800Y72086D02*
G03*
X110507Y72793I-1000J0D01*
G01*
X110800Y72086D02*
G03*
X110507Y72793I-1000J0D01*
G01*
X106000Y76000D02*
G03*
X106707Y76293I0J1000D01*
G01*
X106000Y76000D02*
G03*
X106707Y76293I0J1000D01*
G01*
X110036Y74000D02*
G03*
X105736Y74020I-2150J0D01*
G01*
D02*
G03*
X104211Y70000I-736J-2020D01*
G01*
X109939Y73361D02*
G03*
X110036Y74000I-2053J639D01*
G01*
X113707Y60293D02*
G03*
X114000Y61000I-707J707D01*
G01*
X113707Y60293D02*
G03*
X114000Y61000I-707J707D01*
G01*
X106150Y62000D02*
G03*
X102097Y63000I-2150J0D01*
G01*
X106093Y61507D02*
G03*
X106150Y62000I-2093J493D01*
G01*
X101000Y78000D02*
G03*
X100293Y77707I0J-1000D01*
G01*
X101000Y78000D02*
G03*
X100293Y77707I0J-1000D01*
G01*
X98230Y75644D02*
G03*
X97937Y74937I707J-707D01*
G01*
X98230Y75644D02*
G03*
X97937Y74937I707J-707D01*
G01*
X95707Y74293D02*
G03*
X96000Y75000I-707J707D01*
G01*
X95707Y74293D02*
G03*
X96000Y75000I-707J707D01*
G01*
X93081Y72003D02*
G03*
X93707Y72293I-81J997D01*
G01*
X93081Y72003D02*
G03*
X93707Y72293I-81J997D01*
G01*
X97000Y63000D02*
G03*
X96293Y62707I0J-1000D01*
G01*
X97000Y63000D02*
G03*
X96293Y62707I0J-1000D01*
G01*
X94529Y60943D02*
G03*
X94236Y60236I707J-707D01*
G01*
X94529Y60943D02*
G03*
X94236Y60236I707J-707D01*
G01*
X90016Y100237D02*
G03*
X88225Y99371I0J-2284D01*
G01*
X85016Y99837D02*
G03*
X83131Y97953I0J-1884D01*
G01*
X88225Y99371D02*
G03*
X86984Y99837I-1241J-1418D01*
G01*
X83131Y92047D02*
G03*
X85000Y90163I1884J0D01*
G01*
X87000D02*
G03*
X88225Y90629I-16J1884D01*
G01*
X77016Y100237D02*
G03*
X75225Y99371I0J-2284D01*
G01*
X81269Y97953D02*
G03*
X78984Y100237I-2284J0D01*
G01*
X73984Y90163D02*
G03*
X75225Y90629I0J1884D01*
G01*
D02*
G03*
X77016Y89763I1791J1418D01*
G01*
X88225Y90629D02*
G03*
X90016Y89763I1791J1418D01*
G01*
X86707Y88293D02*
G03*
X87000Y89000I-707J707D01*
G01*
X86707Y88293D02*
G03*
X87000Y89000I-707J707D01*
G01*
X89000Y87000D02*
G03*
X88293Y86707I0J-1000D01*
G01*
X89000Y87000D02*
G03*
X88293Y86707I0J-1000D01*
G01*
X86293Y84707D02*
G03*
X86000Y84000I707J-707D01*
G01*
X86293Y84707D02*
G03*
X86000Y84000I707J-707D01*
G01*
X78984Y89763D02*
G03*
X81269Y92047I0J2284D01*
G01*
X85000Y87000D02*
G03*
X85707Y87293I0J1000D01*
G01*
X85000Y87000D02*
G03*
X85707Y87293I0J1000D01*
G01*
X75225Y99371D02*
G03*
X73984Y99837I-1241J-1418D01*
G01*
X72016D02*
G03*
X70131Y97953I0J-1884D01*
G01*
X68769D02*
G03*
X66484Y100237I-2284J0D01*
G01*
X70131Y92047D02*
G03*
X72016Y90163I1884J0D01*
G01*
X66484Y89763D02*
G03*
X68769Y92047I0J2284D01*
G01*
X64516Y100237D02*
G03*
X62725Y99371I0J-2284D01*
G01*
Y90629D02*
G03*
X64516Y89763I1791J1418D01*
G01*
X62725Y99371D02*
G03*
X61484Y99837I-1241J-1418D01*
G01*
Y90163D02*
G03*
X62725Y90629I0J1884D01*
G01*
X64000Y86000D02*
G03*
X63707Y86707I-1000J0D01*
G01*
X64000Y86000D02*
G03*
X63707Y86707I-1000J0D01*
G01*
X85150Y78000D02*
G03*
X82000Y76097I-2150J0D01*
G01*
X84000D02*
G03*
X85150Y78000I-1000J1903D01*
G01*
X80006Y68541D02*
G03*
X79713Y69248I-1000J0D01*
G01*
X81000Y66649D02*
G03*
X80707Y67356I-1000J0D01*
G01*
X81000Y66649D02*
G03*
X80707Y67356I-1000J0D01*
G01*
X80006Y68541D02*
G03*
X79713Y69248I-1000J0D01*
G01*
X78006Y67642D02*
G03*
X78299Y66935I1000J0D01*
G01*
X78006Y67642D02*
G03*
X78299Y66935I1000J0D01*
G01*
X90000Y54000D02*
G03*
X90293Y53293I1000J0D01*
G01*
X90000Y54000D02*
G03*
X90293Y53293I1000J0D01*
G01*
X80707Y60293D02*
G03*
X81000Y61000I-707J707D01*
G01*
X80707Y60293D02*
G03*
X81000Y61000I-707J707D01*
G01*
X78033Y60447D02*
G03*
X77740Y59740I707J-707D01*
G01*
X78033Y60447D02*
G03*
X77740Y59740I707J-707D01*
G01*
X80150Y75000D02*
G03*
X76097Y76000I-2150J0D01*
G01*
Y74000D02*
G03*
X80150Y75000I1903J1000D01*
G01*
X79150Y70000D02*
G03*
X78006Y68100I-2150J0D01*
G01*
X68293Y74293D02*
G03*
X69000Y74000I707J707D01*
G01*
X68293Y74293D02*
G03*
X69000Y74000I707J707D01*
G01*
X65000Y65000D02*
G03*
X64707Y65707I-1000J0D01*
G01*
X65000Y65000D02*
G03*
X64707Y65707I-1000J0D01*
G01*
X79000Y63789D02*
G03*
X75097Y64000I-2000J-789D01*
G01*
Y62000D02*
G03*
X79000Y62211I1903J1000D01*
G01*
X72260Y58649D02*
G03*
X71967Y59356I-1000J0D01*
G01*
X72260Y58649D02*
G03*
X71967Y59356I-1000J0D01*
G01*
X69903Y60000D02*
G03*
X68789Y61000I-1903J-1000D01*
G01*
D02*
G03*
X69903Y62000I-789J2000D01*
G01*
X71615Y59707D02*
G03*
X70908Y60000I-707J-707D01*
G01*
X71615Y59707D02*
G03*
X70908Y60000I-707J-707D01*
G01*
X69903Y64000D02*
G03*
X65852Y63092I-1903J-1000D01*
G01*
D02*
G03*
X65000Y63903I-1852J-1092D01*
G01*
X66097Y58000D02*
G03*
X69179Y57202I1903J1000D01*
G01*
X66150Y56130D02*
G03*
X65061Y58000I-2150J0D01*
G01*
X65000Y54227D02*
G03*
X66150Y56130I-1000J1903D01*
G01*
X115550Y53000D02*
G03*
X115550Y53000I-2550J0D01*
G01*
Y47000D02*
G03*
X112497Y44500I-2550J0D01*
G01*
X115550Y42000D02*
G03*
X113503Y44500I-2550J0D01*
G01*
D02*
G03*
X115550Y47000I-502J2500D01*
G01*
X112497Y44500D02*
G03*
X115550Y42000I502J-2500D01*
G01*
X117237Y30484D02*
G03*
X116371Y32275I-2284J0D01*
G01*
X117237Y18484D02*
G03*
X116371Y20275I-2284J0D01*
G01*
Y32275D02*
G03*
X116837Y33516I-1418J1241D01*
G01*
Y35484D02*
G03*
X114953Y37369I-1884J0D01*
G01*
Y26232D02*
G03*
X117237Y28516I0J2284D01*
G01*
X116837Y23484D02*
G03*
X114953Y25368I-1884J0D01*
G01*
X116371Y20275D02*
G03*
X116837Y21516I-1418J1241D01*
G01*
X107707Y41293D02*
G03*
X108000Y42000I-707J707D01*
G01*
X107707Y41293D02*
G03*
X108000Y42000I-707J707D01*
G01*
X104000Y38000D02*
G03*
X104707Y38293I0J1000D01*
G01*
X109047Y37369D02*
G03*
X107163Y35484I0J-1884D01*
G01*
X104000Y38000D02*
G03*
X104707Y38293I0J1000D01*
G01*
X107163Y33516D02*
G03*
X107629Y32275I1884J0D01*
G01*
X93677Y52323D02*
G03*
X93384Y53030I-1000J0D01*
G01*
X93957Y50926D02*
G03*
X93677Y51219I-1280J-942D01*
G01*
Y52323D02*
G03*
X93384Y53030I-1000J0D01*
G01*
X91677Y51219D02*
G03*
X88839Y51507I-1559J-1235D01*
G01*
X94236Y51219D02*
G03*
X93957Y50926I1000J-1235D01*
G01*
X88839Y42556D02*
G03*
X91677Y42844I1280J1523D01*
G01*
X107629Y32275D02*
G03*
X106763Y30484I1418J-1791D01*
G01*
X109047Y25368D02*
G03*
X107163Y23484I0J-1884D01*
G01*
X106763Y28516D02*
G03*
X109047Y26232I2284J0D01*
G01*
X107163Y23441D02*
G03*
X106793Y23207I337J-941D01*
G01*
X107163Y23441D02*
G03*
X106793Y23207I337J-941D01*
G01*
X104502Y26953D02*
G03*
X101634Y27895I-1589J0D01*
G01*
D02*
G03*
X99075Y27895I-1280J-942D01*
G01*
X105293Y21707D02*
G03*
X105000Y21000I707J-707D01*
G01*
X99075Y27895D02*
G03*
X98795Y28188I-1280J-942D01*
G01*
X105293Y21707D02*
G03*
X105000Y21000I707J-707D01*
G01*
X103913Y19812D02*
G03*
X104502Y21047I-1000J1235D01*
G01*
X91398Y20105D02*
G03*
X91677Y19812I1280J942D01*
G01*
X103621Y18206D02*
G03*
X103913Y18913I-707J707D01*
G01*
X114953Y14232D02*
G03*
X117237Y16516I0J2284D01*
G01*
X116837Y11484D02*
G03*
X114953Y13368I-1884J0D01*
G01*
X106707Y15293D02*
G03*
X106935Y15646I-707J707D01*
G01*
X103621Y18206D02*
G03*
X103913Y18913I-707J707D01*
G01*
X106707Y15293D02*
G03*
X106935Y15646I-707J707D01*
G01*
D02*
G03*
X109047Y14232I2112J870D01*
G01*
Y13368D02*
G03*
X107163Y11484I0J-1884D01*
G01*
X103000Y12000D02*
G03*
X103707Y12293I0J1000D01*
G01*
X103000Y12000D02*
G03*
X103707Y12293I0J1000D01*
G01*
X117165Y3947D02*
G03*
X117800Y6449I-4614J2503D01*
G01*
X117237Y6484D02*
G03*
X116371Y8275I-2284J0D01*
G01*
D02*
G03*
X116837Y9516I-1418J1241D01*
G01*
X117165Y3947D02*
G03*
X117237Y4516I-2212J569D01*
G01*
X114953Y2231D02*
G03*
X115981Y2476I0J2284D01*
G01*
X112550Y1200D02*
G03*
X115981Y2476I0J5249D01*
G01*
X107163Y9516D02*
G03*
X107629Y8275I1884J0D01*
G01*
D02*
G03*
X106763Y6484I1418J-1791D01*
G01*
Y4516D02*
G03*
X109047Y2231I2284J0D01*
G01*
X101000Y16000D02*
G03*
X101707Y16293I0J1000D01*
G01*
X101000Y16000D02*
G03*
X101707Y16293I0J1000D01*
G01*
X93677Y15305D02*
G03*
X96903Y16000I1323J1695D01*
G01*
X93293Y12293D02*
G03*
X94000Y12000I707J707D01*
G01*
X93293Y12293D02*
G03*
X94000Y12000I707J707D01*
G01*
X91677Y14323D02*
G03*
X91970Y13616I1000J0D01*
G01*
X91677Y14323D02*
G03*
X91970Y13616I1000J0D01*
G01*
X105550Y5000D02*
G03*
X105550Y5000I-2550J0D01*
G01*
X95550Y4000D02*
G03*
X95550Y4000I-2550J0D01*
G01*
X88839Y51507D02*
G03*
X86279Y51507I-1280J-1523D01*
G01*
D02*
G03*
X83011Y49984I-1280J-1523D01*
G01*
X86279Y42556D02*
G03*
X88839Y42556I1280J1523D01*
G01*
X83011Y44079D02*
G03*
X86279Y42556I1989J0D01*
G01*
X79707Y41707D02*
G03*
X79000Y42000I-707J-707D01*
G01*
X79707Y41707D02*
G03*
X79000Y42000I-707J-707D01*
G01*
X88559Y36441D02*
G03*
X88266Y37148I-1000J0D01*
G01*
X88559Y36441D02*
G03*
X88266Y37148I-1000J0D01*
G01*
X85707Y39707D02*
G03*
X85000Y40000I-707J-707D01*
G01*
X85707Y39707D02*
G03*
X85000Y40000I-707J-707D01*
G01*
X81550Y33000D02*
G03*
X81048Y34519I-2550J0D01*
G01*
X67000Y50000D02*
G03*
X66707Y50707I-1000J0D01*
G01*
X67000Y50000D02*
G03*
X66707Y50707I-1000J0D01*
G01*
X70031Y37168D02*
G03*
X70324Y36461I1000J0D01*
G01*
X70031Y37168D02*
G03*
X70324Y36461I1000J0D01*
G01*
X86559Y28188D02*
G03*
X86279Y27895I1000J-1235D01*
G01*
D02*
G03*
X83411Y26953I-1280J-942D01*
G01*
X91118Y19812D02*
G03*
X91398Y20105I-1000J1235D01*
G01*
X83411Y21047D02*
G03*
X84000Y19812I1589J0D01*
G01*
X83785Y18199D02*
G03*
X80081Y17970I-1785J-1199D01*
G01*
X82000Y29000D02*
G03*
X81707Y29707I-1000J0D01*
G01*
X82000Y29000D02*
G03*
X81707Y29707I-1000J0D01*
G01*
Y22644D02*
G03*
X82000Y23351I-707J707D01*
G01*
X81707Y22644D02*
G03*
X82000Y23351I-707J707D01*
G01*
X80442Y30897D02*
G03*
X81550Y33000I-1442J2103D01*
G01*
X80707Y30707D02*
G03*
X80442Y30897I-707J-707D01*
G01*
X80707Y30707D02*
G03*
X80442Y30897I-707J-707D01*
G01*
X80648Y22000D02*
G03*
X81356Y22293I0J1000D01*
G01*
X80648Y22000D02*
G03*
X81356Y22293I0J1000D01*
G01*
X90825Y11411D02*
G03*
X91118Y12118I-707J707D01*
G01*
X90825Y11411D02*
G03*
X91118Y12118I-707J707D01*
G01*
X91000Y10000D02*
G03*
X90293Y9707I0J-1000D01*
G01*
X91000Y10000D02*
G03*
X90293Y9707I0J-1000D01*
G01*
X87000Y8000D02*
G03*
X87707Y8293I0J1000D01*
G01*
X88248Y5249D02*
G03*
X88956Y5541I0J1000D01*
G01*
X88248Y5249D02*
G03*
X88956Y5541I0J1000D01*
G01*
X87000Y8000D02*
G03*
X87707Y8293I0J1000D01*
G01*
X82247Y7248D02*
G03*
X82903Y8000I-1247J1751D01*
G01*
X78044Y5541D02*
G03*
X78751Y5249I707J707D01*
G01*
X77000Y7000D02*
G03*
X77293Y6293I1000J0D01*
G01*
X78044Y5541D02*
G03*
X78751Y5249I707J707D01*
G01*
X72839Y21191D02*
G03*
X75903Y22000I1161J1809D01*
G01*
X75032Y20031D02*
G03*
X74324Y19739I0J-1000D01*
G01*
X75032Y20031D02*
G03*
X74324Y19739I0J-1000D01*
G01*
X73293Y18707D02*
G03*
X73000Y18000I707J-707D01*
G01*
X73293Y18707D02*
G03*
X73000Y18000I707J-707D01*
G01*
X74707Y10293D02*
G03*
X75000Y11000I-707J707D01*
G01*
X74707Y10293D02*
G03*
X75000Y11000I-707J707D01*
G01*
X73248Y9249D02*
G03*
X73956Y9541I0J1000D01*
G01*
X73248Y9249D02*
G03*
X73956Y9541I0J1000D01*
G01*
X77000Y7000D02*
G03*
X77293Y6293I1000J0D01*
G01*
X76550Y4000D02*
G03*
X76550Y4000I-2550J0D01*
G01*
X69550Y5000D02*
G03*
X69550Y5000I-2550J0D01*
G01*
X59516Y99837D02*
G03*
X57631Y97953I0J-1884D01*
G01*
X56269D02*
G03*
X53984Y100237I-2284J0D01*
G01*
X57631Y92047D02*
G03*
X59516Y90163I1884J0D01*
G01*
X53984Y89763D02*
G03*
X56269Y92047I0J2284D01*
G01*
X52016Y100237D02*
G03*
X50225Y99371I0J-2284D01*
G01*
X49000Y90163D02*
G03*
X50225Y90629I-16J1884D01*
G01*
Y99371D02*
G03*
X48984Y99837I-1241J-1418D01*
G01*
X50225Y90629D02*
G03*
X52016Y89763I1791J1418D01*
G01*
X47016Y99837D02*
G03*
X45131Y97953I0J-1884D01*
G01*
Y92047D02*
G03*
X47000Y90163I1884J0D01*
G01*
X58000Y89000D02*
G03*
X57293Y88707I0J-1000D01*
G01*
X58000Y89000D02*
G03*
X57293Y88707I0J-1000D01*
G01*
X56293Y87707D02*
G03*
X56000Y87000I707J-707D01*
G01*
X56293Y87707D02*
G03*
X56000Y87000I707J-707D01*
G01*
X54707Y87707D02*
G03*
X54000Y88000I-707J-707D01*
G01*
X54707Y87707D02*
G03*
X54000Y88000I-707J-707D01*
G01*
X47000D02*
G03*
X47293Y87293I1000J0D01*
G01*
X47000Y88000D02*
G03*
X47293Y87293I1000J0D01*
G01*
X48293Y86293D02*
G03*
X49000Y86000I707J707D01*
G01*
X48293Y86293D02*
G03*
X49000Y86000I707J707D01*
G01*
X41868Y97953D02*
G03*
X39984Y99837I-1884J0D01*
G01*
X38016D02*
G03*
X36775Y99371I0J-1884D01*
G01*
X40235Y90180D02*
G03*
X41868Y92047I-250J1867D01*
G01*
X36775Y90629D02*
G03*
X38000Y90163I1241J1418D01*
G01*
Y90000D02*
G03*
X38293Y89293I1000J0D01*
G01*
X38000Y90000D02*
G03*
X38293Y89293I1000J0D01*
G01*
X33016Y100237D02*
G03*
X31225Y99371I0J-2284D01*
G01*
X36775D02*
G03*
X34984Y100237I-1791J-1418D01*
G01*
Y89763D02*
G03*
X36775Y90629I0J2284D01*
G01*
X31225Y99371D02*
G03*
X29984Y99837I-1241J-1418D01*
G01*
X31225Y90629D02*
G03*
X33016Y89763I1791J1418D01*
G01*
X30000Y90163D02*
G03*
X31225Y90629I-16J1884D01*
G01*
X39418Y84000D02*
G03*
X43550Y82000I1582J-2000D01*
G01*
X31150Y86000D02*
G03*
X30000Y87903I-2150J0D01*
G01*
X34000Y86000D02*
G03*
X33293Y85707I0J-1000D01*
G01*
X30000Y84097D02*
G03*
X31150Y86000I-1000J1903D01*
G01*
X34000D02*
G03*
X33293Y85707I0J-1000D01*
G01*
X31293Y83707D02*
G03*
X31000Y83000I707J-707D01*
G01*
X31293Y83707D02*
G03*
X31000Y83000I707J-707D01*
G01*
X48000Y82000D02*
G03*
X47707Y82707I-1000J0D01*
G01*
X48000Y82000D02*
G03*
X47707Y82707I-1000J0D01*
G01*
X43550Y82000D02*
G03*
X43524Y82365I-2550J0D01*
G01*
X53000Y60000D02*
G03*
X52707Y60707I-1000J0D01*
G01*
X53000Y60000D02*
G03*
X52707Y60707I-1000J0D01*
G01*
X46000Y65000D02*
G03*
X46293Y64293I1000J0D01*
G01*
X46000Y65000D02*
G03*
X46293Y64293I1000J0D01*
G01*
X36707Y71293D02*
G03*
X36997Y71919I-707J707D01*
G01*
X36707Y71293D02*
G03*
X36997Y71919I-707J707D01*
G01*
X28016Y99837D02*
G03*
X26131Y97953I0J-1884D01*
G01*
Y92047D02*
G03*
X28000Y90163I1884J0D01*
G01*
X22707Y91707D02*
G03*
X22081Y91997I-707J-707D01*
G01*
X22707Y91707D02*
G03*
X22081Y91997I-707J-707D01*
G01*
X24000Y90000D02*
G03*
X23707Y90707I-1000J0D01*
G01*
X24000Y90000D02*
G03*
X23707Y90707I-1000J0D01*
G01*
X28000Y87903D02*
G03*
X28000Y84097I1000J-1903D01*
G01*
X19534Y79506D02*
G03*
X21550Y82000I-534J2493D01*
G01*
D02*
G03*
X17356Y80051I-2550J0D01*
G01*
X12269Y96984D02*
G03*
X9984Y99269I-2284J0D01*
G01*
X11402Y93225D02*
G03*
X12269Y95016I-1418J1791D01*
G01*
X11868Y92000D02*
G03*
X11402Y93225I-1884J-16D01*
G01*
X8016Y99269D02*
G03*
X5731Y96984I0J-2284D01*
G01*
X6828Y100800D02*
G03*
X1200Y95172I0J-5628D01*
G01*
X5731Y95016D02*
G03*
X6598Y93225I2284J0D01*
G01*
D02*
G03*
X6132Y91984I1418J-1241D01*
G01*
X9984Y88131D02*
G03*
X11868Y90000I0J1884D01*
G01*
X6132Y90016D02*
G03*
X8016Y88131I1884J0D01*
G01*
X11086Y85481D02*
G03*
X11150Y86000I-2086J519D01*
G01*
D02*
G03*
X9281Y88131I-2150J0D01*
G01*
X8719D02*
G03*
X7056Y85081I282J-2131D01*
G01*
X6550Y86000D02*
G03*
X6550Y86000I-2550J0D01*
G01*
Y79000D02*
G03*
X6550Y79000I-2550J0D01*
G01*
X21707Y78707D02*
G03*
X21000Y79000I-707J-707D01*
G01*
X21707Y78707D02*
G03*
X21000Y79000I-707J-707D01*
G01*
X28000Y77000D02*
G03*
X28293Y76293I1000J0D01*
G01*
X28000Y77000D02*
G03*
X28293Y76293I1000J0D01*
G01*
X20800Y72655D02*
G03*
X19626Y73221I-1174J-935D01*
G01*
X19903Y79000D02*
G03*
X19534Y79506I-1903J-1000D01*
G01*
X17356Y80051D02*
G03*
X19903Y77000I644J-2051D01*
G01*
X14909Y73221D02*
G03*
X13409Y71720I0J-1501D01*
G01*
X24293Y65293D02*
G03*
X25000Y65000I707J707D01*
G01*
X19740Y68263D02*
G03*
X20800Y68825I-114J1496D01*
G01*
X20150Y67000D02*
G03*
X19740Y68263I-2150J0D01*
G01*
X24293Y65293D02*
G03*
X25000Y65000I707J707D01*
G01*
X16097Y66000D02*
G03*
X20150Y67000I1903J1000D01*
G01*
X16257Y68259D02*
G03*
X16097Y68000I1743J-1259D01*
G01*
X12459Y75461D02*
G03*
X11661Y76519I-1101J0D01*
G01*
X11358Y72399D02*
G03*
X12459Y73500I0J1101D01*
G01*
X6642Y76561D02*
G03*
X5541Y75461I0J-1101D01*
G01*
Y73500D02*
G03*
X6642Y72399I1101J0D01*
G01*
X13409Y69760D02*
G03*
X14909Y68259I1501J0D01*
G01*
X11358Y64919D02*
G03*
X12459Y66000I0J1101D01*
G01*
Y68000D02*
G03*
X11358Y69081I-1101J-20D01*
G01*
X12980Y60434D02*
G03*
X12624Y60663I-707J-707D01*
G01*
X12980Y60434D02*
G03*
X12624Y60663I-707J-707D01*
G01*
X6642Y69081D02*
G03*
X5541Y67980I0J-1101D01*
G01*
Y66020D02*
G03*
X6642Y64919I1101J0D01*
G01*
X55000Y53903D02*
G03*
X54215Y53199I1000J-1903D01*
G01*
X53293Y51293D02*
G03*
X54000Y51000I707J707D01*
G01*
X53293Y51293D02*
G03*
X54000Y51000I707J707D01*
G01*
X51000Y54000D02*
G03*
X51293Y53293I1000J0D01*
G01*
X51000Y54000D02*
G03*
X51293Y53293I1000J0D01*
G01*
X41707Y55644D02*
G03*
X42000Y56352I-707J707D01*
G01*
X41707Y55644D02*
G03*
X42000Y56352I-707J707D01*
G01*
X40648Y55000D02*
G03*
X41356Y55293I0J1000D01*
G01*
X40648Y55000D02*
G03*
X41356Y55293I0J1000D01*
G01*
X54097Y51000D02*
G03*
X55240Y49989I1903J1000D01*
G01*
X50550Y50000D02*
G03*
X47816Y47457I-2550J0D01*
G01*
X52339Y47330D02*
G03*
X50764Y47330I-787J-1027D01*
G01*
X55240Y47479D02*
G03*
X53913Y47330I-539J-1176D01*
G01*
D02*
G03*
X52339Y47330I-787J-1027D01*
G01*
X48726Y47556D02*
G03*
X50550Y50000I-726J2444D01*
G01*
X50764Y47330D02*
G03*
X49189Y47330I-787J-1027D01*
G01*
D02*
G03*
X48726Y47556I-787J-1027D01*
G01*
X40707Y49707D02*
G03*
X40000Y50000I-707J-707D01*
G01*
X40707Y49707D02*
G03*
X40000Y50000I-707J-707D01*
G01*
X44465Y47330D02*
G03*
X42890Y47330I-787J-1027D01*
G01*
D02*
G03*
X41528Y47462I-787J-1027D01*
G01*
X47614Y47330D02*
G03*
X46039Y47330I-787J-1027D01*
G01*
X46039D02*
G03*
X44465Y47330I-787J-1027D01*
G01*
X41528Y48472D02*
G03*
X41235Y49180I-1000J0D01*
G01*
X41528Y48472D02*
G03*
X41235Y49180I-1000J0D01*
G01*
X38459Y53044D02*
G03*
X38751Y53722I-707J707D01*
G01*
X38459Y53044D02*
G03*
X38751Y53722I-707J707D01*
G01*
X37000Y52000D02*
G03*
X37707Y52293I0J1000D01*
G01*
X37000Y52000D02*
G03*
X37707Y52293I0J1000D01*
G01*
X39528Y47462D02*
G03*
X37659Y46303I-575J-1159D01*
G01*
X31293Y52293D02*
G03*
X32000Y52000I707J707D01*
G01*
X31293Y52293D02*
G03*
X32000Y52000I707J707D01*
G01*
X33550Y46000D02*
G03*
X32582Y48000I-2550J0D01*
G01*
X29418D02*
G03*
X29015Y44399I1582J-2000D01*
G01*
X29399Y44015D02*
G03*
X33550Y46000I1601J1985D01*
G01*
X34524Y43168D02*
G03*
X33497Y41087I0J-1294D01*
G01*
D02*
G03*
X33236Y40179I1027J-787D01*
G01*
X32930Y36150D02*
G03*
X32970Y34900I1593J-575D01*
G01*
X32970Y33100D02*
G03*
X32930Y31850I1553J-675D01*
G01*
X32143Y36443D02*
G03*
X32850Y36150I707J707D01*
G01*
X32143Y36443D02*
G03*
X32850Y36150I707J707D01*
G01*
X54481Y12478D02*
G03*
X55000Y12097I1519J1522D01*
G01*
X51097Y17000D02*
G03*
X51544Y14418I1903J-1000D01*
G01*
X56044Y9541D02*
G03*
X56752Y9249I707J707D01*
G01*
X55000Y11000D02*
G03*
X55293Y10293I1000J0D01*
G01*
X56044Y9541D02*
G03*
X56752Y9249I707J707D01*
G01*
X55000Y11000D02*
G03*
X55293Y10293I1000J0D01*
G01*
X44465Y19096D02*
G03*
X46039Y19096I787J1027D01*
G01*
X49000Y16000D02*
G03*
X49707Y16293I0J1000D01*
G01*
X46194Y18993D02*
G03*
X48903Y16000I805J-1993D01*
G01*
X49000D02*
G03*
X49707Y16293I0J1000D01*
G01*
X59000Y7000D02*
G03*
X58707Y7707I-1000J0D01*
G01*
X57707Y8707D02*
G03*
X57000Y9000I-707J-707D01*
G01*
X57707Y8707D02*
G03*
X57000Y9000I-707J-707D01*
G01*
X58707Y3293D02*
G03*
X59000Y4000I-707J707D01*
G01*
X58707Y3293D02*
G03*
X59000Y4000I-707J707D01*
G01*
Y7000D02*
G03*
X58707Y7707I-1000J0D01*
G01*
X57000Y2000D02*
G03*
X57707Y2293I0J1000D01*
G01*
X57000Y2000D02*
G03*
X57707Y2293I0J1000D01*
G01*
X53293D02*
G03*
X54000Y2000I707J707D01*
G01*
X53293Y2293D02*
G03*
X54000Y2000I707J707D01*
G01*
X41315Y19096D02*
G03*
X42890Y19096I787J1027D01*
G01*
D02*
G03*
X44465Y19096I787J1027D01*
G01*
X39740D02*
G03*
X41315Y19096I787J1027D01*
G01*
X38147Y19110D02*
G03*
X39740Y19096I806J1012D01*
G01*
X38102Y18548D02*
G03*
X38150Y19000I-2102J452D01*
G01*
X38809Y18418D02*
G03*
X38102Y18548I-809J-2418D01*
G01*
X32375Y31850D02*
G03*
X31668Y31558I0J-1000D01*
G01*
X32375Y31850D02*
G03*
X31668Y31558I0J-1000D01*
G01*
X43293Y3293D02*
G03*
X44000Y3000I707J707D01*
G01*
X43293Y3293D02*
G03*
X44000Y3000I707J707D01*
G01*
X28591Y55409D02*
G03*
X28883Y54702I1000J0D01*
G01*
X28591Y55409D02*
G03*
X28883Y54702I1000J0D01*
G01*
X20840Y52919D02*
G03*
X21093Y52493I960J281D01*
G01*
X20840Y52919D02*
G03*
X21093Y52493I960J281D01*
G01*
X25293Y48293D02*
G03*
X26000Y48000I707J707D01*
G01*
X25293Y48293D02*
G03*
X26000Y48000I707J707D01*
G01*
X25550Y41000D02*
G03*
X20452Y41096I-2550J0D01*
G01*
X21548Y38904D02*
G03*
X25550Y41000I1452J2096D01*
G01*
X20452Y41096D02*
G03*
X18501Y41501I-1452J-2096D01*
G01*
X18501Y41501D02*
G03*
X18550Y42000I-2501J499D01*
G01*
X16499Y39499D02*
G03*
X21548Y38904I2501J-499D01*
G01*
X12550Y43000D02*
G03*
X8000Y44582I-2550J0D01*
G01*
X18550Y42000D02*
G03*
X16499Y39499I-2550J0D01*
G01*
X8000Y41418D02*
G03*
X12550Y43000I2000J1582D01*
G01*
X8000Y44582D02*
G03*
X8000Y41418I-2000J-1582D01*
G01*
X28293Y28183D02*
G03*
X28000Y27476I707J-707D01*
G01*
X28293Y28183D02*
G03*
X28000Y27476I707J-707D01*
G01*
X26502Y21500D02*
G03*
X28000Y22418I-502J2500D01*
G01*
Y20582D02*
G03*
X26502Y21500I-2000J-1582D01*
G01*
Y16500D02*
G03*
X28000Y17418I-502J2500D01*
G01*
Y25582D02*
G03*
X25497Y21500I-2000J-1582D01*
G01*
D02*
G03*
X25497Y16500I502J-2500D01*
G01*
X26502Y11500D02*
G03*
X28412Y13173I-502J2500D01*
G01*
X28550Y9000D02*
G03*
X26502Y11500I-2550J0D01*
G01*
X27582Y7000D02*
G03*
X28550Y9000I-1582J2000D01*
G01*
X28519Y5397D02*
G03*
X27582Y7000I-2519J-397D01*
G01*
X28000Y15582D02*
G03*
X26502Y16500I-2000J-1582D01*
G01*
X24418Y7000D02*
G03*
X28519Y4603I1582J-2000D01*
G01*
X25497Y16500D02*
G03*
X25497Y11500I502J-2500D01*
G01*
D02*
G03*
X24418Y7000I502J-2500D01*
G01*
X22550Y29000D02*
G03*
X18000Y30582I-2550J0D01*
G01*
D02*
G03*
X14000Y30582I-2000J-1582D01*
G01*
D02*
G03*
X14000Y27418I-2000J-1582D01*
G01*
X18000D02*
G03*
X22550Y29000I2000J1582D01*
G01*
X14000Y27418D02*
G03*
X18000Y27418I2000J1582D01*
G01*
X114016Y100237D02*
X114625D01*
X113107Y100722D02*
X113626Y100203D01*
X112156Y99428D02*
X113394Y100666D01*
X110483Y100800D02*
X111526Y99757D01*
X109016Y99837D02*
X110984D01*
X110019D02*
X110982Y100800D01*
X115006Y89550D02*
X115219Y89763D01*
X116392Y89800D02*
X117800Y88392D01*
X116804Y88802D02*
X117800Y89799D01*
X114016Y89763D02*
X115984D01*
X113880Y89767D02*
X114219Y89428D01*
X106189Y98552D02*
X108437Y100800D01*
X107938D02*
X108904Y99834D01*
X105392Y100800D02*
X107353Y98839D01*
X107132Y92047D02*
Y97953D01*
X106269Y92047D02*
Y97953D01*
X105059Y99968D02*
X105891Y100800D01*
X102847D02*
X103410Y100237D01*
X106269Y93541D02*
X107132Y94404D01*
X106269Y92287D02*
X107311Y91244D01*
X106269Y94832D02*
X107132Y93970D01*
X108213Y90343D02*
X109000Y89555D01*
X106269Y96086D02*
X107132Y96949D01*
X106269Y97378D02*
X107132Y96515D01*
X117550Y87003D02*
X117800Y87253D01*
X117428Y86219D02*
X117800Y85847D01*
X111000Y88090D02*
X112942Y90031D01*
X111000Y90101D02*
X112804Y88297D01*
X111000Y87555D02*
X112744Y85812D01*
X116297Y84804D02*
X117800Y83301D01*
X113812Y84744D02*
X117800Y80755D01*
X111000Y82999D02*
X113198Y85196D01*
X111000Y82464D02*
X117800Y75664D01*
X111000Y85010D02*
X117800Y78210D01*
X110005Y74367D02*
X117800Y82162D01*
X108957Y75864D02*
X117800Y84707D01*
X110667Y80252D02*
X117800Y73119D01*
X104672Y74125D02*
X114997Y84450D01*
X111000Y85544D02*
X112450Y86994D01*
X108124Y82669D02*
X109000Y83544D01*
X107475Y84565D02*
X109000Y86090D01*
X111000Y81000D02*
Y90163D01*
X109000Y81414D02*
Y90163D01*
X105441Y85076D02*
X109000Y88635D01*
X105589Y90421D02*
X109000Y87010D01*
X103701Y89763D02*
X109000Y84464D01*
X108139Y82780D02*
X109000Y81919D01*
X107174Y81199D02*
X107979Y80394D01*
X106707Y76293D02*
X110707Y80293D01*
X103828Y82000D02*
X106707Y79121D01*
X105586Y78000D02*
X109000Y81414D01*
X103456Y78000D02*
X106332Y80876D01*
X102783Y100237D02*
X103346Y100800D01*
X102016Y100237D02*
X103984D01*
X100301Y100800D02*
X101069Y100032D01*
X99697Y99697D02*
X100800Y100800D01*
X97755D02*
X98718Y99837D01*
X97016D02*
X98984D01*
X97291D02*
X98254Y100800D01*
X99697Y99697D02*
X100800Y100800D01*
X102016Y89763D02*
X103984D01*
X99000Y88818D02*
X100511Y90329D01*
X99000Y88000D02*
Y90163D01*
X97000Y88414D02*
Y90163D01*
X94225Y91603D02*
X97000Y88828D01*
X93977Y99069D02*
X95709Y100800D01*
X95210D02*
X96310Y99700D01*
X94269Y96814D02*
X95131Y97677D01*
Y92047D02*
Y97953D01*
X94269Y92047D02*
Y97953D01*
X92533Y100170D02*
X93163Y100800D01*
X90016Y100237D02*
X91984D01*
X92664Y100800D02*
X95164Y98300D01*
X94269Y94269D02*
X95131Y95131D01*
X94269Y94269D02*
X95131Y95131D01*
X94269Y96650D02*
X95131Y95787D01*
X94269Y94105D02*
X95131Y93242D01*
X94241Y91696D02*
X95131Y92586D01*
X90016Y89763D02*
X91984D01*
X100814Y90105D02*
X105780Y85139D01*
X99000Y89373D02*
X104199Y84174D01*
X101819Y84000D02*
X108178Y90359D01*
X99274Y84000D02*
X107140Y91867D01*
X96707Y85293D02*
X98707Y87293D01*
X96728Y84000D02*
X102491Y89763D01*
X98621Y87207D02*
X101828Y84000D01*
X96979Y79160D02*
X99819Y82000D01*
X98736D02*
X102736Y78000D01*
X97348Y85934D02*
X99282Y84000D01*
X101282Y82000D02*
X105282Y78000D01*
X100906Y77996D02*
X104436Y81525D01*
X95789Y82000D02*
X104097D01*
X92903Y84000D02*
X104097D01*
X96000Y75635D02*
X102365Y82000D01*
X96191D02*
X100395Y77796D01*
X94637Y87000D02*
X97000Y89363D01*
X95586Y87000D02*
X97000Y88414D01*
X93181Y90101D02*
X95934Y87348D01*
X89000Y87000D02*
X95586D01*
X89546D02*
X92336Y89790D01*
X92091Y87000D02*
X95746Y90655D01*
X90973Y89763D02*
X93736Y87000D01*
X95736Y85000D02*
X96736Y84000D01*
X96651Y81377D02*
X97273Y82000D01*
X94182Y84000D02*
X95182Y85000D01*
X91789D02*
X96000D01*
X92328Y84691D02*
X92637Y85000D01*
X93191D02*
X94191Y84000D01*
X114056Y75873D02*
X117800Y79616D01*
X115115Y74386D02*
X117800Y77071D01*
X115043Y73330D02*
X117800Y70573D01*
X114000Y70725D02*
X117800Y74525D01*
X109394Y78979D02*
X112330Y76043D01*
X108121Y77707D02*
X111011Y74817D01*
X109939Y73361D02*
X110507Y72793D01*
X110702Y72518D02*
X111127Y72944D01*
X114000Y68180D02*
X117800Y71980D01*
X114000Y71828D02*
X117800Y68028D01*
X110800Y69936D02*
X112000Y68736D01*
X110800Y67391D02*
X112000Y66191D01*
X110800Y67525D02*
X112000Y68725D01*
X110800Y70071D02*
X112000Y71271D01*
X110612Y72670D02*
X112000Y71282D01*
X106848Y76434D02*
X107234Y76048D01*
X104736Y76000D02*
X105904Y74832D01*
X101414Y76000D02*
X106000D01*
X101000Y78000D02*
X105586D01*
X102191Y76000D02*
X104197Y73994D01*
X100821Y68000D02*
X105586D01*
X103093Y70000D02*
X103527Y70434D01*
X105100Y68000D02*
X106400Y66700D01*
X105586Y68000D02*
X106400Y67186D01*
X100821Y70274D02*
X102875Y72328D01*
X100821Y70000D02*
Y71081D01*
Y70000D02*
X104211D01*
X100821Y67729D02*
X101093Y68000D01*
X114000Y63088D02*
X117800Y66888D01*
X114000Y66736D02*
X117800Y62936D01*
X114000Y69282D02*
X117800Y65482D01*
X114000Y61645D02*
X117800Y57845D01*
X114000Y64191D02*
X117800Y60391D01*
X114000Y65634D02*
X117800Y69434D01*
X114000Y61000D02*
Y72097D01*
X108000Y54543D02*
X117800Y64343D01*
X113257Y59843D02*
X117800Y55300D01*
X115265Y54171D02*
X117800Y56706D01*
X113925Y55376D02*
X117800Y59252D01*
X108000Y54586D02*
X113707Y60293D01*
X110711Y57297D02*
X112507Y55502D01*
X111984Y58570D02*
X117800Y52754D01*
X110800Y64980D02*
X112000Y66180D01*
X110800Y64845D02*
X112000Y63645D01*
X106400Y61814D02*
Y67186D01*
X112000Y61414D02*
Y72097D01*
X110800Y60214D02*
Y72086D01*
X102554Y68000D02*
X106400Y64154D01*
X100821Y67187D02*
X103863Y64146D01*
X104746Y64016D02*
X106400Y65671D01*
X101184Y63000D02*
X105885Y67701D01*
X110800Y62434D02*
X112000Y63634D01*
X110800Y60214D02*
X112000Y61414D01*
X110800Y62300D02*
X111843Y61257D01*
X109439Y56024D02*
X110948Y54514D01*
X108166Y54751D02*
X110523Y52394D01*
X106018Y62743D02*
X106400Y63125D01*
X106093Y61507D02*
X106400Y61814D01*
X99937Y74523D02*
X101414Y76000D01*
X99937Y71936D02*
X104001Y76000D01*
X99937Y74481D02*
X101456Y76000D01*
X96808Y78837D02*
X99116Y76530D01*
X98230Y75644D02*
X100293Y77707D01*
X96000Y77100D02*
X97958Y75142D01*
X100530Y75116D02*
X102962Y72684D01*
X99937Y71081D02*
Y74523D01*
X97937Y71081D02*
Y74937D01*
X99937Y73163D02*
X103100Y70000D01*
X99937Y71081D02*
X100821D01*
X93991D02*
X97941Y75031D01*
X95928Y74626D02*
X97937Y72617D01*
X97053Y71081D02*
X97937D01*
X96537D02*
X97937Y72481D01*
X96000Y75000D02*
Y78097D01*
X94711Y73297D02*
X97053Y70956D01*
X93707Y72293D02*
X95707Y74293D01*
X93386Y72077D02*
X94382Y71081D01*
X93081Y71053D02*
Y72003D01*
X93116Y70000D02*
Y71081D01*
X96884D01*
X93081Y70000D02*
Y70884D01*
Y67116D02*
Y68000D01*
X92572Y67116D02*
X93081Y67625D01*
X89081Y70884D02*
X93081D01*
X89081Y71053D02*
X93081D01*
X92000Y67081D02*
X93081D01*
X92000Y67116D02*
X93081D01*
X97053Y66919D02*
Y71081D01*
X100821Y66919D02*
Y68000D01*
X96884Y66919D02*
Y71081D01*
X98638Y63000D02*
X103638Y68000D01*
X95998Y66919D02*
X99917Y63000D01*
X93116Y66919D02*
X96884D01*
X93081Y65080D02*
X94920Y66919D01*
X93081Y62534D02*
X97466Y66919D01*
X93453D02*
X97372Y63000D01*
X98544Y66919D02*
X102235Y63228D01*
X97000Y63000D02*
X102097D01*
X97053Y66919D02*
X100821D01*
X94529Y60943D02*
X96293Y62707D01*
X93081Y64745D02*
X95706Y62120D01*
X93081Y59989D02*
X100011Y66919D01*
X93116Y67256D02*
X93453Y66919D01*
X93116D02*
Y68000D01*
X94236Y59081D02*
Y60236D01*
X93116Y54919D02*
Y59081D01*
X93081Y62199D02*
X94440Y60841D01*
X93081Y63081D02*
Y67081D01*
Y59654D02*
X93654Y59081D01*
X93081Y58919D02*
Y62919D01*
X93116Y59081D02*
X94236D01*
X93116Y54919D02*
X94236D01*
X92947D02*
Y58919D01*
X93546Y52817D02*
X94236Y53507D01*
X92725Y54919D02*
X94236Y53408D01*
X92000Y54919D02*
X92947D01*
X92000Y54414D02*
Y54919D01*
Y54414D02*
X93384Y53030D01*
X92299Y54115D02*
X93116Y54932D01*
X90055Y100237D02*
X90618Y100800D01*
X90119D02*
X90682Y100237D01*
X87573Y100800D02*
X88616Y99758D01*
X85027Y100800D02*
X85991Y99837D01*
X87105Y99833D02*
X88072Y100800D01*
X84488Y99762D02*
X85527Y100800D01*
X82482D02*
X83849Y99433D01*
X85016Y99837D02*
X86984D01*
X81269Y96542D02*
X83207Y98480D01*
X81269Y94377D02*
X83131Y92514D01*
X81156Y91338D02*
X83131Y93314D01*
Y92047D02*
Y97953D01*
X77391Y100800D02*
X77954Y100237D01*
X79743Y100107D02*
X80435Y100800D01*
X77327Y100237D02*
X77890Y100800D01*
X79936D02*
X83131Y97605D01*
X81068Y98887D02*
X82981Y100800D01*
X77016Y100237D02*
X78984D01*
X74845Y100800D02*
X75775Y99871D01*
X74346Y99802D02*
X75344Y100800D01*
X81269Y96922D02*
X83131Y95059D01*
X81269Y93996D02*
X83131Y95859D01*
X81269Y92047D02*
Y97953D01*
X87000Y89546D02*
X87806Y90352D01*
X87000Y89000D02*
Y90163D01*
X87828Y90363D02*
X91191Y87000D01*
X86952Y88693D02*
X88693Y86952D01*
X85707Y87293D02*
X86707Y88293D01*
X76748Y76748D02*
X89776Y89776D01*
X76748Y76748D02*
X89776Y89776D01*
X86293Y84707D02*
X88293Y86707D01*
X86000Y74821D02*
Y84000D01*
X85757Y87343D02*
X87343Y85757D01*
X83554Y87000D02*
X86106Y84448D01*
X81008Y87000D02*
X86000Y82008D01*
X81259Y91840D02*
X84100Y89000D01*
X85000Y89414D02*
Y90163D01*
X80343Y90211D02*
X81554Y89000D01*
X83909D02*
X85000Y90091D01*
X81363Y89000D02*
X83416Y91052D01*
X75002Y90461D02*
X76463Y89000D01*
X78818D02*
X79694Y89876D01*
X76272Y89000D02*
X77035Y89763D01*
X84586Y89000D02*
X85000Y89414D01*
X84565Y79474D02*
X86000Y80909D01*
X82670Y80124D02*
X86000Y83454D01*
X78246Y89763D02*
X79009Y89000D01*
X77016Y89763D02*
X78984D01*
X78463Y87000D02*
X86000Y79463D01*
X75917Y87000D02*
X82779Y80139D01*
X72300Y100800D02*
X73263Y99837D01*
X72016D02*
X73984D01*
X71826Y99827D02*
X72799Y100800D01*
X68493Y99040D02*
X70253Y100800D01*
X69754D02*
X71009Y99545D01*
X68769Y96770D02*
X70141Y98142D01*
X67208Y100800D02*
X70131Y97877D01*
Y92047D02*
Y97953D01*
X68769Y94149D02*
X70131Y92786D01*
X68769Y94224D02*
X70131Y95587D01*
X72016Y90163D02*
X73984D01*
X68769Y96694D02*
X70131Y95331D01*
X68769Y92047D02*
Y97953D01*
X68732Y91643D02*
X70131Y93042D01*
X64663Y100800D02*
X65226Y100237D01*
X64516D02*
X66484D01*
X64599D02*
X65162Y100800D01*
X67068Y100161D02*
X67708Y100800D01*
X61646Y99830D02*
X62616Y100800D01*
X59572D02*
X60535Y99837D01*
X62117Y100800D02*
X63141Y99777D01*
X59049Y99778D02*
X60071Y100800D01*
X64516Y89763D02*
X66484D01*
X59516Y99837D02*
X61484D01*
X59516Y90163D02*
X61484D01*
X71181Y89000D02*
X72344Y90163D01*
X72754D02*
X73917Y89000D01*
X68732Y91640D02*
X71372Y89000D01*
X68281Y87000D02*
X78135Y77146D01*
X73726Y89000D02*
X75284Y90558D01*
X66343Y79071D02*
X74272Y87000D01*
X65070Y80344D02*
X71727Y87000D01*
X67616Y77798D02*
X76818Y87000D01*
X65735D02*
X76353Y76382D01*
X73372Y87000D02*
X81198Y79173D01*
X70909Y76000D02*
X81909Y87000D01*
X68889Y76525D02*
X79363Y87000D01*
X73454Y76000D02*
X84454Y87000D01*
X70826D02*
X82000Y75826D01*
X63414Y87000D02*
X85000D01*
X63977Y86212D02*
X74189Y76000D01*
X62237Y80316D02*
X77450Y65102D01*
X64000Y83644D02*
X71644Y76000D01*
X66090Y89000D02*
X66889Y89799D01*
X65518Y89763D02*
X66281Y89000D01*
X63544D02*
X64316Y89772D01*
X68635Y89000D02*
X70527Y90892D01*
X67708Y90118D02*
X68826Y89000D01*
X60999D02*
X62398Y90399D01*
X60026Y90163D02*
X61189Y89000D01*
X62357Y90377D02*
X63735Y89000D01*
X63414Y87000D02*
X63707Y86707D01*
X64000Y84365D02*
X66635Y87000D01*
X64000Y81819D02*
X69181Y87000D01*
X63751Y86661D02*
X64090Y87000D01*
X64000Y81414D02*
X69414Y76000D01*
X64000Y81414D02*
Y86000D01*
X62293Y80293D02*
X68293Y74293D01*
X62237Y75569D02*
Y80354D01*
X85075Y77439D02*
X86000Y78363D01*
X85139Y77779D02*
X86000Y76917D01*
X84000Y74821D02*
Y76097D01*
X85004Y74821D02*
X86000Y75818D01*
X84173Y76198D02*
X85550Y74821D01*
X80149Y75058D02*
X81526Y76435D01*
X82000Y74821D02*
Y76097D01*
X80919Y74821D02*
X82000D01*
X85081Y71053D02*
X88919D01*
X85081Y70884D02*
X88919D01*
X85081Y74821D02*
X86000D01*
X84919Y67116D02*
Y67481D01*
X84582Y67116D02*
X84919D01*
X80919Y71053D02*
X84919D01*
X84000Y74821D02*
X84919D01*
X80919Y70884D02*
X84919D01*
X80919Y67116D02*
X84582D01*
X80919Y71053D02*
Y74821D01*
X79572Y69390D02*
X80919Y70737D01*
X80146Y75135D02*
X80919Y74362D01*
Y67116D02*
Y70884D01*
X79382Y73353D02*
X80919Y71816D01*
X79276Y76730D02*
X80875Y78330D01*
X78805Y71168D02*
X80919Y73282D01*
X79362Y69600D02*
X79713Y69248D01*
X80395Y67667D02*
X80919Y68191D01*
X80006Y68057D02*
X80707Y67356D01*
X80006Y68057D02*
Y68541D01*
X78006Y67642D02*
Y68100D01*
X84582Y62519D02*
Y63481D01*
Y58519D02*
Y62519D01*
X81000Y64098D02*
X84582Y60516D01*
Y62519D02*
Y63481D01*
X81000Y66644D02*
X84582Y63062D01*
X80821Y57911D02*
X84582Y61672D01*
X80868Y60503D02*
X84582Y64217D01*
X89179Y54919D02*
X90000D01*
Y54000D02*
Y54919D01*
X89179D02*
Y58519D01*
X86579D02*
X89179Y55919D01*
X84582Y58519D02*
X89179D01*
X80821Y52820D02*
X86520Y58519D01*
X80821Y55366D02*
X84582Y59126D01*
X83074Y67116D02*
X84582Y65608D01*
Y63481D02*
Y67116D01*
X81000Y65727D02*
X82389Y67116D01*
X81000Y63181D02*
X84582Y66763D01*
X81000Y61000D02*
Y66649D01*
X78299Y66935D02*
X79000Y66234D01*
X77745Y65017D02*
X78981Y66253D01*
X79000Y61414D02*
Y62211D01*
Y63789D02*
Y66234D01*
X79740Y59326D02*
X80707Y60293D01*
X79740Y58514D02*
X80821D01*
X79740D02*
Y59326D01*
X78033Y60447D02*
X79000Y61414D01*
X78524Y61483D02*
X78796Y61211D01*
X76000Y76000D02*
X76253Y76253D01*
X76000Y76000D02*
X76253Y76253D01*
X73644Y74000D02*
X75836Y71808D01*
X69414Y76000D02*
X76097D01*
X69000Y74000D02*
X76097D01*
X71098D02*
X74863Y70235D01*
X62237Y77770D02*
X75483Y64524D01*
X65000Y65000D02*
X74000Y74000D01*
X77175Y73015D02*
X80919Y69270D01*
X77229Y72138D02*
X77942Y72851D01*
X77235Y67863D02*
X79000Y66098D01*
X74182Y64000D02*
X78006Y67824D01*
X67670Y65124D02*
X76270Y73724D01*
X69565Y64474D02*
X74862Y69771D01*
X71637Y64000D02*
X75832Y68195D01*
X69903Y64000D02*
X75097D01*
X62329Y71407D02*
Y75569D01*
Y75132D02*
X73462Y64000D01*
X62661Y67753D02*
X68913Y74004D01*
X62329Y75057D02*
X64929Y77657D01*
X62237Y77510D02*
X63656Y78930D01*
X61937Y69574D02*
X67475Y75111D01*
X62329Y72512D02*
X66202Y76384D01*
X63934Y66480D02*
X71454Y74000D01*
X65000Y65000D02*
X74000Y74000D01*
X62329Y72587D02*
X70916Y64000D01*
X61937Y71407D02*
X62329D01*
X61937Y68477D02*
Y71407D01*
Y70433D02*
X67328Y65042D01*
X61937Y68477D02*
X64707Y65707D01*
X76568Y60894D02*
X77740Y59721D01*
X74188Y58914D02*
X76256Y60983D01*
X72916Y62000D02*
X76002Y58914D01*
X69903Y62000D02*
X75097D01*
X70182Y60000D02*
X72182Y62000D01*
X72023Y59295D02*
X74728Y62000D01*
X70370D02*
X73456Y58914D01*
X76733D02*
X77761Y59942D01*
X77481Y58514D02*
Y58914D01*
X72519D02*
X77481D01*
X77740Y58514D02*
Y59740D01*
X71615Y59707D02*
X71967Y59356D01*
X72519Y58514D02*
Y58914D01*
X69903Y60000D02*
X70908D01*
X65000Y64825D02*
X66010Y63815D01*
X65000Y63903D02*
Y65000D01*
X66143Y55961D02*
X67190Y57008D01*
X65399Y57762D02*
X65637Y58000D01*
X66148Y56040D02*
X69179Y53009D01*
X67880Y56853D02*
X69179Y55555D01*
X65061Y58000D02*
X66097D01*
X65000Y52414D02*
Y54227D01*
X114893Y48708D02*
X117800Y51615D01*
X114515Y50948D02*
X117800Y47663D01*
X115502Y52507D02*
X117800Y50208D01*
X115519Y47399D02*
X117800Y45117D01*
X115543Y46812D02*
X117800Y49069D01*
X108000Y51997D02*
X117800Y61797D01*
X113183Y49543D02*
X117800Y54160D01*
X114979Y45392D02*
X117800Y42572D01*
X115534Y41712D02*
X117800Y43978D01*
X114936Y43660D02*
X117800Y46524D01*
X114938Y40343D02*
X117800Y37481D01*
X115533Y42293D02*
X117800Y40026D01*
X113736Y37369D02*
X117800Y41433D01*
X112394Y50523D02*
X113399Y49519D01*
X108000Y52372D02*
X111392Y48979D01*
X108000Y49452D02*
X110624Y52075D01*
X108000Y46906D02*
X111829Y50735D01*
X108000Y47281D02*
X111343Y43938D01*
X111190Y37369D02*
X113288Y39466D01*
X108000Y42189D02*
X112821Y37369D01*
X108000Y44361D02*
X110457Y46817D01*
X109047Y37369D02*
X114953D01*
X108588Y37312D02*
X111340Y40064D01*
X117229Y30679D02*
X117800Y31250D01*
X117237Y30407D02*
X117800Y29844D01*
X116837Y35378D02*
X117800Y36341D01*
Y6449D02*
Y90661D01*
X117237Y28516D02*
Y30484D01*
X116776Y35959D02*
X117800Y34935D01*
X116594Y32590D02*
X117800Y33796D01*
X115978Y37065D02*
X117800Y38887D01*
X116831Y33359D02*
X117800Y32389D01*
X117162Y27936D02*
X117800Y27298D01*
X116837Y22651D02*
X117800Y23614D01*
X117200Y28104D02*
X117800Y28705D01*
X116694Y19962D02*
X117800Y21068D01*
X116837Y23170D02*
X117800Y22207D01*
X116368Y24728D02*
X117800Y26159D01*
X116044Y26509D02*
X117800Y24753D01*
X116686Y20776D02*
X117800Y19661D01*
X116837Y33516D02*
Y35484D01*
X114464Y25368D02*
X115364Y26269D01*
X113271Y39464D02*
X115427Y37308D01*
X108650Y26266D02*
X109547Y25368D01*
X113776Y26232D02*
X114639Y25368D01*
X111918D02*
X112781Y26232D01*
X116837Y21516D02*
Y23484D01*
X109047Y25368D02*
X114953D01*
X109047Y26232D02*
X114953D01*
X111230D02*
X112093Y25368D01*
X109373D02*
X110236Y26232D01*
X108000Y49826D02*
X110474Y47352D01*
X108000Y44735D02*
X110464Y42271D01*
X108000Y42000D02*
Y54586D01*
X107978Y41793D02*
X111292Y45107D01*
X104707Y38293D02*
X107707Y41293D01*
X107029Y40615D02*
X110275Y37369D01*
X105756Y39342D02*
X108029Y37069D01*
X104447Y38105D02*
X107163Y35390D01*
Y33516D02*
Y35484D01*
X100414Y38000D02*
X104000D01*
X98795Y35156D02*
X101639Y38000D01*
X102007D02*
X107392Y32615D01*
X98795Y32610D02*
X104207Y38022D01*
X94236Y51219D02*
Y54919D01*
X93677Y51219D02*
Y52323D01*
Y51421D02*
X94053Y51045D01*
X90293Y53293D02*
X91677Y51909D01*
Y51219D02*
Y51909D01*
Y37091D02*
Y42844D01*
X90274Y42096D02*
X91677Y40693D01*
X98795Y36381D02*
X100414Y38000D01*
X90027Y35441D02*
X91677Y37091D01*
X87728Y42097D02*
X91677Y38148D01*
X88898Y35441D02*
X91677Y38220D01*
X88163Y37251D02*
X91677Y40766D01*
X99938Y37524D02*
X106772Y30689D01*
X106763Y28516D02*
Y30484D01*
X102189Y28367D02*
X107170Y33349D01*
X104222Y27854D02*
X106763Y30396D01*
X98795Y30065D02*
X110464Y41733D01*
X99657Y28380D02*
X107220Y35944D01*
X98795Y33575D02*
X107637Y24734D01*
X98795Y36121D02*
X106798Y28118D01*
X104502Y25589D02*
X106840Y27927D01*
X104502Y25322D02*
X106705Y23120D01*
X104502Y23044D02*
X107964Y26505D01*
X105293Y21707D02*
X106793Y23207D01*
X104502Y22777D02*
X105432Y21847D01*
X104502Y21047D02*
Y26953D01*
X98795Y28484D02*
X99217Y28062D01*
X98795Y28188D02*
Y36381D01*
Y31029D02*
X101769Y28056D01*
X104355Y20379D02*
X105000Y19734D01*
X104328Y20324D02*
X105000Y20996D01*
Y16414D02*
Y21000D01*
X103913Y18913D02*
Y19812D01*
X91677Y14323D02*
Y19812D01*
X117237Y17959D02*
X117800Y18522D01*
X117237Y17679D02*
X117800Y17116D01*
X117237Y16516D02*
Y18484D01*
X115521Y14303D02*
X117800Y12025D01*
X116955Y15416D02*
X117800Y14570D01*
X115178Y13355D02*
X117800Y15977D01*
X110100Y13368D02*
X110963Y14232D01*
X116657Y12288D02*
X117800Y13431D01*
X113048Y14232D02*
X113911Y13368D01*
X116837Y9923D02*
X117800Y10886D01*
X116837Y9516D02*
Y11484D01*
X109047Y13368D02*
X114953D01*
X109047Y14232D02*
X114953D01*
X112646Y13368D02*
X113509Y14232D01*
X110502D02*
X111365Y13368D01*
X103778Y18410D02*
X105000Y17188D01*
X102586Y14000D02*
X105000Y16414D01*
X102528Y17114D02*
X104114Y15528D01*
X101707Y16293D02*
X103621Y18206D01*
X102528Y17114D02*
X104114Y15528D01*
X101092Y16004D02*
X102841Y14255D01*
X106795Y15393D02*
X108832Y13356D01*
X105528Y14114D02*
X107347Y12296D01*
X105528Y14114D02*
X107347Y12296D01*
X103707Y12293D02*
X106707Y15293D01*
X104255Y12841D02*
X107163Y9934D01*
X116837Y10442D02*
X117800Y9479D01*
X116986Y7526D02*
X117800Y8340D01*
X117237Y5232D02*
X117753Y5747D01*
X117237Y4516D02*
Y6484D01*
X116411Y8322D02*
X117800Y6934D01*
X117237Y4951D02*
X117497Y4691D01*
X114865Y2231D02*
X115187Y1910D01*
X113253Y1247D02*
X114237Y2231D01*
X109047D02*
X114953D01*
X112320D02*
X113298Y1253D01*
X107163Y9516D02*
Y11484D01*
X105325Y6047D02*
X107594Y8316D01*
X106763Y4516D02*
Y6484D01*
X104054Y7322D02*
X107163Y10431D01*
X102551Y12000D02*
X107018Y7533D01*
X108114Y1200D02*
X109146Y2231D01*
X105569Y1200D02*
X107353Y2984D01*
X110660Y1200D02*
X111691Y2231D01*
X109774D02*
X110805Y1200D01*
X103023D02*
X106763Y4940D01*
X105379Y4081D02*
X108260Y1200D01*
X104177Y2738D02*
X105714Y1200D01*
X98551Y16000D02*
X99667Y14884D01*
X100581Y14031D02*
X105000Y18450D01*
X98888Y14884D02*
X100004Y16000D01*
X96903D02*
X101000D01*
X96419Y14884D02*
X100581D01*
X96523Y15483D02*
X97121Y14884D01*
X95459Y14000D02*
X97459Y16000D01*
X100581Y14000D02*
X102586D01*
X100581Y12000D02*
X103000D01*
X100581Y14000D02*
Y14884D01*
Y11486D02*
X101095Y12000D01*
X100581Y11116D02*
Y12000D01*
X100211Y11116D02*
X100581Y11486D01*
X96419Y11116D02*
X100581D01*
X96419Y10947D02*
X100581D01*
X94914Y12000D02*
X96419Y10496D01*
X93677Y14764D02*
X94006Y15093D01*
X93677Y14737D02*
X94414Y14000D01*
X93677Y14737D02*
Y15305D01*
X96419Y14000D02*
Y14884D01*
X94566Y14894D02*
X95460Y14000D01*
X91118Y17296D02*
X91677Y17855D01*
X91118Y18342D02*
X91677Y17783D01*
X91118Y14751D02*
X91677Y15310D01*
X91118Y15796D02*
X91677Y15237D01*
X94414Y14000D02*
X96419D01*
Y11116D02*
Y12000D01*
X94000D02*
X96419D01*
X91970Y13616D02*
X93293Y12293D01*
X91118Y12205D02*
X92249Y13336D01*
X100581Y8940D02*
X107049Y15408D01*
X100581Y8879D02*
X102081Y7379D01*
X100581Y7179D02*
Y10947D01*
Y11424D02*
X106763Y5243D01*
X96419Y7179D02*
Y8000D01*
X91414D02*
X96419D01*
X95386Y1200D02*
X108488Y14301D01*
X93823Y8000D02*
X100623Y1200D01*
X97190Y7179D02*
X103169Y1200D01*
X99736Y7179D02*
X100738Y6177D01*
X100478Y1200D02*
X101953Y2675D01*
X97932Y1200D02*
X100678Y3946D01*
X96419Y7179D02*
X100581D01*
X94850Y5755D02*
X96419Y7324D01*
X95548Y3907D02*
X98820Y7179D01*
X95537Y3741D02*
X98078Y1200D01*
X91118Y13251D02*
X94369Y10000D01*
X94004D02*
X96004Y12000D01*
X91459Y10000D02*
X93560Y12102D01*
X96419Y10000D02*
Y10947D01*
X93098Y6548D02*
X94550Y8000D01*
X91000Y10000D02*
X96419D01*
X90619Y11204D02*
X91823Y10000D01*
X85204Y1200D02*
X92004Y8000D01*
X88956Y5541D02*
X91414Y8000D01*
X94664Y2068D02*
X95532Y1200D01*
X92841D02*
X93093Y1452D01*
X91346Y7932D02*
X92741Y6537D01*
X92721Y1465D02*
X92987Y1200D01*
X87611Y51973D02*
X90000Y54362D01*
X90157Y51973D02*
X90885Y52701D01*
X85065Y51972D02*
X89179Y56086D01*
X81000Y61553D02*
X90653Y51900D01*
X80211Y59796D02*
X88112Y51895D01*
X80821Y56640D02*
X85572Y51889D01*
X80012Y49465D02*
X89066Y58519D01*
X80821Y54095D02*
X83560Y51356D01*
X81221Y48603D02*
X83011Y46814D01*
X81221Y45583D02*
X83011Y47373D01*
X81221Y48129D02*
X83011Y49918D01*
Y44079D02*
Y49984D01*
X81221Y42535D02*
Y49465D01*
X80821Y52384D02*
Y58514D01*
X80385Y52384D02*
X80821Y52820D01*
X79987Y52384D02*
X83011Y49359D01*
X81221Y46058D02*
X83011Y44268D01*
X81221Y43038D02*
X83011Y44827D01*
X80718Y42535D02*
X81221Y43038D01*
X81072Y40343D02*
X83501Y42772D01*
X79799Y41615D02*
X80718Y42535D01*
X86890Y38524D02*
X90491Y42125D01*
X85707Y39707D02*
X88266Y37148D01*
X85612Y39791D02*
X87949Y42128D01*
X85181Y42098D02*
X90933Y36347D01*
X84188Y38000D02*
X86559Y35629D01*
X84586Y38000D02*
X86559Y36027D01*
X81642Y38000D02*
X86559Y33083D01*
X81643Y38000D02*
X86559Y33083D01*
X88559Y36175D02*
X89293Y35441D01*
X88559D02*
X90027D01*
X88559D02*
Y36441D01*
X86559Y28188D02*
Y34441D01*
Y36027D01*
X81163Y30251D02*
X86559Y35647D01*
X81450Y35647D02*
X86559Y30538D01*
X82000Y28543D02*
X86559Y33102D01*
X81550Y33001D02*
X86455Y28096D01*
X83275Y40000D02*
X85407Y42132D01*
X81414Y40000D02*
X85000D01*
X81221Y43512D02*
X84734Y40000D01*
X79653Y42535D02*
X82188Y40000D01*
X79707Y41707D02*
X81414Y40000D01*
X78586D02*
X79105Y39481D01*
X77665D02*
X78184Y40000D01*
X81450Y35629D02*
X83820Y38000D01*
X81450D02*
X84586D01*
X81450Y34519D02*
Y38000D01*
X81544Y33178D02*
X85476Y37110D01*
X81048Y34519D02*
X81450D01*
X77481Y52025D02*
X77839Y52384D01*
X77481D02*
X80821D01*
X77481Y51983D02*
Y52384D01*
X77467Y49465D02*
X80385Y52384D01*
X77481Y52344D02*
X80359Y49465D01*
X69805Y52384D02*
X73123Y49065D01*
X72519Y52215D02*
X72750Y51983D01*
X75668Y49065D01*
X71976D02*
X74894Y51983D01*
X75296D02*
X77814Y49465D01*
X76259D02*
X81221D01*
X73341Y49065D02*
X76259D01*
X74521D02*
X77439Y51983D01*
X76259Y49065D02*
Y49465D01*
X72519Y51983D02*
X77481D01*
X69179Y49065D02*
X72919D01*
X73341D01*
X72919D02*
X73341D01*
X69179Y52384D02*
X72519D01*
Y51983D02*
Y52384D01*
X69179D02*
Y57202D01*
X67000Y49181D02*
X70202Y52384D01*
X66344Y51070D02*
X69179Y53905D01*
X65071Y52343D02*
X69179Y56451D01*
X65000Y52414D02*
X66707Y50707D01*
X65257Y54386D02*
X70577Y49065D01*
X65257Y54386D02*
X70577Y49065D01*
X69430D02*
X72519Y52154D01*
X69179Y48814D02*
X69430Y49065D01*
X67000Y47551D02*
X67551Y47000D01*
X69179D02*
Y49065D01*
X67365Y47000D02*
X69179Y48814D01*
X66995Y50102D02*
X69179Y47918D01*
X67000Y47000D02*
Y50000D01*
X77108Y42535D02*
X77643Y42000D01*
X77638D02*
X78173Y42535D01*
X77108D02*
X77642Y42000D01*
X77097Y40000D02*
X77616Y39481D01*
X77050D02*
Y40000D01*
Y42535D02*
X81221D01*
X77050Y42000D02*
Y42535D01*
Y42000D02*
X79000D01*
X77050Y40000D02*
X78586D01*
X77050Y39481D02*
X79105D01*
X70324Y36461D02*
X71786Y35000D01*
X70638D02*
X71212Y35574D01*
X67000Y39914D02*
X70094Y36820D01*
X67414Y35000D02*
X71786D01*
X68093D02*
X70053Y36961D01*
X69179Y43481D02*
Y45000D01*
X68937Y43481D02*
X69179Y43723D01*
X67005Y45000D02*
X68550Y43455D01*
Y43095D02*
X68937Y43481D01*
X68550Y38519D02*
Y43481D01*
X67000Y45000D02*
X69179D01*
X67000Y47000D02*
X69179D01*
X67000Y44090D02*
X67910Y45000D01*
X67000Y35414D02*
Y45000D01*
X68550Y38519D02*
X70031D01*
Y37168D02*
Y38519D01*
X68550Y43481D02*
X69179D01*
X67000Y37369D02*
X69369Y35000D01*
X67000Y35414D02*
X67414Y35000D01*
X67000Y42460D02*
X68550Y40909D01*
X67000Y41544D02*
X68550Y43095D01*
X67000Y36453D02*
X69066Y38519D01*
X67000Y38999D02*
X68550Y40549D01*
X84444Y28441D02*
X86559Y30556D01*
X83411Y21047D02*
Y26953D01*
X82000Y23452D02*
X83411Y24863D01*
X80806Y31200D02*
X83903Y28102D01*
X82000Y25997D02*
X83512Y27509D01*
X82000Y27460D02*
X83411Y26049D01*
X81716Y22653D02*
X83414Y20955D01*
X82000Y24914D02*
X83411Y23503D01*
X84000Y18414D02*
Y19812D01*
X91118Y12118D02*
Y19812D01*
X83785Y18199D02*
X84000Y18414D01*
X82679Y19040D02*
X83731Y20091D01*
X80081Y18987D02*
X83411Y22317D01*
X80081Y21742D02*
X82847Y18976D01*
X82000Y23351D02*
Y29000D01*
X80707Y30707D02*
X81707Y29707D01*
X81356Y22293D02*
X81707Y22644D01*
X80081Y19196D02*
X80625Y18653D01*
X80081Y17970D02*
Y20916D01*
Y22000D02*
X80648D01*
X80081Y21533D02*
X80548Y22000D01*
X80081Y21084D02*
Y22000D01*
X79633Y21084D02*
X80081Y21533D01*
X89346Y9932D02*
X89932Y9346D01*
X87707Y8293D02*
X90825Y11411D01*
X88073Y8659D02*
X88659Y8073D01*
X87834Y7248D02*
X90293Y9707D01*
X82247Y7248D02*
X87834D01*
X90073Y6659D02*
X91068Y5664D01*
X90295Y1200D02*
X91245Y2150D01*
X88783Y5403D02*
X90465Y3721D01*
X78751Y5249D02*
X88248D01*
X83847D02*
X87895Y1200D01*
X87750D02*
X90452Y3902D01*
X86392Y5249D02*
X90441Y1200D01*
X83641Y8000D02*
X84392Y7248D01*
X83616D02*
X84367Y8000D01*
X86186D02*
X86938Y7248D01*
X86162D02*
X86913Y8000D01*
X82903D02*
X87000D01*
X77000Y12000D02*
Y17147D01*
Y7000D02*
Y12000D01*
X78756Y5249D02*
X82804Y1200D01*
X80113D02*
X84162Y5249D01*
X82659Y1200D02*
X86707Y5249D01*
X81301D02*
X85350Y1200D01*
X77293Y6293D02*
X78044Y5541D01*
X77567Y1200D02*
X81616Y5249D01*
X75919Y21084D02*
X80081D01*
X75919Y20916D02*
X80081D01*
X75919Y21084D02*
Y22000D01*
X75446Y18032D02*
X75919D01*
Y20031D02*
Y20916D01*
X75380Y21352D02*
X75919Y20813D01*
X75032Y20031D02*
X75919D01*
X75000Y17586D02*
X75446Y18032D01*
X75919Y17147D02*
X77000D01*
X75000Y14095D02*
X77000Y12095D01*
X75919Y17147D02*
Y18032D01*
X75000Y11550D02*
X77000Y9550D01*
X75000Y11361D02*
X77000Y13361D01*
X75000Y16641D02*
X77000Y14641D01*
X75000Y16452D02*
X75919Y17371D01*
X74209Y9795D02*
X77000Y7004D01*
X75000Y13906D02*
X77000Y15906D01*
X73170Y21017D02*
X74389Y19798D01*
X73293Y18707D02*
X74324Y19739D01*
X73000Y16270D02*
Y18000D01*
X72839Y19381D02*
X74333Y20876D01*
X72839Y18802D02*
X73137Y18504D01*
X72839Y16346D02*
Y21191D01*
X75000Y11000D02*
Y17586D01*
X73956Y9541D02*
X74707Y10293D01*
X64573Y9249D02*
X66355Y7467D01*
X68292Y7198D02*
X70342Y9249D01*
X65796Y7248D02*
X67797Y9249D01*
X75053Y6322D02*
X77000Y8269D01*
X72210Y9249D02*
X75219Y6240D01*
X76324Y5048D02*
X77431Y6155D01*
X69426Y5786D02*
X72888Y9249D01*
X69665D02*
X72712Y6201D01*
X67385Y1200D02*
X77000Y10815D01*
X75022Y1200D02*
X79070Y5249D01*
X74792Y1576D02*
X75167Y1200D01*
X76240Y5218D02*
X80259Y1200D01*
X76201Y2712D02*
X77713Y1200D01*
X72476D02*
X72952Y1675D01*
X69467Y4355D02*
X72622Y1200D01*
X67119Y9249D02*
X71576Y4792D01*
X62028Y9249D02*
X64872Y6405D01*
X59748Y1200D02*
X64752Y6204D01*
X59482Y9249D02*
X64604Y4126D01*
X59000Y5543D02*
X62706Y9249D01*
X58978Y7207D02*
X64985Y1200D01*
X59000Y4000D02*
Y7000D01*
X66126Y2604D02*
X67531Y1200D01*
X69931D02*
X71678Y2947D01*
X68405Y2872D02*
X70076Y1200D01*
X59000Y4640D02*
X62440Y1200D01*
X64840D02*
X66214Y2574D01*
X62294Y1200D02*
X64802Y3708D01*
X57026Y100800D02*
X58374Y99452D01*
X55909Y99183D02*
X57525Y100800D01*
X56269Y96998D02*
X57690Y98419D01*
X56269Y92047D02*
Y97953D01*
X54382Y100202D02*
X54980Y100800D01*
X52016Y100237D02*
X53984D01*
X54481Y100800D02*
X57631Y97649D01*
X56269Y94452D02*
X57631Y95815D01*
X56269Y93921D02*
X57631Y92558D01*
X56269Y96466D02*
X57631Y95104D01*
Y92047D02*
Y97953D01*
X56264Y91902D02*
X57631Y93270D01*
X52016Y89763D02*
X53984D01*
X51866Y100232D02*
X52434Y100800D01*
X51935D02*
X52498Y100237D01*
X48925Y99837D02*
X49888Y100800D01*
X49389D02*
X50515Y99675D01*
X46844Y100800D02*
X47807Y99837D01*
X46189Y99646D02*
X47343Y100800D01*
X44298D02*
X45750Y99348D01*
X41868Y97871D02*
X44797Y100800D01*
X49000Y89729D02*
X49508Y90237D01*
X47016Y99837D02*
X48984D01*
X45131Y92047D02*
Y97953D01*
X58453Y89000D02*
X59616Y90163D01*
X58000Y89000D02*
X84586D01*
X56190Y91454D02*
X58644Y89000D01*
X55064Y90034D02*
X56842Y88256D01*
X52362Y88000D02*
X54129Y89768D01*
X49702Y90305D02*
X52007Y88000D01*
X54659Y87752D02*
X57933Y91025D01*
X52790Y89763D02*
X55960Y86593D01*
X56293Y87707D02*
X57293Y88707D01*
X56000Y86593D02*
Y87000D01*
X54707Y87707D02*
X55707Y86707D01*
X49414Y88000D02*
X54000D01*
X51671Y82431D02*
Y86000D01*
X49000Y88462D02*
X49461Y88000D01*
X49000Y88414D02*
X49414Y88000D01*
X49000Y88414D02*
Y90163D01*
X49816Y88000D02*
X51615Y89798D01*
X47000Y88000D02*
Y90163D01*
X42297Y88117D02*
X45349Y91169D01*
X43570Y86844D02*
X46892Y90167D01*
X49000Y86000D02*
X51671D01*
X48000Y81093D02*
X51671Y84763D01*
X48912Y86004D02*
X51671Y83245D01*
X47293Y87293D02*
X48293Y86293D01*
X44842Y85572D02*
X47030Y87759D01*
X47388Y83026D02*
X50362Y86000D01*
X46115Y84299D02*
X48201Y86385D01*
X40995Y99543D02*
X42252Y100800D01*
X39207D02*
X40180Y99827D01*
X41868Y95326D02*
X45323Y98780D01*
X41753Y100800D02*
X45131Y97421D01*
X6828Y100800D02*
X112172D01*
X38016Y99837D02*
X39984D01*
X38743D02*
X39706Y100800D01*
X36661D02*
X37659Y99803D01*
X41868Y92780D02*
X45131Y96043D01*
X41868Y95593D02*
X45131Y92330D01*
X41858Y98149D02*
X45131Y94876D01*
X41024Y89390D02*
X45131Y93498D01*
X41868Y92047D02*
Y97953D01*
X34116Y100800D02*
X34679Y100237D01*
X33016D02*
X34984D01*
X34052D02*
X34615Y100800D01*
X36229Y99868D02*
X37161Y100800D01*
X31570D02*
X32261Y100109D01*
X29025Y100800D02*
X29988Y99837D01*
X28561D02*
X29524Y100800D01*
X30880Y99611D02*
X32069Y100800D01*
X33016Y89763D02*
X34984D01*
X28016Y99837D02*
X29984D01*
X41868Y93047D02*
X47004Y87912D01*
X38293Y89293D02*
X41586Y86000D01*
X37634D02*
X39610Y87976D01*
X41475Y90895D02*
X51763Y80607D01*
X40235Y90180D02*
X47707Y82707D01*
X34971Y89763D02*
X38734Y86000D01*
X35088D02*
X38337Y89249D01*
X36719Y90561D02*
X41279Y86000D01*
X30000Y83457D02*
X37002Y90459D01*
X40180Y86000D02*
X40883Y86703D01*
X38188Y84000D02*
X38837Y83351D01*
X35642Y84000D02*
X38663Y80979D01*
X35642Y84000D02*
X38663Y80979D01*
X34000Y86000D02*
X41586D01*
X34414Y84000D02*
X39418D01*
X34261Y80081D02*
X38180Y84000D01*
X33755Y83341D02*
X37016Y80081D01*
X32315Y89873D02*
X36188Y86000D01*
X30935Y86938D02*
X33760Y89763D01*
X30000Y88548D02*
X31660Y90209D01*
X30000Y87903D02*
Y90163D01*
Y89643D02*
X33691Y85951D01*
X30000Y89642D02*
X33691Y85951D01*
X31293Y83707D02*
X33293Y85707D01*
X31149Y85947D02*
X32341Y84755D01*
X33000Y81366D02*
X35634Y84000D01*
X33000Y82586D02*
X34414Y84000D01*
X30279Y84272D02*
X31105Y83446D01*
X30000Y77414D02*
Y84097D01*
X51763Y75969D02*
Y82431D01*
X51271Y71481D02*
Y75969D01*
X48000Y76734D02*
X51271Y73463D01*
X48000Y81825D02*
X51763Y78062D01*
X48000Y76001D02*
X51763Y79764D01*
X48000Y78547D02*
X51763Y82310D01*
X48000Y73456D02*
X51763Y77219D01*
X48000Y79279D02*
X51310Y75969D01*
X51271D02*
X51763D01*
X49582Y66519D02*
Y67481D01*
Y66519D02*
Y67481D01*
Y71481D02*
X51271D01*
X48000Y74188D02*
X50707Y71481D01*
X48000Y70910D02*
X51271Y74181D01*
X48000Y65819D02*
X49582Y67401D01*
X43524Y82365D02*
X44000Y81889D01*
X48000Y71643D02*
X49582Y70061D01*
X43534Y81718D02*
X43852Y82036D01*
X43448Y81286D02*
X44000Y80734D01*
X43481Y71482D02*
X44000Y72001D01*
X43481Y67653D02*
Y72221D01*
X48000Y71642D02*
X49582Y70060D01*
X48000Y68365D02*
X49582Y69946D01*
X43481Y68524D02*
X44000Y68006D01*
X49582Y67481D02*
Y71481D01*
X48000Y69097D02*
X49582Y67515D01*
X43481Y68937D02*
X44000Y69456D01*
X43481Y71070D02*
X44000Y70551D01*
X43081Y66379D02*
X44000Y65460D01*
X43081Y67653D02*
X43481D01*
X54544Y62519D02*
Y62919D01*
X55000D01*
X52865Y60502D02*
X55000Y62637D01*
Y61081D02*
Y62919D01*
X49070Y64344D02*
X49582Y64855D01*
X48000Y66551D02*
X49582Y64969D01*
Y63832D02*
Y66519D01*
X48000Y65414D02*
X49582Y63832D01*
X54544Y62553D02*
X55000Y62097D01*
X54116Y61081D02*
X55000D01*
X52032Y62519D02*
X54116Y60435D01*
X50895Y62519D02*
X54544D01*
X51616Y61798D02*
X52337Y62519D01*
X50895D02*
X52707Y60707D01*
X46456Y61481D02*
X49105D01*
X48000Y65414D02*
Y82000D01*
X46000Y65000D02*
Y81586D01*
Y61081D02*
Y65000D01*
Y81586D01*
X43081Y64884D02*
Y67653D01*
X44000Y61081D02*
Y81889D01*
X43081Y63446D02*
X44000Y64365D01*
X46293Y64293D02*
X49105Y61481D01*
X46000Y63460D02*
X47979Y61481D01*
X46000Y61273D02*
X47656Y62930D01*
X46456Y61081D02*
Y61481D01*
X46000Y61081D02*
X46456D01*
X46000Y63819D02*
X46383Y64202D01*
X43081Y63833D02*
X44000Y62914D01*
X43262Y61081D02*
X44000Y61819D01*
X43081Y61116D02*
Y64116D01*
X42351Y79837D02*
X44000Y78188D01*
X39979Y79663D02*
X44000Y75643D01*
X40843Y76481D02*
X44000Y79638D01*
X37884Y78614D02*
X39337Y80067D01*
X36806Y80081D02*
X38464Y81738D01*
X39979Y79663D02*
X44000Y75642D01*
X37884Y76481D02*
Y80081D01*
X42221Y75314D02*
X44000Y77092D01*
X42221Y74875D02*
X44000Y73097D01*
X42221Y72768D02*
X44000Y74547D01*
X42221Y72221D02*
Y76481D01*
X37884D02*
X42221D01*
X37884Y79212D02*
X40616Y76481D01*
X38297D02*
X41282Y79466D01*
X33000Y80081D02*
Y82586D01*
Y81551D02*
X34470Y80081D01*
X31000D02*
Y83000D01*
X33947Y75919D02*
Y80081D01*
X33000D02*
X33947D01*
X30000Y80912D02*
X31000Y81912D01*
X30000Y82006D02*
X31000Y81006D01*
X30179Y80081D02*
X31000D01*
X30179Y77236D02*
Y80081D01*
X34116D02*
X37884D01*
Y76081D02*
Y76481D01*
X34116Y76081D02*
Y80081D01*
Y73299D02*
Y75919D01*
X33541D02*
X34116Y75344D01*
X33000Y75919D02*
X33947D01*
X33000Y74414D02*
Y75919D01*
Y74414D02*
X34116Y73299D01*
X33342Y74072D02*
X34116Y74845D01*
X42221Y72221D02*
X43481D01*
X38919Y67000D02*
Y67653D01*
X43081Y65991D02*
X44000Y66910D01*
X38919Y64116D02*
Y64884D01*
X38519Y67653D02*
X38919D01*
X38365Y67000D02*
X38919D01*
X38765Y62239D02*
Y65000D01*
X43081Y64116D02*
Y64884D01*
X38919Y61116D02*
X43081D01*
Y64116D02*
Y64884D01*
X42919Y61081D02*
X44000D01*
X38919Y60947D02*
X42919D01*
X38919Y61116D02*
Y64116D01*
Y64884D01*
X37090Y60000D02*
X38919Y61829D01*
X37038Y62239D02*
X38919Y60359D01*
X37653Y71807D02*
X37941Y71519D01*
X37653D02*
X38519D01*
X37653D02*
Y71919D01*
X38519Y67653D02*
Y71519D01*
X37941D02*
X38519Y70941D01*
X36997Y71919D02*
X37653D01*
X36888Y69981D02*
X38426Y71519D01*
X36888Y70026D02*
X38519Y68396D01*
X36888Y67435D02*
X38519Y69066D01*
X36888Y67392D02*
X38365D01*
X36888Y62239D02*
X38765D01*
X38365Y67000D02*
Y67392D01*
X36888D02*
Y70837D01*
X36496D02*
X36888D01*
X26479Y100800D02*
X27511Y99768D01*
X23934Y100800D02*
X26218Y98516D01*
X26131Y92047D02*
Y97953D01*
X22481Y93757D02*
X26131Y97408D01*
X21051Y97418D02*
X24433Y100800D01*
X22481Y96303D02*
X26978Y100800D01*
X22224Y97418D02*
X22481Y97161D01*
X21388Y100800D02*
X26131Y96057D01*
X22481Y92456D02*
Y97418D01*
Y97161D02*
X26131Y93511D01*
X22842Y91572D02*
X26131Y94862D01*
X22707Y91707D02*
X23707Y90707D01*
X23985Y90171D02*
X26131Y92317D01*
X22481Y97161D02*
X26131Y93511D01*
X22081Y92456D02*
X22481D01*
X18505Y97418D02*
X21887Y100800D01*
X17519Y97418D02*
X18481D01*
X17519D02*
X18481D01*
X18843Y100800D02*
X22224Y97418D01*
X18842Y100800D02*
X22224Y97418D01*
X13519D02*
X17519D01*
X13751Y100800D02*
X17133Y97418D01*
X16297Y100800D02*
X19679Y97418D01*
X15959D02*
X19341Y100800D01*
X18481Y97418D02*
X22481D01*
X22224D02*
X22481Y97161D01*
X22081Y91997D02*
Y92456D01*
X13919Y92000D02*
Y92456D01*
X13519D02*
X13919D01*
X24000Y87639D02*
X26894Y90533D01*
X28000Y87903D02*
Y90163D01*
X24000Y85094D02*
X28000Y89094D01*
X24000Y68414D02*
Y90000D01*
X22481Y94616D02*
X28000Y89097D01*
X22095Y92456D02*
X27272Y87279D01*
X22000Y78414D02*
Y88919D01*
X18253Y84438D02*
X22000Y88185D01*
X27766Y84239D02*
X28000Y84005D01*
X24000Y80003D02*
X28000Y84003D01*
Y77000D02*
Y84097D01*
X24000Y82914D02*
X28000Y78914D01*
X24000Y88006D02*
X27239Y84766D01*
X21484Y82578D02*
X22000Y83094D01*
X24000Y85460D02*
X28000Y81460D01*
X24000Y82548D02*
X26917Y85466D01*
X20541Y88919D02*
X22000Y87460D01*
X17996Y88919D02*
X22000Y84914D01*
X18081Y88919D02*
X22000D01*
X20455Y84094D02*
X22000Y85640D01*
X15450Y88919D02*
X20041Y84328D01*
X13919Y88919D02*
X17919D01*
X13919D02*
Y90000D01*
X15418Y84149D02*
X20188Y88919D01*
X14205Y85481D02*
X17643Y88919D01*
X21328Y83041D02*
X22000Y82369D01*
X15418Y81603D02*
X16562Y82747D01*
X15418Y83859D02*
X16555Y82723D01*
X15418Y81481D02*
Y85481D01*
X11809Y98359D02*
X14250Y100800D01*
X12269Y96273D02*
X16796Y100800D01*
X12258Y97202D02*
X13519Y95941D01*
Y92456D02*
Y97418D01*
X12269Y95016D02*
Y96984D01*
X8660Y100800D02*
X10202Y99258D01*
X10166Y99261D02*
X11705Y100800D01*
X8016Y99269D02*
X9984D01*
X11206Y100800D02*
X14587Y97418D01*
X12242Y94672D02*
X13519Y93396D01*
X11868Y92000D02*
X13919D01*
X11763Y92606D02*
X12369Y92000D01*
X11868Y90000D02*
X13919D01*
X13087Y92000D02*
X13543Y92456D01*
X11560Y93018D02*
X13519Y94977D01*
X7587Y99228D02*
X9159Y100800D01*
X6155Y100760D02*
X7672Y99243D01*
X4213Y100155D02*
X6116Y98253D01*
X1204Y95391D02*
X6609Y100796D01*
X2761Y99062D02*
X5731Y96092D01*
X1727Y97550D02*
X6372Y92905D01*
X5731Y95016D02*
Y96984D01*
X6132Y90016D02*
Y91984D01*
X1211Y95521D02*
X6132Y90601D01*
X1200Y92841D02*
X5772Y97413D01*
X4497Y88501D02*
X6132Y90136D01*
X1200Y90295D02*
X5739Y94834D01*
X10803Y87171D02*
X13633Y90000D01*
X10905Y88372D02*
X13796Y85481D01*
X11868Y89956D02*
X17656Y84167D01*
X11659Y85481D02*
X15097Y88919D01*
X8016Y88131D02*
X8719D01*
X1200Y92987D02*
X7128Y87058D01*
X6053Y87512D02*
X6982Y88440D01*
X11086Y85481D02*
X15418D01*
X9281Y88131D02*
X9984D01*
X6919Y81081D02*
Y85081D01*
X4985Y81352D02*
X6919Y83286D01*
X6476Y85389D02*
X6862Y85775D01*
X1200Y87750D02*
X6394Y92944D01*
X1200Y90441D02*
X3215Y88426D01*
X1200Y87895D02*
X1802Y87293D01*
X6426Y85215D02*
X6919Y84722D01*
X5293Y83802D02*
X6919Y82176D01*
X1200Y82804D02*
X2770Y81234D01*
X2799Y83750D02*
X5457Y81093D01*
X1200Y85350D02*
X1750Y84799D01*
X1200Y85204D02*
X1499Y85503D01*
X1200Y80113D02*
X4611Y83524D01*
X1200Y82659D02*
X2488Y83947D01*
X24000Y77457D02*
X28000Y81457D01*
X24000Y80369D02*
X28591Y75778D01*
X21707Y78707D02*
X22000Y78414D01*
X24000Y77823D02*
X28591Y73233D01*
X24000Y74912D02*
X28000Y78912D01*
X21167Y80656D02*
X22000Y79823D01*
X20452Y79000D02*
X22000Y80548D01*
X19903Y79000D02*
X21000D01*
X28293Y76293D02*
X28591Y75995D01*
Y70837D02*
Y75995D01*
X24000Y75278D02*
X28441Y70837D01*
X19758Y73215D02*
X20800Y74257D01*
X24000Y72366D02*
X28134Y76500D01*
X20800Y72655D02*
Y76786D01*
X19723Y79555D02*
X20278Y79000D01*
X15418Y78768D02*
X15873Y78313D01*
X15418Y76519D02*
Y80519D01*
Y81481D01*
Y80519D02*
Y81481D01*
Y79058D02*
X16906Y80545D01*
X15418Y81314D02*
X16891Y79842D01*
X20586Y77000D02*
X20800Y76786D01*
X19842Y76890D02*
X20800Y75932D01*
X19903Y77000D02*
X20586D01*
X18314Y75873D02*
X20800Y73387D01*
X17219Y73221D02*
X20791Y76794D01*
X14909Y73221D02*
X19626D01*
X15122Y76519D02*
X18420Y73221D01*
X14650Y73199D02*
X17390Y75938D01*
X28198Y67392D02*
Y70837D01*
X28591D01*
X26722Y67392D02*
X28198D01*
X26271Y67000D02*
X28198Y68928D01*
X26722Y67000D02*
Y67392D01*
X24000Y69820D02*
X28591Y74411D01*
X24570Y67844D02*
X28591Y71865D01*
X24000Y72732D02*
X28198Y68534D01*
X24000Y70187D02*
X26794Y67392D01*
X24000Y68414D02*
X25414Y67000D01*
X26722D01*
X26322Y62773D02*
X26856Y62239D01*
X26322D02*
Y65000D01*
X26856Y62239D02*
X28198Y60897D01*
X26322Y62239D02*
X28198D01*
X25000Y65000D02*
X26322D01*
X22800Y60984D02*
X26322Y64506D01*
X22800Y66295D02*
X26322Y62773D01*
X20532Y68563D02*
X20800Y68295D01*
X15745Y68259D02*
X16004Y68000D01*
X13409Y69760D02*
Y71720D01*
X14909Y68259D02*
X16257D01*
X14543Y68000D02*
X14806Y68263D01*
X22800Y66786D02*
X24293Y65293D01*
X22800Y66075D02*
X23155Y66430D01*
X20083Y66467D02*
X20800Y65750D01*
X22800Y63529D02*
X24441Y65171D01*
X15459Y66000D02*
X20800Y60659D01*
X18938Y65066D02*
X20800Y63204D01*
X10000Y76561D02*
X10456D01*
X12459Y73553D02*
X16035Y77128D01*
X10456Y76561D02*
Y76919D01*
X10000D02*
X10456D01*
X6642Y76561D02*
X8000D01*
X6919Y76919D02*
X8000D01*
X10000Y76561D02*
Y76919D01*
X8000Y76561D02*
Y76919D01*
X12333Y75972D02*
X12879Y76519D01*
X11661D02*
X15418D01*
X12459Y73500D02*
Y75461D01*
X12576Y76519D02*
X15874Y73221D01*
X12459Y74091D02*
X13809Y72741D01*
X10456Y76561D02*
X11358D01*
X6642Y72399D02*
X11358D01*
X6293Y80115D02*
X6919Y80741D01*
X6093Y80457D02*
X6919Y79631D01*
Y76919D02*
Y80919D01*
X1200Y80259D02*
X1599Y79859D01*
X1200Y72476D02*
X6919Y78195D01*
X6234Y77770D02*
X6919Y77085D01*
X7085Y76919D02*
X7443Y76561D01*
X5541Y73500D02*
Y75461D01*
X4859Y76599D02*
X5611Y75847D01*
X1200Y77567D02*
X1648Y78015D01*
X1200Y77713D02*
X5549Y73364D01*
X1200Y75022D02*
X2885Y76707D01*
X12382Y68385D02*
X13442Y69445D01*
X11582Y72422D02*
X13409Y70596D01*
X12459Y68000D02*
X16097D01*
X11366Y62278D02*
X15088Y66000D01*
X9059Y72399D02*
X13459Y68000D01*
X10533Y69081D02*
X13431Y71979D01*
X12459Y66000D02*
X16097D01*
X12624Y60990D02*
X16830Y65196D01*
X12624Y60663D02*
Y62278D01*
X8821D02*
X11467Y64924D01*
X6642Y64919D02*
X11358D01*
X8884Y62278D02*
X12624D01*
X8903Y64919D02*
X11544Y62278D01*
X6505Y72408D02*
X9832Y69081D01*
X7987D02*
X11305Y72399D01*
X1200Y64840D02*
X8760Y72399D01*
X1200Y70076D02*
X5594Y65682D01*
X1200Y75167D02*
X7286Y69081D01*
X1200Y69931D02*
X5541Y74272D01*
X1200Y67385D02*
X6277Y72462D01*
X1200Y72622D02*
X5574Y68248D01*
X6642Y69081D02*
X11358D01*
X5541Y66020D02*
Y67980D01*
X6304Y64972D02*
X8998Y62278D01*
X6275D02*
X8916Y64919D01*
X1200Y67531D02*
X6453Y62278D01*
X1200Y62294D02*
X5541Y66635D01*
X5116Y62278D02*
X8856D01*
X1200Y64985D02*
X5116Y61069D01*
X54116Y56919D02*
X55000D01*
X53000Y56460D02*
X55000Y54460D01*
X54116Y56919D02*
Y61081D01*
X53707Y53707D02*
X55000Y55000D01*
Y53903D02*
Y56919D01*
X53000Y58091D02*
X54116Y59207D01*
X53000Y59005D02*
X54116Y57890D01*
X46456Y56519D02*
X51000D01*
X53000Y55546D02*
X54373Y56919D01*
X53000Y54414D02*
Y60000D01*
X53707Y53707D02*
X55000Y55000D01*
X53000Y54414D02*
X54215Y53199D01*
X51293Y53293D02*
X53293Y51293D01*
X49510Y52055D02*
X51075Y53620D01*
X46456Y56519D02*
Y56919D01*
X51000Y54000D02*
Y56519D01*
X50396D02*
X51000Y55914D01*
X42919Y56919D02*
X46456D01*
X42000Y57179D02*
X42919D01*
X42099D02*
X46953Y52325D01*
X42000Y56352D02*
Y57179D01*
X41356Y55293D02*
X41707Y55644D01*
X47383Y52474D02*
X51000Y56091D01*
X41397Y55335D02*
X45678Y51054D01*
X39624Y55000D02*
X40648D01*
X39624Y53722D02*
Y55000D01*
X50500Y50500D02*
X52293Y52293D01*
X50500Y50500D02*
X52293Y52293D01*
X52555Y47464D02*
X55127Y50035D01*
X50133Y47587D02*
X53620Y51075D01*
X47850Y56519D02*
X55240Y49129D01*
X41372Y49009D02*
X48882Y56519D01*
X44904Y56919D02*
X54293Y47531D01*
X55240Y47479D02*
Y49989D01*
X50325Y48953D02*
X51688Y47590D01*
X49054Y47678D02*
X49316Y47416D01*
X40707Y49707D02*
X41235Y49180D01*
X42456Y47548D02*
X45526Y50617D01*
X39818Y50000D02*
X46456Y56638D01*
X39624Y54562D02*
X46608Y47578D01*
X45033Y47578D02*
X45945Y48490D01*
X41528Y47462D02*
Y48472D01*
X39528Y47462D02*
Y48000D01*
X38919Y60000D02*
Y60947D01*
X38751Y53722D02*
X39624D01*
X38524Y53117D02*
X44123Y47517D01*
X36888Y60000D02*
X38919D01*
X37707Y52293D02*
X38459Y53044D01*
X36888Y60000D02*
Y62239D01*
X37272Y50000D02*
X44191Y56919D01*
X37091Y52004D02*
X39095Y50000D01*
X38550Y48000D02*
X38953Y47597D01*
X36004Y48000D02*
X37660Y46344D01*
X26414Y50000D02*
X40000D01*
X32000Y52000D02*
X37000D01*
X32582Y48000D02*
X39528D01*
X33459D02*
X37659Y43799D01*
X28883Y54702D02*
X31293Y52293D01*
X32004Y52000D02*
X34004Y50000D01*
X29635D02*
X31686Y52051D01*
X27090Y50000D02*
X30338Y53248D01*
X28284Y53740D02*
X29065Y54521D01*
X28284Y53174D02*
X31459Y50000D01*
X20495Y52919D02*
X29015Y44399D01*
X34550Y52000D02*
X36550Y50000D01*
X34727D02*
X36726Y52000D01*
X32181Y50000D02*
X34181Y52000D01*
X33536Y46264D02*
X35272Y48000D01*
X26000D02*
X29418D01*
X37659Y43568D02*
Y46303D01*
X37259Y43568D02*
X37659D01*
X33485Y45428D02*
X35745Y43168D01*
X35531D02*
X37659Y45296D01*
X37259Y43168D02*
Y43568D01*
X32459Y43909D02*
X33594Y42774D01*
X31616Y41798D02*
X37818Y48000D01*
X29399Y44015D02*
X33236Y40179D01*
X34524Y43168D02*
X37259D01*
X32889Y40525D02*
X33477Y41114D01*
X30263Y43559D02*
X33257Y40564D01*
X29904Y34900D02*
X32970D01*
X30343Y43071D02*
X30736Y43464D01*
X29904Y34995D02*
X31747Y36838D01*
X21586Y47000D02*
X32143Y36443D01*
X27302Y37484D02*
X29202Y39384D01*
X25527Y40658D02*
X31285Y34900D01*
X28444Y36081D02*
X30474Y38111D01*
X32528Y36203D02*
X32857Y35874D01*
X29904Y33100D02*
X32970D01*
X32354Y34900D02*
X32840Y35386D01*
X30540Y33100D02*
X31906Y31734D01*
X29904Y32449D02*
X30554Y33100D01*
X29904Y34900D02*
Y36081D01*
X27302D02*
X29904D01*
X26500Y26500D02*
X32897Y32897D01*
X29904Y31919D02*
Y33100D01*
X55000Y11000D02*
Y12097D01*
X54481Y9456D02*
Y12478D01*
X50414Y17000D02*
X51097D01*
X49800Y16385D02*
X51018Y15167D01*
X45669Y14678D02*
X50631D01*
Y14418D02*
X51544D01*
X50316Y14678D02*
X50960Y15322D01*
X55293Y10293D02*
X56044Y9541D01*
X56752Y9249D02*
X73248D01*
X54481Y11704D02*
X55000Y11185D01*
X54481Y11206D02*
X55000Y11725D01*
X54081Y9456D02*
X54481D01*
X49707Y16293D02*
X50414Y17000D01*
X44676Y18964D02*
X45310Y18329D01*
X43481Y17613D02*
X45100Y15994D01*
X43481Y18025D02*
X44515Y19059D01*
X43481Y15480D02*
X44855Y16854D01*
X43481Y14278D02*
Y18418D01*
X47771Y14678D02*
X49097Y16005D01*
X45994Y15100D02*
X46416Y14678D01*
X48329Y15310D02*
X48961Y14678D01*
X43481Y14278D02*
X45669D01*
X43481Y15067D02*
X44270Y14278D01*
X44825D02*
X45778Y15231D01*
X45669Y14278D02*
Y14678D01*
X58663Y7751D02*
X60160Y9249D01*
X57707Y8707D02*
X58707Y7707D01*
X57315Y8949D02*
X57614Y9249D01*
X57203Y1200D02*
X65251Y9249D01*
X56937D02*
X57207Y8978D01*
X54081Y9000D02*
X57000D01*
X54820D02*
X55703Y9883D01*
X58254Y2840D02*
X59894Y1200D01*
X57707Y2293D02*
X58707Y3293D01*
X54000Y2000D02*
X57000D01*
X56548D02*
X57348Y1200D01*
X54081Y9000D02*
Y9456D01*
X54184D02*
X54640Y9000D01*
X45366Y3000D02*
X47166Y1200D01*
X47912Y3000D02*
X49712Y1200D01*
X47020D02*
X48820Y3000D01*
X44029Y5385D02*
X44414Y5000D01*
X44475Y1200D02*
X46275Y3000D01*
X44293Y5293D02*
X44586Y5000D01*
X52586Y3000D02*
X53293Y2293D01*
X54657Y1200D02*
X55457Y2000D01*
X54003D02*
X54803Y1200D01*
X44000Y3000D02*
X52586D01*
X49566Y1200D02*
X51366Y3000D01*
X52112Y1200D02*
X53249Y2337D01*
X50457Y3000D02*
X52257Y1200D01*
X42256Y18837D02*
X42676Y18418D01*
X41328D02*
X41780Y18869D01*
X38789Y18425D02*
X39221Y18857D01*
X39566Y18983D02*
X40130Y18418D01*
X40993Y9919D02*
X42519Y8393D01*
X41253Y8161D02*
X42519Y9426D01*
X38809Y18418D02*
X43481D01*
X39495Y9919D02*
X42519D01*
X39495D02*
X42519Y6895D01*
X39981Y9434D02*
X40466Y9919D01*
X32375Y31850D02*
X32930D01*
X29175Y31919D02*
X30602Y30492D01*
X27302Y31919D02*
X29904D01*
X27302Y29848D02*
X29373Y31919D01*
X26500Y26500D02*
X32897Y32897D01*
X28293Y28183D02*
X31668Y31558D01*
X30000Y10081D02*
Y11586D01*
X28919Y10081D02*
X30000D01*
X28412Y13173D02*
X30000Y11586D01*
X37081Y9080D02*
X37294Y9292D01*
X28439Y9745D02*
X28919Y9265D01*
X28130Y12599D02*
X30000Y10729D01*
X27302Y31246D02*
X29329Y29219D01*
X28166Y10346D02*
X29702Y11883D01*
X28331Y7967D02*
X28919Y8554D01*
X42519Y6895D02*
Y9919D01*
X37481Y1843D02*
X41112Y5474D01*
X37481Y4389D02*
X39839Y6747D01*
X37481Y5794D02*
X42075Y1200D01*
X37481Y1582D02*
Y6544D01*
X37091D02*
X38566Y8019D01*
X37081Y6544D02*
X37481D01*
X37081Y8739D02*
X44620Y1200D01*
X37081Y9505D02*
X43293Y3293D01*
X37481Y3248D02*
X39529Y1200D01*
X41929D02*
X43759Y3029D01*
X39384Y1200D02*
X42385Y4201D01*
X33481Y1582D02*
X37481D01*
X22000Y1200D02*
X112550Y1200D01*
X37220Y1582D02*
X37481Y1843D01*
X37081Y6544D02*
Y9505D01*
X29201Y1200D02*
X29583Y1582D01*
X28965D02*
X29347Y1200D01*
X28919Y6544D02*
Y10081D01*
X28094Y7544D02*
X28919Y6719D01*
X28519Y2028D02*
X28965Y1582D01*
X34056D02*
X34438Y1200D01*
X34293D02*
X34674Y1582D01*
X32519D02*
X33481D01*
X36838Y1200D02*
X37220Y1582D01*
X36602D02*
X36984Y1200D01*
X32519Y1582D02*
X33481D01*
X28519D02*
X32519D01*
X31747Y1200D02*
X32129Y1582D01*
X31511D02*
X31892Y1200D01*
X28198Y59194D02*
X28591D01*
X26934Y57481D02*
X28591Y59137D01*
X28198Y59194D02*
Y62239D01*
X28591Y55409D02*
Y59194D01*
X28284Y52519D02*
Y57481D01*
X22800Y63750D02*
X28591Y57959D01*
X22800Y58438D02*
X26601Y62239D01*
X22800Y61204D02*
X26523Y57481D01*
X23716D02*
X28284D01*
X24389D02*
X28198Y61291D01*
X28284Y56286D02*
X28591Y56592D01*
X28284Y55720D02*
X28591Y55414D01*
X23895Y52519D02*
X28284D01*
X25479Y50935D02*
X27063Y52519D01*
X22800Y57081D02*
Y66786D01*
Y58659D02*
X23978Y57481D01*
X20800Y57081D02*
Y68825D01*
X23716Y57081D02*
Y57481D01*
X20179Y53236D02*
Y57081D01*
X15070Y58345D02*
X20800Y64075D01*
X13797Y59617D02*
X20800Y66620D01*
X17615Y55799D02*
X20800Y58984D01*
X16342Y57072D02*
X20800Y61529D01*
X22800Y57081D02*
X23716D01*
X23495Y52919D02*
X23716Y52698D01*
X24206Y52208D02*
X24518Y52519D01*
X20179Y57081D02*
X20800D01*
X18888Y54526D02*
X20179Y55817D01*
X20495Y52919D02*
X20840D01*
X20179Y53236D02*
X20495Y52919D01*
X26394Y52519D02*
X28913Y50000D01*
X28367Y48000D02*
X28909Y47459D01*
X26525Y46889D02*
X27635Y48000D01*
X25802Y48020D02*
X28559Y45263D01*
X27798Y45617D02*
X28466Y46285D01*
X23895Y52519D02*
X26414Y50000D01*
X21093Y52493D02*
X25293Y48293D01*
X23179Y43544D02*
X24111Y44475D01*
X25543Y40817D02*
X26656Y41930D01*
X24891Y42710D02*
X25383Y43202D01*
X25426Y38154D02*
X27929Y40657D01*
X24614Y39026D02*
X25485Y38154D01*
X19185Y47000D02*
X22658Y43527D01*
X18610Y41520D02*
X22838Y45748D01*
X18055Y43510D02*
X21544Y47000D01*
X18473Y42621D02*
X19621Y41473D01*
X16499Y44501D02*
X18999Y47000D01*
X14094D02*
X16621Y44473D01*
X16639Y47000D02*
X21026Y42614D01*
X12913Y66000D02*
X20800Y58113D01*
X12980Y60434D02*
X20179Y53236D01*
X12624Y61197D02*
X20179Y53643D01*
X12548Y43095D02*
X16453Y47000D01*
X12624Y45722D02*
Y47000D01*
X1200Y59748D02*
X6398Y64946D01*
X11445Y64922D02*
X20179Y56189D01*
X5179Y54081D02*
Y57722D01*
X11756Y44849D02*
X13907Y47000D01*
X1200Y52112D02*
X5179Y56090D01*
X12624Y47000D02*
X21586D01*
X8884Y45722D02*
X12624D01*
X10281D02*
X10503Y45500D01*
X12624Y45924D02*
X14492Y44056D01*
X5116Y45722D02*
X8856D01*
X5190D02*
X5427Y45485D01*
X7735Y45722D02*
X8440Y45017D01*
X7111Y45295D02*
X7538Y45722D01*
X5179Y57722D02*
Y58081D01*
X1200Y57348D02*
X5116Y53433D01*
Y57722D02*
Y62278D01*
Y50278D02*
Y54081D01*
X1200Y54803D02*
X5116Y50887D01*
X1200Y57203D02*
X5116Y61119D01*
X1200Y62440D02*
X5116Y58524D01*
X1200Y59894D02*
X5179Y55915D01*
X1200Y54657D02*
X5116Y58573D01*
Y49919D02*
Y50278D01*
Y45722D02*
Y49919D01*
Y50278D01*
X1200Y44475D02*
X5116Y48391D01*
X1200Y47166D02*
X3908Y44458D01*
X1200Y52257D02*
X5116Y48341D01*
X1200Y49566D02*
X5116Y53482D01*
X1200Y49712D02*
X5116Y45796D01*
X1200Y47020D02*
X5116Y50936D01*
X12500Y43503D02*
X13500Y42503D01*
X12017Y41440D02*
X13039Y40418D01*
X12417D02*
X13499Y41501D01*
X13481Y38937D02*
X14490Y39945D01*
X13481Y36391D02*
X16480Y39390D01*
X13039Y40418D02*
X13481Y39976D01*
X17376Y36081D01*
X13481D02*
Y40418D01*
X8519D02*
X9481D01*
X8519D02*
X9481D01*
X13481D01*
X1200Y39384D02*
X3705Y41889D01*
X1200Y41929D02*
X5116Y45845D01*
X1200Y44620D02*
X3559Y42261D01*
X1200Y42075D02*
X4519Y38756D01*
X1200Y26000D02*
Y95172D01*
X7326Y40418D02*
X8151Y41244D01*
X4519Y40418D02*
X8519D01*
X4780D02*
X5011Y40650D01*
X7458Y40908D02*
X7948Y40418D01*
X4519Y40157D02*
X4780Y40418D01*
X1200Y36838D02*
X4519Y40157D01*
Y35456D02*
Y40418D01*
X1200Y39529D02*
X4519Y36210D01*
X27302Y36338D02*
X27558Y36081D01*
X27302Y29846D02*
Y31919D01*
X28000Y25582D02*
Y27476D01*
X27302Y36081D02*
Y38154D01*
X23521Y29846D02*
X27302D01*
X23521Y38154D02*
X27302D01*
X26157Y29846D02*
X28097Y27906D01*
X23611Y29846D02*
X27215Y26242D01*
X26790Y21576D02*
X27036Y21330D01*
X28000Y20582D02*
Y22418D01*
X23521Y36081D02*
Y38154D01*
Y29846D02*
Y31919D01*
X22351Y29988D02*
X23521Y31158D01*
X22615Y38479D02*
X23521Y37573D01*
X22485Y28427D02*
X24711Y26200D01*
X22000Y23820D02*
X24654Y21166D01*
X22000Y16909D02*
X23516Y18425D01*
X22000Y18729D02*
X24599Y16130D01*
X22000Y22000D02*
X23500Y23500D01*
X22000Y22000D02*
X23500Y23500D01*
X22000Y19454D02*
X24490Y21945D01*
X22000Y21275D02*
X23554Y19721D01*
X28000Y15582D02*
Y17418D01*
X28519Y6544D02*
X28919D01*
X27562Y2985D02*
X28519Y2028D01*
Y5397D02*
Y6544D01*
X26656Y1200D02*
X28519Y3063D01*
Y1582D02*
Y4603D01*
X25502Y2499D02*
X26801Y1200D01*
X22000Y9272D02*
X24598Y11870D01*
X22000Y14363D02*
X24544Y16907D01*
X22000Y16184D02*
X23534Y14650D01*
X22000Y11818D02*
X23534Y13352D01*
X22000Y26000D02*
X22000Y1200D01*
Y1635D02*
X23907Y3543D01*
X22000Y4181D02*
X23560Y5741D01*
X24110Y1200D02*
X25426Y2516D01*
X22000Y3456D02*
X24256Y1200D01*
X22000Y6726D02*
X23554Y8280D01*
X22000Y11092D02*
X23516Y9577D01*
X22000Y8547D02*
X23985Y6562D01*
X22000Y6001D02*
X23499Y4502D01*
X20808Y36081D02*
X23183Y38457D01*
X19503Y36500D02*
X19922Y36081D01*
X18262D02*
X18654Y36474D01*
X21018Y36081D02*
X23521D01*
X21056Y37492D02*
X22467Y36081D01*
X15717D02*
X17024Y37388D01*
X17081Y36081D02*
X20919D01*
X13481D02*
X16856D01*
X13081Y31919D02*
X16856D01*
X16263Y31536D02*
X16645Y31919D01*
X21112Y31295D02*
X21737Y31919D01*
X21018D02*
X23521D01*
X18993D02*
X19427Y31485D01*
X21538Y31919D02*
X23521Y29936D01*
X17081Y31919D02*
X20919D01*
X16447D02*
X17036Y31330D01*
X17934Y30662D02*
X19191Y31919D01*
X13481Y37431D02*
X14830Y36081D01*
X4919Y32018D02*
Y35456D01*
X4519D02*
X4919D01*
X1200Y36984D02*
X4919Y33265D01*
X1200Y34293D02*
X4519Y37611D01*
X1200Y34438D02*
X4919Y30719D01*
X1200Y31747D02*
X4909Y35456D01*
X11356Y31919D02*
X11738Y31536D01*
X13902Y31919D02*
X14654Y31166D01*
X10967Y31331D02*
X11554Y31919D01*
X13347Y31166D02*
X14100Y31919D01*
X9081D02*
X12919D01*
X9081Y31648D02*
X10067Y30663D01*
X9081Y29446D02*
X9669Y30033D01*
X1200Y29201D02*
X4919Y32920D01*
X22000Y24546D02*
X27300Y29846D01*
X20909Y26000D02*
X24755Y29846D01*
X18363Y26000D02*
X19012Y26649D01*
X19261Y26559D02*
X19820Y26000D01*
X16721Y26554D02*
X17275Y26000D01*
X22000Y13638D02*
X24544Y11094D01*
X21458Y26908D02*
X23576Y24790D01*
X13663Y27067D02*
X14729Y26000D01*
X13272D02*
X14338Y27066D01*
X9081Y26000D02*
X22000Y26000D01*
X15818Y26000D02*
X16284Y26466D01*
X9081Y29103D02*
X9466Y28718D01*
X9081Y28081D02*
Y31919D01*
X4919Y28081D02*
Y31919D01*
X1200Y31892D02*
X4919Y28174D01*
X1200Y26656D02*
X4919Y30375D01*
X1200Y29347D02*
X4547Y26000D01*
X9081Y26900D02*
X9834Y27654D01*
X9081Y26557D02*
X9638Y26000D01*
X9081D02*
Y27856D01*
X11718Y26466D02*
X12184Y26000D01*
X10727D02*
X11280Y26554D01*
X1200Y26000D02*
X4919Y26000D01*
X1200Y26801D02*
X2001Y26000D01*
X4919Y26000D02*
Y27856D01*
X3090Y26000D02*
X4919Y27829D01*
X50000Y18000D02*
X52000D01*
X47000Y17000D02*
X49000D01*
X50000Y18000D01*
X59937Y59000D02*
Y65063D01*
X58969Y66031D02*
X59937Y65063D01*
X58969Y66031D02*
Y73488D01*
X59937Y54063D02*
Y59000D01*
Y54063D02*
X64000Y50000D01*
Y32425D02*
Y50000D01*
X16000Y91000D02*
X22000D01*
X33528Y59472D02*
X34000Y59000D01*
X33528Y64031D02*
X36087D01*
X31559D02*
X32543Y65016D01*
X35496Y61472D02*
X35500Y61468D01*
X33528Y59472D02*
Y61472D01*
X34000Y59000D02*
X35500D01*
X32543Y65016D02*
X33528Y64031D01*
X35500Y59000D02*
Y61468D01*
X29000Y64031D02*
X31559D01*
X74000Y23000D02*
X80648D01*
X91063Y57000D02*
Y64937D01*
X104000Y39000D02*
X107000Y42000D01*
Y55000D01*
X113000Y61000D01*
Y74000D01*
X100000Y39000D02*
X104000D01*
X99000Y41000D02*
X104000D01*
X105000Y42000D01*
Y55000D01*
X107400Y61400D02*
Y67600D01*
X107000Y72000D02*
X108600Y70400D01*
X105000Y55000D02*
X109800Y59800D01*
X108600Y60600D02*
Y70400D01*
X100354Y52354D02*
X108600Y60600D01*
X106000Y69000D02*
X107400Y67600D01*
X109800Y59800D02*
Y72086D01*
X107886Y74000D02*
X109800Y72086D01*
X97795Y51795D02*
X107400Y61400D01*
X105000Y72000D02*
X107000D01*
X97795Y24000D02*
Y36795D01*
X100000Y39000D01*
X95236Y37236D02*
X99000Y41000D01*
X95236Y24000D02*
Y37236D01*
X98937Y69000D02*
X106000D01*
X97000Y62000D02*
X104000D01*
X21800Y53200D02*
X26000Y49000D01*
X40000D02*
X40528Y48472D01*
X26000Y49000D02*
X40000D01*
X78622Y68893D02*
X78655D01*
X77514Y70000D02*
X78622Y68893D01*
X77000Y70000D02*
X77514D01*
X79006Y67642D02*
Y68541D01*
X78655Y68893D02*
X79006Y68541D01*
Y67642D02*
X80000Y66649D01*
X60937Y82150D02*
Y84512D01*
X57787Y79000D02*
X60937Y82150D01*
X57000Y79000D02*
X57787D01*
X55032Y77031D02*
X57000Y79000D01*
X55032Y73488D02*
Y77031D01*
X95236Y47032D02*
Y57000D01*
Y60236D01*
X96000Y86000D02*
X98000Y88000D01*
X89000Y86000D02*
X96000D01*
X87000Y84000D02*
X89000Y86000D01*
X87000Y72937D02*
Y84000D01*
X91000Y83000D02*
X106000D01*
X98000Y88000D02*
Y95000D01*
X83000Y72937D02*
Y78000D01*
X93000Y73000D02*
X95000Y75000D01*
Y80000D01*
X91000Y72937D02*
X91063Y73000D01*
X93000D01*
X58000Y88000D02*
X85000D01*
X86000Y89000D01*
Y95000D01*
X59800Y86800D02*
X62200D01*
X59000Y86000D02*
X59800Y86800D01*
X58969Y84512D02*
X59000Y84543D01*
Y86000D01*
X110000Y81000D02*
Y95000D01*
X106000Y77000D02*
X110000Y81000D01*
X101000Y77000D02*
X106000D01*
X98937Y74937D02*
X101000Y77000D01*
X98937Y69000D02*
Y74937D01*
X87000Y69000D02*
X91000D01*
X83000D02*
X87000D01*
X69000Y75000D02*
X78000D01*
X91000Y56937D02*
X91063Y57000D01*
X91000Y54000D02*
Y56937D01*
Y54000D02*
X92677Y52323D01*
Y47032D02*
Y52323D01*
X91000Y69000D02*
X95000D01*
X91000Y65000D02*
Y69000D01*
X62200Y86800D02*
X63000Y86000D01*
X57000Y87000D02*
X58000Y88000D01*
X57000Y84512D02*
Y87000D01*
X48000Y88000D02*
Y95000D01*
X49000Y87000D02*
X54000D01*
X48000Y88000D02*
X49000Y87000D01*
X54000D02*
X55000Y86000D01*
Y84543D02*
X55032Y84512D01*
X55000Y84543D02*
Y86000D01*
X63000Y81000D02*
Y86000D01*
Y81000D02*
X69000Y75000D01*
X91000Y65000D02*
X91063Y64937D01*
X75000Y41000D02*
Y46000D01*
X78000Y12000D02*
Y19031D01*
Y7000D02*
Y12000D01*
X98437Y9000D02*
X98500Y9063D01*
X91000Y9000D02*
X98437D01*
X88248Y6248D02*
X91000Y9000D01*
X78751Y6248D02*
X88248D01*
X78000Y7000D02*
X78751Y6248D01*
X95236Y60236D02*
X97000Y62000D01*
X97795Y47032D02*
Y51795D01*
X100354Y47032D02*
Y52354D01*
X95000Y17000D02*
X101000D01*
X92677Y14323D02*
Y24000D01*
Y14323D02*
X94000Y13000D01*
X102913Y18913D02*
Y24000D01*
X101000Y17000D02*
X102913Y18913D01*
X106000Y21000D02*
X107500Y22500D01*
X112000D01*
X106000Y16000D02*
Y21000D01*
X103000Y13000D02*
X106000Y16000D01*
X94000Y13000D02*
X103000D01*
X81000Y39000D02*
X85000D01*
X79000Y41000D02*
X81000Y39000D01*
X75000Y41000D02*
X79000D01*
X85000Y39000D02*
X87559Y36441D01*
Y34441D02*
Y36441D01*
Y34441D02*
X90441D01*
X92677Y36677D02*
Y47032D01*
X90441Y34441D02*
X92677Y36677D01*
X81000Y9000D02*
X87000D01*
X90118Y12118D01*
Y24000D01*
X82000Y17000D02*
X84000D01*
X85000Y18000D02*
Y24000D01*
X84000Y17000D02*
X85000Y18000D01*
X78000Y12000D02*
X84000D01*
X87000D01*
X87559Y12559D02*
Y24000D01*
X87000Y12000D02*
X87559Y12559D01*
Y24000D02*
Y34441D01*
X74968Y41000D02*
X75000D01*
X80000Y30000D02*
X81000Y29000D01*
X80648Y23000D02*
X81000Y23351D01*
Y29000D01*
X74000Y18000D02*
X75032Y19031D01*
X74000Y11000D02*
Y18000D01*
X75032Y19031D02*
X78000D01*
X80000Y61000D02*
Y66649D01*
X78740Y55709D02*
Y59740D01*
X80000Y61000D01*
X68000Y63000D02*
X77000D01*
X60937Y68063D02*
Y73488D01*
Y68063D02*
X64000Y65000D01*
Y62000D02*
Y65000D01*
X71575Y32425D02*
X76636Y27363D01*
X64000Y32425D02*
X71575D01*
X70150Y30850D02*
X74000Y27000D01*
X59228Y30850D02*
X70150D01*
X76000Y30000D02*
X80000D01*
X67000Y34000D02*
X72000D01*
X76000Y30000D01*
X76636Y26364D02*
X77000Y26000D01*
X76636Y26364D02*
Y27363D01*
X71031Y37168D02*
Y41000D01*
X75200Y33000D02*
X79000D01*
X71031Y41000D02*
X71228Y40803D01*
X71031Y37168D02*
X75200Y33000D01*
X74000Y23000D02*
Y27000D01*
X66000Y35000D02*
X67000Y34000D01*
X79000Y33000D02*
Y36968D01*
X78969Y37000D02*
X79000Y36968D01*
X59937Y59000D02*
X68000D01*
X74968Y41000D02*
X75000Y40968D01*
Y38000D02*
Y40968D01*
X56000Y59000D02*
Y65000D01*
Y52000D02*
Y59000D01*
X73248Y10249D02*
X74000Y11000D01*
X56000D02*
X56752Y10249D01*
X73248D01*
X56000Y11000D02*
Y14000D01*
Y69000D02*
X57000Y70000D01*
Y73488D01*
X71260Y55449D02*
Y58649D01*
X68000Y59000D02*
X70908D01*
X71260Y58649D01*
X66000Y46000D02*
Y50000D01*
Y35000D02*
Y46000D01*
X71260D01*
X64000Y52000D02*
X66000Y50000D01*
X64000Y52000D02*
Y56130D01*
X59228Y32425D02*
X64000D01*
X71839Y14000D02*
Y27161D01*
X69724Y29276D02*
X71839Y27161D01*
X68228Y21000D02*
Y26772D01*
X59228Y29276D02*
X69724D01*
X67299Y27701D02*
X68228Y26772D01*
X59228Y27701D02*
X67299D01*
X54677Y29276D02*
X59228D01*
X65000Y21000D02*
Y25000D01*
X59228Y26126D02*
X63874D01*
X65000Y25000D01*
X52000Y54000D02*
Y60000D01*
X47000Y65000D02*
Y82000D01*
Y65000D02*
X52000Y60000D01*
X54000Y52000D02*
X56000D01*
X52000Y54000D02*
X54000Y52000D01*
X56000D02*
X56240Y51760D01*
X39000Y90000D02*
X47000Y82000D01*
X56808Y73296D02*
X57000Y73488D01*
X56240Y44863D02*
Y51760D01*
Y44863D02*
X56276Y44827D01*
X21800Y57000D02*
Y77200D01*
Y53200D02*
Y57000D01*
X45000Y59000D02*
Y82303D01*
X34000Y85000D02*
X42303D01*
X45000Y82303D01*
X39000Y90000D02*
Y96000D01*
X29000Y86000D02*
Y96000D01*
Y77000D02*
Y86000D01*
Y77000D02*
X29591Y76410D01*
Y68559D02*
Y76410D01*
X32000Y83000D02*
X34000Y85000D01*
X32000Y78000D02*
Y83000D01*
Y74000D02*
Y78000D01*
X29591Y55409D02*
X32000Y53000D01*
X29591Y55409D02*
Y61472D01*
X32000Y53000D02*
X37000D01*
X22000Y91000D02*
X23000Y90000D01*
Y68000D02*
Y90000D01*
X9000Y91000D02*
X16000D01*
X35500Y59000D02*
X41000D01*
X41063D02*
X45000D01*
X41000Y59063D02*
X41063Y59000D01*
X33528Y68559D02*
Y72472D01*
X32000Y74000D02*
X33528Y72472D01*
X36000Y74000D02*
Y78000D01*
Y72000D02*
Y74000D01*
X35496Y71496D02*
X36000Y72000D01*
X35496Y68559D02*
Y71496D01*
X36087Y66000D02*
X41000D01*
Y63000D02*
Y66000D01*
Y59000D02*
Y59063D01*
Y56352D02*
Y59000D01*
X37740Y56000D02*
X40648D01*
X41000Y56352D01*
X37751Y53751D02*
Y55989D01*
X37000Y53000D02*
X37751Y53751D01*
X37740Y56000D02*
X37751Y55989D01*
X32000Y56000D02*
X34000D01*
X31559Y56441D02*
X32000Y56000D01*
X31559Y56441D02*
Y61472D01*
X23000Y68000D02*
X25000Y66000D01*
X29000D01*
X21000Y78000D02*
X21800Y77200D01*
X18000Y78000D02*
X21000D01*
X10740Y60000D02*
X11013Y59727D01*
X12273D01*
X33276Y38724D01*
X9000Y79000D02*
Y86000D01*
X40528Y44827D02*
Y48472D01*
X9000Y74480D02*
Y79000D01*
Y67000D02*
X18000D01*
X10740Y48000D02*
X22000D01*
X32850Y37150D01*
X33276Y38724D02*
X34473D01*
X32850Y37150D02*
X36000D01*
X11000Y52063D02*
Y56000D01*
X10937Y52000D02*
X11000Y52063D01*
X10937Y52000D02*
X15000D01*
X7063Y56000D02*
Y59937D01*
X7000Y60000D02*
X7063Y59937D01*
X7000Y48000D02*
Y52000D01*
X52614Y27213D02*
X54677Y29276D01*
X69000Y13063D02*
X69881Y13944D01*
X71783D01*
X71839Y14000D01*
X64000Y13063D02*
X69000D01*
X60000D02*
X64000D01*
X69000Y17000D02*
Y20228D01*
X68228Y21000D02*
X69000Y20228D01*
X64000Y17000D02*
X64168Y17168D01*
Y20168D01*
X65000Y21000D01*
X52000Y8000D02*
X57000D01*
X58000Y7000D01*
X48213Y8000D02*
X52000D01*
X60000Y17000D02*
Y20000D01*
X59228Y20772D02*
Y24551D01*
Y20772D02*
X60000Y20000D01*
X44000Y4000D02*
X53000D01*
X54000Y3000D01*
X57000D01*
X31400Y16600D02*
X44000Y4000D01*
X31400Y16600D02*
Y26400D01*
X37932Y12000D02*
X41000D01*
X32600Y17332D02*
Y25600D01*
Y17332D02*
X37932Y12000D01*
X41000D02*
X45000D01*
X45480Y5520D02*
X55480D01*
X45000Y6000D02*
X45480Y5520D01*
X45000Y6000D02*
Y8063D01*
X58000Y4000D02*
Y7000D01*
X57000Y3000D02*
X58000Y4000D01*
X40937Y16000D02*
X41000Y15937D01*
X38000Y16000D02*
X40937D01*
X48150Y12000D02*
X51937D01*
X52000Y11937D01*
X36000Y19000D02*
Y24551D01*
X56240Y21563D02*
X56276Y21598D01*
X56000Y14000D02*
X56240Y14240D01*
Y21563D01*
X54701Y17701D02*
Y21598D01*
X53000Y16000D02*
X54701Y17701D01*
X53126Y19126D02*
Y21598D01*
X52000Y18000D02*
X53126Y19126D01*
X31000Y8000D02*
Y12000D01*
X29000Y14000D02*
X31000Y12000D01*
X35000Y8000D02*
Y11000D01*
X30200Y15800D02*
X35000Y11000D01*
X30200Y15800D02*
Y26897D01*
X29000Y14000D02*
Y27476D01*
X48150Y8063D02*
X48213Y8000D01*
X32600Y25600D02*
X33126Y26126D01*
X29000Y27476D02*
X32375Y30850D01*
X31400Y26400D02*
X32665Y27665D01*
X30200Y26897D02*
X32579Y29276D01*
X36000D01*
X32375Y30850D02*
X36000D01*
X32665Y27665D02*
X35964D01*
X33126Y26126D02*
X36000D01*
X51551Y21598D02*
Y29276D01*
X35964Y27665D02*
X36000Y27701D01*
Y32425D02*
X46827D01*
X47614Y33213D02*
X51551Y29276D01*
X78740Y55449D02*
X79000Y55709D01*
X56000Y65000D02*
Y69000D01*
D19*
X7000Y18000D02*
D03*
Y4590D02*
D03*
D20*
X32063Y78000D02*
D03*
X36000D02*
D03*
X39937Y74000D02*
D03*
X36000D02*
D03*
X22063Y55000D02*
D03*
X26000D02*
D03*
X7000Y52000D02*
D03*
X10937D02*
D03*
X59937Y59000D02*
D03*
X56000D02*
D03*
X95000Y57000D02*
D03*
X91063D02*
D03*
X98937Y69000D02*
D03*
X95000D02*
D03*
X11000Y56000D02*
D03*
X7063D02*
D03*
D21*
X41000Y69937D02*
D03*
Y66000D02*
D03*
Y63000D02*
D03*
Y59063D02*
D03*
X78000Y22968D02*
D03*
Y19031D02*
D03*
X83000Y72937D02*
D03*
Y69000D02*
D03*
X87000Y72937D02*
D03*
Y69000D02*
D03*
X91000Y72937D02*
D03*
Y69000D02*
D03*
X98500Y13000D02*
D03*
Y9063D02*
D03*
D22*
X34000Y56000D02*
D03*
X37740D02*
D03*
X7000Y48000D02*
D03*
X10740D02*
D03*
X7000Y60000D02*
D03*
X10740D02*
D03*
D23*
X29000Y66000D02*
D03*
Y64031D02*
D03*
X36087D02*
D03*
Y66000D02*
D03*
D24*
X32543Y65016D02*
D03*
D25*
X29591Y68559D02*
D03*
X31559D02*
D03*
X33528D02*
D03*
X35496D02*
D03*
Y61472D02*
D03*
X33528D02*
D03*
X31559D02*
D03*
X29591D02*
D03*
D26*
X20000Y94937D02*
D03*
Y91000D02*
D03*
X16000Y94937D02*
D03*
Y91000D02*
D03*
X31000Y4063D02*
D03*
Y8000D02*
D03*
X60000Y13063D02*
D03*
Y17000D02*
D03*
X69000D02*
D03*
Y13063D02*
D03*
X64000Y17000D02*
D03*
Y13063D02*
D03*
X35000Y4063D02*
D03*
Y8000D02*
D03*
X52000Y11937D02*
D03*
Y8000D02*
D03*
X41000Y15937D02*
D03*
Y12000D02*
D03*
X7000Y26000D02*
D03*
Y29937D02*
D03*
Y34000D02*
D03*
Y37937D02*
D03*
X11000D02*
D03*
Y34000D02*
D03*
D28*
X48937Y59000D02*
D03*
X45000D02*
D03*
X12937Y83000D02*
D03*
X9000D02*
D03*
X23000Y34000D02*
D03*
X27823D02*
D03*
X71031Y41000D02*
D03*
X74968D02*
D03*
X78969Y37000D02*
D03*
X75032D02*
D03*
X87063Y61000D02*
D03*
X91000D02*
D03*
X87063Y65000D02*
D03*
X91000D02*
D03*
X9000Y79000D02*
D03*
X12937D02*
D03*
X56000Y65000D02*
D03*
X52063D02*
D03*
X56000Y69000D02*
D03*
X52063D02*
D03*
X15000Y34000D02*
D03*
X18937D02*
D03*
D29*
X9000Y74480D02*
D03*
Y67000D02*
D03*
X17268Y70740D02*
D03*
D30*
X47614Y33213D02*
D03*
D31*
X46827Y44827D02*
D03*
X54701D02*
D03*
Y21598D02*
D03*
X46827D02*
D03*
X38953Y44827D02*
D03*
Y21598D02*
D03*
X56276Y44827D02*
D03*
Y21598D02*
D03*
X48402Y44827D02*
D03*
X49976D02*
D03*
X51551D02*
D03*
X53126D02*
D03*
Y21598D02*
D03*
X51551D02*
D03*
X49976D02*
D03*
X48402D02*
D03*
X40528Y44827D02*
D03*
X42102D02*
D03*
X43677D02*
D03*
X45252D02*
D03*
Y21598D02*
D03*
X43677D02*
D03*
X42102D02*
D03*
X40528D02*
D03*
D32*
X59228Y40299D02*
D03*
Y32425D02*
D03*
Y24551D02*
D03*
X36000Y32425D02*
D03*
Y40299D02*
D03*
Y24551D02*
D03*
X59228Y41874D02*
D03*
Y38724D02*
D03*
Y37150D02*
D03*
Y35575D02*
D03*
Y34000D02*
D03*
Y30850D02*
D03*
Y29276D02*
D03*
Y27701D02*
D03*
Y26126D02*
D03*
X36000Y41874D02*
D03*
Y34000D02*
D03*
Y35575D02*
D03*
Y37150D02*
D03*
Y38724D02*
D03*
Y26126D02*
D03*
Y27701D02*
D03*
Y29276D02*
D03*
Y30850D02*
D03*
D33*
X25411Y34000D02*
D03*
D34*
X78740Y46000D02*
D03*
X75000D02*
D03*
X71260D02*
D03*
Y55449D02*
D03*
X75000D02*
D03*
X78740D02*
D03*
D35*
X85000Y24000D02*
D03*
X87559D02*
D03*
X90118D02*
D03*
X92677D02*
D03*
X95236D02*
D03*
X97795D02*
D03*
X100354D02*
D03*
X102913D02*
D03*
X85000Y47032D02*
D03*
X87559D02*
D03*
X90118D02*
D03*
X92677D02*
D03*
X95236D02*
D03*
X97795D02*
D03*
X100354D02*
D03*
X102913D02*
D03*
D36*
X45000Y12000D02*
D03*
Y8063D02*
D03*
X48150D02*
D03*
Y12000D02*
D03*
D60*
X60937Y84512D02*
D03*
X58969D02*
D03*
X57000D02*
D03*
X55032D02*
D03*
X53063D02*
D03*
Y73488D02*
D03*
X55032D02*
D03*
X57000D02*
D03*
X58969D02*
D03*
X60937D02*
D03*
D61*
X57000Y79000D02*
D03*
D62*
X65000Y21000D02*
D03*
X68228D02*
D03*
D63*
X112000Y10500D02*
D03*
Y5500D02*
D03*
Y29500D02*
D03*
Y34500D02*
D03*
Y17500D02*
D03*
Y22500D02*
D03*
D64*
X115000Y95000D02*
D03*
X110000D02*
D03*
X103000D02*
D03*
X98000D02*
D03*
X86000D02*
D03*
X91000D02*
D03*
X78000D02*
D03*
X73000D02*
D03*
X65500D02*
D03*
X60500D02*
D03*
X39000D02*
D03*
X34000D02*
D03*
X29000D02*
D03*
X53000D02*
D03*
X48000D02*
D03*
D65*
X9000Y96000D02*
D03*
Y91000D02*
D03*
D66*
X31000Y46000D02*
D03*
X115000Y87000D02*
D03*
X113000Y53000D02*
D03*
Y47000D02*
D03*
Y42000D02*
D03*
X4000Y86000D02*
D03*
Y79000D02*
D03*
X74000Y4000D02*
D03*
X103000Y5000D02*
D03*
X93000Y4000D02*
D03*
X67000Y5000D02*
D03*
X20000Y29000D02*
D03*
X16000D02*
D03*
X12000D02*
D03*
X6000Y43000D02*
D03*
X10000D02*
D03*
X16000Y42000D02*
D03*
X19000Y39000D02*
D03*
X23000Y41000D02*
D03*
X26000Y24000D02*
D03*
Y19000D02*
D03*
Y14000D02*
D03*
Y9000D02*
D03*
Y5000D02*
D03*
X104000Y62000D02*
D03*
X77000Y70000D02*
D03*
X19000Y82000D02*
D03*
X47000Y17000D02*
D03*
X48000Y50000D02*
D03*
X105000Y72000D02*
D03*
X107886Y74000D02*
D03*
X91000Y83000D02*
D03*
X83000Y78000D02*
D03*
X95000Y80000D02*
D03*
X106000Y83000D02*
D03*
X113000Y74000D02*
D03*
X78000Y75000D02*
D03*
X95000Y17000D02*
D03*
X82000D02*
D03*
X81000Y9000D02*
D03*
X84000Y12000D02*
D03*
X77000Y63000D02*
D03*
X68000D02*
D03*
X79000Y33000D02*
D03*
X64000Y56130D02*
D03*
X68000Y59000D02*
D03*
X64000Y62000D02*
D03*
X77000Y26000D02*
D03*
X56000Y52000D02*
D03*
X29000Y86000D02*
D03*
X41000Y82000D02*
D03*
X9000Y86000D02*
D03*
X18000Y78000D02*
D03*
Y67000D02*
D03*
X15000Y52000D02*
D03*
X74000Y23000D02*
D03*
X71839Y14000D02*
D03*
X55480Y5520D02*
D03*
X36000Y19000D02*
D03*
X38000Y16000D02*
D03*
X56000Y14000D02*
D03*
X53000Y16000D02*
D03*
X42614Y39213D02*
D03*
X52614D02*
D03*
X47614D02*
D03*
X42614Y33213D02*
D03*
Y27213D02*
D03*
X47614D02*
D03*
X52614D02*
D03*
Y33213D02*
D03*
X47614D02*
D03*
M02*
