G04*
G04 #@! TF.GenerationSoftware,Altium Limited,Altium Designer,21.3.2 (30)*
G04*
G04 Layer_Color=16711935*
%FSLAX25Y25*%
%MOIN*%
G70*
G04*
G04 #@! TF.SameCoordinates,A236C9B4-8AE0-4B67-9D85-2998E959901C*
G04*
G04*
G04 #@! TF.FilePolarity,Negative*
G04*
G01*
G75*
%ADD10C,0.01000*%
%ADD38R,0.02769X0.03162*%
%ADD39R,0.03162X0.02769*%
%ADD44R,0.03162X0.03162*%
%ADD47R,0.03162X0.03162*%
%ADD52R,0.03162X0.05131*%
G04:AMPARAMS|DCode=56|XSize=47.37mil|YSize=86.74mil|CornerRadius=13.84mil|HoleSize=0mil|Usage=FLASHONLY|Rotation=270.000|XOffset=0mil|YOffset=0mil|HoleType=Round|Shape=RoundedRectangle|*
%AMROUNDEDRECTD56*
21,1,0.04737,0.05906,0,0,270.0*
21,1,0.01968,0.08674,0,0,270.0*
1,1,0.02769,-0.02953,-0.00984*
1,1,0.02769,-0.02953,0.00984*
1,1,0.02769,0.02953,0.00984*
1,1,0.02769,0.02953,-0.00984*
%
%ADD56ROUNDEDRECTD56*%
G04:AMPARAMS|DCode=57|XSize=47.37mil|YSize=86.74mil|CornerRadius=13.84mil|HoleSize=0mil|Usage=FLASHONLY|Rotation=180.000|XOffset=0mil|YOffset=0mil|HoleType=Round|Shape=RoundedRectangle|*
%AMROUNDEDRECTD57*
21,1,0.04737,0.05906,0,0,180.0*
21,1,0.01968,0.08674,0,0,180.0*
1,1,0.02769,-0.00984,0.02953*
1,1,0.02769,0.00984,0.02953*
1,1,0.02769,0.00984,-0.02953*
1,1,0.02769,-0.00984,-0.02953*
%
%ADD57ROUNDEDRECTD57*%
G04:AMPARAMS|DCode=58|XSize=47.37mil|YSize=47.37mil|CornerRadius=13.84mil|HoleSize=0mil|Usage=FLASHONLY|Rotation=90.000|XOffset=0mil|YOffset=0mil|HoleType=Round|Shape=RoundedRectangle|*
%AMROUNDEDRECTD58*
21,1,0.04737,0.01968,0,0,90.0*
21,1,0.01968,0.04737,0,0,90.0*
1,1,0.02769,0.00984,0.00984*
1,1,0.02769,0.00984,-0.00984*
1,1,0.02769,-0.00984,-0.00984*
1,1,0.02769,-0.00984,0.00984*
%
%ADD58ROUNDEDRECTD58*%
%ADD59C,0.03300*%
G04:AMPARAMS|DCode=72|XSize=39.37mil|YSize=62.99mil|CornerRadius=1.97mil|HoleSize=0mil|Usage=FLASHONLY|Rotation=180.000|XOffset=0mil|YOffset=0mil|HoleType=Round|Shape=RoundedRectangle|*
%AMROUNDEDRECTD72*
21,1,0.03937,0.05906,0,0,180.0*
21,1,0.03543,0.06299,0,0,180.0*
1,1,0.00394,-0.01772,0.02953*
1,1,0.00394,0.01772,0.02953*
1,1,0.00394,0.01772,-0.02953*
1,1,0.00394,-0.01772,-0.02953*
%
%ADD72ROUNDEDRECTD72*%
G04:AMPARAMS|DCode=73|XSize=17.72mil|YSize=11.81mil|CornerRadius=1.95mil|HoleSize=0mil|Usage=FLASHONLY|Rotation=180.000|XOffset=0mil|YOffset=0mil|HoleType=Round|Shape=RoundedRectangle|*
%AMROUNDEDRECTD73*
21,1,0.01772,0.00791,0,0,180.0*
21,1,0.01382,0.01181,0,0,180.0*
1,1,0.00390,-0.00691,0.00396*
1,1,0.00390,0.00691,0.00396*
1,1,0.00390,0.00691,-0.00396*
1,1,0.00390,-0.00691,-0.00396*
%
%ADD73ROUNDEDRECTD73*%
G04:AMPARAMS|DCode=75|XSize=31.62mil|YSize=47.37mil|CornerRadius=6.01mil|HoleSize=0mil|Usage=FLASHONLY|Rotation=270.000|XOffset=0mil|YOffset=0mil|HoleType=Round|Shape=RoundedRectangle|*
%AMROUNDEDRECTD75*
21,1,0.03162,0.03535,0,0,270.0*
21,1,0.01961,0.04737,0,0,270.0*
1,1,0.01202,-0.01768,-0.00980*
1,1,0.01202,-0.01768,0.00980*
1,1,0.01202,0.01768,0.00980*
1,1,0.01202,0.01768,-0.00980*
%
%ADD75ROUNDEDRECTD75*%
G04:AMPARAMS|DCode=76|XSize=33.59mil|YSize=55.24mil|CornerRadius=5.92mil|HoleSize=0mil|Usage=FLASHONLY|Rotation=90.000|XOffset=0mil|YOffset=0mil|HoleType=Round|Shape=RoundedRectangle|*
%AMROUNDEDRECTD76*
21,1,0.03359,0.04341,0,0,90.0*
21,1,0.02175,0.05524,0,0,90.0*
1,1,0.01184,0.02170,0.01088*
1,1,0.01184,0.02170,-0.01088*
1,1,0.01184,-0.02170,-0.01088*
1,1,0.01184,-0.02170,0.01088*
%
%ADD76ROUNDEDRECTD76*%
%ADD77R,0.03556X0.05918*%
G04:AMPARAMS|DCode=78|XSize=25.72mil|YSize=69.02mil|CornerRadius=5.95mil|HoleSize=0mil|Usage=FLASHONLY|Rotation=0.000|XOffset=0mil|YOffset=0mil|HoleType=Round|Shape=RoundedRectangle|*
%AMROUNDEDRECTD78*
21,1,0.02572,0.05713,0,0,0.0*
21,1,0.01382,0.06902,0,0,0.0*
1,1,0.01190,0.00691,-0.02856*
1,1,0.01190,-0.00691,-0.02856*
1,1,0.01190,-0.00691,0.02856*
1,1,0.01190,0.00691,0.02856*
%
%ADD78ROUNDEDRECTD78*%
%ADD79R,0.04800X0.03300*%
D10*
X6449Y102000D02*
G03*
X0Y95551I0J-6449D01*
G01*
X119000D02*
G03*
X112550Y102000I-6449J0D01*
G01*
Y0D02*
G03*
X119000Y6449I0J6449D01*
G01*
X0D02*
G03*
X6449Y0I6449J0D01*
G01*
X112550D01*
X119000Y6449D02*
Y95551D01*
X6449Y102000D02*
X112550D01*
X0Y6449D02*
Y95551D01*
D38*
X14000Y59000D02*
D03*
X10063D02*
D03*
X93000Y25000D02*
D03*
X96937D02*
D03*
Y29000D02*
D03*
X93000D02*
D03*
X67543Y81000D02*
D03*
X71480D02*
D03*
X71000Y85000D02*
D03*
X67063D02*
D03*
D39*
X96000Y61937D02*
D03*
Y58000D02*
D03*
X77000Y41000D02*
D03*
Y44937D02*
D03*
X96000Y54937D02*
D03*
Y51000D02*
D03*
X77000Y48000D02*
D03*
Y51937D02*
D03*
X85000Y26000D02*
D03*
Y22063D02*
D03*
X89000Y29000D02*
D03*
Y25063D02*
D03*
D44*
X10000Y63000D02*
D03*
Y66937D02*
D03*
X96000Y65000D02*
D03*
Y68937D02*
D03*
X72000Y34000D02*
D03*
Y30063D02*
D03*
X44000Y77937D02*
D03*
Y74000D02*
D03*
X40000D02*
D03*
Y77937D02*
D03*
X14000Y66937D02*
D03*
Y63000D02*
D03*
X60000Y14000D02*
D03*
Y10063D02*
D03*
X64000D02*
D03*
Y14000D02*
D03*
X47000Y6063D02*
D03*
Y10000D02*
D03*
X43000D02*
D03*
Y6063D02*
D03*
D47*
X52000Y80000D02*
D03*
X55937D02*
D03*
X82000Y64000D02*
D03*
X85937D02*
D03*
X82000Y68000D02*
D03*
X85937D02*
D03*
X84937Y29000D02*
D03*
X81000D02*
D03*
X88937Y33000D02*
D03*
X85000D02*
D03*
X95937D02*
D03*
X92000D02*
D03*
X64260Y30551D02*
D03*
X68197D02*
D03*
X64260Y34551D02*
D03*
X68197D02*
D03*
X55937Y72000D02*
D03*
X52000D02*
D03*
X56000Y66000D02*
D03*
X59937D02*
D03*
X52000Y76000D02*
D03*
X55937D02*
D03*
D52*
X64000D02*
D03*
X67740D02*
D03*
X71480D02*
D03*
Y66551D02*
D03*
X64000D02*
D03*
D56*
X112000Y10500D02*
D03*
Y5500D02*
D03*
Y29500D02*
D03*
Y34500D02*
D03*
Y17500D02*
D03*
Y22500D02*
D03*
D57*
X115000Y95000D02*
D03*
X110000D02*
D03*
X103000D02*
D03*
X98000D02*
D03*
X86000D02*
D03*
X91000D02*
D03*
X78000D02*
D03*
X73000D02*
D03*
X65500D02*
D03*
X60500D02*
D03*
X39000D02*
D03*
X34000D02*
D03*
X29000D02*
D03*
X53000D02*
D03*
X48000D02*
D03*
D58*
X9000Y96000D02*
D03*
Y91000D02*
D03*
D59*
X31000Y46000D02*
D03*
X115000Y87000D02*
D03*
X113000Y53000D02*
D03*
Y47000D02*
D03*
Y42000D02*
D03*
X4000Y86000D02*
D03*
Y79000D02*
D03*
X74000Y4000D02*
D03*
X103000Y5000D02*
D03*
X93000Y4000D02*
D03*
X67000Y5000D02*
D03*
X20000Y29000D02*
D03*
X16000D02*
D03*
X12000D02*
D03*
X6000Y43000D02*
D03*
X10000D02*
D03*
X16000Y42000D02*
D03*
X19000Y39000D02*
D03*
X23000Y41000D02*
D03*
X26000Y24000D02*
D03*
Y19000D02*
D03*
Y14000D02*
D03*
Y9000D02*
D03*
Y5000D02*
D03*
X104000Y62000D02*
D03*
X77000Y70000D02*
D03*
X19000Y82000D02*
D03*
X47000Y17000D02*
D03*
X48000Y50000D02*
D03*
X105000Y72000D02*
D03*
X107886Y74000D02*
D03*
X91000Y83000D02*
D03*
X83000Y78000D02*
D03*
X95000Y80000D02*
D03*
X106000Y83000D02*
D03*
X113000Y74000D02*
D03*
X78000Y75000D02*
D03*
X95000Y17000D02*
D03*
X82000D02*
D03*
X81000Y9000D02*
D03*
X84000Y12000D02*
D03*
X77000Y63000D02*
D03*
X68000D02*
D03*
X79000Y33000D02*
D03*
X64000Y56130D02*
D03*
X68000Y59000D02*
D03*
X64000Y62000D02*
D03*
X77000Y26000D02*
D03*
X56000Y52000D02*
D03*
X29000Y86000D02*
D03*
X41000Y82000D02*
D03*
X9000Y86000D02*
D03*
X18000Y78000D02*
D03*
Y67000D02*
D03*
X15000Y52000D02*
D03*
X74000Y23000D02*
D03*
X71839Y14000D02*
D03*
X55480Y5520D02*
D03*
X36000Y19000D02*
D03*
X38000Y16000D02*
D03*
X56000Y14000D02*
D03*
X53000Y16000D02*
D03*
X42614Y39213D02*
D03*
X52614D02*
D03*
X47614D02*
D03*
X42614Y33213D02*
D03*
Y27213D02*
D03*
X47614D02*
D03*
X52614D02*
D03*
Y33213D02*
D03*
X47614D02*
D03*
D72*
X71839Y14000D02*
D03*
D73*
X68000Y16559D02*
D03*
Y14000D02*
D03*
Y11441D02*
D03*
X75677D02*
D03*
Y14000D02*
D03*
Y16559D02*
D03*
D75*
X34827Y74000D02*
D03*
Y81480D02*
D03*
X24000D02*
D03*
Y77740D02*
D03*
Y74000D02*
D03*
D76*
X35614Y67000D02*
D03*
Y63260D02*
D03*
Y59520D02*
D03*
X24000D02*
D03*
Y63260D02*
D03*
Y67000D02*
D03*
D77*
X52000Y56551D02*
D03*
X48260D02*
D03*
X44520D02*
D03*
Y66000D02*
D03*
X52000D02*
D03*
X71740Y50000D02*
D03*
X68000D02*
D03*
X64260D02*
D03*
Y40551D02*
D03*
X68000D02*
D03*
X71740D02*
D03*
D78*
X90118Y39693D02*
D03*
X87559D02*
D03*
X85000D02*
D03*
X82441D02*
D03*
X90118Y58000D02*
D03*
X87559D02*
D03*
X85000D02*
D03*
X82441D02*
D03*
D79*
X38000Y12063D02*
D03*
Y6063D02*
D03*
M02*
