G04*
G04 #@! TF.GenerationSoftware,Altium Limited,Altium Designer,21.3.2 (30)*
G04*
G04 Layer_Color=8388736*
%FSLAX25Y25*%
%MOIN*%
G70*
G04*
G04 #@! TF.SameCoordinates,A236C9B4-8AE0-4B67-9D85-2998E959901C*
G04*
G04*
G04 #@! TF.FilePolarity,Negative*
G04*
G01*
G75*
%ADD10C,0.01000*%
G04:AMPARAMS|DCode=29|XSize=51.18mil|YSize=23.62mil|CornerRadius=2.01mil|HoleSize=0mil|Usage=FLASHONLY|Rotation=0.000|XOffset=0mil|YOffset=0mil|HoleType=Round|Shape=RoundedRectangle|*
%AMROUNDEDRECTD29*
21,1,0.05118,0.01961,0,0,0.0*
21,1,0.04717,0.02362,0,0,0.0*
1,1,0.00402,0.02358,-0.00980*
1,1,0.00402,-0.02358,-0.00980*
1,1,0.00402,-0.02358,0.00980*
1,1,0.00402,0.02358,0.00980*
%
%ADD29ROUNDEDRECTD29*%
%ADD37R,0.06142X0.03150*%
%ADD38R,0.02769X0.03162*%
%ADD39R,0.03162X0.02769*%
%ADD40R,0.02769X0.03556*%
%ADD41R,0.03556X0.01784*%
%ADD42R,0.03556X0.03556*%
%ADD43R,0.01784X0.03556*%
%ADD44R,0.03162X0.03162*%
%ADD45R,0.01384X0.02762*%
%ADD46R,0.08274X0.06699*%
%ADD47R,0.03162X0.03162*%
%ADD48R,0.18910X0.18910*%
%ADD49O,0.01587X0.04540*%
%ADD50O,0.04540X0.01587*%
%ADD51R,0.01981X0.06509*%
%ADD52R,0.03162X0.05131*%
%ADD53O,0.02178X0.08083*%
%ADD54R,0.02736X0.04961*%
%ADD55R,0.02646X0.03039*%
G04:AMPARAMS|DCode=56|XSize=47.37mil|YSize=86.74mil|CornerRadius=13.84mil|HoleSize=0mil|Usage=FLASHONLY|Rotation=270.000|XOffset=0mil|YOffset=0mil|HoleType=Round|Shape=RoundedRectangle|*
%AMROUNDEDRECTD56*
21,1,0.04737,0.05906,0,0,270.0*
21,1,0.01968,0.08674,0,0,270.0*
1,1,0.02769,-0.02953,-0.00984*
1,1,0.02769,-0.02953,0.00984*
1,1,0.02769,0.02953,0.00984*
1,1,0.02769,0.02953,-0.00984*
%
%ADD56ROUNDEDRECTD56*%
G04:AMPARAMS|DCode=57|XSize=47.37mil|YSize=86.74mil|CornerRadius=13.84mil|HoleSize=0mil|Usage=FLASHONLY|Rotation=180.000|XOffset=0mil|YOffset=0mil|HoleType=Round|Shape=RoundedRectangle|*
%AMROUNDEDRECTD57*
21,1,0.04737,0.05906,0,0,180.0*
21,1,0.01968,0.08674,0,0,180.0*
1,1,0.02769,-0.00984,0.02953*
1,1,0.02769,0.00984,0.02953*
1,1,0.02769,0.00984,-0.02953*
1,1,0.02769,-0.00984,-0.02953*
%
%ADD57ROUNDEDRECTD57*%
G04:AMPARAMS|DCode=58|XSize=47.37mil|YSize=47.37mil|CornerRadius=13.84mil|HoleSize=0mil|Usage=FLASHONLY|Rotation=90.000|XOffset=0mil|YOffset=0mil|HoleType=Round|Shape=RoundedRectangle|*
%AMROUNDEDRECTD58*
21,1,0.04737,0.01968,0,0,90.0*
21,1,0.01968,0.04737,0,0,90.0*
1,1,0.02769,0.00984,0.00984*
1,1,0.02769,0.00984,-0.00984*
1,1,0.02769,-0.00984,-0.00984*
1,1,0.02769,-0.00984,0.00984*
%
%ADD58ROUNDEDRECTD58*%
%ADD59C,0.03300*%
D10*
X6449Y102000D02*
G03*
X0Y95551I0J-6449D01*
G01*
X119000D02*
G03*
X112550Y102000I-6449J0D01*
G01*
Y0D02*
G03*
X119000Y6449I0J6449D01*
G01*
X0D02*
G03*
X6449Y0I6449J0D01*
G01*
X112550D01*
X119000Y6449D02*
Y95551D01*
X6449Y102000D02*
X112550D01*
X0Y6449D02*
Y95551D01*
D29*
X9000Y74480D02*
D03*
Y67000D02*
D03*
X17268Y70740D02*
D03*
D37*
X7000Y18000D02*
D03*
Y4590D02*
D03*
D38*
X32063Y78000D02*
D03*
X36000D02*
D03*
X39937Y74000D02*
D03*
X36000D02*
D03*
X22063Y55000D02*
D03*
X26000D02*
D03*
X7000Y52000D02*
D03*
X10937D02*
D03*
X59937Y59000D02*
D03*
X56000D02*
D03*
X95000Y57000D02*
D03*
X91063D02*
D03*
X98937Y69000D02*
D03*
X95000D02*
D03*
X11000Y56000D02*
D03*
X7063D02*
D03*
D39*
X41000Y69937D02*
D03*
Y66000D02*
D03*
Y63000D02*
D03*
Y59063D02*
D03*
X78000Y22968D02*
D03*
Y19031D02*
D03*
X83000Y72937D02*
D03*
Y69000D02*
D03*
X87000Y72937D02*
D03*
Y69000D02*
D03*
X91000Y72937D02*
D03*
Y69000D02*
D03*
X98500Y13000D02*
D03*
Y9063D02*
D03*
D40*
X34000Y56000D02*
D03*
X37740D02*
D03*
X7000Y48000D02*
D03*
X10740D02*
D03*
X7000Y60000D02*
D03*
X10740D02*
D03*
D41*
X29000Y66000D02*
D03*
Y64031D02*
D03*
X36087D02*
D03*
Y66000D02*
D03*
D42*
X32543Y65016D02*
D03*
D43*
X29591Y68559D02*
D03*
X31559D02*
D03*
X33528D02*
D03*
X35496D02*
D03*
Y61472D02*
D03*
X33528D02*
D03*
X31559D02*
D03*
X29591D02*
D03*
D44*
X20000Y94937D02*
D03*
Y91000D02*
D03*
X16000Y94937D02*
D03*
Y91000D02*
D03*
X31000Y4063D02*
D03*
Y8000D02*
D03*
X60000Y13063D02*
D03*
Y17000D02*
D03*
X69000D02*
D03*
Y13063D02*
D03*
X64000Y17000D02*
D03*
Y13063D02*
D03*
X35000Y4063D02*
D03*
Y8000D02*
D03*
X52000Y11937D02*
D03*
Y8000D02*
D03*
X41000Y15937D02*
D03*
Y12000D02*
D03*
X7000Y26000D02*
D03*
Y29937D02*
D03*
Y34000D02*
D03*
Y37937D02*
D03*
X11000D02*
D03*
Y34000D02*
D03*
D45*
X60937Y84512D02*
D03*
X58969D02*
D03*
X57000D02*
D03*
X55032D02*
D03*
X53063D02*
D03*
Y73488D02*
D03*
X55032D02*
D03*
X57000D02*
D03*
X58969D02*
D03*
X60937D02*
D03*
D46*
X57000Y79000D02*
D03*
D47*
X48937Y59000D02*
D03*
X45000D02*
D03*
X12937Y83000D02*
D03*
X9000D02*
D03*
X23000Y34000D02*
D03*
X27823D02*
D03*
X71031Y41000D02*
D03*
X74968D02*
D03*
X78969Y37000D02*
D03*
X75032D02*
D03*
X87063Y61000D02*
D03*
X91000D02*
D03*
X87063Y65000D02*
D03*
X91000D02*
D03*
X9000Y79000D02*
D03*
X12937D02*
D03*
X56000Y65000D02*
D03*
X52063D02*
D03*
X56000Y69000D02*
D03*
X52063D02*
D03*
X15000Y34000D02*
D03*
X18937D02*
D03*
D48*
X47614Y33213D02*
D03*
D49*
X46827Y44827D02*
D03*
X54701D02*
D03*
Y21598D02*
D03*
X46827D02*
D03*
X38953Y44827D02*
D03*
Y21598D02*
D03*
X56276Y44827D02*
D03*
Y21598D02*
D03*
X48402Y44827D02*
D03*
X49976D02*
D03*
X51551D02*
D03*
X53126D02*
D03*
Y21598D02*
D03*
X51551D02*
D03*
X49976D02*
D03*
X48402D02*
D03*
X40528Y44827D02*
D03*
X42102D02*
D03*
X43677D02*
D03*
X45252D02*
D03*
Y21598D02*
D03*
X43677D02*
D03*
X42102D02*
D03*
X40528D02*
D03*
D50*
X59228Y40299D02*
D03*
Y32425D02*
D03*
Y24551D02*
D03*
X36000Y32425D02*
D03*
Y40299D02*
D03*
Y24551D02*
D03*
X59228Y41874D02*
D03*
Y38724D02*
D03*
Y37150D02*
D03*
Y35575D02*
D03*
Y34000D02*
D03*
Y30850D02*
D03*
Y29276D02*
D03*
Y27701D02*
D03*
Y26126D02*
D03*
X36000Y41874D02*
D03*
Y34000D02*
D03*
Y35575D02*
D03*
Y37150D02*
D03*
Y38724D02*
D03*
Y26126D02*
D03*
Y27701D02*
D03*
Y29276D02*
D03*
Y30850D02*
D03*
D51*
X25411Y34000D02*
D03*
D52*
X78740Y46000D02*
D03*
X75000D02*
D03*
X71260D02*
D03*
Y55449D02*
D03*
X75000D02*
D03*
X78740D02*
D03*
D53*
X85000Y24000D02*
D03*
X87559D02*
D03*
X90118D02*
D03*
X92677D02*
D03*
X95236D02*
D03*
X97795D02*
D03*
X100354D02*
D03*
X102913D02*
D03*
X85000Y47032D02*
D03*
X87559D02*
D03*
X90118D02*
D03*
X92677D02*
D03*
X95236D02*
D03*
X97795D02*
D03*
X100354D02*
D03*
X102913D02*
D03*
D54*
X65000Y21000D02*
D03*
X68228D02*
D03*
D55*
X45000Y12000D02*
D03*
Y8063D02*
D03*
X48150D02*
D03*
Y12000D02*
D03*
D56*
X112000Y10500D02*
D03*
Y5500D02*
D03*
Y29500D02*
D03*
Y34500D02*
D03*
Y17500D02*
D03*
Y22500D02*
D03*
D57*
X115000Y95000D02*
D03*
X110000D02*
D03*
X103000D02*
D03*
X98000D02*
D03*
X86000D02*
D03*
X91000D02*
D03*
X78000D02*
D03*
X73000D02*
D03*
X65500D02*
D03*
X60500D02*
D03*
X39000D02*
D03*
X34000D02*
D03*
X29000D02*
D03*
X53000D02*
D03*
X48000D02*
D03*
D58*
X9000Y96000D02*
D03*
Y91000D02*
D03*
D59*
X31000Y46000D02*
D03*
X115000Y87000D02*
D03*
X113000Y53000D02*
D03*
Y47000D02*
D03*
Y42000D02*
D03*
X4000Y86000D02*
D03*
Y79000D02*
D03*
X74000Y4000D02*
D03*
X103000Y5000D02*
D03*
X93000Y4000D02*
D03*
X67000Y5000D02*
D03*
X20000Y29000D02*
D03*
X16000D02*
D03*
X12000D02*
D03*
X6000Y43000D02*
D03*
X10000D02*
D03*
X16000Y42000D02*
D03*
X19000Y39000D02*
D03*
X23000Y41000D02*
D03*
X26000Y24000D02*
D03*
Y19000D02*
D03*
Y14000D02*
D03*
Y9000D02*
D03*
Y5000D02*
D03*
X104000Y62000D02*
D03*
X77000Y70000D02*
D03*
X19000Y82000D02*
D03*
X47000Y17000D02*
D03*
X48000Y50000D02*
D03*
X105000Y72000D02*
D03*
X107886Y74000D02*
D03*
X91000Y83000D02*
D03*
X83000Y78000D02*
D03*
X95000Y80000D02*
D03*
X106000Y83000D02*
D03*
X113000Y74000D02*
D03*
X78000Y75000D02*
D03*
X95000Y17000D02*
D03*
X82000D02*
D03*
X81000Y9000D02*
D03*
X84000Y12000D02*
D03*
X77000Y63000D02*
D03*
X68000D02*
D03*
X79000Y33000D02*
D03*
X64000Y56130D02*
D03*
X68000Y59000D02*
D03*
X64000Y62000D02*
D03*
X77000Y26000D02*
D03*
X56000Y52000D02*
D03*
X29000Y86000D02*
D03*
X41000Y82000D02*
D03*
X9000Y86000D02*
D03*
X18000Y78000D02*
D03*
Y67000D02*
D03*
X15000Y52000D02*
D03*
X74000Y23000D02*
D03*
X71839Y14000D02*
D03*
X55480Y5520D02*
D03*
X36000Y19000D02*
D03*
X38000Y16000D02*
D03*
X56000Y14000D02*
D03*
X53000Y16000D02*
D03*
X42614Y39213D02*
D03*
X52614D02*
D03*
X47614D02*
D03*
X42614Y33213D02*
D03*
Y27213D02*
D03*
X47614D02*
D03*
X52614D02*
D03*
Y33213D02*
D03*
X47614D02*
D03*
M02*
