G04*
G04 #@! TF.GenerationSoftware,Altium Limited,Altium Designer,21.3.2 (30)*
G04*
G04 Layer_Color=32896*
%FSLAX25Y25*%
%MOIN*%
G70*
G04*
G04 #@! TF.SameCoordinates,A236C9B4-8AE0-4B67-9D85-2998E959901C*
G04*
G04*
G04 #@! TF.FilePolarity,Positive*
G04*
G01*
G75*
%ADD10C,0.01000*%
%ADD13C,0.00984*%
%ADD15C,0.00600*%
%ADD16C,0.00787*%
%ADD17C,0.00300*%
%ADD80C,0.00500*%
D10*
X6000Y101000D02*
G03*
X1000Y96000I0J-5000D01*
G01*
X118000D02*
G03*
X113000Y101000I-5000J0D01*
G01*
X111550Y1000D02*
G03*
X118000Y7450I0J6449D01*
G01*
X1000Y7828D02*
G03*
X7828Y1000I6828J0D01*
G01*
X1000Y7828D02*
Y96000D01*
X6000Y101000D02*
X111000D01*
X113000D01*
X118000Y94000D02*
Y96000D01*
Y10000D02*
Y94000D01*
Y7450D02*
Y10000D01*
X7828Y1000D02*
X111550D01*
X6449Y102000D02*
G03*
X0Y95551I0J-6449D01*
G01*
X119000D02*
G03*
X112550Y102000I-6449J0D01*
G01*
Y0D02*
G03*
X119000Y6449I0J6449D01*
G01*
X0D02*
G03*
X6449Y0I6449J0D01*
G01*
X112550D01*
X119000Y6449D02*
Y95551D01*
X6449Y102000D02*
X112550D01*
X0Y6449D02*
Y95551D01*
D13*
X24492Y70653D02*
G03*
X24492Y70653I-492J0D01*
G01*
X36106Y70445D02*
G03*
X36106Y70445I-492J0D01*
G01*
X56035Y56551D02*
G03*
X56035Y56551I-492J0D01*
G01*
X93772Y42846D02*
G03*
X93772Y42846I-492J0D01*
G01*
X61146Y76000D02*
G03*
X61146Y76000I-492J0D01*
G01*
X75776Y40551D02*
G03*
X75776Y40551I-492J0D01*
G01*
X79319Y16559D02*
G03*
X79319Y16559I-492J0D01*
G01*
D15*
X11000Y64890D02*
Y65047D01*
X9000Y64890D02*
Y65047D01*
X11782Y60000D02*
X12281D01*
X11782Y58000D02*
X12281D01*
X53890Y79000D02*
X54047D01*
X53890Y81000D02*
X54047D01*
X97000Y66890D02*
Y67047D01*
X95000Y66890D02*
Y67047D01*
Y59719D02*
Y60219D01*
X97000Y59719D02*
Y60219D01*
X78000Y42718D02*
Y43218D01*
X76000Y42718D02*
Y43218D01*
X71000Y31953D02*
Y32110D01*
X73000Y31953D02*
Y32110D01*
X95000Y52719D02*
Y53219D01*
X97000Y52719D02*
Y53219D01*
X83890Y63000D02*
X84047D01*
X83890Y65000D02*
X84047D01*
X83890Y67000D02*
X84047D01*
X83890Y69000D02*
X84047D01*
X78000Y49718D02*
Y50218D01*
X76000Y49718D02*
Y50218D01*
X84000Y23781D02*
Y24282D01*
X86000Y23781D02*
Y24282D01*
X82890Y30000D02*
X83047D01*
X82890Y28000D02*
X83047D01*
X86890Y34000D02*
X87047D01*
X86890Y32000D02*
X87047D01*
X93890Y34000D02*
X94047D01*
X93890Y32000D02*
X94047D01*
X88000Y26781D02*
Y27281D01*
X90000Y26781D02*
Y27281D01*
X94718Y24000D02*
X95218D01*
X94718Y26000D02*
X95218D01*
X94718Y30000D02*
X95218D01*
X94718Y28000D02*
X95218D01*
X69262Y80000D02*
X69762D01*
X69262Y82000D02*
X69762D01*
X68782Y86000D02*
X69282D01*
X68782Y84000D02*
X69282D01*
X66150Y29551D02*
X66307D01*
X66150Y31551D02*
X66307D01*
X66150Y33551D02*
X66307D01*
X66150Y35551D02*
X66307D01*
X53890Y73000D02*
X54047D01*
X53890Y71000D02*
X54047D01*
X57890Y67000D02*
X58047D01*
X57890Y65000D02*
X58047D01*
X53890Y75000D02*
X54047D01*
X53890Y77000D02*
X54047D01*
X43000Y75890D02*
Y76047D01*
X45000Y75890D02*
Y76047D01*
X41000Y75890D02*
Y76047D01*
X39000Y75890D02*
Y76047D01*
X13000Y64890D02*
Y65047D01*
X15000Y64890D02*
Y65047D01*
X59000Y11953D02*
Y12110D01*
X61000Y11953D02*
Y12110D01*
X65000Y11953D02*
Y12110D01*
X63000Y11953D02*
Y12110D01*
X48000Y7953D02*
Y8110D01*
X46000Y7953D02*
Y8110D01*
X44000Y7953D02*
Y8110D01*
X42000Y7953D02*
Y8110D01*
D16*
X31382Y71638D02*
Y83842D01*
X27445Y71638D02*
Y83842D01*
X31382D01*
X27445Y71638D02*
X31382D01*
X27839Y69362D02*
X31776D01*
X27839Y57157D02*
X31776D01*
Y69362D01*
X27839Y57157D02*
Y69362D01*
X54165Y60685D02*
Y61866D01*
X42354Y60685D02*
Y61866D01*
Y60685D02*
X54165D01*
X42354Y61866D02*
X54165D01*
X80177Y44319D02*
Y53374D01*
X92382Y44319D02*
Y53374D01*
X80177D02*
X92382D01*
X80177Y44319D02*
X92382D01*
X61835Y70291D02*
Y72260D01*
X73646Y70291D02*
Y72260D01*
X61835D02*
X73646D01*
X61835Y70291D02*
X73646D01*
X61898Y45866D02*
X74102D01*
X61898Y44685D02*
X74102D01*
X61898D02*
Y45866D01*
X74102Y44685D02*
Y45866D01*
X67902Y8685D02*
X75776D01*
X67902Y19315D02*
X75776D01*
D17*
X6333Y65667D02*
X6666Y66000D01*
X7333D01*
X7666Y65667D01*
Y64334D01*
X7333Y64000D01*
X6666D01*
X6333Y64334D01*
X5666Y65667D02*
X5333Y66000D01*
X4667D01*
X4334Y65667D01*
Y65333D01*
X4667Y65000D01*
X5000D01*
X4667D01*
X4334Y64667D01*
Y64334D01*
X4667Y64000D01*
X5333D01*
X5666Y64334D01*
X2334Y66000D02*
X3001Y65667D01*
X3667Y65000D01*
Y64334D01*
X3334Y64000D01*
X2667D01*
X2334Y64334D01*
Y64667D01*
X2667Y65000D01*
X3667D01*
X25499Y87000D02*
Y85334D01*
X25166Y85000D01*
X24499D01*
X24166Y85334D01*
Y87000D01*
X23500Y85000D02*
X22833D01*
X23167D01*
Y87000D01*
X23500Y86667D01*
X21834D02*
X21500Y87000D01*
X20834D01*
X20501Y86667D01*
Y86333D01*
X20834Y86000D01*
X21167D01*
X20834D01*
X20501Y85667D01*
Y85334D01*
X20834Y85000D01*
X21500D01*
X21834Y85334D01*
X32499Y55000D02*
Y53334D01*
X32166Y53000D01*
X31499D01*
X31166Y53334D01*
Y55000D01*
X30500Y53000D02*
X29833D01*
X30167D01*
Y55000D01*
X30500Y54667D01*
X27501Y53000D02*
X28834D01*
X27501Y54333D01*
Y54667D01*
X27834Y55000D01*
X28501D01*
X28834Y54667D01*
X45499Y52000D02*
Y50334D01*
X45166Y50000D01*
X44499D01*
X44166Y50334D01*
Y52000D01*
X43500Y50000D02*
X42833D01*
X43167D01*
Y52000D01*
X43500Y51666D01*
X41834D02*
X41500Y52000D01*
X40834D01*
X40501Y51666D01*
Y50334D01*
X40834Y50000D01*
X41500D01*
X41834Y50334D01*
Y51666D01*
X14666Y54000D02*
Y56000D01*
X13666D01*
X13333Y55667D01*
Y55000D01*
X13666Y54667D01*
X14666D01*
X13999D02*
X13333Y54000D01*
X11333D02*
X12666D01*
X11333Y55333D01*
Y55667D01*
X11667Y56000D01*
X12333D01*
X12666Y55667D01*
X10667Y56000D02*
X9334D01*
Y55667D01*
X10667Y54334D01*
Y54000D01*
X55333Y84667D02*
X55666Y85000D01*
X56333D01*
X56666Y84667D01*
Y83334D01*
X56333Y83000D01*
X55666D01*
X55333Y83334D01*
X53334Y83000D02*
X54666D01*
X53334Y84333D01*
Y84667D01*
X53667Y85000D01*
X54333D01*
X54666Y84667D01*
X52667Y83334D02*
X52334Y83000D01*
X51667D01*
X51334Y83334D01*
Y84667D01*
X51667Y85000D01*
X52334D01*
X52667Y84667D01*
Y84333D01*
X52334Y84000D01*
X51334D01*
X59666Y63700D02*
Y61700D01*
X58333D01*
X56334Y63700D02*
X57667D01*
Y62700D01*
X57000Y63033D01*
X56667D01*
X56334Y62700D01*
Y62034D01*
X56667Y61700D01*
X57333D01*
X57667Y62034D01*
X48333Y72000D02*
X48000Y72333D01*
Y72999D01*
X48333Y73333D01*
X49666D01*
X50000Y72999D01*
Y72333D01*
X49666Y72000D01*
X48333Y71333D02*
X48000Y71000D01*
Y70333D01*
X48333Y70000D01*
X48667D01*
X49000Y70333D01*
Y70667D01*
Y70333D01*
X49333Y70000D01*
X49666D01*
X50000Y70333D01*
Y71000D01*
X49666Y71333D01*
X50000Y69334D02*
Y68667D01*
Y69001D01*
X48000D01*
X48333Y69334D01*
Y78333D02*
X48000Y78666D01*
Y79333D01*
X48333Y79666D01*
X49666D01*
X50000Y79333D01*
Y78666D01*
X49666Y78333D01*
X48333Y77666D02*
X48000Y77333D01*
Y76667D01*
X48333Y76334D01*
X48667D01*
X49000Y76667D01*
Y77000D01*
Y76667D01*
X49333Y76334D01*
X49666D01*
X50000Y76667D01*
Y77333D01*
X49666Y77666D01*
X48333Y75667D02*
X48000Y75334D01*
Y74667D01*
X48333Y74334D01*
X49666D01*
X50000Y74667D01*
Y75334D01*
X49666Y75667D01*
X48333D01*
X59666Y46000D02*
Y44334D01*
X59333Y44000D01*
X58666D01*
X58333Y44334D01*
Y46000D01*
X57667D02*
X56334D01*
Y45667D01*
X57667Y44334D01*
Y44000D01*
X76480Y64334D02*
X74814D01*
X74481Y64667D01*
Y65334D01*
X74814Y65667D01*
X76480D01*
Y67666D02*
X76147Y67000D01*
X75480Y66333D01*
X74814D01*
X74481Y66667D01*
Y67333D01*
X74814Y67666D01*
X75147D01*
X75480Y67333D01*
Y66333D01*
X95666Y40000D02*
Y38334D01*
X95333Y38000D01*
X94666D01*
X94333Y38334D01*
Y40000D01*
X92334D02*
X93667D01*
Y39000D01*
X93000Y39333D01*
X92667D01*
X92334Y39000D01*
Y38334D01*
X92667Y38000D01*
X93334D01*
X93667Y38334D01*
X82166Y21000D02*
Y23000D01*
X81166D01*
X80833Y22667D01*
Y22000D01*
X81166Y21667D01*
X82166D01*
X81499D02*
X80833Y21000D01*
X80167D02*
X79500D01*
X79833D01*
Y23000D01*
X80167Y22667D01*
X78500Y21000D02*
X77834D01*
X78167D01*
Y23000D01*
X78500Y22667D01*
X91666Y21000D02*
Y23000D01*
X90666D01*
X90333Y22667D01*
Y22000D01*
X90666Y21667D01*
X91666D01*
X91000D02*
X90333Y21000D01*
X89667Y21334D02*
X89333Y21000D01*
X88667D01*
X88334Y21334D01*
Y22667D01*
X88667Y23000D01*
X89333D01*
X89667Y22667D01*
Y22333D01*
X89333Y22000D01*
X88334D01*
X78499Y80000D02*
Y82000D01*
X77500D01*
X77166Y81666D01*
Y81000D01*
X77500Y80667D01*
X78499D01*
X77833D02*
X77166Y80000D01*
X76500D02*
X75833D01*
X76167D01*
Y82000D01*
X76500Y81666D01*
X74834D02*
X74501Y82000D01*
X73834D01*
X73501Y81666D01*
Y81333D01*
X73834Y81000D01*
X74167D01*
X73834D01*
X73501Y80667D01*
Y80334D01*
X73834Y80000D01*
X74501D01*
X74834Y80334D01*
X79031Y84500D02*
Y86500D01*
X78031D01*
X77698Y86167D01*
Y85500D01*
X78031Y85167D01*
X79031D01*
X78364D02*
X77698Y84500D01*
X77031D02*
X76365D01*
X76698D01*
Y86500D01*
X77031Y86167D01*
X74032Y84500D02*
X75365D01*
X74032Y85833D01*
Y86167D01*
X74366Y86500D01*
X75032D01*
X75365Y86167D01*
X80666Y37000D02*
Y39000D01*
X79666D01*
X79333Y38666D01*
Y38000D01*
X79666Y37667D01*
X80666D01*
X80000D02*
X79333Y37000D01*
X78667Y38666D02*
X78333Y39000D01*
X77667D01*
X77334Y38666D01*
Y38333D01*
X77667Y38000D01*
X77334Y37667D01*
Y37334D01*
X77667Y37000D01*
X78333D01*
X78667Y37334D01*
Y37667D01*
X78333Y38000D01*
X78667Y38333D01*
Y38666D01*
X78333Y38000D02*
X77667D01*
X79499Y55000D02*
Y57000D01*
X78500D01*
X78166Y56666D01*
Y56000D01*
X78500Y55667D01*
X79499D01*
X78833D02*
X78166Y55000D01*
X77500D02*
X76833D01*
X77167D01*
Y57000D01*
X77500Y56666D01*
X75834D02*
X75501Y57000D01*
X74834D01*
X74501Y56666D01*
Y55334D01*
X74834Y55000D01*
X75501D01*
X75834Y55334D01*
Y56666D01*
X101666Y52000D02*
Y54000D01*
X100666D01*
X100333Y53667D01*
Y53000D01*
X100666Y52667D01*
X101666D01*
X101000D02*
X100333Y52000D01*
X99667Y54000D02*
X98334D01*
Y53667D01*
X99667Y52334D01*
Y52000D01*
X101666Y59000D02*
Y61000D01*
X100666D01*
X100333Y60667D01*
Y60000D01*
X100666Y59667D01*
X101666D01*
X101000D02*
X100333Y59000D01*
X98334Y61000D02*
X99000Y60667D01*
X99667Y60000D01*
Y59334D01*
X99334Y59000D01*
X98667D01*
X98334Y59334D01*
Y59667D01*
X98667Y60000D01*
X99667D01*
X104666Y28000D02*
Y30000D01*
X103666D01*
X103333Y29667D01*
Y29000D01*
X103666Y28667D01*
X104666D01*
X103999D02*
X103333Y28000D01*
X101334D02*
X102666D01*
X101334Y29333D01*
Y29667D01*
X101667Y30000D01*
X102333D01*
X102666Y29667D01*
X99334Y28000D02*
X100667D01*
X99334Y29333D01*
Y29667D01*
X99667Y30000D01*
X100334D01*
X100667Y29667D01*
X104333Y24000D02*
Y26000D01*
X103333D01*
X103000Y25666D01*
Y25000D01*
X103333Y24667D01*
X104333D01*
X103666D02*
X103000Y24000D01*
X101000D02*
X102333D01*
X101000Y25333D01*
Y25666D01*
X101333Y26000D01*
X102000D01*
X102333Y25666D01*
X100334Y24000D02*
X99667D01*
X100001D01*
Y26000D01*
X100334Y25666D01*
X60333Y30667D02*
X60666Y31000D01*
X61333D01*
X61666Y30667D01*
Y29334D01*
X61333Y29000D01*
X60666D01*
X60333Y29334D01*
X58334Y29000D02*
X59666D01*
X58334Y30333D01*
Y30667D01*
X58667Y31000D01*
X59333D01*
X59666Y30667D01*
X56334Y31000D02*
X57667D01*
Y30000D01*
X57001Y30333D01*
X56667D01*
X56334Y30000D01*
Y29334D01*
X56667Y29000D01*
X57334D01*
X57667Y29334D01*
X60333Y35666D02*
X60666Y36000D01*
X61333D01*
X61666Y35666D01*
Y34334D01*
X61333Y34000D01*
X60666D01*
X60333Y34334D01*
X58334Y34000D02*
X59666D01*
X58334Y35333D01*
Y35666D01*
X58667Y36000D01*
X59333D01*
X59666Y35666D01*
X56667Y34000D02*
Y36000D01*
X57667Y35000D01*
X56334D01*
X73166Y27667D02*
X73500Y28000D01*
X74166D01*
X74499Y27667D01*
Y26334D01*
X74166Y26000D01*
X73500D01*
X73166Y26334D01*
X72500Y26000D02*
X71833D01*
X72167D01*
Y28000D01*
X72500Y27667D01*
X70834Y28000D02*
X69501D01*
Y27667D01*
X70834Y26334D01*
Y26000D01*
X102166Y67667D02*
X102499Y68000D01*
X103166D01*
X103499Y67667D01*
Y66334D01*
X103166Y66000D01*
X102499D01*
X102166Y66334D01*
X101500Y66000D02*
X100833D01*
X101167D01*
Y68000D01*
X101500Y67667D01*
X98501Y68000D02*
X99834D01*
Y67000D01*
X99167Y67333D01*
X98834D01*
X98501Y67000D01*
Y66334D01*
X98834Y66000D01*
X99501D01*
X99834Y66334D01*
X92333Y64666D02*
X92666Y65000D01*
X93333D01*
X93666Y64666D01*
Y63334D01*
X93333Y63000D01*
X92666D01*
X92333Y63334D01*
X90334Y63000D02*
X91666D01*
X90334Y64333D01*
Y64666D01*
X90667Y65000D01*
X91333D01*
X91666Y64666D01*
X89667D02*
X89334Y65000D01*
X88667D01*
X88334Y64666D01*
Y64333D01*
X88667Y64000D01*
X89001D01*
X88667D01*
X88334Y63667D01*
Y63334D01*
X88667Y63000D01*
X89334D01*
X89667Y63334D01*
X92333Y68666D02*
X92666Y69000D01*
X93333D01*
X93666Y68666D01*
Y67334D01*
X93333Y67000D01*
X92666D01*
X92333Y67334D01*
X90334Y67000D02*
X91666D01*
X90334Y68333D01*
Y68666D01*
X90667Y69000D01*
X91333D01*
X91666Y68666D01*
X88334Y67000D02*
X89667D01*
X88334Y68333D01*
Y68666D01*
X88667Y69000D01*
X89334D01*
X89667Y68666D01*
X78000Y30667D02*
X78333Y31000D01*
X78999D01*
X79333Y30667D01*
Y29334D01*
X78999Y29000D01*
X78333D01*
X78000Y29334D01*
X76000Y29000D02*
X77333D01*
X76000Y30333D01*
Y30667D01*
X76333Y31000D01*
X77000D01*
X77333Y30667D01*
X75334Y29000D02*
X74667D01*
X75001D01*
Y31000D01*
X75334Y30667D01*
X82166Y35666D02*
X82499Y36000D01*
X83166D01*
X83499Y35666D01*
Y34334D01*
X83166Y34000D01*
X82499D01*
X82166Y34334D01*
X81500Y34000D02*
X80833D01*
X81167D01*
Y36000D01*
X81500Y35666D01*
X79834D02*
X79501Y36000D01*
X78834D01*
X78501Y35666D01*
Y35333D01*
X78834Y35000D01*
X78501Y34667D01*
Y34334D01*
X78834Y34000D01*
X79501D01*
X79834Y34334D01*
Y34667D01*
X79501Y35000D01*
X79834Y35333D01*
Y35666D01*
X79501Y35000D02*
X78834D01*
X102166Y33667D02*
X102499Y34000D01*
X103166D01*
X103499Y33667D01*
Y32334D01*
X103166Y32000D01*
X102499D01*
X102166Y32334D01*
X101500Y32000D02*
X100833D01*
X101167D01*
Y34000D01*
X101500Y33667D01*
X98501Y34000D02*
X99167Y33667D01*
X99834Y33000D01*
Y32334D01*
X99501Y32000D01*
X98834D01*
X98501Y32334D01*
Y32667D01*
X98834Y33000D01*
X99834D01*
X47333Y82666D02*
X47666Y83000D01*
X48333D01*
X48666Y82666D01*
Y81334D01*
X48333Y81000D01*
X47666D01*
X47333Y81334D01*
X46666Y82666D02*
X46333Y83000D01*
X45667D01*
X45334Y82666D01*
Y82333D01*
X45667Y82000D01*
X46000D01*
X45667D01*
X45334Y81667D01*
Y81334D01*
X45667Y81000D01*
X46333D01*
X46666Y81334D01*
X44667D02*
X44334Y81000D01*
X43667D01*
X43334Y81334D01*
Y82666D01*
X43667Y83000D01*
X44334D01*
X44667Y82666D01*
Y82333D01*
X44334Y82000D01*
X43334D01*
X42333Y71667D02*
X42666Y72000D01*
X43333D01*
X43666Y71667D01*
Y70334D01*
X43333Y70000D01*
X42666D01*
X42333Y70334D01*
X41666Y71667D02*
X41333Y72000D01*
X40667D01*
X40334Y71667D01*
Y71333D01*
X40667Y71000D01*
X41000D01*
X40667D01*
X40334Y70667D01*
Y70334D01*
X40667Y70000D01*
X41333D01*
X41666Y70334D01*
X39667Y71667D02*
X39334Y72000D01*
X38667D01*
X38334Y71667D01*
Y71333D01*
X38667Y71000D01*
X38334Y70667D01*
Y70334D01*
X38667Y70000D01*
X39334D01*
X39667Y70334D01*
Y70667D01*
X39334Y71000D01*
X39667Y71333D01*
Y71667D01*
X39334Y71000D02*
X38667D01*
X16333Y71667D02*
X16666Y72000D01*
X17333D01*
X17666Y71667D01*
Y70334D01*
X17333Y70000D01*
X16666D01*
X16333Y70334D01*
X15666Y71667D02*
X15333Y72000D01*
X14667D01*
X14333Y71667D01*
Y71333D01*
X14667Y71000D01*
X15000D01*
X14667D01*
X14333Y70667D01*
Y70334D01*
X14667Y70000D01*
X15333D01*
X15666Y70334D01*
X13667Y72000D02*
X12334D01*
Y71667D01*
X13667Y70334D01*
Y70000D01*
X73666Y7000D02*
Y5334D01*
X73333Y5000D01*
X72666D01*
X72333Y5334D01*
Y7000D01*
X71667Y6667D02*
X71333Y7000D01*
X70667D01*
X70334Y6667D01*
Y6333D01*
X70667Y6000D01*
X71000D01*
X70667D01*
X70334Y5667D01*
Y5334D01*
X70667Y5000D01*
X71333D01*
X71667Y5334D01*
X34666Y11063D02*
Y9063D01*
X33333D01*
X31334D02*
X32667D01*
X31334Y10396D01*
Y10729D01*
X31667Y11063D01*
X32333D01*
X32667Y10729D01*
X44333Y15063D02*
Y13063D01*
X43000D01*
X42334D02*
X41667D01*
X42000D01*
Y15063D01*
X42334Y14729D01*
X62166Y6667D02*
X62499Y7000D01*
X63166D01*
X63499Y6667D01*
Y5334D01*
X63166Y5000D01*
X62499D01*
X62166Y5334D01*
X61500Y5000D02*
X60833D01*
X61167D01*
Y7000D01*
X61500Y6667D01*
X59834D02*
X59500Y7000D01*
X58834D01*
X58501Y6667D01*
Y5334D01*
X58834Y5000D01*
X59500D01*
X59834Y5334D01*
Y6667D01*
X64333Y18666D02*
X64666Y19000D01*
X65333D01*
X65666Y18666D01*
Y17334D01*
X65333Y17000D01*
X64666D01*
X64333Y17334D01*
X63667D02*
X63333Y17000D01*
X62667D01*
X62334Y17334D01*
Y18666D01*
X62667Y19000D01*
X63333D01*
X63667Y18666D01*
Y18333D01*
X63333Y18000D01*
X62334D01*
X51333Y8730D02*
X51666Y9063D01*
X52333D01*
X52666Y8730D01*
Y7397D01*
X52333Y7063D01*
X51666D01*
X51333Y7397D01*
X50667Y8730D02*
X50333Y9063D01*
X49667D01*
X49334Y8730D01*
Y8396D01*
X49667Y8063D01*
X49334Y7730D01*
Y7397D01*
X49667Y7063D01*
X50333D01*
X50667Y7397D01*
Y7730D01*
X50333Y8063D01*
X50667Y8396D01*
Y8730D01*
X50333Y8063D02*
X49667D01*
D80*
X39500Y8063D02*
Y10063D01*
X36500Y8063D02*
Y10063D01*
M02*
