G04*
G04 #@! TF.GenerationSoftware,Altium Limited,Altium Designer,20.1.14 (287)*
G04*
G04 Layer_Color=8421504*
%FSLAX25Y25*%
%MOIN*%
G70*
G04*
G04 #@! TF.SameCoordinates,32D4A6E9-0C54-4149-BE24-DE0316A2B815*
G04*
G04*
G04 #@! TF.FilePolarity,Positive*
G04*
G01*
G75*
%ADD14C,0.01000*%
%ADD21R,0.02756X0.00984*%
%ADD22R,0.03610X0.05228*%
%ADD23R,0.03071X0.01169*%
%ADD24R,0.05906X0.07480*%
%ADD25R,0.02362X0.02362*%
%ADD26R,0.02362X0.02362*%
%ADD27R,0.01968X0.02756*%
G04:AMPARAMS|DCode=28|XSize=9.45mil|YSize=23.62mil|CornerRadius=1.98mil|HoleSize=0mil|Usage=FLASHONLY|Rotation=180.000|XOffset=0mil|YOffset=0mil|HoleType=Round|Shape=RoundedRectangle|*
%AMROUNDEDRECTD28*
21,1,0.00945,0.01965,0,0,180.0*
21,1,0.00548,0.02362,0,0,180.0*
1,1,0.00397,-0.00274,0.00983*
1,1,0.00397,0.00274,0.00983*
1,1,0.00397,0.00274,-0.00983*
1,1,0.00397,-0.00274,-0.00983*
%
%ADD28ROUNDEDRECTD28*%
G04:AMPARAMS|DCode=29|XSize=9.45mil|YSize=23.62mil|CornerRadius=1.98mil|HoleSize=0mil|Usage=FLASHONLY|Rotation=270.000|XOffset=0mil|YOffset=0mil|HoleType=Round|Shape=RoundedRectangle|*
%AMROUNDEDRECTD29*
21,1,0.00945,0.01965,0,0,270.0*
21,1,0.00548,0.02362,0,0,270.0*
1,1,0.00397,-0.00983,-0.00274*
1,1,0.00397,-0.00983,0.00274*
1,1,0.00397,0.00983,0.00274*
1,1,0.00397,0.00983,-0.00274*
%
%ADD29ROUNDEDRECTD29*%
%ADD30R,0.01968X0.02362*%
%ADD31R,0.02362X0.01968*%
%ADD32R,0.02953X0.03347*%
G04:AMPARAMS|DCode=33|XSize=17.72mil|YSize=61.02mil|CornerRadius=1.95mil|HoleSize=0mil|Usage=FLASHONLY|Rotation=180.000|XOffset=0mil|YOffset=0mil|HoleType=Round|Shape=RoundedRectangle|*
%AMROUNDEDRECTD33*
21,1,0.01772,0.05713,0,0,180.0*
21,1,0.01382,0.06102,0,0,180.0*
1,1,0.00390,-0.00691,0.02856*
1,1,0.00390,0.00691,0.02856*
1,1,0.00390,0.00691,-0.02856*
1,1,0.00390,-0.00691,-0.02856*
%
%ADD33ROUNDEDRECTD33*%
%ADD34R,0.04331X0.02362*%
%ADD35R,0.02756X0.05118*%
%ADD36O,0.01378X0.07284*%
G04:AMPARAMS|DCode=37|XSize=23.62mil|YSize=39.37mil|CornerRadius=2.01mil|HoleSize=0mil|Usage=FLASHONLY|Rotation=180.000|XOffset=0mil|YOffset=0mil|HoleType=Round|Shape=RoundedRectangle|*
%AMROUNDEDRECTD37*
21,1,0.02362,0.03535,0,0,180.0*
21,1,0.01961,0.03937,0,0,180.0*
1,1,0.00402,-0.00980,0.01768*
1,1,0.00402,0.00980,0.01768*
1,1,0.00402,0.00980,-0.01768*
1,1,0.00402,-0.00980,-0.01768*
%
%ADD37ROUNDEDRECTD37*%
%ADD38C,0.00906*%
G04:AMPARAMS|DCode=39|XSize=51.18mil|YSize=23.62mil|CornerRadius=2.01mil|HoleSize=0mil|Usage=FLASHONLY|Rotation=90.000|XOffset=0mil|YOffset=0mil|HoleType=Round|Shape=RoundedRectangle|*
%AMROUNDEDRECTD39*
21,1,0.05118,0.01961,0,0,90.0*
21,1,0.04717,0.02362,0,0,90.0*
1,1,0.00402,0.00980,0.02358*
1,1,0.00402,0.00980,-0.02358*
1,1,0.00402,-0.00980,-0.02358*
1,1,0.00402,-0.00980,0.02358*
%
%ADD39ROUNDEDRECTD39*%
G04:AMPARAMS|DCode=40|XSize=25.59mil|YSize=47.24mil|CornerRadius=1.92mil|HoleSize=0mil|Usage=FLASHONLY|Rotation=90.000|XOffset=0mil|YOffset=0mil|HoleType=Round|Shape=RoundedRectangle|*
%AMROUNDEDRECTD40*
21,1,0.02559,0.04341,0,0,90.0*
21,1,0.02175,0.04724,0,0,90.0*
1,1,0.00384,0.02170,0.01088*
1,1,0.00384,0.02170,-0.01088*
1,1,0.00384,-0.02170,-0.01088*
1,1,0.00384,-0.02170,0.01088*
%
%ADD40ROUNDEDRECTD40*%
G04:AMPARAMS|DCode=41|XSize=17.72mil|YSize=11.81mil|CornerRadius=1.95mil|HoleSize=0mil|Usage=FLASHONLY|Rotation=90.000|XOffset=0mil|YOffset=0mil|HoleType=Round|Shape=RoundedRectangle|*
%AMROUNDEDRECTD41*
21,1,0.01772,0.00791,0,0,90.0*
21,1,0.01382,0.01181,0,0,90.0*
1,1,0.00390,0.00396,0.00691*
1,1,0.00390,0.00396,-0.00691*
1,1,0.00390,-0.00396,-0.00691*
1,1,0.00390,-0.00396,0.00691*
%
%ADD41ROUNDEDRECTD41*%
%ADD42C,0.01417*%
%ADD43C,0.03098*%
%ADD44O,0.03740X0.00787*%
%ADD45O,0.00787X0.03740*%
%ADD46R,0.18110X0.18110*%
%ADD47R,0.05906X0.02913*%
%ADD48R,0.04000X0.02500*%
%ADD49R,0.02362X0.02756*%
G36*
X95410Y16610D02*
Y16649D01*
X95439Y16722D01*
X95495Y16777D01*
X95567Y16807D01*
X95606D01*
D01*
X97969D01*
X98008D01*
X98080Y16777D01*
X98135Y16722D01*
X98165Y16649D01*
Y16610D01*
D01*
Y13067D01*
Y13028D01*
X98135Y12955D01*
X98080Y12900D01*
X98008Y12870D01*
X97969D01*
D01*
X95606D01*
X95567D01*
X95495Y12900D01*
X95439Y12955D01*
X95410Y13028D01*
Y13067D01*
D01*
Y16610D01*
D02*
G37*
G36*
X99150Y12870D02*
X99111D01*
X99038Y12900D01*
X98983Y12955D01*
X98953Y13028D01*
Y13067D01*
D01*
Y16610D01*
Y16649D01*
X98983Y16722D01*
X99038Y16777D01*
X99111Y16807D01*
X99150D01*
D01*
X101512D01*
X101551D01*
X101623Y16777D01*
X101679Y16722D01*
X101709Y16649D01*
Y16610D01*
D01*
Y13067D01*
Y13028D01*
X101679Y12955D01*
X101623Y12900D01*
X101551Y12870D01*
X101512D01*
D01*
X99150D01*
D02*
G37*
D14*
X0Y0D02*
X231000D01*
X231000Y148000D02*
X231000Y0D01*
X0Y148000D02*
X231000D01*
X0Y0D02*
Y148000D01*
D21*
X186386Y124937D02*
D03*
Y122968D02*
D03*
Y121000D02*
D03*
Y119032D02*
D03*
Y117063D02*
D03*
X198590Y124937D02*
D03*
Y122968D02*
D03*
Y121000D02*
D03*
Y119032D02*
D03*
Y117063D02*
D03*
D22*
X63702Y106103D02*
D03*
X59305D02*
D03*
Y112119D02*
D03*
X63702D02*
D03*
D23*
X61504Y116105D02*
D03*
Y102117D02*
D03*
D24*
X192488Y121000D02*
D03*
D25*
X35000Y103000D02*
D03*
X38937D02*
D03*
X35032Y113000D02*
D03*
X38969D02*
D03*
X40000Y108000D02*
D03*
X43937D02*
D03*
X59874Y126000D02*
D03*
X55937D02*
D03*
X59874Y132000D02*
D03*
X55937D02*
D03*
X64000Y126000D02*
D03*
X67937D02*
D03*
X63968Y132000D02*
D03*
X67905D02*
D03*
X63937Y138000D02*
D03*
X67874D02*
D03*
X105937Y69000D02*
D03*
X102000D02*
D03*
X105937Y65000D02*
D03*
X102000D02*
D03*
X159063Y53000D02*
D03*
X163000D02*
D03*
X159063Y57000D02*
D03*
X163000D02*
D03*
Y13000D02*
D03*
X159063D02*
D03*
X171000D02*
D03*
X167063D02*
D03*
X176827Y77000D02*
D03*
X180764D02*
D03*
X176827Y81000D02*
D03*
X180764D02*
D03*
X86000Y72000D02*
D03*
X89937D02*
D03*
Y76000D02*
D03*
X86000D02*
D03*
X187000Y135000D02*
D03*
X190937D02*
D03*
X187000Y131000D02*
D03*
X190937D02*
D03*
X114937Y16000D02*
D03*
X111000D02*
D03*
Y11000D02*
D03*
X114937D02*
D03*
X98937Y27000D02*
D03*
X95000D02*
D03*
X44937Y21937D02*
D03*
X41000D02*
D03*
X40063Y6937D02*
D03*
X44000D02*
D03*
X23000Y40000D02*
D03*
X26937D02*
D03*
D26*
X43000Y122937D02*
D03*
Y119000D02*
D03*
X48000Y122937D02*
D03*
Y119000D02*
D03*
Y135937D02*
D03*
Y132000D02*
D03*
X42000Y135937D02*
D03*
Y132000D02*
D03*
X77000Y124000D02*
D03*
Y120063D02*
D03*
X83000Y123937D02*
D03*
Y120000D02*
D03*
X89000Y123937D02*
D03*
Y120000D02*
D03*
X171000Y20937D02*
D03*
Y17000D02*
D03*
X139000Y52937D02*
D03*
Y49000D02*
D03*
Y30937D02*
D03*
Y27000D02*
D03*
X113000Y27063D02*
D03*
Y31000D02*
D03*
X117000Y27063D02*
D03*
Y31000D02*
D03*
X53000Y82937D02*
D03*
Y79000D02*
D03*
X63260Y74268D02*
D03*
Y78205D02*
D03*
X67260D02*
D03*
Y74268D02*
D03*
X49000Y79000D02*
D03*
Y75063D02*
D03*
X45000D02*
D03*
Y79000D02*
D03*
X41000Y75063D02*
D03*
Y79000D02*
D03*
X27000Y90937D02*
D03*
Y87000D02*
D03*
X23000D02*
D03*
Y90937D02*
D03*
X33000Y25000D02*
D03*
Y28937D02*
D03*
X70000Y10000D02*
D03*
Y6063D02*
D03*
X74000D02*
D03*
Y10000D02*
D03*
X105000Y35386D02*
D03*
Y39323D02*
D03*
Y31386D02*
D03*
Y27449D02*
D03*
X37000Y23031D02*
D03*
Y26969D02*
D03*
X8000Y35032D02*
D03*
Y38969D02*
D03*
X13000Y41000D02*
D03*
Y44937D02*
D03*
X18000Y35032D02*
D03*
Y38969D02*
D03*
D27*
X56260Y96000D02*
D03*
X60000D02*
D03*
X51260Y62000D02*
D03*
X55000D02*
D03*
X51228Y67000D02*
D03*
X54969D02*
D03*
D28*
X58551Y117575D02*
D03*
X64457D02*
D03*
Y100646D02*
D03*
X58551D02*
D03*
D29*
X68000Y116000D02*
D03*
Y114032D02*
D03*
Y112063D02*
D03*
Y110095D02*
D03*
Y108126D02*
D03*
Y106158D02*
D03*
Y104189D02*
D03*
Y102221D02*
D03*
X55008D02*
D03*
Y104189D02*
D03*
Y106158D02*
D03*
Y108126D02*
D03*
Y110095D02*
D03*
Y112063D02*
D03*
Y114032D02*
D03*
Y116000D02*
D03*
D30*
X64000Y96000D02*
D03*
X67937D02*
D03*
X76000Y97000D02*
D03*
X79937D02*
D03*
X166937Y5000D02*
D03*
X163000D02*
D03*
X159000D02*
D03*
X155063D02*
D03*
X130032Y67000D02*
D03*
X133968D02*
D03*
X159063Y9000D02*
D03*
X163000D02*
D03*
X25649Y102091D02*
D03*
X21712D02*
D03*
X89969Y52000D02*
D03*
X86032D02*
D03*
X129969Y18000D02*
D03*
X126031D02*
D03*
X140000D02*
D03*
X136063D02*
D03*
X40000Y62000D02*
D03*
X43937D02*
D03*
X101000Y7000D02*
D03*
X104937D02*
D03*
X40000Y67000D02*
D03*
X43937D02*
D03*
D31*
X79000Y104969D02*
D03*
Y101031D02*
D03*
X84000Y101000D02*
D03*
Y97063D02*
D03*
X134000Y62000D02*
D03*
Y58063D02*
D03*
X175000Y20937D02*
D03*
Y17000D02*
D03*
X139000Y41000D02*
D03*
Y44937D02*
D03*
X143000D02*
D03*
Y41000D02*
D03*
Y31000D02*
D03*
Y27063D02*
D03*
Y38000D02*
D03*
Y34063D02*
D03*
X29712Y104154D02*
D03*
Y108091D02*
D03*
X17712Y104154D02*
D03*
Y108091D02*
D03*
X23000Y79063D02*
D03*
Y83000D02*
D03*
X199000Y37000D02*
D03*
Y33063D02*
D03*
Y23000D02*
D03*
Y26937D02*
D03*
Y65000D02*
D03*
Y61063D02*
D03*
Y93000D02*
D03*
Y89063D02*
D03*
Y79000D02*
D03*
Y82937D02*
D03*
Y51000D02*
D03*
Y54937D02*
D03*
Y9031D02*
D03*
Y12968D02*
D03*
D32*
X78000Y136000D02*
D03*
X82921D02*
D03*
X78000Y142000D02*
D03*
X82921D02*
D03*
X78000Y130000D02*
D03*
X82921D02*
D03*
D33*
X155441Y22693D02*
D03*
X158000D02*
D03*
X160559D02*
D03*
X163118D02*
D03*
X155441Y41000D02*
D03*
X158000D02*
D03*
X160559D02*
D03*
X163118D02*
D03*
D34*
X119551Y54520D02*
D03*
Y62000D02*
D03*
X129000D02*
D03*
Y58260D02*
D03*
Y54520D02*
D03*
X122276Y27260D02*
D03*
Y31000D02*
D03*
Y34740D02*
D03*
X131724D02*
D03*
Y31000D02*
D03*
Y27260D02*
D03*
D35*
X109480Y59000D02*
D03*
X105740D02*
D03*
X102000D02*
D03*
Y49551D02*
D03*
X105740D02*
D03*
X109480D02*
D03*
D36*
X173087Y46000D02*
D03*
X175646D02*
D03*
X178205D02*
D03*
X180764D02*
D03*
X183323D02*
D03*
X185882D02*
D03*
X188441D02*
D03*
X191000D02*
D03*
X173087Y69032D02*
D03*
X175646D02*
D03*
X178205D02*
D03*
X180764D02*
D03*
X183323D02*
D03*
X185882D02*
D03*
X188441D02*
D03*
X191000D02*
D03*
D37*
X86260Y56587D02*
D03*
X90000D02*
D03*
X93740D02*
D03*
Y67413D02*
D03*
X86260D02*
D03*
D38*
X23058Y106942D02*
D03*
X24712D02*
D03*
Y108516D02*
D03*
X23058D02*
D03*
X24712Y110091D02*
D03*
X23058D02*
D03*
D39*
X72520Y74000D02*
D03*
X80000D02*
D03*
X76260Y82268D02*
D03*
D40*
X18000Y90480D02*
D03*
Y86740D02*
D03*
Y83000D02*
D03*
X6386D02*
D03*
Y86740D02*
D03*
Y90480D02*
D03*
D41*
X96000Y11000D02*
D03*
X98559D02*
D03*
X101118D02*
D03*
Y18677D02*
D03*
X98559D02*
D03*
X96000D02*
D03*
D42*
X31000Y87000D02*
D03*
X32969D02*
D03*
X31000Y85031D02*
D03*
X32969D02*
D03*
D43*
X22000Y67000D02*
D03*
Y62000D02*
D03*
X17000Y67000D02*
D03*
Y62000D02*
D03*
X12000Y67000D02*
D03*
Y62000D02*
D03*
D44*
X58000Y37150D02*
D03*
Y35575D02*
D03*
Y34000D02*
D03*
Y32425D02*
D03*
Y45024D02*
D03*
Y43449D02*
D03*
Y41874D02*
D03*
Y40299D02*
D03*
Y48173D02*
D03*
X81228Y32425D02*
D03*
Y34000D02*
D03*
Y35575D02*
D03*
Y37150D02*
D03*
Y40299D02*
D03*
Y41874D02*
D03*
Y43449D02*
D03*
Y45024D02*
D03*
Y48173D02*
D03*
X58000Y30850D02*
D03*
Y46598D02*
D03*
Y38724D02*
D03*
X81228Y30850D02*
D03*
Y38724D02*
D03*
Y46598D02*
D03*
D45*
X62528Y27898D02*
D03*
X64102D02*
D03*
X65677D02*
D03*
X67252D02*
D03*
Y51126D02*
D03*
X65677D02*
D03*
X64102D02*
D03*
X62528D02*
D03*
X70402Y27898D02*
D03*
X71976D02*
D03*
X73551D02*
D03*
X75126D02*
D03*
Y51126D02*
D03*
X73551D02*
D03*
X71976D02*
D03*
X70402D02*
D03*
X78276Y27898D02*
D03*
Y51126D02*
D03*
X60953Y27898D02*
D03*
Y51126D02*
D03*
X68827Y27898D02*
D03*
X76701D02*
D03*
Y51126D02*
D03*
X68827D02*
D03*
D46*
X69614Y39512D02*
D03*
D47*
X8000Y7590D02*
D03*
Y21000D02*
D03*
D48*
X80000Y12000D02*
D03*
Y6000D02*
D03*
D49*
X44150Y13000D02*
D03*
Y16937D02*
D03*
X41000D02*
D03*
Y13000D02*
D03*
M02*
