G04*
G04 #@! TF.GenerationSoftware,Altium Limited,Altium Designer,20.1.14 (287)*
G04*
G04 Layer_Color=16711935*
%FSLAX25Y25*%
%MOIN*%
G70*
G04*
G04 #@! TF.SameCoordinates,32D4A6E9-0C54-4149-BE24-DE0316A2B815*
G04*
G04*
G04 #@! TF.FilePolarity,Negative*
G04*
G01*
G75*
%ADD14C,0.01000*%
%ADD76C,0.08674*%
%ADD77C,0.08300*%
%ADD78C,0.03300*%
D14*
X231000D01*
X231000Y148000D02*
X231000Y0D01*
X0Y148000D02*
X231000D01*
X0Y0D02*
Y148000D01*
D76*
X8000Y131000D02*
D03*
Y140449D02*
D03*
D77*
X122000Y78000D02*
D03*
X112000D02*
D03*
X9000Y106000D02*
D03*
Y116000D02*
D03*
X212000Y9000D02*
D03*
X222000D02*
D03*
X212000Y65000D02*
D03*
X222000D02*
D03*
X212000Y79000D02*
D03*
X222000D02*
D03*
X212000Y93000D02*
D03*
X222000D02*
D03*
X212000Y51000D02*
D03*
X222000D02*
D03*
X212000Y37000D02*
D03*
X222000D02*
D03*
Y23000D02*
D03*
X212000D02*
D03*
X140000Y9000D02*
D03*
X130000D02*
D03*
X222000Y135000D02*
D03*
X212000D02*
D03*
X222000Y121000D02*
D03*
X212000D02*
D03*
X222000Y107000D02*
D03*
X212000D02*
D03*
D78*
X192488Y121000D02*
D03*
X17000Y78000D02*
D03*
X22000Y94000D02*
D03*
X64000Y13625D02*
D03*
X36000Y136000D02*
D03*
X94000Y144000D02*
D03*
X7000Y77000D02*
D03*
X48000Y71000D02*
D03*
X25000Y128000D02*
D03*
X35000Y129000D02*
D03*
X28000Y137000D02*
D03*
X59000Y139000D02*
D03*
X88000Y108000D02*
D03*
X175000Y134000D02*
D03*
X187000Y142000D02*
D03*
X200000Y138000D02*
D03*
X169000Y91000D02*
D03*
X197000Y98000D02*
D03*
X181000Y29000D02*
D03*
X185000Y8000D02*
D03*
X149000Y15000D02*
D03*
X87000Y6000D02*
D03*
X115000D02*
D03*
X98000Y65000D02*
D03*
X82000Y53000D02*
D03*
X96000Y49000D02*
D03*
X90000Y40000D02*
D03*
X88000Y27000D02*
D03*
X65000Y8000D02*
D03*
X35000Y13000D02*
D03*
X53000Y5000D02*
D03*
X54000Y18000D02*
D03*
X49000Y29000D02*
D03*
X18000Y5000D02*
D03*
Y11000D02*
D03*
Y18000D02*
D03*
Y24000D02*
D03*
X22000Y31000D02*
D03*
X25000Y35000D02*
D03*
X29000D02*
D03*
X34000D02*
D03*
X4000Y45000D02*
D03*
X9000Y49000D02*
D03*
X16000D02*
D03*
X19000Y46000D02*
D03*
X29000D02*
D03*
X37000D02*
D03*
X47000Y47000D02*
D03*
X70000Y58000D02*
D03*
X77000Y68000D02*
D03*
X90000Y95000D02*
D03*
X97000Y87000D02*
D03*
X62000Y92000D02*
D03*
X43000Y98000D02*
D03*
X35016Y108000D02*
D03*
X57441Y121441D02*
D03*
X146000Y22000D02*
D03*
X72000Y142000D02*
D03*
X190000Y86000D02*
D03*
X191000Y102000D02*
D03*
Y108000D02*
D03*
X21000Y122000D02*
D03*
X28000Y119000D02*
D03*
X61504Y114130D02*
D03*
Y104091D02*
D03*
X59504Y109110D02*
D03*
X63504D02*
D03*
X38000Y119000D02*
D03*
X34000Y122000D02*
D03*
X46000Y112063D02*
D03*
X74000Y117000D02*
D03*
X132000Y40000D02*
D03*
X173000Y36000D02*
D03*
X178000Y33000D02*
D03*
X180000Y21000D02*
D03*
X177000Y5000D02*
D03*
X102000Y73000D02*
D03*
X120000Y50000D02*
D03*
Y67000D02*
D03*
X121000Y40000D02*
D03*
X83000Y84000D02*
D03*
X65000Y83000D02*
D03*
X31000Y94000D02*
D03*
X86000Y80000D02*
D03*
X53000Y89000D02*
D03*
X59000Y74000D02*
D03*
X37000Y62000D02*
D03*
X53000Y58000D02*
D03*
X12000Y54000D02*
D03*
X46000D02*
D03*
X17000D02*
D03*
X29000Y74000D02*
D03*
X199000Y18000D02*
D03*
Y30000D02*
D03*
Y58000D02*
D03*
Y86000D02*
D03*
X195000Y46000D02*
D03*
X107000Y19000D02*
D03*
X89000Y11000D02*
D03*
Y19000D02*
D03*
X98559Y14839D02*
D03*
X58000Y22000D02*
D03*
X84000D02*
D03*
X69614Y39512D02*
D03*
X74614D02*
D03*
Y33512D02*
D03*
X69614D02*
D03*
X64614D02*
D03*
Y39512D02*
D03*
X69614Y45512D02*
D03*
X74614D02*
D03*
X64614D02*
D03*
X68827Y18850D02*
D03*
M02*
