G04*
G04 #@! TF.GenerationSoftware,Altium Limited,Altium Designer,20.1.14 (287)*
G04*
G04 Layer_Color=8388736*
%FSLAX25Y25*%
%MOIN*%
G70*
G04*
G04 #@! TF.SameCoordinates,32D4A6E9-0C54-4149-BE24-DE0316A2B815*
G04*
G04*
G04 #@! TF.FilePolarity,Negative*
G04*
G01*
G75*
%ADD14C,0.01000*%
G04:AMPARAMS|DCode=39|XSize=51.18mil|YSize=23.62mil|CornerRadius=2.01mil|HoleSize=0mil|Usage=FLASHONLY|Rotation=90.000|XOffset=0mil|YOffset=0mil|HoleType=Round|Shape=RoundedRectangle|*
%AMROUNDEDRECTD39*
21,1,0.05118,0.01961,0,0,90.0*
21,1,0.04717,0.02362,0,0,90.0*
1,1,0.00402,0.00980,0.02358*
1,1,0.00402,0.00980,-0.02358*
1,1,0.00402,-0.00980,-0.02358*
1,1,0.00402,-0.00980,0.02358*
%
%ADD39ROUNDEDRECTD39*%
G04:AMPARAMS|DCode=41|XSize=17.72mil|YSize=11.81mil|CornerRadius=1.95mil|HoleSize=0mil|Usage=FLASHONLY|Rotation=90.000|XOffset=0mil|YOffset=0mil|HoleType=Round|Shape=RoundedRectangle|*
%AMROUNDEDRECTD41*
21,1,0.01772,0.00791,0,0,90.0*
21,1,0.01382,0.01181,0,0,90.0*
1,1,0.00390,0.00396,0.00691*
1,1,0.00390,0.00396,-0.00691*
1,1,0.00390,-0.00396,-0.00691*
1,1,0.00390,-0.00396,0.00691*
%
%ADD41ROUNDEDRECTD41*%
%ADD42C,0.01417*%
%ADD43C,0.03098*%
%ADD50R,0.06699X0.08274*%
%ADD51R,0.02762X0.01384*%
%ADD52R,0.03162X0.03162*%
%ADD53R,0.03162X0.03162*%
%ADD54R,0.02769X0.03556*%
G04:AMPARAMS|DCode=55|XSize=11.81mil|YSize=11.81mil|CornerRadius=1.95mil|HoleSize=0mil|Usage=FLASHONLY|Rotation=270.000|XOffset=0mil|YOffset=0mil|HoleType=Round|Shape=RoundedRectangle|*
%AMROUNDEDRECTD55*
21,1,0.01181,0.00791,0,0,270.0*
21,1,0.00791,0.01181,0,0,270.0*
1,1,0.00390,-0.00396,-0.00396*
1,1,0.00390,-0.00396,0.00396*
1,1,0.00390,0.00396,0.00396*
1,1,0.00390,0.00396,-0.00396*
%
%ADD55ROUNDEDRECTD55*%
G04:AMPARAMS|DCode=56|XSize=17.45mil|YSize=31.62mil|CornerRadius=5.98mil|HoleSize=0mil|Usage=FLASHONLY|Rotation=180.000|XOffset=0mil|YOffset=0mil|HoleType=Round|Shape=RoundedRectangle|*
%AMROUNDEDRECTD56*
21,1,0.01745,0.01965,0,0,180.0*
21,1,0.00548,0.03162,0,0,180.0*
1,1,0.01197,-0.00274,0.00983*
1,1,0.01197,0.00274,0.00983*
1,1,0.01197,0.00274,-0.00983*
1,1,0.01197,-0.00274,-0.00983*
%
%ADD56ROUNDEDRECTD56*%
G04:AMPARAMS|DCode=57|XSize=17.45mil|YSize=31.62mil|CornerRadius=5.98mil|HoleSize=0mil|Usage=FLASHONLY|Rotation=270.000|XOffset=0mil|YOffset=0mil|HoleType=Round|Shape=RoundedRectangle|*
%AMROUNDEDRECTD57*
21,1,0.01745,0.01965,0,0,270.0*
21,1,0.00548,0.03162,0,0,270.0*
1,1,0.01197,-0.00983,-0.00274*
1,1,0.01197,-0.00983,0.00274*
1,1,0.01197,0.00983,0.00274*
1,1,0.01197,0.00983,-0.00274*
%
%ADD57ROUNDEDRECTD57*%
%ADD58R,0.02769X0.03162*%
%ADD59R,0.03162X0.02769*%
%ADD60R,0.03753X0.04147*%
G04:AMPARAMS|DCode=61|XSize=25.72mil|YSize=69.02mil|CornerRadius=5.95mil|HoleSize=0mil|Usage=FLASHONLY|Rotation=180.000|XOffset=0mil|YOffset=0mil|HoleType=Round|Shape=RoundedRectangle|*
%AMROUNDEDRECTD61*
21,1,0.02572,0.05713,0,0,180.0*
21,1,0.01382,0.06902,0,0,180.0*
1,1,0.01190,-0.00691,0.02856*
1,1,0.01190,0.00691,0.02856*
1,1,0.01190,0.00691,-0.02856*
1,1,0.01190,-0.00691,-0.02856*
%
%ADD61ROUNDEDRECTD61*%
%ADD62R,0.05131X0.03162*%
%ADD63R,0.03556X0.05918*%
%ADD64O,0.02178X0.08083*%
G04:AMPARAMS|DCode=65|XSize=31.62mil|YSize=47.37mil|CornerRadius=6.01mil|HoleSize=0mil|Usage=FLASHONLY|Rotation=180.000|XOffset=0mil|YOffset=0mil|HoleType=Round|Shape=RoundedRectangle|*
%AMROUNDEDRECTD65*
21,1,0.03162,0.03535,0,0,180.0*
21,1,0.01961,0.04737,0,0,180.0*
1,1,0.01202,-0.00980,0.01768*
1,1,0.01202,0.00980,0.01768*
1,1,0.01202,0.00980,-0.01768*
1,1,0.01202,-0.00980,-0.01768*
%
%ADD65ROUNDEDRECTD65*%
%ADD66C,0.01299*%
G04:AMPARAMS|DCode=67|XSize=33.59mil|YSize=55.24mil|CornerRadius=5.92mil|HoleSize=0mil|Usage=FLASHONLY|Rotation=90.000|XOffset=0mil|YOffset=0mil|HoleType=Round|Shape=RoundedRectangle|*
%AMROUNDEDRECTD67*
21,1,0.03359,0.04341,0,0,90.0*
21,1,0.02175,0.05524,0,0,90.0*
1,1,0.01184,0.02170,0.01088*
1,1,0.01184,0.02170,-0.01088*
1,1,0.01184,-0.02170,-0.01088*
1,1,0.01184,-0.02170,0.01088*
%
%ADD67ROUNDEDRECTD67*%
G04:AMPARAMS|DCode=68|XSize=39.37mil|YSize=62.99mil|CornerRadius=1.97mil|HoleSize=0mil|Usage=FLASHONLY|Rotation=90.000|XOffset=0mil|YOffset=0mil|HoleType=Round|Shape=RoundedRectangle|*
%AMROUNDEDRECTD68*
21,1,0.03937,0.05906,0,0,90.0*
21,1,0.03543,0.06299,0,0,90.0*
1,1,0.00394,0.02953,0.01772*
1,1,0.00394,0.02953,-0.01772*
1,1,0.00394,-0.02953,-0.01772*
1,1,0.00394,-0.02953,0.01772*
%
%ADD68ROUNDEDRECTD68*%
%ADD69O,0.04540X0.01587*%
%ADD70O,0.01587X0.04540*%
%ADD71R,0.18910X0.18910*%
%ADD72R,0.06142X0.03150*%
%ADD73R,0.04800X0.03300*%
%ADD74R,0.04961X0.02736*%
%ADD75R,0.02646X0.03039*%
%ADD76C,0.08674*%
%ADD77C,0.08300*%
%ADD78C,0.03300*%
G36*
X63092Y118367D02*
X63143Y118356D01*
X63193Y118340D01*
X63240Y118316D01*
X63283Y118287D01*
X63323Y118253D01*
X63357Y118213D01*
X63386Y118170D01*
X63410Y118122D01*
X63427Y118073D01*
X63437Y118021D01*
X63440Y117969D01*
X63440Y115515D01*
X65539D01*
X65592Y115512D01*
X65643Y115502D01*
X65693Y115485D01*
X65740Y115462D01*
X65783Y115433D01*
X65823Y115398D01*
X65857Y115358D01*
X65886Y115315D01*
X65910Y115268D01*
X65927Y115218D01*
X65937Y115167D01*
X65940Y115114D01*
Y103107D01*
X65937Y103054D01*
X65927Y103003D01*
X65910Y102953D01*
X65886Y102906D01*
X65857Y102863D01*
X65823Y102823D01*
X65783Y102789D01*
X65740Y102759D01*
X65693Y102736D01*
X65643Y102719D01*
X65592Y102709D01*
X65539Y102706D01*
X63440D01*
X63440Y100253D01*
X63437Y100200D01*
X63427Y100149D01*
X63410Y100099D01*
X63386Y100052D01*
X63357Y100008D01*
X63323Y99969D01*
X63283Y99935D01*
X63240Y99905D01*
X63193Y99882D01*
X63143Y99865D01*
X63092Y99855D01*
X63039Y99852D01*
X62134D01*
X62081Y99855D01*
X62030Y99865D01*
X61980Y99882D01*
X61933Y99905D01*
X61890Y99935D01*
X61850Y99969D01*
X61816Y100008D01*
X61787Y100052D01*
X61764Y100099D01*
X61747Y100149D01*
X61736Y100200D01*
X61733Y100253D01*
X61733Y101131D01*
X61275D01*
X61275Y100253D01*
X61271Y100200D01*
X61261Y100149D01*
X61244Y100099D01*
X61221Y100052D01*
X61192Y100009D01*
X61158Y99969D01*
X61118Y99935D01*
X61074Y99905D01*
X61027Y99882D01*
X60978Y99865D01*
X60926Y99855D01*
X60874Y99852D01*
X59969D01*
X59916Y99855D01*
X59865Y99865D01*
X59815Y99882D01*
X59768Y99905D01*
X59724Y99935D01*
X59685Y99969D01*
X59650Y100009D01*
X59621Y100052D01*
X59598Y100099D01*
X59581Y100149D01*
X59571Y100200D01*
X59568Y100253D01*
X59568Y102706D01*
X57468D01*
X57416Y102709D01*
X57365Y102719D01*
X57315Y102736D01*
X57268Y102759D01*
X57225Y102789D01*
X57185Y102823D01*
X57151Y102863D01*
X57121Y102906D01*
X57098Y102953D01*
X57081Y103003D01*
X57071Y103054D01*
X57068Y103107D01*
Y115114D01*
X57071Y115167D01*
X57081Y115218D01*
X57098Y115268D01*
X57121Y115315D01*
X57151Y115358D01*
X57185Y115398D01*
X57225Y115433D01*
X57268Y115462D01*
X57315Y115485D01*
X57365Y115502D01*
X57416Y115512D01*
X57468Y115515D01*
X59568D01*
X59568Y117969D01*
X59571Y118021D01*
X59581Y118073D01*
X59598Y118122D01*
X59621Y118169D01*
X59650Y118213D01*
X59685Y118253D01*
X59724Y118287D01*
X59768Y118316D01*
X59815Y118340D01*
X59865Y118356D01*
X59916Y118367D01*
X59969Y118370D01*
X60874D01*
X60926Y118367D01*
X60978Y118356D01*
X61027Y118340D01*
X61074Y118316D01*
X61118Y118287D01*
X61158Y118253D01*
X61192Y118213D01*
X61221Y118169D01*
X61244Y118122D01*
X61261Y118073D01*
X61271Y118021D01*
X61275Y117969D01*
X61275Y117090D01*
X61733D01*
X61733Y117969D01*
X61736Y118021D01*
X61747Y118073D01*
X61764Y118122D01*
X61787Y118170D01*
X61816Y118213D01*
X61850Y118253D01*
X61890Y118287D01*
X61933Y118316D01*
X61980Y118340D01*
X62030Y118356D01*
X62081Y118367D01*
X62134Y118370D01*
X63039D01*
X63092Y118367D01*
D02*
G37*
D14*
X0Y0D02*
X231000D01*
X231000Y148000D02*
X231000Y0D01*
X0Y148000D02*
X231000D01*
X0Y0D02*
Y148000D01*
D39*
X72520Y74000D02*
D03*
X80000D02*
D03*
X76260Y82268D02*
D03*
D41*
X96000Y11000D02*
D03*
X98559D02*
D03*
X101118D02*
D03*
Y18677D02*
D03*
X98559D02*
D03*
X96000D02*
D03*
D42*
X31000Y87000D02*
D03*
X32969D02*
D03*
X31000Y85031D02*
D03*
X32969D02*
D03*
D43*
X22000Y67000D02*
D03*
Y62000D02*
D03*
X17000Y67000D02*
D03*
Y62000D02*
D03*
X12000Y67000D02*
D03*
Y62000D02*
D03*
D50*
X192488Y121000D02*
D03*
D51*
X186976Y117063D02*
D03*
Y119032D02*
D03*
Y121000D02*
D03*
Y122968D02*
D03*
Y124937D02*
D03*
X198000D02*
D03*
Y122968D02*
D03*
Y121000D02*
D03*
Y119032D02*
D03*
Y117063D02*
D03*
D52*
X35000Y103000D02*
D03*
X38937D02*
D03*
X35032Y113000D02*
D03*
X38969D02*
D03*
X40000Y108000D02*
D03*
X43937D02*
D03*
X59874Y126000D02*
D03*
X55937D02*
D03*
X59874Y132000D02*
D03*
X55937D02*
D03*
X64000Y126000D02*
D03*
X67937D02*
D03*
X63968Y132000D02*
D03*
X67905D02*
D03*
X63937Y138000D02*
D03*
X67874D02*
D03*
X105937Y69000D02*
D03*
X102000D02*
D03*
X105937Y65000D02*
D03*
X102000D02*
D03*
X159063Y53000D02*
D03*
X163000D02*
D03*
X159063Y57000D02*
D03*
X163000D02*
D03*
Y13000D02*
D03*
X159063D02*
D03*
X171000D02*
D03*
X167063D02*
D03*
X176827Y77000D02*
D03*
X180764D02*
D03*
X176827Y81000D02*
D03*
X180764D02*
D03*
X86000Y72000D02*
D03*
X89937D02*
D03*
Y76000D02*
D03*
X86000D02*
D03*
X187000Y135000D02*
D03*
X190937D02*
D03*
X187000Y131000D02*
D03*
X190937D02*
D03*
X114937Y16000D02*
D03*
X111000D02*
D03*
Y11000D02*
D03*
X114937D02*
D03*
X98937Y27000D02*
D03*
X95000D02*
D03*
X44937Y21937D02*
D03*
X41000D02*
D03*
X40063Y6937D02*
D03*
X44000D02*
D03*
X23000Y40000D02*
D03*
X26937D02*
D03*
D53*
X43000Y122937D02*
D03*
Y119000D02*
D03*
X48000Y122937D02*
D03*
Y119000D02*
D03*
Y135937D02*
D03*
Y132000D02*
D03*
X42000Y135937D02*
D03*
Y132000D02*
D03*
X77000Y124000D02*
D03*
Y120063D02*
D03*
X83000Y123937D02*
D03*
Y120000D02*
D03*
X89000Y123937D02*
D03*
Y120000D02*
D03*
X171000Y20937D02*
D03*
Y17000D02*
D03*
X139000Y52937D02*
D03*
Y49000D02*
D03*
Y30937D02*
D03*
Y27000D02*
D03*
X113000Y27063D02*
D03*
Y31000D02*
D03*
X117000Y27063D02*
D03*
Y31000D02*
D03*
X53000Y82937D02*
D03*
Y79000D02*
D03*
X63260Y74268D02*
D03*
Y78205D02*
D03*
X67260D02*
D03*
Y74268D02*
D03*
X49000Y79000D02*
D03*
Y75063D02*
D03*
X45000D02*
D03*
Y79000D02*
D03*
X41000Y75063D02*
D03*
Y79000D02*
D03*
X27000Y90937D02*
D03*
Y87000D02*
D03*
X23000D02*
D03*
Y90937D02*
D03*
X33000Y25000D02*
D03*
Y28937D02*
D03*
X70000Y10000D02*
D03*
Y6063D02*
D03*
X74000D02*
D03*
Y10000D02*
D03*
X105000Y35386D02*
D03*
Y39323D02*
D03*
Y31386D02*
D03*
Y27449D02*
D03*
X37000Y23031D02*
D03*
Y26969D02*
D03*
X8000Y35032D02*
D03*
Y38969D02*
D03*
X13000Y41000D02*
D03*
Y44937D02*
D03*
X18000Y35032D02*
D03*
Y38969D02*
D03*
D54*
X56260Y96000D02*
D03*
X60000D02*
D03*
X51260Y62000D02*
D03*
X55000D02*
D03*
X51228Y67000D02*
D03*
X54969D02*
D03*
D55*
X61504Y109110D02*
D03*
D56*
X58551Y117575D02*
D03*
X64457D02*
D03*
Y100646D02*
D03*
X58551D02*
D03*
D57*
X68000Y116000D02*
D03*
Y114032D02*
D03*
Y112063D02*
D03*
Y110095D02*
D03*
Y108126D02*
D03*
Y106158D02*
D03*
Y104189D02*
D03*
Y102221D02*
D03*
X55008D02*
D03*
Y104189D02*
D03*
Y106158D02*
D03*
Y108126D02*
D03*
Y110095D02*
D03*
Y112063D02*
D03*
Y114032D02*
D03*
Y116000D02*
D03*
D58*
X64000Y96000D02*
D03*
X67937D02*
D03*
X76000Y97000D02*
D03*
X79937D02*
D03*
X166937Y5000D02*
D03*
X163000D02*
D03*
X159000D02*
D03*
X155063D02*
D03*
X130032Y67000D02*
D03*
X133968D02*
D03*
X159063Y9000D02*
D03*
X163000D02*
D03*
X25649Y102091D02*
D03*
X21712D02*
D03*
X89969Y52000D02*
D03*
X86032D02*
D03*
X129969Y18000D02*
D03*
X126031D02*
D03*
X140000D02*
D03*
X136063D02*
D03*
X40000Y62000D02*
D03*
X43937D02*
D03*
X101000Y7000D02*
D03*
X104937D02*
D03*
X40000Y67000D02*
D03*
X43937D02*
D03*
D59*
X79000Y104969D02*
D03*
Y101031D02*
D03*
X84000Y101000D02*
D03*
Y97063D02*
D03*
X134000Y62000D02*
D03*
Y58063D02*
D03*
X175000Y20937D02*
D03*
Y17000D02*
D03*
X139000Y41000D02*
D03*
Y44937D02*
D03*
X143000D02*
D03*
Y41000D02*
D03*
Y31000D02*
D03*
Y27063D02*
D03*
Y38000D02*
D03*
Y34063D02*
D03*
X29712Y104154D02*
D03*
Y108091D02*
D03*
X17712Y104154D02*
D03*
Y108091D02*
D03*
X23000Y79063D02*
D03*
Y83000D02*
D03*
X199000Y37000D02*
D03*
Y33063D02*
D03*
Y23000D02*
D03*
Y26937D02*
D03*
Y65000D02*
D03*
Y61063D02*
D03*
Y93000D02*
D03*
Y89063D02*
D03*
Y79000D02*
D03*
Y82937D02*
D03*
Y51000D02*
D03*
Y54937D02*
D03*
Y9031D02*
D03*
Y12968D02*
D03*
D60*
X78000Y136000D02*
D03*
X82921D02*
D03*
X78000Y142000D02*
D03*
X82921D02*
D03*
X78000Y130000D02*
D03*
X82921D02*
D03*
D61*
X155441Y22693D02*
D03*
X158000D02*
D03*
X160559D02*
D03*
X163118D02*
D03*
X155441Y41000D02*
D03*
X158000D02*
D03*
X160559D02*
D03*
X163118D02*
D03*
D62*
X119551Y54520D02*
D03*
Y62000D02*
D03*
X129000D02*
D03*
Y58260D02*
D03*
Y54520D02*
D03*
X122276Y27260D02*
D03*
Y31000D02*
D03*
Y34740D02*
D03*
X131724D02*
D03*
Y31000D02*
D03*
Y27260D02*
D03*
D63*
X109480Y59000D02*
D03*
X105740D02*
D03*
X102000D02*
D03*
Y49551D02*
D03*
X105740D02*
D03*
X109480D02*
D03*
D64*
X173087Y46000D02*
D03*
X175646D02*
D03*
X178205D02*
D03*
X180764D02*
D03*
X183323D02*
D03*
X185882D02*
D03*
X188441D02*
D03*
X191000D02*
D03*
X173087Y69032D02*
D03*
X175646D02*
D03*
X178205D02*
D03*
X180764D02*
D03*
X183323D02*
D03*
X185882D02*
D03*
X188441D02*
D03*
X191000D02*
D03*
D65*
X86260Y56587D02*
D03*
X90000D02*
D03*
X93740D02*
D03*
Y67413D02*
D03*
X86260D02*
D03*
D66*
X23058Y106942D02*
D03*
X24712D02*
D03*
Y108516D02*
D03*
X23058D02*
D03*
X24712Y110091D02*
D03*
X23058D02*
D03*
D67*
X18000Y90480D02*
D03*
Y86740D02*
D03*
Y83000D02*
D03*
X6386D02*
D03*
Y86740D02*
D03*
Y90480D02*
D03*
D68*
X98559Y14839D02*
D03*
D69*
X58000Y37150D02*
D03*
Y35575D02*
D03*
Y34000D02*
D03*
Y32425D02*
D03*
Y45024D02*
D03*
Y43449D02*
D03*
Y41874D02*
D03*
Y40299D02*
D03*
Y48173D02*
D03*
X81228Y32425D02*
D03*
Y34000D02*
D03*
Y35575D02*
D03*
Y37150D02*
D03*
Y40299D02*
D03*
Y41874D02*
D03*
Y43449D02*
D03*
Y45024D02*
D03*
Y48173D02*
D03*
X58000Y30850D02*
D03*
Y46598D02*
D03*
Y38724D02*
D03*
X81228Y30850D02*
D03*
Y38724D02*
D03*
Y46598D02*
D03*
D70*
X62528Y27898D02*
D03*
X64102D02*
D03*
X65677D02*
D03*
X67252D02*
D03*
Y51126D02*
D03*
X65677D02*
D03*
X64102D02*
D03*
X62528D02*
D03*
X70402Y27898D02*
D03*
X71976D02*
D03*
X73551D02*
D03*
X75126D02*
D03*
Y51126D02*
D03*
X73551D02*
D03*
X71976D02*
D03*
X70402D02*
D03*
X78276Y27898D02*
D03*
Y51126D02*
D03*
X60953Y27898D02*
D03*
Y51126D02*
D03*
X68827Y27898D02*
D03*
X76701D02*
D03*
Y51126D02*
D03*
X68827D02*
D03*
D71*
X69614Y39512D02*
D03*
D72*
X8000Y7590D02*
D03*
Y21000D02*
D03*
D73*
X80000Y12000D02*
D03*
Y6000D02*
D03*
D74*
X99000Y31772D02*
D03*
Y35000D02*
D03*
D75*
X44150Y13000D02*
D03*
Y16937D02*
D03*
X41000D02*
D03*
Y13000D02*
D03*
D76*
X8000Y131000D02*
D03*
Y140449D02*
D03*
D77*
X122000Y78000D02*
D03*
X112000D02*
D03*
X9000Y106000D02*
D03*
Y116000D02*
D03*
X212000Y9000D02*
D03*
X222000D02*
D03*
X212000Y65000D02*
D03*
X222000D02*
D03*
X212000Y79000D02*
D03*
X222000D02*
D03*
X212000Y93000D02*
D03*
X222000D02*
D03*
X212000Y51000D02*
D03*
X222000D02*
D03*
X212000Y37000D02*
D03*
X222000D02*
D03*
Y23000D02*
D03*
X212000D02*
D03*
X140000Y9000D02*
D03*
X130000D02*
D03*
X222000Y135000D02*
D03*
X212000D02*
D03*
X222000Y121000D02*
D03*
X212000D02*
D03*
X222000Y107000D02*
D03*
X212000D02*
D03*
D78*
X17000Y78000D02*
D03*
X22000Y94000D02*
D03*
X64000Y13625D02*
D03*
X36000Y136000D02*
D03*
X94000Y144000D02*
D03*
X7000Y77000D02*
D03*
X48000Y71000D02*
D03*
X25000Y128000D02*
D03*
X35000Y129000D02*
D03*
X28000Y137000D02*
D03*
X59000Y139000D02*
D03*
X88000Y108000D02*
D03*
X175000Y134000D02*
D03*
X187000Y142000D02*
D03*
X200000Y138000D02*
D03*
X169000Y91000D02*
D03*
X197000Y98000D02*
D03*
X181000Y29000D02*
D03*
X185000Y8000D02*
D03*
X149000Y15000D02*
D03*
X87000Y6000D02*
D03*
X115000D02*
D03*
X98000Y65000D02*
D03*
X82000Y53000D02*
D03*
X96000Y49000D02*
D03*
X90000Y40000D02*
D03*
X88000Y27000D02*
D03*
X65000Y8000D02*
D03*
X35000Y13000D02*
D03*
X53000Y5000D02*
D03*
X54000Y18000D02*
D03*
X49000Y29000D02*
D03*
X18000Y5000D02*
D03*
Y11000D02*
D03*
Y18000D02*
D03*
Y24000D02*
D03*
X22000Y31000D02*
D03*
X25000Y35000D02*
D03*
X29000D02*
D03*
X34000D02*
D03*
X4000Y45000D02*
D03*
X9000Y49000D02*
D03*
X16000D02*
D03*
X19000Y46000D02*
D03*
X29000D02*
D03*
X37000D02*
D03*
X47000Y47000D02*
D03*
X70000Y58000D02*
D03*
X77000Y68000D02*
D03*
X90000Y95000D02*
D03*
X97000Y87000D02*
D03*
X62000Y92000D02*
D03*
X43000Y98000D02*
D03*
X35016Y108000D02*
D03*
X57441Y121441D02*
D03*
X146000Y22000D02*
D03*
X72000Y142000D02*
D03*
X190000Y86000D02*
D03*
X191000Y102000D02*
D03*
Y108000D02*
D03*
X21000Y122000D02*
D03*
X28000Y119000D02*
D03*
X61504Y114130D02*
D03*
Y104091D02*
D03*
X59504Y109110D02*
D03*
X63504D02*
D03*
X38000Y119000D02*
D03*
X34000Y122000D02*
D03*
X46000Y112063D02*
D03*
X74000Y117000D02*
D03*
X132000Y40000D02*
D03*
X173000Y36000D02*
D03*
X178000Y33000D02*
D03*
X180000Y21000D02*
D03*
X177000Y5000D02*
D03*
X102000Y73000D02*
D03*
X120000Y50000D02*
D03*
Y67000D02*
D03*
X121000Y40000D02*
D03*
X83000Y84000D02*
D03*
X65000Y83000D02*
D03*
X31000Y94000D02*
D03*
X86000Y80000D02*
D03*
X53000Y89000D02*
D03*
X59000Y74000D02*
D03*
X37000Y62000D02*
D03*
X53000Y58000D02*
D03*
X12000Y54000D02*
D03*
X46000D02*
D03*
X17000D02*
D03*
X29000Y74000D02*
D03*
X199000Y18000D02*
D03*
Y30000D02*
D03*
Y58000D02*
D03*
Y86000D02*
D03*
X195000Y46000D02*
D03*
X107000Y19000D02*
D03*
X89000Y11000D02*
D03*
Y19000D02*
D03*
X98559Y14839D02*
D03*
X58000Y22000D02*
D03*
X84000D02*
D03*
X69614Y39512D02*
D03*
X74614D02*
D03*
Y33512D02*
D03*
X69614D02*
D03*
X64614D02*
D03*
Y39512D02*
D03*
X69614Y45512D02*
D03*
X74614D02*
D03*
X64614D02*
D03*
X68827Y18850D02*
D03*
M02*
