G04*
G04 #@! TF.GenerationSoftware,Altium Limited,Altium Designer,21.3.2 (30)*
G04*
G04 Layer_Color=128*
%FSLAX25Y25*%
%MOIN*%
G70*
G04*
G04 #@! TF.SameCoordinates,A34A3340-7ABE-472C-AE94-605A2DEBF9E2*
G04*
G04*
G04 #@! TF.FilePolarity,Positive*
G04*
G01*
G75*
%ADD12C,0.01000*%
%ADD23R,0.02362X0.02362*%
%ADD24R,0.02756X0.02756*%
%ADD27R,0.02362X0.02362*%
%ADD31R,0.01968X0.02362*%
G04:AMPARAMS|DCode=57|XSize=23.62mil|YSize=39.37mil|CornerRadius=2.01mil|HoleSize=0mil|Usage=FLASHONLY|Rotation=0.000|XOffset=0mil|YOffset=0mil|HoleType=Round|Shape=RoundedRectangle|*
%AMROUNDEDRECTD57*
21,1,0.02362,0.03535,0,0,0.0*
21,1,0.01961,0.03937,0,0,0.0*
1,1,0.00402,0.00980,-0.01768*
1,1,0.00402,-0.00980,-0.01768*
1,1,0.00402,-0.00980,0.01768*
1,1,0.00402,0.00980,0.01768*
%
%ADD57ROUNDEDRECTD57*%
G04:AMPARAMS|DCode=58|XSize=75mil|YSize=75mil|CornerRadius=18.75mil|HoleSize=0mil|Usage=FLASHONLY|Rotation=270.000|XOffset=0mil|YOffset=0mil|HoleType=Round|Shape=RoundedRectangle|*
%AMROUNDEDRECTD58*
21,1,0.07500,0.03750,0,0,270.0*
21,1,0.03750,0.07500,0,0,270.0*
1,1,0.03750,-0.01875,-0.01875*
1,1,0.03750,-0.01875,0.01875*
1,1,0.03750,0.01875,0.01875*
1,1,0.03750,0.01875,-0.01875*
%
%ADD58ROUNDEDRECTD58*%
G04:AMPARAMS|DCode=59|XSize=78.74mil|YSize=78.74mil|CornerRadius=19.68mil|HoleSize=0mil|Usage=FLASHONLY|Rotation=180.000|XOffset=0mil|YOffset=0mil|HoleType=Round|Shape=RoundedRectangle|*
%AMROUNDEDRECTD59*
21,1,0.07874,0.03937,0,0,180.0*
21,1,0.03937,0.07874,0,0,180.0*
1,1,0.03937,-0.01968,0.01968*
1,1,0.03937,0.01968,0.01968*
1,1,0.03937,0.01968,-0.01968*
1,1,0.03937,-0.01968,-0.01968*
%
%ADD59ROUNDEDRECTD59*%
%ADD60R,0.02362X0.01968*%
%ADD61R,0.00984X0.02756*%
%ADD62R,0.02756X0.00984*%
G04:AMPARAMS|DCode=63|XSize=17.72mil|YSize=11.81mil|CornerRadius=1.95mil|HoleSize=0mil|Usage=FLASHONLY|Rotation=180.000|XOffset=0mil|YOffset=0mil|HoleType=Round|Shape=RoundedRectangle|*
%AMROUNDEDRECTD63*
21,1,0.01772,0.00791,0,0,180.0*
21,1,0.01382,0.01181,0,0,180.0*
1,1,0.00390,-0.00691,0.00396*
1,1,0.00390,0.00691,0.00396*
1,1,0.00390,0.00691,-0.00396*
1,1,0.00390,-0.00691,-0.00396*
%
%ADD63ROUNDEDRECTD63*%
G04:AMPARAMS|DCode=65|XSize=51.18mil|YSize=23.62mil|CornerRadius=2.01mil|HoleSize=0mil|Usage=FLASHONLY|Rotation=270.000|XOffset=0mil|YOffset=0mil|HoleType=Round|Shape=RoundedRectangle|*
%AMROUNDEDRECTD65*
21,1,0.05118,0.01961,0,0,270.0*
21,1,0.04717,0.02362,0,0,270.0*
1,1,0.00402,-0.00980,-0.02358*
1,1,0.00402,-0.00980,0.02358*
1,1,0.00402,0.00980,0.02358*
1,1,0.00402,0.00980,-0.02358*
%
%ADD65ROUNDEDRECTD65*%
G04:AMPARAMS|DCode=66|XSize=25.59mil|YSize=47.24mil|CornerRadius=1.92mil|HoleSize=0mil|Usage=FLASHONLY|Rotation=90.000|XOffset=0mil|YOffset=0mil|HoleType=Round|Shape=RoundedRectangle|*
%AMROUNDEDRECTD66*
21,1,0.02559,0.04341,0,0,90.0*
21,1,0.02175,0.04724,0,0,90.0*
1,1,0.00384,0.02170,0.01088*
1,1,0.00384,0.02170,-0.01088*
1,1,0.00384,-0.02170,-0.01088*
1,1,0.00384,-0.02170,0.01088*
%
%ADD66ROUNDEDRECTD66*%
G36*
X40968Y12409D02*
Y12449D01*
X40938Y12521D01*
X40883Y12576D01*
X40811Y12606D01*
X40772D01*
D01*
X37228D01*
X37189D01*
X37117Y12576D01*
X37062Y12521D01*
X37031Y12449D01*
Y12409D01*
D01*
Y10047D01*
Y10008D01*
X37062Y9936D01*
X37117Y9880D01*
X37189Y9850D01*
X37228D01*
D01*
X40772D01*
X40811D01*
X40883Y9880D01*
X40938Y9936D01*
X40968Y10008D01*
Y10047D01*
D01*
Y12409D01*
D02*
G37*
G36*
X37228Y16150D02*
X37189D01*
X37117Y16120D01*
X37062Y16064D01*
X37031Y15992D01*
Y15953D01*
Y15953D01*
Y13590D01*
Y13551D01*
X37062Y13479D01*
X37117Y13424D01*
X37189Y13394D01*
X37228D01*
D01*
X40772D01*
X40811D01*
X40883Y13424D01*
X40938Y13479D01*
X40968Y13551D01*
Y13590D01*
D01*
Y15953D01*
Y15992D01*
X40938Y16064D01*
X40883Y16120D01*
X40811Y16150D01*
X40772D01*
D01*
X37228D01*
D02*
G37*
D12*
X89551Y0D02*
G03*
X96000Y6449I0J6449D01*
G01*
X96005Y57559D02*
G03*
X96000Y57554I0J-5D01*
G01*
X96005Y57559D02*
G03*
X89555Y64008I-6449J0D01*
G01*
X6449Y64000D02*
G03*
X0Y57551I0J-6449D01*
G01*
Y6449D02*
G03*
X6449Y0I6449J0D01*
G01*
X96000Y6449D02*
Y57554D01*
X0Y6449D02*
Y57551D01*
X6449Y0D02*
X89551D01*
X6449Y64000D02*
X89555Y64000D01*
D23*
X82032Y28000D02*
D03*
X85969D02*
D03*
X82000Y24000D02*
D03*
X85937D02*
D03*
X61063Y16000D02*
D03*
X65000D02*
D03*
X68000Y54000D02*
D03*
X71937D02*
D03*
X68000Y57000D02*
D03*
X71937D02*
D03*
X70937Y32000D02*
D03*
X67000D02*
D03*
D24*
X75543Y17047D02*
D03*
D27*
X16000Y51063D02*
D03*
Y55000D02*
D03*
X19000Y51063D02*
D03*
Y55000D02*
D03*
X27000Y56000D02*
D03*
Y52063D02*
D03*
X24000D02*
D03*
Y56000D02*
D03*
D31*
X68000Y10500D02*
D03*
X71937D02*
D03*
X78496Y10031D02*
D03*
X74559D02*
D03*
X60000Y45000D02*
D03*
X63937D02*
D03*
X76600Y6000D02*
D03*
X72663D02*
D03*
D57*
X63440Y59727D02*
D03*
X55960D02*
D03*
Y48900D02*
D03*
X59700D02*
D03*
X63440D02*
D03*
D58*
X89900Y58000D02*
D03*
Y48000D02*
D03*
Y38000D02*
D03*
D59*
X88900Y16000D02*
D03*
Y7000D02*
D03*
D60*
X51000Y22937D02*
D03*
Y19000D02*
D03*
X68100Y13263D02*
D03*
Y17200D02*
D03*
X32520Y52520D02*
D03*
Y48583D02*
D03*
X32000Y21000D02*
D03*
Y17063D02*
D03*
D61*
X74559Y20591D02*
D03*
X76528D02*
D03*
Y13504D02*
D03*
X74559D02*
D03*
D62*
X72000Y20000D02*
D03*
Y18032D02*
D03*
Y16063D02*
D03*
Y14095D02*
D03*
X79087D02*
D03*
Y16063D02*
D03*
Y18032D02*
D03*
Y20000D02*
D03*
D63*
X42839Y15559D02*
D03*
Y13000D02*
D03*
Y10441D02*
D03*
X35161D02*
D03*
Y13000D02*
D03*
Y15559D02*
D03*
D65*
X3820Y58800D02*
D03*
X11300D02*
D03*
X7560Y50532D02*
D03*
D66*
X37386Y60000D02*
D03*
Y56260D02*
D03*
Y52520D02*
D03*
X49000D02*
D03*
Y56260D02*
D03*
Y60000D02*
D03*
M02*
